G04 #@! TF.GenerationSoftware,KiCad,Pcbnew,(5.1.5)-3*
G04 #@! TF.CreationDate,2020-04-04T16:36:26+02:00*
G04 #@! TF.ProjectId,Control_board,436f6e74-726f-46c5-9f62-6f6172642e6b,rev?*
G04 #@! TF.SameCoordinates,Original*
G04 #@! TF.FileFunction,Soldermask,Bot*
G04 #@! TF.FilePolarity,Negative*
%FSLAX46Y46*%
G04 Gerber Fmt 4.6, Leading zero omitted, Abs format (unit mm)*
G04 Created by KiCad (PCBNEW (5.1.5)-3) date 2020-04-04 16:36:26*
%MOMM*%
%LPD*%
G04 APERTURE LIST*
%ADD10C,0.100000*%
G04 APERTURE END LIST*
D10*
G36*
X100894083Y-170799090D02*
G01*
X101122702Y-170844564D01*
X101409516Y-170963367D01*
X101667642Y-171135841D01*
X101887159Y-171355358D01*
X102059633Y-171613484D01*
X102178436Y-171900298D01*
X102217120Y-172094778D01*
X102239000Y-172204776D01*
X102239000Y-172515224D01*
X102230153Y-172559701D01*
X102178436Y-172819702D01*
X102059633Y-173106516D01*
X101887159Y-173364642D01*
X101667642Y-173584159D01*
X101409516Y-173756633D01*
X101122702Y-173875436D01*
X100894083Y-173920910D01*
X100818224Y-173936000D01*
X100507776Y-173936000D01*
X100431917Y-173920910D01*
X100203298Y-173875436D01*
X99916484Y-173756633D01*
X99658358Y-173584159D01*
X99438841Y-173364642D01*
X99266367Y-173106516D01*
X99147564Y-172819702D01*
X99095847Y-172559701D01*
X99087000Y-172515224D01*
X99087000Y-172204776D01*
X99108880Y-172094778D01*
X99147564Y-171900298D01*
X99266367Y-171613484D01*
X99438841Y-171355358D01*
X99658358Y-171135841D01*
X99916484Y-170963367D01*
X100203298Y-170844564D01*
X100431917Y-170799090D01*
X100507776Y-170784000D01*
X100818224Y-170784000D01*
X100894083Y-170799090D01*
G37*
G36*
X87894083Y-170799090D02*
G01*
X88122702Y-170844564D01*
X88409516Y-170963367D01*
X88667642Y-171135841D01*
X88887159Y-171355358D01*
X89059633Y-171613484D01*
X89178436Y-171900298D01*
X89217120Y-172094778D01*
X89239000Y-172204776D01*
X89239000Y-172515224D01*
X89230153Y-172559701D01*
X89178436Y-172819702D01*
X89059633Y-173106516D01*
X88887159Y-173364642D01*
X88667642Y-173584159D01*
X88409516Y-173756633D01*
X88122702Y-173875436D01*
X87894083Y-173920910D01*
X87818224Y-173936000D01*
X87507776Y-173936000D01*
X87431917Y-173920910D01*
X87203298Y-173875436D01*
X86916484Y-173756633D01*
X86658358Y-173584159D01*
X86438841Y-173364642D01*
X86266367Y-173106516D01*
X86147564Y-172819702D01*
X86095847Y-172559701D01*
X86087000Y-172515224D01*
X86087000Y-172204776D01*
X86108880Y-172094778D01*
X86147564Y-171900298D01*
X86266367Y-171613484D01*
X86438841Y-171355358D01*
X86658358Y-171135841D01*
X86916484Y-170963367D01*
X87203298Y-170844564D01*
X87431917Y-170799090D01*
X87507776Y-170784000D01*
X87818224Y-170784000D01*
X87894083Y-170799090D01*
G37*
G36*
X120231083Y-170689090D02*
G01*
X120459702Y-170734564D01*
X120746516Y-170853367D01*
X121004642Y-171025841D01*
X121224159Y-171245358D01*
X121396633Y-171503484D01*
X121515436Y-171790298D01*
X121576000Y-172094778D01*
X121576000Y-172405222D01*
X121515436Y-172709702D01*
X121396633Y-172996516D01*
X121224159Y-173254642D01*
X121004642Y-173474159D01*
X120746516Y-173646633D01*
X120459702Y-173765436D01*
X120231083Y-173810910D01*
X120155224Y-173826000D01*
X119844776Y-173826000D01*
X119768917Y-173810910D01*
X119540298Y-173765436D01*
X119253484Y-173646633D01*
X118995358Y-173474159D01*
X118775841Y-173254642D01*
X118603367Y-172996516D01*
X118484564Y-172709702D01*
X118424000Y-172405222D01*
X118424000Y-172094778D01*
X118484564Y-171790298D01*
X118603367Y-171503484D01*
X118775841Y-171245358D01*
X118995358Y-171025841D01*
X119253484Y-170853367D01*
X119540298Y-170734564D01*
X119768917Y-170689090D01*
X119844776Y-170674000D01*
X120155224Y-170674000D01*
X120231083Y-170689090D01*
G37*
G36*
X112231083Y-170689090D02*
G01*
X112459702Y-170734564D01*
X112746516Y-170853367D01*
X113004642Y-171025841D01*
X113224159Y-171245358D01*
X113396633Y-171503484D01*
X113515436Y-171790298D01*
X113576000Y-172094778D01*
X113576000Y-172405222D01*
X113515436Y-172709702D01*
X113396633Y-172996516D01*
X113224159Y-173254642D01*
X113004642Y-173474159D01*
X112746516Y-173646633D01*
X112459702Y-173765436D01*
X112231083Y-173810910D01*
X112155224Y-173826000D01*
X111844776Y-173826000D01*
X111768917Y-173810910D01*
X111540298Y-173765436D01*
X111253484Y-173646633D01*
X110995358Y-173474159D01*
X110775841Y-173254642D01*
X110603367Y-172996516D01*
X110484564Y-172709702D01*
X110424000Y-172405222D01*
X110424000Y-172094778D01*
X110484564Y-171790298D01*
X110603367Y-171503484D01*
X110775841Y-171245358D01*
X110995358Y-171025841D01*
X111253484Y-170853367D01*
X111540298Y-170734564D01*
X111768917Y-170689090D01*
X111844776Y-170674000D01*
X112155224Y-170674000D01*
X112231083Y-170689090D01*
G37*
G36*
X167631083Y-170539090D02*
G01*
X167859702Y-170584564D01*
X168146516Y-170703367D01*
X168404642Y-170875841D01*
X168624159Y-171095358D01*
X168796633Y-171353484D01*
X168915436Y-171640298D01*
X168976000Y-171944778D01*
X168976000Y-172255222D01*
X168915436Y-172559702D01*
X168796633Y-172846516D01*
X168624159Y-173104642D01*
X168404642Y-173324159D01*
X168146516Y-173496633D01*
X167859702Y-173615436D01*
X167631083Y-173660910D01*
X167555224Y-173676000D01*
X167244776Y-173676000D01*
X167168917Y-173660910D01*
X166940298Y-173615436D01*
X166653484Y-173496633D01*
X166395358Y-173324159D01*
X166175841Y-173104642D01*
X166003367Y-172846516D01*
X165884564Y-172559702D01*
X165824000Y-172255222D01*
X165824000Y-171944778D01*
X165884564Y-171640298D01*
X166003367Y-171353484D01*
X166175841Y-171095358D01*
X166395358Y-170875841D01*
X166653484Y-170703367D01*
X166940298Y-170584564D01*
X167168917Y-170539090D01*
X167244776Y-170524000D01*
X167555224Y-170524000D01*
X167631083Y-170539090D01*
G37*
G36*
X150231083Y-170239090D02*
G01*
X150459702Y-170284564D01*
X150746516Y-170403367D01*
X151004642Y-170575841D01*
X151224159Y-170795358D01*
X151396633Y-171053484D01*
X151515436Y-171340298D01*
X151560910Y-171568917D01*
X151569776Y-171613484D01*
X151576000Y-171644778D01*
X151576000Y-171955222D01*
X151515436Y-172259702D01*
X151396633Y-172546516D01*
X151224159Y-172804642D01*
X151004642Y-173024159D01*
X150746516Y-173196633D01*
X150459702Y-173315436D01*
X150231083Y-173360910D01*
X150155224Y-173376000D01*
X149844776Y-173376000D01*
X149768917Y-173360910D01*
X149540298Y-173315436D01*
X149253484Y-173196633D01*
X148995358Y-173024159D01*
X148775841Y-172804642D01*
X148603367Y-172546516D01*
X148484564Y-172259702D01*
X148424000Y-171955222D01*
X148424000Y-171644778D01*
X148430225Y-171613484D01*
X148439090Y-171568917D01*
X148484564Y-171340298D01*
X148603367Y-171053484D01*
X148775841Y-170795358D01*
X148995358Y-170575841D01*
X149253484Y-170403367D01*
X149540298Y-170284564D01*
X149768917Y-170239090D01*
X149844776Y-170224000D01*
X150155224Y-170224000D01*
X150231083Y-170239090D01*
G37*
G36*
X132231083Y-170239090D02*
G01*
X132459702Y-170284564D01*
X132746516Y-170403367D01*
X133004642Y-170575841D01*
X133224159Y-170795358D01*
X133396633Y-171053484D01*
X133515436Y-171340298D01*
X133560910Y-171568917D01*
X133569776Y-171613484D01*
X133576000Y-171644778D01*
X133576000Y-171955222D01*
X133515436Y-172259702D01*
X133396633Y-172546516D01*
X133224159Y-172804642D01*
X133004642Y-173024159D01*
X132746516Y-173196633D01*
X132459702Y-173315436D01*
X132231083Y-173360910D01*
X132155224Y-173376000D01*
X131844776Y-173376000D01*
X131768917Y-173360910D01*
X131540298Y-173315436D01*
X131253484Y-173196633D01*
X130995358Y-173024159D01*
X130775841Y-172804642D01*
X130603367Y-172546516D01*
X130484564Y-172259702D01*
X130424000Y-171955222D01*
X130424000Y-171644778D01*
X130430225Y-171613484D01*
X130439090Y-171568917D01*
X130484564Y-171340298D01*
X130603367Y-171053484D01*
X130775841Y-170795358D01*
X130995358Y-170575841D01*
X131253484Y-170403367D01*
X131540298Y-170284564D01*
X131768917Y-170239090D01*
X131844776Y-170224000D01*
X132155224Y-170224000D01*
X132231083Y-170239090D01*
G37*
G36*
X102356992Y-167208366D02*
G01*
X102411957Y-167219299D01*
X102567284Y-167283638D01*
X102707075Y-167377043D01*
X102825957Y-167495925D01*
X102862786Y-167551044D01*
X102919363Y-167635718D01*
X102983701Y-167791044D01*
X103016500Y-167955936D01*
X103016500Y-168124064D01*
X103005146Y-168181143D01*
X102983701Y-168288957D01*
X102919362Y-168444284D01*
X102825957Y-168584075D01*
X102707075Y-168702957D01*
X102567284Y-168796362D01*
X102411957Y-168860701D01*
X102356992Y-168871634D01*
X102247064Y-168893500D01*
X102078936Y-168893500D01*
X101969008Y-168871634D01*
X101914043Y-168860701D01*
X101758716Y-168796362D01*
X101618925Y-168702957D01*
X101500043Y-168584075D01*
X101406638Y-168444284D01*
X101342299Y-168288957D01*
X101320854Y-168181143D01*
X101309500Y-168124064D01*
X101309500Y-167955936D01*
X101342299Y-167791044D01*
X101406637Y-167635718D01*
X101463214Y-167551044D01*
X101500043Y-167495925D01*
X101618925Y-167377043D01*
X101758716Y-167283638D01*
X101914043Y-167219299D01*
X101969008Y-167208366D01*
X102078936Y-167186500D01*
X102247064Y-167186500D01*
X102356992Y-167208366D01*
G37*
G36*
X99356992Y-167208366D02*
G01*
X99411957Y-167219299D01*
X99567284Y-167283638D01*
X99707075Y-167377043D01*
X99825957Y-167495925D01*
X99862786Y-167551044D01*
X99919363Y-167635718D01*
X99983701Y-167791044D01*
X100016500Y-167955936D01*
X100016500Y-168124064D01*
X100005146Y-168181143D01*
X99983701Y-168288957D01*
X99919362Y-168444284D01*
X99825957Y-168584075D01*
X99707075Y-168702957D01*
X99567284Y-168796362D01*
X99411957Y-168860701D01*
X99356992Y-168871634D01*
X99247064Y-168893500D01*
X99078936Y-168893500D01*
X98969008Y-168871634D01*
X98914043Y-168860701D01*
X98758716Y-168796362D01*
X98618925Y-168702957D01*
X98500043Y-168584075D01*
X98406638Y-168444284D01*
X98342299Y-168288957D01*
X98320854Y-168181143D01*
X98309500Y-168124064D01*
X98309500Y-167955936D01*
X98342299Y-167791044D01*
X98406637Y-167635718D01*
X98463214Y-167551044D01*
X98500043Y-167495925D01*
X98618925Y-167377043D01*
X98758716Y-167283638D01*
X98914043Y-167219299D01*
X98969008Y-167208366D01*
X99078936Y-167186500D01*
X99247064Y-167186500D01*
X99356992Y-167208366D01*
G37*
G36*
X89356992Y-167208366D02*
G01*
X89411957Y-167219299D01*
X89567284Y-167283638D01*
X89707075Y-167377043D01*
X89825957Y-167495925D01*
X89862786Y-167551044D01*
X89919363Y-167635718D01*
X89983701Y-167791044D01*
X90016500Y-167955936D01*
X90016500Y-168124064D01*
X90005146Y-168181143D01*
X89983701Y-168288957D01*
X89919362Y-168444284D01*
X89825957Y-168584075D01*
X89707075Y-168702957D01*
X89567284Y-168796362D01*
X89411957Y-168860701D01*
X89356992Y-168871634D01*
X89247064Y-168893500D01*
X89078936Y-168893500D01*
X88969008Y-168871634D01*
X88914043Y-168860701D01*
X88758716Y-168796362D01*
X88618925Y-168702957D01*
X88500043Y-168584075D01*
X88406638Y-168444284D01*
X88342299Y-168288957D01*
X88320854Y-168181143D01*
X88309500Y-168124064D01*
X88309500Y-167955936D01*
X88342299Y-167791044D01*
X88406637Y-167635718D01*
X88463214Y-167551044D01*
X88500043Y-167495925D01*
X88618925Y-167377043D01*
X88758716Y-167283638D01*
X88914043Y-167219299D01*
X88969008Y-167208366D01*
X89078936Y-167186500D01*
X89247064Y-167186500D01*
X89356992Y-167208366D01*
G37*
G36*
X86356992Y-167208366D02*
G01*
X86411957Y-167219299D01*
X86567284Y-167283638D01*
X86707075Y-167377043D01*
X86825957Y-167495925D01*
X86862786Y-167551044D01*
X86919363Y-167635718D01*
X86983701Y-167791044D01*
X87016500Y-167955936D01*
X87016500Y-168124064D01*
X87005146Y-168181143D01*
X86983701Y-168288957D01*
X86919362Y-168444284D01*
X86825957Y-168584075D01*
X86707075Y-168702957D01*
X86567284Y-168796362D01*
X86411957Y-168860701D01*
X86356992Y-168871634D01*
X86247064Y-168893500D01*
X86078936Y-168893500D01*
X85969008Y-168871634D01*
X85914043Y-168860701D01*
X85758716Y-168796362D01*
X85618925Y-168702957D01*
X85500043Y-168584075D01*
X85406638Y-168444284D01*
X85342299Y-168288957D01*
X85320854Y-168181143D01*
X85309500Y-168124064D01*
X85309500Y-167955936D01*
X85342299Y-167791044D01*
X85406637Y-167635718D01*
X85463214Y-167551044D01*
X85500043Y-167495925D01*
X85618925Y-167377043D01*
X85758716Y-167283638D01*
X85914043Y-167219299D01*
X85969008Y-167208366D01*
X86078936Y-167186500D01*
X86247064Y-167186500D01*
X86356992Y-167208366D01*
G37*
G36*
X120251143Y-167102087D02*
G01*
X120407838Y-167166992D01*
X120548853Y-167261215D01*
X120668785Y-167381147D01*
X120763008Y-167522162D01*
X120827913Y-167678857D01*
X120861000Y-167845198D01*
X120861000Y-168014802D01*
X120827913Y-168181143D01*
X120763008Y-168337838D01*
X120668785Y-168478853D01*
X120548853Y-168598785D01*
X120407838Y-168693008D01*
X120251143Y-168757913D01*
X120084802Y-168791000D01*
X119915198Y-168791000D01*
X119748857Y-168757913D01*
X119592162Y-168693008D01*
X119451147Y-168598785D01*
X119331215Y-168478853D01*
X119236992Y-168337838D01*
X119172087Y-168181143D01*
X119139000Y-168014802D01*
X119139000Y-167845198D01*
X119172087Y-167678857D01*
X119236992Y-167522162D01*
X119331215Y-167381147D01*
X119451147Y-167261215D01*
X119592162Y-167166992D01*
X119748857Y-167102087D01*
X119915198Y-167069000D01*
X120084802Y-167069000D01*
X120251143Y-167102087D01*
G37*
G36*
X112251143Y-167102087D02*
G01*
X112407838Y-167166992D01*
X112548853Y-167261215D01*
X112668785Y-167381147D01*
X112763008Y-167522162D01*
X112827913Y-167678857D01*
X112861000Y-167845198D01*
X112861000Y-168014802D01*
X112827913Y-168181143D01*
X112763008Y-168337838D01*
X112668785Y-168478853D01*
X112548853Y-168598785D01*
X112407838Y-168693008D01*
X112251143Y-168757913D01*
X112084802Y-168791000D01*
X111915198Y-168791000D01*
X111748857Y-168757913D01*
X111592162Y-168693008D01*
X111451147Y-168598785D01*
X111331215Y-168478853D01*
X111236992Y-168337838D01*
X111172087Y-168181143D01*
X111139000Y-168014802D01*
X111139000Y-167845198D01*
X111172087Y-167678857D01*
X111236992Y-167522162D01*
X111331215Y-167381147D01*
X111451147Y-167261215D01*
X111592162Y-167166992D01*
X111748857Y-167102087D01*
X111915198Y-167069000D01*
X112084802Y-167069000D01*
X112251143Y-167102087D01*
G37*
G36*
X170593992Y-166968366D02*
G01*
X170648957Y-166979299D01*
X170804284Y-167043638D01*
X170944075Y-167137043D01*
X171062957Y-167255925D01*
X171081473Y-167283637D01*
X171156363Y-167395718D01*
X171164738Y-167415938D01*
X171197871Y-167495926D01*
X171220701Y-167551044D01*
X171246125Y-167678857D01*
X171253500Y-167715938D01*
X171253500Y-167884062D01*
X171220701Y-168048957D01*
X171156362Y-168204284D01*
X171062957Y-168344075D01*
X170944075Y-168462957D01*
X170804284Y-168556362D01*
X170648957Y-168620701D01*
X170593992Y-168631634D01*
X170484064Y-168653500D01*
X170315936Y-168653500D01*
X170206008Y-168631634D01*
X170151043Y-168620701D01*
X169995716Y-168556362D01*
X169855925Y-168462957D01*
X169737043Y-168344075D01*
X169643638Y-168204284D01*
X169579299Y-168048957D01*
X169546500Y-167884062D01*
X169546500Y-167715938D01*
X169553876Y-167678857D01*
X169579299Y-167551044D01*
X169602130Y-167495926D01*
X169635262Y-167415938D01*
X169643637Y-167395718D01*
X169718527Y-167283637D01*
X169737043Y-167255925D01*
X169855925Y-167137043D01*
X169995716Y-167043638D01*
X170151043Y-166979299D01*
X170206008Y-166968366D01*
X170315936Y-166946500D01*
X170484064Y-166946500D01*
X170593992Y-166968366D01*
G37*
G36*
X167593992Y-166968366D02*
G01*
X167648957Y-166979299D01*
X167804284Y-167043638D01*
X167944075Y-167137043D01*
X168062957Y-167255925D01*
X168081473Y-167283637D01*
X168156363Y-167395718D01*
X168164738Y-167415938D01*
X168197871Y-167495926D01*
X168220701Y-167551044D01*
X168246125Y-167678857D01*
X168253500Y-167715938D01*
X168253500Y-167884062D01*
X168220701Y-168048957D01*
X168156362Y-168204284D01*
X168062957Y-168344075D01*
X167944075Y-168462957D01*
X167804284Y-168556362D01*
X167648957Y-168620701D01*
X167593992Y-168631634D01*
X167484064Y-168653500D01*
X167315936Y-168653500D01*
X167206008Y-168631634D01*
X167151043Y-168620701D01*
X166995716Y-168556362D01*
X166855925Y-168462957D01*
X166737043Y-168344075D01*
X166643638Y-168204284D01*
X166579299Y-168048957D01*
X166546500Y-167884062D01*
X166546500Y-167715938D01*
X166553876Y-167678857D01*
X166579299Y-167551044D01*
X166602130Y-167495926D01*
X166635262Y-167415938D01*
X166643637Y-167395718D01*
X166718527Y-167283637D01*
X166737043Y-167255925D01*
X166855925Y-167137043D01*
X166995716Y-167043638D01*
X167151043Y-166979299D01*
X167206008Y-166968366D01*
X167315936Y-166946500D01*
X167484064Y-166946500D01*
X167593992Y-166968366D01*
G37*
G36*
X164593992Y-166968366D02*
G01*
X164648957Y-166979299D01*
X164804284Y-167043638D01*
X164944075Y-167137043D01*
X165062957Y-167255925D01*
X165081473Y-167283637D01*
X165156363Y-167395718D01*
X165164738Y-167415938D01*
X165197871Y-167495926D01*
X165220701Y-167551044D01*
X165246125Y-167678857D01*
X165253500Y-167715938D01*
X165253500Y-167884062D01*
X165220701Y-168048957D01*
X165156362Y-168204284D01*
X165062957Y-168344075D01*
X164944075Y-168462957D01*
X164804284Y-168556362D01*
X164648957Y-168620701D01*
X164593992Y-168631634D01*
X164484064Y-168653500D01*
X164315936Y-168653500D01*
X164206008Y-168631634D01*
X164151043Y-168620701D01*
X163995716Y-168556362D01*
X163855925Y-168462957D01*
X163737043Y-168344075D01*
X163643638Y-168204284D01*
X163579299Y-168048957D01*
X163546500Y-167884062D01*
X163546500Y-167715938D01*
X163553876Y-167678857D01*
X163579299Y-167551044D01*
X163602130Y-167495926D01*
X163635262Y-167415938D01*
X163643637Y-167395718D01*
X163718527Y-167283637D01*
X163737043Y-167255925D01*
X163855925Y-167137043D01*
X163995716Y-167043638D01*
X164151043Y-166979299D01*
X164206008Y-166968366D01*
X164315936Y-166946500D01*
X164484064Y-166946500D01*
X164593992Y-166968366D01*
G37*
G36*
X132193992Y-166668366D02*
G01*
X132248957Y-166679299D01*
X132404284Y-166743638D01*
X132544075Y-166837043D01*
X132662957Y-166955925D01*
X132738511Y-167069000D01*
X132756363Y-167095718D01*
X132820701Y-167251044D01*
X132853500Y-167415936D01*
X132853500Y-167584064D01*
X132820701Y-167748956D01*
X132764738Y-167884064D01*
X132756362Y-167904284D01*
X132662957Y-168044075D01*
X132544075Y-168162957D01*
X132404284Y-168256362D01*
X132248957Y-168320701D01*
X132193992Y-168331634D01*
X132084064Y-168353500D01*
X131915936Y-168353500D01*
X131806008Y-168331634D01*
X131751043Y-168320701D01*
X131595716Y-168256362D01*
X131455925Y-168162957D01*
X131337043Y-168044075D01*
X131243638Y-167904284D01*
X131235263Y-167884064D01*
X131179299Y-167748956D01*
X131146500Y-167584064D01*
X131146500Y-167415936D01*
X131179299Y-167251044D01*
X131243637Y-167095718D01*
X131261489Y-167069000D01*
X131337043Y-166955925D01*
X131455925Y-166837043D01*
X131595716Y-166743638D01*
X131751043Y-166679299D01*
X131806008Y-166668366D01*
X131915936Y-166646500D01*
X132084064Y-166646500D01*
X132193992Y-166668366D01*
G37*
G36*
X153193992Y-166668366D02*
G01*
X153248957Y-166679299D01*
X153404284Y-166743638D01*
X153544075Y-166837043D01*
X153662957Y-166955925D01*
X153738511Y-167069000D01*
X153756363Y-167095718D01*
X153820701Y-167251044D01*
X153853500Y-167415936D01*
X153853500Y-167584064D01*
X153820701Y-167748956D01*
X153764738Y-167884064D01*
X153756362Y-167904284D01*
X153662957Y-168044075D01*
X153544075Y-168162957D01*
X153404284Y-168256362D01*
X153248957Y-168320701D01*
X153193992Y-168331634D01*
X153084064Y-168353500D01*
X152915936Y-168353500D01*
X152806008Y-168331634D01*
X152751043Y-168320701D01*
X152595716Y-168256362D01*
X152455925Y-168162957D01*
X152337043Y-168044075D01*
X152243638Y-167904284D01*
X152235263Y-167884064D01*
X152179299Y-167748956D01*
X152146500Y-167584064D01*
X152146500Y-167415936D01*
X152179299Y-167251044D01*
X152243637Y-167095718D01*
X152261489Y-167069000D01*
X152337043Y-166955925D01*
X152455925Y-166837043D01*
X152595716Y-166743638D01*
X152751043Y-166679299D01*
X152806008Y-166668366D01*
X152915936Y-166646500D01*
X153084064Y-166646500D01*
X153193992Y-166668366D01*
G37*
G36*
X147193992Y-166668366D02*
G01*
X147248957Y-166679299D01*
X147404284Y-166743638D01*
X147544075Y-166837043D01*
X147662957Y-166955925D01*
X147738511Y-167069000D01*
X147756363Y-167095718D01*
X147820701Y-167251044D01*
X147853500Y-167415936D01*
X147853500Y-167584064D01*
X147820701Y-167748956D01*
X147764738Y-167884064D01*
X147756362Y-167904284D01*
X147662957Y-168044075D01*
X147544075Y-168162957D01*
X147404284Y-168256362D01*
X147248957Y-168320701D01*
X147193992Y-168331634D01*
X147084064Y-168353500D01*
X146915936Y-168353500D01*
X146806008Y-168331634D01*
X146751043Y-168320701D01*
X146595716Y-168256362D01*
X146455925Y-168162957D01*
X146337043Y-168044075D01*
X146243638Y-167904284D01*
X146235263Y-167884064D01*
X146179299Y-167748956D01*
X146146500Y-167584064D01*
X146146500Y-167415936D01*
X146179299Y-167251044D01*
X146243637Y-167095718D01*
X146261489Y-167069000D01*
X146337043Y-166955925D01*
X146455925Y-166837043D01*
X146595716Y-166743638D01*
X146751043Y-166679299D01*
X146806008Y-166668366D01*
X146915936Y-166646500D01*
X147084064Y-166646500D01*
X147193992Y-166668366D01*
G37*
G36*
X135193992Y-166668366D02*
G01*
X135248957Y-166679299D01*
X135404284Y-166743638D01*
X135544075Y-166837043D01*
X135662957Y-166955925D01*
X135738511Y-167069000D01*
X135756363Y-167095718D01*
X135820701Y-167251044D01*
X135853500Y-167415936D01*
X135853500Y-167584064D01*
X135820701Y-167748956D01*
X135764738Y-167884064D01*
X135756362Y-167904284D01*
X135662957Y-168044075D01*
X135544075Y-168162957D01*
X135404284Y-168256362D01*
X135248957Y-168320701D01*
X135193992Y-168331634D01*
X135084064Y-168353500D01*
X134915936Y-168353500D01*
X134806008Y-168331634D01*
X134751043Y-168320701D01*
X134595716Y-168256362D01*
X134455925Y-168162957D01*
X134337043Y-168044075D01*
X134243638Y-167904284D01*
X134235263Y-167884064D01*
X134179299Y-167748956D01*
X134146500Y-167584064D01*
X134146500Y-167415936D01*
X134179299Y-167251044D01*
X134243637Y-167095718D01*
X134261489Y-167069000D01*
X134337043Y-166955925D01*
X134455925Y-166837043D01*
X134595716Y-166743638D01*
X134751043Y-166679299D01*
X134806008Y-166668366D01*
X134915936Y-166646500D01*
X135084064Y-166646500D01*
X135193992Y-166668366D01*
G37*
G36*
X129193992Y-166668366D02*
G01*
X129248957Y-166679299D01*
X129404284Y-166743638D01*
X129544075Y-166837043D01*
X129662957Y-166955925D01*
X129738511Y-167069000D01*
X129756363Y-167095718D01*
X129820701Y-167251044D01*
X129853500Y-167415936D01*
X129853500Y-167584064D01*
X129820701Y-167748956D01*
X129764738Y-167884064D01*
X129756362Y-167904284D01*
X129662957Y-168044075D01*
X129544075Y-168162957D01*
X129404284Y-168256362D01*
X129248957Y-168320701D01*
X129193992Y-168331634D01*
X129084064Y-168353500D01*
X128915936Y-168353500D01*
X128806008Y-168331634D01*
X128751043Y-168320701D01*
X128595716Y-168256362D01*
X128455925Y-168162957D01*
X128337043Y-168044075D01*
X128243638Y-167904284D01*
X128235263Y-167884064D01*
X128179299Y-167748956D01*
X128146500Y-167584064D01*
X128146500Y-167415936D01*
X128179299Y-167251044D01*
X128243637Y-167095718D01*
X128261489Y-167069000D01*
X128337043Y-166955925D01*
X128455925Y-166837043D01*
X128595716Y-166743638D01*
X128751043Y-166679299D01*
X128806008Y-166668366D01*
X128915936Y-166646500D01*
X129084064Y-166646500D01*
X129193992Y-166668366D01*
G37*
G36*
X150193992Y-166668366D02*
G01*
X150248957Y-166679299D01*
X150404284Y-166743638D01*
X150544075Y-166837043D01*
X150662957Y-166955925D01*
X150738511Y-167069000D01*
X150756363Y-167095718D01*
X150820701Y-167251044D01*
X150853500Y-167415936D01*
X150853500Y-167584064D01*
X150820701Y-167748956D01*
X150764738Y-167884064D01*
X150756362Y-167904284D01*
X150662957Y-168044075D01*
X150544075Y-168162957D01*
X150404284Y-168256362D01*
X150248957Y-168320701D01*
X150193992Y-168331634D01*
X150084064Y-168353500D01*
X149915936Y-168353500D01*
X149806008Y-168331634D01*
X149751043Y-168320701D01*
X149595716Y-168256362D01*
X149455925Y-168162957D01*
X149337043Y-168044075D01*
X149243638Y-167904284D01*
X149235263Y-167884064D01*
X149179299Y-167748956D01*
X149146500Y-167584064D01*
X149146500Y-167415936D01*
X149179299Y-167251044D01*
X149243637Y-167095718D01*
X149261489Y-167069000D01*
X149337043Y-166955925D01*
X149455925Y-166837043D01*
X149595716Y-166743638D01*
X149751043Y-166679299D01*
X149806008Y-166668366D01*
X149915936Y-166646500D01*
X150084064Y-166646500D01*
X150193992Y-166668366D01*
G37*
G36*
X86356992Y-164208366D02*
G01*
X86411957Y-164219299D01*
X86567284Y-164283638D01*
X86707075Y-164377043D01*
X86825957Y-164495925D01*
X86862786Y-164551044D01*
X86919363Y-164635718D01*
X86983701Y-164791044D01*
X87016500Y-164955936D01*
X87016500Y-165124064D01*
X87005146Y-165181143D01*
X86983701Y-165288957D01*
X86919362Y-165444284D01*
X86825957Y-165584075D01*
X86707075Y-165702957D01*
X86567284Y-165796362D01*
X86411957Y-165860701D01*
X86356992Y-165871634D01*
X86247064Y-165893500D01*
X86078936Y-165893500D01*
X85969008Y-165871634D01*
X85914043Y-165860701D01*
X85758716Y-165796362D01*
X85618925Y-165702957D01*
X85500043Y-165584075D01*
X85406638Y-165444284D01*
X85342299Y-165288957D01*
X85320854Y-165181143D01*
X85309500Y-165124064D01*
X85309500Y-164955936D01*
X85342299Y-164791044D01*
X85406637Y-164635718D01*
X85463214Y-164551044D01*
X85500043Y-164495925D01*
X85618925Y-164377043D01*
X85758716Y-164283638D01*
X85914043Y-164219299D01*
X85969008Y-164208366D01*
X86078936Y-164186500D01*
X86247064Y-164186500D01*
X86356992Y-164208366D01*
G37*
G36*
X89356992Y-164208366D02*
G01*
X89411957Y-164219299D01*
X89567284Y-164283638D01*
X89707075Y-164377043D01*
X89825957Y-164495925D01*
X89862786Y-164551044D01*
X89919363Y-164635718D01*
X89983701Y-164791044D01*
X90016500Y-164955936D01*
X90016500Y-165124064D01*
X90005146Y-165181143D01*
X89983701Y-165288957D01*
X89919362Y-165444284D01*
X89825957Y-165584075D01*
X89707075Y-165702957D01*
X89567284Y-165796362D01*
X89411957Y-165860701D01*
X89356992Y-165871634D01*
X89247064Y-165893500D01*
X89078936Y-165893500D01*
X88969008Y-165871634D01*
X88914043Y-165860701D01*
X88758716Y-165796362D01*
X88618925Y-165702957D01*
X88500043Y-165584075D01*
X88406638Y-165444284D01*
X88342299Y-165288957D01*
X88320854Y-165181143D01*
X88309500Y-165124064D01*
X88309500Y-164955936D01*
X88342299Y-164791044D01*
X88406637Y-164635718D01*
X88463214Y-164551044D01*
X88500043Y-164495925D01*
X88618925Y-164377043D01*
X88758716Y-164283638D01*
X88914043Y-164219299D01*
X88969008Y-164208366D01*
X89078936Y-164186500D01*
X89247064Y-164186500D01*
X89356992Y-164208366D01*
G37*
G36*
X99356992Y-164208366D02*
G01*
X99411957Y-164219299D01*
X99567284Y-164283638D01*
X99707075Y-164377043D01*
X99825957Y-164495925D01*
X99862786Y-164551044D01*
X99919363Y-164635718D01*
X99983701Y-164791044D01*
X100016500Y-164955936D01*
X100016500Y-165124064D01*
X100005146Y-165181143D01*
X99983701Y-165288957D01*
X99919362Y-165444284D01*
X99825957Y-165584075D01*
X99707075Y-165702957D01*
X99567284Y-165796362D01*
X99411957Y-165860701D01*
X99356992Y-165871634D01*
X99247064Y-165893500D01*
X99078936Y-165893500D01*
X98969008Y-165871634D01*
X98914043Y-165860701D01*
X98758716Y-165796362D01*
X98618925Y-165702957D01*
X98500043Y-165584075D01*
X98406638Y-165444284D01*
X98342299Y-165288957D01*
X98320854Y-165181143D01*
X98309500Y-165124064D01*
X98309500Y-164955936D01*
X98342299Y-164791044D01*
X98406637Y-164635718D01*
X98463214Y-164551044D01*
X98500043Y-164495925D01*
X98618925Y-164377043D01*
X98758716Y-164283638D01*
X98914043Y-164219299D01*
X98969008Y-164208366D01*
X99078936Y-164186500D01*
X99247064Y-164186500D01*
X99356992Y-164208366D01*
G37*
G36*
X102356992Y-164208366D02*
G01*
X102411957Y-164219299D01*
X102567284Y-164283638D01*
X102707075Y-164377043D01*
X102825957Y-164495925D01*
X102862786Y-164551044D01*
X102919363Y-164635718D01*
X102983701Y-164791044D01*
X103016500Y-164955936D01*
X103016500Y-165124064D01*
X103005146Y-165181143D01*
X102983701Y-165288957D01*
X102919362Y-165444284D01*
X102825957Y-165584075D01*
X102707075Y-165702957D01*
X102567284Y-165796362D01*
X102411957Y-165860701D01*
X102356992Y-165871634D01*
X102247064Y-165893500D01*
X102078936Y-165893500D01*
X101969008Y-165871634D01*
X101914043Y-165860701D01*
X101758716Y-165796362D01*
X101618925Y-165702957D01*
X101500043Y-165584075D01*
X101406638Y-165444284D01*
X101342299Y-165288957D01*
X101320854Y-165181143D01*
X101309500Y-165124064D01*
X101309500Y-164955936D01*
X101342299Y-164791044D01*
X101406637Y-164635718D01*
X101463214Y-164551044D01*
X101500043Y-164495925D01*
X101618925Y-164377043D01*
X101758716Y-164283638D01*
X101914043Y-164219299D01*
X101969008Y-164208366D01*
X102078936Y-164186500D01*
X102247064Y-164186500D01*
X102356992Y-164208366D01*
G37*
G36*
X112251143Y-164102087D02*
G01*
X112407838Y-164166992D01*
X112548853Y-164261215D01*
X112668785Y-164381147D01*
X112763008Y-164522162D01*
X112827913Y-164678857D01*
X112861000Y-164845198D01*
X112861000Y-165014802D01*
X112827913Y-165181143D01*
X112763008Y-165337838D01*
X112668785Y-165478853D01*
X112548853Y-165598785D01*
X112407838Y-165693008D01*
X112251143Y-165757913D01*
X112084802Y-165791000D01*
X111915198Y-165791000D01*
X111748857Y-165757913D01*
X111592162Y-165693008D01*
X111451147Y-165598785D01*
X111331215Y-165478853D01*
X111236992Y-165337838D01*
X111172087Y-165181143D01*
X111139000Y-165014802D01*
X111139000Y-164845198D01*
X111172087Y-164678857D01*
X111236992Y-164522162D01*
X111331215Y-164381147D01*
X111451147Y-164261215D01*
X111592162Y-164166992D01*
X111748857Y-164102087D01*
X111915198Y-164069000D01*
X112084802Y-164069000D01*
X112251143Y-164102087D01*
G37*
G36*
X120251143Y-164102087D02*
G01*
X120407838Y-164166992D01*
X120548853Y-164261215D01*
X120668785Y-164381147D01*
X120763008Y-164522162D01*
X120827913Y-164678857D01*
X120861000Y-164845198D01*
X120861000Y-165014802D01*
X120827913Y-165181143D01*
X120763008Y-165337838D01*
X120668785Y-165478853D01*
X120548853Y-165598785D01*
X120407838Y-165693008D01*
X120251143Y-165757913D01*
X120084802Y-165791000D01*
X119915198Y-165791000D01*
X119748857Y-165757913D01*
X119592162Y-165693008D01*
X119451147Y-165598785D01*
X119331215Y-165478853D01*
X119236992Y-165337838D01*
X119172087Y-165181143D01*
X119139000Y-165014802D01*
X119139000Y-164845198D01*
X119172087Y-164678857D01*
X119236992Y-164522162D01*
X119331215Y-164381147D01*
X119451147Y-164261215D01*
X119592162Y-164166992D01*
X119748857Y-164102087D01*
X119915198Y-164069000D01*
X120084802Y-164069000D01*
X120251143Y-164102087D01*
G37*
G36*
X164593992Y-163968366D02*
G01*
X164648957Y-163979299D01*
X164804284Y-164043638D01*
X164944075Y-164137043D01*
X165062957Y-164255925D01*
X165081473Y-164283637D01*
X165156363Y-164395718D01*
X165164738Y-164415938D01*
X165197871Y-164495926D01*
X165220701Y-164551044D01*
X165246125Y-164678857D01*
X165253500Y-164715938D01*
X165253500Y-164884062D01*
X165220701Y-165048957D01*
X165156362Y-165204284D01*
X165062957Y-165344075D01*
X164944075Y-165462957D01*
X164804284Y-165556362D01*
X164648957Y-165620701D01*
X164593992Y-165631634D01*
X164484064Y-165653500D01*
X164315936Y-165653500D01*
X164206008Y-165631634D01*
X164151043Y-165620701D01*
X163995716Y-165556362D01*
X163855925Y-165462957D01*
X163737043Y-165344075D01*
X163643638Y-165204284D01*
X163579299Y-165048957D01*
X163546500Y-164884062D01*
X163546500Y-164715938D01*
X163553876Y-164678857D01*
X163579299Y-164551044D01*
X163602130Y-164495926D01*
X163635262Y-164415938D01*
X163643637Y-164395718D01*
X163718527Y-164283637D01*
X163737043Y-164255925D01*
X163855925Y-164137043D01*
X163995716Y-164043638D01*
X164151043Y-163979299D01*
X164206008Y-163968366D01*
X164315936Y-163946500D01*
X164484064Y-163946500D01*
X164593992Y-163968366D01*
G37*
G36*
X170593992Y-163968366D02*
G01*
X170648957Y-163979299D01*
X170804284Y-164043638D01*
X170944075Y-164137043D01*
X171062957Y-164255925D01*
X171081473Y-164283637D01*
X171156363Y-164395718D01*
X171164738Y-164415938D01*
X171197871Y-164495926D01*
X171220701Y-164551044D01*
X171246125Y-164678857D01*
X171253500Y-164715938D01*
X171253500Y-164884062D01*
X171220701Y-165048957D01*
X171156362Y-165204284D01*
X171062957Y-165344075D01*
X170944075Y-165462957D01*
X170804284Y-165556362D01*
X170648957Y-165620701D01*
X170593992Y-165631634D01*
X170484064Y-165653500D01*
X170315936Y-165653500D01*
X170206008Y-165631634D01*
X170151043Y-165620701D01*
X169995716Y-165556362D01*
X169855925Y-165462957D01*
X169737043Y-165344075D01*
X169643638Y-165204284D01*
X169579299Y-165048957D01*
X169546500Y-164884062D01*
X169546500Y-164715938D01*
X169553876Y-164678857D01*
X169579299Y-164551044D01*
X169602130Y-164495926D01*
X169635262Y-164415938D01*
X169643637Y-164395718D01*
X169718527Y-164283637D01*
X169737043Y-164255925D01*
X169855925Y-164137043D01*
X169995716Y-164043638D01*
X170151043Y-163979299D01*
X170206008Y-163968366D01*
X170315936Y-163946500D01*
X170484064Y-163946500D01*
X170593992Y-163968366D01*
G37*
G36*
X167593992Y-163968366D02*
G01*
X167648957Y-163979299D01*
X167804284Y-164043638D01*
X167944075Y-164137043D01*
X168062957Y-164255925D01*
X168081473Y-164283637D01*
X168156363Y-164395718D01*
X168164738Y-164415938D01*
X168197871Y-164495926D01*
X168220701Y-164551044D01*
X168246125Y-164678857D01*
X168253500Y-164715938D01*
X168253500Y-164884062D01*
X168220701Y-165048957D01*
X168156362Y-165204284D01*
X168062957Y-165344075D01*
X167944075Y-165462957D01*
X167804284Y-165556362D01*
X167648957Y-165620701D01*
X167593992Y-165631634D01*
X167484064Y-165653500D01*
X167315936Y-165653500D01*
X167206008Y-165631634D01*
X167151043Y-165620701D01*
X166995716Y-165556362D01*
X166855925Y-165462957D01*
X166737043Y-165344075D01*
X166643638Y-165204284D01*
X166579299Y-165048957D01*
X166546500Y-164884062D01*
X166546500Y-164715938D01*
X166553876Y-164678857D01*
X166579299Y-164551044D01*
X166602130Y-164495926D01*
X166635262Y-164415938D01*
X166643637Y-164395718D01*
X166718527Y-164283637D01*
X166737043Y-164255925D01*
X166855925Y-164137043D01*
X166995716Y-164043638D01*
X167151043Y-163979299D01*
X167206008Y-163968366D01*
X167315936Y-163946500D01*
X167484064Y-163946500D01*
X167593992Y-163968366D01*
G37*
G36*
X132193992Y-163668366D02*
G01*
X132248957Y-163679299D01*
X132404284Y-163743638D01*
X132544075Y-163837043D01*
X132662957Y-163955925D01*
X132738511Y-164069000D01*
X132756363Y-164095718D01*
X132820701Y-164251044D01*
X132853500Y-164415936D01*
X132853500Y-164584064D01*
X132820701Y-164748956D01*
X132764738Y-164884064D01*
X132756362Y-164904284D01*
X132662957Y-165044075D01*
X132544075Y-165162957D01*
X132404284Y-165256362D01*
X132248957Y-165320701D01*
X132193992Y-165331634D01*
X132084064Y-165353500D01*
X131915936Y-165353500D01*
X131806008Y-165331634D01*
X131751043Y-165320701D01*
X131595716Y-165256362D01*
X131455925Y-165162957D01*
X131337043Y-165044075D01*
X131243638Y-164904284D01*
X131235263Y-164884064D01*
X131179299Y-164748956D01*
X131146500Y-164584064D01*
X131146500Y-164415936D01*
X131179299Y-164251044D01*
X131243637Y-164095718D01*
X131261489Y-164069000D01*
X131337043Y-163955925D01*
X131455925Y-163837043D01*
X131595716Y-163743638D01*
X131751043Y-163679299D01*
X131806008Y-163668366D01*
X131915936Y-163646500D01*
X132084064Y-163646500D01*
X132193992Y-163668366D01*
G37*
G36*
X150193992Y-163668366D02*
G01*
X150248957Y-163679299D01*
X150404284Y-163743638D01*
X150544075Y-163837043D01*
X150662957Y-163955925D01*
X150738511Y-164069000D01*
X150756363Y-164095718D01*
X150820701Y-164251044D01*
X150853500Y-164415936D01*
X150853500Y-164584064D01*
X150820701Y-164748956D01*
X150764738Y-164884064D01*
X150756362Y-164904284D01*
X150662957Y-165044075D01*
X150544075Y-165162957D01*
X150404284Y-165256362D01*
X150248957Y-165320701D01*
X150193992Y-165331634D01*
X150084064Y-165353500D01*
X149915936Y-165353500D01*
X149806008Y-165331634D01*
X149751043Y-165320701D01*
X149595716Y-165256362D01*
X149455925Y-165162957D01*
X149337043Y-165044075D01*
X149243638Y-164904284D01*
X149235263Y-164884064D01*
X149179299Y-164748956D01*
X149146500Y-164584064D01*
X149146500Y-164415936D01*
X149179299Y-164251044D01*
X149243637Y-164095718D01*
X149261489Y-164069000D01*
X149337043Y-163955925D01*
X149455925Y-163837043D01*
X149595716Y-163743638D01*
X149751043Y-163679299D01*
X149806008Y-163668366D01*
X149915936Y-163646500D01*
X150084064Y-163646500D01*
X150193992Y-163668366D01*
G37*
G36*
X153193992Y-163668366D02*
G01*
X153248957Y-163679299D01*
X153404284Y-163743638D01*
X153544075Y-163837043D01*
X153662957Y-163955925D01*
X153738511Y-164069000D01*
X153756363Y-164095718D01*
X153820701Y-164251044D01*
X153853500Y-164415936D01*
X153853500Y-164584064D01*
X153820701Y-164748956D01*
X153764738Y-164884064D01*
X153756362Y-164904284D01*
X153662957Y-165044075D01*
X153544075Y-165162957D01*
X153404284Y-165256362D01*
X153248957Y-165320701D01*
X153193992Y-165331634D01*
X153084064Y-165353500D01*
X152915936Y-165353500D01*
X152806008Y-165331634D01*
X152751043Y-165320701D01*
X152595716Y-165256362D01*
X152455925Y-165162957D01*
X152337043Y-165044075D01*
X152243638Y-164904284D01*
X152235263Y-164884064D01*
X152179299Y-164748956D01*
X152146500Y-164584064D01*
X152146500Y-164415936D01*
X152179299Y-164251044D01*
X152243637Y-164095718D01*
X152261489Y-164069000D01*
X152337043Y-163955925D01*
X152455925Y-163837043D01*
X152595716Y-163743638D01*
X152751043Y-163679299D01*
X152806008Y-163668366D01*
X152915936Y-163646500D01*
X153084064Y-163646500D01*
X153193992Y-163668366D01*
G37*
G36*
X129193992Y-163668366D02*
G01*
X129248957Y-163679299D01*
X129404284Y-163743638D01*
X129544075Y-163837043D01*
X129662957Y-163955925D01*
X129738511Y-164069000D01*
X129756363Y-164095718D01*
X129820701Y-164251044D01*
X129853500Y-164415936D01*
X129853500Y-164584064D01*
X129820701Y-164748956D01*
X129764738Y-164884064D01*
X129756362Y-164904284D01*
X129662957Y-165044075D01*
X129544075Y-165162957D01*
X129404284Y-165256362D01*
X129248957Y-165320701D01*
X129193992Y-165331634D01*
X129084064Y-165353500D01*
X128915936Y-165353500D01*
X128806008Y-165331634D01*
X128751043Y-165320701D01*
X128595716Y-165256362D01*
X128455925Y-165162957D01*
X128337043Y-165044075D01*
X128243638Y-164904284D01*
X128235263Y-164884064D01*
X128179299Y-164748956D01*
X128146500Y-164584064D01*
X128146500Y-164415936D01*
X128179299Y-164251044D01*
X128243637Y-164095718D01*
X128261489Y-164069000D01*
X128337043Y-163955925D01*
X128455925Y-163837043D01*
X128595716Y-163743638D01*
X128751043Y-163679299D01*
X128806008Y-163668366D01*
X128915936Y-163646500D01*
X129084064Y-163646500D01*
X129193992Y-163668366D01*
G37*
G36*
X135193992Y-163668366D02*
G01*
X135248957Y-163679299D01*
X135404284Y-163743638D01*
X135544075Y-163837043D01*
X135662957Y-163955925D01*
X135738511Y-164069000D01*
X135756363Y-164095718D01*
X135820701Y-164251044D01*
X135853500Y-164415936D01*
X135853500Y-164584064D01*
X135820701Y-164748956D01*
X135764738Y-164884064D01*
X135756362Y-164904284D01*
X135662957Y-165044075D01*
X135544075Y-165162957D01*
X135404284Y-165256362D01*
X135248957Y-165320701D01*
X135193992Y-165331634D01*
X135084064Y-165353500D01*
X134915936Y-165353500D01*
X134806008Y-165331634D01*
X134751043Y-165320701D01*
X134595716Y-165256362D01*
X134455925Y-165162957D01*
X134337043Y-165044075D01*
X134243638Y-164904284D01*
X134235263Y-164884064D01*
X134179299Y-164748956D01*
X134146500Y-164584064D01*
X134146500Y-164415936D01*
X134179299Y-164251044D01*
X134243637Y-164095718D01*
X134261489Y-164069000D01*
X134337043Y-163955925D01*
X134455925Y-163837043D01*
X134595716Y-163743638D01*
X134751043Y-163679299D01*
X134806008Y-163668366D01*
X134915936Y-163646500D01*
X135084064Y-163646500D01*
X135193992Y-163668366D01*
G37*
G36*
X147193992Y-163668366D02*
G01*
X147248957Y-163679299D01*
X147404284Y-163743638D01*
X147544075Y-163837043D01*
X147662957Y-163955925D01*
X147738511Y-164069000D01*
X147756363Y-164095718D01*
X147820701Y-164251044D01*
X147853500Y-164415936D01*
X147853500Y-164584064D01*
X147820701Y-164748956D01*
X147764738Y-164884064D01*
X147756362Y-164904284D01*
X147662957Y-165044075D01*
X147544075Y-165162957D01*
X147404284Y-165256362D01*
X147248957Y-165320701D01*
X147193992Y-165331634D01*
X147084064Y-165353500D01*
X146915936Y-165353500D01*
X146806008Y-165331634D01*
X146751043Y-165320701D01*
X146595716Y-165256362D01*
X146455925Y-165162957D01*
X146337043Y-165044075D01*
X146243638Y-164904284D01*
X146235263Y-164884064D01*
X146179299Y-164748956D01*
X146146500Y-164584064D01*
X146146500Y-164415936D01*
X146179299Y-164251044D01*
X146243637Y-164095718D01*
X146261489Y-164069000D01*
X146337043Y-163955925D01*
X146455925Y-163837043D01*
X146595716Y-163743638D01*
X146751043Y-163679299D01*
X146806008Y-163668366D01*
X146915936Y-163646500D01*
X147084064Y-163646500D01*
X147193992Y-163668366D01*
G37*
G36*
X90142007Y-154883582D02*
G01*
X90542563Y-155049498D01*
X90542565Y-155049499D01*
X90903056Y-155290371D01*
X91209629Y-155596944D01*
X91450501Y-155957435D01*
X91450502Y-155957437D01*
X91616418Y-156357993D01*
X91701000Y-156783219D01*
X91701000Y-157216781D01*
X91616418Y-157642007D01*
X91450502Y-158042563D01*
X91450501Y-158042565D01*
X91209629Y-158403056D01*
X90903056Y-158709629D01*
X90542565Y-158950501D01*
X90542564Y-158950502D01*
X90542563Y-158950502D01*
X90142007Y-159116418D01*
X89716781Y-159201000D01*
X89283219Y-159201000D01*
X88857993Y-159116418D01*
X88457437Y-158950502D01*
X88457436Y-158950502D01*
X88457435Y-158950501D01*
X88096944Y-158709629D01*
X87790371Y-158403056D01*
X87549499Y-158042565D01*
X87549498Y-158042563D01*
X87383582Y-157642007D01*
X87299000Y-157216781D01*
X87299000Y-156783219D01*
X87383582Y-156357993D01*
X87549498Y-155957437D01*
X87549499Y-155957435D01*
X87790371Y-155596944D01*
X88096944Y-155290371D01*
X88457435Y-155049499D01*
X88457437Y-155049498D01*
X88857993Y-154883582D01*
X89283219Y-154799000D01*
X89716781Y-154799000D01*
X90142007Y-154883582D01*
G37*
G36*
X173442007Y-151283582D02*
G01*
X173842563Y-151449498D01*
X173842565Y-151449499D01*
X174203056Y-151690371D01*
X174509629Y-151996944D01*
X174750501Y-152357435D01*
X174750502Y-152357437D01*
X174916418Y-152757993D01*
X175001000Y-153183219D01*
X175001000Y-153616781D01*
X174916418Y-154042007D01*
X174750502Y-154442563D01*
X174750501Y-154442565D01*
X174509629Y-154803056D01*
X174203056Y-155109629D01*
X173842565Y-155350501D01*
X173842564Y-155350502D01*
X173842563Y-155350502D01*
X173442007Y-155516418D01*
X173016781Y-155601000D01*
X172583219Y-155601000D01*
X172157993Y-155516418D01*
X171757437Y-155350502D01*
X171757436Y-155350502D01*
X171757435Y-155350501D01*
X171396944Y-155109629D01*
X171090371Y-154803056D01*
X170849499Y-154442565D01*
X170849498Y-154442563D01*
X170683582Y-154042007D01*
X170599000Y-153616781D01*
X170599000Y-153183219D01*
X170683582Y-152757993D01*
X170849498Y-152357437D01*
X170849499Y-152357435D01*
X171090371Y-151996944D01*
X171396944Y-151690371D01*
X171757435Y-151449499D01*
X171757437Y-151449498D01*
X172157993Y-151283582D01*
X172583219Y-151199000D01*
X173016781Y-151199000D01*
X173442007Y-151283582D01*
G37*
G36*
X109063512Y-138283927D02*
G01*
X109212812Y-138313624D01*
X109376784Y-138381544D01*
X109524354Y-138480147D01*
X109649853Y-138605646D01*
X109748456Y-138753216D01*
X109816376Y-138917188D01*
X109851000Y-139091259D01*
X109851000Y-139268741D01*
X109816376Y-139442812D01*
X109748456Y-139606784D01*
X109649853Y-139754354D01*
X109524354Y-139879853D01*
X109376784Y-139978456D01*
X109212812Y-140046376D01*
X109063512Y-140076073D01*
X109038742Y-140081000D01*
X108861258Y-140081000D01*
X108836488Y-140076073D01*
X108687188Y-140046376D01*
X108523216Y-139978456D01*
X108375646Y-139879853D01*
X108250147Y-139754354D01*
X108151544Y-139606784D01*
X108083624Y-139442812D01*
X108049000Y-139268741D01*
X108049000Y-139091259D01*
X108083624Y-138917188D01*
X108151544Y-138753216D01*
X108250147Y-138605646D01*
X108375646Y-138480147D01*
X108523216Y-138381544D01*
X108687188Y-138313624D01*
X108836488Y-138283927D01*
X108861258Y-138279000D01*
X109038742Y-138279000D01*
X109063512Y-138283927D01*
G37*
G36*
X99463512Y-138203927D02*
G01*
X99612812Y-138233624D01*
X99776784Y-138301544D01*
X99924354Y-138400147D01*
X100049853Y-138525646D01*
X100148456Y-138673216D01*
X100216376Y-138837188D01*
X100251000Y-139011259D01*
X100251000Y-139188741D01*
X100216376Y-139362812D01*
X100148456Y-139526784D01*
X100049853Y-139674354D01*
X99924354Y-139799853D01*
X99776784Y-139898456D01*
X99612812Y-139966376D01*
X99463512Y-139996073D01*
X99438742Y-140001000D01*
X99261258Y-140001000D01*
X99236488Y-139996073D01*
X99087188Y-139966376D01*
X98923216Y-139898456D01*
X98775646Y-139799853D01*
X98650147Y-139674354D01*
X98551544Y-139526784D01*
X98483624Y-139362812D01*
X98449000Y-139188741D01*
X98449000Y-139011259D01*
X98483624Y-138837188D01*
X98551544Y-138673216D01*
X98650147Y-138525646D01*
X98775646Y-138400147D01*
X98923216Y-138301544D01*
X99087188Y-138233624D01*
X99236488Y-138203927D01*
X99261258Y-138199000D01*
X99438742Y-138199000D01*
X99463512Y-138203927D01*
G37*
G36*
X174159436Y-137578188D02*
G01*
X174243332Y-137594876D01*
X174401390Y-137660346D01*
X174543634Y-137755390D01*
X174664610Y-137876366D01*
X174759654Y-138018610D01*
X174825124Y-138176669D01*
X174858500Y-138344459D01*
X174858500Y-138515541D01*
X174825124Y-138683331D01*
X174759654Y-138841390D01*
X174664610Y-138983634D01*
X174543634Y-139104610D01*
X174401390Y-139199654D01*
X174243332Y-139265124D01*
X174159436Y-139281812D01*
X174075541Y-139298500D01*
X173904459Y-139298500D01*
X173820564Y-139281812D01*
X173736668Y-139265124D01*
X173578610Y-139199654D01*
X173436366Y-139104610D01*
X173315390Y-138983634D01*
X173220346Y-138841390D01*
X173154876Y-138683331D01*
X173121500Y-138515541D01*
X173121500Y-138344459D01*
X173154876Y-138176669D01*
X173220346Y-138018610D01*
X173315390Y-137876366D01*
X173436366Y-137755390D01*
X173578610Y-137660346D01*
X173736668Y-137594876D01*
X173820564Y-137578188D01*
X173904459Y-137561500D01*
X174075541Y-137561500D01*
X174159436Y-137578188D01*
G37*
G36*
X109063512Y-135743927D02*
G01*
X109212812Y-135773624D01*
X109376784Y-135841544D01*
X109524354Y-135940147D01*
X109649853Y-136065646D01*
X109748456Y-136213216D01*
X109816376Y-136377188D01*
X109851000Y-136551259D01*
X109851000Y-136728741D01*
X109816376Y-136902812D01*
X109748456Y-137066784D01*
X109649853Y-137214354D01*
X109524354Y-137339853D01*
X109376784Y-137438456D01*
X109212812Y-137506376D01*
X109063512Y-137536073D01*
X109038742Y-137541000D01*
X108861258Y-137541000D01*
X108836488Y-137536073D01*
X108687188Y-137506376D01*
X108523216Y-137438456D01*
X108375646Y-137339853D01*
X108250147Y-137214354D01*
X108151544Y-137066784D01*
X108083624Y-136902812D01*
X108049000Y-136728741D01*
X108049000Y-136551259D01*
X108083624Y-136377188D01*
X108151544Y-136213216D01*
X108250147Y-136065646D01*
X108375646Y-135940147D01*
X108523216Y-135841544D01*
X108687188Y-135773624D01*
X108836488Y-135743927D01*
X108861258Y-135739000D01*
X109038742Y-135739000D01*
X109063512Y-135743927D01*
G37*
G36*
X99463512Y-135663927D02*
G01*
X99612812Y-135693624D01*
X99776784Y-135761544D01*
X99924354Y-135860147D01*
X100049853Y-135985646D01*
X100148456Y-136133216D01*
X100216376Y-136297188D01*
X100251000Y-136471259D01*
X100251000Y-136648741D01*
X100216376Y-136822812D01*
X100148456Y-136986784D01*
X100049853Y-137134354D01*
X99924354Y-137259853D01*
X99776784Y-137358456D01*
X99612812Y-137426376D01*
X99463512Y-137456073D01*
X99438742Y-137461000D01*
X99261258Y-137461000D01*
X99236488Y-137456073D01*
X99087188Y-137426376D01*
X98923216Y-137358456D01*
X98775646Y-137259853D01*
X98650147Y-137134354D01*
X98551544Y-136986784D01*
X98483624Y-136822812D01*
X98449000Y-136648741D01*
X98449000Y-136471259D01*
X98483624Y-136297188D01*
X98551544Y-136133216D01*
X98650147Y-135985646D01*
X98775646Y-135860147D01*
X98923216Y-135761544D01*
X99087188Y-135693624D01*
X99236488Y-135663927D01*
X99261258Y-135659000D01*
X99438742Y-135659000D01*
X99463512Y-135663927D01*
G37*
G36*
X129711766Y-135301899D02*
G01*
X129843888Y-135356626D01*
X129843890Y-135356627D01*
X129962798Y-135436079D01*
X130063921Y-135537202D01*
X130063922Y-135537204D01*
X130143374Y-135656112D01*
X130198101Y-135788234D01*
X130226000Y-135928494D01*
X130226000Y-136071506D01*
X130198101Y-136211766D01*
X130162717Y-136297189D01*
X130143373Y-136343890D01*
X130063921Y-136462798D01*
X129962798Y-136563921D01*
X129843890Y-136643373D01*
X129843889Y-136643374D01*
X129843888Y-136643374D01*
X129711766Y-136698101D01*
X129571506Y-136726000D01*
X129428494Y-136726000D01*
X129288234Y-136698101D01*
X129156112Y-136643374D01*
X129156111Y-136643374D01*
X129156110Y-136643373D01*
X129037202Y-136563921D01*
X128936079Y-136462798D01*
X128856627Y-136343890D01*
X128837283Y-136297189D01*
X128801899Y-136211766D01*
X128774000Y-136071506D01*
X128774000Y-135928494D01*
X128801899Y-135788234D01*
X128856626Y-135656112D01*
X128936078Y-135537204D01*
X128936079Y-135537202D01*
X129037202Y-135436079D01*
X129156110Y-135356627D01*
X129156112Y-135356626D01*
X129288234Y-135301899D01*
X129428494Y-135274000D01*
X129571506Y-135274000D01*
X129711766Y-135301899D01*
G37*
G36*
X134711766Y-135301899D02*
G01*
X134843888Y-135356626D01*
X134843890Y-135356627D01*
X134962798Y-135436079D01*
X135063921Y-135537202D01*
X135063922Y-135537204D01*
X135143374Y-135656112D01*
X135198101Y-135788234D01*
X135226000Y-135928494D01*
X135226000Y-136071506D01*
X135198101Y-136211766D01*
X135162717Y-136297189D01*
X135143373Y-136343890D01*
X135063921Y-136462798D01*
X134962798Y-136563921D01*
X134843890Y-136643373D01*
X134843889Y-136643374D01*
X134843888Y-136643374D01*
X134711766Y-136698101D01*
X134571506Y-136726000D01*
X134428494Y-136726000D01*
X134288234Y-136698101D01*
X134156112Y-136643374D01*
X134156111Y-136643374D01*
X134156110Y-136643373D01*
X134037202Y-136563921D01*
X133936079Y-136462798D01*
X133856627Y-136343890D01*
X133837283Y-136297189D01*
X133801899Y-136211766D01*
X133774000Y-136071506D01*
X133774000Y-135928494D01*
X133801899Y-135788234D01*
X133856626Y-135656112D01*
X133936078Y-135537204D01*
X133936079Y-135537202D01*
X134037202Y-135436079D01*
X134156110Y-135356627D01*
X134156112Y-135356626D01*
X134288234Y-135301899D01*
X134428494Y-135274000D01*
X134571506Y-135274000D01*
X134711766Y-135301899D01*
G37*
G36*
X168192394Y-134860934D02*
G01*
X168337405Y-134921000D01*
X168343626Y-134923577D01*
X168479732Y-135014520D01*
X168595480Y-135130268D01*
X168686423Y-135266374D01*
X168686424Y-135266376D01*
X168749066Y-135417606D01*
X168781000Y-135578152D01*
X168781000Y-135741848D01*
X168749066Y-135902394D01*
X168714581Y-135985647D01*
X168686423Y-136053626D01*
X168595480Y-136189732D01*
X168479732Y-136305480D01*
X168343626Y-136396423D01*
X168343625Y-136396424D01*
X168343624Y-136396424D01*
X168192394Y-136459066D01*
X168031848Y-136491000D01*
X167868152Y-136491000D01*
X167707606Y-136459066D01*
X167556376Y-136396424D01*
X167556375Y-136396424D01*
X167556374Y-136396423D01*
X167420268Y-136305480D01*
X167304520Y-136189732D01*
X167213577Y-136053626D01*
X167185419Y-135985647D01*
X167150934Y-135902394D01*
X167119000Y-135741848D01*
X167119000Y-135578152D01*
X167150934Y-135417606D01*
X167213576Y-135266376D01*
X167213577Y-135266374D01*
X167304520Y-135130268D01*
X167420268Y-135014520D01*
X167556374Y-134923577D01*
X167562595Y-134921000D01*
X167707606Y-134860934D01*
X167868152Y-134829000D01*
X168031848Y-134829000D01*
X168192394Y-134860934D01*
G37*
G36*
X142792394Y-134860934D02*
G01*
X142937405Y-134921000D01*
X142943626Y-134923577D01*
X143079732Y-135014520D01*
X143195480Y-135130268D01*
X143286423Y-135266374D01*
X143286424Y-135266376D01*
X143349066Y-135417606D01*
X143381000Y-135578152D01*
X143381000Y-135741848D01*
X143349066Y-135902394D01*
X143314581Y-135985647D01*
X143286423Y-136053626D01*
X143195480Y-136189732D01*
X143079732Y-136305480D01*
X142943626Y-136396423D01*
X142943625Y-136396424D01*
X142943624Y-136396424D01*
X142792394Y-136459066D01*
X142631848Y-136491000D01*
X142468152Y-136491000D01*
X142307606Y-136459066D01*
X142156376Y-136396424D01*
X142156375Y-136396424D01*
X142156374Y-136396423D01*
X142020268Y-136305480D01*
X141904520Y-136189732D01*
X141813577Y-136053626D01*
X141785419Y-135985647D01*
X141750934Y-135902394D01*
X141719000Y-135741848D01*
X141719000Y-135578152D01*
X141750934Y-135417606D01*
X141813576Y-135266376D01*
X141813577Y-135266374D01*
X141904520Y-135130268D01*
X142020268Y-135014520D01*
X142156374Y-134923577D01*
X142162595Y-134921000D01*
X142307606Y-134860934D01*
X142468152Y-134829000D01*
X142631848Y-134829000D01*
X142792394Y-134860934D01*
G37*
G36*
X109063512Y-133203927D02*
G01*
X109212812Y-133233624D01*
X109376784Y-133301544D01*
X109524354Y-133400147D01*
X109649853Y-133525646D01*
X109748456Y-133673216D01*
X109816376Y-133837188D01*
X109851000Y-134011259D01*
X109851000Y-134188741D01*
X109816376Y-134362812D01*
X109748456Y-134526784D01*
X109649853Y-134674354D01*
X109524354Y-134799853D01*
X109376784Y-134898456D01*
X109212812Y-134966376D01*
X109063512Y-134996073D01*
X109038742Y-135001000D01*
X108861258Y-135001000D01*
X108836488Y-134996073D01*
X108687188Y-134966376D01*
X108523216Y-134898456D01*
X108375646Y-134799853D01*
X108250147Y-134674354D01*
X108151544Y-134526784D01*
X108083624Y-134362812D01*
X108049000Y-134188741D01*
X108049000Y-134011259D01*
X108083624Y-133837188D01*
X108151544Y-133673216D01*
X108250147Y-133525646D01*
X108375646Y-133400147D01*
X108523216Y-133301544D01*
X108687188Y-133233624D01*
X108836488Y-133203927D01*
X108861258Y-133199000D01*
X109038742Y-133199000D01*
X109063512Y-133203927D01*
G37*
G36*
X99463512Y-133123927D02*
G01*
X99612812Y-133153624D01*
X99776784Y-133221544D01*
X99924354Y-133320147D01*
X100049853Y-133445646D01*
X100148456Y-133593216D01*
X100216376Y-133757188D01*
X100251000Y-133931259D01*
X100251000Y-134108741D01*
X100216376Y-134282812D01*
X100148456Y-134446784D01*
X100049853Y-134594354D01*
X99924354Y-134719853D01*
X99776784Y-134818456D01*
X99612812Y-134886376D01*
X99463512Y-134916073D01*
X99438742Y-134921000D01*
X99261258Y-134921000D01*
X99236488Y-134916073D01*
X99087188Y-134886376D01*
X98923216Y-134818456D01*
X98775646Y-134719853D01*
X98650147Y-134594354D01*
X98551544Y-134446784D01*
X98483624Y-134282812D01*
X98449000Y-134108741D01*
X98449000Y-133931259D01*
X98483624Y-133757188D01*
X98551544Y-133593216D01*
X98650147Y-133445646D01*
X98775646Y-133320147D01*
X98923216Y-133221544D01*
X99087188Y-133153624D01*
X99236488Y-133123927D01*
X99261258Y-133119000D01*
X99438742Y-133119000D01*
X99463512Y-133123927D01*
G37*
G36*
X117443097Y-132304069D02*
G01*
X117546032Y-132314207D01*
X117744146Y-132374305D01*
X117744149Y-132374306D01*
X117840975Y-132426061D01*
X117926729Y-132471897D01*
X118086765Y-132603235D01*
X118218103Y-132763271D01*
X118263939Y-132849025D01*
X118315694Y-132945851D01*
X118315695Y-132945854D01*
X118375793Y-133143968D01*
X118396085Y-133350000D01*
X118375793Y-133556032D01*
X118337176Y-133683332D01*
X118315694Y-133754149D01*
X118271308Y-133837189D01*
X118218103Y-133936729D01*
X118086765Y-134096765D01*
X117926729Y-134228103D01*
X117857467Y-134265124D01*
X117744149Y-134325694D01*
X117744146Y-134325695D01*
X117546032Y-134385793D01*
X117443097Y-134395931D01*
X117391631Y-134401000D01*
X116288369Y-134401000D01*
X116236903Y-134395931D01*
X116133968Y-134385793D01*
X115935854Y-134325695D01*
X115935851Y-134325694D01*
X115822533Y-134265124D01*
X115753271Y-134228103D01*
X115593235Y-134096765D01*
X115461897Y-133936729D01*
X115408692Y-133837189D01*
X115364306Y-133754149D01*
X115342824Y-133683332D01*
X115304207Y-133556032D01*
X115283915Y-133350000D01*
X115304207Y-133143968D01*
X115364305Y-132945854D01*
X115364306Y-132945851D01*
X115416061Y-132849025D01*
X115461897Y-132763271D01*
X115593235Y-132603235D01*
X115753271Y-132471897D01*
X115839025Y-132426061D01*
X115935851Y-132374306D01*
X115935854Y-132374305D01*
X116133968Y-132314207D01*
X116236903Y-132304069D01*
X116288369Y-132299000D01*
X117391631Y-132299000D01*
X117443097Y-132304069D01*
G37*
G36*
X174159436Y-132578188D02*
G01*
X174243332Y-132594876D01*
X174401390Y-132660346D01*
X174543634Y-132755390D01*
X174664610Y-132876366D01*
X174759654Y-133018610D01*
X174767749Y-133038154D01*
X174825124Y-133176668D01*
X174834050Y-133221544D01*
X174858500Y-133344459D01*
X174858500Y-133515541D01*
X174825124Y-133683331D01*
X174759654Y-133841390D01*
X174664610Y-133983634D01*
X174543634Y-134104610D01*
X174401390Y-134199654D01*
X174332708Y-134228103D01*
X174243332Y-134265124D01*
X174159436Y-134281812D01*
X174075541Y-134298500D01*
X173904459Y-134298500D01*
X173820564Y-134281812D01*
X173736668Y-134265124D01*
X173647292Y-134228103D01*
X173578610Y-134199654D01*
X173436366Y-134104610D01*
X173315390Y-133983634D01*
X173220346Y-133841390D01*
X173154876Y-133683331D01*
X173121500Y-133515541D01*
X173121500Y-133344459D01*
X173145950Y-133221544D01*
X173154876Y-133176668D01*
X173212251Y-133038154D01*
X173220346Y-133018610D01*
X173315390Y-132876366D01*
X173436366Y-132755390D01*
X173578610Y-132660346D01*
X173736668Y-132594876D01*
X173820564Y-132578188D01*
X173904459Y-132561500D01*
X174075541Y-132561500D01*
X174159436Y-132578188D01*
G37*
G36*
X142792394Y-132320934D02*
G01*
X142921244Y-132374306D01*
X142943626Y-132383577D01*
X143079732Y-132474520D01*
X143195480Y-132590268D01*
X143286423Y-132726374D01*
X143286424Y-132726376D01*
X143349066Y-132877606D01*
X143381000Y-133038152D01*
X143381000Y-133201848D01*
X143349066Y-133362394D01*
X143314581Y-133445647D01*
X143286423Y-133513626D01*
X143195480Y-133649732D01*
X143079732Y-133765480D01*
X142943626Y-133856423D01*
X142943625Y-133856424D01*
X142943624Y-133856424D01*
X142792394Y-133919066D01*
X142631848Y-133951000D01*
X142468152Y-133951000D01*
X142307606Y-133919066D01*
X142156376Y-133856424D01*
X142156375Y-133856424D01*
X142156374Y-133856423D01*
X142020268Y-133765480D01*
X141904520Y-133649732D01*
X141813577Y-133513626D01*
X141785419Y-133445647D01*
X141750934Y-133362394D01*
X141719000Y-133201848D01*
X141719000Y-133038152D01*
X141750934Y-132877606D01*
X141813576Y-132726376D01*
X141813577Y-132726374D01*
X141904520Y-132590268D01*
X142020268Y-132474520D01*
X142156374Y-132383577D01*
X142178756Y-132374306D01*
X142307606Y-132320934D01*
X142468152Y-132289000D01*
X142631848Y-132289000D01*
X142792394Y-132320934D01*
G37*
G36*
X168192394Y-132320934D02*
G01*
X168321244Y-132374306D01*
X168343626Y-132383577D01*
X168479732Y-132474520D01*
X168595480Y-132590268D01*
X168686423Y-132726374D01*
X168686424Y-132726376D01*
X168749066Y-132877606D01*
X168781000Y-133038152D01*
X168781000Y-133201848D01*
X168749066Y-133362394D01*
X168714581Y-133445647D01*
X168686423Y-133513626D01*
X168595480Y-133649732D01*
X168479732Y-133765480D01*
X168343626Y-133856423D01*
X168343625Y-133856424D01*
X168343624Y-133856424D01*
X168192394Y-133919066D01*
X168031848Y-133951000D01*
X167868152Y-133951000D01*
X167707606Y-133919066D01*
X167556376Y-133856424D01*
X167556375Y-133856424D01*
X167556374Y-133856423D01*
X167420268Y-133765480D01*
X167304520Y-133649732D01*
X167213577Y-133513626D01*
X167185419Y-133445647D01*
X167150934Y-133362394D01*
X167119000Y-133201848D01*
X167119000Y-133038152D01*
X167150934Y-132877606D01*
X167213576Y-132726376D01*
X167213577Y-132726374D01*
X167304520Y-132590268D01*
X167420268Y-132474520D01*
X167556374Y-132383577D01*
X167578756Y-132374306D01*
X167707606Y-132320934D01*
X167868152Y-132289000D01*
X168031848Y-132289000D01*
X168192394Y-132320934D01*
G37*
G36*
X109851000Y-132461000D02*
G01*
X108049000Y-132461000D01*
X108049000Y-130659000D01*
X109851000Y-130659000D01*
X109851000Y-132461000D01*
G37*
G36*
X100251000Y-132381000D02*
G01*
X98449000Y-132381000D01*
X98449000Y-130579000D01*
X100251000Y-130579000D01*
X100251000Y-132381000D01*
G37*
G36*
X117443097Y-129764069D02*
G01*
X117546032Y-129774207D01*
X117744146Y-129834305D01*
X117744149Y-129834306D01*
X117840975Y-129886061D01*
X117926729Y-129931897D01*
X118086765Y-130063235D01*
X118218103Y-130223271D01*
X118263939Y-130309025D01*
X118315694Y-130405851D01*
X118315695Y-130405854D01*
X118375793Y-130603968D01*
X118396085Y-130810000D01*
X118375793Y-131016032D01*
X118347369Y-131109731D01*
X118315694Y-131214149D01*
X118309637Y-131225480D01*
X118218103Y-131396729D01*
X118086765Y-131556765D01*
X117926729Y-131688103D01*
X117840975Y-131733939D01*
X117744149Y-131785694D01*
X117744146Y-131785695D01*
X117546032Y-131845793D01*
X117443097Y-131855931D01*
X117391631Y-131861000D01*
X116288369Y-131861000D01*
X116236903Y-131855931D01*
X116133968Y-131845793D01*
X115935854Y-131785695D01*
X115935851Y-131785694D01*
X115839025Y-131733939D01*
X115753271Y-131688103D01*
X115593235Y-131556765D01*
X115461897Y-131396729D01*
X115370363Y-131225480D01*
X115364306Y-131214149D01*
X115332631Y-131109731D01*
X115304207Y-131016032D01*
X115283915Y-130810000D01*
X115304207Y-130603968D01*
X115364305Y-130405854D01*
X115364306Y-130405851D01*
X115416061Y-130309025D01*
X115461897Y-130223271D01*
X115593235Y-130063235D01*
X115753271Y-129931897D01*
X115839025Y-129886061D01*
X115935851Y-129834306D01*
X115935854Y-129834305D01*
X116133968Y-129774207D01*
X116236903Y-129764069D01*
X116288369Y-129759000D01*
X117391631Y-129759000D01*
X117443097Y-129764069D01*
G37*
G36*
X168192394Y-129780934D02*
G01*
X168321244Y-129834306D01*
X168343626Y-129843577D01*
X168479732Y-129934520D01*
X168595480Y-130050268D01*
X168604144Y-130063235D01*
X168686424Y-130186376D01*
X168749066Y-130337606D01*
X168781000Y-130498152D01*
X168781000Y-130661848D01*
X168749066Y-130822394D01*
X168686424Y-130973624D01*
X168686423Y-130973626D01*
X168595480Y-131109732D01*
X168479732Y-131225480D01*
X168343626Y-131316423D01*
X168343625Y-131316424D01*
X168343624Y-131316424D01*
X168192394Y-131379066D01*
X168031848Y-131411000D01*
X167868152Y-131411000D01*
X167707606Y-131379066D01*
X167556376Y-131316424D01*
X167556375Y-131316424D01*
X167556374Y-131316423D01*
X167420268Y-131225480D01*
X167304520Y-131109732D01*
X167213577Y-130973626D01*
X167213576Y-130973624D01*
X167150934Y-130822394D01*
X167119000Y-130661848D01*
X167119000Y-130498152D01*
X167150934Y-130337606D01*
X167213576Y-130186376D01*
X167295856Y-130063235D01*
X167304520Y-130050268D01*
X167420268Y-129934520D01*
X167556374Y-129843577D01*
X167578756Y-129834306D01*
X167707606Y-129780934D01*
X167868152Y-129749000D01*
X168031848Y-129749000D01*
X168192394Y-129780934D01*
G37*
G36*
X142792394Y-129780934D02*
G01*
X142921244Y-129834306D01*
X142943626Y-129843577D01*
X143079732Y-129934520D01*
X143195480Y-130050268D01*
X143204144Y-130063235D01*
X143286424Y-130186376D01*
X143349066Y-130337606D01*
X143381000Y-130498152D01*
X143381000Y-130661848D01*
X143349066Y-130822394D01*
X143286424Y-130973624D01*
X143286423Y-130973626D01*
X143195480Y-131109732D01*
X143079732Y-131225480D01*
X142943626Y-131316423D01*
X142943625Y-131316424D01*
X142943624Y-131316424D01*
X142792394Y-131379066D01*
X142631848Y-131411000D01*
X142468152Y-131411000D01*
X142307606Y-131379066D01*
X142156376Y-131316424D01*
X142156375Y-131316424D01*
X142156374Y-131316423D01*
X142020268Y-131225480D01*
X141904520Y-131109732D01*
X141813577Y-130973626D01*
X141813576Y-130973624D01*
X141750934Y-130822394D01*
X141719000Y-130661848D01*
X141719000Y-130498152D01*
X141750934Y-130337606D01*
X141813576Y-130186376D01*
X141895856Y-130063235D01*
X141904520Y-130050268D01*
X142020268Y-129934520D01*
X142156374Y-129843577D01*
X142178756Y-129834306D01*
X142307606Y-129780934D01*
X142468152Y-129749000D01*
X142631848Y-129749000D01*
X142792394Y-129780934D01*
G37*
G36*
X117443097Y-127224069D02*
G01*
X117546032Y-127234207D01*
X117744146Y-127294305D01*
X117744149Y-127294306D01*
X117840975Y-127346061D01*
X117926729Y-127391897D01*
X118086765Y-127523235D01*
X118218103Y-127683271D01*
X118263939Y-127769025D01*
X118315694Y-127865851D01*
X118315695Y-127865854D01*
X118375793Y-128063968D01*
X118396085Y-128270000D01*
X118375793Y-128476032D01*
X118347369Y-128569731D01*
X118315694Y-128674149D01*
X118309637Y-128685480D01*
X118218103Y-128856729D01*
X118086765Y-129016765D01*
X117926729Y-129148103D01*
X117840975Y-129193939D01*
X117744149Y-129245694D01*
X117744146Y-129245695D01*
X117546032Y-129305793D01*
X117443097Y-129315931D01*
X117391631Y-129321000D01*
X116288369Y-129321000D01*
X116236903Y-129315931D01*
X116133968Y-129305793D01*
X115935854Y-129245695D01*
X115935851Y-129245694D01*
X115839025Y-129193939D01*
X115753271Y-129148103D01*
X115593235Y-129016765D01*
X115461897Y-128856729D01*
X115370363Y-128685480D01*
X115364306Y-128674149D01*
X115332631Y-128569731D01*
X115304207Y-128476032D01*
X115283915Y-128270000D01*
X115304207Y-128063968D01*
X115364305Y-127865854D01*
X115364306Y-127865851D01*
X115416061Y-127769025D01*
X115461897Y-127683271D01*
X115593235Y-127523235D01*
X115753271Y-127391897D01*
X115839025Y-127346061D01*
X115935851Y-127294306D01*
X115935854Y-127294305D01*
X116133968Y-127234207D01*
X116236903Y-127224069D01*
X116288369Y-127219000D01*
X117391631Y-127219000D01*
X117443097Y-127224069D01*
G37*
G36*
X142792394Y-127240934D02*
G01*
X142921244Y-127294306D01*
X142943626Y-127303577D01*
X143079732Y-127394520D01*
X143195480Y-127510268D01*
X143204144Y-127523235D01*
X143286424Y-127646376D01*
X143349066Y-127797606D01*
X143381000Y-127958152D01*
X143381000Y-128121848D01*
X143349066Y-128282394D01*
X143286424Y-128433624D01*
X143286423Y-128433626D01*
X143195480Y-128569732D01*
X143079732Y-128685480D01*
X142943626Y-128776423D01*
X142943625Y-128776424D01*
X142943624Y-128776424D01*
X142792394Y-128839066D01*
X142631848Y-128871000D01*
X142468152Y-128871000D01*
X142307606Y-128839066D01*
X142156376Y-128776424D01*
X142156375Y-128776424D01*
X142156374Y-128776423D01*
X142020268Y-128685480D01*
X141904520Y-128569732D01*
X141813577Y-128433626D01*
X141813576Y-128433624D01*
X141750934Y-128282394D01*
X141719000Y-128121848D01*
X141719000Y-127958152D01*
X141750934Y-127797606D01*
X141813576Y-127646376D01*
X141895856Y-127523235D01*
X141904520Y-127510268D01*
X142020268Y-127394520D01*
X142156374Y-127303577D01*
X142178756Y-127294306D01*
X142307606Y-127240934D01*
X142468152Y-127209000D01*
X142631848Y-127209000D01*
X142792394Y-127240934D01*
G37*
G36*
X168192394Y-127240934D02*
G01*
X168321244Y-127294306D01*
X168343626Y-127303577D01*
X168479732Y-127394520D01*
X168595480Y-127510268D01*
X168604144Y-127523235D01*
X168686424Y-127646376D01*
X168749066Y-127797606D01*
X168781000Y-127958152D01*
X168781000Y-128121848D01*
X168749066Y-128282394D01*
X168686424Y-128433624D01*
X168686423Y-128433626D01*
X168595480Y-128569732D01*
X168479732Y-128685480D01*
X168343626Y-128776423D01*
X168343625Y-128776424D01*
X168343624Y-128776424D01*
X168192394Y-128839066D01*
X168031848Y-128871000D01*
X167868152Y-128871000D01*
X167707606Y-128839066D01*
X167556376Y-128776424D01*
X167556375Y-128776424D01*
X167556374Y-128776423D01*
X167420268Y-128685480D01*
X167304520Y-128569732D01*
X167213577Y-128433626D01*
X167213576Y-128433624D01*
X167150934Y-128282394D01*
X167119000Y-128121848D01*
X167119000Y-127958152D01*
X167150934Y-127797606D01*
X167213576Y-127646376D01*
X167295856Y-127523235D01*
X167304520Y-127510268D01*
X167420268Y-127394520D01*
X167556374Y-127303577D01*
X167578756Y-127294306D01*
X167707606Y-127240934D01*
X167868152Y-127209000D01*
X168031848Y-127209000D01*
X168192394Y-127240934D01*
G37*
G36*
X117443097Y-124684069D02*
G01*
X117546032Y-124694207D01*
X117744146Y-124754305D01*
X117744149Y-124754306D01*
X117840975Y-124806061D01*
X117926729Y-124851897D01*
X118086765Y-124983235D01*
X118218103Y-125143271D01*
X118263939Y-125229025D01*
X118315694Y-125325851D01*
X118315695Y-125325854D01*
X118375793Y-125523968D01*
X118396085Y-125730000D01*
X118375793Y-125936032D01*
X118347369Y-126029731D01*
X118315694Y-126134149D01*
X118309637Y-126145480D01*
X118218103Y-126316729D01*
X118086765Y-126476765D01*
X117926729Y-126608103D01*
X117840975Y-126653939D01*
X117744149Y-126705694D01*
X117744146Y-126705695D01*
X117546032Y-126765793D01*
X117443097Y-126775931D01*
X117391631Y-126781000D01*
X116288369Y-126781000D01*
X116236903Y-126775931D01*
X116133968Y-126765793D01*
X115935854Y-126705695D01*
X115935851Y-126705694D01*
X115839025Y-126653939D01*
X115753271Y-126608103D01*
X115593235Y-126476765D01*
X115461897Y-126316729D01*
X115370363Y-126145480D01*
X115364306Y-126134149D01*
X115332631Y-126029731D01*
X115304207Y-125936032D01*
X115283915Y-125730000D01*
X115304207Y-125523968D01*
X115364305Y-125325854D01*
X115364306Y-125325851D01*
X115416061Y-125229025D01*
X115461897Y-125143271D01*
X115593235Y-124983235D01*
X115753271Y-124851897D01*
X115839025Y-124806061D01*
X115935851Y-124754306D01*
X115935854Y-124754305D01*
X116133968Y-124694207D01*
X116236903Y-124684069D01*
X116288369Y-124679000D01*
X117391631Y-124679000D01*
X117443097Y-124684069D01*
G37*
G36*
X142792394Y-124700934D02*
G01*
X142921244Y-124754306D01*
X142943626Y-124763577D01*
X143079732Y-124854520D01*
X143195480Y-124970268D01*
X143204144Y-124983235D01*
X143286424Y-125106376D01*
X143349066Y-125257606D01*
X143381000Y-125418152D01*
X143381000Y-125581848D01*
X143349066Y-125742394D01*
X143286424Y-125893624D01*
X143286423Y-125893626D01*
X143195480Y-126029732D01*
X143079732Y-126145480D01*
X142943626Y-126236423D01*
X142943625Y-126236424D01*
X142943624Y-126236424D01*
X142792394Y-126299066D01*
X142631848Y-126331000D01*
X142468152Y-126331000D01*
X142307606Y-126299066D01*
X142156376Y-126236424D01*
X142156375Y-126236424D01*
X142156374Y-126236423D01*
X142020268Y-126145480D01*
X141904520Y-126029732D01*
X141813577Y-125893626D01*
X141813576Y-125893624D01*
X141750934Y-125742394D01*
X141719000Y-125581848D01*
X141719000Y-125418152D01*
X141750934Y-125257606D01*
X141813576Y-125106376D01*
X141895856Y-124983235D01*
X141904520Y-124970268D01*
X142020268Y-124854520D01*
X142156374Y-124763577D01*
X142178756Y-124754306D01*
X142307606Y-124700934D01*
X142468152Y-124669000D01*
X142631848Y-124669000D01*
X142792394Y-124700934D01*
G37*
G36*
X168192394Y-124700934D02*
G01*
X168321244Y-124754306D01*
X168343626Y-124763577D01*
X168479732Y-124854520D01*
X168595480Y-124970268D01*
X168604144Y-124983235D01*
X168686424Y-125106376D01*
X168749066Y-125257606D01*
X168781000Y-125418152D01*
X168781000Y-125581848D01*
X168749066Y-125742394D01*
X168686424Y-125893624D01*
X168686423Y-125893626D01*
X168595480Y-126029732D01*
X168479732Y-126145480D01*
X168343626Y-126236423D01*
X168343625Y-126236424D01*
X168343624Y-126236424D01*
X168192394Y-126299066D01*
X168031848Y-126331000D01*
X167868152Y-126331000D01*
X167707606Y-126299066D01*
X167556376Y-126236424D01*
X167556375Y-126236424D01*
X167556374Y-126236423D01*
X167420268Y-126145480D01*
X167304520Y-126029732D01*
X167213577Y-125893626D01*
X167213576Y-125893624D01*
X167150934Y-125742394D01*
X167119000Y-125581848D01*
X167119000Y-125418152D01*
X167150934Y-125257606D01*
X167213576Y-125106376D01*
X167295856Y-124983235D01*
X167304520Y-124970268D01*
X167420268Y-124854520D01*
X167556374Y-124763577D01*
X167578756Y-124754306D01*
X167707606Y-124700934D01*
X167868152Y-124669000D01*
X168031848Y-124669000D01*
X168192394Y-124700934D01*
G37*
G36*
X117443097Y-122144069D02*
G01*
X117546032Y-122154207D01*
X117744146Y-122214305D01*
X117744149Y-122214306D01*
X117840975Y-122266061D01*
X117926729Y-122311897D01*
X118086765Y-122443235D01*
X118218103Y-122603271D01*
X118263939Y-122689025D01*
X118315694Y-122785851D01*
X118315695Y-122785854D01*
X118375793Y-122983968D01*
X118396085Y-123190000D01*
X118375793Y-123396032D01*
X118347369Y-123489731D01*
X118315694Y-123594149D01*
X118309637Y-123605480D01*
X118218103Y-123776729D01*
X118086765Y-123936765D01*
X117926729Y-124068103D01*
X117840975Y-124113939D01*
X117744149Y-124165694D01*
X117744146Y-124165695D01*
X117546032Y-124225793D01*
X117443097Y-124235931D01*
X117391631Y-124241000D01*
X116288369Y-124241000D01*
X116236903Y-124235931D01*
X116133968Y-124225793D01*
X115935854Y-124165695D01*
X115935851Y-124165694D01*
X115839025Y-124113939D01*
X115753271Y-124068103D01*
X115593235Y-123936765D01*
X115461897Y-123776729D01*
X115370363Y-123605480D01*
X115364306Y-123594149D01*
X115332631Y-123489731D01*
X115304207Y-123396032D01*
X115283915Y-123190000D01*
X115304207Y-122983968D01*
X115364305Y-122785854D01*
X115364306Y-122785851D01*
X115416061Y-122689025D01*
X115461897Y-122603271D01*
X115593235Y-122443235D01*
X115753271Y-122311897D01*
X115839025Y-122266061D01*
X115935851Y-122214306D01*
X115935854Y-122214305D01*
X116133968Y-122154207D01*
X116236903Y-122144069D01*
X116288369Y-122139000D01*
X117391631Y-122139000D01*
X117443097Y-122144069D01*
G37*
G36*
X168192394Y-122160934D02*
G01*
X168321244Y-122214306D01*
X168343626Y-122223577D01*
X168479732Y-122314520D01*
X168595480Y-122430268D01*
X168604144Y-122443235D01*
X168686424Y-122566376D01*
X168749066Y-122717606D01*
X168781000Y-122878152D01*
X168781000Y-123041848D01*
X168749066Y-123202394D01*
X168686424Y-123353624D01*
X168686423Y-123353626D01*
X168595480Y-123489732D01*
X168479732Y-123605480D01*
X168343626Y-123696423D01*
X168343625Y-123696424D01*
X168343624Y-123696424D01*
X168192394Y-123759066D01*
X168031848Y-123791000D01*
X167868152Y-123791000D01*
X167707606Y-123759066D01*
X167556376Y-123696424D01*
X167556375Y-123696424D01*
X167556374Y-123696423D01*
X167420268Y-123605480D01*
X167304520Y-123489732D01*
X167213577Y-123353626D01*
X167213576Y-123353624D01*
X167150934Y-123202394D01*
X167119000Y-123041848D01*
X167119000Y-122878152D01*
X167150934Y-122717606D01*
X167213576Y-122566376D01*
X167295856Y-122443235D01*
X167304520Y-122430268D01*
X167420268Y-122314520D01*
X167556374Y-122223577D01*
X167578756Y-122214306D01*
X167707606Y-122160934D01*
X167868152Y-122129000D01*
X168031848Y-122129000D01*
X168192394Y-122160934D01*
G37*
G36*
X142792394Y-122160934D02*
G01*
X142921244Y-122214306D01*
X142943626Y-122223577D01*
X143079732Y-122314520D01*
X143195480Y-122430268D01*
X143204144Y-122443235D01*
X143286424Y-122566376D01*
X143349066Y-122717606D01*
X143381000Y-122878152D01*
X143381000Y-123041848D01*
X143349066Y-123202394D01*
X143286424Y-123353624D01*
X143286423Y-123353626D01*
X143195480Y-123489732D01*
X143079732Y-123605480D01*
X142943626Y-123696423D01*
X142943625Y-123696424D01*
X142943624Y-123696424D01*
X142792394Y-123759066D01*
X142631848Y-123791000D01*
X142468152Y-123791000D01*
X142307606Y-123759066D01*
X142156376Y-123696424D01*
X142156375Y-123696424D01*
X142156374Y-123696423D01*
X142020268Y-123605480D01*
X141904520Y-123489732D01*
X141813577Y-123353626D01*
X141813576Y-123353624D01*
X141750934Y-123202394D01*
X141719000Y-123041848D01*
X141719000Y-122878152D01*
X141750934Y-122717606D01*
X141813576Y-122566376D01*
X141895856Y-122443235D01*
X141904520Y-122430268D01*
X142020268Y-122314520D01*
X142156374Y-122223577D01*
X142178756Y-122214306D01*
X142307606Y-122160934D01*
X142468152Y-122129000D01*
X142631848Y-122129000D01*
X142792394Y-122160934D01*
G37*
G36*
X82755596Y-119614207D02*
G01*
X82858024Y-119634581D01*
X83050204Y-119714185D01*
X83223161Y-119829751D01*
X83370249Y-119976839D01*
X83485815Y-120149796D01*
X83565419Y-120341976D01*
X83606000Y-120545993D01*
X83606000Y-120754007D01*
X83565419Y-120958024D01*
X83485815Y-121150204D01*
X83370249Y-121323161D01*
X83223161Y-121470249D01*
X83050204Y-121585815D01*
X82858024Y-121665419D01*
X82756016Y-121685709D01*
X82654008Y-121706000D01*
X82445992Y-121706000D01*
X82343984Y-121685709D01*
X82241976Y-121665419D01*
X82049796Y-121585815D01*
X81876839Y-121470249D01*
X81729751Y-121323161D01*
X81614185Y-121150204D01*
X81534581Y-120958024D01*
X81494000Y-120754007D01*
X81494000Y-120545993D01*
X81534581Y-120341976D01*
X81614185Y-120149796D01*
X81729751Y-119976839D01*
X81876839Y-119829751D01*
X82049796Y-119714185D01*
X82241976Y-119634581D01*
X82344404Y-119614207D01*
X82445992Y-119594000D01*
X82654008Y-119594000D01*
X82755596Y-119614207D01*
G37*
G36*
X117443097Y-119604069D02*
G01*
X117546032Y-119614207D01*
X117744146Y-119674305D01*
X117744149Y-119674306D01*
X117818757Y-119714185D01*
X117926729Y-119771897D01*
X118086765Y-119903235D01*
X118218103Y-120063271D01*
X118263939Y-120149025D01*
X118315694Y-120245851D01*
X118315695Y-120245854D01*
X118375793Y-120443968D01*
X118396085Y-120650000D01*
X118375793Y-120856032D01*
X118315695Y-121054146D01*
X118315694Y-121054149D01*
X118309637Y-121065480D01*
X118218103Y-121236729D01*
X118086765Y-121396765D01*
X117926729Y-121528103D01*
X117840975Y-121573939D01*
X117744149Y-121625694D01*
X117744146Y-121625695D01*
X117546032Y-121685793D01*
X117443097Y-121695931D01*
X117391631Y-121701000D01*
X116288369Y-121701000D01*
X116236903Y-121695931D01*
X116133968Y-121685793D01*
X115935854Y-121625695D01*
X115935851Y-121625694D01*
X115839025Y-121573939D01*
X115753271Y-121528103D01*
X115593235Y-121396765D01*
X115461897Y-121236729D01*
X115370363Y-121065480D01*
X115364306Y-121054149D01*
X115364305Y-121054146D01*
X115304207Y-120856032D01*
X115283915Y-120650000D01*
X115304207Y-120443968D01*
X115364305Y-120245854D01*
X115364306Y-120245851D01*
X115416061Y-120149025D01*
X115461897Y-120063271D01*
X115593235Y-119903235D01*
X115753271Y-119771897D01*
X115861243Y-119714185D01*
X115935851Y-119674306D01*
X115935854Y-119674305D01*
X116133968Y-119614207D01*
X116236903Y-119604069D01*
X116288369Y-119599000D01*
X117391631Y-119599000D01*
X117443097Y-119604069D01*
G37*
G36*
X142792394Y-119620934D02*
G01*
X142921244Y-119674306D01*
X142943626Y-119683577D01*
X143079732Y-119774520D01*
X143195480Y-119890268D01*
X143286423Y-120026374D01*
X143286424Y-120026376D01*
X143349066Y-120177606D01*
X143381000Y-120338152D01*
X143381000Y-120501848D01*
X143349066Y-120662394D01*
X143286424Y-120813624D01*
X143286423Y-120813626D01*
X143195480Y-120949732D01*
X143079732Y-121065480D01*
X142943626Y-121156423D01*
X142943625Y-121156424D01*
X142943624Y-121156424D01*
X142792394Y-121219066D01*
X142631848Y-121251000D01*
X142468152Y-121251000D01*
X142307606Y-121219066D01*
X142156376Y-121156424D01*
X142156375Y-121156424D01*
X142156374Y-121156423D01*
X142020268Y-121065480D01*
X141904520Y-120949732D01*
X141813577Y-120813626D01*
X141813576Y-120813624D01*
X141750934Y-120662394D01*
X141719000Y-120501848D01*
X141719000Y-120338152D01*
X141750934Y-120177606D01*
X141813576Y-120026376D01*
X141813577Y-120026374D01*
X141904520Y-119890268D01*
X142020268Y-119774520D01*
X142156374Y-119683577D01*
X142178756Y-119674306D01*
X142307606Y-119620934D01*
X142468152Y-119589000D01*
X142631848Y-119589000D01*
X142792394Y-119620934D01*
G37*
G36*
X168192394Y-119620934D02*
G01*
X168321244Y-119674306D01*
X168343626Y-119683577D01*
X168479732Y-119774520D01*
X168595480Y-119890268D01*
X168686423Y-120026374D01*
X168686424Y-120026376D01*
X168749066Y-120177606D01*
X168781000Y-120338152D01*
X168781000Y-120501848D01*
X168749066Y-120662394D01*
X168686424Y-120813624D01*
X168686423Y-120813626D01*
X168595480Y-120949732D01*
X168479732Y-121065480D01*
X168343626Y-121156423D01*
X168343625Y-121156424D01*
X168343624Y-121156424D01*
X168192394Y-121219066D01*
X168031848Y-121251000D01*
X167868152Y-121251000D01*
X167707606Y-121219066D01*
X167556376Y-121156424D01*
X167556375Y-121156424D01*
X167556374Y-121156423D01*
X167420268Y-121065480D01*
X167304520Y-120949732D01*
X167213577Y-120813626D01*
X167213576Y-120813624D01*
X167150934Y-120662394D01*
X167119000Y-120501848D01*
X167119000Y-120338152D01*
X167150934Y-120177606D01*
X167213576Y-120026376D01*
X167213577Y-120026374D01*
X167304520Y-119890268D01*
X167420268Y-119774520D01*
X167556374Y-119683577D01*
X167578756Y-119674306D01*
X167707606Y-119620934D01*
X167868152Y-119589000D01*
X168031848Y-119589000D01*
X168192394Y-119620934D01*
G37*
G36*
X171226000Y-120976000D02*
G01*
X170274000Y-120976000D01*
X170274000Y-120024000D01*
X171226000Y-120024000D01*
X171226000Y-120976000D01*
G37*
G36*
X168192394Y-117080934D02*
G01*
X168343624Y-117143576D01*
X168343626Y-117143577D01*
X168479732Y-117234520D01*
X168595480Y-117350268D01*
X168686423Y-117486374D01*
X168686424Y-117486376D01*
X168749066Y-117637606D01*
X168781000Y-117798152D01*
X168781000Y-117961848D01*
X168749066Y-118122394D01*
X168686424Y-118273624D01*
X168686423Y-118273626D01*
X168595480Y-118409732D01*
X168479732Y-118525480D01*
X168343626Y-118616423D01*
X168343625Y-118616424D01*
X168343624Y-118616424D01*
X168192394Y-118679066D01*
X168031848Y-118711000D01*
X167868152Y-118711000D01*
X167707606Y-118679066D01*
X167556376Y-118616424D01*
X167556375Y-118616424D01*
X167556374Y-118616423D01*
X167420268Y-118525480D01*
X167304520Y-118409732D01*
X167213577Y-118273626D01*
X167213576Y-118273624D01*
X167150934Y-118122394D01*
X167119000Y-117961848D01*
X167119000Y-117798152D01*
X167150934Y-117637606D01*
X167213576Y-117486376D01*
X167213577Y-117486374D01*
X167304520Y-117350268D01*
X167420268Y-117234520D01*
X167556374Y-117143577D01*
X167556376Y-117143576D01*
X167707606Y-117080934D01*
X167868152Y-117049000D01*
X168031848Y-117049000D01*
X168192394Y-117080934D01*
G37*
G36*
X142792394Y-117080934D02*
G01*
X142943624Y-117143576D01*
X142943626Y-117143577D01*
X143079732Y-117234520D01*
X143195480Y-117350268D01*
X143286423Y-117486374D01*
X143286424Y-117486376D01*
X143349066Y-117637606D01*
X143381000Y-117798152D01*
X143381000Y-117961848D01*
X143349066Y-118122394D01*
X143286424Y-118273624D01*
X143286423Y-118273626D01*
X143195480Y-118409732D01*
X143079732Y-118525480D01*
X142943626Y-118616423D01*
X142943625Y-118616424D01*
X142943624Y-118616424D01*
X142792394Y-118679066D01*
X142631848Y-118711000D01*
X142468152Y-118711000D01*
X142307606Y-118679066D01*
X142156376Y-118616424D01*
X142156375Y-118616424D01*
X142156374Y-118616423D01*
X142020268Y-118525480D01*
X141904520Y-118409732D01*
X141813577Y-118273626D01*
X141813576Y-118273624D01*
X141750934Y-118122394D01*
X141719000Y-117961848D01*
X141719000Y-117798152D01*
X141750934Y-117637606D01*
X141813576Y-117486376D01*
X141813577Y-117486374D01*
X141904520Y-117350268D01*
X142020268Y-117234520D01*
X142156374Y-117143577D01*
X142156376Y-117143576D01*
X142307606Y-117080934D01*
X142468152Y-117049000D01*
X142631848Y-117049000D01*
X142792394Y-117080934D01*
G37*
G36*
X168192394Y-114540934D02*
G01*
X168343624Y-114603576D01*
X168343626Y-114603577D01*
X168479732Y-114694520D01*
X168595480Y-114810268D01*
X168686423Y-114946374D01*
X168686424Y-114946376D01*
X168749066Y-115097606D01*
X168781000Y-115258152D01*
X168781000Y-115421848D01*
X168749066Y-115582394D01*
X168686424Y-115733624D01*
X168686423Y-115733626D01*
X168595480Y-115869732D01*
X168479732Y-115985480D01*
X168343626Y-116076423D01*
X168343625Y-116076424D01*
X168343624Y-116076424D01*
X168192394Y-116139066D01*
X168031848Y-116171000D01*
X167868152Y-116171000D01*
X167707606Y-116139066D01*
X167556376Y-116076424D01*
X167556375Y-116076424D01*
X167556374Y-116076423D01*
X167420268Y-115985480D01*
X167304520Y-115869732D01*
X167213577Y-115733626D01*
X167213576Y-115733624D01*
X167150934Y-115582394D01*
X167119000Y-115421848D01*
X167119000Y-115258152D01*
X167150934Y-115097606D01*
X167213576Y-114946376D01*
X167213577Y-114946374D01*
X167304520Y-114810268D01*
X167420268Y-114694520D01*
X167556374Y-114603577D01*
X167556376Y-114603576D01*
X167707606Y-114540934D01*
X167868152Y-114509000D01*
X168031848Y-114509000D01*
X168192394Y-114540934D01*
G37*
G36*
X142792394Y-114540934D02*
G01*
X142943624Y-114603576D01*
X142943626Y-114603577D01*
X143079732Y-114694520D01*
X143195480Y-114810268D01*
X143286423Y-114946374D01*
X143286424Y-114946376D01*
X143349066Y-115097606D01*
X143381000Y-115258152D01*
X143381000Y-115421848D01*
X143349066Y-115582394D01*
X143286424Y-115733624D01*
X143286423Y-115733626D01*
X143195480Y-115869732D01*
X143079732Y-115985480D01*
X142943626Y-116076423D01*
X142943625Y-116076424D01*
X142943624Y-116076424D01*
X142792394Y-116139066D01*
X142631848Y-116171000D01*
X142468152Y-116171000D01*
X142307606Y-116139066D01*
X142156376Y-116076424D01*
X142156375Y-116076424D01*
X142156374Y-116076423D01*
X142020268Y-115985480D01*
X141904520Y-115869732D01*
X141813577Y-115733626D01*
X141813576Y-115733624D01*
X141750934Y-115582394D01*
X141719000Y-115421848D01*
X141719000Y-115258152D01*
X141750934Y-115097606D01*
X141813576Y-114946376D01*
X141813577Y-114946374D01*
X141904520Y-114810268D01*
X142020268Y-114694520D01*
X142156374Y-114603577D01*
X142156376Y-114603576D01*
X142307606Y-114540934D01*
X142468152Y-114509000D01*
X142631848Y-114509000D01*
X142792394Y-114540934D01*
G37*
G36*
X142792394Y-112000934D02*
G01*
X142943624Y-112063576D01*
X142943626Y-112063577D01*
X143079732Y-112154520D01*
X143195480Y-112270268D01*
X143286423Y-112406374D01*
X143286424Y-112406376D01*
X143349066Y-112557606D01*
X143381000Y-112718152D01*
X143381000Y-112881848D01*
X143349066Y-113042394D01*
X143286424Y-113193624D01*
X143286423Y-113193626D01*
X143195480Y-113329732D01*
X143079732Y-113445480D01*
X142943626Y-113536423D01*
X142943625Y-113536424D01*
X142943624Y-113536424D01*
X142792394Y-113599066D01*
X142631848Y-113631000D01*
X142468152Y-113631000D01*
X142307606Y-113599066D01*
X142156376Y-113536424D01*
X142156375Y-113536424D01*
X142156374Y-113536423D01*
X142020268Y-113445480D01*
X141904520Y-113329732D01*
X141813577Y-113193626D01*
X141813576Y-113193624D01*
X141750934Y-113042394D01*
X141719000Y-112881848D01*
X141719000Y-112718152D01*
X141750934Y-112557606D01*
X141813576Y-112406376D01*
X141813577Y-112406374D01*
X141904520Y-112270268D01*
X142020268Y-112154520D01*
X142156374Y-112063577D01*
X142156376Y-112063576D01*
X142307606Y-112000934D01*
X142468152Y-111969000D01*
X142631848Y-111969000D01*
X142792394Y-112000934D01*
G37*
G36*
X168192394Y-112000934D02*
G01*
X168343624Y-112063576D01*
X168343626Y-112063577D01*
X168479732Y-112154520D01*
X168595480Y-112270268D01*
X168686423Y-112406374D01*
X168686424Y-112406376D01*
X168749066Y-112557606D01*
X168781000Y-112718152D01*
X168781000Y-112881848D01*
X168749066Y-113042394D01*
X168686424Y-113193624D01*
X168686423Y-113193626D01*
X168595480Y-113329732D01*
X168479732Y-113445480D01*
X168343626Y-113536423D01*
X168343625Y-113536424D01*
X168343624Y-113536424D01*
X168192394Y-113599066D01*
X168031848Y-113631000D01*
X167868152Y-113631000D01*
X167707606Y-113599066D01*
X167556376Y-113536424D01*
X167556375Y-113536424D01*
X167556374Y-113536423D01*
X167420268Y-113445480D01*
X167304520Y-113329732D01*
X167213577Y-113193626D01*
X167213576Y-113193624D01*
X167150934Y-113042394D01*
X167119000Y-112881848D01*
X167119000Y-112718152D01*
X167150934Y-112557606D01*
X167213576Y-112406376D01*
X167213577Y-112406374D01*
X167304520Y-112270268D01*
X167420268Y-112154520D01*
X167556374Y-112063577D01*
X167556376Y-112063576D01*
X167707606Y-112000934D01*
X167868152Y-111969000D01*
X168031848Y-111969000D01*
X168192394Y-112000934D01*
G37*
G36*
X83956016Y-109414291D02*
G01*
X84058024Y-109434581D01*
X84250204Y-109514185D01*
X84423161Y-109629751D01*
X84570249Y-109776839D01*
X84685815Y-109949796D01*
X84765419Y-110141976D01*
X84806000Y-110345993D01*
X84806000Y-110554007D01*
X84765419Y-110758024D01*
X84685815Y-110950204D01*
X84570249Y-111123161D01*
X84423161Y-111270249D01*
X84250204Y-111385815D01*
X84058024Y-111465419D01*
X83956015Y-111485710D01*
X83854008Y-111506000D01*
X83645992Y-111506000D01*
X83543985Y-111485710D01*
X83441976Y-111465419D01*
X83249796Y-111385815D01*
X83076839Y-111270249D01*
X82929751Y-111123161D01*
X82814185Y-110950204D01*
X82734581Y-110758024D01*
X82694000Y-110554007D01*
X82694000Y-110345993D01*
X82734581Y-110141976D01*
X82814185Y-109949796D01*
X82929751Y-109776839D01*
X83076839Y-109629751D01*
X83249796Y-109514185D01*
X83441976Y-109434581D01*
X83543984Y-109414291D01*
X83645992Y-109394000D01*
X83854008Y-109394000D01*
X83956016Y-109414291D01*
G37*
G36*
X142792394Y-109460934D02*
G01*
X142943624Y-109523576D01*
X142943626Y-109523577D01*
X143079732Y-109614520D01*
X143195480Y-109730268D01*
X143286423Y-109866374D01*
X143286424Y-109866376D01*
X143349066Y-110017606D01*
X143381000Y-110178152D01*
X143381000Y-110341848D01*
X143349066Y-110502394D01*
X143286424Y-110653624D01*
X143286423Y-110653626D01*
X143195480Y-110789732D01*
X143079732Y-110905480D01*
X142943626Y-110996423D01*
X142943625Y-110996424D01*
X142943624Y-110996424D01*
X142792394Y-111059066D01*
X142631848Y-111091000D01*
X142468152Y-111091000D01*
X142307606Y-111059066D01*
X142156376Y-110996424D01*
X142156375Y-110996424D01*
X142156374Y-110996423D01*
X142020268Y-110905480D01*
X141904520Y-110789732D01*
X141813577Y-110653626D01*
X141813576Y-110653624D01*
X141750934Y-110502394D01*
X141719000Y-110341848D01*
X141719000Y-110178152D01*
X141750934Y-110017606D01*
X141813576Y-109866376D01*
X141813577Y-109866374D01*
X141904520Y-109730268D01*
X142020268Y-109614520D01*
X142156374Y-109523577D01*
X142156376Y-109523576D01*
X142307606Y-109460934D01*
X142468152Y-109429000D01*
X142631848Y-109429000D01*
X142792394Y-109460934D01*
G37*
G36*
X168192394Y-109460934D02*
G01*
X168343624Y-109523576D01*
X168343626Y-109523577D01*
X168479732Y-109614520D01*
X168595480Y-109730268D01*
X168686423Y-109866374D01*
X168686424Y-109866376D01*
X168749066Y-110017606D01*
X168781000Y-110178152D01*
X168781000Y-110341848D01*
X168749066Y-110502394D01*
X168686424Y-110653624D01*
X168686423Y-110653626D01*
X168595480Y-110789732D01*
X168479732Y-110905480D01*
X168343626Y-110996423D01*
X168343625Y-110996424D01*
X168343624Y-110996424D01*
X168192394Y-111059066D01*
X168031848Y-111091000D01*
X167868152Y-111091000D01*
X167707606Y-111059066D01*
X167556376Y-110996424D01*
X167556375Y-110996424D01*
X167556374Y-110996423D01*
X167420268Y-110905480D01*
X167304520Y-110789732D01*
X167213577Y-110653626D01*
X167213576Y-110653624D01*
X167150934Y-110502394D01*
X167119000Y-110341848D01*
X167119000Y-110178152D01*
X167150934Y-110017606D01*
X167213576Y-109866376D01*
X167213577Y-109866374D01*
X167304520Y-109730268D01*
X167420268Y-109614520D01*
X167556374Y-109523577D01*
X167556376Y-109523576D01*
X167707606Y-109460934D01*
X167868152Y-109429000D01*
X168031848Y-109429000D01*
X168192394Y-109460934D01*
G37*
G36*
X142792394Y-106920934D02*
G01*
X142943624Y-106983576D01*
X142943626Y-106983577D01*
X143079732Y-107074520D01*
X143195480Y-107190268D01*
X143286423Y-107326374D01*
X143286424Y-107326376D01*
X143349066Y-107477606D01*
X143381000Y-107638152D01*
X143381000Y-107801848D01*
X143349066Y-107962394D01*
X143286424Y-108113624D01*
X143286423Y-108113626D01*
X143195480Y-108249732D01*
X143079732Y-108365480D01*
X142943626Y-108456423D01*
X142943625Y-108456424D01*
X142943624Y-108456424D01*
X142792394Y-108519066D01*
X142631848Y-108551000D01*
X142468152Y-108551000D01*
X142307606Y-108519066D01*
X142156376Y-108456424D01*
X142156375Y-108456424D01*
X142156374Y-108456423D01*
X142020268Y-108365480D01*
X141904520Y-108249732D01*
X141813577Y-108113626D01*
X141813576Y-108113624D01*
X141750934Y-107962394D01*
X141719000Y-107801848D01*
X141719000Y-107638152D01*
X141750934Y-107477606D01*
X141813576Y-107326376D01*
X141813577Y-107326374D01*
X141904520Y-107190268D01*
X142020268Y-107074520D01*
X142156374Y-106983577D01*
X142156376Y-106983576D01*
X142307606Y-106920934D01*
X142468152Y-106889000D01*
X142631848Y-106889000D01*
X142792394Y-106920934D01*
G37*
G36*
X168192394Y-106920934D02*
G01*
X168343624Y-106983576D01*
X168343626Y-106983577D01*
X168479732Y-107074520D01*
X168595480Y-107190268D01*
X168686423Y-107326374D01*
X168686424Y-107326376D01*
X168749066Y-107477606D01*
X168781000Y-107638152D01*
X168781000Y-107801848D01*
X168749066Y-107962394D01*
X168686424Y-108113624D01*
X168686423Y-108113626D01*
X168595480Y-108249732D01*
X168479732Y-108365480D01*
X168343626Y-108456423D01*
X168343625Y-108456424D01*
X168343624Y-108456424D01*
X168192394Y-108519066D01*
X168031848Y-108551000D01*
X167868152Y-108551000D01*
X167707606Y-108519066D01*
X167556376Y-108456424D01*
X167556375Y-108456424D01*
X167556374Y-108456423D01*
X167420268Y-108365480D01*
X167304520Y-108249732D01*
X167213577Y-108113626D01*
X167213576Y-108113624D01*
X167150934Y-107962394D01*
X167119000Y-107801848D01*
X167119000Y-107638152D01*
X167150934Y-107477606D01*
X167213576Y-107326376D01*
X167213577Y-107326374D01*
X167304520Y-107190268D01*
X167420268Y-107074520D01*
X167556374Y-106983577D01*
X167556376Y-106983576D01*
X167707606Y-106920934D01*
X167868152Y-106889000D01*
X168031848Y-106889000D01*
X168192394Y-106920934D01*
G37*
G36*
X168192394Y-104380934D02*
G01*
X168343624Y-104443576D01*
X168343626Y-104443577D01*
X168479732Y-104534520D01*
X168595480Y-104650268D01*
X168686423Y-104786374D01*
X168686424Y-104786376D01*
X168749066Y-104937606D01*
X168781000Y-105098152D01*
X168781000Y-105261848D01*
X168749066Y-105422394D01*
X168686424Y-105573624D01*
X168686423Y-105573626D01*
X168595480Y-105709732D01*
X168479732Y-105825480D01*
X168343626Y-105916423D01*
X168343625Y-105916424D01*
X168343624Y-105916424D01*
X168192394Y-105979066D01*
X168031848Y-106011000D01*
X167868152Y-106011000D01*
X167707606Y-105979066D01*
X167556376Y-105916424D01*
X167556375Y-105916424D01*
X167556374Y-105916423D01*
X167420268Y-105825480D01*
X167304520Y-105709732D01*
X167213577Y-105573626D01*
X167213576Y-105573624D01*
X167150934Y-105422394D01*
X167119000Y-105261848D01*
X167119000Y-105098152D01*
X167150934Y-104937606D01*
X167213576Y-104786376D01*
X167213577Y-104786374D01*
X167304520Y-104650268D01*
X167420268Y-104534520D01*
X167556374Y-104443577D01*
X167556376Y-104443576D01*
X167707606Y-104380934D01*
X167868152Y-104349000D01*
X168031848Y-104349000D01*
X168192394Y-104380934D01*
G37*
G36*
X142792394Y-104380934D02*
G01*
X142943624Y-104443576D01*
X142943626Y-104443577D01*
X143079732Y-104534520D01*
X143195480Y-104650268D01*
X143286423Y-104786374D01*
X143286424Y-104786376D01*
X143349066Y-104937606D01*
X143381000Y-105098152D01*
X143381000Y-105261848D01*
X143349066Y-105422394D01*
X143286424Y-105573624D01*
X143286423Y-105573626D01*
X143195480Y-105709732D01*
X143079732Y-105825480D01*
X142943626Y-105916423D01*
X142943625Y-105916424D01*
X142943624Y-105916424D01*
X142792394Y-105979066D01*
X142631848Y-106011000D01*
X142468152Y-106011000D01*
X142307606Y-105979066D01*
X142156376Y-105916424D01*
X142156375Y-105916424D01*
X142156374Y-105916423D01*
X142020268Y-105825480D01*
X141904520Y-105709732D01*
X141813577Y-105573626D01*
X141813576Y-105573624D01*
X141750934Y-105422394D01*
X141719000Y-105261848D01*
X141719000Y-105098152D01*
X141750934Y-104937606D01*
X141813576Y-104786376D01*
X141813577Y-104786374D01*
X141904520Y-104650268D01*
X142020268Y-104534520D01*
X142156374Y-104443577D01*
X142156376Y-104443576D01*
X142307606Y-104380934D01*
X142468152Y-104349000D01*
X142631848Y-104349000D01*
X142792394Y-104380934D01*
G37*
G36*
X168192394Y-101840934D02*
G01*
X168343624Y-101903576D01*
X168343626Y-101903577D01*
X168479732Y-101994520D01*
X168595480Y-102110268D01*
X168686423Y-102246374D01*
X168686424Y-102246376D01*
X168749066Y-102397606D01*
X168781000Y-102558152D01*
X168781000Y-102721848D01*
X168749066Y-102882394D01*
X168686424Y-103033624D01*
X168686423Y-103033626D01*
X168595480Y-103169732D01*
X168479732Y-103285480D01*
X168343626Y-103376423D01*
X168343625Y-103376424D01*
X168343624Y-103376424D01*
X168192394Y-103439066D01*
X168031848Y-103471000D01*
X167868152Y-103471000D01*
X167707606Y-103439066D01*
X167556376Y-103376424D01*
X167556375Y-103376424D01*
X167556374Y-103376423D01*
X167420268Y-103285480D01*
X167304520Y-103169732D01*
X167213577Y-103033626D01*
X167213576Y-103033624D01*
X167150934Y-102882394D01*
X167119000Y-102721848D01*
X167119000Y-102558152D01*
X167150934Y-102397606D01*
X167213576Y-102246376D01*
X167213577Y-102246374D01*
X167304520Y-102110268D01*
X167420268Y-101994520D01*
X167556374Y-101903577D01*
X167556376Y-101903576D01*
X167707606Y-101840934D01*
X167868152Y-101809000D01*
X168031848Y-101809000D01*
X168192394Y-101840934D01*
G37*
G36*
X142792394Y-101840934D02*
G01*
X142943624Y-101903576D01*
X142943626Y-101903577D01*
X143079732Y-101994520D01*
X143195480Y-102110268D01*
X143286423Y-102246374D01*
X143286424Y-102246376D01*
X143349066Y-102397606D01*
X143381000Y-102558152D01*
X143381000Y-102721848D01*
X143349066Y-102882394D01*
X143286424Y-103033624D01*
X143286423Y-103033626D01*
X143195480Y-103169732D01*
X143079732Y-103285480D01*
X142943626Y-103376423D01*
X142943625Y-103376424D01*
X142943624Y-103376424D01*
X142792394Y-103439066D01*
X142631848Y-103471000D01*
X142468152Y-103471000D01*
X142307606Y-103439066D01*
X142156376Y-103376424D01*
X142156375Y-103376424D01*
X142156374Y-103376423D01*
X142020268Y-103285480D01*
X141904520Y-103169732D01*
X141813577Y-103033626D01*
X141813576Y-103033624D01*
X141750934Y-102882394D01*
X141719000Y-102721848D01*
X141719000Y-102558152D01*
X141750934Y-102397606D01*
X141813576Y-102246376D01*
X141813577Y-102246374D01*
X141904520Y-102110268D01*
X142020268Y-101994520D01*
X142156374Y-101903577D01*
X142156376Y-101903576D01*
X142307606Y-101840934D01*
X142468152Y-101809000D01*
X142631848Y-101809000D01*
X142792394Y-101840934D01*
G37*
G36*
X173510822Y-100745480D02*
G01*
X173608332Y-100764876D01*
X173766390Y-100830346D01*
X173908634Y-100925390D01*
X174029610Y-101046366D01*
X174124654Y-101188610D01*
X174124654Y-101188611D01*
X174190124Y-101346668D01*
X174223500Y-101514460D01*
X174223500Y-101685540D01*
X174190124Y-101853332D01*
X174124654Y-102011390D01*
X174029610Y-102153634D01*
X173908634Y-102274610D01*
X173766390Y-102369654D01*
X173698908Y-102397606D01*
X173608332Y-102435124D01*
X173524436Y-102451812D01*
X173440541Y-102468500D01*
X173269459Y-102468500D01*
X173185564Y-102451812D01*
X173101668Y-102435124D01*
X173011092Y-102397606D01*
X172943610Y-102369654D01*
X172801366Y-102274610D01*
X172680390Y-102153634D01*
X172585346Y-102011390D01*
X172519876Y-101853332D01*
X172486500Y-101685540D01*
X172486500Y-101514460D01*
X172519876Y-101346668D01*
X172585346Y-101188611D01*
X172585346Y-101188610D01*
X172680390Y-101046366D01*
X172801366Y-100925390D01*
X172943610Y-100830346D01*
X173101668Y-100764876D01*
X173199178Y-100745480D01*
X173269459Y-100731500D01*
X173440541Y-100731500D01*
X173510822Y-100745480D01*
G37*
G36*
X84701001Y-101980999D02*
G01*
X82199001Y-101980999D01*
X82199001Y-99478999D01*
X84701001Y-99478999D01*
X84701001Y-101980999D01*
G37*
G36*
X97733642Y-99369781D02*
G01*
X97879414Y-99430162D01*
X97879416Y-99430163D01*
X98010608Y-99517822D01*
X98122178Y-99629392D01*
X98209837Y-99760584D01*
X98209838Y-99760586D01*
X98270219Y-99906358D01*
X98301000Y-100061107D01*
X98301000Y-100218893D01*
X98270219Y-100373642D01*
X98220520Y-100493626D01*
X98209837Y-100519416D01*
X98122178Y-100650608D01*
X98010608Y-100762178D01*
X97879416Y-100849837D01*
X97879415Y-100849838D01*
X97879414Y-100849838D01*
X97733642Y-100910219D01*
X97578893Y-100941000D01*
X97421107Y-100941000D01*
X97266358Y-100910219D01*
X97120586Y-100849838D01*
X97120585Y-100849838D01*
X97120584Y-100849837D01*
X96989392Y-100762178D01*
X96877822Y-100650608D01*
X96790163Y-100519416D01*
X96779480Y-100493626D01*
X96729781Y-100373642D01*
X96699000Y-100218893D01*
X96699000Y-100061107D01*
X96729781Y-99906358D01*
X96790162Y-99760586D01*
X96790163Y-99760584D01*
X96877822Y-99629392D01*
X96989392Y-99517822D01*
X97120584Y-99430163D01*
X97120586Y-99430162D01*
X97266358Y-99369781D01*
X97421107Y-99339000D01*
X97578893Y-99339000D01*
X97733642Y-99369781D01*
G37*
G36*
X100273642Y-99369781D02*
G01*
X100419414Y-99430162D01*
X100419416Y-99430163D01*
X100550608Y-99517822D01*
X100662178Y-99629392D01*
X100749837Y-99760584D01*
X100749838Y-99760586D01*
X100810219Y-99906358D01*
X100841000Y-100061107D01*
X100841000Y-100218893D01*
X100810219Y-100373642D01*
X100760520Y-100493626D01*
X100749837Y-100519416D01*
X100662178Y-100650608D01*
X100550608Y-100762178D01*
X100419416Y-100849837D01*
X100419415Y-100849838D01*
X100419414Y-100849838D01*
X100273642Y-100910219D01*
X100118893Y-100941000D01*
X99961107Y-100941000D01*
X99806358Y-100910219D01*
X99660586Y-100849838D01*
X99660585Y-100849838D01*
X99660584Y-100849837D01*
X99529392Y-100762178D01*
X99417822Y-100650608D01*
X99330163Y-100519416D01*
X99319480Y-100493626D01*
X99269781Y-100373642D01*
X99239000Y-100218893D01*
X99239000Y-100061107D01*
X99269781Y-99906358D01*
X99330162Y-99760586D01*
X99330163Y-99760584D01*
X99417822Y-99629392D01*
X99529392Y-99517822D01*
X99660584Y-99430163D01*
X99660586Y-99430162D01*
X99806358Y-99369781D01*
X99961107Y-99339000D01*
X100118893Y-99339000D01*
X100273642Y-99369781D01*
G37*
G36*
X102813642Y-99369781D02*
G01*
X102959414Y-99430162D01*
X102959416Y-99430163D01*
X103090608Y-99517822D01*
X103202178Y-99629392D01*
X103289837Y-99760584D01*
X103289838Y-99760586D01*
X103350219Y-99906358D01*
X103381000Y-100061107D01*
X103381000Y-100218893D01*
X103350219Y-100373642D01*
X103300520Y-100493626D01*
X103289837Y-100519416D01*
X103202178Y-100650608D01*
X103090608Y-100762178D01*
X102959416Y-100849837D01*
X102959415Y-100849838D01*
X102959414Y-100849838D01*
X102813642Y-100910219D01*
X102658893Y-100941000D01*
X102501107Y-100941000D01*
X102346358Y-100910219D01*
X102200586Y-100849838D01*
X102200585Y-100849838D01*
X102200584Y-100849837D01*
X102069392Y-100762178D01*
X101957822Y-100650608D01*
X101870163Y-100519416D01*
X101859480Y-100493626D01*
X101809781Y-100373642D01*
X101779000Y-100218893D01*
X101779000Y-100061107D01*
X101809781Y-99906358D01*
X101870162Y-99760586D01*
X101870163Y-99760584D01*
X101957822Y-99629392D01*
X102069392Y-99517822D01*
X102200584Y-99430163D01*
X102200586Y-99430162D01*
X102346358Y-99369781D01*
X102501107Y-99339000D01*
X102658893Y-99339000D01*
X102813642Y-99369781D01*
G37*
G36*
X95193642Y-99369781D02*
G01*
X95339414Y-99430162D01*
X95339416Y-99430163D01*
X95470608Y-99517822D01*
X95582178Y-99629392D01*
X95669837Y-99760584D01*
X95669838Y-99760586D01*
X95730219Y-99906358D01*
X95761000Y-100061107D01*
X95761000Y-100218893D01*
X95730219Y-100373642D01*
X95680520Y-100493626D01*
X95669837Y-100519416D01*
X95582178Y-100650608D01*
X95470608Y-100762178D01*
X95339416Y-100849837D01*
X95339415Y-100849838D01*
X95339414Y-100849838D01*
X95193642Y-100910219D01*
X95038893Y-100941000D01*
X94881107Y-100941000D01*
X94726358Y-100910219D01*
X94580586Y-100849838D01*
X94580585Y-100849838D01*
X94580584Y-100849837D01*
X94449392Y-100762178D01*
X94337822Y-100650608D01*
X94250163Y-100519416D01*
X94239480Y-100493626D01*
X94189781Y-100373642D01*
X94159000Y-100218893D01*
X94159000Y-100061107D01*
X94189781Y-99906358D01*
X94250162Y-99760586D01*
X94250163Y-99760584D01*
X94337822Y-99629392D01*
X94449392Y-99517822D01*
X94580584Y-99430163D01*
X94580586Y-99430162D01*
X94726358Y-99369781D01*
X94881107Y-99339000D01*
X95038893Y-99339000D01*
X95193642Y-99369781D01*
G37*
G36*
X142792394Y-99300934D02*
G01*
X142943624Y-99363576D01*
X142943626Y-99363577D01*
X143079732Y-99454520D01*
X143195480Y-99570268D01*
X143286423Y-99706374D01*
X143286424Y-99706376D01*
X143349066Y-99857606D01*
X143381000Y-100018152D01*
X143381000Y-100181848D01*
X143349066Y-100342394D01*
X143286424Y-100493624D01*
X143286423Y-100493626D01*
X143195480Y-100629732D01*
X143079732Y-100745480D01*
X142943626Y-100836423D01*
X142943625Y-100836424D01*
X142943624Y-100836424D01*
X142792394Y-100899066D01*
X142631848Y-100931000D01*
X142468152Y-100931000D01*
X142307606Y-100899066D01*
X142156376Y-100836424D01*
X142156375Y-100836424D01*
X142156374Y-100836423D01*
X142020268Y-100745480D01*
X141904520Y-100629732D01*
X141813577Y-100493626D01*
X141813576Y-100493624D01*
X141750934Y-100342394D01*
X141719000Y-100181848D01*
X141719000Y-100018152D01*
X141750934Y-99857606D01*
X141813576Y-99706376D01*
X141813577Y-99706374D01*
X141904520Y-99570268D01*
X142020268Y-99454520D01*
X142156374Y-99363577D01*
X142156376Y-99363576D01*
X142307606Y-99300934D01*
X142468152Y-99269000D01*
X142631848Y-99269000D01*
X142792394Y-99300934D01*
G37*
G36*
X168192394Y-99300934D02*
G01*
X168343624Y-99363576D01*
X168343626Y-99363577D01*
X168479732Y-99454520D01*
X168595480Y-99570268D01*
X168686423Y-99706374D01*
X168686424Y-99706376D01*
X168749066Y-99857606D01*
X168781000Y-100018152D01*
X168781000Y-100181848D01*
X168749066Y-100342394D01*
X168686424Y-100493624D01*
X168686423Y-100493626D01*
X168595480Y-100629732D01*
X168479732Y-100745480D01*
X168343626Y-100836423D01*
X168343625Y-100836424D01*
X168343624Y-100836424D01*
X168192394Y-100899066D01*
X168031848Y-100931000D01*
X167868152Y-100931000D01*
X167707606Y-100899066D01*
X167556376Y-100836424D01*
X167556375Y-100836424D01*
X167556374Y-100836423D01*
X167420268Y-100745480D01*
X167304520Y-100629732D01*
X167213577Y-100493626D01*
X167213576Y-100493624D01*
X167150934Y-100342394D01*
X167119000Y-100181848D01*
X167119000Y-100018152D01*
X167150934Y-99857606D01*
X167213576Y-99706376D01*
X167213577Y-99706374D01*
X167304520Y-99570268D01*
X167420268Y-99454520D01*
X167556374Y-99363577D01*
X167556376Y-99363576D01*
X167707606Y-99300934D01*
X167868152Y-99269000D01*
X168031848Y-99269000D01*
X168192394Y-99300934D01*
G37*
G36*
X96463642Y-96829781D02*
G01*
X96609414Y-96890162D01*
X96609416Y-96890163D01*
X96740608Y-96977822D01*
X96852178Y-97089392D01*
X96939837Y-97220584D01*
X96939838Y-97220586D01*
X97000219Y-97366358D01*
X97031000Y-97521107D01*
X97031000Y-97678893D01*
X97000219Y-97833642D01*
X96950520Y-97953626D01*
X96939837Y-97979416D01*
X96852178Y-98110608D01*
X96740608Y-98222178D01*
X96609416Y-98309837D01*
X96609415Y-98309838D01*
X96609414Y-98309838D01*
X96463642Y-98370219D01*
X96308893Y-98401000D01*
X96151107Y-98401000D01*
X95996358Y-98370219D01*
X95850586Y-98309838D01*
X95850585Y-98309838D01*
X95850584Y-98309837D01*
X95719392Y-98222178D01*
X95607822Y-98110608D01*
X95520163Y-97979416D01*
X95509480Y-97953626D01*
X95459781Y-97833642D01*
X95429000Y-97678893D01*
X95429000Y-97521107D01*
X95459781Y-97366358D01*
X95520162Y-97220586D01*
X95520163Y-97220584D01*
X95607822Y-97089392D01*
X95719392Y-96977822D01*
X95850584Y-96890163D01*
X95850586Y-96890162D01*
X95996358Y-96829781D01*
X96151107Y-96799000D01*
X96308893Y-96799000D01*
X96463642Y-96829781D01*
G37*
G36*
X101543642Y-96829781D02*
G01*
X101689414Y-96890162D01*
X101689416Y-96890163D01*
X101820608Y-96977822D01*
X101932178Y-97089392D01*
X102019837Y-97220584D01*
X102019838Y-97220586D01*
X102080219Y-97366358D01*
X102111000Y-97521107D01*
X102111000Y-97678893D01*
X102080219Y-97833642D01*
X102030520Y-97953626D01*
X102019837Y-97979416D01*
X101932178Y-98110608D01*
X101820608Y-98222178D01*
X101689416Y-98309837D01*
X101689415Y-98309838D01*
X101689414Y-98309838D01*
X101543642Y-98370219D01*
X101388893Y-98401000D01*
X101231107Y-98401000D01*
X101076358Y-98370219D01*
X100930586Y-98309838D01*
X100930585Y-98309838D01*
X100930584Y-98309837D01*
X100799392Y-98222178D01*
X100687822Y-98110608D01*
X100600163Y-97979416D01*
X100589480Y-97953626D01*
X100539781Y-97833642D01*
X100509000Y-97678893D01*
X100509000Y-97521107D01*
X100539781Y-97366358D01*
X100600162Y-97220586D01*
X100600163Y-97220584D01*
X100687822Y-97089392D01*
X100799392Y-96977822D01*
X100930584Y-96890163D01*
X100930586Y-96890162D01*
X101076358Y-96829781D01*
X101231107Y-96799000D01*
X101388893Y-96799000D01*
X101543642Y-96829781D01*
G37*
G36*
X104651000Y-98401000D02*
G01*
X103049000Y-98401000D01*
X103049000Y-96799000D01*
X104651000Y-96799000D01*
X104651000Y-98401000D01*
G37*
G36*
X99003642Y-96829781D02*
G01*
X99149414Y-96890162D01*
X99149416Y-96890163D01*
X99280608Y-96977822D01*
X99392178Y-97089392D01*
X99479837Y-97220584D01*
X99479838Y-97220586D01*
X99540219Y-97366358D01*
X99571000Y-97521107D01*
X99571000Y-97678893D01*
X99540219Y-97833642D01*
X99490520Y-97953626D01*
X99479837Y-97979416D01*
X99392178Y-98110608D01*
X99280608Y-98222178D01*
X99149416Y-98309837D01*
X99149415Y-98309838D01*
X99149414Y-98309838D01*
X99003642Y-98370219D01*
X98848893Y-98401000D01*
X98691107Y-98401000D01*
X98536358Y-98370219D01*
X98390586Y-98309838D01*
X98390585Y-98309838D01*
X98390584Y-98309837D01*
X98259392Y-98222178D01*
X98147822Y-98110608D01*
X98060163Y-97979416D01*
X98049480Y-97953626D01*
X97999781Y-97833642D01*
X97969000Y-97678893D01*
X97969000Y-97521107D01*
X97999781Y-97366358D01*
X98060162Y-97220586D01*
X98060163Y-97220584D01*
X98147822Y-97089392D01*
X98259392Y-96977822D01*
X98390584Y-96890163D01*
X98390586Y-96890162D01*
X98536358Y-96829781D01*
X98691107Y-96799000D01*
X98848893Y-96799000D01*
X99003642Y-96829781D01*
G37*
G36*
X142792394Y-96760934D02*
G01*
X142943624Y-96823576D01*
X142943626Y-96823577D01*
X143079732Y-96914520D01*
X143195480Y-97030268D01*
X143286423Y-97166374D01*
X143286424Y-97166376D01*
X143349066Y-97317606D01*
X143381000Y-97478152D01*
X143381000Y-97641848D01*
X143349066Y-97802394D01*
X143286424Y-97953624D01*
X143286423Y-97953626D01*
X143195480Y-98089732D01*
X143079732Y-98205480D01*
X142943626Y-98296423D01*
X142943625Y-98296424D01*
X142943624Y-98296424D01*
X142792394Y-98359066D01*
X142631848Y-98391000D01*
X142468152Y-98391000D01*
X142307606Y-98359066D01*
X142156376Y-98296424D01*
X142156375Y-98296424D01*
X142156374Y-98296423D01*
X142020268Y-98205480D01*
X141904520Y-98089732D01*
X141813577Y-97953626D01*
X141813576Y-97953624D01*
X141750934Y-97802394D01*
X141719000Y-97641848D01*
X141719000Y-97478152D01*
X141750934Y-97317606D01*
X141813576Y-97166376D01*
X141813577Y-97166374D01*
X141904520Y-97030268D01*
X142020268Y-96914520D01*
X142156374Y-96823577D01*
X142156376Y-96823576D01*
X142307606Y-96760934D01*
X142468152Y-96729000D01*
X142631848Y-96729000D01*
X142792394Y-96760934D01*
G37*
G36*
X168192394Y-96760934D02*
G01*
X168343624Y-96823576D01*
X168343626Y-96823577D01*
X168479732Y-96914520D01*
X168595480Y-97030268D01*
X168686423Y-97166374D01*
X168686424Y-97166376D01*
X168749066Y-97317606D01*
X168781000Y-97478152D01*
X168781000Y-97641848D01*
X168749066Y-97802394D01*
X168686424Y-97953624D01*
X168686423Y-97953626D01*
X168595480Y-98089732D01*
X168479732Y-98205480D01*
X168343626Y-98296423D01*
X168343625Y-98296424D01*
X168343624Y-98296424D01*
X168192394Y-98359066D01*
X168031848Y-98391000D01*
X167868152Y-98391000D01*
X167707606Y-98359066D01*
X167556376Y-98296424D01*
X167556375Y-98296424D01*
X167556374Y-98296423D01*
X167420268Y-98205480D01*
X167304520Y-98089732D01*
X167213577Y-97953626D01*
X167213576Y-97953624D01*
X167150934Y-97802394D01*
X167119000Y-97641848D01*
X167119000Y-97478152D01*
X167150934Y-97317606D01*
X167213576Y-97166376D01*
X167213577Y-97166374D01*
X167304520Y-97030268D01*
X167420268Y-96914520D01*
X167556374Y-96823577D01*
X167556376Y-96823576D01*
X167707606Y-96760934D01*
X167868152Y-96729000D01*
X168031848Y-96729000D01*
X168192394Y-96760934D01*
G37*
G36*
X173524436Y-95748188D02*
G01*
X173608332Y-95764876D01*
X173687360Y-95797611D01*
X173766390Y-95830346D01*
X173908634Y-95925390D01*
X174029610Y-96046366D01*
X174124654Y-96188610D01*
X174140015Y-96225695D01*
X174190124Y-96346668D01*
X174223500Y-96514460D01*
X174223500Y-96685540D01*
X174194809Y-96829781D01*
X174190124Y-96853331D01*
X174124654Y-97011390D01*
X174029610Y-97153634D01*
X173908634Y-97274610D01*
X173766390Y-97369654D01*
X173608332Y-97435124D01*
X173524436Y-97451812D01*
X173440541Y-97468500D01*
X173269459Y-97468500D01*
X173185564Y-97451812D01*
X173101668Y-97435124D01*
X172943610Y-97369654D01*
X172801366Y-97274610D01*
X172680390Y-97153634D01*
X172585346Y-97011390D01*
X172519876Y-96853331D01*
X172515192Y-96829781D01*
X172486500Y-96685540D01*
X172486500Y-96514460D01*
X172519876Y-96346668D01*
X172569985Y-96225695D01*
X172585346Y-96188610D01*
X172680390Y-96046366D01*
X172801366Y-95925390D01*
X172943610Y-95830346D01*
X173101668Y-95764876D01*
X173185564Y-95748188D01*
X173269459Y-95731500D01*
X173440541Y-95731500D01*
X173524436Y-95748188D01*
G37*
G36*
X83695057Y-94503235D02*
G01*
X83814904Y-94527074D01*
X84042572Y-94621377D01*
X84247467Y-94758284D01*
X84421716Y-94932533D01*
X84558623Y-95137428D01*
X84652926Y-95365096D01*
X84701001Y-95606786D01*
X84701001Y-95853212D01*
X84652926Y-96094902D01*
X84558623Y-96322570D01*
X84421716Y-96527465D01*
X84247467Y-96701714D01*
X84042572Y-96838621D01*
X84042571Y-96838622D01*
X84042570Y-96838622D01*
X83814904Y-96932924D01*
X83573215Y-96980999D01*
X83326787Y-96980999D01*
X83085098Y-96932924D01*
X82857432Y-96838622D01*
X82857431Y-96838622D01*
X82857430Y-96838621D01*
X82652535Y-96701714D01*
X82478286Y-96527465D01*
X82341379Y-96322570D01*
X82247076Y-96094902D01*
X82199001Y-95853212D01*
X82199001Y-95606786D01*
X82247076Y-95365096D01*
X82341379Y-95137428D01*
X82478286Y-94932533D01*
X82652535Y-94758284D01*
X82857430Y-94621377D01*
X83085098Y-94527074D01*
X83204945Y-94503235D01*
X83326787Y-94478999D01*
X83573215Y-94478999D01*
X83695057Y-94503235D01*
G37*
G36*
X117443097Y-94204069D02*
G01*
X117546032Y-94214207D01*
X117744146Y-94274305D01*
X117744149Y-94274306D01*
X117840975Y-94326061D01*
X117926729Y-94371897D01*
X118086765Y-94503235D01*
X118218103Y-94663271D01*
X118263939Y-94749025D01*
X118315694Y-94845851D01*
X118315695Y-94845854D01*
X118375793Y-95043968D01*
X118396085Y-95250000D01*
X118375793Y-95456032D01*
X118315695Y-95654146D01*
X118315694Y-95654149D01*
X118309637Y-95665480D01*
X118218103Y-95836729D01*
X118086765Y-95996765D01*
X117926729Y-96128103D01*
X117840975Y-96173939D01*
X117744149Y-96225694D01*
X117744146Y-96225695D01*
X117546032Y-96285793D01*
X117443097Y-96295931D01*
X117391631Y-96301000D01*
X116288369Y-96301000D01*
X116236903Y-96295931D01*
X116133968Y-96285793D01*
X115935854Y-96225695D01*
X115935851Y-96225694D01*
X115839025Y-96173939D01*
X115753271Y-96128103D01*
X115593235Y-95996765D01*
X115461897Y-95836729D01*
X115370363Y-95665480D01*
X115364306Y-95654149D01*
X115364305Y-95654146D01*
X115304207Y-95456032D01*
X115283915Y-95250000D01*
X115304207Y-95043968D01*
X115364305Y-94845854D01*
X115364306Y-94845851D01*
X115416061Y-94749025D01*
X115461897Y-94663271D01*
X115593235Y-94503235D01*
X115753271Y-94371897D01*
X115839025Y-94326061D01*
X115935851Y-94274306D01*
X115935854Y-94274305D01*
X116133968Y-94214207D01*
X116236903Y-94204069D01*
X116288369Y-94199000D01*
X117391631Y-94199000D01*
X117443097Y-94204069D01*
G37*
G36*
X168192394Y-94220934D02*
G01*
X168321244Y-94274306D01*
X168343626Y-94283577D01*
X168479732Y-94374520D01*
X168595480Y-94490268D01*
X168683083Y-94621376D01*
X168686424Y-94626376D01*
X168749066Y-94777606D01*
X168781000Y-94938152D01*
X168781000Y-95101848D01*
X168749066Y-95262394D01*
X168706525Y-95365096D01*
X168686423Y-95413626D01*
X168595480Y-95549732D01*
X168479732Y-95665480D01*
X168343626Y-95756423D01*
X168343625Y-95756424D01*
X168343624Y-95756424D01*
X168192394Y-95819066D01*
X168031848Y-95851000D01*
X167868152Y-95851000D01*
X167707606Y-95819066D01*
X167556376Y-95756424D01*
X167556375Y-95756424D01*
X167556374Y-95756423D01*
X167420268Y-95665480D01*
X167304520Y-95549732D01*
X167213577Y-95413626D01*
X167193475Y-95365096D01*
X167150934Y-95262394D01*
X167119000Y-95101848D01*
X167119000Y-94938152D01*
X167150934Y-94777606D01*
X167213576Y-94626376D01*
X167216917Y-94621376D01*
X167304520Y-94490268D01*
X167420268Y-94374520D01*
X167556374Y-94283577D01*
X167578756Y-94274306D01*
X167707606Y-94220934D01*
X167868152Y-94189000D01*
X168031848Y-94189000D01*
X168192394Y-94220934D01*
G37*
G36*
X142792394Y-94220934D02*
G01*
X142921244Y-94274306D01*
X142943626Y-94283577D01*
X143079732Y-94374520D01*
X143195480Y-94490268D01*
X143283083Y-94621376D01*
X143286424Y-94626376D01*
X143349066Y-94777606D01*
X143381000Y-94938152D01*
X143381000Y-95101848D01*
X143349066Y-95262394D01*
X143306525Y-95365096D01*
X143286423Y-95413626D01*
X143195480Y-95549732D01*
X143079732Y-95665480D01*
X142943626Y-95756423D01*
X142943625Y-95756424D01*
X142943624Y-95756424D01*
X142792394Y-95819066D01*
X142631848Y-95851000D01*
X142468152Y-95851000D01*
X142307606Y-95819066D01*
X142156376Y-95756424D01*
X142156375Y-95756424D01*
X142156374Y-95756423D01*
X142020268Y-95665480D01*
X141904520Y-95549732D01*
X141813577Y-95413626D01*
X141793475Y-95365096D01*
X141750934Y-95262394D01*
X141719000Y-95101848D01*
X141719000Y-94938152D01*
X141750934Y-94777606D01*
X141813576Y-94626376D01*
X141816917Y-94621376D01*
X141904520Y-94490268D01*
X142020268Y-94374520D01*
X142156374Y-94283577D01*
X142178756Y-94274306D01*
X142307606Y-94220934D01*
X142468152Y-94189000D01*
X142631848Y-94189000D01*
X142792394Y-94220934D01*
G37*
G36*
X117443097Y-91664069D02*
G01*
X117546032Y-91674207D01*
X117744146Y-91734305D01*
X117744149Y-91734306D01*
X117840975Y-91786061D01*
X117926729Y-91831897D01*
X118086765Y-91963235D01*
X118218103Y-92123271D01*
X118263939Y-92209025D01*
X118315694Y-92305851D01*
X118315695Y-92305854D01*
X118375793Y-92503968D01*
X118396085Y-92710000D01*
X118375793Y-92916032D01*
X118347369Y-93009731D01*
X118315694Y-93114149D01*
X118309637Y-93125480D01*
X118218103Y-93296729D01*
X118086765Y-93456765D01*
X117926729Y-93588103D01*
X117840975Y-93633939D01*
X117744149Y-93685694D01*
X117744146Y-93685695D01*
X117546032Y-93745793D01*
X117443097Y-93755931D01*
X117391631Y-93761000D01*
X116288369Y-93761000D01*
X116236903Y-93755931D01*
X116133968Y-93745793D01*
X115935854Y-93685695D01*
X115935851Y-93685694D01*
X115839025Y-93633939D01*
X115753271Y-93588103D01*
X115593235Y-93456765D01*
X115461897Y-93296729D01*
X115370363Y-93125480D01*
X115364306Y-93114149D01*
X115332631Y-93009731D01*
X115304207Y-92916032D01*
X115283915Y-92710000D01*
X115304207Y-92503968D01*
X115364305Y-92305854D01*
X115364306Y-92305851D01*
X115416061Y-92209025D01*
X115461897Y-92123271D01*
X115593235Y-91963235D01*
X115753271Y-91831897D01*
X115839025Y-91786061D01*
X115935851Y-91734306D01*
X115935854Y-91734305D01*
X116133968Y-91674207D01*
X116236903Y-91664069D01*
X116288369Y-91659000D01*
X117391631Y-91659000D01*
X117443097Y-91664069D01*
G37*
G36*
X142792394Y-91680934D02*
G01*
X142921244Y-91734306D01*
X142943626Y-91743577D01*
X143079732Y-91834520D01*
X143195480Y-91950268D01*
X143286423Y-92086374D01*
X143286424Y-92086376D01*
X143349066Y-92237606D01*
X143381000Y-92398152D01*
X143381000Y-92561848D01*
X143349066Y-92722394D01*
X143301365Y-92837553D01*
X143286423Y-92873626D01*
X143195480Y-93009732D01*
X143079732Y-93125480D01*
X142943626Y-93216423D01*
X142943625Y-93216424D01*
X142943624Y-93216424D01*
X142792394Y-93279066D01*
X142631848Y-93311000D01*
X142468152Y-93311000D01*
X142307606Y-93279066D01*
X142156376Y-93216424D01*
X142156375Y-93216424D01*
X142156374Y-93216423D01*
X142020268Y-93125480D01*
X141904520Y-93009732D01*
X141813577Y-92873626D01*
X141798635Y-92837553D01*
X141750934Y-92722394D01*
X141719000Y-92561848D01*
X141719000Y-92398152D01*
X141750934Y-92237606D01*
X141813576Y-92086376D01*
X141813577Y-92086374D01*
X141904520Y-91950268D01*
X142020268Y-91834520D01*
X142156374Y-91743577D01*
X142178756Y-91734306D01*
X142307606Y-91680934D01*
X142468152Y-91649000D01*
X142631848Y-91649000D01*
X142792394Y-91680934D01*
G37*
G36*
X168192394Y-91680934D02*
G01*
X168321244Y-91734306D01*
X168343626Y-91743577D01*
X168479732Y-91834520D01*
X168595480Y-91950268D01*
X168686423Y-92086374D01*
X168686424Y-92086376D01*
X168749066Y-92237606D01*
X168781000Y-92398152D01*
X168781000Y-92561848D01*
X168749066Y-92722394D01*
X168701365Y-92837553D01*
X168686423Y-92873626D01*
X168595480Y-93009732D01*
X168479732Y-93125480D01*
X168343626Y-93216423D01*
X168343625Y-93216424D01*
X168343624Y-93216424D01*
X168192394Y-93279066D01*
X168031848Y-93311000D01*
X167868152Y-93311000D01*
X167707606Y-93279066D01*
X167556376Y-93216424D01*
X167556375Y-93216424D01*
X167556374Y-93216423D01*
X167420268Y-93125480D01*
X167304520Y-93009732D01*
X167213577Y-92873626D01*
X167198635Y-92837553D01*
X167150934Y-92722394D01*
X167119000Y-92561848D01*
X167119000Y-92398152D01*
X167150934Y-92237606D01*
X167213576Y-92086376D01*
X167213577Y-92086374D01*
X167304520Y-91950268D01*
X167420268Y-91834520D01*
X167556374Y-91743577D01*
X167578756Y-91734306D01*
X167707606Y-91680934D01*
X167868152Y-91649000D01*
X168031848Y-91649000D01*
X168192394Y-91680934D01*
G37*
G36*
X105495256Y-89641298D02*
G01*
X105601579Y-89662447D01*
X105902042Y-89786903D01*
X106172451Y-89967585D01*
X106402415Y-90197549D01*
X106521674Y-90376032D01*
X106583098Y-90467960D01*
X106583832Y-90469732D01*
X106707553Y-90768421D01*
X106771000Y-91087391D01*
X106771000Y-91412609D01*
X106707553Y-91731579D01*
X106583097Y-92032042D01*
X106402415Y-92302451D01*
X106172451Y-92532415D01*
X105902042Y-92713097D01*
X105601579Y-92837553D01*
X105495256Y-92858702D01*
X105282611Y-92901000D01*
X104957389Y-92901000D01*
X104744744Y-92858702D01*
X104638421Y-92837553D01*
X104337958Y-92713097D01*
X104067549Y-92532415D01*
X103837585Y-92302451D01*
X103656903Y-92032042D01*
X103532447Y-91731579D01*
X103469000Y-91412609D01*
X103469000Y-91087391D01*
X103532447Y-90768421D01*
X103656168Y-90469732D01*
X103656902Y-90467960D01*
X103718326Y-90376032D01*
X103837585Y-90197549D01*
X104067549Y-89967585D01*
X104337958Y-89786903D01*
X104638421Y-89662447D01*
X104744744Y-89641298D01*
X104957389Y-89599000D01*
X105282611Y-89599000D01*
X105495256Y-89641298D01*
G37*
G36*
X94065256Y-89641298D02*
G01*
X94171579Y-89662447D01*
X94472042Y-89786903D01*
X94742451Y-89967585D01*
X94972415Y-90197549D01*
X95091674Y-90376032D01*
X95153098Y-90467960D01*
X95153832Y-90469732D01*
X95277553Y-90768421D01*
X95341000Y-91087391D01*
X95341000Y-91412609D01*
X95277553Y-91731579D01*
X95153097Y-92032042D01*
X94972415Y-92302451D01*
X94742451Y-92532415D01*
X94472042Y-92713097D01*
X94171579Y-92837553D01*
X94065256Y-92858702D01*
X93852611Y-92901000D01*
X93527389Y-92901000D01*
X93314744Y-92858702D01*
X93208421Y-92837553D01*
X92907958Y-92713097D01*
X92637549Y-92532415D01*
X92407585Y-92302451D01*
X92226903Y-92032042D01*
X92102447Y-91731579D01*
X92039000Y-91412609D01*
X92039000Y-91087391D01*
X92102447Y-90768421D01*
X92226168Y-90469732D01*
X92226902Y-90467960D01*
X92288326Y-90376032D01*
X92407585Y-90197549D01*
X92637549Y-89967585D01*
X92907958Y-89786903D01*
X93208421Y-89662447D01*
X93314744Y-89641298D01*
X93527389Y-89599000D01*
X93852611Y-89599000D01*
X94065256Y-89641298D01*
G37*
G36*
X117443097Y-89124069D02*
G01*
X117546032Y-89134207D01*
X117744146Y-89194305D01*
X117744149Y-89194306D01*
X117840975Y-89246061D01*
X117926729Y-89291897D01*
X118086765Y-89423235D01*
X118218103Y-89583271D01*
X118235820Y-89616418D01*
X118315694Y-89765851D01*
X118315695Y-89765854D01*
X118375793Y-89963968D01*
X118396085Y-90170000D01*
X118375793Y-90376032D01*
X118347369Y-90469731D01*
X118315694Y-90574149D01*
X118309637Y-90585480D01*
X118218103Y-90756729D01*
X118086765Y-90916765D01*
X117926729Y-91048103D01*
X117853226Y-91087391D01*
X117744149Y-91145694D01*
X117744146Y-91145695D01*
X117546032Y-91205793D01*
X117443097Y-91215931D01*
X117391631Y-91221000D01*
X116288369Y-91221000D01*
X116236903Y-91215931D01*
X116133968Y-91205793D01*
X115935854Y-91145695D01*
X115935851Y-91145694D01*
X115826774Y-91087391D01*
X115753271Y-91048103D01*
X115593235Y-90916765D01*
X115461897Y-90756729D01*
X115370363Y-90585480D01*
X115364306Y-90574149D01*
X115332631Y-90469731D01*
X115304207Y-90376032D01*
X115283915Y-90170000D01*
X115304207Y-89963968D01*
X115364305Y-89765854D01*
X115364306Y-89765851D01*
X115444180Y-89616418D01*
X115461897Y-89583271D01*
X115593235Y-89423235D01*
X115753271Y-89291897D01*
X115839025Y-89246061D01*
X115935851Y-89194306D01*
X115935854Y-89194305D01*
X116133968Y-89134207D01*
X116236903Y-89124069D01*
X116288369Y-89119000D01*
X117391631Y-89119000D01*
X117443097Y-89124069D01*
G37*
G36*
X143381000Y-90771000D02*
G01*
X141719000Y-90771000D01*
X141719000Y-89109000D01*
X143381000Y-89109000D01*
X143381000Y-90771000D01*
G37*
G36*
X168192394Y-89140934D02*
G01*
X168321244Y-89194306D01*
X168343626Y-89203577D01*
X168479732Y-89294520D01*
X168595480Y-89410268D01*
X168622363Y-89450502D01*
X168686424Y-89546376D01*
X168749066Y-89697606D01*
X168781000Y-89858152D01*
X168781000Y-90021848D01*
X168749066Y-90182394D01*
X168686424Y-90333624D01*
X168686423Y-90333626D01*
X168595480Y-90469732D01*
X168479732Y-90585480D01*
X168343626Y-90676423D01*
X168343625Y-90676424D01*
X168343624Y-90676424D01*
X168192394Y-90739066D01*
X168031848Y-90771000D01*
X167868152Y-90771000D01*
X167707606Y-90739066D01*
X167556376Y-90676424D01*
X167556375Y-90676424D01*
X167556374Y-90676423D01*
X167420268Y-90585480D01*
X167304520Y-90469732D01*
X167213577Y-90333626D01*
X167213576Y-90333624D01*
X167150934Y-90182394D01*
X167119000Y-90021848D01*
X167119000Y-89858152D01*
X167150934Y-89697606D01*
X167213576Y-89546376D01*
X167277637Y-89450502D01*
X167304520Y-89410268D01*
X167420268Y-89294520D01*
X167556374Y-89203577D01*
X167578756Y-89194306D01*
X167707606Y-89140934D01*
X167868152Y-89109000D01*
X168031848Y-89109000D01*
X168192394Y-89140934D01*
G37*
G36*
X132842007Y-85483582D02*
G01*
X133242563Y-85649498D01*
X133242565Y-85649499D01*
X133603056Y-85890371D01*
X133909629Y-86196944D01*
X134150501Y-86557435D01*
X134150502Y-86557437D01*
X134316418Y-86957993D01*
X134401000Y-87383219D01*
X134401000Y-87816781D01*
X134316418Y-88242007D01*
X134165773Y-88605695D01*
X134150501Y-88642565D01*
X133909629Y-89003056D01*
X133603056Y-89309629D01*
X133242565Y-89550501D01*
X133242564Y-89550502D01*
X133242563Y-89550502D01*
X132842007Y-89716418D01*
X132416781Y-89801000D01*
X131983219Y-89801000D01*
X131557993Y-89716418D01*
X131157437Y-89550502D01*
X131157436Y-89550502D01*
X131157435Y-89550501D01*
X130796944Y-89309629D01*
X130490371Y-89003056D01*
X130249499Y-88642565D01*
X130234227Y-88605695D01*
X130083582Y-88242007D01*
X129999000Y-87816781D01*
X129999000Y-87383219D01*
X130083582Y-86957993D01*
X130249498Y-86557437D01*
X130249499Y-86557435D01*
X130490371Y-86196944D01*
X130796944Y-85890371D01*
X131157435Y-85649499D01*
X131157437Y-85649498D01*
X131557993Y-85483582D01*
X131983219Y-85399000D01*
X132416781Y-85399000D01*
X132842007Y-85483582D01*
G37*
G36*
X84142007Y-85383582D02*
G01*
X84383430Y-85483583D01*
X84542565Y-85549499D01*
X84903056Y-85790371D01*
X85209629Y-86096944D01*
X85276447Y-86196945D01*
X85450502Y-86457437D01*
X85616418Y-86857993D01*
X85701000Y-87283219D01*
X85701000Y-87716781D01*
X85616418Y-88142007D01*
X85574996Y-88242008D01*
X85450501Y-88542565D01*
X85209629Y-88903056D01*
X84903056Y-89209629D01*
X84542565Y-89450501D01*
X84542564Y-89450502D01*
X84542563Y-89450502D01*
X84142007Y-89616418D01*
X83716781Y-89701000D01*
X83283219Y-89701000D01*
X82857993Y-89616418D01*
X82457437Y-89450502D01*
X82457436Y-89450502D01*
X82457435Y-89450501D01*
X82096944Y-89209629D01*
X81790371Y-88903056D01*
X81549499Y-88542565D01*
X81425004Y-88242008D01*
X81383582Y-88142007D01*
X81299000Y-87716781D01*
X81299000Y-87283219D01*
X81383582Y-86857993D01*
X81549498Y-86457437D01*
X81723553Y-86196945D01*
X81790371Y-86096944D01*
X82096944Y-85790371D01*
X82457435Y-85549499D01*
X82616570Y-85483583D01*
X82857993Y-85383582D01*
X83283219Y-85299000D01*
X83716781Y-85299000D01*
X84142007Y-85383582D01*
G37*
G36*
X117443097Y-86584069D02*
G01*
X117546032Y-86594207D01*
X117744146Y-86654305D01*
X117744149Y-86654306D01*
X117840975Y-86706061D01*
X117926729Y-86751897D01*
X118086765Y-86883235D01*
X118218103Y-87043271D01*
X118263939Y-87129025D01*
X118315694Y-87225851D01*
X118315695Y-87225854D01*
X118375793Y-87423968D01*
X118396085Y-87630000D01*
X118375793Y-87836032D01*
X118315695Y-88034146D01*
X118315694Y-88034149D01*
X118263939Y-88130975D01*
X118218103Y-88216729D01*
X118086765Y-88376765D01*
X117926729Y-88508103D01*
X117840975Y-88553939D01*
X117744149Y-88605694D01*
X117744146Y-88605695D01*
X117546032Y-88665793D01*
X117443097Y-88675931D01*
X117391631Y-88681000D01*
X116288369Y-88681000D01*
X116236903Y-88675931D01*
X116133968Y-88665793D01*
X115935854Y-88605695D01*
X115935851Y-88605694D01*
X115839025Y-88553939D01*
X115753271Y-88508103D01*
X115593235Y-88376765D01*
X115461897Y-88216729D01*
X115416061Y-88130975D01*
X115364306Y-88034149D01*
X115364305Y-88034146D01*
X115304207Y-87836032D01*
X115283915Y-87630000D01*
X115304207Y-87423968D01*
X115364305Y-87225854D01*
X115364306Y-87225851D01*
X115416061Y-87129025D01*
X115461897Y-87043271D01*
X115593235Y-86883235D01*
X115753271Y-86751897D01*
X115839025Y-86706061D01*
X115935851Y-86654306D01*
X115935854Y-86654305D01*
X116133968Y-86594207D01*
X116236903Y-86584069D01*
X116288369Y-86579000D01*
X117391631Y-86579000D01*
X117443097Y-86584069D01*
G37*
G36*
X118391000Y-85891000D02*
G01*
X115289000Y-85891000D01*
X115289000Y-84289000D01*
X118391000Y-84289000D01*
X118391000Y-85891000D01*
G37*
M02*
