G04 #@! TF.GenerationSoftware,KiCad,Pcbnew,(5.1.2)-2*
G04 #@! TF.CreationDate,2019-12-12T20:57:49+01:00*
G04 #@! TF.ProjectId,Control_board,436f6e74-726f-46c5-9f62-6f6172642e6b,rev?*
G04 #@! TF.SameCoordinates,Original*
G04 #@! TF.FileFunction,Copper,L2,Bot*
G04 #@! TF.FilePolarity,Positive*
%FSLAX46Y46*%
G04 Gerber Fmt 4.6, Leading zero omitted, Abs format (unit mm)*
G04 Created by KiCad (PCBNEW (5.1.2)-2) date 2019-12-12 20:57:49*
%MOMM*%
%LPD*%
G04 APERTURE LIST*
%ADD10R,1.560000X1.560000*%
%ADD11C,1.560000*%
%ADD12C,1.350000*%
%ADD13C,3.050000*%
%ADD14C,1.620000*%
%ADD15C,1.524000*%
%ADD16C,1.605000*%
%ADD17R,4.500880X4.500880*%
%ADD18C,4.500880*%
%ADD19R,1.500000X1.500000*%
%ADD20C,1.500000*%
%ADD21C,1.525000*%
%ADD22R,1.700000X1.700000*%
%ADD23O,1.700000X1.700000*%
%ADD24C,0.800000*%
%ADD25C,0.250000*%
%ADD26C,0.800000*%
G04 APERTURE END LIST*
D10*
X142550000Y-89940000D03*
D11*
X142550000Y-92480000D03*
X142550000Y-135660000D03*
X142550000Y-95020000D03*
X142550000Y-97560000D03*
X142550000Y-100100000D03*
X142550000Y-102640000D03*
X142550000Y-105180000D03*
X142550000Y-107720000D03*
X142550000Y-110260000D03*
X142550000Y-112800000D03*
X142550000Y-115340000D03*
X142550000Y-117880000D03*
X142550000Y-120420000D03*
X142550000Y-122960000D03*
X142550000Y-125500000D03*
X142550000Y-128040000D03*
X142550000Y-130580000D03*
X142550000Y-133120000D03*
X167950000Y-89940000D03*
X167950000Y-92480000D03*
X167950000Y-95020000D03*
X167950000Y-97560000D03*
X167950000Y-100100000D03*
X167950000Y-102640000D03*
X167950000Y-105180000D03*
X167950000Y-107720000D03*
X167950000Y-110260000D03*
X167950000Y-112800000D03*
X167950000Y-115340000D03*
X167950000Y-117880000D03*
X167950000Y-120420000D03*
X167950000Y-122960000D03*
X167950000Y-125500000D03*
X167950000Y-128040000D03*
X167950000Y-130580000D03*
X167950000Y-133120000D03*
X167950000Y-135660000D03*
D12*
X132500000Y-131450000D03*
X132500000Y-136450000D03*
D13*
X119450000Y-172200000D03*
D14*
X119450000Y-164880000D03*
X119450000Y-167880000D03*
D15*
X113330000Y-84500000D03*
X130470000Y-84500000D03*
X130470000Y-124000000D03*
X113330000Y-124000000D03*
D16*
X88163000Y-168040000D03*
X85163000Y-168040000D03*
X88163000Y-165040000D03*
X85163000Y-165040000D03*
D13*
X86663000Y-172360000D03*
D15*
X90730000Y-124000000D03*
X107870000Y-124000000D03*
X107870000Y-84500000D03*
X90730000Y-84500000D03*
D17*
X83500000Y-102000000D03*
D18*
X83500000Y-95650000D03*
D19*
X158650000Y-157850000D03*
D20*
X156110000Y-156580000D03*
X158650000Y-155310000D03*
X156110000Y-154040000D03*
X158650000Y-152770000D03*
X156110000Y-151500000D03*
X158650000Y-150230000D03*
X156110000Y-148960000D03*
D16*
X101363000Y-167990000D03*
X98363000Y-167990000D03*
X101363000Y-164990000D03*
X98363000Y-164990000D03*
D21*
X99863000Y-172310000D03*
D22*
X99350000Y-131480000D03*
D23*
X99350000Y-134020000D03*
X99350000Y-136560000D03*
X99350000Y-139100000D03*
X108950000Y-139180000D03*
X108950000Y-136640000D03*
X108950000Y-134100000D03*
D22*
X108950000Y-131560000D03*
D14*
X111250000Y-167880000D03*
X111250000Y-164880000D03*
D13*
X111250000Y-172200000D03*
D24*
X144400000Y-140450000D03*
X143824979Y-163850000D03*
X144500000Y-135000000D03*
X139150000Y-155950000D03*
X134100000Y-172700000D03*
X133800000Y-159500000D03*
X162856475Y-173043525D03*
X148650000Y-173225010D03*
X149603510Y-171921809D03*
X121950000Y-151650000D03*
X140750000Y-166450000D03*
X136730823Y-159365175D03*
X123000000Y-146500000D03*
X163500000Y-113000000D03*
X137384301Y-157474998D03*
X164500000Y-115350000D03*
X151650000Y-159450000D03*
X146225010Y-157987340D03*
X139200000Y-154800000D03*
X164950000Y-174150000D03*
X136300000Y-174400000D03*
X150700000Y-174950000D03*
X134500000Y-166000000D03*
X136000000Y-172000000D03*
X166325379Y-172500001D03*
X137500000Y-176000000D03*
X172000000Y-110500000D03*
X170000000Y-110774990D03*
X152100000Y-171774990D03*
X139700000Y-157700000D03*
X134687592Y-157349589D03*
X169500000Y-153000000D03*
X146325501Y-170742124D03*
X156500000Y-172500000D03*
D25*
X144400000Y-140450000D02*
X143824979Y-141025021D01*
X143824979Y-163284315D02*
X143824979Y-163850000D01*
X143824979Y-141025021D02*
X143824979Y-163284315D01*
X144500000Y-112210000D02*
X142550000Y-110260000D01*
X144500000Y-135000000D02*
X144500000Y-112210000D01*
X133700001Y-172300001D02*
X134100000Y-172700000D01*
X133400001Y-172000001D02*
X133700001Y-172300001D01*
X133400001Y-159899999D02*
X133400001Y-172000001D01*
X133800000Y-159500000D02*
X133400001Y-159899999D01*
X108870000Y-134020000D02*
X108950000Y-134100000D01*
X99350000Y-134020000D02*
X108870000Y-134020000D01*
X147984315Y-173125010D02*
X148084315Y-173225010D01*
X162856475Y-173043525D02*
X162290790Y-173043525D01*
X148574990Y-173150000D02*
X148650000Y-173225010D01*
X148084315Y-173225010D02*
X148650000Y-173225010D01*
X134499999Y-173099999D02*
X148524989Y-173099999D01*
X147984315Y-173050000D02*
X147984315Y-173125010D01*
X148524989Y-173099999D02*
X148574990Y-173150000D01*
X134100000Y-172700000D02*
X134499999Y-173099999D01*
X149215685Y-173225010D02*
X148650000Y-173225010D01*
X162290790Y-173043525D02*
X162109305Y-173225010D01*
X162109305Y-173225010D02*
X149215685Y-173225010D01*
X158133999Y-156385001D02*
X159270003Y-156385001D01*
X156859999Y-154789999D02*
X156859999Y-155111001D01*
X156110000Y-154040000D02*
X156859999Y-154789999D01*
X156859999Y-155111001D02*
X158133999Y-156385001D01*
X159725001Y-156839999D02*
X159725001Y-161800318D01*
X150003509Y-171521810D02*
X149603510Y-171921809D01*
X159270003Y-156385001D02*
X159725001Y-156839999D01*
X159725001Y-161800318D02*
X150003509Y-171521810D01*
X121550001Y-152049999D02*
X121950000Y-151650000D01*
X106855001Y-166744999D02*
X121550001Y-152049999D01*
X99608001Y-166744999D02*
X106855001Y-166744999D01*
X98363000Y-167990000D02*
X99608001Y-166744999D01*
X140750000Y-166450000D02*
X140750000Y-163384352D01*
X137130822Y-159765174D02*
X136730823Y-159365175D01*
X140750000Y-163384352D02*
X137130822Y-159765174D01*
D26*
X108631999Y-124761999D02*
X107870000Y-124000000D01*
X109870000Y-126000000D02*
X108631999Y-124761999D01*
X128470000Y-126000000D02*
X109870000Y-126000000D01*
X130470000Y-124000000D02*
X128470000Y-126000000D01*
X107870000Y-130480000D02*
X108950000Y-131560000D01*
X107870000Y-124000000D02*
X107870000Y-130480000D01*
X108870000Y-131480000D02*
X108950000Y-131560000D01*
X99350000Y-131480000D02*
X108870000Y-131480000D01*
X108631999Y-123238001D02*
X108631999Y-85261999D01*
X107870000Y-124000000D02*
X108631999Y-123238001D01*
X96720000Y-95650000D02*
X107870000Y-84500000D01*
X83500000Y-95650000D02*
X96720000Y-95650000D01*
X108631999Y-85261999D02*
X107870000Y-84500000D01*
X109232001Y-85862001D02*
X108631999Y-85261999D01*
X129107999Y-85862001D02*
X109232001Y-85862001D01*
X130470000Y-84500000D02*
X129107999Y-85862001D01*
D25*
X123000000Y-146500000D02*
X125000000Y-144500000D01*
X125000000Y-144500000D02*
X136500000Y-144500000D01*
X136500000Y-144500000D02*
X163500000Y-117500000D01*
X163500000Y-117500000D02*
X163500000Y-113000000D01*
X164500000Y-117136411D02*
X164500000Y-115915685D01*
X137384301Y-144252110D02*
X164500000Y-117136411D01*
X137384301Y-157474998D02*
X137384301Y-144252110D01*
X164500000Y-115915685D02*
X164500000Y-115350000D01*
X154520000Y-156580000D02*
X156110000Y-156580000D01*
X151650000Y-159450000D02*
X154520000Y-156580000D01*
X147082660Y-157987340D02*
X146790695Y-157987340D01*
X146790695Y-157987340D02*
X146225010Y-157987340D01*
X156110000Y-148960000D02*
X147082660Y-157987340D01*
X99430000Y-136640000D02*
X99350000Y-136560000D01*
X108950000Y-136640000D02*
X99430000Y-136640000D01*
X165650000Y-94780000D02*
X167170001Y-93259999D01*
X167170001Y-93259999D02*
X167950000Y-92480000D01*
X138284322Y-145124909D02*
X141850032Y-141559200D01*
X141850032Y-141559200D02*
X141850032Y-140849967D01*
X138284322Y-153884322D02*
X138284322Y-145124909D01*
X139200000Y-154800000D02*
X138284322Y-153884322D01*
X165650000Y-117050000D02*
X165650000Y-94780000D01*
X141850032Y-140849967D02*
X165650000Y-117050000D01*
X164950000Y-174150000D02*
X164350000Y-174750000D01*
X136300000Y-174400000D02*
X136700000Y-174800000D01*
X136850000Y-174950000D02*
X136700000Y-174800000D01*
X150700000Y-174950000D02*
X136850000Y-174950000D01*
X151465685Y-174750000D02*
X164350000Y-174750000D01*
X151265685Y-174950000D02*
X151465685Y-174750000D01*
X150700000Y-174950000D02*
X151265685Y-174950000D01*
X134500000Y-166000000D02*
X136000000Y-167500000D01*
X136000000Y-167500000D02*
X136000000Y-172000000D01*
X101363000Y-151367000D02*
X101363000Y-164990000D01*
X119380000Y-133350000D02*
X101363000Y-151367000D01*
X124460000Y-133350000D02*
X119380000Y-133350000D01*
X141444999Y-116365001D02*
X124460000Y-133350000D01*
X142550000Y-112800000D02*
X141444999Y-113905001D01*
X141444999Y-113905001D02*
X141444999Y-116365001D01*
X168798013Y-108499999D02*
X172000000Y-111701986D01*
X172000000Y-169136411D02*
X170461399Y-170675012D01*
X170461399Y-170675012D02*
X168150368Y-170675012D01*
X168150368Y-170675012D02*
X166725378Y-172100002D01*
X166725378Y-172100002D02*
X166325379Y-172500001D01*
X168729999Y-108499999D02*
X168798013Y-108499999D01*
X172000000Y-111701986D02*
X172000000Y-169136411D01*
X167950000Y-107720000D02*
X168729999Y-108499999D01*
X137500000Y-176000000D02*
X139500000Y-178000000D01*
X139500000Y-178000000D02*
X166000000Y-178000000D01*
X166000000Y-178000000D02*
X172500000Y-171500000D01*
X172500000Y-171500000D02*
X172500000Y-111000000D01*
X172500000Y-111000000D02*
X172000000Y-110500000D01*
X170000000Y-110774990D02*
X170399999Y-111174989D01*
X153649989Y-170225001D02*
X152499999Y-171374991D01*
X170274999Y-170225001D02*
X153649989Y-170225001D01*
X170399999Y-111174989D02*
X170399999Y-170100001D01*
X152499999Y-171374991D02*
X152100000Y-171774990D01*
X170399999Y-170100001D02*
X170274999Y-170225001D01*
X134687592Y-157437592D02*
X134687592Y-157349589D01*
X108870000Y-139100000D02*
X108950000Y-139180000D01*
X99350000Y-139100000D02*
X108870000Y-139100000D01*
X166350000Y-117150000D02*
X166350000Y-96620000D01*
X142300043Y-141199957D02*
X166350000Y-117150000D01*
X138749990Y-158650010D02*
X139300001Y-158099999D01*
X140099999Y-157300001D02*
X140099999Y-154499999D01*
X139300001Y-158099999D02*
X139700000Y-157700000D01*
X140099999Y-154499999D02*
X138734333Y-153134333D01*
X142300043Y-141745600D02*
X142300043Y-141199957D01*
X139700000Y-157700000D02*
X140099999Y-157300001D01*
X167170001Y-95799999D02*
X167950000Y-95020000D01*
X138734333Y-153134333D02*
X138734333Y-145311308D01*
X166350000Y-96620000D02*
X167170001Y-95799999D01*
X134687592Y-157349589D02*
X135549479Y-157349589D01*
X136849900Y-158650010D02*
X138749990Y-158650010D01*
X135549479Y-157349589D02*
X136849900Y-158650010D01*
X138734333Y-145311308D02*
X142300043Y-141745600D01*
X169500000Y-111810000D02*
X167950000Y-110260000D01*
X169500000Y-153000000D02*
X169500000Y-111810000D01*
X144549989Y-148900011D02*
X144549989Y-168966612D01*
X144549989Y-168966612D02*
X145925502Y-170342125D01*
X145925502Y-170342125D02*
X146325501Y-170742124D01*
X167950000Y-125500000D02*
X144549989Y-148900011D01*
X150098323Y-172500000D02*
X156500000Y-172500000D01*
X145000000Y-150990000D02*
X145000000Y-168391303D01*
X167950000Y-128040000D02*
X145000000Y-150990000D01*
X149255508Y-172646811D02*
X149951512Y-172646811D01*
X149951512Y-172646811D02*
X150098323Y-172500000D01*
X145000000Y-168391303D02*
X149255508Y-172646811D01*
M02*
