G04 #@! TF.GenerationSoftware,KiCad,Pcbnew,(5.1.5)-3*
G04 #@! TF.CreationDate,2020-04-04T16:36:25+02:00*
G04 #@! TF.ProjectId,Control_board,436f6e74-726f-46c5-9f62-6f6172642e6b,rev?*
G04 #@! TF.SameCoordinates,Original*
G04 #@! TF.FileFunction,Legend,Top*
G04 #@! TF.FilePolarity,Positive*
%FSLAX46Y46*%
G04 Gerber Fmt 4.6, Leading zero omitted, Abs format (unit mm)*
G04 Created by KiCad (PCBNEW (5.1.5)-3) date 2020-04-04 16:36:25*
%MOMM*%
%LPD*%
G04 APERTURE LIST*
%ADD10C,0.300000*%
%ADD11C,0.150000*%
%ADD12C,0.100000*%
%ADD13C,0.500000*%
%ADD14C,0.120000*%
%ADD15C,0.200000*%
%ADD16C,0.254000*%
%ADD17C,0.127000*%
%ADD18C,0.400000*%
%ADD19C,0.050000*%
G04 APERTURE END LIST*
D10*
X85685714Y-181207142D02*
X85857142Y-181278571D01*
X86142857Y-181278571D01*
X86257142Y-181207142D01*
X86314285Y-181135714D01*
X86371428Y-180992857D01*
X86371428Y-180850000D01*
X86314285Y-180707142D01*
X86257142Y-180635714D01*
X86142857Y-180564285D01*
X85914285Y-180492857D01*
X85800000Y-180421428D01*
X85742857Y-180350000D01*
X85685714Y-180207142D01*
X85685714Y-180064285D01*
X85742857Y-179921428D01*
X85800000Y-179850000D01*
X85914285Y-179778571D01*
X86200000Y-179778571D01*
X86371428Y-179850000D01*
X86885714Y-180278571D02*
X86885714Y-181778571D01*
X86885714Y-180350000D02*
X87000000Y-180278571D01*
X87228571Y-180278571D01*
X87342857Y-180350000D01*
X87400000Y-180421428D01*
X87457142Y-180564285D01*
X87457142Y-180992857D01*
X87400000Y-181135714D01*
X87342857Y-181207142D01*
X87228571Y-181278571D01*
X87000000Y-181278571D01*
X86885714Y-181207142D01*
X88485714Y-181278571D02*
X88485714Y-180492857D01*
X88428571Y-180350000D01*
X88314285Y-180278571D01*
X88085714Y-180278571D01*
X87971428Y-180350000D01*
X88485714Y-181207142D02*
X88371428Y-181278571D01*
X88085714Y-181278571D01*
X87971428Y-181207142D01*
X87914285Y-181064285D01*
X87914285Y-180921428D01*
X87971428Y-180778571D01*
X88085714Y-180707142D01*
X88371428Y-180707142D01*
X88485714Y-180635714D01*
X89057142Y-181278571D02*
X89057142Y-180278571D01*
X89057142Y-180564285D02*
X89114285Y-180421428D01*
X89171428Y-180350000D01*
X89285714Y-180278571D01*
X89400000Y-180278571D01*
X90257142Y-181207142D02*
X90142857Y-181278571D01*
X89914285Y-181278571D01*
X89800000Y-181207142D01*
X89742857Y-181064285D01*
X89742857Y-180492857D01*
X89800000Y-180350000D01*
X89914285Y-180278571D01*
X90142857Y-180278571D01*
X90257142Y-180350000D01*
X90314285Y-180492857D01*
X90314285Y-180635714D01*
X89742857Y-180778571D01*
X165821428Y-180178571D02*
X165107142Y-180178571D01*
X165107142Y-178678571D01*
X166321428Y-179392857D02*
X166821428Y-179392857D01*
X167035714Y-180178571D02*
X166321428Y-180178571D01*
X166321428Y-178678571D01*
X167035714Y-178678571D01*
X167678571Y-180178571D02*
X167678571Y-178678571D01*
X168035714Y-178678571D01*
X168250000Y-178750000D01*
X168392857Y-178892857D01*
X168464285Y-179035714D01*
X168535714Y-179321428D01*
X168535714Y-179535714D01*
X168464285Y-179821428D01*
X168392857Y-179964285D01*
X168250000Y-180107142D01*
X168035714Y-180178571D01*
X167678571Y-180178571D01*
X169035714Y-178678571D02*
X169964285Y-178678571D01*
X169464285Y-179250000D01*
X169678571Y-179250000D01*
X169821428Y-179321428D01*
X169892857Y-179392857D01*
X169964285Y-179535714D01*
X169964285Y-179892857D01*
X169892857Y-180035714D01*
X169821428Y-180107142D01*
X169678571Y-180178571D01*
X169250000Y-180178571D01*
X169107142Y-180107142D01*
X169035714Y-180035714D01*
X148821428Y-180178571D02*
X148107142Y-180178571D01*
X148107142Y-178678571D01*
X149321428Y-179392857D02*
X149821428Y-179392857D01*
X150035714Y-180178571D02*
X149321428Y-180178571D01*
X149321428Y-178678571D01*
X150035714Y-178678571D01*
X150678571Y-180178571D02*
X150678571Y-178678571D01*
X151035714Y-178678571D01*
X151250000Y-178750000D01*
X151392857Y-178892857D01*
X151464285Y-179035714D01*
X151535714Y-179321428D01*
X151535714Y-179535714D01*
X151464285Y-179821428D01*
X151392857Y-179964285D01*
X151250000Y-180107142D01*
X151035714Y-180178571D01*
X150678571Y-180178571D01*
X152107142Y-178821428D02*
X152178571Y-178750000D01*
X152321428Y-178678571D01*
X152678571Y-178678571D01*
X152821428Y-178750000D01*
X152892857Y-178821428D01*
X152964285Y-178964285D01*
X152964285Y-179107142D01*
X152892857Y-179321428D01*
X152035714Y-180178571D01*
X152964285Y-180178571D01*
X118000000Y-179003571D02*
X117314285Y-179003571D01*
X117657142Y-179003571D02*
X117657142Y-177503571D01*
X117542857Y-177717857D01*
X117428571Y-177860714D01*
X117314285Y-177932142D01*
X118457142Y-177646428D02*
X118514285Y-177575000D01*
X118628571Y-177503571D01*
X118914285Y-177503571D01*
X119028571Y-177575000D01*
X119085714Y-177646428D01*
X119142857Y-177789285D01*
X119142857Y-177932142D01*
X119085714Y-178146428D01*
X118400000Y-179003571D01*
X119142857Y-179003571D01*
X119485714Y-177503571D02*
X119885714Y-179003571D01*
X120285714Y-177503571D01*
X121600000Y-179003571D02*
X121600000Y-177503571D01*
X121885714Y-177503571D01*
X122057142Y-177575000D01*
X122171428Y-177717857D01*
X122228571Y-177860714D01*
X122285714Y-178146428D01*
X122285714Y-178360714D01*
X122228571Y-178646428D01*
X122171428Y-178789285D01*
X122057142Y-178932142D01*
X121885714Y-179003571D01*
X121600000Y-179003571D01*
X123485714Y-178860714D02*
X123428571Y-178932142D01*
X123257142Y-179003571D01*
X123142857Y-179003571D01*
X122971428Y-178932142D01*
X122857142Y-178789285D01*
X122800000Y-178646428D01*
X122742857Y-178360714D01*
X122742857Y-178146428D01*
X122800000Y-177860714D01*
X122857142Y-177717857D01*
X122971428Y-177575000D01*
X123142857Y-177503571D01*
X123257142Y-177503571D01*
X123428571Y-177575000D01*
X123485714Y-177646428D01*
X117571428Y-181553571D02*
X117571428Y-180767857D01*
X117514285Y-180625000D01*
X117400000Y-180553571D01*
X117171428Y-180553571D01*
X117057142Y-180625000D01*
X117571428Y-181482142D02*
X117457142Y-181553571D01*
X117171428Y-181553571D01*
X117057142Y-181482142D01*
X117000000Y-181339285D01*
X117000000Y-181196428D01*
X117057142Y-181053571D01*
X117171428Y-180982142D01*
X117457142Y-180982142D01*
X117571428Y-180910714D01*
X118142857Y-181553571D02*
X118142857Y-180553571D01*
X118142857Y-180053571D02*
X118085714Y-180125000D01*
X118142857Y-180196428D01*
X118200000Y-180125000D01*
X118142857Y-180053571D01*
X118142857Y-180196428D01*
X118714285Y-181553571D02*
X118714285Y-180553571D01*
X118714285Y-180839285D02*
X118771428Y-180696428D01*
X118828571Y-180625000D01*
X118942857Y-180553571D01*
X119057142Y-180553571D01*
X119400000Y-181482142D02*
X119514285Y-181553571D01*
X119742857Y-181553571D01*
X119857142Y-181482142D01*
X119914285Y-181339285D01*
X119914285Y-181267857D01*
X119857142Y-181125000D01*
X119742857Y-181053571D01*
X119571428Y-181053571D01*
X119457142Y-180982142D01*
X119400000Y-180839285D01*
X119400000Y-180767857D01*
X119457142Y-180625000D01*
X119571428Y-180553571D01*
X119742857Y-180553571D01*
X119857142Y-180625000D01*
X120257142Y-180553571D02*
X120714285Y-180553571D01*
X120428571Y-180053571D02*
X120428571Y-181339285D01*
X120485714Y-181482142D01*
X120600000Y-181553571D01*
X120714285Y-181553571D01*
X121285714Y-181553571D02*
X121171428Y-181482142D01*
X121114285Y-181410714D01*
X121057142Y-181267857D01*
X121057142Y-180839285D01*
X121114285Y-180696428D01*
X121171428Y-180625000D01*
X121285714Y-180553571D01*
X121457142Y-180553571D01*
X121571428Y-180625000D01*
X121628571Y-180696428D01*
X121685714Y-180839285D01*
X121685714Y-181267857D01*
X121628571Y-181410714D01*
X121571428Y-181482142D01*
X121457142Y-181553571D01*
X121285714Y-181553571D01*
X122200000Y-180553571D02*
X122200000Y-181553571D01*
X122200000Y-180696428D02*
X122257142Y-180625000D01*
X122371428Y-180553571D01*
X122542857Y-180553571D01*
X122657142Y-180625000D01*
X122714285Y-180767857D01*
X122714285Y-181553571D01*
X123742857Y-181482142D02*
X123628571Y-181553571D01*
X123400000Y-181553571D01*
X123285714Y-181482142D01*
X123228571Y-181339285D01*
X123228571Y-180767857D01*
X123285714Y-180625000D01*
X123400000Y-180553571D01*
X123628571Y-180553571D01*
X123742857Y-180625000D01*
X123800000Y-180767857D01*
X123800000Y-180910714D01*
X123228571Y-181053571D01*
D11*
X87547619Y-86309523D02*
X87500000Y-86261904D01*
X87452380Y-86166666D01*
X87452380Y-85928571D01*
X87500000Y-85833333D01*
X87547619Y-85785714D01*
X87642857Y-85738095D01*
X87738095Y-85738095D01*
X87880952Y-85785714D01*
X88452380Y-86357142D01*
X88452380Y-85738095D01*
X87785714Y-84880952D02*
X88452380Y-84880952D01*
X87404761Y-85119047D02*
X88119047Y-85357142D01*
X88119047Y-84738095D01*
X87452380Y-84500000D02*
X88452380Y-84166666D01*
X87452380Y-83833333D01*
X88071428Y-83500000D02*
X88071428Y-82738095D01*
X88452380Y-83119047D02*
X87690476Y-83119047D01*
X111452380Y-86638095D02*
X111452380Y-87209523D01*
X111452380Y-86923809D02*
X110452380Y-86923809D01*
X110595238Y-87019047D01*
X110690476Y-87114285D01*
X110738095Y-87209523D01*
X110547619Y-86257142D02*
X110500000Y-86209523D01*
X110452380Y-86114285D01*
X110452380Y-85876190D01*
X110500000Y-85780952D01*
X110547619Y-85733333D01*
X110642857Y-85685714D01*
X110738095Y-85685714D01*
X110880952Y-85733333D01*
X111452380Y-86304761D01*
X111452380Y-85685714D01*
X110452380Y-85400000D02*
X111452380Y-85066666D01*
X110452380Y-84733333D01*
X111071428Y-84400000D02*
X111071428Y-83638095D01*
X111452380Y-84019047D02*
X110690476Y-84019047D01*
D10*
X78738095Y-95642857D02*
X80261904Y-95642857D01*
X78738095Y-102142857D02*
X80261904Y-102142857D01*
X79500000Y-102904761D02*
X79500000Y-101380952D01*
X82571428Y-90571428D02*
X82571428Y-91904761D01*
X82095238Y-89809523D02*
X81619047Y-91238095D01*
X82857142Y-91238095D01*
X83904761Y-90761904D02*
X83714285Y-90666666D01*
X83619047Y-90571428D01*
X83523809Y-90380952D01*
X83523809Y-90285714D01*
X83619047Y-90095238D01*
X83714285Y-90000000D01*
X83904761Y-89904761D01*
X84285714Y-89904761D01*
X84476190Y-90000000D01*
X84571428Y-90095238D01*
X84666666Y-90285714D01*
X84666666Y-90380952D01*
X84571428Y-90571428D01*
X84476190Y-90666666D01*
X84285714Y-90761904D01*
X83904761Y-90761904D01*
X83714285Y-90857142D01*
X83619047Y-90952380D01*
X83523809Y-91142857D01*
X83523809Y-91523809D01*
X83619047Y-91714285D01*
X83714285Y-91809523D01*
X83904761Y-91904761D01*
X84285714Y-91904761D01*
X84476190Y-91809523D01*
X84571428Y-91714285D01*
X84666666Y-91523809D01*
X84666666Y-91142857D01*
X84571428Y-90952380D01*
X84476190Y-90857142D01*
X84285714Y-90761904D01*
X85238095Y-89904761D02*
X85904761Y-91904761D01*
X86571428Y-89904761D01*
X129821428Y-180178571D02*
X129107142Y-180178571D01*
X129107142Y-178678571D01*
X130321428Y-179392857D02*
X130821428Y-179392857D01*
X131035714Y-180178571D02*
X130321428Y-180178571D01*
X130321428Y-178678571D01*
X131035714Y-178678571D01*
X131678571Y-180178571D02*
X131678571Y-178678571D01*
X132035714Y-178678571D01*
X132250000Y-178750000D01*
X132392857Y-178892857D01*
X132464285Y-179035714D01*
X132535714Y-179321428D01*
X132535714Y-179535714D01*
X132464285Y-179821428D01*
X132392857Y-179964285D01*
X132250000Y-180107142D01*
X132035714Y-180178571D01*
X131678571Y-180178571D01*
X133964285Y-180178571D02*
X133107142Y-180178571D01*
X133535714Y-180178571D02*
X133535714Y-178678571D01*
X133392857Y-178892857D01*
X133250000Y-179035714D01*
X133107142Y-179107142D01*
X98942857Y-181278571D02*
X98257142Y-181278571D01*
X98600000Y-181278571D02*
X98600000Y-179778571D01*
X98485714Y-179992857D01*
X98371428Y-180135714D01*
X98257142Y-180207142D01*
X99457142Y-180707142D02*
X100371428Y-180707142D01*
X100828571Y-179778571D02*
X101114285Y-181278571D01*
X101342857Y-180207142D01*
X101571428Y-181278571D01*
X101857142Y-179778571D01*
X102314285Y-181278571D02*
X102314285Y-180278571D01*
X102314285Y-179778571D02*
X102257142Y-179850000D01*
X102314285Y-179921428D01*
X102371428Y-179850000D01*
X102314285Y-179778571D01*
X102314285Y-179921428D01*
X102885714Y-181278571D02*
X102885714Y-180278571D01*
X102885714Y-180564285D02*
X102942857Y-180421428D01*
X103000000Y-180350000D01*
X103114285Y-180278571D01*
X103228571Y-180278571D01*
X104085714Y-181207142D02*
X103971428Y-181278571D01*
X103742857Y-181278571D01*
X103628571Y-181207142D01*
X103571428Y-181064285D01*
X103571428Y-180492857D01*
X103628571Y-180350000D01*
X103742857Y-180278571D01*
X103971428Y-180278571D01*
X104085714Y-180350000D01*
X104142857Y-180492857D01*
X104142857Y-180635714D01*
X103571428Y-180778571D01*
X109200000Y-179003571D02*
X108514285Y-179003571D01*
X108857142Y-179003571D02*
X108857142Y-177503571D01*
X108742857Y-177717857D01*
X108628571Y-177860714D01*
X108514285Y-177932142D01*
X109657142Y-177646428D02*
X109714285Y-177575000D01*
X109828571Y-177503571D01*
X110114285Y-177503571D01*
X110228571Y-177575000D01*
X110285714Y-177646428D01*
X110342857Y-177789285D01*
X110342857Y-177932142D01*
X110285714Y-178146428D01*
X109600000Y-179003571D01*
X110342857Y-179003571D01*
X110685714Y-177503571D02*
X111085714Y-179003571D01*
X111485714Y-177503571D01*
X112800000Y-179003571D02*
X112800000Y-177503571D01*
X113085714Y-177503571D01*
X113257142Y-177575000D01*
X113371428Y-177717857D01*
X113428571Y-177860714D01*
X113485714Y-178146428D01*
X113485714Y-178360714D01*
X113428571Y-178646428D01*
X113371428Y-178789285D01*
X113257142Y-178932142D01*
X113085714Y-179003571D01*
X112800000Y-179003571D01*
X114685714Y-178860714D02*
X114628571Y-178932142D01*
X114457142Y-179003571D01*
X114342857Y-179003571D01*
X114171428Y-178932142D01*
X114057142Y-178789285D01*
X114000000Y-178646428D01*
X113942857Y-178360714D01*
X113942857Y-178146428D01*
X114000000Y-177860714D01*
X114057142Y-177717857D01*
X114171428Y-177575000D01*
X114342857Y-177503571D01*
X114457142Y-177503571D01*
X114628571Y-177575000D01*
X114685714Y-177646428D01*
X109457142Y-180553571D02*
X109457142Y-182053571D01*
X109457142Y-180625000D02*
X109571428Y-180553571D01*
X109800000Y-180553571D01*
X109914285Y-180625000D01*
X109971428Y-180696428D01*
X110028571Y-180839285D01*
X110028571Y-181267857D01*
X109971428Y-181410714D01*
X109914285Y-181482142D01*
X109800000Y-181553571D01*
X109571428Y-181553571D01*
X109457142Y-181482142D01*
X111057142Y-180553571D02*
X111057142Y-181553571D01*
X110542857Y-180553571D02*
X110542857Y-181339285D01*
X110600000Y-181482142D01*
X110714285Y-181553571D01*
X110885714Y-181553571D01*
X111000000Y-181482142D01*
X111057142Y-181410714D01*
X111628571Y-181553571D02*
X111628571Y-180553571D01*
X111628571Y-180696428D02*
X111685714Y-180625000D01*
X111800000Y-180553571D01*
X111971428Y-180553571D01*
X112085714Y-180625000D01*
X112142857Y-180767857D01*
X112142857Y-181553571D01*
X112142857Y-180767857D02*
X112200000Y-180625000D01*
X112314285Y-180553571D01*
X112485714Y-180553571D01*
X112600000Y-180625000D01*
X112657142Y-180767857D01*
X112657142Y-181553571D01*
X113228571Y-180553571D02*
X113228571Y-182053571D01*
X113228571Y-180625000D02*
X113342857Y-180553571D01*
X113571428Y-180553571D01*
X113685714Y-180625000D01*
X113742857Y-180696428D01*
X113800000Y-180839285D01*
X113800000Y-181267857D01*
X113742857Y-181410714D01*
X113685714Y-181482142D01*
X113571428Y-181553571D01*
X113342857Y-181553571D01*
X113228571Y-181482142D01*
D12*
X161050000Y-163800000D02*
X173750000Y-163800000D01*
X173750000Y-163800000D02*
X173750000Y-176700000D01*
X173750000Y-176700000D02*
X161050000Y-176700000D01*
X161050000Y-176700000D02*
X161050000Y-163800000D01*
D13*
X174400000Y-167800000D02*
X174400000Y-167800000D01*
X174400000Y-167700000D02*
X174400000Y-167700000D01*
X174400000Y-167700000D02*
G75*
G02X174400000Y-167800000I0J-50000D01*
G01*
X174400000Y-167800000D02*
G75*
G02X174400000Y-167700000I0J50000D01*
G01*
D14*
X150162779Y-162110000D02*
X149837221Y-162110000D01*
X150162779Y-161090000D02*
X149837221Y-161090000D01*
X138460000Y-108299721D02*
X138460000Y-108625279D01*
X137440000Y-108299721D02*
X137440000Y-108625279D01*
X102110000Y-161279721D02*
X102110000Y-161605279D01*
X101090000Y-161279721D02*
X101090000Y-161605279D01*
X112720000Y-135090000D02*
X112720000Y-84050000D01*
X123660000Y-135090000D02*
X112720000Y-135090000D01*
X123660000Y-84050000D02*
X123660000Y-135090000D01*
X112720000Y-84050000D02*
X123660000Y-84050000D01*
X114840000Y-83670000D02*
X118840000Y-83670000D01*
X98625279Y-150240000D02*
X98299721Y-150240000D01*
X98625279Y-151260000D02*
X98299721Y-151260000D01*
D15*
X99900000Y-153500000D02*
X100100000Y-153500000D01*
X100100000Y-153500000D02*
X100100000Y-155500000D01*
X100100000Y-155500000D02*
X99900000Y-155500000D01*
X99900000Y-155500000D02*
X99900000Y-153500000D01*
X98550000Y-153375000D02*
X99550000Y-153375000D01*
D14*
X137799721Y-142240000D02*
X138125279Y-142240000D01*
X137799721Y-143260000D02*
X138125279Y-143260000D01*
D16*
X138100000Y-136000000D02*
G75*
G03X138100000Y-136000000I-6100000J0D01*
G01*
X125189090Y-136228000D02*
G75*
G03X125189090Y-136228000I-50090J0D01*
G01*
D17*
X141300000Y-136950000D02*
X141300000Y-82550000D01*
X141300000Y-82550000D02*
X169200000Y-82550000D01*
X169200000Y-82550000D02*
X169200000Y-136950000D01*
X169200000Y-136950000D02*
X141300000Y-136950000D01*
D14*
X171650279Y-93290000D02*
X171324721Y-93290000D01*
X171650279Y-94310000D02*
X171324721Y-94310000D01*
X118727500Y-158885000D02*
X121012500Y-158885000D01*
X118727500Y-157415000D02*
X118727500Y-158885000D01*
X121012500Y-157415000D02*
X118727500Y-157415000D01*
X173490000Y-128049721D02*
X173490000Y-128375279D01*
X174510000Y-128049721D02*
X174510000Y-128375279D01*
X139490000Y-136950279D02*
X139490000Y-136624721D01*
X140510000Y-136950279D02*
X140510000Y-136624721D01*
X112912500Y-157415000D02*
X110627500Y-157415000D01*
X110627500Y-157415000D02*
X110627500Y-158885000D01*
X110627500Y-158885000D02*
X112912500Y-158885000D01*
D15*
X110075000Y-146100000D02*
X113925000Y-146100000D01*
X113925000Y-146100000D02*
X113925000Y-152600000D01*
X113925000Y-152600000D02*
X110075000Y-152600000D01*
X110075000Y-152600000D02*
X110075000Y-146100000D01*
X107975000Y-146225000D02*
X109725000Y-146225000D01*
X119675000Y-146125000D02*
X121425000Y-146125000D01*
X121775000Y-152500000D02*
X121775000Y-146000000D01*
X125625000Y-152500000D02*
X121775000Y-152500000D01*
X125625000Y-146000000D02*
X125625000Y-152500000D01*
X121775000Y-146000000D02*
X125625000Y-146000000D01*
D14*
X120049721Y-155340000D02*
X120375279Y-155340000D01*
X120049721Y-156360000D02*
X120375279Y-156360000D01*
X111937221Y-156360000D02*
X112262779Y-156360000D01*
X111937221Y-155340000D02*
X112262779Y-155340000D01*
X103237221Y-120310000D02*
X103562779Y-120310000D01*
X103237221Y-119290000D02*
X103562779Y-119290000D01*
X101199721Y-111240000D02*
X101525279Y-111240000D01*
X101199721Y-112260000D02*
X101525279Y-112260000D01*
X107850000Y-97100000D02*
X107350000Y-97600000D01*
X107850000Y-98100000D02*
X107850000Y-97100000D01*
X107350000Y-97600000D02*
X107850000Y-98100000D01*
X107165000Y-83520000D02*
X91645000Y-83520000D01*
X91645000Y-101480000D02*
X91645000Y-83520000D01*
X91645000Y-101480000D02*
X107165000Y-101480000D01*
X107165000Y-101480000D02*
X107165000Y-83520000D01*
X90387221Y-105290000D02*
X90712779Y-105290000D01*
X90387221Y-106310000D02*
X90712779Y-106310000D01*
X93587221Y-105290000D02*
X93912779Y-105290000D01*
X93587221Y-106310000D02*
X93912779Y-106310000D01*
X96774721Y-106310000D02*
X97100279Y-106310000D01*
X96774721Y-105290000D02*
X97100279Y-105290000D01*
X108200279Y-105290000D02*
X107874721Y-105290000D01*
X108200279Y-106310000D02*
X107874721Y-106310000D01*
X104900279Y-106310000D02*
X104574721Y-106310000D01*
X104900279Y-105290000D02*
X104574721Y-105290000D01*
X101600279Y-105290000D02*
X101274721Y-105290000D01*
X101600279Y-106310000D02*
X101274721Y-106310000D01*
D11*
X102025000Y-117225000D02*
X102200000Y-117225000D01*
X102025000Y-113975000D02*
X102300000Y-113975000D01*
X105275000Y-113975000D02*
X105000000Y-113975000D01*
X105275000Y-117225000D02*
X105000000Y-117225000D01*
X102025000Y-117225000D02*
X102025000Y-113975000D01*
X105275000Y-117225000D02*
X105275000Y-113975000D01*
X102200000Y-117225000D02*
X102200000Y-118300000D01*
D14*
X98020000Y-140430000D02*
X100680000Y-140430000D01*
X98020000Y-132750000D02*
X98020000Y-140430000D01*
X100680000Y-132750000D02*
X100680000Y-140430000D01*
X98020000Y-132750000D02*
X100680000Y-132750000D01*
X98020000Y-131480000D02*
X98020000Y-130150000D01*
X98020000Y-130150000D02*
X99350000Y-130150000D01*
X107620000Y-130230000D02*
X108950000Y-130230000D01*
X107620000Y-131560000D02*
X107620000Y-130230000D01*
X107620000Y-132830000D02*
X110280000Y-132830000D01*
X110280000Y-132830000D02*
X110280000Y-140510000D01*
X107620000Y-132830000D02*
X107620000Y-140510000D01*
X107620000Y-140510000D02*
X110280000Y-140510000D01*
X171600279Y-92710000D02*
X171274721Y-92710000D01*
X171600279Y-91690000D02*
X171274721Y-91690000D01*
X138460000Y-104512779D02*
X138460000Y-104187221D01*
X137440000Y-104512779D02*
X137440000Y-104187221D01*
X171390000Y-106662779D02*
X171390000Y-106337221D01*
X172410000Y-106662779D02*
X172410000Y-106337221D01*
X143135000Y-145587500D02*
X143135000Y-143302500D01*
X143135000Y-143302500D02*
X141665000Y-143302500D01*
X141665000Y-143302500D02*
X141665000Y-145587500D01*
X141110000Y-144624721D02*
X141110000Y-144950279D01*
X140090000Y-144624721D02*
X140090000Y-144950279D01*
X173490000Y-124375279D02*
X173490000Y-124049721D01*
X174510000Y-124375279D02*
X174510000Y-124049721D01*
D15*
X108675000Y-169680000D02*
X115325000Y-169680000D01*
X115325000Y-169680000D02*
X115325000Y-159680000D01*
X115325000Y-159680000D02*
X108675000Y-159680000D01*
X108675000Y-159680000D02*
X108675000Y-169680000D01*
D16*
X118142360Y-168129000D02*
G75*
G03X118142360Y-168129000I-274360J0D01*
G01*
X126142360Y-168129000D02*
G75*
G03X126142360Y-168129000I-274360J0D01*
G01*
D15*
X116675000Y-159680000D02*
X116675000Y-169680000D01*
X123325000Y-159680000D02*
X116675000Y-159680000D01*
X123325000Y-169680000D02*
X123325000Y-159680000D01*
X116675000Y-169680000D02*
X123325000Y-169680000D01*
D14*
X171435000Y-119940000D02*
X172060000Y-119940000D01*
X172060000Y-119940000D02*
X172060000Y-121060000D01*
X172060000Y-121060000D02*
X171435000Y-121060000D01*
X172060000Y-120290000D02*
X174060000Y-120290000D01*
X174060000Y-120290000D02*
X174060000Y-120710000D01*
X174060000Y-120710000D02*
X172060000Y-120710000D01*
X172060000Y-120350000D02*
X174060000Y-120350000D01*
X172060000Y-120470000D02*
X174060000Y-120470000D01*
X172060000Y-120590000D02*
X174060000Y-120590000D01*
X170065000Y-120500000D02*
X170065000Y-119815000D01*
X170065000Y-119815000D02*
X170750000Y-119815000D01*
X137360000Y-126980000D02*
X137360000Y-126050000D01*
X137360000Y-123820000D02*
X137360000Y-124750000D01*
X137360000Y-123820000D02*
X135200000Y-123820000D01*
X137360000Y-126980000D02*
X135900000Y-126980000D01*
X136950279Y-122110000D02*
X136624721Y-122110000D01*
X136950279Y-121090000D02*
X136624721Y-121090000D01*
X132150279Y-162110000D02*
X131824721Y-162110000D01*
X132150279Y-161090000D02*
X131824721Y-161090000D01*
X167350279Y-161090000D02*
X167024721Y-161090000D01*
X167350279Y-162110000D02*
X167024721Y-162110000D01*
X171510000Y-124375279D02*
X171510000Y-124049721D01*
X170490000Y-124375279D02*
X170490000Y-124049721D01*
D15*
X132400001Y-144075001D02*
X135600001Y-144075001D01*
X135600001Y-144075001D02*
X135600001Y-148975001D01*
X135600001Y-148975001D02*
X132400001Y-148975001D01*
X132400001Y-148975001D02*
X132400001Y-144075001D01*
X130525001Y-143945001D02*
X132050001Y-143945001D01*
D14*
X98010000Y-161830000D02*
X98010000Y-160900000D01*
X98010000Y-158670000D02*
X98010000Y-159600000D01*
X98010000Y-158670000D02*
X95850000Y-158670000D01*
X98010000Y-161830000D02*
X96550000Y-161830000D01*
X96760000Y-154337221D02*
X96760000Y-154662779D01*
X95740000Y-154337221D02*
X95740000Y-154662779D01*
X102240000Y-154299721D02*
X102240000Y-154625279D01*
X103260000Y-154299721D02*
X103260000Y-154625279D01*
X134424721Y-155290000D02*
X134750279Y-155290000D01*
X134424721Y-156310000D02*
X134750279Y-156310000D01*
X149649721Y-156110000D02*
X149975279Y-156110000D01*
X149649721Y-155090000D02*
X149975279Y-155090000D01*
X165837221Y-154290000D02*
X166162779Y-154290000D01*
X165837221Y-155310000D02*
X166162779Y-155310000D01*
X162840000Y-157070000D02*
X162840000Y-158000000D01*
X162840000Y-160230000D02*
X162840000Y-159300000D01*
X162840000Y-160230000D02*
X165000000Y-160230000D01*
X162840000Y-157070000D02*
X164300000Y-157070000D01*
X146840000Y-157020000D02*
X148300000Y-157020000D01*
X146840000Y-160180000D02*
X149000000Y-160180000D01*
X146840000Y-160180000D02*
X146840000Y-159250000D01*
X146840000Y-157020000D02*
X146840000Y-157950000D01*
X135440000Y-157020000D02*
X135440000Y-157950000D01*
X135440000Y-160180000D02*
X135440000Y-159250000D01*
X135440000Y-160180000D02*
X137600000Y-160180000D01*
X135440000Y-157020000D02*
X136900000Y-157020000D01*
X150640000Y-157020000D02*
X152100000Y-157020000D01*
X150640000Y-160180000D02*
X152800000Y-160180000D01*
X150640000Y-160180000D02*
X150640000Y-159250000D01*
X150640000Y-157020000D02*
X150640000Y-157950000D01*
X166640000Y-157020000D02*
X166640000Y-157950000D01*
X166640000Y-160180000D02*
X166640000Y-159250000D01*
X166640000Y-160180000D02*
X168800000Y-160180000D01*
X166640000Y-157020000D02*
X168100000Y-157020000D01*
X131040000Y-157020000D02*
X132500000Y-157020000D01*
X131040000Y-160180000D02*
X133200000Y-160180000D01*
X131040000Y-160180000D02*
X131040000Y-159250000D01*
X131040000Y-157020000D02*
X131040000Y-157950000D01*
X85360000Y-119040000D02*
X87360000Y-119040000D01*
X87360000Y-119040000D02*
X87360000Y-115190000D01*
X85360000Y-119040000D02*
X85360000Y-115190000D01*
X95890000Y-117710000D02*
X95890000Y-116450000D01*
X95890000Y-110890000D02*
X95890000Y-112150000D01*
X92130000Y-117710000D02*
X95890000Y-117710000D01*
X89880000Y-110890000D02*
X95890000Y-110890000D01*
X159849721Y-159910000D02*
X160175279Y-159910000D01*
X159849721Y-158890000D02*
X160175279Y-158890000D01*
X145110000Y-160649721D02*
X145110000Y-160975279D01*
X144090000Y-160649721D02*
X144090000Y-160975279D01*
X174310000Y-92837221D02*
X174310000Y-93162779D01*
X173290000Y-92837221D02*
X173290000Y-93162779D01*
X175049721Y-143110000D02*
X175375279Y-143110000D01*
X175049721Y-142090000D02*
X175375279Y-142090000D01*
X128910000Y-160950279D02*
X128910000Y-160624721D01*
X127890000Y-160950279D02*
X127890000Y-160624721D01*
X86870000Y-111749721D02*
X86870000Y-112075279D01*
X85850000Y-111749721D02*
X85850000Y-112075279D01*
D12*
X170257000Y-102198000D02*
X170257000Y-96002000D01*
X176453000Y-102198000D02*
X176453000Y-96002000D01*
D18*
X173355000Y-103100000D02*
X173355000Y-103100000D01*
X173355000Y-103200000D02*
X173355000Y-103200000D01*
X173355000Y-103200000D02*
G75*
G02X173355000Y-103100000I0J50000D01*
G01*
X173355000Y-103100000D02*
G75*
G02X173355000Y-103200000I0J-50000D01*
G01*
X173990000Y-139930000D02*
G75*
G02X173990000Y-140030000I0J-50000D01*
G01*
X173990000Y-140030000D02*
G75*
G02X173990000Y-139930000I0J50000D01*
G01*
X173990000Y-140030000D02*
X173990000Y-140030000D01*
X173990000Y-139930000D02*
X173990000Y-139930000D01*
D12*
X177088000Y-139028000D02*
X177088000Y-132832000D01*
X170892000Y-139028000D02*
X170892000Y-132832000D01*
D14*
X130770000Y-113250000D02*
X132270000Y-113250000D01*
X132270000Y-113250000D02*
X132270000Y-112980000D01*
X132270000Y-112980000D02*
X135100000Y-112980000D01*
X130770000Y-106350000D02*
X132270000Y-106350000D01*
X132270000Y-106350000D02*
X132270000Y-106620000D01*
X132270000Y-106620000D02*
X133370000Y-106620000D01*
D15*
X87125000Y-120140000D02*
X87275000Y-120140000D01*
X87275000Y-120140000D02*
X87275000Y-123060000D01*
X87275000Y-123060000D02*
X87125000Y-123060000D01*
X87125000Y-123060000D02*
X87125000Y-120140000D01*
X85525000Y-120100000D02*
X86775000Y-120100000D01*
D14*
X103910000Y-161237221D02*
X103910000Y-161562779D01*
X102890000Y-161237221D02*
X102890000Y-161562779D01*
X93490000Y-161449721D02*
X93490000Y-161775279D01*
X94510000Y-161449721D02*
X94510000Y-161775279D01*
X81550000Y-126150000D02*
X81550000Y-121529000D01*
X81550000Y-119771000D02*
X81550000Y-104950000D01*
X84750000Y-126150000D02*
X84750000Y-111328000D01*
X84750000Y-109571000D02*
X84750000Y-104950000D01*
X81550000Y-126150000D02*
X84750000Y-126150000D01*
X81550000Y-104950000D02*
X84750000Y-104950000D01*
D15*
X87450001Y-100729999D02*
X87450001Y-93229999D01*
X87450001Y-93229999D02*
X79650001Y-93229999D01*
X79650001Y-93229999D02*
X79650001Y-103229999D01*
X79650001Y-103229999D02*
X83450001Y-103229999D01*
D14*
X104690000Y-161575279D02*
X104690000Y-161249721D01*
X105710000Y-161575279D02*
X105710000Y-161249721D01*
X173185000Y-130287500D02*
X173185000Y-126227500D01*
X173185000Y-126227500D02*
X170015000Y-126227500D01*
X170015000Y-126227500D02*
X170015000Y-130287500D01*
D12*
X95838000Y-167050000D02*
X105488000Y-167050000D01*
X105488000Y-167050000D02*
X105488000Y-176960000D01*
X105488000Y-176960000D02*
X95838000Y-176960000D01*
X95838000Y-176960000D02*
X95838000Y-167050000D01*
D15*
X106063000Y-168160000D02*
X106063000Y-168160000D01*
X106063000Y-167960000D02*
X106063000Y-167960000D01*
X106062000Y-167960000D02*
G75*
G03X106063000Y-168160000I500J-100000D01*
G01*
X106062000Y-168160000D02*
G75*
G03X106063000Y-167960000I500J100000D01*
G01*
D12*
X125650000Y-163500000D02*
X138350000Y-163500000D01*
X138350000Y-163500000D02*
X138350000Y-176400000D01*
X138350000Y-176400000D02*
X125650000Y-176400000D01*
X125650000Y-176400000D02*
X125650000Y-163500000D01*
D13*
X139000000Y-167500000D02*
X139000000Y-167500000D01*
X139000000Y-167400000D02*
X139000000Y-167400000D01*
X139000000Y-167400000D02*
G75*
G02X139000000Y-167500000I0J-50000D01*
G01*
X139000000Y-167500000D02*
G75*
G02X139000000Y-167400000I0J50000D01*
G01*
D12*
X143650000Y-163500000D02*
X156350000Y-163500000D01*
X156350000Y-163500000D02*
X156350000Y-176400000D01*
X156350000Y-176400000D02*
X143650000Y-176400000D01*
X143650000Y-176400000D02*
X143650000Y-163500000D01*
D13*
X157000000Y-167500000D02*
X157000000Y-167500000D01*
X157000000Y-167400000D02*
X157000000Y-167400000D01*
X157000000Y-167400000D02*
G75*
G02X157000000Y-167500000I0J-50000D01*
G01*
X157000000Y-167500000D02*
G75*
G02X157000000Y-167400000I0J50000D01*
G01*
D12*
X82838000Y-167050000D02*
X92488000Y-167050000D01*
X92488000Y-167050000D02*
X92488000Y-176960000D01*
X92488000Y-176960000D02*
X82838000Y-176960000D01*
X82838000Y-176960000D02*
X82838000Y-167050000D01*
D15*
X93063000Y-168160000D02*
X93063000Y-168160000D01*
X93063000Y-167960000D02*
X93063000Y-167960000D01*
X93062000Y-167960000D02*
G75*
G03X93063000Y-168160000I500J-100000D01*
G01*
X93062000Y-168160000D02*
G75*
G03X93063000Y-167960000I500J100000D01*
G01*
D14*
X147330000Y-91300000D02*
X147330000Y-91960000D01*
X147330000Y-89640000D02*
X147330000Y-90300000D01*
X147330000Y-89640000D02*
X145300000Y-89640000D01*
X145920000Y-91960000D02*
X147330000Y-91960000D01*
X100510000Y-161249721D02*
X100510000Y-161575279D01*
X99490000Y-161249721D02*
X99490000Y-161575279D01*
D16*
X163376666Y-172104523D02*
X163376666Y-173011666D01*
X163316190Y-173193095D01*
X163195238Y-173314047D01*
X163013809Y-173374523D01*
X162892857Y-173374523D01*
X163860476Y-172104523D02*
X164707142Y-172104523D01*
X164162857Y-173374523D01*
D11*
X152357142Y-162052380D02*
X152023809Y-161576190D01*
X151785714Y-162052380D02*
X151785714Y-161052380D01*
X152166666Y-161052380D01*
X152261904Y-161100000D01*
X152309523Y-161147619D01*
X152357142Y-161242857D01*
X152357142Y-161385714D01*
X152309523Y-161480952D01*
X152261904Y-161528571D01*
X152166666Y-161576190D01*
X151785714Y-161576190D01*
X153309523Y-162052380D02*
X152738095Y-162052380D01*
X153023809Y-162052380D02*
X153023809Y-161052380D01*
X152928571Y-161195238D01*
X152833333Y-161290476D01*
X152738095Y-161338095D01*
X154166666Y-161385714D02*
X154166666Y-162052380D01*
X153928571Y-161004761D02*
X153690476Y-161719047D01*
X154309523Y-161719047D01*
X139832380Y-109105357D02*
X139356190Y-109438690D01*
X139832380Y-109676785D02*
X138832380Y-109676785D01*
X138832380Y-109295833D01*
X138880000Y-109200595D01*
X138927619Y-109152976D01*
X139022857Y-109105357D01*
X139165714Y-109105357D01*
X139260952Y-109152976D01*
X139308571Y-109200595D01*
X139356190Y-109295833D01*
X139356190Y-109676785D01*
X139832380Y-108152976D02*
X139832380Y-108724404D01*
X139832380Y-108438690D02*
X138832380Y-108438690D01*
X138975238Y-108533928D01*
X139070476Y-108629166D01*
X139118095Y-108724404D01*
X138832380Y-107248214D02*
X138832380Y-107724404D01*
X139308571Y-107772023D01*
X139260952Y-107724404D01*
X139213333Y-107629166D01*
X139213333Y-107391071D01*
X139260952Y-107295833D01*
X139308571Y-107248214D01*
X139403809Y-107200595D01*
X139641904Y-107200595D01*
X139737142Y-107248214D01*
X139784761Y-107295833D01*
X139832380Y-107391071D01*
X139832380Y-107629166D01*
X139784761Y-107724404D01*
X139737142Y-107772023D01*
X102052380Y-159042857D02*
X101576190Y-159376190D01*
X102052380Y-159614285D02*
X101052380Y-159614285D01*
X101052380Y-159233333D01*
X101100000Y-159138095D01*
X101147619Y-159090476D01*
X101242857Y-159042857D01*
X101385714Y-159042857D01*
X101480952Y-159090476D01*
X101528571Y-159138095D01*
X101576190Y-159233333D01*
X101576190Y-159614285D01*
X101052380Y-158709523D02*
X101052380Y-158090476D01*
X101433333Y-158423809D01*
X101433333Y-158280952D01*
X101480952Y-158185714D01*
X101528571Y-158138095D01*
X101623809Y-158090476D01*
X101861904Y-158090476D01*
X101957142Y-158138095D01*
X102004761Y-158185714D01*
X102052380Y-158280952D01*
X102052380Y-158566666D01*
X102004761Y-158661904D01*
X101957142Y-158709523D01*
X101385714Y-157233333D02*
X102052380Y-157233333D01*
X101004761Y-157471428D02*
X101719047Y-157709523D01*
X101719047Y-157090476D01*
X113038095Y-85252380D02*
X113038095Y-86061904D01*
X113085714Y-86157142D01*
X113133333Y-86204761D01*
X113228571Y-86252380D01*
X113419047Y-86252380D01*
X113514285Y-86204761D01*
X113561904Y-86157142D01*
X113609523Y-86061904D01*
X113609523Y-85252380D01*
X113990476Y-85252380D02*
X114609523Y-85252380D01*
X114276190Y-85633333D01*
X114419047Y-85633333D01*
X114514285Y-85680952D01*
X114561904Y-85728571D01*
X114609523Y-85823809D01*
X114609523Y-86061904D01*
X114561904Y-86157142D01*
X114514285Y-86204761D01*
X114419047Y-86252380D01*
X114133333Y-86252380D01*
X114038095Y-86204761D01*
X113990476Y-86157142D01*
X94557142Y-151252380D02*
X94223809Y-150776190D01*
X93985714Y-151252380D02*
X93985714Y-150252380D01*
X94366666Y-150252380D01*
X94461904Y-150300000D01*
X94509523Y-150347619D01*
X94557142Y-150442857D01*
X94557142Y-150585714D01*
X94509523Y-150680952D01*
X94461904Y-150728571D01*
X94366666Y-150776190D01*
X93985714Y-150776190D01*
X94938095Y-150347619D02*
X94985714Y-150300000D01*
X95080952Y-150252380D01*
X95319047Y-150252380D01*
X95414285Y-150300000D01*
X95461904Y-150347619D01*
X95509523Y-150442857D01*
X95509523Y-150538095D01*
X95461904Y-150680952D01*
X94890476Y-151252380D01*
X95509523Y-151252380D01*
X95890476Y-150347619D02*
X95938095Y-150300000D01*
X96033333Y-150252380D01*
X96271428Y-150252380D01*
X96366666Y-150300000D01*
X96414285Y-150347619D01*
X96461904Y-150442857D01*
X96461904Y-150538095D01*
X96414285Y-150680952D01*
X95842857Y-151252380D01*
X96461904Y-151252380D01*
D16*
X98585237Y-153199522D02*
X98585237Y-151929522D01*
X99915713Y-153078570D02*
X99855237Y-153139046D01*
X99673808Y-153199522D01*
X99552856Y-153199522D01*
X99371427Y-153139046D01*
X99250475Y-153018094D01*
X99189999Y-152897141D01*
X99129522Y-152655237D01*
X99129522Y-152473808D01*
X99189999Y-152231903D01*
X99250475Y-152110951D01*
X99371427Y-151989999D01*
X99552856Y-151929522D01*
X99673808Y-151929522D01*
X99855237Y-151989999D01*
X99915713Y-152050475D01*
X100339046Y-151929522D02*
X101125237Y-151929522D01*
X100701903Y-152413332D01*
X100883332Y-152413332D01*
X101004284Y-152473808D01*
X101064760Y-152534284D01*
X101125237Y-152655237D01*
X101125237Y-152957618D01*
X101064760Y-153078570D01*
X101004284Y-153139046D01*
X100883332Y-153199522D01*
X100520475Y-153199522D01*
X100399522Y-153139046D01*
X100339046Y-153078570D01*
D11*
X137319642Y-141772380D02*
X136986309Y-141296190D01*
X136748214Y-141772380D02*
X136748214Y-140772380D01*
X137129166Y-140772380D01*
X137224404Y-140820000D01*
X137272023Y-140867619D01*
X137319642Y-140962857D01*
X137319642Y-141105714D01*
X137272023Y-141200952D01*
X137224404Y-141248571D01*
X137129166Y-141296190D01*
X136748214Y-141296190D01*
X137700595Y-140867619D02*
X137748214Y-140820000D01*
X137843452Y-140772380D01*
X138081547Y-140772380D01*
X138176785Y-140820000D01*
X138224404Y-140867619D01*
X138272023Y-140962857D01*
X138272023Y-141058095D01*
X138224404Y-141200952D01*
X137652976Y-141772380D01*
X138272023Y-141772380D01*
X138605357Y-140772380D02*
X139224404Y-140772380D01*
X138891071Y-141153333D01*
X139033928Y-141153333D01*
X139129166Y-141200952D01*
X139176785Y-141248571D01*
X139224404Y-141343809D01*
X139224404Y-141581904D01*
X139176785Y-141677142D01*
X139129166Y-141724761D01*
X139033928Y-141772380D01*
X138748214Y-141772380D01*
X138652976Y-141724761D01*
X138605357Y-141677142D01*
D16*
X128974523Y-129116428D02*
X128974523Y-129721190D01*
X127704523Y-129721190D01*
X128914047Y-128753571D02*
X128974523Y-128572142D01*
X128974523Y-128269761D01*
X128914047Y-128148809D01*
X128853571Y-128088333D01*
X128732619Y-128027857D01*
X128611666Y-128027857D01*
X128490714Y-128088333D01*
X128430238Y-128148809D01*
X128369761Y-128269761D01*
X128309285Y-128511666D01*
X128248809Y-128632619D01*
X128188333Y-128693095D01*
X128067380Y-128753571D01*
X127946428Y-128753571D01*
X127825476Y-128693095D01*
X127765000Y-128632619D01*
X127704523Y-128511666D01*
X127704523Y-128209285D01*
X127765000Y-128027857D01*
X128974523Y-126818333D02*
X128974523Y-127544047D01*
X128974523Y-127181190D02*
X127704523Y-127181190D01*
X127885952Y-127302142D01*
X128006904Y-127423095D01*
X128067380Y-127544047D01*
D19*
X138737798Y-82952167D02*
X138737798Y-83762006D01*
X138785435Y-83857282D01*
X138833073Y-83904919D01*
X138928348Y-83952557D01*
X139118899Y-83952557D01*
X139214174Y-83904919D01*
X139261811Y-83857282D01*
X139309449Y-83762006D01*
X139309449Y-82952167D01*
X140309839Y-83952557D02*
X139738188Y-83952557D01*
X140024013Y-83952557D02*
X140024013Y-82952167D01*
X139928738Y-83095080D01*
X139833463Y-83190355D01*
X139738188Y-83237993D01*
X136572141Y-137922996D02*
X136905825Y-137922996D01*
X137048832Y-138447355D02*
X136572141Y-138447355D01*
X136572141Y-137446305D01*
X137048832Y-137446305D01*
X137430184Y-138399686D02*
X137573191Y-138447355D01*
X137811536Y-138447355D01*
X137906875Y-138399686D01*
X137954544Y-138352017D01*
X138002213Y-138256679D01*
X138002213Y-138161341D01*
X137954544Y-138066003D01*
X137906875Y-138018334D01*
X137811536Y-137970665D01*
X137620860Y-137922996D01*
X137525522Y-137875327D01*
X137477853Y-137827658D01*
X137430184Y-137732320D01*
X137430184Y-137636982D01*
X137477853Y-137541644D01*
X137525522Y-137493975D01*
X137620860Y-137446305D01*
X137859205Y-137446305D01*
X138002213Y-137493975D01*
X138431234Y-138447355D02*
X138431234Y-137446305D01*
X138812586Y-137446305D01*
X138907925Y-137493975D01*
X138955594Y-137541644D01*
X139003263Y-137636982D01*
X139003263Y-137779989D01*
X138955594Y-137875327D01*
X138907925Y-137922996D01*
X138812586Y-137970665D01*
X138431234Y-137970665D01*
X139336946Y-137446305D02*
X139956644Y-137446305D01*
X139622960Y-137827658D01*
X139765967Y-137827658D01*
X139861305Y-137875327D01*
X139908975Y-137922996D01*
X139956644Y-138018334D01*
X139956644Y-138256679D01*
X139908975Y-138352017D01*
X139861305Y-138399686D01*
X139765967Y-138447355D01*
X139479953Y-138447355D01*
X139384615Y-138399686D01*
X139336946Y-138352017D01*
X140337996Y-137541644D02*
X140385665Y-137493975D01*
X140481003Y-137446305D01*
X140719348Y-137446305D01*
X140814686Y-137493975D01*
X140862355Y-137541644D01*
X140910025Y-137636982D01*
X140910025Y-137732320D01*
X140862355Y-137875327D01*
X140290327Y-138447355D01*
X140910025Y-138447355D01*
X141339046Y-138066003D02*
X142101751Y-138066003D01*
X142578441Y-138447355D02*
X142578441Y-137446305D01*
X142816786Y-137446305D01*
X142959794Y-137493975D01*
X143055132Y-137589313D01*
X143102801Y-137684651D01*
X143150470Y-137875327D01*
X143150470Y-138018334D01*
X143102801Y-138209010D01*
X143055132Y-138304348D01*
X142959794Y-138399686D01*
X142816786Y-138447355D01*
X142578441Y-138447355D01*
X143579491Y-137922996D02*
X143913175Y-137922996D01*
X144056182Y-138447355D02*
X143579491Y-138447355D01*
X143579491Y-137446305D01*
X144056182Y-137446305D01*
X144342196Y-137446305D02*
X144675879Y-138447355D01*
X145009563Y-137446305D01*
X145343246Y-138447355D02*
X145343246Y-137446305D01*
X145915275Y-138447355D02*
X145486253Y-137875327D01*
X145915275Y-137446305D02*
X145343246Y-138018334D01*
X146344296Y-138447355D02*
X146344296Y-137446305D01*
X146677979Y-137446305D02*
X147250008Y-137446305D01*
X146963994Y-138447355D02*
X146963994Y-137446305D01*
X148155720Y-138352017D02*
X148108051Y-138399686D01*
X147965044Y-138447355D01*
X147869705Y-138447355D01*
X147726698Y-138399686D01*
X147631360Y-138304348D01*
X147583691Y-138209010D01*
X147536022Y-138018334D01*
X147536022Y-137875327D01*
X147583691Y-137684651D01*
X147631360Y-137589313D01*
X147726698Y-137493975D01*
X147869705Y-137446305D01*
X147965044Y-137446305D01*
X148108051Y-137493975D01*
X148155720Y-137541644D01*
X148584741Y-138066003D02*
X149347446Y-138066003D01*
X149728798Y-137446305D02*
X150348496Y-137446305D01*
X150014813Y-137827658D01*
X150157820Y-137827658D01*
X150253158Y-137875327D01*
X150300827Y-137922996D01*
X150348496Y-138018334D01*
X150348496Y-138256679D01*
X150300827Y-138352017D01*
X150253158Y-138399686D01*
X150157820Y-138447355D01*
X149871805Y-138447355D01*
X149776467Y-138399686D01*
X149728798Y-138352017D01*
X150729848Y-137541644D02*
X150777517Y-137493975D01*
X150872855Y-137446305D01*
X151111201Y-137446305D01*
X151206539Y-137493975D01*
X151254208Y-137541644D01*
X151301877Y-137636982D01*
X151301877Y-137732320D01*
X151254208Y-137875327D01*
X150682179Y-138447355D01*
X151301877Y-138447355D01*
X151730898Y-138447355D02*
X151730898Y-137446305D01*
X151969244Y-137446305D01*
X152112251Y-137493975D01*
X152207589Y-137589313D01*
X152255258Y-137684651D01*
X152302927Y-137875327D01*
X152302927Y-138018334D01*
X152255258Y-138209010D01*
X152207589Y-138304348D01*
X152112251Y-138399686D01*
X151969244Y-138447355D01*
X151730898Y-138447355D01*
D11*
X171320833Y-95682380D02*
X170987500Y-95206190D01*
X170749404Y-95682380D02*
X170749404Y-94682380D01*
X171130357Y-94682380D01*
X171225595Y-94730000D01*
X171273214Y-94777619D01*
X171320833Y-94872857D01*
X171320833Y-95015714D01*
X171273214Y-95110952D01*
X171225595Y-95158571D01*
X171130357Y-95206190D01*
X170749404Y-95206190D01*
X172225595Y-94682380D02*
X171749404Y-94682380D01*
X171701785Y-95158571D01*
X171749404Y-95110952D01*
X171844642Y-95063333D01*
X172082738Y-95063333D01*
X172177976Y-95110952D01*
X172225595Y-95158571D01*
X172273214Y-95253809D01*
X172273214Y-95491904D01*
X172225595Y-95587142D01*
X172177976Y-95634761D01*
X172082738Y-95682380D01*
X171844642Y-95682380D01*
X171749404Y-95634761D01*
X171701785Y-95587142D01*
X116474404Y-158602380D02*
X116474404Y-157602380D01*
X116712500Y-157602380D01*
X116855357Y-157650000D01*
X116950595Y-157745238D01*
X116998214Y-157840476D01*
X117045833Y-158030952D01*
X117045833Y-158173809D01*
X116998214Y-158364285D01*
X116950595Y-158459523D01*
X116855357Y-158554761D01*
X116712500Y-158602380D01*
X116474404Y-158602380D01*
X117998214Y-158602380D02*
X117426785Y-158602380D01*
X117712500Y-158602380D02*
X117712500Y-157602380D01*
X117617261Y-157745238D01*
X117522023Y-157840476D01*
X117426785Y-157888095D01*
X175882380Y-128379166D02*
X175406190Y-128712500D01*
X175882380Y-128950595D02*
X174882380Y-128950595D01*
X174882380Y-128569642D01*
X174930000Y-128474404D01*
X174977619Y-128426785D01*
X175072857Y-128379166D01*
X175215714Y-128379166D01*
X175310952Y-128426785D01*
X175358571Y-128474404D01*
X175406190Y-128569642D01*
X175406190Y-128950595D01*
X174882380Y-127522023D02*
X174882380Y-127712500D01*
X174930000Y-127807738D01*
X174977619Y-127855357D01*
X175120476Y-127950595D01*
X175310952Y-127998214D01*
X175691904Y-127998214D01*
X175787142Y-127950595D01*
X175834761Y-127902976D01*
X175882380Y-127807738D01*
X175882380Y-127617261D01*
X175834761Y-127522023D01*
X175787142Y-127474404D01*
X175691904Y-127426785D01*
X175453809Y-127426785D01*
X175358571Y-127474404D01*
X175310952Y-127522023D01*
X175263333Y-127617261D01*
X175263333Y-127807738D01*
X175310952Y-127902976D01*
X175358571Y-127950595D01*
X175453809Y-127998214D01*
X140307142Y-139491666D02*
X140354761Y-139539285D01*
X140402380Y-139682142D01*
X140402380Y-139777380D01*
X140354761Y-139920238D01*
X140259523Y-140015476D01*
X140164285Y-140063095D01*
X139973809Y-140110714D01*
X139830952Y-140110714D01*
X139640476Y-140063095D01*
X139545238Y-140015476D01*
X139450000Y-139920238D01*
X139402380Y-139777380D01*
X139402380Y-139682142D01*
X139450000Y-139539285D01*
X139497619Y-139491666D01*
X139402380Y-139158333D02*
X139402380Y-138539285D01*
X139783333Y-138872619D01*
X139783333Y-138729761D01*
X139830952Y-138634523D01*
X139878571Y-138586904D01*
X139973809Y-138539285D01*
X140211904Y-138539285D01*
X140307142Y-138586904D01*
X140354761Y-138634523D01*
X140402380Y-138729761D01*
X140402380Y-139015476D01*
X140354761Y-139110714D01*
X140307142Y-139158333D01*
X108561904Y-158602380D02*
X108561904Y-157602380D01*
X108800000Y-157602380D01*
X108942857Y-157650000D01*
X109038095Y-157745238D01*
X109085714Y-157840476D01*
X109133333Y-158030952D01*
X109133333Y-158173809D01*
X109085714Y-158364285D01*
X109038095Y-158459523D01*
X108942857Y-158554761D01*
X108800000Y-158602380D01*
X108561904Y-158602380D01*
X109514285Y-157697619D02*
X109561904Y-157650000D01*
X109657142Y-157602380D01*
X109895238Y-157602380D01*
X109990476Y-157650000D01*
X110038095Y-157697619D01*
X110085714Y-157792857D01*
X110085714Y-157888095D01*
X110038095Y-158030952D01*
X109466666Y-158602380D01*
X110085714Y-158602380D01*
D16*
X112079047Y-145445476D02*
X111958095Y-145385000D01*
X111837142Y-145264047D01*
X111655714Y-145082619D01*
X111534761Y-145022142D01*
X111413809Y-145022142D01*
X111474285Y-145324523D02*
X111353333Y-145264047D01*
X111232380Y-145143095D01*
X111171904Y-144901190D01*
X111171904Y-144477857D01*
X111232380Y-144235952D01*
X111353333Y-144115000D01*
X111474285Y-144054523D01*
X111716190Y-144054523D01*
X111837142Y-144115000D01*
X111958095Y-144235952D01*
X112018571Y-144477857D01*
X112018571Y-144901190D01*
X111958095Y-145143095D01*
X111837142Y-145264047D01*
X111716190Y-145324523D01*
X111474285Y-145324523D01*
X112441904Y-144054523D02*
X113228095Y-144054523D01*
X112804761Y-144538333D01*
X112986190Y-144538333D01*
X113107142Y-144598809D01*
X113167619Y-144659285D01*
X113228095Y-144780238D01*
X113228095Y-145082619D01*
X113167619Y-145203571D01*
X113107142Y-145264047D01*
X112986190Y-145324523D01*
X112623333Y-145324523D01*
X112502380Y-145264047D01*
X112441904Y-145203571D01*
X123579047Y-145345476D02*
X123458095Y-145285000D01*
X123337142Y-145164047D01*
X123155714Y-144982619D01*
X123034761Y-144922142D01*
X122913809Y-144922142D01*
X122974285Y-145224523D02*
X122853333Y-145164047D01*
X122732380Y-145043095D01*
X122671904Y-144801190D01*
X122671904Y-144377857D01*
X122732380Y-144135952D01*
X122853333Y-144015000D01*
X122974285Y-143954523D01*
X123216190Y-143954523D01*
X123337142Y-144015000D01*
X123458095Y-144135952D01*
X123518571Y-144377857D01*
X123518571Y-144801190D01*
X123458095Y-145043095D01*
X123337142Y-145164047D01*
X123216190Y-145224523D01*
X122974285Y-145224523D01*
X124667619Y-143954523D02*
X124062857Y-143954523D01*
X124002380Y-144559285D01*
X124062857Y-144498809D01*
X124183809Y-144438333D01*
X124486190Y-144438333D01*
X124607142Y-144498809D01*
X124667619Y-144559285D01*
X124728095Y-144680238D01*
X124728095Y-144982619D01*
X124667619Y-145103571D01*
X124607142Y-145164047D01*
X124486190Y-145224523D01*
X124183809Y-145224523D01*
X124062857Y-145164047D01*
X124002380Y-145103571D01*
D11*
X116257142Y-156202380D02*
X115923809Y-155726190D01*
X115685714Y-156202380D02*
X115685714Y-155202380D01*
X116066666Y-155202380D01*
X116161904Y-155250000D01*
X116209523Y-155297619D01*
X116257142Y-155392857D01*
X116257142Y-155535714D01*
X116209523Y-155630952D01*
X116161904Y-155678571D01*
X116066666Y-155726190D01*
X115685714Y-155726190D01*
X117209523Y-156202380D02*
X116638095Y-156202380D01*
X116923809Y-156202380D02*
X116923809Y-155202380D01*
X116828571Y-155345238D01*
X116733333Y-155440476D01*
X116638095Y-155488095D01*
X118161904Y-156202380D02*
X117590476Y-156202380D01*
X117876190Y-156202380D02*
X117876190Y-155202380D01*
X117780952Y-155345238D01*
X117685714Y-155440476D01*
X117590476Y-155488095D01*
X108157142Y-156302380D02*
X107823809Y-155826190D01*
X107585714Y-156302380D02*
X107585714Y-155302380D01*
X107966666Y-155302380D01*
X108061904Y-155350000D01*
X108109523Y-155397619D01*
X108157142Y-155492857D01*
X108157142Y-155635714D01*
X108109523Y-155730952D01*
X108061904Y-155778571D01*
X107966666Y-155826190D01*
X107585714Y-155826190D01*
X109109523Y-156302380D02*
X108538095Y-156302380D01*
X108823809Y-156302380D02*
X108823809Y-155302380D01*
X108728571Y-155445238D01*
X108633333Y-155540476D01*
X108538095Y-155588095D01*
X109490476Y-155397619D02*
X109538095Y-155350000D01*
X109633333Y-155302380D01*
X109871428Y-155302380D01*
X109966666Y-155350000D01*
X110014285Y-155397619D01*
X110061904Y-155492857D01*
X110061904Y-155588095D01*
X110014285Y-155730952D01*
X109442857Y-156302380D01*
X110061904Y-156302380D01*
X105833333Y-120157142D02*
X105785714Y-120204761D01*
X105642857Y-120252380D01*
X105547619Y-120252380D01*
X105404761Y-120204761D01*
X105309523Y-120109523D01*
X105261904Y-120014285D01*
X105214285Y-119823809D01*
X105214285Y-119680952D01*
X105261904Y-119490476D01*
X105309523Y-119395238D01*
X105404761Y-119300000D01*
X105547619Y-119252380D01*
X105642857Y-119252380D01*
X105785714Y-119300000D01*
X105833333Y-119347619D01*
X106690476Y-119585714D02*
X106690476Y-120252380D01*
X106452380Y-119204761D02*
X106214285Y-119919047D01*
X106833333Y-119919047D01*
X101195833Y-110677142D02*
X101148214Y-110724761D01*
X101005357Y-110772380D01*
X100910119Y-110772380D01*
X100767261Y-110724761D01*
X100672023Y-110629523D01*
X100624404Y-110534285D01*
X100576785Y-110343809D01*
X100576785Y-110200952D01*
X100624404Y-110010476D01*
X100672023Y-109915238D01*
X100767261Y-109820000D01*
X100910119Y-109772380D01*
X101005357Y-109772380D01*
X101148214Y-109820000D01*
X101195833Y-109867619D01*
X102100595Y-109772380D02*
X101624404Y-109772380D01*
X101576785Y-110248571D01*
X101624404Y-110200952D01*
X101719642Y-110153333D01*
X101957738Y-110153333D01*
X102052976Y-110200952D01*
X102100595Y-110248571D01*
X102148214Y-110343809D01*
X102148214Y-110581904D01*
X102100595Y-110677142D01*
X102052976Y-110724761D01*
X101957738Y-110772380D01*
X101719642Y-110772380D01*
X101624404Y-110724761D01*
X101576785Y-110677142D01*
X99071666Y-102052380D02*
X99071666Y-102766666D01*
X99024047Y-102909523D01*
X98928809Y-103004761D01*
X98785952Y-103052380D01*
X98690714Y-103052380D01*
X99976428Y-102052380D02*
X99785952Y-102052380D01*
X99690714Y-102100000D01*
X99643095Y-102147619D01*
X99547857Y-102290476D01*
X99500238Y-102480952D01*
X99500238Y-102861904D01*
X99547857Y-102957142D01*
X99595476Y-103004761D01*
X99690714Y-103052380D01*
X99881190Y-103052380D01*
X99976428Y-103004761D01*
X100024047Y-102957142D01*
X100071666Y-102861904D01*
X100071666Y-102623809D01*
X100024047Y-102528571D01*
X99976428Y-102480952D01*
X99881190Y-102433333D01*
X99690714Y-102433333D01*
X99595476Y-102480952D01*
X99547857Y-102528571D01*
X99500238Y-102623809D01*
X90383333Y-104822380D02*
X90050000Y-104346190D01*
X89811904Y-104822380D02*
X89811904Y-103822380D01*
X90192857Y-103822380D01*
X90288095Y-103870000D01*
X90335714Y-103917619D01*
X90383333Y-104012857D01*
X90383333Y-104155714D01*
X90335714Y-104250952D01*
X90288095Y-104298571D01*
X90192857Y-104346190D01*
X89811904Y-104346190D01*
X90716666Y-103822380D02*
X91335714Y-103822380D01*
X91002380Y-104203333D01*
X91145238Y-104203333D01*
X91240476Y-104250952D01*
X91288095Y-104298571D01*
X91335714Y-104393809D01*
X91335714Y-104631904D01*
X91288095Y-104727142D01*
X91240476Y-104774761D01*
X91145238Y-104822380D01*
X90859523Y-104822380D01*
X90764285Y-104774761D01*
X90716666Y-104727142D01*
X93583333Y-104822380D02*
X93250000Y-104346190D01*
X93011904Y-104822380D02*
X93011904Y-103822380D01*
X93392857Y-103822380D01*
X93488095Y-103870000D01*
X93535714Y-103917619D01*
X93583333Y-104012857D01*
X93583333Y-104155714D01*
X93535714Y-104250952D01*
X93488095Y-104298571D01*
X93392857Y-104346190D01*
X93011904Y-104346190D01*
X94059523Y-104822380D02*
X94250000Y-104822380D01*
X94345238Y-104774761D01*
X94392857Y-104727142D01*
X94488095Y-104584285D01*
X94535714Y-104393809D01*
X94535714Y-104012857D01*
X94488095Y-103917619D01*
X94440476Y-103870000D01*
X94345238Y-103822380D01*
X94154761Y-103822380D01*
X94059523Y-103870000D01*
X94011904Y-103917619D01*
X93964285Y-104012857D01*
X93964285Y-104250952D01*
X94011904Y-104346190D01*
X94059523Y-104393809D01*
X94154761Y-104441428D01*
X94345238Y-104441428D01*
X94440476Y-104393809D01*
X94488095Y-104346190D01*
X94535714Y-104250952D01*
X96294642Y-104822380D02*
X95961309Y-104346190D01*
X95723214Y-104822380D02*
X95723214Y-103822380D01*
X96104166Y-103822380D01*
X96199404Y-103870000D01*
X96247023Y-103917619D01*
X96294642Y-104012857D01*
X96294642Y-104155714D01*
X96247023Y-104250952D01*
X96199404Y-104298571D01*
X96104166Y-104346190D01*
X95723214Y-104346190D01*
X97247023Y-104822380D02*
X96675595Y-104822380D01*
X96961309Y-104822380D02*
X96961309Y-103822380D01*
X96866071Y-103965238D01*
X96770833Y-104060476D01*
X96675595Y-104108095D01*
X97866071Y-103822380D02*
X97961309Y-103822380D01*
X98056547Y-103870000D01*
X98104166Y-103917619D01*
X98151785Y-104012857D01*
X98199404Y-104203333D01*
X98199404Y-104441428D01*
X98151785Y-104631904D01*
X98104166Y-104727142D01*
X98056547Y-104774761D01*
X97961309Y-104822380D01*
X97866071Y-104822380D01*
X97770833Y-104774761D01*
X97723214Y-104727142D01*
X97675595Y-104631904D01*
X97627976Y-104441428D01*
X97627976Y-104203333D01*
X97675595Y-104012857D01*
X97723214Y-103917619D01*
X97770833Y-103870000D01*
X97866071Y-103822380D01*
X107394642Y-107682380D02*
X107061309Y-107206190D01*
X106823214Y-107682380D02*
X106823214Y-106682380D01*
X107204166Y-106682380D01*
X107299404Y-106730000D01*
X107347023Y-106777619D01*
X107394642Y-106872857D01*
X107394642Y-107015714D01*
X107347023Y-107110952D01*
X107299404Y-107158571D01*
X107204166Y-107206190D01*
X106823214Y-107206190D01*
X108347023Y-107682380D02*
X107775595Y-107682380D01*
X108061309Y-107682380D02*
X108061309Y-106682380D01*
X107966071Y-106825238D01*
X107870833Y-106920476D01*
X107775595Y-106968095D01*
X109204166Y-106682380D02*
X109013690Y-106682380D01*
X108918452Y-106730000D01*
X108870833Y-106777619D01*
X108775595Y-106920476D01*
X108727976Y-107110952D01*
X108727976Y-107491904D01*
X108775595Y-107587142D01*
X108823214Y-107634761D01*
X108918452Y-107682380D01*
X109108928Y-107682380D01*
X109204166Y-107634761D01*
X109251785Y-107587142D01*
X109299404Y-107491904D01*
X109299404Y-107253809D01*
X109251785Y-107158571D01*
X109204166Y-107110952D01*
X109108928Y-107063333D01*
X108918452Y-107063333D01*
X108823214Y-107110952D01*
X108775595Y-107158571D01*
X108727976Y-107253809D01*
X104094642Y-107682380D02*
X103761309Y-107206190D01*
X103523214Y-107682380D02*
X103523214Y-106682380D01*
X103904166Y-106682380D01*
X103999404Y-106730000D01*
X104047023Y-106777619D01*
X104094642Y-106872857D01*
X104094642Y-107015714D01*
X104047023Y-107110952D01*
X103999404Y-107158571D01*
X103904166Y-107206190D01*
X103523214Y-107206190D01*
X105047023Y-107682380D02*
X104475595Y-107682380D01*
X104761309Y-107682380D02*
X104761309Y-106682380D01*
X104666071Y-106825238D01*
X104570833Y-106920476D01*
X104475595Y-106968095D01*
X105380357Y-106682380D02*
X106047023Y-106682380D01*
X105618452Y-107682380D01*
X100794642Y-107682380D02*
X100461309Y-107206190D01*
X100223214Y-107682380D02*
X100223214Y-106682380D01*
X100604166Y-106682380D01*
X100699404Y-106730000D01*
X100747023Y-106777619D01*
X100794642Y-106872857D01*
X100794642Y-107015714D01*
X100747023Y-107110952D01*
X100699404Y-107158571D01*
X100604166Y-107206190D01*
X100223214Y-107206190D01*
X101747023Y-107682380D02*
X101175595Y-107682380D01*
X101461309Y-107682380D02*
X101461309Y-106682380D01*
X101366071Y-106825238D01*
X101270833Y-106920476D01*
X101175595Y-106968095D01*
X102318452Y-107110952D02*
X102223214Y-107063333D01*
X102175595Y-107015714D01*
X102127976Y-106920476D01*
X102127976Y-106872857D01*
X102175595Y-106777619D01*
X102223214Y-106730000D01*
X102318452Y-106682380D01*
X102508928Y-106682380D01*
X102604166Y-106730000D01*
X102651785Y-106777619D01*
X102699404Y-106872857D01*
X102699404Y-106920476D01*
X102651785Y-107015714D01*
X102604166Y-107063333D01*
X102508928Y-107110952D01*
X102318452Y-107110952D01*
X102223214Y-107158571D01*
X102175595Y-107206190D01*
X102127976Y-107301428D01*
X102127976Y-107491904D01*
X102175595Y-107587142D01*
X102223214Y-107634761D01*
X102318452Y-107682380D01*
X102508928Y-107682380D01*
X102604166Y-107634761D01*
X102651785Y-107587142D01*
X102699404Y-107491904D01*
X102699404Y-107301428D01*
X102651785Y-107206190D01*
X102604166Y-107158571D01*
X102508928Y-107110952D01*
X101552380Y-116576190D02*
X100552380Y-116576190D01*
X101457142Y-115528571D02*
X101504761Y-115576190D01*
X101552380Y-115719047D01*
X101552380Y-115814285D01*
X101504761Y-115957142D01*
X101409523Y-116052380D01*
X101314285Y-116100000D01*
X101123809Y-116147619D01*
X100980952Y-116147619D01*
X100790476Y-116100000D01*
X100695238Y-116052380D01*
X100600000Y-115957142D01*
X100552380Y-115814285D01*
X100552380Y-115719047D01*
X100600000Y-115576190D01*
X100647619Y-115528571D01*
X100647619Y-115147619D02*
X100600000Y-115100000D01*
X100552380Y-115004761D01*
X100552380Y-114766666D01*
X100600000Y-114671428D01*
X100647619Y-114623809D01*
X100742857Y-114576190D01*
X100838095Y-114576190D01*
X100980952Y-114623809D01*
X101552380Y-115195238D01*
X101552380Y-114576190D01*
X98540476Y-128602380D02*
X98540476Y-129316666D01*
X98492857Y-129459523D01*
X98397619Y-129554761D01*
X98254761Y-129602380D01*
X98159523Y-129602380D01*
X99540476Y-129602380D02*
X98969047Y-129602380D01*
X99254761Y-129602380D02*
X99254761Y-128602380D01*
X99159523Y-128745238D01*
X99064285Y-128840476D01*
X98969047Y-128888095D01*
X100492857Y-129602380D02*
X99921428Y-129602380D01*
X100207142Y-129602380D02*
X100207142Y-128602380D01*
X100111904Y-128745238D01*
X100016666Y-128840476D01*
X99921428Y-128888095D01*
X108140476Y-128682380D02*
X108140476Y-129396666D01*
X108092857Y-129539523D01*
X107997619Y-129634761D01*
X107854761Y-129682380D01*
X107759523Y-129682380D01*
X109140476Y-129682380D02*
X108569047Y-129682380D01*
X108854761Y-129682380D02*
X108854761Y-128682380D01*
X108759523Y-128825238D01*
X108664285Y-128920476D01*
X108569047Y-128968095D01*
X109521428Y-128777619D02*
X109569047Y-128730000D01*
X109664285Y-128682380D01*
X109902380Y-128682380D01*
X109997619Y-128730000D01*
X110045238Y-128777619D01*
X110092857Y-128872857D01*
X110092857Y-128968095D01*
X110045238Y-129110952D01*
X109473809Y-129682380D01*
X110092857Y-129682380D01*
X171233333Y-91052380D02*
X170900000Y-90576190D01*
X170661904Y-91052380D02*
X170661904Y-90052380D01*
X171042857Y-90052380D01*
X171138095Y-90100000D01*
X171185714Y-90147619D01*
X171233333Y-90242857D01*
X171233333Y-90385714D01*
X171185714Y-90480952D01*
X171138095Y-90528571D01*
X171042857Y-90576190D01*
X170661904Y-90576190D01*
X171566666Y-90052380D02*
X172233333Y-90052380D01*
X171804761Y-91052380D01*
X136972380Y-104992857D02*
X136496190Y-105326190D01*
X136972380Y-105564285D02*
X135972380Y-105564285D01*
X135972380Y-105183333D01*
X136020000Y-105088095D01*
X136067619Y-105040476D01*
X136162857Y-104992857D01*
X136305714Y-104992857D01*
X136400952Y-105040476D01*
X136448571Y-105088095D01*
X136496190Y-105183333D01*
X136496190Y-105564285D01*
X136972380Y-104040476D02*
X136972380Y-104611904D01*
X136972380Y-104326190D02*
X135972380Y-104326190D01*
X136115238Y-104421428D01*
X136210476Y-104516666D01*
X136258095Y-104611904D01*
X135972380Y-103707142D02*
X135972380Y-103088095D01*
X136353333Y-103421428D01*
X136353333Y-103278571D01*
X136400952Y-103183333D01*
X136448571Y-103135714D01*
X136543809Y-103088095D01*
X136781904Y-103088095D01*
X136877142Y-103135714D01*
X136924761Y-103183333D01*
X136972380Y-103278571D01*
X136972380Y-103564285D01*
X136924761Y-103659523D01*
X136877142Y-103707142D01*
X170922380Y-107142857D02*
X170446190Y-107476190D01*
X170922380Y-107714285D02*
X169922380Y-107714285D01*
X169922380Y-107333333D01*
X169970000Y-107238095D01*
X170017619Y-107190476D01*
X170112857Y-107142857D01*
X170255714Y-107142857D01*
X170350952Y-107190476D01*
X170398571Y-107238095D01*
X170446190Y-107333333D01*
X170446190Y-107714285D01*
X170922380Y-106190476D02*
X170922380Y-106761904D01*
X170922380Y-106476190D02*
X169922380Y-106476190D01*
X170065238Y-106571428D01*
X170160476Y-106666666D01*
X170208095Y-106761904D01*
X170922380Y-105714285D02*
X170922380Y-105523809D01*
X170874761Y-105428571D01*
X170827142Y-105380952D01*
X170684285Y-105285714D01*
X170493809Y-105238095D01*
X170112857Y-105238095D01*
X170017619Y-105285714D01*
X169970000Y-105333333D01*
X169922380Y-105428571D01*
X169922380Y-105619047D01*
X169970000Y-105714285D01*
X170017619Y-105761904D01*
X170112857Y-105809523D01*
X170350952Y-105809523D01*
X170446190Y-105761904D01*
X170493809Y-105714285D01*
X170541428Y-105619047D01*
X170541428Y-105428571D01*
X170493809Y-105333333D01*
X170446190Y-105285714D01*
X170350952Y-105238095D01*
X142847381Y-142580594D02*
X141847381Y-142580594D01*
X141847381Y-142342499D01*
X141895001Y-142199641D01*
X141990239Y-142104403D01*
X142085477Y-142056784D01*
X142275953Y-142009165D01*
X142418810Y-142009165D01*
X142609286Y-142056784D01*
X142704524Y-142104403D01*
X142799762Y-142199641D01*
X142847381Y-142342499D01*
X142847381Y-142580594D01*
X141847381Y-141675832D02*
X141847381Y-141056784D01*
X142228334Y-141390118D01*
X142228334Y-141247260D01*
X142275953Y-141152022D01*
X142323572Y-141104403D01*
X142418810Y-141056784D01*
X142656905Y-141056784D01*
X142752143Y-141104403D01*
X142799762Y-141152022D01*
X142847381Y-141247260D01*
X142847381Y-141532975D01*
X142799762Y-141628213D01*
X142752143Y-141675832D01*
X140997381Y-142449165D02*
X140521191Y-142782499D01*
X140997381Y-143020594D02*
X139997381Y-143020594D01*
X139997381Y-142639641D01*
X140045001Y-142544403D01*
X140092620Y-142496784D01*
X140187858Y-142449165D01*
X140330715Y-142449165D01*
X140425953Y-142496784D01*
X140473572Y-142544403D01*
X140521191Y-142639641D01*
X140521191Y-143020594D01*
X140997381Y-141496784D02*
X140997381Y-142068213D01*
X140997381Y-141782499D02*
X139997381Y-141782499D01*
X140140239Y-141877737D01*
X140235477Y-141972975D01*
X140283096Y-142068213D01*
X81288095Y-84402380D02*
X81288095Y-83402380D01*
X81288095Y-83878571D02*
X81859523Y-83878571D01*
X81859523Y-84402380D02*
X81859523Y-83402380D01*
X82859523Y-84402380D02*
X82288095Y-84402380D01*
X82573809Y-84402380D02*
X82573809Y-83402380D01*
X82478571Y-83545238D01*
X82383333Y-83640476D01*
X82288095Y-83688095D01*
X88738095Y-152152380D02*
X88738095Y-151152380D01*
X88738095Y-151628571D02*
X89309523Y-151628571D01*
X89309523Y-152152380D02*
X89309523Y-151152380D01*
X89738095Y-151247619D02*
X89785714Y-151200000D01*
X89880952Y-151152380D01*
X90119047Y-151152380D01*
X90214285Y-151200000D01*
X90261904Y-151247619D01*
X90309523Y-151342857D01*
X90309523Y-151438095D01*
X90261904Y-151580952D01*
X89690476Y-152152380D01*
X90309523Y-152152380D01*
X172038095Y-148552380D02*
X172038095Y-147552380D01*
X172038095Y-148028571D02*
X172609523Y-148028571D01*
X172609523Y-148552380D02*
X172609523Y-147552380D01*
X172990476Y-147552380D02*
X173609523Y-147552380D01*
X173276190Y-147933333D01*
X173419047Y-147933333D01*
X173514285Y-147980952D01*
X173561904Y-148028571D01*
X173609523Y-148123809D01*
X173609523Y-148361904D01*
X173561904Y-148457142D01*
X173514285Y-148504761D01*
X173419047Y-148552380D01*
X173133333Y-148552380D01*
X173038095Y-148504761D01*
X172990476Y-148457142D01*
X131488095Y-84602380D02*
X131488095Y-83602380D01*
X131488095Y-84078571D02*
X132059523Y-84078571D01*
X132059523Y-84602380D02*
X132059523Y-83602380D01*
X132964285Y-83935714D02*
X132964285Y-84602380D01*
X132726190Y-83554761D02*
X132488095Y-84269047D01*
X133107142Y-84269047D01*
X172927142Y-124379166D02*
X172974761Y-124426785D01*
X173022380Y-124569642D01*
X173022380Y-124664880D01*
X172974761Y-124807738D01*
X172879523Y-124902976D01*
X172784285Y-124950595D01*
X172593809Y-124998214D01*
X172450952Y-124998214D01*
X172260476Y-124950595D01*
X172165238Y-124902976D01*
X172070000Y-124807738D01*
X172022380Y-124664880D01*
X172022380Y-124569642D01*
X172070000Y-124426785D01*
X172117619Y-124379166D01*
X172022380Y-124045833D02*
X172022380Y-123379166D01*
X173022380Y-123807738D01*
D16*
X111429666Y-161458523D02*
X111429666Y-162365666D01*
X111369190Y-162547095D01*
X111248238Y-162668047D01*
X111066809Y-162728523D01*
X110945857Y-162728523D01*
X111913476Y-161458523D02*
X112699666Y-161458523D01*
X112276333Y-161942333D01*
X112457761Y-161942333D01*
X112578714Y-162002809D01*
X112639190Y-162063285D01*
X112699666Y-162184238D01*
X112699666Y-162486619D01*
X112639190Y-162607571D01*
X112578714Y-162668047D01*
X112457761Y-162728523D01*
X112094904Y-162728523D01*
X111973952Y-162668047D01*
X111913476Y-162607571D01*
X119429666Y-161458523D02*
X119429666Y-162365666D01*
X119369190Y-162547095D01*
X119248238Y-162668047D01*
X119066809Y-162728523D01*
X118945857Y-162728523D01*
X120578714Y-161881857D02*
X120578714Y-162728523D01*
X120276333Y-161398047D02*
X119973952Y-162305190D01*
X120760142Y-162305190D01*
D11*
X171315476Y-118452380D02*
X171315476Y-119166666D01*
X171267857Y-119309523D01*
X171172619Y-119404761D01*
X171029761Y-119452380D01*
X170934523Y-119452380D01*
X172315476Y-119452380D02*
X171744047Y-119452380D01*
X172029761Y-119452380D02*
X172029761Y-118452380D01*
X171934523Y-118595238D01*
X171839285Y-118690476D01*
X171744047Y-118738095D01*
X172648809Y-118452380D02*
X173267857Y-118452380D01*
X172934523Y-118833333D01*
X173077380Y-118833333D01*
X173172619Y-118880952D01*
X173220238Y-118928571D01*
X173267857Y-119023809D01*
X173267857Y-119261904D01*
X173220238Y-119357142D01*
X173172619Y-119404761D01*
X173077380Y-119452380D01*
X172791666Y-119452380D01*
X172696428Y-119404761D01*
X172648809Y-119357142D01*
X133704761Y-124747619D02*
X133609523Y-124700000D01*
X133514285Y-124604761D01*
X133371428Y-124461904D01*
X133276190Y-124414285D01*
X133180952Y-124414285D01*
X133228571Y-124652380D02*
X133133333Y-124604761D01*
X133038095Y-124509523D01*
X132990476Y-124319047D01*
X132990476Y-123985714D01*
X133038095Y-123795238D01*
X133133333Y-123700000D01*
X133228571Y-123652380D01*
X133419047Y-123652380D01*
X133514285Y-123700000D01*
X133609523Y-123795238D01*
X133657142Y-123985714D01*
X133657142Y-124319047D01*
X133609523Y-124509523D01*
X133514285Y-124604761D01*
X133419047Y-124652380D01*
X133228571Y-124652380D01*
X134038095Y-123747619D02*
X134085714Y-123700000D01*
X134180952Y-123652380D01*
X134419047Y-123652380D01*
X134514285Y-123700000D01*
X134561904Y-123747619D01*
X134609523Y-123842857D01*
X134609523Y-123938095D01*
X134561904Y-124080952D01*
X133990476Y-124652380D01*
X134609523Y-124652380D01*
X136633333Y-120652380D02*
X136300000Y-120176190D01*
X136061904Y-120652380D02*
X136061904Y-119652380D01*
X136442857Y-119652380D01*
X136538095Y-119700000D01*
X136585714Y-119747619D01*
X136633333Y-119842857D01*
X136633333Y-119985714D01*
X136585714Y-120080952D01*
X136538095Y-120128571D01*
X136442857Y-120176190D01*
X136061904Y-120176190D01*
X137014285Y-119747619D02*
X137061904Y-119700000D01*
X137157142Y-119652380D01*
X137395238Y-119652380D01*
X137490476Y-119700000D01*
X137538095Y-119747619D01*
X137585714Y-119842857D01*
X137585714Y-119938095D01*
X137538095Y-120080952D01*
X136966666Y-120652380D01*
X137585714Y-120652380D01*
X134433333Y-162052380D02*
X134100000Y-161576190D01*
X133861904Y-162052380D02*
X133861904Y-161052380D01*
X134242857Y-161052380D01*
X134338095Y-161100000D01*
X134385714Y-161147619D01*
X134433333Y-161242857D01*
X134433333Y-161385714D01*
X134385714Y-161480952D01*
X134338095Y-161528571D01*
X134242857Y-161576190D01*
X133861904Y-161576190D01*
X135004761Y-161480952D02*
X134909523Y-161433333D01*
X134861904Y-161385714D01*
X134814285Y-161290476D01*
X134814285Y-161242857D01*
X134861904Y-161147619D01*
X134909523Y-161100000D01*
X135004761Y-161052380D01*
X135195238Y-161052380D01*
X135290476Y-161100000D01*
X135338095Y-161147619D01*
X135385714Y-161242857D01*
X135385714Y-161290476D01*
X135338095Y-161385714D01*
X135290476Y-161433333D01*
X135195238Y-161480952D01*
X135004761Y-161480952D01*
X134909523Y-161528571D01*
X134861904Y-161576190D01*
X134814285Y-161671428D01*
X134814285Y-161861904D01*
X134861904Y-161957142D01*
X134909523Y-162004761D01*
X135004761Y-162052380D01*
X135195238Y-162052380D01*
X135290476Y-162004761D01*
X135338095Y-161957142D01*
X135385714Y-161861904D01*
X135385714Y-161671428D01*
X135338095Y-161576190D01*
X135290476Y-161528571D01*
X135195238Y-161480952D01*
X166544642Y-163482380D02*
X166211309Y-163006190D01*
X165973214Y-163482380D02*
X165973214Y-162482380D01*
X166354166Y-162482380D01*
X166449404Y-162530000D01*
X166497023Y-162577619D01*
X166544642Y-162672857D01*
X166544642Y-162815714D01*
X166497023Y-162910952D01*
X166449404Y-162958571D01*
X166354166Y-163006190D01*
X165973214Y-163006190D01*
X166925595Y-162577619D02*
X166973214Y-162530000D01*
X167068452Y-162482380D01*
X167306547Y-162482380D01*
X167401785Y-162530000D01*
X167449404Y-162577619D01*
X167497023Y-162672857D01*
X167497023Y-162768095D01*
X167449404Y-162910952D01*
X166877976Y-163482380D01*
X167497023Y-163482380D01*
X168116071Y-162482380D02*
X168211309Y-162482380D01*
X168306547Y-162530000D01*
X168354166Y-162577619D01*
X168401785Y-162672857D01*
X168449404Y-162863333D01*
X168449404Y-163101428D01*
X168401785Y-163291904D01*
X168354166Y-163387142D01*
X168306547Y-163434761D01*
X168211309Y-163482380D01*
X168116071Y-163482380D01*
X168020833Y-163434761D01*
X167973214Y-163387142D01*
X167925595Y-163291904D01*
X167877976Y-163101428D01*
X167877976Y-162863333D01*
X167925595Y-162672857D01*
X167973214Y-162577619D01*
X168020833Y-162530000D01*
X168116071Y-162482380D01*
X170022380Y-124855357D02*
X169546190Y-125188690D01*
X170022380Y-125426785D02*
X169022380Y-125426785D01*
X169022380Y-125045833D01*
X169070000Y-124950595D01*
X169117619Y-124902976D01*
X169212857Y-124855357D01*
X169355714Y-124855357D01*
X169450952Y-124902976D01*
X169498571Y-124950595D01*
X169546190Y-125045833D01*
X169546190Y-125426785D01*
X169117619Y-124474404D02*
X169070000Y-124426785D01*
X169022380Y-124331547D01*
X169022380Y-124093452D01*
X169070000Y-123998214D01*
X169117619Y-123950595D01*
X169212857Y-123902976D01*
X169308095Y-123902976D01*
X169450952Y-123950595D01*
X170022380Y-124522023D01*
X170022380Y-123902976D01*
X170022380Y-122950595D02*
X170022380Y-123522023D01*
X170022380Y-123236309D02*
X169022380Y-123236309D01*
X169165238Y-123331547D01*
X169260476Y-123426785D01*
X169308095Y-123522023D01*
D16*
X132760238Y-148174523D02*
X132760238Y-146904523D01*
X134090714Y-148053571D02*
X134030238Y-148114047D01*
X133848809Y-148174523D01*
X133727857Y-148174523D01*
X133546428Y-148114047D01*
X133425476Y-147993095D01*
X133365000Y-147872142D01*
X133304523Y-147630238D01*
X133304523Y-147448809D01*
X133365000Y-147206904D01*
X133425476Y-147085952D01*
X133546428Y-146965000D01*
X133727857Y-146904523D01*
X133848809Y-146904523D01*
X134030238Y-146965000D01*
X134090714Y-147025476D01*
X135300238Y-148174523D02*
X134574523Y-148174523D01*
X134937380Y-148174523D02*
X134937380Y-146904523D01*
X134816428Y-147085952D01*
X134695476Y-147206904D01*
X134574523Y-147267380D01*
D11*
X97154761Y-158297619D02*
X97059523Y-158250000D01*
X96964285Y-158154761D01*
X96821428Y-158011904D01*
X96726190Y-157964285D01*
X96630952Y-157964285D01*
X96678571Y-158202380D02*
X96583333Y-158154761D01*
X96488095Y-158059523D01*
X96440476Y-157869047D01*
X96440476Y-157535714D01*
X96488095Y-157345238D01*
X96583333Y-157250000D01*
X96678571Y-157202380D01*
X96869047Y-157202380D01*
X96964285Y-157250000D01*
X97059523Y-157345238D01*
X97107142Y-157535714D01*
X97107142Y-157869047D01*
X97059523Y-158059523D01*
X96964285Y-158154761D01*
X96869047Y-158202380D01*
X96678571Y-158202380D01*
X98059523Y-158202380D02*
X97488095Y-158202380D01*
X97773809Y-158202380D02*
X97773809Y-157202380D01*
X97678571Y-157345238D01*
X97583333Y-157440476D01*
X97488095Y-157488095D01*
X98132380Y-155142857D02*
X97656190Y-155476190D01*
X98132380Y-155714285D02*
X97132380Y-155714285D01*
X97132380Y-155333333D01*
X97180000Y-155238095D01*
X97227619Y-155190476D01*
X97322857Y-155142857D01*
X97465714Y-155142857D01*
X97560952Y-155190476D01*
X97608571Y-155238095D01*
X97656190Y-155333333D01*
X97656190Y-155714285D01*
X97227619Y-154761904D02*
X97180000Y-154714285D01*
X97132380Y-154619047D01*
X97132380Y-154380952D01*
X97180000Y-154285714D01*
X97227619Y-154238095D01*
X97322857Y-154190476D01*
X97418095Y-154190476D01*
X97560952Y-154238095D01*
X98132380Y-154809523D01*
X98132380Y-154190476D01*
X97465714Y-153333333D02*
X98132380Y-153333333D01*
X97084761Y-153571428D02*
X97799047Y-153809523D01*
X97799047Y-153190476D01*
X104632380Y-155105357D02*
X104156190Y-155438690D01*
X104632380Y-155676785D02*
X103632380Y-155676785D01*
X103632380Y-155295833D01*
X103680000Y-155200595D01*
X103727619Y-155152976D01*
X103822857Y-155105357D01*
X103965714Y-155105357D01*
X104060952Y-155152976D01*
X104108571Y-155200595D01*
X104156190Y-155295833D01*
X104156190Y-155676785D01*
X103727619Y-154724404D02*
X103680000Y-154676785D01*
X103632380Y-154581547D01*
X103632380Y-154343452D01*
X103680000Y-154248214D01*
X103727619Y-154200595D01*
X103822857Y-154152976D01*
X103918095Y-154152976D01*
X104060952Y-154200595D01*
X104632380Y-154772023D01*
X104632380Y-154152976D01*
X103632380Y-153248214D02*
X103632380Y-153724404D01*
X104108571Y-153772023D01*
X104060952Y-153724404D01*
X104013333Y-153629166D01*
X104013333Y-153391071D01*
X104060952Y-153295833D01*
X104108571Y-153248214D01*
X104203809Y-153200595D01*
X104441904Y-153200595D01*
X104537142Y-153248214D01*
X104584761Y-153295833D01*
X104632380Y-153391071D01*
X104632380Y-153629166D01*
X104584761Y-153724404D01*
X104537142Y-153772023D01*
X134420833Y-154727142D02*
X134373214Y-154774761D01*
X134230357Y-154822380D01*
X134135119Y-154822380D01*
X133992261Y-154774761D01*
X133897023Y-154679523D01*
X133849404Y-154584285D01*
X133801785Y-154393809D01*
X133801785Y-154250952D01*
X133849404Y-154060476D01*
X133897023Y-153965238D01*
X133992261Y-153870000D01*
X134135119Y-153822380D01*
X134230357Y-153822380D01*
X134373214Y-153870000D01*
X134420833Y-153917619D01*
X135373214Y-154822380D02*
X134801785Y-154822380D01*
X135087500Y-154822380D02*
X135087500Y-153822380D01*
X134992261Y-153965238D01*
X134897023Y-154060476D01*
X134801785Y-154108095D01*
X149645833Y-154527142D02*
X149598214Y-154574761D01*
X149455357Y-154622380D01*
X149360119Y-154622380D01*
X149217261Y-154574761D01*
X149122023Y-154479523D01*
X149074404Y-154384285D01*
X149026785Y-154193809D01*
X149026785Y-154050952D01*
X149074404Y-153860476D01*
X149122023Y-153765238D01*
X149217261Y-153670000D01*
X149360119Y-153622380D01*
X149455357Y-153622380D01*
X149598214Y-153670000D01*
X149645833Y-153717619D01*
X150026785Y-153717619D02*
X150074404Y-153670000D01*
X150169642Y-153622380D01*
X150407738Y-153622380D01*
X150502976Y-153670000D01*
X150550595Y-153717619D01*
X150598214Y-153812857D01*
X150598214Y-153908095D01*
X150550595Y-154050952D01*
X149979166Y-154622380D01*
X150598214Y-154622380D01*
X165833333Y-153727142D02*
X165785714Y-153774761D01*
X165642857Y-153822380D01*
X165547619Y-153822380D01*
X165404761Y-153774761D01*
X165309523Y-153679523D01*
X165261904Y-153584285D01*
X165214285Y-153393809D01*
X165214285Y-153250952D01*
X165261904Y-153060476D01*
X165309523Y-152965238D01*
X165404761Y-152870000D01*
X165547619Y-152822380D01*
X165642857Y-152822380D01*
X165785714Y-152870000D01*
X165833333Y-152917619D01*
X166690476Y-152822380D02*
X166500000Y-152822380D01*
X166404761Y-152870000D01*
X166357142Y-152917619D01*
X166261904Y-153060476D01*
X166214285Y-153250952D01*
X166214285Y-153631904D01*
X166261904Y-153727142D01*
X166309523Y-153774761D01*
X166404761Y-153822380D01*
X166595238Y-153822380D01*
X166690476Y-153774761D01*
X166738095Y-153727142D01*
X166785714Y-153631904D01*
X166785714Y-153393809D01*
X166738095Y-153298571D01*
X166690476Y-153250952D01*
X166595238Y-153203333D01*
X166404761Y-153203333D01*
X166309523Y-153250952D01*
X166261904Y-153298571D01*
X166214285Y-153393809D01*
X163261904Y-156652380D02*
X163261904Y-155652380D01*
X163500000Y-155652380D01*
X163642857Y-155700000D01*
X163738095Y-155795238D01*
X163785714Y-155890476D01*
X163833333Y-156080952D01*
X163833333Y-156223809D01*
X163785714Y-156414285D01*
X163738095Y-156509523D01*
X163642857Y-156604761D01*
X163500000Y-156652380D01*
X163261904Y-156652380D01*
X164690476Y-155985714D02*
X164690476Y-156652380D01*
X164452380Y-155604761D02*
X164214285Y-156319047D01*
X164833333Y-156319047D01*
X145861904Y-156452380D02*
X145861904Y-155452380D01*
X146100000Y-155452380D01*
X146242857Y-155500000D01*
X146338095Y-155595238D01*
X146385714Y-155690476D01*
X146433333Y-155880952D01*
X146433333Y-156023809D01*
X146385714Y-156214285D01*
X146338095Y-156309523D01*
X146242857Y-156404761D01*
X146100000Y-156452380D01*
X145861904Y-156452380D01*
X147338095Y-155452380D02*
X146861904Y-155452380D01*
X146814285Y-155928571D01*
X146861904Y-155880952D01*
X146957142Y-155833333D01*
X147195238Y-155833333D01*
X147290476Y-155880952D01*
X147338095Y-155928571D01*
X147385714Y-156023809D01*
X147385714Y-156261904D01*
X147338095Y-156357142D01*
X147290476Y-156404761D01*
X147195238Y-156452380D01*
X146957142Y-156452380D01*
X146861904Y-156404761D01*
X146814285Y-156357142D01*
X136661904Y-156452380D02*
X136661904Y-155452380D01*
X136900000Y-155452380D01*
X137042857Y-155500000D01*
X137138095Y-155595238D01*
X137185714Y-155690476D01*
X137233333Y-155880952D01*
X137233333Y-156023809D01*
X137185714Y-156214285D01*
X137138095Y-156309523D01*
X137042857Y-156404761D01*
X136900000Y-156452380D01*
X136661904Y-156452380D01*
X138090476Y-155452380D02*
X137900000Y-155452380D01*
X137804761Y-155500000D01*
X137757142Y-155547619D01*
X137661904Y-155690476D01*
X137614285Y-155880952D01*
X137614285Y-156261904D01*
X137661904Y-156357142D01*
X137709523Y-156404761D01*
X137804761Y-156452380D01*
X137995238Y-156452380D01*
X138090476Y-156404761D01*
X138138095Y-156357142D01*
X138185714Y-156261904D01*
X138185714Y-156023809D01*
X138138095Y-155928571D01*
X138090476Y-155880952D01*
X137995238Y-155833333D01*
X137804761Y-155833333D01*
X137709523Y-155880952D01*
X137661904Y-155928571D01*
X137614285Y-156023809D01*
X151861904Y-156252380D02*
X151861904Y-155252380D01*
X152100000Y-155252380D01*
X152242857Y-155300000D01*
X152338095Y-155395238D01*
X152385714Y-155490476D01*
X152433333Y-155680952D01*
X152433333Y-155823809D01*
X152385714Y-156014285D01*
X152338095Y-156109523D01*
X152242857Y-156204761D01*
X152100000Y-156252380D01*
X151861904Y-156252380D01*
X152766666Y-155252380D02*
X153433333Y-155252380D01*
X153004761Y-156252380D01*
X166661904Y-156652380D02*
X166661904Y-155652380D01*
X166900000Y-155652380D01*
X167042857Y-155700000D01*
X167138095Y-155795238D01*
X167185714Y-155890476D01*
X167233333Y-156080952D01*
X167233333Y-156223809D01*
X167185714Y-156414285D01*
X167138095Y-156509523D01*
X167042857Y-156604761D01*
X166900000Y-156652380D01*
X166661904Y-156652380D01*
X167804761Y-156080952D02*
X167709523Y-156033333D01*
X167661904Y-155985714D01*
X167614285Y-155890476D01*
X167614285Y-155842857D01*
X167661904Y-155747619D01*
X167709523Y-155700000D01*
X167804761Y-155652380D01*
X167995238Y-155652380D01*
X168090476Y-155700000D01*
X168138095Y-155747619D01*
X168185714Y-155842857D01*
X168185714Y-155890476D01*
X168138095Y-155985714D01*
X168090476Y-156033333D01*
X167995238Y-156080952D01*
X167804761Y-156080952D01*
X167709523Y-156128571D01*
X167661904Y-156176190D01*
X167614285Y-156271428D01*
X167614285Y-156461904D01*
X167661904Y-156557142D01*
X167709523Y-156604761D01*
X167804761Y-156652380D01*
X167995238Y-156652380D01*
X168090476Y-156604761D01*
X168138095Y-156557142D01*
X168185714Y-156461904D01*
X168185714Y-156271428D01*
X168138095Y-156176190D01*
X168090476Y-156128571D01*
X167995238Y-156080952D01*
X130261904Y-156652380D02*
X130261904Y-155652380D01*
X130500000Y-155652380D01*
X130642857Y-155700000D01*
X130738095Y-155795238D01*
X130785714Y-155890476D01*
X130833333Y-156080952D01*
X130833333Y-156223809D01*
X130785714Y-156414285D01*
X130738095Y-156509523D01*
X130642857Y-156604761D01*
X130500000Y-156652380D01*
X130261904Y-156652380D01*
X131309523Y-156652380D02*
X131500000Y-156652380D01*
X131595238Y-156604761D01*
X131642857Y-156557142D01*
X131738095Y-156414285D01*
X131785714Y-156223809D01*
X131785714Y-155842857D01*
X131738095Y-155747619D01*
X131690476Y-155700000D01*
X131595238Y-155652380D01*
X131404761Y-155652380D01*
X131309523Y-155700000D01*
X131261904Y-155747619D01*
X131214285Y-155842857D01*
X131214285Y-156080952D01*
X131261904Y-156176190D01*
X131309523Y-156223809D01*
X131404761Y-156271428D01*
X131595238Y-156271428D01*
X131690476Y-156223809D01*
X131738095Y-156176190D01*
X131785714Y-156080952D01*
X88852380Y-118181285D02*
X87852380Y-118181285D01*
X87852380Y-117943190D01*
X87900000Y-117800333D01*
X87995238Y-117705095D01*
X88090476Y-117657476D01*
X88280952Y-117609857D01*
X88423809Y-117609857D01*
X88614285Y-117657476D01*
X88709523Y-117705095D01*
X88804761Y-117800333D01*
X88852380Y-117943190D01*
X88852380Y-118181285D01*
X88852380Y-116657476D02*
X88852380Y-117228904D01*
X88852380Y-116943190D02*
X87852380Y-116943190D01*
X87995238Y-117038428D01*
X88090476Y-117133666D01*
X88138095Y-117228904D01*
X87852380Y-116038428D02*
X87852380Y-115943190D01*
X87900000Y-115847952D01*
X87947619Y-115800333D01*
X88042857Y-115752714D01*
X88233333Y-115705095D01*
X88471428Y-115705095D01*
X88661904Y-115752714D01*
X88757142Y-115800333D01*
X88804761Y-115847952D01*
X88852380Y-115943190D01*
X88852380Y-116038428D01*
X88804761Y-116133666D01*
X88757142Y-116181285D01*
X88661904Y-116228904D01*
X88471428Y-116276523D01*
X88233333Y-116276523D01*
X88042857Y-116228904D01*
X87947619Y-116181285D01*
X87900000Y-116133666D01*
X87852380Y-116038428D01*
X93884761Y-110347619D02*
X93789523Y-110300000D01*
X93694285Y-110204761D01*
X93551428Y-110061904D01*
X93456190Y-110014285D01*
X93360952Y-110014285D01*
X93408571Y-110252380D02*
X93313333Y-110204761D01*
X93218095Y-110109523D01*
X93170476Y-109919047D01*
X93170476Y-109585714D01*
X93218095Y-109395238D01*
X93313333Y-109300000D01*
X93408571Y-109252380D01*
X93599047Y-109252380D01*
X93694285Y-109300000D01*
X93789523Y-109395238D01*
X93837142Y-109585714D01*
X93837142Y-109919047D01*
X93789523Y-110109523D01*
X93694285Y-110204761D01*
X93599047Y-110252380D01*
X93408571Y-110252380D01*
X94694285Y-109585714D02*
X94694285Y-110252380D01*
X94456190Y-109204761D02*
X94218095Y-109919047D01*
X94837142Y-109919047D01*
X159369642Y-158422380D02*
X159036309Y-157946190D01*
X158798214Y-158422380D02*
X158798214Y-157422380D01*
X159179166Y-157422380D01*
X159274404Y-157470000D01*
X159322023Y-157517619D01*
X159369642Y-157612857D01*
X159369642Y-157755714D01*
X159322023Y-157850952D01*
X159274404Y-157898571D01*
X159179166Y-157946190D01*
X158798214Y-157946190D01*
X159750595Y-157517619D02*
X159798214Y-157470000D01*
X159893452Y-157422380D01*
X160131547Y-157422380D01*
X160226785Y-157470000D01*
X160274404Y-157517619D01*
X160322023Y-157612857D01*
X160322023Y-157708095D01*
X160274404Y-157850952D01*
X159702976Y-158422380D01*
X160322023Y-158422380D01*
X161179166Y-157422380D02*
X160988690Y-157422380D01*
X160893452Y-157470000D01*
X160845833Y-157517619D01*
X160750595Y-157660476D01*
X160702976Y-157850952D01*
X160702976Y-158231904D01*
X160750595Y-158327142D01*
X160798214Y-158374761D01*
X160893452Y-158422380D01*
X161083928Y-158422380D01*
X161179166Y-158374761D01*
X161226785Y-158327142D01*
X161274404Y-158231904D01*
X161274404Y-157993809D01*
X161226785Y-157898571D01*
X161179166Y-157850952D01*
X161083928Y-157803333D01*
X160893452Y-157803333D01*
X160798214Y-157850952D01*
X160750595Y-157898571D01*
X160702976Y-157993809D01*
X143452380Y-161455357D02*
X142976190Y-161788690D01*
X143452380Y-162026785D02*
X142452380Y-162026785D01*
X142452380Y-161645833D01*
X142500000Y-161550595D01*
X142547619Y-161502976D01*
X142642857Y-161455357D01*
X142785714Y-161455357D01*
X142880952Y-161502976D01*
X142928571Y-161550595D01*
X142976190Y-161645833D01*
X142976190Y-162026785D01*
X142547619Y-161074404D02*
X142500000Y-161026785D01*
X142452380Y-160931547D01*
X142452380Y-160693452D01*
X142500000Y-160598214D01*
X142547619Y-160550595D01*
X142642857Y-160502976D01*
X142738095Y-160502976D01*
X142880952Y-160550595D01*
X143452380Y-161122023D01*
X143452380Y-160502976D01*
X142452380Y-160169642D02*
X142452380Y-159502976D01*
X143452380Y-159931547D01*
X175682380Y-93642857D02*
X175206190Y-93976190D01*
X175682380Y-94214285D02*
X174682380Y-94214285D01*
X174682380Y-93833333D01*
X174730000Y-93738095D01*
X174777619Y-93690476D01*
X174872857Y-93642857D01*
X175015714Y-93642857D01*
X175110952Y-93690476D01*
X175158571Y-93738095D01*
X175206190Y-93833333D01*
X175206190Y-94214285D01*
X174777619Y-93261904D02*
X174730000Y-93214285D01*
X174682380Y-93119047D01*
X174682380Y-92880952D01*
X174730000Y-92785714D01*
X174777619Y-92738095D01*
X174872857Y-92690476D01*
X174968095Y-92690476D01*
X175110952Y-92738095D01*
X175682380Y-93309523D01*
X175682380Y-92690476D01*
X175110952Y-92119047D02*
X175063333Y-92214285D01*
X175015714Y-92261904D01*
X174920476Y-92309523D01*
X174872857Y-92309523D01*
X174777619Y-92261904D01*
X174730000Y-92214285D01*
X174682380Y-92119047D01*
X174682380Y-91928571D01*
X174730000Y-91833333D01*
X174777619Y-91785714D01*
X174872857Y-91738095D01*
X174920476Y-91738095D01*
X175015714Y-91785714D01*
X175063333Y-91833333D01*
X175110952Y-91928571D01*
X175110952Y-92119047D01*
X175158571Y-92214285D01*
X175206190Y-92261904D01*
X175301428Y-92309523D01*
X175491904Y-92309523D01*
X175587142Y-92261904D01*
X175634761Y-92214285D01*
X175682380Y-92119047D01*
X175682380Y-91928571D01*
X175634761Y-91833333D01*
X175587142Y-91785714D01*
X175491904Y-91738095D01*
X175301428Y-91738095D01*
X175206190Y-91785714D01*
X175158571Y-91833333D01*
X175110952Y-91928571D01*
X174569642Y-141622380D02*
X174236309Y-141146190D01*
X173998214Y-141622380D02*
X173998214Y-140622380D01*
X174379166Y-140622380D01*
X174474404Y-140670000D01*
X174522023Y-140717619D01*
X174569642Y-140812857D01*
X174569642Y-140955714D01*
X174522023Y-141050952D01*
X174474404Y-141098571D01*
X174379166Y-141146190D01*
X173998214Y-141146190D01*
X174950595Y-140717619D02*
X174998214Y-140670000D01*
X175093452Y-140622380D01*
X175331547Y-140622380D01*
X175426785Y-140670000D01*
X175474404Y-140717619D01*
X175522023Y-140812857D01*
X175522023Y-140908095D01*
X175474404Y-141050952D01*
X174902976Y-141622380D01*
X175522023Y-141622380D01*
X175998214Y-141622380D02*
X176188690Y-141622380D01*
X176283928Y-141574761D01*
X176331547Y-141527142D01*
X176426785Y-141384285D01*
X176474404Y-141193809D01*
X176474404Y-140812857D01*
X176426785Y-140717619D01*
X176379166Y-140670000D01*
X176283928Y-140622380D01*
X176093452Y-140622380D01*
X175998214Y-140670000D01*
X175950595Y-140717619D01*
X175902976Y-140812857D01*
X175902976Y-141050952D01*
X175950595Y-141146190D01*
X175998214Y-141193809D01*
X176093452Y-141241428D01*
X176283928Y-141241428D01*
X176379166Y-141193809D01*
X176426785Y-141146190D01*
X176474404Y-141050952D01*
X127422380Y-161430357D02*
X126946190Y-161763690D01*
X127422380Y-162001785D02*
X126422380Y-162001785D01*
X126422380Y-161620833D01*
X126470000Y-161525595D01*
X126517619Y-161477976D01*
X126612857Y-161430357D01*
X126755714Y-161430357D01*
X126850952Y-161477976D01*
X126898571Y-161525595D01*
X126946190Y-161620833D01*
X126946190Y-162001785D01*
X126422380Y-161097023D02*
X126422380Y-160477976D01*
X126803333Y-160811309D01*
X126803333Y-160668452D01*
X126850952Y-160573214D01*
X126898571Y-160525595D01*
X126993809Y-160477976D01*
X127231904Y-160477976D01*
X127327142Y-160525595D01*
X127374761Y-160573214D01*
X127422380Y-160668452D01*
X127422380Y-160954166D01*
X127374761Y-161049404D01*
X127327142Y-161097023D01*
X126422380Y-159858928D02*
X126422380Y-159763690D01*
X126470000Y-159668452D01*
X126517619Y-159620833D01*
X126612857Y-159573214D01*
X126803333Y-159525595D01*
X127041428Y-159525595D01*
X127231904Y-159573214D01*
X127327142Y-159620833D01*
X127374761Y-159668452D01*
X127422380Y-159763690D01*
X127422380Y-159858928D01*
X127374761Y-159954166D01*
X127327142Y-160001785D01*
X127231904Y-160049404D01*
X127041428Y-160097023D01*
X126803333Y-160097023D01*
X126612857Y-160049404D01*
X126517619Y-160001785D01*
X126470000Y-159954166D01*
X126422380Y-159858928D01*
X88242380Y-112555357D02*
X87766190Y-112888690D01*
X88242380Y-113126785D02*
X87242380Y-113126785D01*
X87242380Y-112745833D01*
X87290000Y-112650595D01*
X87337619Y-112602976D01*
X87432857Y-112555357D01*
X87575714Y-112555357D01*
X87670952Y-112602976D01*
X87718571Y-112650595D01*
X87766190Y-112745833D01*
X87766190Y-113126785D01*
X87242380Y-112222023D02*
X87242380Y-111602976D01*
X87623333Y-111936309D01*
X87623333Y-111793452D01*
X87670952Y-111698214D01*
X87718571Y-111650595D01*
X87813809Y-111602976D01*
X88051904Y-111602976D01*
X88147142Y-111650595D01*
X88194761Y-111698214D01*
X88242380Y-111793452D01*
X88242380Y-112079166D01*
X88194761Y-112174404D01*
X88147142Y-112222023D01*
X88242380Y-110650595D02*
X88242380Y-111222023D01*
X88242380Y-110936309D02*
X87242380Y-110936309D01*
X87385238Y-111031547D01*
X87480476Y-111126785D01*
X87528095Y-111222023D01*
D16*
X173869047Y-100458619D02*
X173929523Y-100277190D01*
X173929523Y-99974809D01*
X173869047Y-99853857D01*
X173808571Y-99793380D01*
X173687619Y-99732904D01*
X173566666Y-99732904D01*
X173445714Y-99793380D01*
X173385238Y-99853857D01*
X173324761Y-99974809D01*
X173264285Y-100216714D01*
X173203809Y-100337666D01*
X173143333Y-100398142D01*
X173022380Y-100458619D01*
X172901428Y-100458619D01*
X172780476Y-100398142D01*
X172720000Y-100337666D01*
X172659523Y-100216714D01*
X172659523Y-99914333D01*
X172720000Y-99732904D01*
X173929523Y-98523380D02*
X173929523Y-99249095D01*
X173929523Y-98886238D02*
X172659523Y-98886238D01*
X172840952Y-99007190D01*
X172961904Y-99128142D01*
X173022380Y-99249095D01*
X174504047Y-137288619D02*
X174564523Y-137107190D01*
X174564523Y-136804809D01*
X174504047Y-136683857D01*
X174443571Y-136623380D01*
X174322619Y-136562904D01*
X174201666Y-136562904D01*
X174080714Y-136623380D01*
X174020238Y-136683857D01*
X173959761Y-136804809D01*
X173899285Y-137046714D01*
X173838809Y-137167666D01*
X173778333Y-137228142D01*
X173657380Y-137288619D01*
X173536428Y-137288619D01*
X173415476Y-137228142D01*
X173355000Y-137167666D01*
X173294523Y-137046714D01*
X173294523Y-136744333D01*
X173355000Y-136562904D01*
X173415476Y-136079095D02*
X173355000Y-136018619D01*
X173294523Y-135897666D01*
X173294523Y-135595285D01*
X173355000Y-135474333D01*
X173415476Y-135413857D01*
X173536428Y-135353380D01*
X173657380Y-135353380D01*
X173838809Y-135413857D01*
X174564523Y-136139571D01*
X174564523Y-135353380D01*
D11*
X129038095Y-113752380D02*
X129038095Y-114561904D01*
X129085714Y-114657142D01*
X129133333Y-114704761D01*
X129228571Y-114752380D01*
X129419047Y-114752380D01*
X129514285Y-114704761D01*
X129561904Y-114657142D01*
X129609523Y-114561904D01*
X129609523Y-113752380D01*
X130038095Y-113847619D02*
X130085714Y-113800000D01*
X130180952Y-113752380D01*
X130419047Y-113752380D01*
X130514285Y-113800000D01*
X130561904Y-113847619D01*
X130609523Y-113942857D01*
X130609523Y-114038095D01*
X130561904Y-114180952D01*
X129990476Y-114752380D01*
X130609523Y-114752380D01*
D16*
X85367142Y-123704523D02*
X86213809Y-123704523D01*
X85367142Y-124974523D01*
X86213809Y-124974523D01*
X87362857Y-124974523D02*
X86637142Y-124974523D01*
X87000000Y-124974523D02*
X87000000Y-123704523D01*
X86879047Y-123885952D01*
X86758095Y-124006904D01*
X86637142Y-124067380D01*
X88572380Y-124974523D02*
X87846666Y-124974523D01*
X88209523Y-124974523D02*
X88209523Y-123704523D01*
X88088571Y-123885952D01*
X87967619Y-124006904D01*
X87846666Y-124067380D01*
D11*
X105852380Y-159042857D02*
X105376190Y-159376190D01*
X105852380Y-159614285D02*
X104852380Y-159614285D01*
X104852380Y-159233333D01*
X104900000Y-159138095D01*
X104947619Y-159090476D01*
X105042857Y-159042857D01*
X105185714Y-159042857D01*
X105280952Y-159090476D01*
X105328571Y-159138095D01*
X105376190Y-159233333D01*
X105376190Y-159614285D01*
X104852380Y-158709523D02*
X104852380Y-158090476D01*
X105233333Y-158423809D01*
X105233333Y-158280952D01*
X105280952Y-158185714D01*
X105328571Y-158138095D01*
X105423809Y-158090476D01*
X105661904Y-158090476D01*
X105757142Y-158138095D01*
X105804761Y-158185714D01*
X105852380Y-158280952D01*
X105852380Y-158566666D01*
X105804761Y-158661904D01*
X105757142Y-158709523D01*
X104947619Y-157709523D02*
X104900000Y-157661904D01*
X104852380Y-157566666D01*
X104852380Y-157328571D01*
X104900000Y-157233333D01*
X104947619Y-157185714D01*
X105042857Y-157138095D01*
X105138095Y-157138095D01*
X105280952Y-157185714D01*
X105852380Y-157757142D01*
X105852380Y-157138095D01*
X92852380Y-162255357D02*
X92376190Y-162588690D01*
X92852380Y-162826785D02*
X91852380Y-162826785D01*
X91852380Y-162445833D01*
X91900000Y-162350595D01*
X91947619Y-162302976D01*
X92042857Y-162255357D01*
X92185714Y-162255357D01*
X92280952Y-162302976D01*
X92328571Y-162350595D01*
X92376190Y-162445833D01*
X92376190Y-162826785D01*
X91852380Y-161922023D02*
X91852380Y-161302976D01*
X92233333Y-161636309D01*
X92233333Y-161493452D01*
X92280952Y-161398214D01*
X92328571Y-161350595D01*
X92423809Y-161302976D01*
X92661904Y-161302976D01*
X92757142Y-161350595D01*
X92804761Y-161398214D01*
X92852380Y-161493452D01*
X92852380Y-161779166D01*
X92804761Y-161874404D01*
X92757142Y-161922023D01*
X91852380Y-160398214D02*
X91852380Y-160874404D01*
X92328571Y-160922023D01*
X92280952Y-160874404D01*
X92233333Y-160779166D01*
X92233333Y-160541071D01*
X92280952Y-160445833D01*
X92328571Y-160398214D01*
X92423809Y-160350595D01*
X92661904Y-160350595D01*
X92757142Y-160398214D01*
X92804761Y-160445833D01*
X92852380Y-160541071D01*
X92852380Y-160779166D01*
X92804761Y-160874404D01*
X92757142Y-160922023D01*
X80578571Y-115883333D02*
X80578571Y-116216666D01*
X81102380Y-116216666D02*
X80102380Y-116216666D01*
X80102380Y-115740476D01*
X81102380Y-114835714D02*
X81102380Y-115407142D01*
X81102380Y-115121428D02*
X80102380Y-115121428D01*
X80245238Y-115216666D01*
X80340476Y-115311904D01*
X80388095Y-115407142D01*
D16*
X82754524Y-101153332D02*
X83661667Y-101153332D01*
X83843096Y-101213808D01*
X83964048Y-101334760D01*
X84024524Y-101516189D01*
X84024524Y-101637141D01*
X83298810Y-100367141D02*
X83238334Y-100488094D01*
X83177858Y-100548570D01*
X83056905Y-100609046D01*
X82996429Y-100609046D01*
X82875477Y-100548570D01*
X82815001Y-100488094D01*
X82754524Y-100367141D01*
X82754524Y-100125237D01*
X82815001Y-100004284D01*
X82875477Y-99943808D01*
X82996429Y-99883332D01*
X83056905Y-99883332D01*
X83177858Y-99943808D01*
X83238334Y-100004284D01*
X83298810Y-100125237D01*
X83298810Y-100367141D01*
X83359286Y-100488094D01*
X83419762Y-100548570D01*
X83540715Y-100609046D01*
X83782620Y-100609046D01*
X83903572Y-100548570D01*
X83964048Y-100488094D01*
X84024524Y-100367141D01*
X84024524Y-100125237D01*
X83964048Y-100004284D01*
X83903572Y-99943808D01*
X83782620Y-99883332D01*
X83540715Y-99883332D01*
X83419762Y-99943808D01*
X83359286Y-100004284D01*
X83298810Y-100125237D01*
D11*
X103852380Y-159042857D02*
X103376190Y-159376190D01*
X103852380Y-159614285D02*
X102852380Y-159614285D01*
X102852380Y-159233333D01*
X102900000Y-159138095D01*
X102947619Y-159090476D01*
X103042857Y-159042857D01*
X103185714Y-159042857D01*
X103280952Y-159090476D01*
X103328571Y-159138095D01*
X103376190Y-159233333D01*
X103376190Y-159614285D01*
X102852380Y-158709523D02*
X102852380Y-158090476D01*
X103233333Y-158423809D01*
X103233333Y-158280952D01*
X103280952Y-158185714D01*
X103328571Y-158138095D01*
X103423809Y-158090476D01*
X103661904Y-158090476D01*
X103757142Y-158138095D01*
X103804761Y-158185714D01*
X103852380Y-158280952D01*
X103852380Y-158566666D01*
X103804761Y-158661904D01*
X103757142Y-158709523D01*
X102852380Y-157757142D02*
X102852380Y-157138095D01*
X103233333Y-157471428D01*
X103233333Y-157328571D01*
X103280952Y-157233333D01*
X103328571Y-157185714D01*
X103423809Y-157138095D01*
X103661904Y-157138095D01*
X103757142Y-157185714D01*
X103804761Y-157233333D01*
X103852380Y-157328571D01*
X103852380Y-157614285D01*
X103804761Y-157709523D01*
X103757142Y-157757142D01*
X171504761Y-129235119D02*
X171409523Y-129187500D01*
X171314285Y-129092261D01*
X171171428Y-128949404D01*
X171076190Y-128901785D01*
X170980952Y-128901785D01*
X171028571Y-129139880D02*
X170933333Y-129092261D01*
X170838095Y-128997023D01*
X170790476Y-128806547D01*
X170790476Y-128473214D01*
X170838095Y-128282738D01*
X170933333Y-128187500D01*
X171028571Y-128139880D01*
X171219047Y-128139880D01*
X171314285Y-128187500D01*
X171409523Y-128282738D01*
X171457142Y-128473214D01*
X171457142Y-128806547D01*
X171409523Y-128997023D01*
X171314285Y-129092261D01*
X171219047Y-129139880D01*
X171028571Y-129139880D01*
X172314285Y-128139880D02*
X172123809Y-128139880D01*
X172028571Y-128187500D01*
X171980952Y-128235119D01*
X171885714Y-128377976D01*
X171838095Y-128568452D01*
X171838095Y-128949404D01*
X171885714Y-129044642D01*
X171933333Y-129092261D01*
X172028571Y-129139880D01*
X172219047Y-129139880D01*
X172314285Y-129092261D01*
X172361904Y-129044642D01*
X172409523Y-128949404D01*
X172409523Y-128711309D01*
X172361904Y-128616071D01*
X172314285Y-128568452D01*
X172219047Y-128520833D01*
X172028571Y-128520833D01*
X171933333Y-128568452D01*
X171885714Y-128616071D01*
X171838095Y-128711309D01*
D16*
X96571904Y-174104523D02*
X96571904Y-175011666D01*
X96511428Y-175193095D01*
X96390476Y-175314047D01*
X96209047Y-175374523D01*
X96088095Y-175374523D01*
X97841904Y-175374523D02*
X97116190Y-175374523D01*
X97479047Y-175374523D02*
X97479047Y-174104523D01*
X97358095Y-174285952D01*
X97237142Y-174406904D01*
X97116190Y-174467380D01*
X98628095Y-174104523D02*
X98749047Y-174104523D01*
X98870000Y-174165000D01*
X98930476Y-174225476D01*
X98990952Y-174346428D01*
X99051428Y-174588333D01*
X99051428Y-174890714D01*
X98990952Y-175132619D01*
X98930476Y-175253571D01*
X98870000Y-175314047D01*
X98749047Y-175374523D01*
X98628095Y-175374523D01*
X98507142Y-175314047D01*
X98446666Y-175253571D01*
X98386190Y-175132619D01*
X98325714Y-174890714D01*
X98325714Y-174588333D01*
X98386190Y-174346428D01*
X98446666Y-174225476D01*
X98507142Y-174165000D01*
X98628095Y-174104523D01*
X126976666Y-172304523D02*
X126976666Y-173211666D01*
X126916190Y-173393095D01*
X126795238Y-173514047D01*
X126613809Y-173574523D01*
X126492857Y-173574523D01*
X128246666Y-173574523D02*
X127520952Y-173574523D01*
X127883809Y-173574523D02*
X127883809Y-172304523D01*
X127762857Y-172485952D01*
X127641904Y-172606904D01*
X127520952Y-172667380D01*
X144976666Y-172304523D02*
X144976666Y-173211666D01*
X144916190Y-173393095D01*
X144795238Y-173514047D01*
X144613809Y-173574523D01*
X144492857Y-173574523D01*
X145520952Y-172425476D02*
X145581428Y-172365000D01*
X145702380Y-172304523D01*
X146004761Y-172304523D01*
X146125714Y-172365000D01*
X146186190Y-172425476D01*
X146246666Y-172546428D01*
X146246666Y-172667380D01*
X146186190Y-172848809D01*
X145460476Y-173574523D01*
X146246666Y-173574523D01*
X83776666Y-174304523D02*
X83776666Y-175211666D01*
X83716190Y-175393095D01*
X83595238Y-175514047D01*
X83413809Y-175574523D01*
X83292857Y-175574523D01*
X84986190Y-174304523D02*
X84381428Y-174304523D01*
X84320952Y-174909285D01*
X84381428Y-174848809D01*
X84502380Y-174788333D01*
X84804761Y-174788333D01*
X84925714Y-174848809D01*
X84986190Y-174909285D01*
X85046666Y-175030238D01*
X85046666Y-175332619D01*
X84986190Y-175453571D01*
X84925714Y-175514047D01*
X84804761Y-175574523D01*
X84502380Y-175574523D01*
X84381428Y-175514047D01*
X84320952Y-175453571D01*
D11*
X145335714Y-89302380D02*
X145335714Y-88302380D01*
X145573809Y-88302380D01*
X145716666Y-88350000D01*
X145811904Y-88445238D01*
X145859523Y-88540476D01*
X145907142Y-88730952D01*
X145907142Y-88873809D01*
X145859523Y-89064285D01*
X145811904Y-89159523D01*
X145716666Y-89254761D01*
X145573809Y-89302380D01*
X145335714Y-89302380D01*
X146859523Y-89302380D02*
X146288095Y-89302380D01*
X146573809Y-89302380D02*
X146573809Y-88302380D01*
X146478571Y-88445238D01*
X146383333Y-88540476D01*
X146288095Y-88588095D01*
X147811904Y-89302380D02*
X147240476Y-89302380D01*
X147526190Y-89302380D02*
X147526190Y-88302380D01*
X147430952Y-88445238D01*
X147335714Y-88540476D01*
X147240476Y-88588095D01*
X100452380Y-158966666D02*
X99976190Y-159300000D01*
X100452380Y-159538095D02*
X99452380Y-159538095D01*
X99452380Y-159157142D01*
X99500000Y-159061904D01*
X99547619Y-159014285D01*
X99642857Y-158966666D01*
X99785714Y-158966666D01*
X99880952Y-159014285D01*
X99928571Y-159061904D01*
X99976190Y-159157142D01*
X99976190Y-159538095D01*
X99785714Y-158109523D02*
X100452380Y-158109523D01*
X99404761Y-158347619D02*
X100119047Y-158585714D01*
X100119047Y-157966666D01*
M02*
