G04 #@! TF.GenerationSoftware,KiCad,Pcbnew,(5.1.2)-2*
G04 #@! TF.CreationDate,2019-12-12T20:57:49+01:00*
G04 #@! TF.ProjectId,Control_board,436f6e74-726f-46c5-9f62-6f6172642e6b,rev?*
G04 #@! TF.SameCoordinates,Original*
G04 #@! TF.FileFunction,Soldermask,Top*
G04 #@! TF.FilePolarity,Negative*
%FSLAX46Y46*%
G04 Gerber Fmt 4.6, Leading zero omitted, Abs format (unit mm)*
G04 Created by KiCad (PCBNEW (5.1.2)-2) date 2019-12-12 20:57:49*
%MOMM*%
%LPD*%
G04 APERTURE LIST*
%ADD10C,0.100000*%
G04 APERTURE END LIST*
D10*
G36*
X172626000Y-176791000D02*
G01*
X171224000Y-176791000D01*
X171224000Y-174539000D01*
X172626000Y-174539000D01*
X172626000Y-176791000D01*
X172626000Y-176791000D01*
G37*
G36*
X162576000Y-176791000D02*
G01*
X161174000Y-176791000D01*
X161174000Y-174539000D01*
X162576000Y-174539000D01*
X162576000Y-176791000D01*
X162576000Y-176791000D01*
G37*
G36*
X143876000Y-176791000D02*
G01*
X142474000Y-176791000D01*
X142474000Y-174539000D01*
X143876000Y-174539000D01*
X143876000Y-176791000D01*
X143876000Y-176791000D01*
G37*
G36*
X133826000Y-176791000D02*
G01*
X132424000Y-176791000D01*
X132424000Y-174539000D01*
X133826000Y-174539000D01*
X133826000Y-176791000D01*
X133826000Y-176791000D01*
G37*
G36*
X158251000Y-176791000D02*
G01*
X156849000Y-176791000D01*
X156849000Y-174539000D01*
X158251000Y-174539000D01*
X158251000Y-176791000D01*
X158251000Y-176791000D01*
G37*
G36*
X148201000Y-176791000D02*
G01*
X146799000Y-176791000D01*
X146799000Y-174539000D01*
X148201000Y-174539000D01*
X148201000Y-176791000D01*
X148201000Y-176791000D01*
G37*
G36*
X86894083Y-170799090D02*
G01*
X87122702Y-170844564D01*
X87409516Y-170963367D01*
X87667642Y-171135841D01*
X87887159Y-171355358D01*
X88059633Y-171613484D01*
X88178436Y-171900298D01*
X88239000Y-172204778D01*
X88239000Y-172515222D01*
X88178436Y-172819702D01*
X88059633Y-173106516D01*
X87887159Y-173364642D01*
X87667642Y-173584159D01*
X87409516Y-173756633D01*
X87122702Y-173875436D01*
X86894083Y-173920910D01*
X86818224Y-173936000D01*
X86507776Y-173936000D01*
X86431917Y-173920910D01*
X86203298Y-173875436D01*
X85916484Y-173756633D01*
X85658358Y-173584159D01*
X85438841Y-173364642D01*
X85266367Y-173106516D01*
X85147564Y-172819702D01*
X85087000Y-172515222D01*
X85087000Y-172204778D01*
X85147564Y-171900298D01*
X85266367Y-171613484D01*
X85438841Y-171355358D01*
X85658358Y-171135841D01*
X85916484Y-170963367D01*
X86203298Y-170844564D01*
X86431917Y-170799090D01*
X86507776Y-170784000D01*
X86818224Y-170784000D01*
X86894083Y-170799090D01*
X86894083Y-170799090D01*
G37*
G36*
X164226000Y-173776000D02*
G01*
X163324000Y-173776000D01*
X163324000Y-172474000D01*
X164226000Y-172474000D01*
X164226000Y-173776000D01*
X164226000Y-173776000D01*
G37*
G36*
X137976000Y-173776000D02*
G01*
X137074000Y-173776000D01*
X137074000Y-172474000D01*
X137976000Y-172474000D01*
X137976000Y-173776000D01*
X137976000Y-173776000D01*
G37*
G36*
X136726000Y-173776000D02*
G01*
X135824000Y-173776000D01*
X135824000Y-172474000D01*
X136726000Y-172474000D01*
X136726000Y-173776000D01*
X136726000Y-173776000D01*
G37*
G36*
X135476000Y-173776000D02*
G01*
X134574000Y-173776000D01*
X134574000Y-172474000D01*
X135476000Y-172474000D01*
X135476000Y-173776000D01*
X135476000Y-173776000D01*
G37*
G36*
X140476000Y-173776000D02*
G01*
X139574000Y-173776000D01*
X139574000Y-172474000D01*
X140476000Y-172474000D01*
X140476000Y-173776000D01*
X140476000Y-173776000D01*
G37*
G36*
X119681083Y-170639090D02*
G01*
X119909702Y-170684564D01*
X120196516Y-170803367D01*
X120454642Y-170975841D01*
X120674159Y-171195358D01*
X120846633Y-171453484D01*
X120965436Y-171740298D01*
X121026000Y-172044778D01*
X121026000Y-172355222D01*
X120965436Y-172659702D01*
X120846633Y-172946516D01*
X120674159Y-173204642D01*
X120454642Y-173424159D01*
X120196516Y-173596633D01*
X119909702Y-173715436D01*
X119681083Y-173760910D01*
X119605224Y-173776000D01*
X119294776Y-173776000D01*
X119218917Y-173760910D01*
X118990298Y-173715436D01*
X118703484Y-173596633D01*
X118445358Y-173424159D01*
X118225841Y-173204642D01*
X118053367Y-172946516D01*
X117934564Y-172659702D01*
X117874000Y-172355222D01*
X117874000Y-172044778D01*
X117934564Y-171740298D01*
X118053367Y-171453484D01*
X118225841Y-171195358D01*
X118445358Y-170975841D01*
X118703484Y-170803367D01*
X118990298Y-170684564D01*
X119218917Y-170639090D01*
X119294776Y-170624000D01*
X119605224Y-170624000D01*
X119681083Y-170639090D01*
X119681083Y-170639090D01*
G37*
G36*
X170476000Y-173776000D02*
G01*
X169574000Y-173776000D01*
X169574000Y-172474000D01*
X170476000Y-172474000D01*
X170476000Y-173776000D01*
X170476000Y-173776000D01*
G37*
G36*
X169226000Y-173776000D02*
G01*
X168324000Y-173776000D01*
X168324000Y-172474000D01*
X169226000Y-172474000D01*
X169226000Y-173776000D01*
X169226000Y-173776000D01*
G37*
G36*
X167976000Y-173776000D02*
G01*
X167074000Y-173776000D01*
X167074000Y-172474000D01*
X167976000Y-172474000D01*
X167976000Y-173776000D01*
X167976000Y-173776000D01*
G37*
G36*
X166726000Y-173776000D02*
G01*
X165824000Y-173776000D01*
X165824000Y-172474000D01*
X166726000Y-172474000D01*
X166726000Y-173776000D01*
X166726000Y-173776000D01*
G37*
G36*
X139226000Y-173776000D02*
G01*
X138324000Y-173776000D01*
X138324000Y-172474000D01*
X139226000Y-172474000D01*
X139226000Y-173776000D01*
X139226000Y-173776000D01*
G37*
G36*
X111481083Y-170639090D02*
G01*
X111709702Y-170684564D01*
X111996516Y-170803367D01*
X112254642Y-170975841D01*
X112474159Y-171195358D01*
X112646633Y-171453484D01*
X112765436Y-171740298D01*
X112826000Y-172044778D01*
X112826000Y-172355222D01*
X112765436Y-172659702D01*
X112646633Y-172946516D01*
X112474159Y-173204642D01*
X112254642Y-173424159D01*
X111996516Y-173596633D01*
X111709702Y-173715436D01*
X111481083Y-173760910D01*
X111405224Y-173776000D01*
X111094776Y-173776000D01*
X111018917Y-173760910D01*
X110790298Y-173715436D01*
X110503484Y-173596633D01*
X110245358Y-173424159D01*
X110025841Y-173204642D01*
X109853367Y-172946516D01*
X109734564Y-172659702D01*
X109674000Y-172355222D01*
X109674000Y-172044778D01*
X109734564Y-171740298D01*
X109853367Y-171453484D01*
X110025841Y-171195358D01*
X110245358Y-170975841D01*
X110503484Y-170803367D01*
X110790298Y-170684564D01*
X111018917Y-170639090D01*
X111094776Y-170624000D01*
X111405224Y-170624000D01*
X111481083Y-170639090D01*
X111481083Y-170639090D01*
G37*
G36*
X149851000Y-173776000D02*
G01*
X148949000Y-173776000D01*
X148949000Y-172474000D01*
X149851000Y-172474000D01*
X149851000Y-173776000D01*
X149851000Y-173776000D01*
G37*
G36*
X151101000Y-173776000D02*
G01*
X150199000Y-173776000D01*
X150199000Y-172474000D01*
X151101000Y-172474000D01*
X151101000Y-173776000D01*
X151101000Y-173776000D01*
G37*
G36*
X152351000Y-173776000D02*
G01*
X151449000Y-173776000D01*
X151449000Y-172474000D01*
X152351000Y-172474000D01*
X152351000Y-173776000D01*
X152351000Y-173776000D01*
G37*
G36*
X153601000Y-173776000D02*
G01*
X152699000Y-173776000D01*
X152699000Y-172474000D01*
X153601000Y-172474000D01*
X153601000Y-173776000D01*
X153601000Y-173776000D01*
G37*
G36*
X154851000Y-173776000D02*
G01*
X153949000Y-173776000D01*
X153949000Y-172474000D01*
X154851000Y-172474000D01*
X154851000Y-173776000D01*
X154851000Y-173776000D01*
G37*
G36*
X156101000Y-173776000D02*
G01*
X155199000Y-173776000D01*
X155199000Y-172474000D01*
X156101000Y-172474000D01*
X156101000Y-173776000D01*
X156101000Y-173776000D01*
G37*
G36*
X141726000Y-173776000D02*
G01*
X140824000Y-173776000D01*
X140824000Y-172474000D01*
X141726000Y-172474000D01*
X141726000Y-173776000D01*
X141726000Y-173776000D01*
G37*
G36*
X165476000Y-173776000D02*
G01*
X164574000Y-173776000D01*
X164574000Y-172474000D01*
X165476000Y-172474000D01*
X165476000Y-173776000D01*
X165476000Y-173776000D01*
G37*
G36*
X100100288Y-171527762D02*
G01*
X100248335Y-171589085D01*
X100248337Y-171589086D01*
X100381576Y-171678113D01*
X100494887Y-171791424D01*
X100583914Y-171924663D01*
X100583915Y-171924665D01*
X100645238Y-172072712D01*
X100676500Y-172229876D01*
X100676500Y-172390124D01*
X100645238Y-172547288D01*
X100583915Y-172695335D01*
X100583914Y-172695337D01*
X100494887Y-172828576D01*
X100381576Y-172941887D01*
X100248337Y-173030914D01*
X100248336Y-173030915D01*
X100248335Y-173030915D01*
X100100288Y-173092238D01*
X99943124Y-173123500D01*
X99782876Y-173123500D01*
X99625712Y-173092238D01*
X99477665Y-173030915D01*
X99477664Y-173030915D01*
X99477663Y-173030914D01*
X99344424Y-172941887D01*
X99231113Y-172828576D01*
X99142086Y-172695337D01*
X99142085Y-172695335D01*
X99080762Y-172547288D01*
X99049500Y-172390124D01*
X99049500Y-172229876D01*
X99080762Y-172072712D01*
X99142085Y-171924665D01*
X99142086Y-171924663D01*
X99231113Y-171791424D01*
X99344424Y-171678113D01*
X99477663Y-171589086D01*
X99477665Y-171589085D01*
X99625712Y-171527762D01*
X99782876Y-171496500D01*
X99943124Y-171496500D01*
X100100288Y-171527762D01*
X100100288Y-171527762D01*
G37*
G36*
X136776000Y-169426000D02*
G01*
X134924000Y-169426000D01*
X134924000Y-168374000D01*
X136776000Y-168374000D01*
X136776000Y-169426000D01*
X136776000Y-169426000D01*
G37*
G36*
X85356992Y-167208366D02*
G01*
X85411957Y-167219299D01*
X85567284Y-167283638D01*
X85707075Y-167377043D01*
X85825957Y-167495925D01*
X85919362Y-167635716D01*
X85983701Y-167791043D01*
X85994634Y-167846008D01*
X86016500Y-167955936D01*
X86016500Y-168124064D01*
X85999480Y-168209629D01*
X85983701Y-168288957D01*
X85919362Y-168444284D01*
X85825957Y-168584075D01*
X85707075Y-168702957D01*
X85567284Y-168796362D01*
X85411957Y-168860701D01*
X85356992Y-168871634D01*
X85247064Y-168893500D01*
X85078936Y-168893500D01*
X84969008Y-168871634D01*
X84914043Y-168860701D01*
X84758716Y-168796362D01*
X84618925Y-168702957D01*
X84500043Y-168584075D01*
X84406638Y-168444284D01*
X84342299Y-168288957D01*
X84326520Y-168209629D01*
X84309500Y-168124064D01*
X84309500Y-167955936D01*
X84331366Y-167846008D01*
X84342299Y-167791043D01*
X84406638Y-167635716D01*
X84500043Y-167495925D01*
X84618925Y-167377043D01*
X84758716Y-167283638D01*
X84914043Y-167219299D01*
X84969008Y-167208366D01*
X85078936Y-167186500D01*
X85247064Y-167186500D01*
X85356992Y-167208366D01*
X85356992Y-167208366D01*
G37*
G36*
X88356992Y-167208366D02*
G01*
X88411957Y-167219299D01*
X88567284Y-167283638D01*
X88707075Y-167377043D01*
X88825957Y-167495925D01*
X88919362Y-167635716D01*
X88983701Y-167791043D01*
X88994634Y-167846008D01*
X89016500Y-167955936D01*
X89016500Y-168124064D01*
X88999480Y-168209629D01*
X88983701Y-168288957D01*
X88919362Y-168444284D01*
X88825957Y-168584075D01*
X88707075Y-168702957D01*
X88567284Y-168796362D01*
X88411957Y-168860701D01*
X88356992Y-168871634D01*
X88247064Y-168893500D01*
X88078936Y-168893500D01*
X87969008Y-168871634D01*
X87914043Y-168860701D01*
X87758716Y-168796362D01*
X87618925Y-168702957D01*
X87500043Y-168584075D01*
X87406638Y-168444284D01*
X87342299Y-168288957D01*
X87326520Y-168209629D01*
X87309500Y-168124064D01*
X87309500Y-167955936D01*
X87331366Y-167846008D01*
X87342299Y-167791043D01*
X87406638Y-167635716D01*
X87500043Y-167495925D01*
X87618925Y-167377043D01*
X87758716Y-167283638D01*
X87914043Y-167219299D01*
X87969008Y-167208366D01*
X88078936Y-167186500D01*
X88247064Y-167186500D01*
X88356992Y-167208366D01*
X88356992Y-167208366D01*
G37*
G36*
X101556992Y-167158366D02*
G01*
X101611957Y-167169299D01*
X101767284Y-167233638D01*
X101907075Y-167327043D01*
X102025957Y-167445925D01*
X102119362Y-167585716D01*
X102183701Y-167741043D01*
X102216500Y-167905938D01*
X102216500Y-168074062D01*
X102183701Y-168238957D01*
X102119362Y-168394284D01*
X102025957Y-168534075D01*
X101907075Y-168652957D01*
X101767284Y-168746362D01*
X101611957Y-168810701D01*
X101556992Y-168821634D01*
X101447064Y-168843500D01*
X101278936Y-168843500D01*
X101169008Y-168821634D01*
X101114043Y-168810701D01*
X100958716Y-168746362D01*
X100818925Y-168652957D01*
X100700043Y-168534075D01*
X100606638Y-168394284D01*
X100542299Y-168238957D01*
X100509500Y-168074062D01*
X100509500Y-167905938D01*
X100542299Y-167741043D01*
X100606638Y-167585716D01*
X100700043Y-167445925D01*
X100818925Y-167327043D01*
X100958716Y-167233638D01*
X101114043Y-167169299D01*
X101169008Y-167158366D01*
X101278936Y-167136500D01*
X101447064Y-167136500D01*
X101556992Y-167158366D01*
X101556992Y-167158366D01*
G37*
G36*
X98556992Y-167158366D02*
G01*
X98611957Y-167169299D01*
X98767284Y-167233638D01*
X98907075Y-167327043D01*
X99025957Y-167445925D01*
X99119362Y-167585716D01*
X99183701Y-167741043D01*
X99216500Y-167905938D01*
X99216500Y-168074062D01*
X99183701Y-168238957D01*
X99119362Y-168394284D01*
X99025957Y-168534075D01*
X98907075Y-168652957D01*
X98767284Y-168746362D01*
X98611957Y-168810701D01*
X98556992Y-168821634D01*
X98447064Y-168843500D01*
X98278936Y-168843500D01*
X98169008Y-168821634D01*
X98114043Y-168810701D01*
X97958716Y-168746362D01*
X97818925Y-168652957D01*
X97700043Y-168534075D01*
X97606638Y-168394284D01*
X97542299Y-168238957D01*
X97509500Y-168074062D01*
X97509500Y-167905938D01*
X97542299Y-167741043D01*
X97606638Y-167585716D01*
X97700043Y-167445925D01*
X97818925Y-167327043D01*
X97958716Y-167233638D01*
X98114043Y-167169299D01*
X98169008Y-167158366D01*
X98278936Y-167136500D01*
X98447064Y-167136500D01*
X98556992Y-167158366D01*
X98556992Y-167158366D01*
G37*
G36*
X119701143Y-167052087D02*
G01*
X119857838Y-167116992D01*
X119998853Y-167211215D01*
X120118785Y-167331147D01*
X120213008Y-167472162D01*
X120277913Y-167628857D01*
X120311000Y-167795198D01*
X120311000Y-167964802D01*
X120277913Y-168131143D01*
X120213008Y-168287838D01*
X120118785Y-168428853D01*
X119998853Y-168548785D01*
X119857838Y-168643008D01*
X119701143Y-168707913D01*
X119534802Y-168741000D01*
X119365198Y-168741000D01*
X119198857Y-168707913D01*
X119042162Y-168643008D01*
X118901147Y-168548785D01*
X118781215Y-168428853D01*
X118686992Y-168287838D01*
X118622087Y-168131143D01*
X118589000Y-167964802D01*
X118589000Y-167795198D01*
X118622087Y-167628857D01*
X118686992Y-167472162D01*
X118781215Y-167331147D01*
X118901147Y-167211215D01*
X119042162Y-167116992D01*
X119198857Y-167052087D01*
X119365198Y-167019000D01*
X119534802Y-167019000D01*
X119701143Y-167052087D01*
X119701143Y-167052087D01*
G37*
G36*
X111501143Y-167052087D02*
G01*
X111657838Y-167116992D01*
X111798853Y-167211215D01*
X111918785Y-167331147D01*
X112013008Y-167472162D01*
X112077913Y-167628857D01*
X112111000Y-167795198D01*
X112111000Y-167964802D01*
X112077913Y-168131143D01*
X112013008Y-168287838D01*
X111918785Y-168428853D01*
X111798853Y-168548785D01*
X111657838Y-168643008D01*
X111501143Y-168707913D01*
X111334802Y-168741000D01*
X111165198Y-168741000D01*
X110998857Y-168707913D01*
X110842162Y-168643008D01*
X110701147Y-168548785D01*
X110581215Y-168428853D01*
X110486992Y-168287838D01*
X110422087Y-168131143D01*
X110389000Y-167964802D01*
X110389000Y-167795198D01*
X110422087Y-167628857D01*
X110486992Y-167472162D01*
X110581215Y-167331147D01*
X110701147Y-167211215D01*
X110842162Y-167116992D01*
X110998857Y-167052087D01*
X111165198Y-167019000D01*
X111334802Y-167019000D01*
X111501143Y-167052087D01*
X111501143Y-167052087D01*
G37*
G36*
X164142007Y-164383582D02*
G01*
X164439360Y-164506750D01*
X164542565Y-164549499D01*
X164903056Y-164790371D01*
X165209629Y-165096944D01*
X165450501Y-165457435D01*
X165450502Y-165457437D01*
X165616418Y-165857993D01*
X165701000Y-166283219D01*
X165701000Y-166716781D01*
X165616418Y-167142007D01*
X165450502Y-167542563D01*
X165450501Y-167542565D01*
X165209629Y-167903056D01*
X164903056Y-168209629D01*
X164542565Y-168450501D01*
X164542564Y-168450502D01*
X164542563Y-168450502D01*
X164142007Y-168616418D01*
X163716781Y-168701000D01*
X163283219Y-168701000D01*
X162857993Y-168616418D01*
X162457437Y-168450502D01*
X162457436Y-168450502D01*
X162457435Y-168450501D01*
X162096944Y-168209629D01*
X161790371Y-167903056D01*
X161549499Y-167542565D01*
X161549498Y-167542563D01*
X161383582Y-167142007D01*
X161299000Y-166716781D01*
X161299000Y-166283219D01*
X161383582Y-165857993D01*
X161549498Y-165457437D01*
X161549499Y-165457435D01*
X161790371Y-165096944D01*
X162096944Y-164790371D01*
X162457435Y-164549499D01*
X162560640Y-164506750D01*
X162857993Y-164383582D01*
X163283219Y-164299000D01*
X163716781Y-164299000D01*
X164142007Y-164383582D01*
X164142007Y-164383582D01*
G37*
G36*
X143076000Y-168251000D02*
G01*
X141224000Y-168251000D01*
X141224000Y-164949000D01*
X143076000Y-164949000D01*
X143076000Y-168251000D01*
X143076000Y-168251000D01*
G37*
G36*
X136776000Y-167126000D02*
G01*
X134924000Y-167126000D01*
X134924000Y-166074000D01*
X136776000Y-166074000D01*
X136776000Y-167126000D01*
X136776000Y-167126000D01*
G37*
G36*
X147479591Y-165353085D02*
G01*
X147513569Y-165363393D01*
X147544890Y-165380134D01*
X147572339Y-165402661D01*
X147594866Y-165430110D01*
X147611607Y-165461431D01*
X147621915Y-165495409D01*
X147626000Y-165536890D01*
X147626000Y-166138110D01*
X147621915Y-166179591D01*
X147611607Y-166213569D01*
X147594866Y-166244890D01*
X147572339Y-166272339D01*
X147544890Y-166294866D01*
X147513569Y-166311607D01*
X147479591Y-166321915D01*
X147438110Y-166326000D01*
X146761890Y-166326000D01*
X146720409Y-166321915D01*
X146686431Y-166311607D01*
X146655110Y-166294866D01*
X146627661Y-166272339D01*
X146605134Y-166244890D01*
X146588393Y-166213569D01*
X146578085Y-166179591D01*
X146574000Y-166138110D01*
X146574000Y-165536890D01*
X146578085Y-165495409D01*
X146588393Y-165461431D01*
X146605134Y-165430110D01*
X146627661Y-165402661D01*
X146655110Y-165380134D01*
X146686431Y-165363393D01*
X146720409Y-165353085D01*
X146761890Y-165349000D01*
X147438110Y-165349000D01*
X147479591Y-165353085D01*
X147479591Y-165353085D01*
G37*
G36*
X145479591Y-165340585D02*
G01*
X145513569Y-165350893D01*
X145544890Y-165367634D01*
X145572339Y-165390161D01*
X145594866Y-165417610D01*
X145611607Y-165448931D01*
X145621915Y-165482909D01*
X145626000Y-165524390D01*
X145626000Y-166125610D01*
X145621915Y-166167091D01*
X145611607Y-166201069D01*
X145594866Y-166232390D01*
X145572339Y-166259839D01*
X145544890Y-166282366D01*
X145513569Y-166299107D01*
X145479591Y-166309415D01*
X145438110Y-166313500D01*
X144761890Y-166313500D01*
X144720409Y-166309415D01*
X144686431Y-166299107D01*
X144655110Y-166282366D01*
X144627661Y-166259839D01*
X144605134Y-166232390D01*
X144588393Y-166201069D01*
X144578085Y-166167091D01*
X144574000Y-166125610D01*
X144574000Y-165524390D01*
X144578085Y-165482909D01*
X144588393Y-165448931D01*
X144605134Y-165417610D01*
X144627661Y-165390161D01*
X144655110Y-165367634D01*
X144686431Y-165350893D01*
X144720409Y-165340585D01*
X144761890Y-165336500D01*
X145438110Y-165336500D01*
X145479591Y-165340585D01*
X145479591Y-165340585D01*
G37*
G36*
X85356992Y-164208366D02*
G01*
X85411957Y-164219299D01*
X85567284Y-164283638D01*
X85707075Y-164377043D01*
X85825957Y-164495925D01*
X85919362Y-164635716D01*
X85983701Y-164791043D01*
X85990654Y-164826000D01*
X86016500Y-164955936D01*
X86016500Y-165124064D01*
X85994634Y-165233992D01*
X85983701Y-165288957D01*
X85919362Y-165444284D01*
X85825957Y-165584075D01*
X85707075Y-165702957D01*
X85567284Y-165796362D01*
X85411957Y-165860701D01*
X85356992Y-165871634D01*
X85247064Y-165893500D01*
X85078936Y-165893500D01*
X84969008Y-165871634D01*
X84914043Y-165860701D01*
X84758716Y-165796362D01*
X84618925Y-165702957D01*
X84500043Y-165584075D01*
X84406638Y-165444284D01*
X84342299Y-165288957D01*
X84331366Y-165233992D01*
X84309500Y-165124064D01*
X84309500Y-164955936D01*
X84335346Y-164826000D01*
X84342299Y-164791043D01*
X84406638Y-164635716D01*
X84500043Y-164495925D01*
X84618925Y-164377043D01*
X84758716Y-164283638D01*
X84914043Y-164219299D01*
X84969008Y-164208366D01*
X85078936Y-164186500D01*
X85247064Y-164186500D01*
X85356992Y-164208366D01*
X85356992Y-164208366D01*
G37*
G36*
X88356992Y-164208366D02*
G01*
X88411957Y-164219299D01*
X88567284Y-164283638D01*
X88707075Y-164377043D01*
X88825957Y-164495925D01*
X88919362Y-164635716D01*
X88983701Y-164791043D01*
X88990654Y-164826000D01*
X89016500Y-164955936D01*
X89016500Y-165124064D01*
X88994634Y-165233992D01*
X88983701Y-165288957D01*
X88919362Y-165444284D01*
X88825957Y-165584075D01*
X88707075Y-165702957D01*
X88567284Y-165796362D01*
X88411957Y-165860701D01*
X88356992Y-165871634D01*
X88247064Y-165893500D01*
X88078936Y-165893500D01*
X87969008Y-165871634D01*
X87914043Y-165860701D01*
X87758716Y-165796362D01*
X87618925Y-165702957D01*
X87500043Y-165584075D01*
X87406638Y-165444284D01*
X87342299Y-165288957D01*
X87331366Y-165233992D01*
X87309500Y-165124064D01*
X87309500Y-164955936D01*
X87335346Y-164826000D01*
X87342299Y-164791043D01*
X87406638Y-164635716D01*
X87500043Y-164495925D01*
X87618925Y-164377043D01*
X87758716Y-164283638D01*
X87914043Y-164219299D01*
X87969008Y-164208366D01*
X88078936Y-164186500D01*
X88247064Y-164186500D01*
X88356992Y-164208366D01*
X88356992Y-164208366D01*
G37*
G36*
X101556992Y-164158366D02*
G01*
X101611957Y-164169299D01*
X101767284Y-164233638D01*
X101907075Y-164327043D01*
X102025957Y-164445925D01*
X102119362Y-164585716D01*
X102183701Y-164741043D01*
X102193513Y-164790371D01*
X102216500Y-164905936D01*
X102216500Y-165074064D01*
X102206555Y-165124062D01*
X102183701Y-165238957D01*
X102119362Y-165394284D01*
X102025957Y-165534075D01*
X101907075Y-165652957D01*
X101767284Y-165746362D01*
X101611957Y-165810701D01*
X101556992Y-165821634D01*
X101447064Y-165843500D01*
X101278936Y-165843500D01*
X101169008Y-165821634D01*
X101114043Y-165810701D01*
X100958716Y-165746362D01*
X100818925Y-165652957D01*
X100700043Y-165534075D01*
X100606638Y-165394284D01*
X100542299Y-165238957D01*
X100519445Y-165124062D01*
X100509500Y-165074064D01*
X100509500Y-164905936D01*
X100532487Y-164790371D01*
X100542299Y-164741043D01*
X100606638Y-164585716D01*
X100700043Y-164445925D01*
X100818925Y-164327043D01*
X100958716Y-164233638D01*
X101114043Y-164169299D01*
X101169008Y-164158366D01*
X101278936Y-164136500D01*
X101447064Y-164136500D01*
X101556992Y-164158366D01*
X101556992Y-164158366D01*
G37*
G36*
X98556992Y-164158366D02*
G01*
X98611957Y-164169299D01*
X98767284Y-164233638D01*
X98907075Y-164327043D01*
X99025957Y-164445925D01*
X99119362Y-164585716D01*
X99183701Y-164741043D01*
X99193513Y-164790371D01*
X99216500Y-164905936D01*
X99216500Y-165074064D01*
X99206555Y-165124062D01*
X99183701Y-165238957D01*
X99119362Y-165394284D01*
X99025957Y-165534075D01*
X98907075Y-165652957D01*
X98767284Y-165746362D01*
X98611957Y-165810701D01*
X98556992Y-165821634D01*
X98447064Y-165843500D01*
X98278936Y-165843500D01*
X98169008Y-165821634D01*
X98114043Y-165810701D01*
X97958716Y-165746362D01*
X97818925Y-165652957D01*
X97700043Y-165534075D01*
X97606638Y-165394284D01*
X97542299Y-165238957D01*
X97519445Y-165124062D01*
X97509500Y-165074064D01*
X97509500Y-164905936D01*
X97532487Y-164790371D01*
X97542299Y-164741043D01*
X97606638Y-164585716D01*
X97700043Y-164445925D01*
X97818925Y-164327043D01*
X97958716Y-164233638D01*
X98114043Y-164169299D01*
X98169008Y-164158366D01*
X98278936Y-164136500D01*
X98447064Y-164136500D01*
X98556992Y-164158366D01*
X98556992Y-164158366D01*
G37*
G36*
X111501143Y-164052087D02*
G01*
X111657838Y-164116992D01*
X111798853Y-164211215D01*
X111918785Y-164331147D01*
X112013008Y-164472162D01*
X112077913Y-164628857D01*
X112111000Y-164795198D01*
X112111000Y-164964802D01*
X112077913Y-165131143D01*
X112013008Y-165287838D01*
X111918785Y-165428853D01*
X111798853Y-165548785D01*
X111657838Y-165643008D01*
X111501143Y-165707913D01*
X111334802Y-165741000D01*
X111165198Y-165741000D01*
X110998857Y-165707913D01*
X110842162Y-165643008D01*
X110701147Y-165548785D01*
X110581215Y-165428853D01*
X110486992Y-165287838D01*
X110422087Y-165131143D01*
X110389000Y-164964802D01*
X110389000Y-164795198D01*
X110422087Y-164628857D01*
X110486992Y-164472162D01*
X110581215Y-164331147D01*
X110701147Y-164211215D01*
X110842162Y-164116992D01*
X110998857Y-164052087D01*
X111165198Y-164019000D01*
X111334802Y-164019000D01*
X111501143Y-164052087D01*
X111501143Y-164052087D01*
G37*
G36*
X119701143Y-164052087D02*
G01*
X119857838Y-164116992D01*
X119998853Y-164211215D01*
X120118785Y-164331147D01*
X120213008Y-164472162D01*
X120277913Y-164628857D01*
X120311000Y-164795198D01*
X120311000Y-164964802D01*
X120277913Y-165131143D01*
X120213008Y-165287838D01*
X120118785Y-165428853D01*
X119998853Y-165548785D01*
X119857838Y-165643008D01*
X119701143Y-165707913D01*
X119534802Y-165741000D01*
X119365198Y-165741000D01*
X119198857Y-165707913D01*
X119042162Y-165643008D01*
X118901147Y-165548785D01*
X118781215Y-165428853D01*
X118686992Y-165287838D01*
X118622087Y-165131143D01*
X118589000Y-164964802D01*
X118589000Y-164795198D01*
X118622087Y-164628857D01*
X118686992Y-164472162D01*
X118781215Y-164331147D01*
X118901147Y-164211215D01*
X119042162Y-164116992D01*
X119198857Y-164052087D01*
X119365198Y-164019000D01*
X119534802Y-164019000D01*
X119701143Y-164052087D01*
X119701143Y-164052087D01*
G37*
G36*
X136776000Y-164826000D02*
G01*
X134924000Y-164826000D01*
X134924000Y-163774000D01*
X136776000Y-163774000D01*
X136776000Y-164826000D01*
X136776000Y-164826000D01*
G37*
G36*
X147479591Y-163778085D02*
G01*
X147513569Y-163788393D01*
X147544890Y-163805134D01*
X147572339Y-163827661D01*
X147594866Y-163855110D01*
X147611607Y-163886431D01*
X147621915Y-163920409D01*
X147626000Y-163961890D01*
X147626000Y-164563110D01*
X147621915Y-164604591D01*
X147611607Y-164638569D01*
X147594866Y-164669890D01*
X147572339Y-164697339D01*
X147544890Y-164719866D01*
X147513569Y-164736607D01*
X147479591Y-164746915D01*
X147438110Y-164751000D01*
X146761890Y-164751000D01*
X146720409Y-164746915D01*
X146686431Y-164736607D01*
X146655110Y-164719866D01*
X146627661Y-164697339D01*
X146605134Y-164669890D01*
X146588393Y-164638569D01*
X146578085Y-164604591D01*
X146574000Y-164563110D01*
X146574000Y-163961890D01*
X146578085Y-163920409D01*
X146588393Y-163886431D01*
X146605134Y-163855110D01*
X146627661Y-163827661D01*
X146655110Y-163805134D01*
X146686431Y-163788393D01*
X146720409Y-163778085D01*
X146761890Y-163774000D01*
X147438110Y-163774000D01*
X147479591Y-163778085D01*
X147479591Y-163778085D01*
G37*
G36*
X145479591Y-163765585D02*
G01*
X145513569Y-163775893D01*
X145544890Y-163792634D01*
X145572339Y-163815161D01*
X145594866Y-163842610D01*
X145611607Y-163873931D01*
X145621915Y-163907909D01*
X145626000Y-163949390D01*
X145626000Y-164550610D01*
X145621915Y-164592091D01*
X145611607Y-164626069D01*
X145594866Y-164657390D01*
X145572339Y-164684839D01*
X145544890Y-164707366D01*
X145513569Y-164724107D01*
X145479591Y-164734415D01*
X145438110Y-164738500D01*
X144761890Y-164738500D01*
X144720409Y-164734415D01*
X144686431Y-164724107D01*
X144655110Y-164707366D01*
X144627661Y-164684839D01*
X144605134Y-164657390D01*
X144588393Y-164626069D01*
X144578085Y-164592091D01*
X144574000Y-164550610D01*
X144574000Y-163949390D01*
X144578085Y-163907909D01*
X144588393Y-163873931D01*
X144605134Y-163842610D01*
X144627661Y-163815161D01*
X144655110Y-163792634D01*
X144686431Y-163775893D01*
X144720409Y-163765585D01*
X144761890Y-163761500D01*
X145438110Y-163761500D01*
X145479591Y-163765585D01*
X145479591Y-163765585D01*
G37*
G36*
X150829591Y-162340585D02*
G01*
X150863569Y-162350893D01*
X150894890Y-162367634D01*
X150922339Y-162390161D01*
X150944866Y-162417610D01*
X150961607Y-162448931D01*
X150971915Y-162482909D01*
X150976000Y-162524390D01*
X150976000Y-163125610D01*
X150971915Y-163167091D01*
X150961607Y-163201069D01*
X150944866Y-163232390D01*
X150922339Y-163259839D01*
X150894890Y-163282366D01*
X150863569Y-163299107D01*
X150829591Y-163309415D01*
X150788110Y-163313500D01*
X150111890Y-163313500D01*
X150070409Y-163309415D01*
X150036431Y-163299107D01*
X150005110Y-163282366D01*
X149977661Y-163259839D01*
X149955134Y-163232390D01*
X149938393Y-163201069D01*
X149928085Y-163167091D01*
X149924000Y-163125610D01*
X149924000Y-162524390D01*
X149928085Y-162482909D01*
X149938393Y-162448931D01*
X149955134Y-162417610D01*
X149977661Y-162390161D01*
X150005110Y-162367634D01*
X150036431Y-162350893D01*
X150070409Y-162340585D01*
X150111890Y-162336500D01*
X150788110Y-162336500D01*
X150829591Y-162340585D01*
X150829591Y-162340585D01*
G37*
G36*
X150829591Y-160765585D02*
G01*
X150863569Y-160775893D01*
X150894890Y-160792634D01*
X150922339Y-160815161D01*
X150944866Y-160842610D01*
X150961607Y-160873931D01*
X150971915Y-160907909D01*
X150976000Y-160949390D01*
X150976000Y-161550610D01*
X150971915Y-161592091D01*
X150961607Y-161626069D01*
X150944866Y-161657390D01*
X150922339Y-161684839D01*
X150894890Y-161707366D01*
X150863569Y-161724107D01*
X150829591Y-161734415D01*
X150788110Y-161738500D01*
X150111890Y-161738500D01*
X150070409Y-161734415D01*
X150036431Y-161724107D01*
X150005110Y-161707366D01*
X149977661Y-161684839D01*
X149955134Y-161657390D01*
X149938393Y-161626069D01*
X149928085Y-161592091D01*
X149924000Y-161550610D01*
X149924000Y-160949390D01*
X149928085Y-160907909D01*
X149938393Y-160873931D01*
X149955134Y-160842610D01*
X149977661Y-160815161D01*
X150005110Y-160792634D01*
X150036431Y-160775893D01*
X150070409Y-160765585D01*
X150111890Y-160761500D01*
X150788110Y-160761500D01*
X150829591Y-160765585D01*
X150829591Y-160765585D01*
G37*
G36*
X165331850Y-157502664D02*
G01*
X165481579Y-157532447D01*
X165572365Y-157570052D01*
X165777772Y-157655134D01*
X165782042Y-157656903D01*
X166052451Y-157837585D01*
X166282415Y-158067549D01*
X166455107Y-158326000D01*
X166463098Y-158337960D01*
X166482516Y-158384839D01*
X166580892Y-158622339D01*
X166587553Y-158638422D01*
X166649630Y-158950501D01*
X166651000Y-158957391D01*
X166651000Y-159282609D01*
X166587553Y-159601579D01*
X166463097Y-159902042D01*
X166282415Y-160172451D01*
X166052451Y-160402415D01*
X165782042Y-160583097D01*
X165481579Y-160707553D01*
X165375256Y-160728702D01*
X165162611Y-160771000D01*
X164837389Y-160771000D01*
X164624744Y-160728702D01*
X164518421Y-160707553D01*
X164217958Y-160583097D01*
X163947549Y-160402415D01*
X163717585Y-160172451D01*
X163536903Y-159902042D01*
X163412447Y-159601579D01*
X163349000Y-159282609D01*
X163349000Y-158957391D01*
X163350371Y-158950501D01*
X163412447Y-158638422D01*
X163419109Y-158622339D01*
X163517484Y-158384839D01*
X163536902Y-158337960D01*
X163544893Y-158326000D01*
X163717585Y-158067549D01*
X163947549Y-157837585D01*
X164217958Y-157656903D01*
X164222229Y-157655134D01*
X164427635Y-157570052D01*
X164518421Y-157532447D01*
X164668150Y-157502664D01*
X164837389Y-157469000D01*
X165162611Y-157469000D01*
X165331850Y-157502664D01*
X165331850Y-157502664D01*
G37*
G36*
X150829591Y-159040585D02*
G01*
X150863569Y-159050893D01*
X150894890Y-159067634D01*
X150922339Y-159090161D01*
X150944866Y-159117610D01*
X150961607Y-159148931D01*
X150971915Y-159182909D01*
X150976000Y-159224390D01*
X150976000Y-159825610D01*
X150971915Y-159867091D01*
X150961607Y-159901069D01*
X150944866Y-159932390D01*
X150922339Y-159959839D01*
X150894890Y-159982366D01*
X150863569Y-159999107D01*
X150829591Y-160009415D01*
X150788110Y-160013500D01*
X150111890Y-160013500D01*
X150070409Y-160009415D01*
X150036431Y-159999107D01*
X150005110Y-159982366D01*
X149977661Y-159959839D01*
X149955134Y-159932390D01*
X149938393Y-159901069D01*
X149928085Y-159867091D01*
X149924000Y-159825610D01*
X149924000Y-159224390D01*
X149928085Y-159182909D01*
X149938393Y-159148931D01*
X149955134Y-159117610D01*
X149977661Y-159090161D01*
X150005110Y-159067634D01*
X150036431Y-159050893D01*
X150070409Y-159040585D01*
X150111890Y-159036500D01*
X150788110Y-159036500D01*
X150829591Y-159040585D01*
X150829591Y-159040585D01*
G37*
G36*
X90142007Y-154883582D02*
G01*
X90541619Y-155049107D01*
X90542565Y-155049499D01*
X90903056Y-155290371D01*
X91209629Y-155596944D01*
X91434240Y-155933099D01*
X91450502Y-155957437D01*
X91616418Y-156357993D01*
X91701000Y-156783219D01*
X91701000Y-157216781D01*
X91616418Y-157642007D01*
X91491639Y-157943250D01*
X91450501Y-158042565D01*
X91209629Y-158403056D01*
X90903056Y-158709629D01*
X90542565Y-158950501D01*
X90542564Y-158950502D01*
X90542563Y-158950502D01*
X90142007Y-159116418D01*
X89716781Y-159201000D01*
X89283219Y-159201000D01*
X88857993Y-159116418D01*
X88457437Y-158950502D01*
X88457436Y-158950502D01*
X88457435Y-158950501D01*
X88096944Y-158709629D01*
X87790371Y-158403056D01*
X87549499Y-158042565D01*
X87508361Y-157943250D01*
X87383582Y-157642007D01*
X87299000Y-157216781D01*
X87299000Y-156783219D01*
X87383582Y-156357993D01*
X87549498Y-155957437D01*
X87565760Y-155933099D01*
X87790371Y-155596944D01*
X88096944Y-155290371D01*
X88457435Y-155049499D01*
X88458381Y-155049107D01*
X88857993Y-154883582D01*
X89283219Y-154799000D01*
X89716781Y-154799000D01*
X90142007Y-154883582D01*
X90142007Y-154883582D01*
G37*
G36*
X143401000Y-158826000D02*
G01*
X142199000Y-158826000D01*
X142199000Y-156474000D01*
X143401000Y-156474000D01*
X143401000Y-158826000D01*
X143401000Y-158826000D01*
G37*
G36*
X139101000Y-158826000D02*
G01*
X137899000Y-158826000D01*
X137899000Y-156474000D01*
X139101000Y-156474000D01*
X139101000Y-158826000D01*
X139101000Y-158826000D01*
G37*
G36*
X111667091Y-157628085D02*
G01*
X111701069Y-157638393D01*
X111732390Y-157655134D01*
X111759839Y-157677661D01*
X111782366Y-157705110D01*
X111799107Y-157736431D01*
X111809415Y-157770409D01*
X111813500Y-157811890D01*
X111813500Y-158488110D01*
X111809415Y-158529591D01*
X111799107Y-158563569D01*
X111782366Y-158594890D01*
X111759839Y-158622339D01*
X111732390Y-158644866D01*
X111701069Y-158661607D01*
X111667091Y-158671915D01*
X111625610Y-158676000D01*
X111024390Y-158676000D01*
X110982909Y-158671915D01*
X110948931Y-158661607D01*
X110917610Y-158644866D01*
X110890161Y-158622339D01*
X110867634Y-158594890D01*
X110850893Y-158563569D01*
X110840585Y-158529591D01*
X110836500Y-158488110D01*
X110836500Y-157811890D01*
X110840585Y-157770409D01*
X110850893Y-157736431D01*
X110867634Y-157705110D01*
X110890161Y-157677661D01*
X110917610Y-157655134D01*
X110948931Y-157638393D01*
X110982909Y-157628085D01*
X111024390Y-157624000D01*
X111625610Y-157624000D01*
X111667091Y-157628085D01*
X111667091Y-157628085D01*
G37*
G36*
X113242091Y-157628085D02*
G01*
X113276069Y-157638393D01*
X113307390Y-157655134D01*
X113334839Y-157677661D01*
X113357366Y-157705110D01*
X113374107Y-157736431D01*
X113384415Y-157770409D01*
X113388500Y-157811890D01*
X113388500Y-158488110D01*
X113384415Y-158529591D01*
X113374107Y-158563569D01*
X113357366Y-158594890D01*
X113334839Y-158622339D01*
X113307390Y-158644866D01*
X113276069Y-158661607D01*
X113242091Y-158671915D01*
X113200610Y-158676000D01*
X112599390Y-158676000D01*
X112557909Y-158671915D01*
X112523931Y-158661607D01*
X112492610Y-158644866D01*
X112465161Y-158622339D01*
X112442634Y-158594890D01*
X112425893Y-158563569D01*
X112415585Y-158529591D01*
X112411500Y-158488110D01*
X112411500Y-157811890D01*
X112415585Y-157770409D01*
X112425893Y-157736431D01*
X112442634Y-157705110D01*
X112465161Y-157677661D01*
X112492610Y-157655134D01*
X112523931Y-157638393D01*
X112557909Y-157628085D01*
X112599390Y-157624000D01*
X113200610Y-157624000D01*
X113242091Y-157628085D01*
X113242091Y-157628085D01*
G37*
G36*
X136829591Y-157703085D02*
G01*
X136863569Y-157713393D01*
X136894890Y-157730134D01*
X136922339Y-157752661D01*
X136944866Y-157780110D01*
X136961607Y-157811431D01*
X136971915Y-157845409D01*
X136976000Y-157886890D01*
X136976000Y-158488110D01*
X136971915Y-158529591D01*
X136961607Y-158563569D01*
X136944866Y-158594890D01*
X136922339Y-158622339D01*
X136894890Y-158644866D01*
X136863569Y-158661607D01*
X136829591Y-158671915D01*
X136788110Y-158676000D01*
X136111890Y-158676000D01*
X136070409Y-158671915D01*
X136036431Y-158661607D01*
X136005110Y-158644866D01*
X135977661Y-158622339D01*
X135955134Y-158594890D01*
X135938393Y-158563569D01*
X135928085Y-158529591D01*
X135924000Y-158488110D01*
X135924000Y-157886890D01*
X135928085Y-157845409D01*
X135938393Y-157811431D01*
X135955134Y-157780110D01*
X135977661Y-157752661D01*
X136005110Y-157730134D01*
X136036431Y-157713393D01*
X136070409Y-157703085D01*
X136111890Y-157699000D01*
X136788110Y-157699000D01*
X136829591Y-157703085D01*
X136829591Y-157703085D01*
G37*
G36*
X123804591Y-157628085D02*
G01*
X123838569Y-157638393D01*
X123869890Y-157655134D01*
X123897339Y-157677661D01*
X123919866Y-157705110D01*
X123936607Y-157736431D01*
X123946915Y-157770409D01*
X123951000Y-157811890D01*
X123951000Y-158488110D01*
X123946915Y-158529591D01*
X123936607Y-158563569D01*
X123919866Y-158594890D01*
X123897339Y-158622339D01*
X123869890Y-158644866D01*
X123838569Y-158661607D01*
X123804591Y-158671915D01*
X123763110Y-158676000D01*
X123161890Y-158676000D01*
X123120409Y-158671915D01*
X123086431Y-158661607D01*
X123055110Y-158644866D01*
X123027661Y-158622339D01*
X123005134Y-158594890D01*
X122988393Y-158563569D01*
X122978085Y-158529591D01*
X122974000Y-158488110D01*
X122974000Y-157811890D01*
X122978085Y-157770409D01*
X122988393Y-157736431D01*
X123005134Y-157705110D01*
X123027661Y-157677661D01*
X123055110Y-157655134D01*
X123086431Y-157638393D01*
X123120409Y-157628085D01*
X123161890Y-157624000D01*
X123763110Y-157624000D01*
X123804591Y-157628085D01*
X123804591Y-157628085D01*
G37*
G36*
X125379591Y-157628085D02*
G01*
X125413569Y-157638393D01*
X125444890Y-157655134D01*
X125472339Y-157677661D01*
X125494866Y-157705110D01*
X125511607Y-157736431D01*
X125521915Y-157770409D01*
X125526000Y-157811890D01*
X125526000Y-158488110D01*
X125521915Y-158529591D01*
X125511607Y-158563569D01*
X125494866Y-158594890D01*
X125472339Y-158622339D01*
X125444890Y-158644866D01*
X125413569Y-158661607D01*
X125379591Y-158671915D01*
X125338110Y-158676000D01*
X124736890Y-158676000D01*
X124695409Y-158671915D01*
X124661431Y-158661607D01*
X124630110Y-158644866D01*
X124602661Y-158622339D01*
X124580134Y-158594890D01*
X124563393Y-158563569D01*
X124553085Y-158529591D01*
X124549000Y-158488110D01*
X124549000Y-157811890D01*
X124553085Y-157770409D01*
X124563393Y-157736431D01*
X124580134Y-157705110D01*
X124602661Y-157677661D01*
X124630110Y-157655134D01*
X124661431Y-157638393D01*
X124695409Y-157628085D01*
X124736890Y-157624000D01*
X125338110Y-157624000D01*
X125379591Y-157628085D01*
X125379591Y-157628085D01*
G37*
G36*
X159451000Y-158651000D02*
G01*
X157849000Y-158651000D01*
X157849000Y-157049000D01*
X159451000Y-157049000D01*
X159451000Y-158651000D01*
X159451000Y-158651000D01*
G37*
G36*
X150829591Y-157465585D02*
G01*
X150863569Y-157475893D01*
X150894890Y-157492634D01*
X150922339Y-157515161D01*
X150944866Y-157542610D01*
X150961607Y-157573931D01*
X150971915Y-157607909D01*
X150976000Y-157649390D01*
X150976000Y-158250610D01*
X150971915Y-158292091D01*
X150961607Y-158326069D01*
X150944866Y-158357390D01*
X150922339Y-158384839D01*
X150894890Y-158407366D01*
X150863569Y-158424107D01*
X150829591Y-158434415D01*
X150788110Y-158438500D01*
X150111890Y-158438500D01*
X150070409Y-158434415D01*
X150036431Y-158424107D01*
X150005110Y-158407366D01*
X149977661Y-158384839D01*
X149955134Y-158357390D01*
X149938393Y-158326069D01*
X149928085Y-158292091D01*
X149924000Y-158250610D01*
X149924000Y-157649390D01*
X149928085Y-157607909D01*
X149938393Y-157573931D01*
X149955134Y-157542610D01*
X149977661Y-157515161D01*
X150005110Y-157492634D01*
X150036431Y-157475893D01*
X150070409Y-157465585D01*
X150111890Y-157461500D01*
X150788110Y-157461500D01*
X150829591Y-157465585D01*
X150829591Y-157465585D01*
G37*
G36*
X156343642Y-155809781D02*
G01*
X156460291Y-155858099D01*
X156489416Y-155870163D01*
X156620608Y-155957822D01*
X156732178Y-156069392D01*
X156796170Y-156165164D01*
X156819838Y-156200586D01*
X156880219Y-156346358D01*
X156911000Y-156501107D01*
X156911000Y-156658893D01*
X156880219Y-156813642D01*
X156875100Y-156826000D01*
X156819837Y-156959416D01*
X156732178Y-157090608D01*
X156620608Y-157202178D01*
X156489416Y-157289837D01*
X156489415Y-157289838D01*
X156489414Y-157289838D01*
X156343642Y-157350219D01*
X156188893Y-157381000D01*
X156031107Y-157381000D01*
X155876358Y-157350219D01*
X155730586Y-157289838D01*
X155730585Y-157289838D01*
X155730584Y-157289837D01*
X155599392Y-157202178D01*
X155487822Y-157090608D01*
X155400163Y-156959416D01*
X155344900Y-156826000D01*
X155339781Y-156813642D01*
X155309000Y-156658893D01*
X155309000Y-156501107D01*
X155339781Y-156346358D01*
X155400162Y-156200586D01*
X155423830Y-156165164D01*
X155487822Y-156069392D01*
X155599392Y-155957822D01*
X155730584Y-155870163D01*
X155759709Y-155858099D01*
X155876358Y-155809781D01*
X156031107Y-155779000D01*
X156188893Y-155779000D01*
X156343642Y-155809781D01*
X156343642Y-155809781D01*
G37*
G36*
X136829591Y-156128085D02*
G01*
X136863569Y-156138393D01*
X136894890Y-156155134D01*
X136922339Y-156177661D01*
X136944866Y-156205110D01*
X136961607Y-156236431D01*
X136971915Y-156270409D01*
X136976000Y-156311890D01*
X136976000Y-156913110D01*
X136971915Y-156954591D01*
X136961607Y-156988569D01*
X136944866Y-157019890D01*
X136922339Y-157047339D01*
X136894890Y-157069866D01*
X136863569Y-157086607D01*
X136829591Y-157096915D01*
X136788110Y-157101000D01*
X136111890Y-157101000D01*
X136070409Y-157096915D01*
X136036431Y-157086607D01*
X136005110Y-157069866D01*
X135977661Y-157047339D01*
X135955134Y-157019890D01*
X135938393Y-156988569D01*
X135928085Y-156954591D01*
X135924000Y-156913110D01*
X135924000Y-156311890D01*
X135928085Y-156270409D01*
X135938393Y-156236431D01*
X135955134Y-156205110D01*
X135977661Y-156177661D01*
X136005110Y-156155134D01*
X136036431Y-156138393D01*
X136070409Y-156128085D01*
X136111890Y-156124000D01*
X136788110Y-156124000D01*
X136829591Y-156128085D01*
X136829591Y-156128085D01*
G37*
G36*
X150829591Y-155740585D02*
G01*
X150863569Y-155750893D01*
X150894890Y-155767634D01*
X150922339Y-155790161D01*
X150944866Y-155817610D01*
X150961607Y-155848931D01*
X150971915Y-155882909D01*
X150976000Y-155924390D01*
X150976000Y-156525610D01*
X150971915Y-156567091D01*
X150961607Y-156601069D01*
X150944866Y-156632390D01*
X150922339Y-156659839D01*
X150894890Y-156682366D01*
X150863569Y-156699107D01*
X150829591Y-156709415D01*
X150788110Y-156713500D01*
X150111890Y-156713500D01*
X150070409Y-156709415D01*
X150036431Y-156699107D01*
X150005110Y-156682366D01*
X149977661Y-156659839D01*
X149955134Y-156632390D01*
X149938393Y-156601069D01*
X149928085Y-156567091D01*
X149924000Y-156525610D01*
X149924000Y-155924390D01*
X149928085Y-155882909D01*
X149938393Y-155848931D01*
X149955134Y-155817610D01*
X149977661Y-155790161D01*
X150005110Y-155767634D01*
X150036431Y-155750893D01*
X150070409Y-155740585D01*
X150111890Y-155736500D01*
X150788110Y-155736500D01*
X150829591Y-155740585D01*
X150829591Y-155740585D01*
G37*
G36*
X144879591Y-155665585D02*
G01*
X144913569Y-155675893D01*
X144944890Y-155692634D01*
X144972339Y-155715161D01*
X144994866Y-155742610D01*
X145011607Y-155773931D01*
X145021915Y-155807909D01*
X145026000Y-155849390D01*
X145026000Y-156450610D01*
X145021915Y-156492091D01*
X145011607Y-156526069D01*
X144994866Y-156557390D01*
X144972339Y-156584839D01*
X144944890Y-156607366D01*
X144913569Y-156624107D01*
X144879591Y-156634415D01*
X144838110Y-156638500D01*
X144161890Y-156638500D01*
X144120409Y-156634415D01*
X144086431Y-156624107D01*
X144055110Y-156607366D01*
X144027661Y-156584839D01*
X144005134Y-156557390D01*
X143988393Y-156526069D01*
X143978085Y-156492091D01*
X143974000Y-156450610D01*
X143974000Y-155849390D01*
X143978085Y-155807909D01*
X143988393Y-155773931D01*
X144005134Y-155742610D01*
X144027661Y-155715161D01*
X144055110Y-155692634D01*
X144086431Y-155675893D01*
X144120409Y-155665585D01*
X144161890Y-155661500D01*
X144838110Y-155661500D01*
X144879591Y-155665585D01*
X144879591Y-155665585D01*
G37*
G36*
X125392091Y-155328085D02*
G01*
X125426069Y-155338393D01*
X125457390Y-155355134D01*
X125484839Y-155377661D01*
X125507366Y-155405110D01*
X125524107Y-155436431D01*
X125534415Y-155470409D01*
X125538500Y-155511890D01*
X125538500Y-156188110D01*
X125534415Y-156229591D01*
X125524107Y-156263569D01*
X125507366Y-156294890D01*
X125484839Y-156322339D01*
X125457390Y-156344866D01*
X125426069Y-156361607D01*
X125392091Y-156371915D01*
X125350610Y-156376000D01*
X124749390Y-156376000D01*
X124707909Y-156371915D01*
X124673931Y-156361607D01*
X124642610Y-156344866D01*
X124615161Y-156322339D01*
X124592634Y-156294890D01*
X124575893Y-156263569D01*
X124565585Y-156229591D01*
X124561500Y-156188110D01*
X124561500Y-155511890D01*
X124565585Y-155470409D01*
X124575893Y-155436431D01*
X124592634Y-155405110D01*
X124615161Y-155377661D01*
X124642610Y-155355134D01*
X124673931Y-155338393D01*
X124707909Y-155328085D01*
X124749390Y-155324000D01*
X125350610Y-155324000D01*
X125392091Y-155328085D01*
X125392091Y-155328085D01*
G37*
G36*
X111654591Y-155328085D02*
G01*
X111688569Y-155338393D01*
X111719890Y-155355134D01*
X111747339Y-155377661D01*
X111769866Y-155405110D01*
X111786607Y-155436431D01*
X111796915Y-155470409D01*
X111801000Y-155511890D01*
X111801000Y-156188110D01*
X111796915Y-156229591D01*
X111786607Y-156263569D01*
X111769866Y-156294890D01*
X111747339Y-156322339D01*
X111719890Y-156344866D01*
X111688569Y-156361607D01*
X111654591Y-156371915D01*
X111613110Y-156376000D01*
X111011890Y-156376000D01*
X110970409Y-156371915D01*
X110936431Y-156361607D01*
X110905110Y-156344866D01*
X110877661Y-156322339D01*
X110855134Y-156294890D01*
X110838393Y-156263569D01*
X110828085Y-156229591D01*
X110824000Y-156188110D01*
X110824000Y-155511890D01*
X110828085Y-155470409D01*
X110838393Y-155436431D01*
X110855134Y-155405110D01*
X110877661Y-155377661D01*
X110905110Y-155355134D01*
X110936431Y-155338393D01*
X110970409Y-155328085D01*
X111011890Y-155324000D01*
X111613110Y-155324000D01*
X111654591Y-155328085D01*
X111654591Y-155328085D01*
G37*
G36*
X123817091Y-155328085D02*
G01*
X123851069Y-155338393D01*
X123882390Y-155355134D01*
X123909839Y-155377661D01*
X123932366Y-155405110D01*
X123949107Y-155436431D01*
X123959415Y-155470409D01*
X123963500Y-155511890D01*
X123963500Y-156188110D01*
X123959415Y-156229591D01*
X123949107Y-156263569D01*
X123932366Y-156294890D01*
X123909839Y-156322339D01*
X123882390Y-156344866D01*
X123851069Y-156361607D01*
X123817091Y-156371915D01*
X123775610Y-156376000D01*
X123174390Y-156376000D01*
X123132909Y-156371915D01*
X123098931Y-156361607D01*
X123067610Y-156344866D01*
X123040161Y-156322339D01*
X123017634Y-156294890D01*
X123000893Y-156263569D01*
X122990585Y-156229591D01*
X122986500Y-156188110D01*
X122986500Y-155511890D01*
X122990585Y-155470409D01*
X123000893Y-155436431D01*
X123017634Y-155405110D01*
X123040161Y-155377661D01*
X123067610Y-155355134D01*
X123098931Y-155338393D01*
X123132909Y-155328085D01*
X123174390Y-155324000D01*
X123775610Y-155324000D01*
X123817091Y-155328085D01*
X123817091Y-155328085D01*
G37*
G36*
X113229591Y-155328085D02*
G01*
X113263569Y-155338393D01*
X113294890Y-155355134D01*
X113322339Y-155377661D01*
X113344866Y-155405110D01*
X113361607Y-155436431D01*
X113371915Y-155470409D01*
X113376000Y-155511890D01*
X113376000Y-156188110D01*
X113371915Y-156229591D01*
X113361607Y-156263569D01*
X113344866Y-156294890D01*
X113322339Y-156322339D01*
X113294890Y-156344866D01*
X113263569Y-156361607D01*
X113229591Y-156371915D01*
X113188110Y-156376000D01*
X112586890Y-156376000D01*
X112545409Y-156371915D01*
X112511431Y-156361607D01*
X112480110Y-156344866D01*
X112452661Y-156322339D01*
X112430134Y-156294890D01*
X112413393Y-156263569D01*
X112403085Y-156229591D01*
X112399000Y-156188110D01*
X112399000Y-155511890D01*
X112403085Y-155470409D01*
X112413393Y-155436431D01*
X112430134Y-155405110D01*
X112452661Y-155377661D01*
X112480110Y-155355134D01*
X112511431Y-155338393D01*
X112545409Y-155328085D01*
X112586890Y-155324000D01*
X113188110Y-155324000D01*
X113229591Y-155328085D01*
X113229591Y-155328085D01*
G37*
G36*
X158883642Y-154539781D02*
G01*
X159029414Y-154600162D01*
X159029416Y-154600163D01*
X159160608Y-154687822D01*
X159272178Y-154799392D01*
X159350821Y-154917091D01*
X159359838Y-154930586D01*
X159420219Y-155076358D01*
X159451000Y-155231107D01*
X159451000Y-155388893D01*
X159420219Y-155543642D01*
X159363699Y-155680092D01*
X159359837Y-155689416D01*
X159272178Y-155820608D01*
X159160608Y-155932178D01*
X159029416Y-156019837D01*
X159029415Y-156019838D01*
X159029414Y-156019838D01*
X158883642Y-156080219D01*
X158728893Y-156111000D01*
X158571107Y-156111000D01*
X158416358Y-156080219D01*
X158270586Y-156019838D01*
X158270585Y-156019838D01*
X158270584Y-156019837D01*
X158139392Y-155932178D01*
X158027822Y-155820608D01*
X157940163Y-155689416D01*
X157936301Y-155680092D01*
X157879781Y-155543642D01*
X157849000Y-155388893D01*
X157849000Y-155231107D01*
X157879781Y-155076358D01*
X157940162Y-154930586D01*
X157949179Y-154917091D01*
X158027822Y-154799392D01*
X158139392Y-154687822D01*
X158270584Y-154600163D01*
X158270586Y-154600162D01*
X158416358Y-154539781D01*
X158571107Y-154509000D01*
X158728893Y-154509000D01*
X158883642Y-154539781D01*
X158883642Y-154539781D01*
G37*
G36*
X150829591Y-154165585D02*
G01*
X150863569Y-154175893D01*
X150894890Y-154192634D01*
X150922339Y-154215161D01*
X150944866Y-154242610D01*
X150961607Y-154273931D01*
X150971915Y-154307909D01*
X150976000Y-154349390D01*
X150976000Y-154950610D01*
X150971915Y-154992091D01*
X150961607Y-155026069D01*
X150944866Y-155057390D01*
X150922339Y-155084839D01*
X150894890Y-155107366D01*
X150863569Y-155124107D01*
X150829591Y-155134415D01*
X150788110Y-155138500D01*
X150111890Y-155138500D01*
X150070409Y-155134415D01*
X150036431Y-155124107D01*
X150005110Y-155107366D01*
X149977661Y-155084839D01*
X149955134Y-155057390D01*
X149938393Y-155026069D01*
X149928085Y-154992091D01*
X149924000Y-154950610D01*
X149924000Y-154349390D01*
X149928085Y-154307909D01*
X149938393Y-154273931D01*
X149955134Y-154242610D01*
X149977661Y-154215161D01*
X150005110Y-154192634D01*
X150036431Y-154175893D01*
X150070409Y-154165585D01*
X150111890Y-154161500D01*
X150788110Y-154161500D01*
X150829591Y-154165585D01*
X150829591Y-154165585D01*
G37*
G36*
X144879591Y-154090585D02*
G01*
X144913569Y-154100893D01*
X144944890Y-154117634D01*
X144972339Y-154140161D01*
X144994866Y-154167610D01*
X145011607Y-154198931D01*
X145021915Y-154232909D01*
X145026000Y-154274390D01*
X145026000Y-154875610D01*
X145021915Y-154917091D01*
X145011607Y-154951069D01*
X144994866Y-154982390D01*
X144972339Y-155009839D01*
X144944890Y-155032366D01*
X144913569Y-155049107D01*
X144879591Y-155059415D01*
X144838110Y-155063500D01*
X144161890Y-155063500D01*
X144120409Y-155059415D01*
X144086431Y-155049107D01*
X144055110Y-155032366D01*
X144027661Y-155009839D01*
X144005134Y-154982390D01*
X143988393Y-154951069D01*
X143978085Y-154917091D01*
X143974000Y-154875610D01*
X143974000Y-154274390D01*
X143978085Y-154232909D01*
X143988393Y-154198931D01*
X144005134Y-154167610D01*
X144027661Y-154140161D01*
X144055110Y-154117634D01*
X144086431Y-154100893D01*
X144120409Y-154090585D01*
X144161890Y-154086500D01*
X144838110Y-154086500D01*
X144879591Y-154090585D01*
X144879591Y-154090585D01*
G37*
G36*
X156343642Y-153269781D02*
G01*
X156489414Y-153330162D01*
X156489416Y-153330163D01*
X156620608Y-153417822D01*
X156732178Y-153529392D01*
X156739412Y-153540219D01*
X156819838Y-153660586D01*
X156880219Y-153806358D01*
X156911000Y-153961107D01*
X156911000Y-154118893D01*
X156880219Y-154273642D01*
X156825498Y-154405750D01*
X156819837Y-154419416D01*
X156732178Y-154550608D01*
X156620608Y-154662178D01*
X156489416Y-154749837D01*
X156489415Y-154749838D01*
X156489414Y-154749838D01*
X156343642Y-154810219D01*
X156188893Y-154841000D01*
X156031107Y-154841000D01*
X155876358Y-154810219D01*
X155730586Y-154749838D01*
X155730585Y-154749838D01*
X155730584Y-154749837D01*
X155599392Y-154662178D01*
X155487822Y-154550608D01*
X155400163Y-154419416D01*
X155394502Y-154405750D01*
X155339781Y-154273642D01*
X155309000Y-154118893D01*
X155309000Y-153961107D01*
X155339781Y-153806358D01*
X155400162Y-153660586D01*
X155480588Y-153540219D01*
X155487822Y-153529392D01*
X155599392Y-153417822D01*
X155730584Y-153330163D01*
X155730586Y-153330162D01*
X155876358Y-153269781D01*
X156031107Y-153239000D01*
X156188893Y-153239000D01*
X156343642Y-153269781D01*
X156343642Y-153269781D01*
G37*
G36*
X158883642Y-151999781D02*
G01*
X159029414Y-152060162D01*
X159029416Y-152060163D01*
X159160608Y-152147822D01*
X159272178Y-152259392D01*
X159279412Y-152270219D01*
X159359838Y-152390586D01*
X159420219Y-152536358D01*
X159451000Y-152691107D01*
X159451000Y-152848893D01*
X159420219Y-153003642D01*
X159359838Y-153149414D01*
X159359837Y-153149416D01*
X159272178Y-153280608D01*
X159160608Y-153392178D01*
X159029416Y-153479837D01*
X159029415Y-153479838D01*
X159029414Y-153479838D01*
X158883642Y-153540219D01*
X158728893Y-153571000D01*
X158571107Y-153571000D01*
X158416358Y-153540219D01*
X158270586Y-153479838D01*
X158270585Y-153479838D01*
X158270584Y-153479837D01*
X158139392Y-153392178D01*
X158027822Y-153280608D01*
X157940163Y-153149416D01*
X157940162Y-153149414D01*
X157879781Y-153003642D01*
X157849000Y-152848893D01*
X157849000Y-152691107D01*
X157879781Y-152536358D01*
X157940162Y-152390586D01*
X158020588Y-152270219D01*
X158027822Y-152259392D01*
X158139392Y-152147822D01*
X158270584Y-152060163D01*
X158270586Y-152060162D01*
X158416358Y-151999781D01*
X158571107Y-151969000D01*
X158728893Y-151969000D01*
X158883642Y-151999781D01*
X158883642Y-151999781D01*
G37*
G36*
X156343642Y-150729781D02*
G01*
X156489414Y-150790162D01*
X156489416Y-150790163D01*
X156620608Y-150877822D01*
X156732178Y-150989392D01*
X156739412Y-151000219D01*
X156819838Y-151120586D01*
X156880219Y-151266358D01*
X156911000Y-151421107D01*
X156911000Y-151578893D01*
X156880219Y-151733642D01*
X156819838Y-151879414D01*
X156819837Y-151879416D01*
X156732178Y-152010608D01*
X156620608Y-152122178D01*
X156489416Y-152209837D01*
X156489415Y-152209838D01*
X156489414Y-152209838D01*
X156343642Y-152270219D01*
X156188893Y-152301000D01*
X156031107Y-152301000D01*
X155876358Y-152270219D01*
X155730586Y-152209838D01*
X155730585Y-152209838D01*
X155730584Y-152209837D01*
X155599392Y-152122178D01*
X155487822Y-152010608D01*
X155400163Y-151879416D01*
X155400162Y-151879414D01*
X155339781Y-151733642D01*
X155309000Y-151578893D01*
X155309000Y-151421107D01*
X155339781Y-151266358D01*
X155400162Y-151120586D01*
X155480588Y-151000219D01*
X155487822Y-150989392D01*
X155599392Y-150877822D01*
X155730584Y-150790163D01*
X155730586Y-150790162D01*
X155876358Y-150729781D01*
X156031107Y-150699000D01*
X156188893Y-150699000D01*
X156343642Y-150729781D01*
X156343642Y-150729781D01*
G37*
G36*
X150829591Y-151240585D02*
G01*
X150863569Y-151250893D01*
X150894890Y-151267634D01*
X150922339Y-151290161D01*
X150944866Y-151317610D01*
X150961607Y-151348931D01*
X150971915Y-151382909D01*
X150976000Y-151424390D01*
X150976000Y-152025610D01*
X150971915Y-152067091D01*
X150961607Y-152101069D01*
X150944866Y-152132390D01*
X150922339Y-152159839D01*
X150894890Y-152182366D01*
X150863569Y-152199107D01*
X150829591Y-152209415D01*
X150788110Y-152213500D01*
X150111890Y-152213500D01*
X150070409Y-152209415D01*
X150036431Y-152199107D01*
X150005110Y-152182366D01*
X149977661Y-152159839D01*
X149955134Y-152132390D01*
X149938393Y-152101069D01*
X149928085Y-152067091D01*
X149924000Y-152025610D01*
X149924000Y-151424390D01*
X149928085Y-151382909D01*
X149938393Y-151348931D01*
X149955134Y-151317610D01*
X149977661Y-151290161D01*
X150005110Y-151267634D01*
X150036431Y-151250893D01*
X150070409Y-151240585D01*
X150111890Y-151236500D01*
X150788110Y-151236500D01*
X150829591Y-151240585D01*
X150829591Y-151240585D01*
G37*
G36*
X109776000Y-152176000D02*
G01*
X107924000Y-152176000D01*
X107924000Y-151124000D01*
X109776000Y-151124000D01*
X109776000Y-152176000D01*
X109776000Y-152176000D01*
G37*
G36*
X121476000Y-152076000D02*
G01*
X119624000Y-152076000D01*
X119624000Y-151024000D01*
X121476000Y-151024000D01*
X121476000Y-152076000D01*
X121476000Y-152076000D01*
G37*
G36*
X158883642Y-149459781D02*
G01*
X159029414Y-149520162D01*
X159029416Y-149520163D01*
X159160608Y-149607822D01*
X159272178Y-149719392D01*
X159334243Y-149812280D01*
X159359838Y-149850586D01*
X159420219Y-149996358D01*
X159451000Y-150151107D01*
X159451000Y-150308893D01*
X159420219Y-150463642D01*
X159370017Y-150584839D01*
X159359837Y-150609416D01*
X159272178Y-150740608D01*
X159160608Y-150852178D01*
X159029416Y-150939837D01*
X159029415Y-150939838D01*
X159029414Y-150939838D01*
X158883642Y-151000219D01*
X158728893Y-151031000D01*
X158571107Y-151031000D01*
X158416358Y-151000219D01*
X158270586Y-150939838D01*
X158270585Y-150939838D01*
X158270584Y-150939837D01*
X158139392Y-150852178D01*
X158027822Y-150740608D01*
X157940163Y-150609416D01*
X157929983Y-150584839D01*
X157879781Y-150463642D01*
X157849000Y-150308893D01*
X157849000Y-150151107D01*
X157879781Y-149996358D01*
X157940162Y-149850586D01*
X157965757Y-149812280D01*
X158027822Y-149719392D01*
X158139392Y-149607822D01*
X158270584Y-149520163D01*
X158270586Y-149520162D01*
X158416358Y-149459781D01*
X158571107Y-149429000D01*
X158728893Y-149429000D01*
X158883642Y-149459781D01*
X158883642Y-149459781D01*
G37*
G36*
X116076000Y-151001000D02*
G01*
X114224000Y-151001000D01*
X114224000Y-147699000D01*
X116076000Y-147699000D01*
X116076000Y-151001000D01*
X116076000Y-151001000D01*
G37*
G36*
X127776000Y-150901000D02*
G01*
X125924000Y-150901000D01*
X125924000Y-147599000D01*
X127776000Y-147599000D01*
X127776000Y-150901000D01*
X127776000Y-150901000D01*
G37*
G36*
X150829591Y-149665585D02*
G01*
X150863569Y-149675893D01*
X150894890Y-149692634D01*
X150922339Y-149715161D01*
X150944866Y-149742610D01*
X150961607Y-149773931D01*
X150971915Y-149807909D01*
X150976000Y-149849390D01*
X150976000Y-150450610D01*
X150971915Y-150492091D01*
X150961607Y-150526069D01*
X150944866Y-150557390D01*
X150922339Y-150584839D01*
X150894890Y-150607366D01*
X150863569Y-150624107D01*
X150829591Y-150634415D01*
X150788110Y-150638500D01*
X150111890Y-150638500D01*
X150070409Y-150634415D01*
X150036431Y-150624107D01*
X150005110Y-150607366D01*
X149977661Y-150584839D01*
X149955134Y-150557390D01*
X149938393Y-150526069D01*
X149928085Y-150492091D01*
X149924000Y-150450610D01*
X149924000Y-149849390D01*
X149928085Y-149807909D01*
X149938393Y-149773931D01*
X149955134Y-149742610D01*
X149977661Y-149715161D01*
X150005110Y-149692634D01*
X150036431Y-149675893D01*
X150070409Y-149665585D01*
X150111890Y-149661500D01*
X150788110Y-149661500D01*
X150829591Y-149665585D01*
X150829591Y-149665585D01*
G37*
G36*
X109776000Y-149876000D02*
G01*
X107924000Y-149876000D01*
X107924000Y-148824000D01*
X109776000Y-148824000D01*
X109776000Y-149876000D01*
X109776000Y-149876000D01*
G37*
G36*
X121476000Y-149776000D02*
G01*
X119624000Y-149776000D01*
X119624000Y-148724000D01*
X121476000Y-148724000D01*
X121476000Y-149776000D01*
X121476000Y-149776000D01*
G37*
G36*
X156343642Y-148189781D02*
G01*
X156478398Y-148245599D01*
X156489416Y-148250163D01*
X156620608Y-148337822D01*
X156732178Y-148449392D01*
X156747312Y-148472042D01*
X156819838Y-148580586D01*
X156880219Y-148726358D01*
X156911000Y-148881107D01*
X156911000Y-149038893D01*
X156880219Y-149193642D01*
X156819838Y-149339414D01*
X156819837Y-149339416D01*
X156732178Y-149470608D01*
X156620608Y-149582178D01*
X156489416Y-149669837D01*
X156489415Y-149669838D01*
X156489414Y-149669838D01*
X156343642Y-149730219D01*
X156188893Y-149761000D01*
X156031107Y-149761000D01*
X155876358Y-149730219D01*
X155730586Y-149669838D01*
X155730585Y-149669838D01*
X155730584Y-149669837D01*
X155599392Y-149582178D01*
X155487822Y-149470608D01*
X155400163Y-149339416D01*
X155400162Y-149339414D01*
X155339781Y-149193642D01*
X155309000Y-149038893D01*
X155309000Y-148881107D01*
X155339781Y-148726358D01*
X155400162Y-148580586D01*
X155472688Y-148472042D01*
X155487822Y-148449392D01*
X155599392Y-148337822D01*
X155730584Y-148250163D01*
X155741602Y-148245599D01*
X155876358Y-148189781D01*
X156031107Y-148159000D01*
X156188893Y-148159000D01*
X156343642Y-148189781D01*
X156343642Y-148189781D01*
G37*
G36*
X165375256Y-146081298D02*
G01*
X165481579Y-146102447D01*
X165782042Y-146226903D01*
X166052451Y-146407585D01*
X166282415Y-146637549D01*
X166463097Y-146907958D01*
X166586861Y-147206750D01*
X166587553Y-147208422D01*
X166634993Y-147446915D01*
X166651000Y-147527391D01*
X166651000Y-147852609D01*
X166587553Y-148171579D01*
X166463097Y-148472042D01*
X166282415Y-148742451D01*
X166052451Y-148972415D01*
X165782042Y-149153097D01*
X165481579Y-149277553D01*
X165375256Y-149298702D01*
X165162611Y-149341000D01*
X164837389Y-149341000D01*
X164624744Y-149298702D01*
X164518421Y-149277553D01*
X164217958Y-149153097D01*
X163947549Y-148972415D01*
X163717585Y-148742451D01*
X163536903Y-148472042D01*
X163412447Y-148171579D01*
X163349000Y-147852609D01*
X163349000Y-147527391D01*
X163365008Y-147446915D01*
X163412447Y-147208422D01*
X163413140Y-147206750D01*
X163536903Y-146907958D01*
X163717585Y-146637549D01*
X163947549Y-146407585D01*
X164217958Y-146226903D01*
X164518421Y-146102447D01*
X164624744Y-146081298D01*
X164837389Y-146039000D01*
X165162611Y-146039000D01*
X165375256Y-146081298D01*
X165375256Y-146081298D01*
G37*
G36*
X137401000Y-149101000D02*
G01*
X135299000Y-149101000D01*
X135299000Y-147499000D01*
X137401000Y-147499000D01*
X137401000Y-149101000D01*
X137401000Y-149101000D01*
G37*
G36*
X150829591Y-148053085D02*
G01*
X150863569Y-148063393D01*
X150894890Y-148080134D01*
X150922339Y-148102661D01*
X150944866Y-148130110D01*
X150961607Y-148161431D01*
X150971915Y-148195409D01*
X150976000Y-148236890D01*
X150976000Y-148838110D01*
X150971915Y-148879591D01*
X150961607Y-148913569D01*
X150944866Y-148944890D01*
X150922339Y-148972339D01*
X150894890Y-148994866D01*
X150863569Y-149011607D01*
X150829591Y-149021915D01*
X150788110Y-149026000D01*
X150111890Y-149026000D01*
X150070409Y-149021915D01*
X150036431Y-149011607D01*
X150005110Y-148994866D01*
X149977661Y-148972339D01*
X149955134Y-148944890D01*
X149938393Y-148913569D01*
X149928085Y-148879591D01*
X149924000Y-148838110D01*
X149924000Y-148236890D01*
X149928085Y-148195409D01*
X149938393Y-148161431D01*
X149955134Y-148130110D01*
X149977661Y-148102661D01*
X150005110Y-148080134D01*
X150036431Y-148063393D01*
X150070409Y-148053085D01*
X150111890Y-148049000D01*
X150788110Y-148049000D01*
X150829591Y-148053085D01*
X150829591Y-148053085D01*
G37*
G36*
X143701000Y-147951000D02*
G01*
X141599000Y-147951000D01*
X141599000Y-144049000D01*
X143701000Y-144049000D01*
X143701000Y-147951000D01*
X143701000Y-147951000D01*
G37*
G36*
X109776000Y-147576000D02*
G01*
X107924000Y-147576000D01*
X107924000Y-146524000D01*
X109776000Y-146524000D01*
X109776000Y-147576000D01*
X109776000Y-147576000D01*
G37*
G36*
X121476000Y-147476000D02*
G01*
X119624000Y-147476000D01*
X119624000Y-146424000D01*
X121476000Y-146424000D01*
X121476000Y-147476000D01*
X121476000Y-147476000D01*
G37*
G36*
X150829591Y-146478085D02*
G01*
X150863569Y-146488393D01*
X150894890Y-146505134D01*
X150922339Y-146527661D01*
X150944866Y-146555110D01*
X150961607Y-146586431D01*
X150971915Y-146620409D01*
X150976000Y-146661890D01*
X150976000Y-147263110D01*
X150971915Y-147304591D01*
X150961607Y-147338569D01*
X150944866Y-147369890D01*
X150922339Y-147397339D01*
X150894890Y-147419866D01*
X150863569Y-147436607D01*
X150829591Y-147446915D01*
X150788110Y-147451000D01*
X150111890Y-147451000D01*
X150070409Y-147446915D01*
X150036431Y-147436607D01*
X150005110Y-147419866D01*
X149977661Y-147397339D01*
X149955134Y-147369890D01*
X149938393Y-147338569D01*
X149928085Y-147304591D01*
X149924000Y-147263110D01*
X149924000Y-146661890D01*
X149928085Y-146620409D01*
X149938393Y-146586431D01*
X149955134Y-146555110D01*
X149977661Y-146527661D01*
X150005110Y-146505134D01*
X150036431Y-146488393D01*
X150070409Y-146478085D01*
X150111890Y-146474000D01*
X150788110Y-146474000D01*
X150829591Y-146478085D01*
X150829591Y-146478085D01*
G37*
G36*
X137401000Y-146801000D02*
G01*
X135299000Y-146801000D01*
X135299000Y-145199000D01*
X137401000Y-145199000D01*
X137401000Y-146801000D01*
X137401000Y-146801000D01*
G37*
G36*
X134379591Y-145590585D02*
G01*
X134413569Y-145600893D01*
X134444890Y-145617634D01*
X134472339Y-145640161D01*
X134494866Y-145667610D01*
X134511607Y-145698931D01*
X134521915Y-145732909D01*
X134526000Y-145774390D01*
X134526000Y-146375610D01*
X134521915Y-146417091D01*
X134511607Y-146451069D01*
X134494866Y-146482390D01*
X134472339Y-146509839D01*
X134444890Y-146532366D01*
X134413569Y-146549107D01*
X134379591Y-146559415D01*
X134338110Y-146563500D01*
X133661890Y-146563500D01*
X133620409Y-146559415D01*
X133586431Y-146549107D01*
X133555110Y-146532366D01*
X133527661Y-146509839D01*
X133505134Y-146482390D01*
X133488393Y-146451069D01*
X133478085Y-146417091D01*
X133474000Y-146375610D01*
X133474000Y-145774390D01*
X133478085Y-145732909D01*
X133488393Y-145698931D01*
X133505134Y-145667610D01*
X133527661Y-145640161D01*
X133555110Y-145617634D01*
X133586431Y-145600893D01*
X133620409Y-145590585D01*
X133661890Y-145586500D01*
X134338110Y-145586500D01*
X134379591Y-145590585D01*
X134379591Y-145590585D01*
G37*
G36*
X150829591Y-144853085D02*
G01*
X150863569Y-144863393D01*
X150894890Y-144880134D01*
X150922339Y-144902661D01*
X150944866Y-144930110D01*
X150961607Y-144961431D01*
X150971915Y-144995409D01*
X150976000Y-145036890D01*
X150976000Y-145638110D01*
X150971915Y-145679591D01*
X150961607Y-145713569D01*
X150944866Y-145744890D01*
X150922339Y-145772339D01*
X150894890Y-145794866D01*
X150863569Y-145811607D01*
X150829591Y-145821915D01*
X150788110Y-145826000D01*
X150111890Y-145826000D01*
X150070409Y-145821915D01*
X150036431Y-145811607D01*
X150005110Y-145794866D01*
X149977661Y-145772339D01*
X149955134Y-145744890D01*
X149938393Y-145713569D01*
X149928085Y-145679591D01*
X149924000Y-145638110D01*
X149924000Y-145036890D01*
X149928085Y-144995409D01*
X149938393Y-144961431D01*
X149955134Y-144930110D01*
X149977661Y-144902661D01*
X150005110Y-144880134D01*
X150036431Y-144863393D01*
X150070409Y-144853085D01*
X150111890Y-144849000D01*
X150788110Y-144849000D01*
X150829591Y-144853085D01*
X150829591Y-144853085D01*
G37*
G36*
X134379591Y-144015585D02*
G01*
X134413569Y-144025893D01*
X134444890Y-144042634D01*
X134472339Y-144065161D01*
X134494866Y-144092610D01*
X134511607Y-144123931D01*
X134521915Y-144157909D01*
X134526000Y-144199390D01*
X134526000Y-144800610D01*
X134521915Y-144842091D01*
X134511607Y-144876069D01*
X134494866Y-144907390D01*
X134472339Y-144934839D01*
X134444890Y-144957366D01*
X134413569Y-144974107D01*
X134379591Y-144984415D01*
X134338110Y-144988500D01*
X133661890Y-144988500D01*
X133620409Y-144984415D01*
X133586431Y-144974107D01*
X133555110Y-144957366D01*
X133527661Y-144934839D01*
X133505134Y-144907390D01*
X133488393Y-144876069D01*
X133478085Y-144842091D01*
X133474000Y-144800610D01*
X133474000Y-144199390D01*
X133478085Y-144157909D01*
X133488393Y-144123931D01*
X133505134Y-144092610D01*
X133527661Y-144065161D01*
X133555110Y-144042634D01*
X133586431Y-144025893D01*
X133620409Y-144015585D01*
X133661890Y-144011500D01*
X134338110Y-144011500D01*
X134379591Y-144015585D01*
X134379591Y-144015585D01*
G37*
G36*
X137401000Y-144501000D02*
G01*
X135299000Y-144501000D01*
X135299000Y-142899000D01*
X137401000Y-142899000D01*
X137401000Y-144501000D01*
X137401000Y-144501000D01*
G37*
G36*
X150829591Y-143278085D02*
G01*
X150863569Y-143288393D01*
X150894890Y-143305134D01*
X150922339Y-143327661D01*
X150944866Y-143355110D01*
X150961607Y-143386431D01*
X150971915Y-143420409D01*
X150976000Y-143461890D01*
X150976000Y-144063110D01*
X150971915Y-144104591D01*
X150961607Y-144138569D01*
X150944866Y-144169890D01*
X150922339Y-144197339D01*
X150894890Y-144219866D01*
X150863569Y-144236607D01*
X150829591Y-144246915D01*
X150788110Y-144251000D01*
X150111890Y-144251000D01*
X150070409Y-144246915D01*
X150036431Y-144236607D01*
X150005110Y-144219866D01*
X149977661Y-144197339D01*
X149955134Y-144169890D01*
X149938393Y-144138569D01*
X149928085Y-144104591D01*
X149924000Y-144063110D01*
X149924000Y-143461890D01*
X149928085Y-143420409D01*
X149938393Y-143386431D01*
X149955134Y-143355110D01*
X149977661Y-143327661D01*
X150005110Y-143305134D01*
X150036431Y-143288393D01*
X150070409Y-143278085D01*
X150111890Y-143274000D01*
X150788110Y-143274000D01*
X150829591Y-143278085D01*
X150829591Y-143278085D01*
G37*
G36*
X109060442Y-138285518D02*
G01*
X109126627Y-138292037D01*
X109296466Y-138343557D01*
X109452991Y-138427222D01*
X109488729Y-138456552D01*
X109590186Y-138539814D01*
X109673448Y-138641271D01*
X109702778Y-138677009D01*
X109786443Y-138833534D01*
X109837963Y-139003373D01*
X109855359Y-139180000D01*
X109837963Y-139356627D01*
X109786443Y-139526466D01*
X109702778Y-139682991D01*
X109673448Y-139718729D01*
X109590186Y-139820186D01*
X109488729Y-139903448D01*
X109452991Y-139932778D01*
X109296466Y-140016443D01*
X109126627Y-140067963D01*
X109060443Y-140074481D01*
X108994260Y-140081000D01*
X108905740Y-140081000D01*
X108839557Y-140074481D01*
X108773373Y-140067963D01*
X108603534Y-140016443D01*
X108447009Y-139932778D01*
X108411271Y-139903448D01*
X108309814Y-139820186D01*
X108226552Y-139718729D01*
X108197222Y-139682991D01*
X108113557Y-139526466D01*
X108062037Y-139356627D01*
X108044641Y-139180000D01*
X108062037Y-139003373D01*
X108113557Y-138833534D01*
X108197222Y-138677009D01*
X108226552Y-138641271D01*
X108309814Y-138539814D01*
X108411271Y-138456552D01*
X108447009Y-138427222D01*
X108603534Y-138343557D01*
X108773373Y-138292037D01*
X108839558Y-138285518D01*
X108905740Y-138279000D01*
X108994260Y-138279000D01*
X109060442Y-138285518D01*
X109060442Y-138285518D01*
G37*
G36*
X99460442Y-138205518D02*
G01*
X99526627Y-138212037D01*
X99696466Y-138263557D01*
X99852991Y-138347222D01*
X99888729Y-138376552D01*
X99990186Y-138459814D01*
X100055839Y-138539814D01*
X100102778Y-138597009D01*
X100186443Y-138753534D01*
X100237963Y-138923373D01*
X100255359Y-139100000D01*
X100237963Y-139276627D01*
X100186443Y-139446466D01*
X100102778Y-139602991D01*
X100073448Y-139638729D01*
X99990186Y-139740186D01*
X99892705Y-139820185D01*
X99852991Y-139852778D01*
X99696466Y-139936443D01*
X99526627Y-139987963D01*
X99460442Y-139994482D01*
X99394260Y-140001000D01*
X99305740Y-140001000D01*
X99239558Y-139994482D01*
X99173373Y-139987963D01*
X99003534Y-139936443D01*
X98847009Y-139852778D01*
X98807295Y-139820185D01*
X98709814Y-139740186D01*
X98626552Y-139638729D01*
X98597222Y-139602991D01*
X98513557Y-139446466D01*
X98462037Y-139276627D01*
X98444641Y-139100000D01*
X98462037Y-138923373D01*
X98513557Y-138753534D01*
X98597222Y-138597009D01*
X98644161Y-138539814D01*
X98709814Y-138459814D01*
X98811271Y-138376552D01*
X98847009Y-138347222D01*
X99003534Y-138263557D01*
X99173373Y-138212037D01*
X99239558Y-138205518D01*
X99305740Y-138199000D01*
X99394260Y-138199000D01*
X99460442Y-138205518D01*
X99460442Y-138205518D01*
G37*
G36*
X109060442Y-135745518D02*
G01*
X109126627Y-135752037D01*
X109296466Y-135803557D01*
X109452991Y-135887222D01*
X109471478Y-135902394D01*
X109590186Y-135999814D01*
X109673448Y-136101271D01*
X109702778Y-136137009D01*
X109786443Y-136293534D01*
X109837963Y-136463373D01*
X109855359Y-136640000D01*
X109837963Y-136816627D01*
X109786443Y-136986466D01*
X109702778Y-137142991D01*
X109698585Y-137148100D01*
X109590186Y-137280186D01*
X109488729Y-137363448D01*
X109452991Y-137392778D01*
X109296466Y-137476443D01*
X109126627Y-137527963D01*
X109060443Y-137534481D01*
X108994260Y-137541000D01*
X108905740Y-137541000D01*
X108839557Y-137534481D01*
X108773373Y-137527963D01*
X108603534Y-137476443D01*
X108447009Y-137392778D01*
X108411271Y-137363448D01*
X108309814Y-137280186D01*
X108201415Y-137148100D01*
X108197222Y-137142991D01*
X108113557Y-136986466D01*
X108062037Y-136816627D01*
X108044641Y-136640000D01*
X108062037Y-136463373D01*
X108113557Y-136293534D01*
X108197222Y-136137009D01*
X108226552Y-136101271D01*
X108309814Y-135999814D01*
X108428522Y-135902394D01*
X108447009Y-135887222D01*
X108603534Y-135803557D01*
X108773373Y-135752037D01*
X108839558Y-135745518D01*
X108905740Y-135739000D01*
X108994260Y-135739000D01*
X109060442Y-135745518D01*
X109060442Y-135745518D01*
G37*
G36*
X99460443Y-135665519D02*
G01*
X99526627Y-135672037D01*
X99696466Y-135723557D01*
X99852991Y-135807222D01*
X99888729Y-135836552D01*
X99990186Y-135919814D01*
X100055839Y-135999814D01*
X100102778Y-136057009D01*
X100102779Y-136057011D01*
X100173721Y-136189732D01*
X100186443Y-136213534D01*
X100237963Y-136383373D01*
X100255359Y-136560000D01*
X100237963Y-136736627D01*
X100213695Y-136816627D01*
X100186442Y-136906468D01*
X100144610Y-136984729D01*
X100102778Y-137062991D01*
X100077844Y-137093373D01*
X99990186Y-137200186D01*
X99892705Y-137280185D01*
X99852991Y-137312778D01*
X99696466Y-137396443D01*
X99526627Y-137447963D01*
X99460443Y-137454481D01*
X99394260Y-137461000D01*
X99305740Y-137461000D01*
X99239557Y-137454481D01*
X99173373Y-137447963D01*
X99003534Y-137396443D01*
X98847009Y-137312778D01*
X98807295Y-137280185D01*
X98709814Y-137200186D01*
X98622156Y-137093373D01*
X98597222Y-137062991D01*
X98555390Y-136984729D01*
X98513558Y-136906468D01*
X98486305Y-136816627D01*
X98462037Y-136736627D01*
X98444641Y-136560000D01*
X98462037Y-136383373D01*
X98513557Y-136213534D01*
X98526280Y-136189732D01*
X98597221Y-136057011D01*
X98597222Y-136057009D01*
X98644161Y-135999814D01*
X98709814Y-135919814D01*
X98811271Y-135836552D01*
X98847009Y-135807222D01*
X99003534Y-135723557D01*
X99173373Y-135672037D01*
X99239557Y-135665519D01*
X99305740Y-135659000D01*
X99394260Y-135659000D01*
X99460443Y-135665519D01*
X99460443Y-135665519D01*
G37*
G36*
X132711766Y-135751899D02*
G01*
X132836481Y-135803558D01*
X132843890Y-135806627D01*
X132962798Y-135886079D01*
X133063921Y-135987202D01*
X133110566Y-136057011D01*
X133143374Y-136106112D01*
X133198101Y-136238234D01*
X133226000Y-136378494D01*
X133226000Y-136521506D01*
X133198101Y-136661766D01*
X133167093Y-136736625D01*
X133143373Y-136793890D01*
X133063921Y-136912798D01*
X132962798Y-137013921D01*
X132843890Y-137093373D01*
X132843889Y-137093374D01*
X132843888Y-137093374D01*
X132711766Y-137148101D01*
X132571506Y-137176000D01*
X132428494Y-137176000D01*
X132288234Y-137148101D01*
X132156112Y-137093374D01*
X132156111Y-137093374D01*
X132156110Y-137093373D01*
X132037202Y-137013921D01*
X131936079Y-136912798D01*
X131856627Y-136793890D01*
X131832907Y-136736625D01*
X131801899Y-136661766D01*
X131774000Y-136521506D01*
X131774000Y-136378494D01*
X131801899Y-136238234D01*
X131856626Y-136106112D01*
X131889434Y-136057011D01*
X131936079Y-135987202D01*
X132037202Y-135886079D01*
X132156110Y-135806627D01*
X132163519Y-135803558D01*
X132288234Y-135751899D01*
X132428494Y-135724000D01*
X132571506Y-135724000D01*
X132711766Y-135751899D01*
X132711766Y-135751899D01*
G37*
G36*
X168192394Y-134860934D02*
G01*
X168337405Y-134921000D01*
X168343626Y-134923577D01*
X168479732Y-135014520D01*
X168595480Y-135130268D01*
X168686423Y-135266374D01*
X168686424Y-135266376D01*
X168749066Y-135417606D01*
X168781000Y-135578152D01*
X168781000Y-135741848D01*
X168749066Y-135902394D01*
X168686424Y-136053624D01*
X168686423Y-136053626D01*
X168595480Y-136189732D01*
X168479732Y-136305480D01*
X168343626Y-136396423D01*
X168343625Y-136396424D01*
X168343624Y-136396424D01*
X168192394Y-136459066D01*
X168031848Y-136491000D01*
X167868152Y-136491000D01*
X167707606Y-136459066D01*
X167556376Y-136396424D01*
X167556375Y-136396424D01*
X167556374Y-136396423D01*
X167420268Y-136305480D01*
X167304520Y-136189732D01*
X167213577Y-136053626D01*
X167213576Y-136053624D01*
X167150934Y-135902394D01*
X167119000Y-135741848D01*
X167119000Y-135578152D01*
X167150934Y-135417606D01*
X167213576Y-135266376D01*
X167213577Y-135266374D01*
X167304520Y-135130268D01*
X167420268Y-135014520D01*
X167556374Y-134923577D01*
X167562595Y-134921000D01*
X167707606Y-134860934D01*
X167868152Y-134829000D01*
X168031848Y-134829000D01*
X168192394Y-134860934D01*
X168192394Y-134860934D01*
G37*
G36*
X142792394Y-134860934D02*
G01*
X142937405Y-134921000D01*
X142943626Y-134923577D01*
X143079732Y-135014520D01*
X143195480Y-135130268D01*
X143286423Y-135266374D01*
X143286424Y-135266376D01*
X143349066Y-135417606D01*
X143381000Y-135578152D01*
X143381000Y-135741848D01*
X143349066Y-135902394D01*
X143286424Y-136053624D01*
X143286423Y-136053626D01*
X143195480Y-136189732D01*
X143079732Y-136305480D01*
X142943626Y-136396423D01*
X142943625Y-136396424D01*
X142943624Y-136396424D01*
X142792394Y-136459066D01*
X142631848Y-136491000D01*
X142468152Y-136491000D01*
X142307606Y-136459066D01*
X142156376Y-136396424D01*
X142156375Y-136396424D01*
X142156374Y-136396423D01*
X142020268Y-136305480D01*
X141904520Y-136189732D01*
X141813577Y-136053626D01*
X141813576Y-136053624D01*
X141750934Y-135902394D01*
X141719000Y-135741848D01*
X141719000Y-135578152D01*
X141750934Y-135417606D01*
X141813576Y-135266376D01*
X141813577Y-135266374D01*
X141904520Y-135130268D01*
X142020268Y-135014520D01*
X142156374Y-134923577D01*
X142162595Y-134921000D01*
X142307606Y-134860934D01*
X142468152Y-134829000D01*
X142631848Y-134829000D01*
X142792394Y-134860934D01*
X142792394Y-134860934D01*
G37*
G36*
X109060442Y-133205518D02*
G01*
X109126627Y-133212037D01*
X109296466Y-133263557D01*
X109452991Y-133347222D01*
X109471478Y-133362394D01*
X109590186Y-133459814D01*
X109673448Y-133561271D01*
X109702778Y-133597009D01*
X109786443Y-133753534D01*
X109837963Y-133923373D01*
X109855359Y-134100000D01*
X109837963Y-134276627D01*
X109786443Y-134446466D01*
X109702778Y-134602991D01*
X109673448Y-134638729D01*
X109590186Y-134740186D01*
X109488729Y-134823448D01*
X109452991Y-134852778D01*
X109296466Y-134936443D01*
X109126627Y-134987963D01*
X109060442Y-134994482D01*
X108994260Y-135001000D01*
X108905740Y-135001000D01*
X108839558Y-134994482D01*
X108773373Y-134987963D01*
X108603534Y-134936443D01*
X108447009Y-134852778D01*
X108411271Y-134823448D01*
X108309814Y-134740186D01*
X108226552Y-134638729D01*
X108197222Y-134602991D01*
X108113557Y-134446466D01*
X108062037Y-134276627D01*
X108044641Y-134100000D01*
X108062037Y-133923373D01*
X108113557Y-133753534D01*
X108197222Y-133597009D01*
X108226552Y-133561271D01*
X108309814Y-133459814D01*
X108428522Y-133362394D01*
X108447009Y-133347222D01*
X108603534Y-133263557D01*
X108773373Y-133212037D01*
X108839558Y-133205518D01*
X108905740Y-133199000D01*
X108994260Y-133199000D01*
X109060442Y-133205518D01*
X109060442Y-133205518D01*
G37*
G36*
X99460443Y-133125519D02*
G01*
X99526627Y-133132037D01*
X99696466Y-133183557D01*
X99852991Y-133267222D01*
X99888729Y-133296552D01*
X99990186Y-133379814D01*
X100055839Y-133459814D01*
X100102778Y-133517009D01*
X100102779Y-133517011D01*
X100173721Y-133649732D01*
X100186443Y-133673534D01*
X100237963Y-133843373D01*
X100255359Y-134020000D01*
X100237963Y-134196627D01*
X100186443Y-134366466D01*
X100102778Y-134522991D01*
X100073448Y-134558729D01*
X99990186Y-134660186D01*
X99892705Y-134740185D01*
X99852991Y-134772778D01*
X99696466Y-134856443D01*
X99526627Y-134907963D01*
X99460443Y-134914481D01*
X99394260Y-134921000D01*
X99305740Y-134921000D01*
X99239557Y-134914481D01*
X99173373Y-134907963D01*
X99003534Y-134856443D01*
X98847009Y-134772778D01*
X98807295Y-134740185D01*
X98709814Y-134660186D01*
X98626552Y-134558729D01*
X98597222Y-134522991D01*
X98513557Y-134366466D01*
X98462037Y-134196627D01*
X98444641Y-134020000D01*
X98462037Y-133843373D01*
X98513557Y-133673534D01*
X98526280Y-133649732D01*
X98597221Y-133517011D01*
X98597222Y-133517009D01*
X98644161Y-133459814D01*
X98709814Y-133379814D01*
X98811271Y-133296552D01*
X98847009Y-133267222D01*
X99003534Y-133183557D01*
X99173373Y-133132037D01*
X99239557Y-133125519D01*
X99305740Y-133119000D01*
X99394260Y-133119000D01*
X99460443Y-133125519D01*
X99460443Y-133125519D01*
G37*
G36*
X142792394Y-132320934D02*
G01*
X142937405Y-132381000D01*
X142943626Y-132383577D01*
X143079732Y-132474520D01*
X143195480Y-132590268D01*
X143286423Y-132726374D01*
X143286424Y-132726376D01*
X143349066Y-132877606D01*
X143381000Y-133038152D01*
X143381000Y-133201848D01*
X143349066Y-133362394D01*
X143286424Y-133513624D01*
X143286423Y-133513626D01*
X143195480Y-133649732D01*
X143079732Y-133765480D01*
X142943626Y-133856423D01*
X142943625Y-133856424D01*
X142943624Y-133856424D01*
X142792394Y-133919066D01*
X142631848Y-133951000D01*
X142468152Y-133951000D01*
X142307606Y-133919066D01*
X142156376Y-133856424D01*
X142156375Y-133856424D01*
X142156374Y-133856423D01*
X142020268Y-133765480D01*
X141904520Y-133649732D01*
X141813577Y-133513626D01*
X141813576Y-133513624D01*
X141750934Y-133362394D01*
X141719000Y-133201848D01*
X141719000Y-133038152D01*
X141750934Y-132877606D01*
X141813576Y-132726376D01*
X141813577Y-132726374D01*
X141904520Y-132590268D01*
X142020268Y-132474520D01*
X142156374Y-132383577D01*
X142162595Y-132381000D01*
X142307606Y-132320934D01*
X142468152Y-132289000D01*
X142631848Y-132289000D01*
X142792394Y-132320934D01*
X142792394Y-132320934D01*
G37*
G36*
X168192394Y-132320934D02*
G01*
X168337405Y-132381000D01*
X168343626Y-132383577D01*
X168479732Y-132474520D01*
X168595480Y-132590268D01*
X168686423Y-132726374D01*
X168686424Y-132726376D01*
X168749066Y-132877606D01*
X168781000Y-133038152D01*
X168781000Y-133201848D01*
X168749066Y-133362394D01*
X168686424Y-133513624D01*
X168686423Y-133513626D01*
X168595480Y-133649732D01*
X168479732Y-133765480D01*
X168343626Y-133856423D01*
X168343625Y-133856424D01*
X168343624Y-133856424D01*
X168192394Y-133919066D01*
X168031848Y-133951000D01*
X167868152Y-133951000D01*
X167707606Y-133919066D01*
X167556376Y-133856424D01*
X167556375Y-133856424D01*
X167556374Y-133856423D01*
X167420268Y-133765480D01*
X167304520Y-133649732D01*
X167213577Y-133513626D01*
X167213576Y-133513624D01*
X167150934Y-133362394D01*
X167119000Y-133201848D01*
X167119000Y-133038152D01*
X167150934Y-132877606D01*
X167213576Y-132726376D01*
X167213577Y-132726374D01*
X167304520Y-132590268D01*
X167420268Y-132474520D01*
X167556374Y-132383577D01*
X167562595Y-132381000D01*
X167707606Y-132320934D01*
X167868152Y-132289000D01*
X168031848Y-132289000D01*
X168192394Y-132320934D01*
X168192394Y-132320934D01*
G37*
G36*
X109851000Y-132461000D02*
G01*
X108049000Y-132461000D01*
X108049000Y-130659000D01*
X109851000Y-130659000D01*
X109851000Y-132461000D01*
X109851000Y-132461000D01*
G37*
G36*
X100251000Y-132381000D02*
G01*
X98449000Y-132381000D01*
X98449000Y-130579000D01*
X100251000Y-130579000D01*
X100251000Y-132381000D01*
X100251000Y-132381000D01*
G37*
G36*
X132711766Y-130751899D02*
G01*
X132843888Y-130806626D01*
X132843890Y-130806627D01*
X132962798Y-130886079D01*
X133063921Y-130987202D01*
X133063922Y-130987204D01*
X133143374Y-131106112D01*
X133198101Y-131238234D01*
X133226000Y-131378494D01*
X133226000Y-131521506D01*
X133198101Y-131661766D01*
X133143374Y-131793888D01*
X133143373Y-131793890D01*
X133063921Y-131912798D01*
X132962798Y-132013921D01*
X132843890Y-132093373D01*
X132843889Y-132093374D01*
X132843888Y-132093374D01*
X132711766Y-132148101D01*
X132571506Y-132176000D01*
X132428494Y-132176000D01*
X132288234Y-132148101D01*
X132156112Y-132093374D01*
X132156111Y-132093374D01*
X132156110Y-132093373D01*
X132037202Y-132013921D01*
X131936079Y-131912798D01*
X131856627Y-131793890D01*
X131856626Y-131793888D01*
X131801899Y-131661766D01*
X131774000Y-131521506D01*
X131774000Y-131378494D01*
X131801899Y-131238234D01*
X131856626Y-131106112D01*
X131936078Y-130987204D01*
X131936079Y-130987202D01*
X132037202Y-130886079D01*
X132156110Y-130806627D01*
X132156112Y-130806626D01*
X132288234Y-130751899D01*
X132428494Y-130724000D01*
X132571506Y-130724000D01*
X132711766Y-130751899D01*
X132711766Y-130751899D01*
G37*
G36*
X168192394Y-129780934D02*
G01*
X168343624Y-129843576D01*
X168343626Y-129843577D01*
X168479732Y-129934520D01*
X168595480Y-130050268D01*
X168686423Y-130186374D01*
X168686424Y-130186376D01*
X168749066Y-130337606D01*
X168781000Y-130498152D01*
X168781000Y-130661848D01*
X168749066Y-130822394D01*
X168686424Y-130973624D01*
X168686423Y-130973626D01*
X168595480Y-131109732D01*
X168479732Y-131225480D01*
X168343626Y-131316423D01*
X168343625Y-131316424D01*
X168343624Y-131316424D01*
X168192394Y-131379066D01*
X168031848Y-131411000D01*
X167868152Y-131411000D01*
X167707606Y-131379066D01*
X167556376Y-131316424D01*
X167556375Y-131316424D01*
X167556374Y-131316423D01*
X167420268Y-131225480D01*
X167304520Y-131109732D01*
X167213577Y-130973626D01*
X167213576Y-130973624D01*
X167150934Y-130822394D01*
X167119000Y-130661848D01*
X167119000Y-130498152D01*
X167150934Y-130337606D01*
X167213576Y-130186376D01*
X167213577Y-130186374D01*
X167304520Y-130050268D01*
X167420268Y-129934520D01*
X167556374Y-129843577D01*
X167556376Y-129843576D01*
X167707606Y-129780934D01*
X167868152Y-129749000D01*
X168031848Y-129749000D01*
X168192394Y-129780934D01*
X168192394Y-129780934D01*
G37*
G36*
X142792394Y-129780934D02*
G01*
X142943624Y-129843576D01*
X142943626Y-129843577D01*
X143079732Y-129934520D01*
X143195480Y-130050268D01*
X143286423Y-130186374D01*
X143286424Y-130186376D01*
X143349066Y-130337606D01*
X143381000Y-130498152D01*
X143381000Y-130661848D01*
X143349066Y-130822394D01*
X143286424Y-130973624D01*
X143286423Y-130973626D01*
X143195480Y-131109732D01*
X143079732Y-131225480D01*
X142943626Y-131316423D01*
X142943625Y-131316424D01*
X142943624Y-131316424D01*
X142792394Y-131379066D01*
X142631848Y-131411000D01*
X142468152Y-131411000D01*
X142307606Y-131379066D01*
X142156376Y-131316424D01*
X142156375Y-131316424D01*
X142156374Y-131316423D01*
X142020268Y-131225480D01*
X141904520Y-131109732D01*
X141813577Y-130973626D01*
X141813576Y-130973624D01*
X141750934Y-130822394D01*
X141719000Y-130661848D01*
X141719000Y-130498152D01*
X141750934Y-130337606D01*
X141813576Y-130186376D01*
X141813577Y-130186374D01*
X141904520Y-130050268D01*
X142020268Y-129934520D01*
X142156374Y-129843577D01*
X142156376Y-129843576D01*
X142307606Y-129780934D01*
X142468152Y-129749000D01*
X142631848Y-129749000D01*
X142792394Y-129780934D01*
X142792394Y-129780934D01*
G37*
G36*
X142792394Y-127240934D02*
G01*
X142943624Y-127303576D01*
X142943626Y-127303577D01*
X143079732Y-127394520D01*
X143195480Y-127510268D01*
X143286423Y-127646374D01*
X143286424Y-127646376D01*
X143349066Y-127797606D01*
X143381000Y-127958152D01*
X143381000Y-128121848D01*
X143349066Y-128282394D01*
X143286424Y-128433624D01*
X143286423Y-128433626D01*
X143195480Y-128569732D01*
X143079732Y-128685480D01*
X142943626Y-128776423D01*
X142943625Y-128776424D01*
X142943624Y-128776424D01*
X142792394Y-128839066D01*
X142631848Y-128871000D01*
X142468152Y-128871000D01*
X142307606Y-128839066D01*
X142156376Y-128776424D01*
X142156375Y-128776424D01*
X142156374Y-128776423D01*
X142020268Y-128685480D01*
X141904520Y-128569732D01*
X141813577Y-128433626D01*
X141813576Y-128433624D01*
X141750934Y-128282394D01*
X141719000Y-128121848D01*
X141719000Y-127958152D01*
X141750934Y-127797606D01*
X141813576Y-127646376D01*
X141813577Y-127646374D01*
X141904520Y-127510268D01*
X142020268Y-127394520D01*
X142156374Y-127303577D01*
X142156376Y-127303576D01*
X142307606Y-127240934D01*
X142468152Y-127209000D01*
X142631848Y-127209000D01*
X142792394Y-127240934D01*
X142792394Y-127240934D01*
G37*
G36*
X168192394Y-127240934D02*
G01*
X168343624Y-127303576D01*
X168343626Y-127303577D01*
X168479732Y-127394520D01*
X168595480Y-127510268D01*
X168686423Y-127646374D01*
X168686424Y-127646376D01*
X168749066Y-127797606D01*
X168781000Y-127958152D01*
X168781000Y-128121848D01*
X168749066Y-128282394D01*
X168686424Y-128433624D01*
X168686423Y-128433626D01*
X168595480Y-128569732D01*
X168479732Y-128685480D01*
X168343626Y-128776423D01*
X168343625Y-128776424D01*
X168343624Y-128776424D01*
X168192394Y-128839066D01*
X168031848Y-128871000D01*
X167868152Y-128871000D01*
X167707606Y-128839066D01*
X167556376Y-128776424D01*
X167556375Y-128776424D01*
X167556374Y-128776423D01*
X167420268Y-128685480D01*
X167304520Y-128569732D01*
X167213577Y-128433626D01*
X167213576Y-128433624D01*
X167150934Y-128282394D01*
X167119000Y-128121848D01*
X167119000Y-127958152D01*
X167150934Y-127797606D01*
X167213576Y-127646376D01*
X167213577Y-127646374D01*
X167304520Y-127510268D01*
X167420268Y-127394520D01*
X167556374Y-127303577D01*
X167556376Y-127303576D01*
X167707606Y-127240934D01*
X167868152Y-127209000D01*
X168031848Y-127209000D01*
X168192394Y-127240934D01*
X168192394Y-127240934D01*
G37*
G36*
X142792394Y-124700934D02*
G01*
X142943624Y-124763576D01*
X142943626Y-124763577D01*
X143079732Y-124854520D01*
X143195480Y-124970268D01*
X143286423Y-125106374D01*
X143286424Y-125106376D01*
X143349066Y-125257606D01*
X143381000Y-125418152D01*
X143381000Y-125581848D01*
X143349066Y-125742394D01*
X143286424Y-125893624D01*
X143286423Y-125893626D01*
X143195480Y-126029732D01*
X143079732Y-126145480D01*
X142943626Y-126236423D01*
X142943625Y-126236424D01*
X142943624Y-126236424D01*
X142792394Y-126299066D01*
X142631848Y-126331000D01*
X142468152Y-126331000D01*
X142307606Y-126299066D01*
X142156376Y-126236424D01*
X142156375Y-126236424D01*
X142156374Y-126236423D01*
X142020268Y-126145480D01*
X141904520Y-126029732D01*
X141813577Y-125893626D01*
X141813576Y-125893624D01*
X141750934Y-125742394D01*
X141719000Y-125581848D01*
X141719000Y-125418152D01*
X141750934Y-125257606D01*
X141813576Y-125106376D01*
X141813577Y-125106374D01*
X141904520Y-124970268D01*
X142020268Y-124854520D01*
X142156374Y-124763577D01*
X142156376Y-124763576D01*
X142307606Y-124700934D01*
X142468152Y-124669000D01*
X142631848Y-124669000D01*
X142792394Y-124700934D01*
X142792394Y-124700934D01*
G37*
G36*
X168192394Y-124700934D02*
G01*
X168343624Y-124763576D01*
X168343626Y-124763577D01*
X168479732Y-124854520D01*
X168595480Y-124970268D01*
X168686423Y-125106374D01*
X168686424Y-125106376D01*
X168749066Y-125257606D01*
X168781000Y-125418152D01*
X168781000Y-125581848D01*
X168749066Y-125742394D01*
X168686424Y-125893624D01*
X168686423Y-125893626D01*
X168595480Y-126029732D01*
X168479732Y-126145480D01*
X168343626Y-126236423D01*
X168343625Y-126236424D01*
X168343624Y-126236424D01*
X168192394Y-126299066D01*
X168031848Y-126331000D01*
X167868152Y-126331000D01*
X167707606Y-126299066D01*
X167556376Y-126236424D01*
X167556375Y-126236424D01*
X167556374Y-126236423D01*
X167420268Y-126145480D01*
X167304520Y-126029732D01*
X167213577Y-125893626D01*
X167213576Y-125893624D01*
X167150934Y-125742394D01*
X167119000Y-125581848D01*
X167119000Y-125418152D01*
X167150934Y-125257606D01*
X167213576Y-125106376D01*
X167213577Y-125106374D01*
X167304520Y-124970268D01*
X167420268Y-124854520D01*
X167556374Y-124763577D01*
X167556376Y-124763576D01*
X167707606Y-124700934D01*
X167868152Y-124669000D01*
X168031848Y-124669000D01*
X168192394Y-124700934D01*
X168192394Y-124700934D01*
G37*
G36*
X113567142Y-123218242D02*
G01*
X113715101Y-123279529D01*
X113848255Y-123368499D01*
X113961501Y-123481745D01*
X114050471Y-123614899D01*
X114111758Y-123762858D01*
X114143000Y-123919925D01*
X114143000Y-124080075D01*
X114111758Y-124237142D01*
X114050471Y-124385101D01*
X113961501Y-124518255D01*
X113848255Y-124631501D01*
X113715101Y-124720471D01*
X113567142Y-124781758D01*
X113410075Y-124813000D01*
X113249925Y-124813000D01*
X113092858Y-124781758D01*
X112944899Y-124720471D01*
X112811745Y-124631501D01*
X112698499Y-124518255D01*
X112609529Y-124385101D01*
X112548242Y-124237142D01*
X112517000Y-124080075D01*
X112517000Y-123919925D01*
X112548242Y-123762858D01*
X112609529Y-123614899D01*
X112698499Y-123481745D01*
X112811745Y-123368499D01*
X112944899Y-123279529D01*
X113092858Y-123218242D01*
X113249925Y-123187000D01*
X113410075Y-123187000D01*
X113567142Y-123218242D01*
X113567142Y-123218242D01*
G37*
G36*
X130707142Y-123218242D02*
G01*
X130855101Y-123279529D01*
X130988255Y-123368499D01*
X131101501Y-123481745D01*
X131190471Y-123614899D01*
X131251758Y-123762858D01*
X131283000Y-123919925D01*
X131283000Y-124080075D01*
X131251758Y-124237142D01*
X131190471Y-124385101D01*
X131101501Y-124518255D01*
X130988255Y-124631501D01*
X130855101Y-124720471D01*
X130707142Y-124781758D01*
X130550075Y-124813000D01*
X130389925Y-124813000D01*
X130232858Y-124781758D01*
X130084899Y-124720471D01*
X129951745Y-124631501D01*
X129838499Y-124518255D01*
X129749529Y-124385101D01*
X129688242Y-124237142D01*
X129657000Y-124080075D01*
X129657000Y-123919925D01*
X129688242Y-123762858D01*
X129749529Y-123614899D01*
X129838499Y-123481745D01*
X129951745Y-123368499D01*
X130084899Y-123279529D01*
X130232858Y-123218242D01*
X130389925Y-123187000D01*
X130550075Y-123187000D01*
X130707142Y-123218242D01*
X130707142Y-123218242D01*
G37*
G36*
X90967142Y-123218242D02*
G01*
X91115101Y-123279529D01*
X91248255Y-123368499D01*
X91361501Y-123481745D01*
X91450471Y-123614899D01*
X91511758Y-123762858D01*
X91543000Y-123919925D01*
X91543000Y-124080075D01*
X91511758Y-124237142D01*
X91450471Y-124385101D01*
X91361501Y-124518255D01*
X91248255Y-124631501D01*
X91115101Y-124720471D01*
X90967142Y-124781758D01*
X90810075Y-124813000D01*
X90649925Y-124813000D01*
X90492858Y-124781758D01*
X90344899Y-124720471D01*
X90211745Y-124631501D01*
X90098499Y-124518255D01*
X90009529Y-124385101D01*
X89948242Y-124237142D01*
X89917000Y-124080075D01*
X89917000Y-123919925D01*
X89948242Y-123762858D01*
X90009529Y-123614899D01*
X90098499Y-123481745D01*
X90211745Y-123368499D01*
X90344899Y-123279529D01*
X90492858Y-123218242D01*
X90649925Y-123187000D01*
X90810075Y-123187000D01*
X90967142Y-123218242D01*
X90967142Y-123218242D01*
G37*
G36*
X108107142Y-123218242D02*
G01*
X108255101Y-123279529D01*
X108388255Y-123368499D01*
X108501501Y-123481745D01*
X108590471Y-123614899D01*
X108651758Y-123762858D01*
X108683000Y-123919925D01*
X108683000Y-124080075D01*
X108651758Y-124237142D01*
X108590471Y-124385101D01*
X108501501Y-124518255D01*
X108388255Y-124631501D01*
X108255101Y-124720471D01*
X108107142Y-124781758D01*
X107950075Y-124813000D01*
X107789925Y-124813000D01*
X107632858Y-124781758D01*
X107484899Y-124720471D01*
X107351745Y-124631501D01*
X107238499Y-124518255D01*
X107149529Y-124385101D01*
X107088242Y-124237142D01*
X107057000Y-124080075D01*
X107057000Y-123919925D01*
X107088242Y-123762858D01*
X107149529Y-123614899D01*
X107238499Y-123481745D01*
X107351745Y-123368499D01*
X107484899Y-123279529D01*
X107632858Y-123218242D01*
X107789925Y-123187000D01*
X107950075Y-123187000D01*
X108107142Y-123218242D01*
X108107142Y-123218242D01*
G37*
G36*
X168192394Y-122160934D02*
G01*
X168343624Y-122223576D01*
X168343626Y-122223577D01*
X168479732Y-122314520D01*
X168595480Y-122430268D01*
X168686423Y-122566374D01*
X168686424Y-122566376D01*
X168749066Y-122717606D01*
X168781000Y-122878152D01*
X168781000Y-123041848D01*
X168749066Y-123202394D01*
X168717115Y-123279529D01*
X168686423Y-123353626D01*
X168595480Y-123489732D01*
X168479732Y-123605480D01*
X168343626Y-123696423D01*
X168343625Y-123696424D01*
X168343624Y-123696424D01*
X168192394Y-123759066D01*
X168031848Y-123791000D01*
X167868152Y-123791000D01*
X167707606Y-123759066D01*
X167556376Y-123696424D01*
X167556375Y-123696424D01*
X167556374Y-123696423D01*
X167420268Y-123605480D01*
X167304520Y-123489732D01*
X167213577Y-123353626D01*
X167182885Y-123279529D01*
X167150934Y-123202394D01*
X167119000Y-123041848D01*
X167119000Y-122878152D01*
X167150934Y-122717606D01*
X167213576Y-122566376D01*
X167213577Y-122566374D01*
X167304520Y-122430268D01*
X167420268Y-122314520D01*
X167556374Y-122223577D01*
X167556376Y-122223576D01*
X167707606Y-122160934D01*
X167868152Y-122129000D01*
X168031848Y-122129000D01*
X168192394Y-122160934D01*
X168192394Y-122160934D01*
G37*
G36*
X142792394Y-122160934D02*
G01*
X142943624Y-122223576D01*
X142943626Y-122223577D01*
X143079732Y-122314520D01*
X143195480Y-122430268D01*
X143286423Y-122566374D01*
X143286424Y-122566376D01*
X143349066Y-122717606D01*
X143381000Y-122878152D01*
X143381000Y-123041848D01*
X143349066Y-123202394D01*
X143317115Y-123279529D01*
X143286423Y-123353626D01*
X143195480Y-123489732D01*
X143079732Y-123605480D01*
X142943626Y-123696423D01*
X142943625Y-123696424D01*
X142943624Y-123696424D01*
X142792394Y-123759066D01*
X142631848Y-123791000D01*
X142468152Y-123791000D01*
X142307606Y-123759066D01*
X142156376Y-123696424D01*
X142156375Y-123696424D01*
X142156374Y-123696423D01*
X142020268Y-123605480D01*
X141904520Y-123489732D01*
X141813577Y-123353626D01*
X141782885Y-123279529D01*
X141750934Y-123202394D01*
X141719000Y-123041848D01*
X141719000Y-122878152D01*
X141750934Y-122717606D01*
X141813576Y-122566376D01*
X141813577Y-122566374D01*
X141904520Y-122430268D01*
X142020268Y-122314520D01*
X142156374Y-122223577D01*
X142156376Y-122223576D01*
X142307606Y-122160934D01*
X142468152Y-122129000D01*
X142631848Y-122129000D01*
X142792394Y-122160934D01*
X142792394Y-122160934D01*
G37*
G36*
X168192394Y-119620934D02*
G01*
X168343624Y-119683576D01*
X168343626Y-119683577D01*
X168479732Y-119774520D01*
X168595480Y-119890268D01*
X168686423Y-120026374D01*
X168686424Y-120026376D01*
X168749066Y-120177606D01*
X168781000Y-120338152D01*
X168781000Y-120501848D01*
X168749066Y-120662394D01*
X168686424Y-120813624D01*
X168686423Y-120813626D01*
X168595480Y-120949732D01*
X168479732Y-121065480D01*
X168343626Y-121156423D01*
X168343625Y-121156424D01*
X168343624Y-121156424D01*
X168192394Y-121219066D01*
X168031848Y-121251000D01*
X167868152Y-121251000D01*
X167707606Y-121219066D01*
X167556376Y-121156424D01*
X167556375Y-121156424D01*
X167556374Y-121156423D01*
X167420268Y-121065480D01*
X167304520Y-120949732D01*
X167213577Y-120813626D01*
X167213576Y-120813624D01*
X167150934Y-120662394D01*
X167119000Y-120501848D01*
X167119000Y-120338152D01*
X167150934Y-120177606D01*
X167213576Y-120026376D01*
X167213577Y-120026374D01*
X167304520Y-119890268D01*
X167420268Y-119774520D01*
X167556374Y-119683577D01*
X167556376Y-119683576D01*
X167707606Y-119620934D01*
X167868152Y-119589000D01*
X168031848Y-119589000D01*
X168192394Y-119620934D01*
X168192394Y-119620934D01*
G37*
G36*
X142792394Y-119620934D02*
G01*
X142943624Y-119683576D01*
X142943626Y-119683577D01*
X143079732Y-119774520D01*
X143195480Y-119890268D01*
X143286423Y-120026374D01*
X143286424Y-120026376D01*
X143349066Y-120177606D01*
X143381000Y-120338152D01*
X143381000Y-120501848D01*
X143349066Y-120662394D01*
X143286424Y-120813624D01*
X143286423Y-120813626D01*
X143195480Y-120949732D01*
X143079732Y-121065480D01*
X142943626Y-121156423D01*
X142943625Y-121156424D01*
X142943624Y-121156424D01*
X142792394Y-121219066D01*
X142631848Y-121251000D01*
X142468152Y-121251000D01*
X142307606Y-121219066D01*
X142156376Y-121156424D01*
X142156375Y-121156424D01*
X142156374Y-121156423D01*
X142020268Y-121065480D01*
X141904520Y-120949732D01*
X141813577Y-120813626D01*
X141813576Y-120813624D01*
X141750934Y-120662394D01*
X141719000Y-120501848D01*
X141719000Y-120338152D01*
X141750934Y-120177606D01*
X141813576Y-120026376D01*
X141813577Y-120026374D01*
X141904520Y-119890268D01*
X142020268Y-119774520D01*
X142156374Y-119683577D01*
X142156376Y-119683576D01*
X142307606Y-119620934D01*
X142468152Y-119589000D01*
X142631848Y-119589000D01*
X142792394Y-119620934D01*
X142792394Y-119620934D01*
G37*
G36*
X168192394Y-117080934D02*
G01*
X168343624Y-117143576D01*
X168343626Y-117143577D01*
X168479732Y-117234520D01*
X168595480Y-117350268D01*
X168686423Y-117486374D01*
X168686424Y-117486376D01*
X168749066Y-117637606D01*
X168781000Y-117798152D01*
X168781000Y-117961848D01*
X168749066Y-118122394D01*
X168686424Y-118273624D01*
X168686423Y-118273626D01*
X168595480Y-118409732D01*
X168479732Y-118525480D01*
X168343626Y-118616423D01*
X168343625Y-118616424D01*
X168343624Y-118616424D01*
X168192394Y-118679066D01*
X168031848Y-118711000D01*
X167868152Y-118711000D01*
X167707606Y-118679066D01*
X167556376Y-118616424D01*
X167556375Y-118616424D01*
X167556374Y-118616423D01*
X167420268Y-118525480D01*
X167304520Y-118409732D01*
X167213577Y-118273626D01*
X167213576Y-118273624D01*
X167150934Y-118122394D01*
X167119000Y-117961848D01*
X167119000Y-117798152D01*
X167150934Y-117637606D01*
X167213576Y-117486376D01*
X167213577Y-117486374D01*
X167304520Y-117350268D01*
X167420268Y-117234520D01*
X167556374Y-117143577D01*
X167556376Y-117143576D01*
X167707606Y-117080934D01*
X167868152Y-117049000D01*
X168031848Y-117049000D01*
X168192394Y-117080934D01*
X168192394Y-117080934D01*
G37*
G36*
X142792394Y-117080934D02*
G01*
X142943624Y-117143576D01*
X142943626Y-117143577D01*
X143079732Y-117234520D01*
X143195480Y-117350268D01*
X143286423Y-117486374D01*
X143286424Y-117486376D01*
X143349066Y-117637606D01*
X143381000Y-117798152D01*
X143381000Y-117961848D01*
X143349066Y-118122394D01*
X143286424Y-118273624D01*
X143286423Y-118273626D01*
X143195480Y-118409732D01*
X143079732Y-118525480D01*
X142943626Y-118616423D01*
X142943625Y-118616424D01*
X142943624Y-118616424D01*
X142792394Y-118679066D01*
X142631848Y-118711000D01*
X142468152Y-118711000D01*
X142307606Y-118679066D01*
X142156376Y-118616424D01*
X142156375Y-118616424D01*
X142156374Y-118616423D01*
X142020268Y-118525480D01*
X141904520Y-118409732D01*
X141813577Y-118273626D01*
X141813576Y-118273624D01*
X141750934Y-118122394D01*
X141719000Y-117961848D01*
X141719000Y-117798152D01*
X141750934Y-117637606D01*
X141813576Y-117486376D01*
X141813577Y-117486374D01*
X141904520Y-117350268D01*
X142020268Y-117234520D01*
X142156374Y-117143577D01*
X142156376Y-117143576D01*
X142307606Y-117080934D01*
X142468152Y-117049000D01*
X142631848Y-117049000D01*
X142792394Y-117080934D01*
X142792394Y-117080934D01*
G37*
G36*
X142792394Y-114540934D02*
G01*
X142943624Y-114603576D01*
X142943626Y-114603577D01*
X143079732Y-114694520D01*
X143195480Y-114810268D01*
X143286423Y-114946374D01*
X143286424Y-114946376D01*
X143349066Y-115097606D01*
X143381000Y-115258152D01*
X143381000Y-115421848D01*
X143349066Y-115582394D01*
X143286424Y-115733624D01*
X143286423Y-115733626D01*
X143195480Y-115869732D01*
X143079732Y-115985480D01*
X142943626Y-116076423D01*
X142943625Y-116076424D01*
X142943624Y-116076424D01*
X142792394Y-116139066D01*
X142631848Y-116171000D01*
X142468152Y-116171000D01*
X142307606Y-116139066D01*
X142156376Y-116076424D01*
X142156375Y-116076424D01*
X142156374Y-116076423D01*
X142020268Y-115985480D01*
X141904520Y-115869732D01*
X141813577Y-115733626D01*
X141813576Y-115733624D01*
X141750934Y-115582394D01*
X141719000Y-115421848D01*
X141719000Y-115258152D01*
X141750934Y-115097606D01*
X141813576Y-114946376D01*
X141813577Y-114946374D01*
X141904520Y-114810268D01*
X142020268Y-114694520D01*
X142156374Y-114603577D01*
X142156376Y-114603576D01*
X142307606Y-114540934D01*
X142468152Y-114509000D01*
X142631848Y-114509000D01*
X142792394Y-114540934D01*
X142792394Y-114540934D01*
G37*
G36*
X168192394Y-114540934D02*
G01*
X168343624Y-114603576D01*
X168343626Y-114603577D01*
X168479732Y-114694520D01*
X168595480Y-114810268D01*
X168686423Y-114946374D01*
X168686424Y-114946376D01*
X168749066Y-115097606D01*
X168781000Y-115258152D01*
X168781000Y-115421848D01*
X168749066Y-115582394D01*
X168686424Y-115733624D01*
X168686423Y-115733626D01*
X168595480Y-115869732D01*
X168479732Y-115985480D01*
X168343626Y-116076423D01*
X168343625Y-116076424D01*
X168343624Y-116076424D01*
X168192394Y-116139066D01*
X168031848Y-116171000D01*
X167868152Y-116171000D01*
X167707606Y-116139066D01*
X167556376Y-116076424D01*
X167556375Y-116076424D01*
X167556374Y-116076423D01*
X167420268Y-115985480D01*
X167304520Y-115869732D01*
X167213577Y-115733626D01*
X167213576Y-115733624D01*
X167150934Y-115582394D01*
X167119000Y-115421848D01*
X167119000Y-115258152D01*
X167150934Y-115097606D01*
X167213576Y-114946376D01*
X167213577Y-114946374D01*
X167304520Y-114810268D01*
X167420268Y-114694520D01*
X167556374Y-114603577D01*
X167556376Y-114603576D01*
X167707606Y-114540934D01*
X167868152Y-114509000D01*
X168031848Y-114509000D01*
X168192394Y-114540934D01*
X168192394Y-114540934D01*
G37*
G36*
X168192394Y-112000934D02*
G01*
X168343624Y-112063576D01*
X168343626Y-112063577D01*
X168479732Y-112154520D01*
X168595480Y-112270268D01*
X168686423Y-112406374D01*
X168686424Y-112406376D01*
X168749066Y-112557606D01*
X168781000Y-112718152D01*
X168781000Y-112881848D01*
X168749066Y-113042394D01*
X168686424Y-113193624D01*
X168686423Y-113193626D01*
X168595480Y-113329732D01*
X168479732Y-113445480D01*
X168343626Y-113536423D01*
X168343625Y-113536424D01*
X168343624Y-113536424D01*
X168192394Y-113599066D01*
X168031848Y-113631000D01*
X167868152Y-113631000D01*
X167707606Y-113599066D01*
X167556376Y-113536424D01*
X167556375Y-113536424D01*
X167556374Y-113536423D01*
X167420268Y-113445480D01*
X167304520Y-113329732D01*
X167213577Y-113193626D01*
X167213576Y-113193624D01*
X167150934Y-113042394D01*
X167119000Y-112881848D01*
X167119000Y-112718152D01*
X167150934Y-112557606D01*
X167213576Y-112406376D01*
X167213577Y-112406374D01*
X167304520Y-112270268D01*
X167420268Y-112154520D01*
X167556374Y-112063577D01*
X167556376Y-112063576D01*
X167707606Y-112000934D01*
X167868152Y-111969000D01*
X168031848Y-111969000D01*
X168192394Y-112000934D01*
X168192394Y-112000934D01*
G37*
G36*
X142792394Y-112000934D02*
G01*
X142943624Y-112063576D01*
X142943626Y-112063577D01*
X143079732Y-112154520D01*
X143195480Y-112270268D01*
X143286423Y-112406374D01*
X143286424Y-112406376D01*
X143349066Y-112557606D01*
X143381000Y-112718152D01*
X143381000Y-112881848D01*
X143349066Y-113042394D01*
X143286424Y-113193624D01*
X143286423Y-113193626D01*
X143195480Y-113329732D01*
X143079732Y-113445480D01*
X142943626Y-113536423D01*
X142943625Y-113536424D01*
X142943624Y-113536424D01*
X142792394Y-113599066D01*
X142631848Y-113631000D01*
X142468152Y-113631000D01*
X142307606Y-113599066D01*
X142156376Y-113536424D01*
X142156375Y-113536424D01*
X142156374Y-113536423D01*
X142020268Y-113445480D01*
X141904520Y-113329732D01*
X141813577Y-113193626D01*
X141813576Y-113193624D01*
X141750934Y-113042394D01*
X141719000Y-112881848D01*
X141719000Y-112718152D01*
X141750934Y-112557606D01*
X141813576Y-112406376D01*
X141813577Y-112406374D01*
X141904520Y-112270268D01*
X142020268Y-112154520D01*
X142156374Y-112063577D01*
X142156376Y-112063576D01*
X142307606Y-112000934D01*
X142468152Y-111969000D01*
X142631848Y-111969000D01*
X142792394Y-112000934D01*
X142792394Y-112000934D01*
G37*
G36*
X142792394Y-109460934D02*
G01*
X142943624Y-109523576D01*
X142943626Y-109523577D01*
X143079732Y-109614520D01*
X143195480Y-109730268D01*
X143200980Y-109738500D01*
X143286424Y-109866376D01*
X143349066Y-110017606D01*
X143381000Y-110178152D01*
X143381000Y-110341848D01*
X143349066Y-110502394D01*
X143286424Y-110653624D01*
X143286423Y-110653626D01*
X143195480Y-110789732D01*
X143079732Y-110905480D01*
X142943626Y-110996423D01*
X142943625Y-110996424D01*
X142943624Y-110996424D01*
X142792394Y-111059066D01*
X142631848Y-111091000D01*
X142468152Y-111091000D01*
X142307606Y-111059066D01*
X142156376Y-110996424D01*
X142156375Y-110996424D01*
X142156374Y-110996423D01*
X142020268Y-110905480D01*
X141904520Y-110789732D01*
X141813577Y-110653626D01*
X141813576Y-110653624D01*
X141750934Y-110502394D01*
X141719000Y-110341848D01*
X141719000Y-110178152D01*
X141750934Y-110017606D01*
X141813576Y-109866376D01*
X141899020Y-109738500D01*
X141904520Y-109730268D01*
X142020268Y-109614520D01*
X142156374Y-109523577D01*
X142156376Y-109523576D01*
X142307606Y-109460934D01*
X142468152Y-109429000D01*
X142631848Y-109429000D01*
X142792394Y-109460934D01*
X142792394Y-109460934D01*
G37*
G36*
X168192394Y-109460934D02*
G01*
X168343624Y-109523576D01*
X168343626Y-109523577D01*
X168479732Y-109614520D01*
X168595480Y-109730268D01*
X168600980Y-109738500D01*
X168686424Y-109866376D01*
X168749066Y-110017606D01*
X168781000Y-110178152D01*
X168781000Y-110341848D01*
X168749066Y-110502394D01*
X168686424Y-110653624D01*
X168686423Y-110653626D01*
X168595480Y-110789732D01*
X168479732Y-110905480D01*
X168343626Y-110996423D01*
X168343625Y-110996424D01*
X168343624Y-110996424D01*
X168192394Y-111059066D01*
X168031848Y-111091000D01*
X167868152Y-111091000D01*
X167707606Y-111059066D01*
X167556376Y-110996424D01*
X167556375Y-110996424D01*
X167556374Y-110996423D01*
X167420268Y-110905480D01*
X167304520Y-110789732D01*
X167213577Y-110653626D01*
X167213576Y-110653624D01*
X167150934Y-110502394D01*
X167119000Y-110341848D01*
X167119000Y-110178152D01*
X167150934Y-110017606D01*
X167213576Y-109866376D01*
X167299020Y-109738500D01*
X167304520Y-109730268D01*
X167420268Y-109614520D01*
X167556374Y-109523577D01*
X167556376Y-109523576D01*
X167707606Y-109460934D01*
X167868152Y-109429000D01*
X168031848Y-109429000D01*
X168192394Y-109460934D01*
X168192394Y-109460934D01*
G37*
G36*
X138329591Y-108765585D02*
G01*
X138363569Y-108775893D01*
X138394890Y-108792634D01*
X138422339Y-108815161D01*
X138444866Y-108842610D01*
X138461607Y-108873931D01*
X138471915Y-108907909D01*
X138476000Y-108949390D01*
X138476000Y-109550610D01*
X138471915Y-109592091D01*
X138461607Y-109626069D01*
X138444866Y-109657390D01*
X138422339Y-109684839D01*
X138394890Y-109707366D01*
X138363569Y-109724107D01*
X138329591Y-109734415D01*
X138288110Y-109738500D01*
X137611890Y-109738500D01*
X137570409Y-109734415D01*
X137536431Y-109724107D01*
X137505110Y-109707366D01*
X137477661Y-109684839D01*
X137455134Y-109657390D01*
X137438393Y-109626069D01*
X137428085Y-109592091D01*
X137424000Y-109550610D01*
X137424000Y-108949390D01*
X137428085Y-108907909D01*
X137438393Y-108873931D01*
X137455134Y-108842610D01*
X137477661Y-108815161D01*
X137505110Y-108792634D01*
X137536431Y-108775893D01*
X137570409Y-108765585D01*
X137611890Y-108761500D01*
X138288110Y-108761500D01*
X138329591Y-108765585D01*
X138329591Y-108765585D01*
G37*
G36*
X142792394Y-106920934D02*
G01*
X142943624Y-106983576D01*
X142943626Y-106983577D01*
X143079732Y-107074520D01*
X143195480Y-107190268D01*
X143213765Y-107217634D01*
X143286424Y-107326376D01*
X143349066Y-107477606D01*
X143381000Y-107638152D01*
X143381000Y-107801848D01*
X143349066Y-107962394D01*
X143295397Y-108091961D01*
X143286423Y-108113626D01*
X143195480Y-108249732D01*
X143079732Y-108365480D01*
X142943626Y-108456423D01*
X142943625Y-108456424D01*
X142943624Y-108456424D01*
X142792394Y-108519066D01*
X142631848Y-108551000D01*
X142468152Y-108551000D01*
X142307606Y-108519066D01*
X142156376Y-108456424D01*
X142156375Y-108456424D01*
X142156374Y-108456423D01*
X142020268Y-108365480D01*
X141904520Y-108249732D01*
X141813577Y-108113626D01*
X141804603Y-108091961D01*
X141750934Y-107962394D01*
X141719000Y-107801848D01*
X141719000Y-107638152D01*
X141750934Y-107477606D01*
X141813576Y-107326376D01*
X141886235Y-107217634D01*
X141904520Y-107190268D01*
X142020268Y-107074520D01*
X142156374Y-106983577D01*
X142156376Y-106983576D01*
X142307606Y-106920934D01*
X142468152Y-106889000D01*
X142631848Y-106889000D01*
X142792394Y-106920934D01*
X142792394Y-106920934D01*
G37*
G36*
X168192394Y-106920934D02*
G01*
X168343624Y-106983576D01*
X168343626Y-106983577D01*
X168479732Y-107074520D01*
X168595480Y-107190268D01*
X168613765Y-107217634D01*
X168686424Y-107326376D01*
X168749066Y-107477606D01*
X168781000Y-107638152D01*
X168781000Y-107801848D01*
X168749066Y-107962394D01*
X168695397Y-108091961D01*
X168686423Y-108113626D01*
X168595480Y-108249732D01*
X168479732Y-108365480D01*
X168343626Y-108456423D01*
X168343625Y-108456424D01*
X168343624Y-108456424D01*
X168192394Y-108519066D01*
X168031848Y-108551000D01*
X167868152Y-108551000D01*
X167707606Y-108519066D01*
X167556376Y-108456424D01*
X167556375Y-108456424D01*
X167556374Y-108456423D01*
X167420268Y-108365480D01*
X167304520Y-108249732D01*
X167213577Y-108113626D01*
X167204603Y-108091961D01*
X167150934Y-107962394D01*
X167119000Y-107801848D01*
X167119000Y-107638152D01*
X167150934Y-107477606D01*
X167213576Y-107326376D01*
X167286235Y-107217634D01*
X167304520Y-107190268D01*
X167420268Y-107074520D01*
X167556374Y-106983577D01*
X167556376Y-106983576D01*
X167707606Y-106920934D01*
X167868152Y-106889000D01*
X168031848Y-106889000D01*
X168192394Y-106920934D01*
X168192394Y-106920934D01*
G37*
G36*
X138329591Y-107190585D02*
G01*
X138363569Y-107200893D01*
X138394890Y-107217634D01*
X138422339Y-107240161D01*
X138444866Y-107267610D01*
X138461607Y-107298931D01*
X138471915Y-107332909D01*
X138476000Y-107374390D01*
X138476000Y-107975610D01*
X138471915Y-108017091D01*
X138461607Y-108051069D01*
X138444866Y-108082390D01*
X138422339Y-108109839D01*
X138394890Y-108132366D01*
X138363569Y-108149107D01*
X138329591Y-108159415D01*
X138288110Y-108163500D01*
X137611890Y-108163500D01*
X137570409Y-108159415D01*
X137536431Y-108149107D01*
X137505110Y-108132366D01*
X137477661Y-108109839D01*
X137455134Y-108082390D01*
X137438393Y-108051069D01*
X137428085Y-108017091D01*
X137424000Y-107975610D01*
X137424000Y-107374390D01*
X137428085Y-107332909D01*
X137438393Y-107298931D01*
X137455134Y-107267610D01*
X137477661Y-107240161D01*
X137505110Y-107217634D01*
X137536431Y-107200893D01*
X137570409Y-107190585D01*
X137611890Y-107186500D01*
X138288110Y-107186500D01*
X138329591Y-107190585D01*
X138329591Y-107190585D01*
G37*
G36*
X172279591Y-106803085D02*
G01*
X172313569Y-106813393D01*
X172344890Y-106830134D01*
X172372339Y-106852661D01*
X172394866Y-106880110D01*
X172411607Y-106911431D01*
X172421915Y-106945409D01*
X172426000Y-106986890D01*
X172426000Y-107588110D01*
X172421915Y-107629591D01*
X172411607Y-107663569D01*
X172394866Y-107694890D01*
X172372339Y-107722339D01*
X172344890Y-107744866D01*
X172313569Y-107761607D01*
X172279591Y-107771915D01*
X172238110Y-107776000D01*
X171561890Y-107776000D01*
X171520409Y-107771915D01*
X171486431Y-107761607D01*
X171455110Y-107744866D01*
X171427661Y-107722339D01*
X171405134Y-107694890D01*
X171388393Y-107663569D01*
X171378085Y-107629591D01*
X171374000Y-107588110D01*
X171374000Y-106986890D01*
X171378085Y-106945409D01*
X171388393Y-106911431D01*
X171405134Y-106880110D01*
X171427661Y-106852661D01*
X171455110Y-106830134D01*
X171486431Y-106813393D01*
X171520409Y-106803085D01*
X171561890Y-106799000D01*
X172238110Y-106799000D01*
X172279591Y-106803085D01*
X172279591Y-106803085D01*
G37*
G36*
X172279591Y-105228085D02*
G01*
X172313569Y-105238393D01*
X172344890Y-105255134D01*
X172372339Y-105277661D01*
X172394866Y-105305110D01*
X172411607Y-105336431D01*
X172421915Y-105370409D01*
X172426000Y-105411890D01*
X172426000Y-106013110D01*
X172421915Y-106054591D01*
X172411607Y-106088569D01*
X172394866Y-106119890D01*
X172372339Y-106147339D01*
X172344890Y-106169866D01*
X172313569Y-106186607D01*
X172279591Y-106196915D01*
X172238110Y-106201000D01*
X171561890Y-106201000D01*
X171520409Y-106196915D01*
X171486431Y-106186607D01*
X171455110Y-106169866D01*
X171427661Y-106147339D01*
X171405134Y-106119890D01*
X171388393Y-106088569D01*
X171378085Y-106054591D01*
X171374000Y-106013110D01*
X171374000Y-105411890D01*
X171378085Y-105370409D01*
X171388393Y-105336431D01*
X171405134Y-105305110D01*
X171427661Y-105277661D01*
X171455110Y-105255134D01*
X171486431Y-105238393D01*
X171520409Y-105228085D01*
X171561890Y-105224000D01*
X172238110Y-105224000D01*
X172279591Y-105228085D01*
X172279591Y-105228085D01*
G37*
G36*
X168192394Y-104380934D02*
G01*
X168343624Y-104443576D01*
X168343626Y-104443577D01*
X168479732Y-104534520D01*
X168595480Y-104650268D01*
X168686423Y-104786374D01*
X168686424Y-104786376D01*
X168749066Y-104937606D01*
X168781000Y-105098152D01*
X168781000Y-105261848D01*
X168749066Y-105422394D01*
X168686956Y-105572339D01*
X168686423Y-105573626D01*
X168595480Y-105709732D01*
X168479732Y-105825480D01*
X168343626Y-105916423D01*
X168343625Y-105916424D01*
X168343624Y-105916424D01*
X168192394Y-105979066D01*
X168031848Y-106011000D01*
X167868152Y-106011000D01*
X167707606Y-105979066D01*
X167556376Y-105916424D01*
X167556375Y-105916424D01*
X167556374Y-105916423D01*
X167420268Y-105825480D01*
X167304520Y-105709732D01*
X167213577Y-105573626D01*
X167213044Y-105572339D01*
X167150934Y-105422394D01*
X167119000Y-105261848D01*
X167119000Y-105098152D01*
X167150934Y-104937606D01*
X167213576Y-104786376D01*
X167213577Y-104786374D01*
X167304520Y-104650268D01*
X167420268Y-104534520D01*
X167556374Y-104443577D01*
X167556376Y-104443576D01*
X167707606Y-104380934D01*
X167868152Y-104349000D01*
X168031848Y-104349000D01*
X168192394Y-104380934D01*
X168192394Y-104380934D01*
G37*
G36*
X142792394Y-104380934D02*
G01*
X142943624Y-104443576D01*
X142943626Y-104443577D01*
X143079732Y-104534520D01*
X143195480Y-104650268D01*
X143286423Y-104786374D01*
X143286424Y-104786376D01*
X143349066Y-104937606D01*
X143381000Y-105098152D01*
X143381000Y-105261848D01*
X143349066Y-105422394D01*
X143286956Y-105572339D01*
X143286423Y-105573626D01*
X143195480Y-105709732D01*
X143079732Y-105825480D01*
X142943626Y-105916423D01*
X142943625Y-105916424D01*
X142943624Y-105916424D01*
X142792394Y-105979066D01*
X142631848Y-106011000D01*
X142468152Y-106011000D01*
X142307606Y-105979066D01*
X142156376Y-105916424D01*
X142156375Y-105916424D01*
X142156374Y-105916423D01*
X142020268Y-105825480D01*
X141904520Y-105709732D01*
X141813577Y-105573626D01*
X141813044Y-105572339D01*
X141750934Y-105422394D01*
X141719000Y-105261848D01*
X141719000Y-105098152D01*
X141750934Y-104937606D01*
X141813576Y-104786376D01*
X141813577Y-104786374D01*
X141904520Y-104650268D01*
X142020268Y-104534520D01*
X142156374Y-104443577D01*
X142156376Y-104443576D01*
X142307606Y-104380934D01*
X142468152Y-104349000D01*
X142631848Y-104349000D01*
X142792394Y-104380934D01*
X142792394Y-104380934D01*
G37*
G36*
X138329591Y-104653085D02*
G01*
X138363569Y-104663393D01*
X138394890Y-104680134D01*
X138422339Y-104702661D01*
X138444866Y-104730110D01*
X138461607Y-104761431D01*
X138471915Y-104795409D01*
X138476000Y-104836890D01*
X138476000Y-105438110D01*
X138471915Y-105479591D01*
X138461607Y-105513569D01*
X138444866Y-105544890D01*
X138422339Y-105572339D01*
X138394890Y-105594866D01*
X138363569Y-105611607D01*
X138329591Y-105621915D01*
X138288110Y-105626000D01*
X137611890Y-105626000D01*
X137570409Y-105621915D01*
X137536431Y-105611607D01*
X137505110Y-105594866D01*
X137477661Y-105572339D01*
X137455134Y-105544890D01*
X137438393Y-105513569D01*
X137428085Y-105479591D01*
X137424000Y-105438110D01*
X137424000Y-104836890D01*
X137428085Y-104795409D01*
X137438393Y-104761431D01*
X137455134Y-104730110D01*
X137477661Y-104702661D01*
X137505110Y-104680134D01*
X137536431Y-104663393D01*
X137570409Y-104653085D01*
X137611890Y-104649000D01*
X138288110Y-104649000D01*
X138329591Y-104653085D01*
X138329591Y-104653085D01*
G37*
G36*
X85801440Y-104301440D02*
G01*
X81198560Y-104301440D01*
X81198560Y-99698560D01*
X85801440Y-99698560D01*
X85801440Y-104301440D01*
X85801440Y-104301440D01*
G37*
G36*
X138329591Y-103078085D02*
G01*
X138363569Y-103088393D01*
X138394890Y-103105134D01*
X138422339Y-103127661D01*
X138444866Y-103155110D01*
X138461607Y-103186431D01*
X138471915Y-103220409D01*
X138476000Y-103261890D01*
X138476000Y-103863110D01*
X138471915Y-103904591D01*
X138461607Y-103938569D01*
X138444866Y-103969890D01*
X138422339Y-103997339D01*
X138394890Y-104019866D01*
X138363569Y-104036607D01*
X138329591Y-104046915D01*
X138288110Y-104051000D01*
X137611890Y-104051000D01*
X137570409Y-104046915D01*
X137536431Y-104036607D01*
X137505110Y-104019866D01*
X137477661Y-103997339D01*
X137455134Y-103969890D01*
X137438393Y-103938569D01*
X137428085Y-103904591D01*
X137424000Y-103863110D01*
X137424000Y-103261890D01*
X137428085Y-103220409D01*
X137438393Y-103186431D01*
X137455134Y-103155110D01*
X137477661Y-103127661D01*
X137505110Y-103105134D01*
X137536431Y-103088393D01*
X137570409Y-103078085D01*
X137611890Y-103074000D01*
X138288110Y-103074000D01*
X138329591Y-103078085D01*
X138329591Y-103078085D01*
G37*
G36*
X168192394Y-101840934D02*
G01*
X168343624Y-101903576D01*
X168343626Y-101903577D01*
X168479732Y-101994520D01*
X168595480Y-102110268D01*
X168673953Y-102227712D01*
X168686424Y-102246376D01*
X168749066Y-102397606D01*
X168781000Y-102558152D01*
X168781000Y-102721848D01*
X168749066Y-102882394D01*
X168711830Y-102972288D01*
X168686423Y-103033626D01*
X168595480Y-103169732D01*
X168479732Y-103285480D01*
X168343626Y-103376423D01*
X168343625Y-103376424D01*
X168343624Y-103376424D01*
X168192394Y-103439066D01*
X168031848Y-103471000D01*
X167868152Y-103471000D01*
X167707606Y-103439066D01*
X167556376Y-103376424D01*
X167556375Y-103376424D01*
X167556374Y-103376423D01*
X167420268Y-103285480D01*
X167304520Y-103169732D01*
X167213577Y-103033626D01*
X167188170Y-102972288D01*
X167150934Y-102882394D01*
X167119000Y-102721848D01*
X167119000Y-102558152D01*
X167150934Y-102397606D01*
X167213576Y-102246376D01*
X167226047Y-102227712D01*
X167304520Y-102110268D01*
X167420268Y-101994520D01*
X167556374Y-101903577D01*
X167556376Y-101903576D01*
X167707606Y-101840934D01*
X167868152Y-101809000D01*
X168031848Y-101809000D01*
X168192394Y-101840934D01*
X168192394Y-101840934D01*
G37*
G36*
X142792394Y-101840934D02*
G01*
X142943624Y-101903576D01*
X142943626Y-101903577D01*
X143079732Y-101994520D01*
X143195480Y-102110268D01*
X143273953Y-102227712D01*
X143286424Y-102246376D01*
X143349066Y-102397606D01*
X143381000Y-102558152D01*
X143381000Y-102721848D01*
X143349066Y-102882394D01*
X143311830Y-102972288D01*
X143286423Y-103033626D01*
X143195480Y-103169732D01*
X143079732Y-103285480D01*
X142943626Y-103376423D01*
X142943625Y-103376424D01*
X142943624Y-103376424D01*
X142792394Y-103439066D01*
X142631848Y-103471000D01*
X142468152Y-103471000D01*
X142307606Y-103439066D01*
X142156376Y-103376424D01*
X142156375Y-103376424D01*
X142156374Y-103376423D01*
X142020268Y-103285480D01*
X141904520Y-103169732D01*
X141813577Y-103033626D01*
X141788170Y-102972288D01*
X141750934Y-102882394D01*
X141719000Y-102721848D01*
X141719000Y-102558152D01*
X141750934Y-102397606D01*
X141813576Y-102246376D01*
X141826047Y-102227712D01*
X141904520Y-102110268D01*
X142020268Y-101994520D01*
X142156374Y-101903577D01*
X142156376Y-101903576D01*
X142307606Y-101840934D01*
X142468152Y-101809000D01*
X142631848Y-101809000D01*
X142792394Y-101840934D01*
X142792394Y-101840934D01*
G37*
G36*
X171584468Y-102066065D02*
G01*
X171623138Y-102077796D01*
X171658777Y-102096846D01*
X171690017Y-102122483D01*
X171715654Y-102153723D01*
X171734704Y-102189362D01*
X171746435Y-102228032D01*
X171751000Y-102274388D01*
X171751000Y-102925612D01*
X171746435Y-102971968D01*
X171734704Y-103010638D01*
X171715654Y-103046277D01*
X171690017Y-103077517D01*
X171658777Y-103103154D01*
X171623138Y-103122204D01*
X171584468Y-103133935D01*
X171538112Y-103138500D01*
X170461888Y-103138500D01*
X170415532Y-103133935D01*
X170376862Y-103122204D01*
X170341223Y-103103154D01*
X170309983Y-103077517D01*
X170284346Y-103046277D01*
X170265296Y-103010638D01*
X170253565Y-102971968D01*
X170249000Y-102925612D01*
X170249000Y-102274388D01*
X170253565Y-102228032D01*
X170265296Y-102189362D01*
X170284346Y-102153723D01*
X170309983Y-102122483D01*
X170341223Y-102096846D01*
X170376862Y-102077796D01*
X170415532Y-102066065D01*
X170461888Y-102061500D01*
X171538112Y-102061500D01*
X171584468Y-102066065D01*
X171584468Y-102066065D01*
G37*
G36*
X173379591Y-101940585D02*
G01*
X173413569Y-101950893D01*
X173444890Y-101967634D01*
X173472339Y-101990161D01*
X173494866Y-102017610D01*
X173511607Y-102048931D01*
X173521915Y-102082909D01*
X173526000Y-102124390D01*
X173526000Y-102725610D01*
X173521915Y-102767091D01*
X173511607Y-102801069D01*
X173494866Y-102832390D01*
X173472339Y-102859839D01*
X173444890Y-102882366D01*
X173413569Y-102899107D01*
X173379591Y-102909415D01*
X173338110Y-102913500D01*
X172661890Y-102913500D01*
X172620409Y-102909415D01*
X172586431Y-102899107D01*
X172555110Y-102882366D01*
X172527661Y-102859839D01*
X172505134Y-102832390D01*
X172488393Y-102801069D01*
X172478085Y-102767091D01*
X172474000Y-102725610D01*
X172474000Y-102124390D01*
X172478085Y-102082909D01*
X172488393Y-102048931D01*
X172505134Y-102017610D01*
X172527661Y-101990161D01*
X172555110Y-101967634D01*
X172586431Y-101950893D01*
X172620409Y-101940585D01*
X172661890Y-101936500D01*
X173338110Y-101936500D01*
X173379591Y-101940585D01*
X173379591Y-101940585D01*
G37*
G36*
X173379591Y-100365585D02*
G01*
X173413569Y-100375893D01*
X173444890Y-100392634D01*
X173472339Y-100415161D01*
X173494866Y-100442610D01*
X173511607Y-100473931D01*
X173521915Y-100507909D01*
X173526000Y-100549390D01*
X173526000Y-101150610D01*
X173521915Y-101192091D01*
X173511607Y-101226069D01*
X173494866Y-101257390D01*
X173472339Y-101284839D01*
X173444890Y-101307366D01*
X173413569Y-101324107D01*
X173379591Y-101334415D01*
X173338110Y-101338500D01*
X172661890Y-101338500D01*
X172620409Y-101334415D01*
X172586431Y-101324107D01*
X172555110Y-101307366D01*
X172527661Y-101284839D01*
X172505134Y-101257390D01*
X172488393Y-101226069D01*
X172478085Y-101192091D01*
X172474000Y-101150610D01*
X172474000Y-100549390D01*
X172478085Y-100507909D01*
X172488393Y-100473931D01*
X172505134Y-100442610D01*
X172527661Y-100415161D01*
X172555110Y-100392634D01*
X172586431Y-100375893D01*
X172620409Y-100365585D01*
X172661890Y-100361500D01*
X173338110Y-100361500D01*
X173379591Y-100365585D01*
X173379591Y-100365585D01*
G37*
G36*
X171584468Y-100191065D02*
G01*
X171623138Y-100202796D01*
X171658777Y-100221846D01*
X171690017Y-100247483D01*
X171715654Y-100278723D01*
X171734704Y-100314362D01*
X171746435Y-100353032D01*
X171751000Y-100399388D01*
X171751000Y-101050612D01*
X171746435Y-101096968D01*
X171734704Y-101135638D01*
X171715654Y-101171277D01*
X171690017Y-101202517D01*
X171658777Y-101228154D01*
X171623138Y-101247204D01*
X171584468Y-101258935D01*
X171538112Y-101263500D01*
X170461888Y-101263500D01*
X170415532Y-101258935D01*
X170376862Y-101247204D01*
X170341223Y-101228154D01*
X170309983Y-101202517D01*
X170284346Y-101171277D01*
X170265296Y-101135638D01*
X170253565Y-101096968D01*
X170249000Y-101050612D01*
X170249000Y-100399388D01*
X170253565Y-100353032D01*
X170265296Y-100314362D01*
X170284346Y-100278723D01*
X170309983Y-100247483D01*
X170341223Y-100221846D01*
X170376862Y-100202796D01*
X170415532Y-100191065D01*
X170461888Y-100186500D01*
X171538112Y-100186500D01*
X171584468Y-100191065D01*
X171584468Y-100191065D01*
G37*
G36*
X168192394Y-99300934D02*
G01*
X168343624Y-99363576D01*
X168343626Y-99363577D01*
X168479732Y-99454520D01*
X168595480Y-99570268D01*
X168681202Y-99698560D01*
X168686424Y-99706376D01*
X168749066Y-99857606D01*
X168781000Y-100018152D01*
X168781000Y-100181848D01*
X168749066Y-100342394D01*
X168702112Y-100455750D01*
X168686423Y-100493626D01*
X168595480Y-100629732D01*
X168479732Y-100745480D01*
X168343626Y-100836423D01*
X168343625Y-100836424D01*
X168343624Y-100836424D01*
X168192394Y-100899066D01*
X168031848Y-100931000D01*
X167868152Y-100931000D01*
X167707606Y-100899066D01*
X167556376Y-100836424D01*
X167556375Y-100836424D01*
X167556374Y-100836423D01*
X167420268Y-100745480D01*
X167304520Y-100629732D01*
X167213577Y-100493626D01*
X167197888Y-100455750D01*
X167150934Y-100342394D01*
X167119000Y-100181848D01*
X167119000Y-100018152D01*
X167150934Y-99857606D01*
X167213576Y-99706376D01*
X167218798Y-99698560D01*
X167304520Y-99570268D01*
X167420268Y-99454520D01*
X167556374Y-99363577D01*
X167556376Y-99363576D01*
X167707606Y-99300934D01*
X167868152Y-99269000D01*
X168031848Y-99269000D01*
X168192394Y-99300934D01*
X168192394Y-99300934D01*
G37*
G36*
X142792394Y-99300934D02*
G01*
X142943624Y-99363576D01*
X142943626Y-99363577D01*
X143079732Y-99454520D01*
X143195480Y-99570268D01*
X143281202Y-99698560D01*
X143286424Y-99706376D01*
X143349066Y-99857606D01*
X143381000Y-100018152D01*
X143381000Y-100181848D01*
X143349066Y-100342394D01*
X143302112Y-100455750D01*
X143286423Y-100493626D01*
X143195480Y-100629732D01*
X143079732Y-100745480D01*
X142943626Y-100836423D01*
X142943625Y-100836424D01*
X142943624Y-100836424D01*
X142792394Y-100899066D01*
X142631848Y-100931000D01*
X142468152Y-100931000D01*
X142307606Y-100899066D01*
X142156376Y-100836424D01*
X142156375Y-100836424D01*
X142156374Y-100836423D01*
X142020268Y-100745480D01*
X141904520Y-100629732D01*
X141813577Y-100493626D01*
X141797888Y-100455750D01*
X141750934Y-100342394D01*
X141719000Y-100181848D01*
X141719000Y-100018152D01*
X141750934Y-99857606D01*
X141813576Y-99706376D01*
X141818798Y-99698560D01*
X141904520Y-99570268D01*
X142020268Y-99454520D01*
X142156374Y-99363577D01*
X142156376Y-99363576D01*
X142307606Y-99300934D01*
X142468152Y-99269000D01*
X142631848Y-99269000D01*
X142792394Y-99300934D01*
X142792394Y-99300934D01*
G37*
G36*
X168192394Y-96760934D02*
G01*
X168343624Y-96823576D01*
X168343626Y-96823577D01*
X168479732Y-96914520D01*
X168595480Y-97030268D01*
X168686423Y-97166374D01*
X168686424Y-97166376D01*
X168749066Y-97317606D01*
X168781000Y-97478152D01*
X168781000Y-97641848D01*
X168749066Y-97802394D01*
X168686424Y-97953624D01*
X168686423Y-97953626D01*
X168595480Y-98089732D01*
X168479732Y-98205480D01*
X168343626Y-98296423D01*
X168343625Y-98296424D01*
X168343624Y-98296424D01*
X168192394Y-98359066D01*
X168031848Y-98391000D01*
X167868152Y-98391000D01*
X167707606Y-98359066D01*
X167556376Y-98296424D01*
X167556375Y-98296424D01*
X167556374Y-98296423D01*
X167420268Y-98205480D01*
X167304520Y-98089732D01*
X167213577Y-97953626D01*
X167213576Y-97953624D01*
X167150934Y-97802394D01*
X167119000Y-97641848D01*
X167119000Y-97478152D01*
X167150934Y-97317606D01*
X167213576Y-97166376D01*
X167213577Y-97166374D01*
X167304520Y-97030268D01*
X167420268Y-96914520D01*
X167556374Y-96823577D01*
X167556376Y-96823576D01*
X167707606Y-96760934D01*
X167868152Y-96729000D01*
X168031848Y-96729000D01*
X168192394Y-96760934D01*
X168192394Y-96760934D01*
G37*
G36*
X142792394Y-96760934D02*
G01*
X142943624Y-96823576D01*
X142943626Y-96823577D01*
X143079732Y-96914520D01*
X143195480Y-97030268D01*
X143286423Y-97166374D01*
X143286424Y-97166376D01*
X143349066Y-97317606D01*
X143381000Y-97478152D01*
X143381000Y-97641848D01*
X143349066Y-97802394D01*
X143286424Y-97953624D01*
X143286423Y-97953626D01*
X143195480Y-98089732D01*
X143079732Y-98205480D01*
X142943626Y-98296423D01*
X142943625Y-98296424D01*
X142943624Y-98296424D01*
X142792394Y-98359066D01*
X142631848Y-98391000D01*
X142468152Y-98391000D01*
X142307606Y-98359066D01*
X142156376Y-98296424D01*
X142156375Y-98296424D01*
X142156374Y-98296423D01*
X142020268Y-98205480D01*
X141904520Y-98089732D01*
X141813577Y-97953626D01*
X141813576Y-97953624D01*
X141750934Y-97802394D01*
X141719000Y-97641848D01*
X141719000Y-97478152D01*
X141750934Y-97317606D01*
X141813576Y-97166376D01*
X141813577Y-97166374D01*
X141904520Y-97030268D01*
X142020268Y-96914520D01*
X142156374Y-96823577D01*
X142156376Y-96823576D01*
X142307606Y-96760934D01*
X142468152Y-96729000D01*
X142631848Y-96729000D01*
X142792394Y-96760934D01*
X142792394Y-96760934D01*
G37*
G36*
X84171304Y-93437002D02*
G01*
X84590139Y-93610489D01*
X84590141Y-93610490D01*
X84967083Y-93862355D01*
X85287645Y-94182917D01*
X85527973Y-94542592D01*
X85539511Y-94559861D01*
X85712998Y-94978696D01*
X85801440Y-95423327D01*
X85801440Y-95876673D01*
X85712998Y-96321304D01*
X85544125Y-96729000D01*
X85539510Y-96740141D01*
X85525616Y-96760935D01*
X85345653Y-97030269D01*
X85287645Y-97117083D01*
X84967083Y-97437645D01*
X84590141Y-97689510D01*
X84590140Y-97689511D01*
X84590139Y-97689511D01*
X84171304Y-97862998D01*
X83726673Y-97951440D01*
X83273327Y-97951440D01*
X82828696Y-97862998D01*
X82409861Y-97689511D01*
X82409860Y-97689511D01*
X82409859Y-97689510D01*
X82032917Y-97437645D01*
X81712355Y-97117083D01*
X81654348Y-97030269D01*
X81474384Y-96760935D01*
X81460490Y-96740141D01*
X81455875Y-96729000D01*
X81287002Y-96321304D01*
X81198560Y-95876673D01*
X81198560Y-95423327D01*
X81287002Y-94978696D01*
X81460489Y-94559861D01*
X81472028Y-94542592D01*
X81712355Y-94182917D01*
X82032917Y-93862355D01*
X82409859Y-93610490D01*
X82409861Y-93610489D01*
X82828696Y-93437002D01*
X83273327Y-93348560D01*
X83726673Y-93348560D01*
X84171304Y-93437002D01*
X84171304Y-93437002D01*
G37*
G36*
X142792394Y-94220934D02*
G01*
X142943624Y-94283576D01*
X142943626Y-94283577D01*
X143079732Y-94374520D01*
X143195480Y-94490268D01*
X143286423Y-94626374D01*
X143286424Y-94626376D01*
X143349066Y-94777606D01*
X143381000Y-94938152D01*
X143381000Y-95101848D01*
X143349066Y-95262394D01*
X143296992Y-95388110D01*
X143286423Y-95413626D01*
X143195480Y-95549732D01*
X143079732Y-95665480D01*
X142943626Y-95756423D01*
X142943625Y-95756424D01*
X142943624Y-95756424D01*
X142792394Y-95819066D01*
X142631848Y-95851000D01*
X142468152Y-95851000D01*
X142307606Y-95819066D01*
X142156376Y-95756424D01*
X142156375Y-95756424D01*
X142156374Y-95756423D01*
X142020268Y-95665480D01*
X141904520Y-95549732D01*
X141813577Y-95413626D01*
X141803008Y-95388110D01*
X141750934Y-95262394D01*
X141719000Y-95101848D01*
X141719000Y-94938152D01*
X141750934Y-94777606D01*
X141813576Y-94626376D01*
X141813577Y-94626374D01*
X141904520Y-94490268D01*
X142020268Y-94374520D01*
X142156374Y-94283577D01*
X142156376Y-94283576D01*
X142307606Y-94220934D01*
X142468152Y-94189000D01*
X142631848Y-94189000D01*
X142792394Y-94220934D01*
X142792394Y-94220934D01*
G37*
G36*
X168192394Y-94220934D02*
G01*
X168343624Y-94283576D01*
X168343626Y-94283577D01*
X168479732Y-94374520D01*
X168595480Y-94490268D01*
X168686423Y-94626374D01*
X168686424Y-94626376D01*
X168749066Y-94777606D01*
X168781000Y-94938152D01*
X168781000Y-95101848D01*
X168749066Y-95262394D01*
X168696992Y-95388110D01*
X168686423Y-95413626D01*
X168595480Y-95549732D01*
X168479732Y-95665480D01*
X168343626Y-95756423D01*
X168343625Y-95756424D01*
X168343624Y-95756424D01*
X168192394Y-95819066D01*
X168031848Y-95851000D01*
X167868152Y-95851000D01*
X167707606Y-95819066D01*
X167556376Y-95756424D01*
X167556375Y-95756424D01*
X167556374Y-95756423D01*
X167420268Y-95665480D01*
X167304520Y-95549732D01*
X167213577Y-95413626D01*
X167203008Y-95388110D01*
X167150934Y-95262394D01*
X167119000Y-95101848D01*
X167119000Y-94938152D01*
X167150934Y-94777606D01*
X167213576Y-94626376D01*
X167213577Y-94626374D01*
X167304520Y-94490268D01*
X167420268Y-94374520D01*
X167556374Y-94283577D01*
X167556376Y-94283576D01*
X167707606Y-94220934D01*
X167868152Y-94189000D01*
X168031848Y-94189000D01*
X168192394Y-94220934D01*
X168192394Y-94220934D01*
G37*
G36*
X172617091Y-94528085D02*
G01*
X172651069Y-94538393D01*
X172682390Y-94555134D01*
X172709839Y-94577661D01*
X172732366Y-94605110D01*
X172749107Y-94636431D01*
X172759415Y-94670409D01*
X172763500Y-94711890D01*
X172763500Y-95388110D01*
X172759415Y-95429591D01*
X172749107Y-95463569D01*
X172732366Y-95494890D01*
X172709839Y-95522339D01*
X172682390Y-95544866D01*
X172651069Y-95561607D01*
X172617091Y-95571915D01*
X172575610Y-95576000D01*
X171974390Y-95576000D01*
X171932909Y-95571915D01*
X171898931Y-95561607D01*
X171867610Y-95544866D01*
X171840161Y-95522339D01*
X171817634Y-95494890D01*
X171800893Y-95463569D01*
X171790585Y-95429591D01*
X171786500Y-95388110D01*
X171786500Y-94711890D01*
X171790585Y-94670409D01*
X171800893Y-94636431D01*
X171817634Y-94605110D01*
X171840161Y-94577661D01*
X171867610Y-94555134D01*
X171898931Y-94538393D01*
X171932909Y-94528085D01*
X171974390Y-94524000D01*
X172575610Y-94524000D01*
X172617091Y-94528085D01*
X172617091Y-94528085D01*
G37*
G36*
X171042091Y-94528085D02*
G01*
X171076069Y-94538393D01*
X171107390Y-94555134D01*
X171134839Y-94577661D01*
X171157366Y-94605110D01*
X171174107Y-94636431D01*
X171184415Y-94670409D01*
X171188500Y-94711890D01*
X171188500Y-95388110D01*
X171184415Y-95429591D01*
X171174107Y-95463569D01*
X171157366Y-95494890D01*
X171134839Y-95522339D01*
X171107390Y-95544866D01*
X171076069Y-95561607D01*
X171042091Y-95571915D01*
X171000610Y-95576000D01*
X170399390Y-95576000D01*
X170357909Y-95571915D01*
X170323931Y-95561607D01*
X170292610Y-95544866D01*
X170265161Y-95522339D01*
X170242634Y-95494890D01*
X170225893Y-95463569D01*
X170215585Y-95429591D01*
X170211500Y-95388110D01*
X170211500Y-94711890D01*
X170215585Y-94670409D01*
X170225893Y-94636431D01*
X170242634Y-94605110D01*
X170265161Y-94577661D01*
X170292610Y-94555134D01*
X170323931Y-94538393D01*
X170357909Y-94528085D01*
X170399390Y-94524000D01*
X171000610Y-94524000D01*
X171042091Y-94528085D01*
X171042091Y-94528085D01*
G37*
G36*
X142792394Y-91680934D02*
G01*
X142943624Y-91743576D01*
X142943626Y-91743577D01*
X143079732Y-91834520D01*
X143195480Y-91950268D01*
X143265549Y-92055134D01*
X143286424Y-92086376D01*
X143349066Y-92237606D01*
X143381000Y-92398152D01*
X143381000Y-92561848D01*
X143349066Y-92722394D01*
X143303769Y-92831750D01*
X143286423Y-92873626D01*
X143195480Y-93009732D01*
X143079732Y-93125480D01*
X142943626Y-93216423D01*
X142943625Y-93216424D01*
X142943624Y-93216424D01*
X142792394Y-93279066D01*
X142631848Y-93311000D01*
X142468152Y-93311000D01*
X142307606Y-93279066D01*
X142156376Y-93216424D01*
X142156375Y-93216424D01*
X142156374Y-93216423D01*
X142020268Y-93125480D01*
X141904520Y-93009732D01*
X141813577Y-92873626D01*
X141796231Y-92831750D01*
X141750934Y-92722394D01*
X141719000Y-92561848D01*
X141719000Y-92398152D01*
X141750934Y-92237606D01*
X141813576Y-92086376D01*
X141834451Y-92055134D01*
X141904520Y-91950268D01*
X142020268Y-91834520D01*
X142156374Y-91743577D01*
X142156376Y-91743576D01*
X142307606Y-91680934D01*
X142468152Y-91649000D01*
X142631848Y-91649000D01*
X142792394Y-91680934D01*
X142792394Y-91680934D01*
G37*
G36*
X168192394Y-91680934D02*
G01*
X168343624Y-91743576D01*
X168343626Y-91743577D01*
X168479732Y-91834520D01*
X168595480Y-91950268D01*
X168665549Y-92055134D01*
X168686424Y-92086376D01*
X168749066Y-92237606D01*
X168781000Y-92398152D01*
X168781000Y-92561848D01*
X168749066Y-92722394D01*
X168703769Y-92831750D01*
X168686423Y-92873626D01*
X168595480Y-93009732D01*
X168479732Y-93125480D01*
X168343626Y-93216423D01*
X168343625Y-93216424D01*
X168343624Y-93216424D01*
X168192394Y-93279066D01*
X168031848Y-93311000D01*
X167868152Y-93311000D01*
X167707606Y-93279066D01*
X167556376Y-93216424D01*
X167556375Y-93216424D01*
X167556374Y-93216423D01*
X167420268Y-93125480D01*
X167304520Y-93009732D01*
X167213577Y-92873626D01*
X167196231Y-92831750D01*
X167150934Y-92722394D01*
X167119000Y-92561848D01*
X167119000Y-92398152D01*
X167150934Y-92237606D01*
X167213576Y-92086376D01*
X167234451Y-92055134D01*
X167304520Y-91950268D01*
X167420268Y-91834520D01*
X167556374Y-91743577D01*
X167556376Y-91743576D01*
X167707606Y-91680934D01*
X167868152Y-91649000D01*
X168031848Y-91649000D01*
X168192394Y-91680934D01*
X168192394Y-91680934D01*
G37*
G36*
X172567091Y-92028085D02*
G01*
X172601069Y-92038393D01*
X172632390Y-92055134D01*
X172659839Y-92077661D01*
X172682366Y-92105110D01*
X172699107Y-92136431D01*
X172709415Y-92170409D01*
X172713500Y-92211890D01*
X172713500Y-92888110D01*
X172709415Y-92929591D01*
X172699107Y-92963569D01*
X172682366Y-92994890D01*
X172659839Y-93022339D01*
X172632390Y-93044866D01*
X172601069Y-93061607D01*
X172567091Y-93071915D01*
X172525610Y-93076000D01*
X171924390Y-93076000D01*
X171882909Y-93071915D01*
X171848931Y-93061607D01*
X171817610Y-93044866D01*
X171790161Y-93022339D01*
X171767634Y-92994890D01*
X171750893Y-92963569D01*
X171740585Y-92929591D01*
X171736500Y-92888110D01*
X171736500Y-92211890D01*
X171740585Y-92170409D01*
X171750893Y-92136431D01*
X171767634Y-92105110D01*
X171790161Y-92077661D01*
X171817610Y-92055134D01*
X171848931Y-92038393D01*
X171882909Y-92028085D01*
X171924390Y-92024000D01*
X172525610Y-92024000D01*
X172567091Y-92028085D01*
X172567091Y-92028085D01*
G37*
G36*
X170992091Y-92028085D02*
G01*
X171026069Y-92038393D01*
X171057390Y-92055134D01*
X171084839Y-92077661D01*
X171107366Y-92105110D01*
X171124107Y-92136431D01*
X171134415Y-92170409D01*
X171138500Y-92211890D01*
X171138500Y-92888110D01*
X171134415Y-92929591D01*
X171124107Y-92963569D01*
X171107366Y-92994890D01*
X171084839Y-93022339D01*
X171057390Y-93044866D01*
X171026069Y-93061607D01*
X170992091Y-93071915D01*
X170950610Y-93076000D01*
X170349390Y-93076000D01*
X170307909Y-93071915D01*
X170273931Y-93061607D01*
X170242610Y-93044866D01*
X170215161Y-93022339D01*
X170192634Y-92994890D01*
X170175893Y-92963569D01*
X170165585Y-92929591D01*
X170161500Y-92888110D01*
X170161500Y-92211890D01*
X170165585Y-92170409D01*
X170175893Y-92136431D01*
X170192634Y-92105110D01*
X170215161Y-92077661D01*
X170242610Y-92055134D01*
X170273931Y-92038393D01*
X170307909Y-92028085D01*
X170349390Y-92024000D01*
X170950610Y-92024000D01*
X170992091Y-92028085D01*
X170992091Y-92028085D01*
G37*
G36*
X168192394Y-89140934D02*
G01*
X168343624Y-89203576D01*
X168343626Y-89203577D01*
X168479732Y-89294520D01*
X168595480Y-89410268D01*
X168622363Y-89450502D01*
X168686424Y-89546376D01*
X168749066Y-89697606D01*
X168781000Y-89858152D01*
X168781000Y-90021848D01*
X168749066Y-90182394D01*
X168686424Y-90333624D01*
X168686423Y-90333626D01*
X168595480Y-90469732D01*
X168479732Y-90585480D01*
X168343626Y-90676423D01*
X168343625Y-90676424D01*
X168343624Y-90676424D01*
X168192394Y-90739066D01*
X168031848Y-90771000D01*
X167868152Y-90771000D01*
X167707606Y-90739066D01*
X167556376Y-90676424D01*
X167556375Y-90676424D01*
X167556374Y-90676423D01*
X167420268Y-90585480D01*
X167304520Y-90469732D01*
X167213577Y-90333626D01*
X167213576Y-90333624D01*
X167150934Y-90182394D01*
X167119000Y-90021848D01*
X167119000Y-89858152D01*
X167150934Y-89697606D01*
X167213576Y-89546376D01*
X167277637Y-89450502D01*
X167304520Y-89410268D01*
X167420268Y-89294520D01*
X167556374Y-89203577D01*
X167556376Y-89203576D01*
X167707606Y-89140934D01*
X167868152Y-89109000D01*
X168031848Y-89109000D01*
X168192394Y-89140934D01*
X168192394Y-89140934D01*
G37*
G36*
X143381000Y-90771000D02*
G01*
X141719000Y-90771000D01*
X141719000Y-89109000D01*
X143381000Y-89109000D01*
X143381000Y-90771000D01*
X143381000Y-90771000D01*
G37*
G36*
X137642007Y-85883582D02*
G01*
X138042563Y-86049498D01*
X138042565Y-86049499D01*
X138403056Y-86290371D01*
X138709629Y-86596944D01*
X138884055Y-86857992D01*
X138950502Y-86957437D01*
X139116418Y-87357993D01*
X139201000Y-87783219D01*
X139201000Y-88216781D01*
X139116418Y-88642007D01*
X138950502Y-89042563D01*
X138950501Y-89042565D01*
X138709629Y-89403056D01*
X138403056Y-89709629D01*
X138042565Y-89950501D01*
X138042564Y-89950502D01*
X138042563Y-89950502D01*
X137642007Y-90116418D01*
X137216781Y-90201000D01*
X136783219Y-90201000D01*
X136357993Y-90116418D01*
X135957437Y-89950502D01*
X135957436Y-89950502D01*
X135957435Y-89950501D01*
X135596944Y-89709629D01*
X135290371Y-89403056D01*
X135049499Y-89042565D01*
X135049498Y-89042563D01*
X134883582Y-88642007D01*
X134799000Y-88216781D01*
X134799000Y-87783219D01*
X134883582Y-87357993D01*
X135049498Y-86957437D01*
X135115945Y-86857992D01*
X135290371Y-86596944D01*
X135596944Y-86290371D01*
X135957435Y-86049499D01*
X135957437Y-86049498D01*
X136357993Y-85883582D01*
X136783219Y-85799000D01*
X137216781Y-85799000D01*
X137642007Y-85883582D01*
X137642007Y-85883582D01*
G37*
G36*
X84142007Y-85383582D02*
G01*
X84542563Y-85549498D01*
X84542565Y-85549499D01*
X84903056Y-85790371D01*
X85209629Y-86096944D01*
X85450501Y-86457435D01*
X85450502Y-86457437D01*
X85616418Y-86857993D01*
X85701000Y-87283219D01*
X85701000Y-87716781D01*
X85616418Y-88142007D01*
X85450502Y-88542563D01*
X85450501Y-88542565D01*
X85209629Y-88903056D01*
X84903056Y-89209629D01*
X84542565Y-89450501D01*
X84542564Y-89450502D01*
X84542563Y-89450502D01*
X84142007Y-89616418D01*
X83716781Y-89701000D01*
X83283219Y-89701000D01*
X82857993Y-89616418D01*
X82457437Y-89450502D01*
X82457436Y-89450502D01*
X82457435Y-89450501D01*
X82096944Y-89209629D01*
X81790371Y-88903056D01*
X81549499Y-88542565D01*
X81549498Y-88542563D01*
X81383582Y-88142007D01*
X81299000Y-87716781D01*
X81299000Y-87283219D01*
X81383582Y-86857993D01*
X81549498Y-86457437D01*
X81549499Y-86457435D01*
X81790371Y-86096944D01*
X82096944Y-85790371D01*
X82457435Y-85549499D01*
X82457437Y-85549498D01*
X82857993Y-85383582D01*
X83283219Y-85299000D01*
X83716781Y-85299000D01*
X84142007Y-85383582D01*
X84142007Y-85383582D01*
G37*
G36*
X108107142Y-83718242D02*
G01*
X108255101Y-83779529D01*
X108388255Y-83868499D01*
X108501501Y-83981745D01*
X108590471Y-84114899D01*
X108651758Y-84262858D01*
X108683000Y-84419925D01*
X108683000Y-84580075D01*
X108651758Y-84737142D01*
X108590471Y-84885101D01*
X108501501Y-85018255D01*
X108388255Y-85131501D01*
X108255101Y-85220471D01*
X108107142Y-85281758D01*
X107950075Y-85313000D01*
X107789925Y-85313000D01*
X107632858Y-85281758D01*
X107484899Y-85220471D01*
X107351745Y-85131501D01*
X107238499Y-85018255D01*
X107149529Y-84885101D01*
X107088242Y-84737142D01*
X107057000Y-84580075D01*
X107057000Y-84419925D01*
X107088242Y-84262858D01*
X107149529Y-84114899D01*
X107238499Y-83981745D01*
X107351745Y-83868499D01*
X107484899Y-83779529D01*
X107632858Y-83718242D01*
X107789925Y-83687000D01*
X107950075Y-83687000D01*
X108107142Y-83718242D01*
X108107142Y-83718242D01*
G37*
G36*
X113567142Y-83718242D02*
G01*
X113715101Y-83779529D01*
X113848255Y-83868499D01*
X113961501Y-83981745D01*
X114050471Y-84114899D01*
X114111758Y-84262858D01*
X114143000Y-84419925D01*
X114143000Y-84580075D01*
X114111758Y-84737142D01*
X114050471Y-84885101D01*
X113961501Y-85018255D01*
X113848255Y-85131501D01*
X113715101Y-85220471D01*
X113567142Y-85281758D01*
X113410075Y-85313000D01*
X113249925Y-85313000D01*
X113092858Y-85281758D01*
X112944899Y-85220471D01*
X112811745Y-85131501D01*
X112698499Y-85018255D01*
X112609529Y-84885101D01*
X112548242Y-84737142D01*
X112517000Y-84580075D01*
X112517000Y-84419925D01*
X112548242Y-84262858D01*
X112609529Y-84114899D01*
X112698499Y-83981745D01*
X112811745Y-83868499D01*
X112944899Y-83779529D01*
X113092858Y-83718242D01*
X113249925Y-83687000D01*
X113410075Y-83687000D01*
X113567142Y-83718242D01*
X113567142Y-83718242D01*
G37*
G36*
X130707142Y-83718242D02*
G01*
X130855101Y-83779529D01*
X130988255Y-83868499D01*
X131101501Y-83981745D01*
X131190471Y-84114899D01*
X131251758Y-84262858D01*
X131283000Y-84419925D01*
X131283000Y-84580075D01*
X131251758Y-84737142D01*
X131190471Y-84885101D01*
X131101501Y-85018255D01*
X130988255Y-85131501D01*
X130855101Y-85220471D01*
X130707142Y-85281758D01*
X130550075Y-85313000D01*
X130389925Y-85313000D01*
X130232858Y-85281758D01*
X130084899Y-85220471D01*
X129951745Y-85131501D01*
X129838499Y-85018255D01*
X129749529Y-84885101D01*
X129688242Y-84737142D01*
X129657000Y-84580075D01*
X129657000Y-84419925D01*
X129688242Y-84262858D01*
X129749529Y-84114899D01*
X129838499Y-83981745D01*
X129951745Y-83868499D01*
X130084899Y-83779529D01*
X130232858Y-83718242D01*
X130389925Y-83687000D01*
X130550075Y-83687000D01*
X130707142Y-83718242D01*
X130707142Y-83718242D01*
G37*
G36*
X90967142Y-83718242D02*
G01*
X91115101Y-83779529D01*
X91248255Y-83868499D01*
X91361501Y-83981745D01*
X91450471Y-84114899D01*
X91511758Y-84262858D01*
X91543000Y-84419925D01*
X91543000Y-84580075D01*
X91511758Y-84737142D01*
X91450471Y-84885101D01*
X91361501Y-85018255D01*
X91248255Y-85131501D01*
X91115101Y-85220471D01*
X90967142Y-85281758D01*
X90810075Y-85313000D01*
X90649925Y-85313000D01*
X90492858Y-85281758D01*
X90344899Y-85220471D01*
X90211745Y-85131501D01*
X90098499Y-85018255D01*
X90009529Y-84885101D01*
X89948242Y-84737142D01*
X89917000Y-84580075D01*
X89917000Y-84419925D01*
X89948242Y-84262858D01*
X90009529Y-84114899D01*
X90098499Y-83981745D01*
X90211745Y-83868499D01*
X90344899Y-83779529D01*
X90492858Y-83718242D01*
X90649925Y-83687000D01*
X90810075Y-83687000D01*
X90967142Y-83718242D01*
X90967142Y-83718242D01*
G37*
M02*
