M48
; DRILL file {KiCad (5.1.2)-2} date 9/10/2019 7:29:36 PM
; FORMAT={-:-/ absolute / metric / decimal}
; #@! TF.CreationDate,2019-09-10T19:29:36+02:00
; #@! TF.GenerationSoftware,Kicad,Pcbnew,(5.1.2)-2
; #@! TF.FileFunction,Plated,1,2,PTH
FMAT,2
METRIC
T1C0.400
T2C0.760
T3C0.762
T4C0.800
T5C0.850
T6C1.070
T7C1.400
T8C1.999
T9C3.050
%
G90
G05
T1
X102.15Y-138.85
X111.4Y-129.3
X115.2Y-158.4
X120.2Y-120.6
X130.3Y-152.6
X133.7Y-121.6
X137.6Y-112.6
X138.6Y-114.8
X138.8Y-113.8
X139.7Y-112.6
X140.1Y-108.2
X142.0Y-147.2
X142.5Y-112.45
X143.3Y-152.7
X144.5Y-114.8
X150.65Y-88.9
X152.2Y-116.1
X152.4Y-119.4
X153.2Y-87.85
X156.376Y-149.417
X157.1Y-152.0
X157.5Y-159.3
X159.9Y-163.6
X162.0Y-148.5
X162.7Y-151.9
X163.371Y-164.62
X164.221Y-165.996
T2
X156.66Y-105.61
X156.66Y-108.15
X156.66Y-110.69
X156.66Y-113.23
X159.2Y-106.88
X159.2Y-109.42
X159.2Y-111.96
X159.2Y-114.5
T3
X90.73Y-65.55
X90.73Y-105.05
X107.87Y-65.55
X107.87Y-105.05
X113.33Y-65.55
X113.33Y-105.05
X130.47Y-65.55
X130.47Y-105.05
T4
X92.84Y-111.2
X92.84Y-126.44
X95.38Y-111.2
X95.38Y-126.44
X97.92Y-111.2
X97.92Y-126.44
X100.46Y-111.2
X100.46Y-126.44
X103.0Y-111.2
X103.0Y-126.44
X105.54Y-111.2
X105.54Y-126.44
X108.08Y-111.2
X108.08Y-126.44
X110.62Y-111.2
X110.62Y-126.44
X113.16Y-111.2
X113.16Y-126.44
X115.7Y-111.2
X115.7Y-126.44
X118.24Y-111.2
X118.24Y-126.44
X120.78Y-111.2
X120.78Y-126.44
X123.32Y-111.2
X123.32Y-126.44
X125.86Y-111.2
X125.86Y-126.44
X128.4Y-111.2
X128.4Y-126.44
X85.8Y-165.2
X93.4Y-165.2
T5
X89.4Y-144.2
X89.4Y-149.2
T6
X132.3Y-163.08
X132.3Y-166.08
X101.543Y-163.08
X101.543Y-166.08
X104.543Y-163.08
X104.543Y-166.08
X145.5Y-163.08
X145.5Y-166.08
X115.2Y-163.08
X115.2Y-166.08
T7
X113.4Y-142.65
X113.4Y-150.15
X118.4Y-146.4
X119.65Y-141.4
X119.65Y-151.4
T8
X83.5Y-95.65
X83.5Y-102.0
T9
X103.043Y-170.4
X145.5Y-170.4
X115.2Y-170.4
X132.3Y-170.4
T0
M30
