G04 #@! TF.GenerationSoftware,KiCad,Pcbnew,(5.1.2)-2*
G04 #@! TF.CreationDate,2019-12-12T20:57:49+01:00*
G04 #@! TF.ProjectId,Control_board,436f6e74-726f-46c5-9f62-6f6172642e6b,rev?*
G04 #@! TF.SameCoordinates,Original*
G04 #@! TF.FileFunction,Legend,Top*
G04 #@! TF.FilePolarity,Positive*
%FSLAX46Y46*%
G04 Gerber Fmt 4.6, Leading zero omitted, Abs format (unit mm)*
G04 Created by KiCad (PCBNEW (5.1.2)-2) date 2019-12-12 20:57:49*
%MOMM*%
%LPD*%
G04 APERTURE LIST*
%ADD10C,0.300000*%
%ADD11C,0.150000*%
%ADD12C,0.127000*%
%ADD13C,0.100000*%
%ADD14C,0.120000*%
%ADD15C,0.254000*%
%ADD16C,0.200000*%
%ADD17C,0.050000*%
G04 APERTURE END LIST*
D10*
X164821428Y-181178571D02*
X164107142Y-181178571D01*
X164107142Y-179678571D01*
X165321428Y-180392857D02*
X165821428Y-180392857D01*
X166035714Y-181178571D02*
X165321428Y-181178571D01*
X165321428Y-179678571D01*
X166035714Y-179678571D01*
X166678571Y-181178571D02*
X166678571Y-179678571D01*
X167035714Y-179678571D01*
X167250000Y-179750000D01*
X167392857Y-179892857D01*
X167464285Y-180035714D01*
X167535714Y-180321428D01*
X167535714Y-180535714D01*
X167464285Y-180821428D01*
X167392857Y-180964285D01*
X167250000Y-181107142D01*
X167035714Y-181178571D01*
X166678571Y-181178571D01*
X168035714Y-179678571D02*
X168964285Y-179678571D01*
X168464285Y-180250000D01*
X168678571Y-180250000D01*
X168821428Y-180321428D01*
X168892857Y-180392857D01*
X168964285Y-180535714D01*
X168964285Y-180892857D01*
X168892857Y-181035714D01*
X168821428Y-181107142D01*
X168678571Y-181178571D01*
X168250000Y-181178571D01*
X168107142Y-181107142D01*
X168035714Y-181035714D01*
X150321428Y-181178571D02*
X149607142Y-181178571D01*
X149607142Y-179678571D01*
X150821428Y-180392857D02*
X151321428Y-180392857D01*
X151535714Y-181178571D02*
X150821428Y-181178571D01*
X150821428Y-179678571D01*
X151535714Y-179678571D01*
X152178571Y-181178571D02*
X152178571Y-179678571D01*
X152535714Y-179678571D01*
X152750000Y-179750000D01*
X152892857Y-179892857D01*
X152964285Y-180035714D01*
X153035714Y-180321428D01*
X153035714Y-180535714D01*
X152964285Y-180821428D01*
X152892857Y-180964285D01*
X152750000Y-181107142D01*
X152535714Y-181178571D01*
X152178571Y-181178571D01*
X153607142Y-179821428D02*
X153678571Y-179750000D01*
X153821428Y-179678571D01*
X154178571Y-179678571D01*
X154321428Y-179750000D01*
X154392857Y-179821428D01*
X154464285Y-179964285D01*
X154464285Y-180107142D01*
X154392857Y-180321428D01*
X153535714Y-181178571D01*
X154464285Y-181178571D01*
X117100000Y-178903571D02*
X116414285Y-178903571D01*
X116757142Y-178903571D02*
X116757142Y-177403571D01*
X116642857Y-177617857D01*
X116528571Y-177760714D01*
X116414285Y-177832142D01*
X117557142Y-177546428D02*
X117614285Y-177475000D01*
X117728571Y-177403571D01*
X118014285Y-177403571D01*
X118128571Y-177475000D01*
X118185714Y-177546428D01*
X118242857Y-177689285D01*
X118242857Y-177832142D01*
X118185714Y-178046428D01*
X117500000Y-178903571D01*
X118242857Y-178903571D01*
X118585714Y-177403571D02*
X118985714Y-178903571D01*
X119385714Y-177403571D01*
X120700000Y-178903571D02*
X120700000Y-177403571D01*
X120985714Y-177403571D01*
X121157142Y-177475000D01*
X121271428Y-177617857D01*
X121328571Y-177760714D01*
X121385714Y-178046428D01*
X121385714Y-178260714D01*
X121328571Y-178546428D01*
X121271428Y-178689285D01*
X121157142Y-178832142D01*
X120985714Y-178903571D01*
X120700000Y-178903571D01*
X122585714Y-178760714D02*
X122528571Y-178832142D01*
X122357142Y-178903571D01*
X122242857Y-178903571D01*
X122071428Y-178832142D01*
X121957142Y-178689285D01*
X121900000Y-178546428D01*
X121842857Y-178260714D01*
X121842857Y-178046428D01*
X121900000Y-177760714D01*
X121957142Y-177617857D01*
X122071428Y-177475000D01*
X122242857Y-177403571D01*
X122357142Y-177403571D01*
X122528571Y-177475000D01*
X122585714Y-177546428D01*
X116671428Y-181453571D02*
X116671428Y-180667857D01*
X116614285Y-180525000D01*
X116500000Y-180453571D01*
X116271428Y-180453571D01*
X116157142Y-180525000D01*
X116671428Y-181382142D02*
X116557142Y-181453571D01*
X116271428Y-181453571D01*
X116157142Y-181382142D01*
X116100000Y-181239285D01*
X116100000Y-181096428D01*
X116157142Y-180953571D01*
X116271428Y-180882142D01*
X116557142Y-180882142D01*
X116671428Y-180810714D01*
X117242857Y-181453571D02*
X117242857Y-180453571D01*
X117242857Y-179953571D02*
X117185714Y-180025000D01*
X117242857Y-180096428D01*
X117300000Y-180025000D01*
X117242857Y-179953571D01*
X117242857Y-180096428D01*
X117814285Y-181453571D02*
X117814285Y-180453571D01*
X117814285Y-180739285D02*
X117871428Y-180596428D01*
X117928571Y-180525000D01*
X118042857Y-180453571D01*
X118157142Y-180453571D01*
X118500000Y-181382142D02*
X118614285Y-181453571D01*
X118842857Y-181453571D01*
X118957142Y-181382142D01*
X119014285Y-181239285D01*
X119014285Y-181167857D01*
X118957142Y-181025000D01*
X118842857Y-180953571D01*
X118671428Y-180953571D01*
X118557142Y-180882142D01*
X118500000Y-180739285D01*
X118500000Y-180667857D01*
X118557142Y-180525000D01*
X118671428Y-180453571D01*
X118842857Y-180453571D01*
X118957142Y-180525000D01*
X119357142Y-180453571D02*
X119814285Y-180453571D01*
X119528571Y-179953571D02*
X119528571Y-181239285D01*
X119585714Y-181382142D01*
X119700000Y-181453571D01*
X119814285Y-181453571D01*
X120385714Y-181453571D02*
X120271428Y-181382142D01*
X120214285Y-181310714D01*
X120157142Y-181167857D01*
X120157142Y-180739285D01*
X120214285Y-180596428D01*
X120271428Y-180525000D01*
X120385714Y-180453571D01*
X120557142Y-180453571D01*
X120671428Y-180525000D01*
X120728571Y-180596428D01*
X120785714Y-180739285D01*
X120785714Y-181167857D01*
X120728571Y-181310714D01*
X120671428Y-181382142D01*
X120557142Y-181453571D01*
X120385714Y-181453571D01*
X121300000Y-180453571D02*
X121300000Y-181453571D01*
X121300000Y-180596428D02*
X121357142Y-180525000D01*
X121471428Y-180453571D01*
X121642857Y-180453571D01*
X121757142Y-180525000D01*
X121814285Y-180667857D01*
X121814285Y-181453571D01*
X122842857Y-181382142D02*
X122728571Y-181453571D01*
X122500000Y-181453571D01*
X122385714Y-181382142D01*
X122328571Y-181239285D01*
X122328571Y-180667857D01*
X122385714Y-180525000D01*
X122500000Y-180453571D01*
X122728571Y-180453571D01*
X122842857Y-180525000D01*
X122900000Y-180667857D01*
X122900000Y-180810714D01*
X122328571Y-180953571D01*
D11*
X87547619Y-86309523D02*
X87500000Y-86261904D01*
X87452380Y-86166666D01*
X87452380Y-85928571D01*
X87500000Y-85833333D01*
X87547619Y-85785714D01*
X87642857Y-85738095D01*
X87738095Y-85738095D01*
X87880952Y-85785714D01*
X88452380Y-86357142D01*
X88452380Y-85738095D01*
X87785714Y-84880952D02*
X88452380Y-84880952D01*
X87404761Y-85119047D02*
X88119047Y-85357142D01*
X88119047Y-84738095D01*
X87452380Y-84500000D02*
X88452380Y-84166666D01*
X87452380Y-83833333D01*
X88071428Y-83500000D02*
X88071428Y-82738095D01*
X88452380Y-83119047D02*
X87690476Y-83119047D01*
X110952380Y-85738095D02*
X110952380Y-86309523D01*
X110952380Y-86023809D02*
X109952380Y-86023809D01*
X110095238Y-86119047D01*
X110190476Y-86214285D01*
X110238095Y-86309523D01*
X110047619Y-85357142D02*
X110000000Y-85309523D01*
X109952380Y-85214285D01*
X109952380Y-84976190D01*
X110000000Y-84880952D01*
X110047619Y-84833333D01*
X110142857Y-84785714D01*
X110238095Y-84785714D01*
X110380952Y-84833333D01*
X110952380Y-85404761D01*
X110952380Y-84785714D01*
X109952380Y-84500000D02*
X110952380Y-84166666D01*
X109952380Y-83833333D01*
X110571428Y-83500000D02*
X110571428Y-82738095D01*
X110952380Y-83119047D02*
X110190476Y-83119047D01*
D10*
X78738095Y-95642857D02*
X80261904Y-95642857D01*
X78738095Y-102142857D02*
X80261904Y-102142857D01*
X79500000Y-102904761D02*
X79500000Y-101380952D01*
X82571428Y-90571428D02*
X82571428Y-91904761D01*
X82095238Y-89809523D02*
X81619047Y-91238095D01*
X82857142Y-91238095D01*
X83904761Y-90761904D02*
X83714285Y-90666666D01*
X83619047Y-90571428D01*
X83523809Y-90380952D01*
X83523809Y-90285714D01*
X83619047Y-90095238D01*
X83714285Y-90000000D01*
X83904761Y-89904761D01*
X84285714Y-89904761D01*
X84476190Y-90000000D01*
X84571428Y-90095238D01*
X84666666Y-90285714D01*
X84666666Y-90380952D01*
X84571428Y-90571428D01*
X84476190Y-90666666D01*
X84285714Y-90761904D01*
X83904761Y-90761904D01*
X83714285Y-90857142D01*
X83619047Y-90952380D01*
X83523809Y-91142857D01*
X83523809Y-91523809D01*
X83619047Y-91714285D01*
X83714285Y-91809523D01*
X83904761Y-91904761D01*
X84285714Y-91904761D01*
X84476190Y-91809523D01*
X84571428Y-91714285D01*
X84666666Y-91523809D01*
X84666666Y-91142857D01*
X84571428Y-90952380D01*
X84476190Y-90857142D01*
X84285714Y-90761904D01*
X85238095Y-89904761D02*
X85904761Y-91904761D01*
X86571428Y-89904761D01*
X136321428Y-181178571D02*
X135607142Y-181178571D01*
X135607142Y-179678571D01*
X136821428Y-180392857D02*
X137321428Y-180392857D01*
X137535714Y-181178571D02*
X136821428Y-181178571D01*
X136821428Y-179678571D01*
X137535714Y-179678571D01*
X138178571Y-181178571D02*
X138178571Y-179678571D01*
X138535714Y-179678571D01*
X138750000Y-179750000D01*
X138892857Y-179892857D01*
X138964285Y-180035714D01*
X139035714Y-180321428D01*
X139035714Y-180535714D01*
X138964285Y-180821428D01*
X138892857Y-180964285D01*
X138750000Y-181107142D01*
X138535714Y-181178571D01*
X138178571Y-181178571D01*
X140464285Y-181178571D02*
X139607142Y-181178571D01*
X140035714Y-181178571D02*
X140035714Y-179678571D01*
X139892857Y-179892857D01*
X139750000Y-180035714D01*
X139607142Y-180107142D01*
X84800000Y-177903571D02*
X85485714Y-177903571D01*
X85142857Y-179403571D02*
X85142857Y-177903571D01*
X86342857Y-179332142D02*
X86228571Y-179403571D01*
X86000000Y-179403571D01*
X85885714Y-179332142D01*
X85828571Y-179189285D01*
X85828571Y-178617857D01*
X85885714Y-178475000D01*
X86000000Y-178403571D01*
X86228571Y-178403571D01*
X86342857Y-178475000D01*
X86400000Y-178617857D01*
X86400000Y-178760714D01*
X85828571Y-178903571D01*
X86914285Y-179403571D02*
X86914285Y-178403571D01*
X86914285Y-178546428D02*
X86971428Y-178475000D01*
X87085714Y-178403571D01*
X87257142Y-178403571D01*
X87371428Y-178475000D01*
X87428571Y-178617857D01*
X87428571Y-179403571D01*
X87428571Y-178617857D02*
X87485714Y-178475000D01*
X87600000Y-178403571D01*
X87771428Y-178403571D01*
X87885714Y-178475000D01*
X87942857Y-178617857D01*
X87942857Y-179403571D01*
X88514285Y-178403571D02*
X88514285Y-179903571D01*
X88514285Y-178475000D02*
X88628571Y-178403571D01*
X88857142Y-178403571D01*
X88971428Y-178475000D01*
X89028571Y-178546428D01*
X89085714Y-178689285D01*
X89085714Y-179117857D01*
X89028571Y-179260714D01*
X88971428Y-179332142D01*
X88857142Y-179403571D01*
X88628571Y-179403571D01*
X88514285Y-179332142D01*
X84771428Y-180953571D02*
X84771428Y-182453571D01*
X84771428Y-181025000D02*
X84885714Y-180953571D01*
X85114285Y-180953571D01*
X85228571Y-181025000D01*
X85285714Y-181096428D01*
X85342857Y-181239285D01*
X85342857Y-181667857D01*
X85285714Y-181810714D01*
X85228571Y-181882142D01*
X85114285Y-181953571D01*
X84885714Y-181953571D01*
X84771428Y-181882142D01*
X85857142Y-181953571D02*
X85857142Y-180953571D01*
X85857142Y-181239285D02*
X85914285Y-181096428D01*
X85971428Y-181025000D01*
X86085714Y-180953571D01*
X86200000Y-180953571D01*
X86771428Y-181953571D02*
X86657142Y-181882142D01*
X86600000Y-181810714D01*
X86542857Y-181667857D01*
X86542857Y-181239285D01*
X86600000Y-181096428D01*
X86657142Y-181025000D01*
X86771428Y-180953571D01*
X86942857Y-180953571D01*
X87057142Y-181025000D01*
X87114285Y-181096428D01*
X87171428Y-181239285D01*
X87171428Y-181667857D01*
X87114285Y-181810714D01*
X87057142Y-181882142D01*
X86942857Y-181953571D01*
X86771428Y-181953571D01*
X87685714Y-181953571D02*
X87685714Y-180453571D01*
X87685714Y-181025000D02*
X87800000Y-180953571D01*
X88028571Y-180953571D01*
X88142857Y-181025000D01*
X88200000Y-181096428D01*
X88257142Y-181239285D01*
X88257142Y-181667857D01*
X88200000Y-181810714D01*
X88142857Y-181882142D01*
X88028571Y-181953571D01*
X87800000Y-181953571D01*
X87685714Y-181882142D01*
X89228571Y-181882142D02*
X89114285Y-181953571D01*
X88885714Y-181953571D01*
X88771428Y-181882142D01*
X88714285Y-181739285D01*
X88714285Y-181167857D01*
X88771428Y-181025000D01*
X88885714Y-180953571D01*
X89114285Y-180953571D01*
X89228571Y-181025000D01*
X89285714Y-181167857D01*
X89285714Y-181310714D01*
X88714285Y-181453571D01*
X95285714Y-181678571D02*
X95285714Y-180178571D01*
X95800000Y-181678571D02*
X95800000Y-180892857D01*
X95742857Y-180750000D01*
X95628571Y-180678571D01*
X95457142Y-180678571D01*
X95342857Y-180750000D01*
X95285714Y-180821428D01*
X96257142Y-180678571D02*
X96542857Y-181678571D01*
X96828571Y-180678571D02*
X96542857Y-181678571D01*
X96428571Y-182035714D01*
X96371428Y-182107142D01*
X96257142Y-182178571D01*
X97800000Y-180678571D02*
X97800000Y-181892857D01*
X97742857Y-182035714D01*
X97685714Y-182107142D01*
X97571428Y-182178571D01*
X97400000Y-182178571D01*
X97285714Y-182107142D01*
X97800000Y-181607142D02*
X97685714Y-181678571D01*
X97457142Y-181678571D01*
X97342857Y-181607142D01*
X97285714Y-181535714D01*
X97228571Y-181392857D01*
X97228571Y-180964285D01*
X97285714Y-180821428D01*
X97342857Y-180750000D01*
X97457142Y-180678571D01*
X97685714Y-180678571D01*
X97800000Y-180750000D01*
X98371428Y-181678571D02*
X98371428Y-180678571D01*
X98371428Y-180964285D02*
X98428571Y-180821428D01*
X98485714Y-180750000D01*
X98600000Y-180678571D01*
X98714285Y-180678571D01*
X99285714Y-181678571D02*
X99171428Y-181607142D01*
X99114285Y-181535714D01*
X99057142Y-181392857D01*
X99057142Y-180964285D01*
X99114285Y-180821428D01*
X99171428Y-180750000D01*
X99285714Y-180678571D01*
X99457142Y-180678571D01*
X99571428Y-180750000D01*
X99628571Y-180821428D01*
X99685714Y-180964285D01*
X99685714Y-181392857D01*
X99628571Y-181535714D01*
X99571428Y-181607142D01*
X99457142Y-181678571D01*
X99285714Y-181678571D01*
X100200000Y-181678571D02*
X100200000Y-180678571D01*
X100200000Y-180821428D02*
X100257142Y-180750000D01*
X100371428Y-180678571D01*
X100542857Y-180678571D01*
X100657142Y-180750000D01*
X100714285Y-180892857D01*
X100714285Y-181678571D01*
X100714285Y-180892857D02*
X100771428Y-180750000D01*
X100885714Y-180678571D01*
X101057142Y-180678571D01*
X101171428Y-180750000D01*
X101228571Y-180892857D01*
X101228571Y-181678571D01*
X102257142Y-181607142D02*
X102142857Y-181678571D01*
X101914285Y-181678571D01*
X101800000Y-181607142D01*
X101742857Y-181464285D01*
X101742857Y-180892857D01*
X101800000Y-180750000D01*
X101914285Y-180678571D01*
X102142857Y-180678571D01*
X102257142Y-180750000D01*
X102314285Y-180892857D01*
X102314285Y-181035714D01*
X101742857Y-181178571D01*
X102657142Y-180678571D02*
X103114285Y-180678571D01*
X102828571Y-180178571D02*
X102828571Y-181464285D01*
X102885714Y-181607142D01*
X103000000Y-181678571D01*
X103114285Y-181678571D01*
X103971428Y-181607142D02*
X103857142Y-181678571D01*
X103628571Y-181678571D01*
X103514285Y-181607142D01*
X103457142Y-181464285D01*
X103457142Y-180892857D01*
X103514285Y-180750000D01*
X103628571Y-180678571D01*
X103857142Y-180678571D01*
X103971428Y-180750000D01*
X104028571Y-180892857D01*
X104028571Y-181035714D01*
X103457142Y-181178571D01*
X104542857Y-181678571D02*
X104542857Y-180678571D01*
X104542857Y-180964285D02*
X104600000Y-180821428D01*
X104657142Y-180750000D01*
X104771428Y-180678571D01*
X104885714Y-180678571D01*
X108600000Y-178903571D02*
X107914285Y-178903571D01*
X108257142Y-178903571D02*
X108257142Y-177403571D01*
X108142857Y-177617857D01*
X108028571Y-177760714D01*
X107914285Y-177832142D01*
X109057142Y-177546428D02*
X109114285Y-177475000D01*
X109228571Y-177403571D01*
X109514285Y-177403571D01*
X109628571Y-177475000D01*
X109685714Y-177546428D01*
X109742857Y-177689285D01*
X109742857Y-177832142D01*
X109685714Y-178046428D01*
X109000000Y-178903571D01*
X109742857Y-178903571D01*
X110085714Y-177403571D02*
X110485714Y-178903571D01*
X110885714Y-177403571D01*
X112200000Y-178903571D02*
X112200000Y-177403571D01*
X112485714Y-177403571D01*
X112657142Y-177475000D01*
X112771428Y-177617857D01*
X112828571Y-177760714D01*
X112885714Y-178046428D01*
X112885714Y-178260714D01*
X112828571Y-178546428D01*
X112771428Y-178689285D01*
X112657142Y-178832142D01*
X112485714Y-178903571D01*
X112200000Y-178903571D01*
X114085714Y-178760714D02*
X114028571Y-178832142D01*
X113857142Y-178903571D01*
X113742857Y-178903571D01*
X113571428Y-178832142D01*
X113457142Y-178689285D01*
X113400000Y-178546428D01*
X113342857Y-178260714D01*
X113342857Y-178046428D01*
X113400000Y-177760714D01*
X113457142Y-177617857D01*
X113571428Y-177475000D01*
X113742857Y-177403571D01*
X113857142Y-177403571D01*
X114028571Y-177475000D01*
X114085714Y-177546428D01*
X108857142Y-180453571D02*
X108857142Y-181953571D01*
X108857142Y-180525000D02*
X108971428Y-180453571D01*
X109200000Y-180453571D01*
X109314285Y-180525000D01*
X109371428Y-180596428D01*
X109428571Y-180739285D01*
X109428571Y-181167857D01*
X109371428Y-181310714D01*
X109314285Y-181382142D01*
X109200000Y-181453571D01*
X108971428Y-181453571D01*
X108857142Y-181382142D01*
X110457142Y-180453571D02*
X110457142Y-181453571D01*
X109942857Y-180453571D02*
X109942857Y-181239285D01*
X110000000Y-181382142D01*
X110114285Y-181453571D01*
X110285714Y-181453571D01*
X110400000Y-181382142D01*
X110457142Y-181310714D01*
X111028571Y-181453571D02*
X111028571Y-180453571D01*
X111028571Y-180596428D02*
X111085714Y-180525000D01*
X111200000Y-180453571D01*
X111371428Y-180453571D01*
X111485714Y-180525000D01*
X111542857Y-180667857D01*
X111542857Y-181453571D01*
X111542857Y-180667857D02*
X111600000Y-180525000D01*
X111714285Y-180453571D01*
X111885714Y-180453571D01*
X112000000Y-180525000D01*
X112057142Y-180667857D01*
X112057142Y-181453571D01*
X112628571Y-180453571D02*
X112628571Y-181953571D01*
X112628571Y-180525000D02*
X112742857Y-180453571D01*
X112971428Y-180453571D01*
X113085714Y-180525000D01*
X113142857Y-180596428D01*
X113200000Y-180739285D01*
X113200000Y-181167857D01*
X113142857Y-181310714D01*
X113085714Y-181382142D01*
X112971428Y-181453571D01*
X112742857Y-181453571D01*
X112628571Y-181382142D01*
D12*
X141300000Y-136950000D02*
X141300000Y-82550000D01*
X141300000Y-82550000D02*
X169200000Y-82550000D01*
X169200000Y-82550000D02*
X169200000Y-136950000D01*
X169200000Y-136950000D02*
X141300000Y-136950000D01*
D13*
X143150000Y-176925000D02*
X133125000Y-176925000D01*
X143175000Y-174025000D02*
X143150000Y-173025000D01*
X143150000Y-173025000D02*
X142150000Y-173025000D01*
X133150000Y-174025000D02*
X133125000Y-173125000D01*
X133125000Y-173125000D02*
X133150000Y-173025000D01*
X133150000Y-173025000D02*
X134150000Y-173025000D01*
X141350000Y-172225000D02*
X141350000Y-172225000D01*
X141250000Y-172225000D02*
X141250000Y-172225000D01*
X141250000Y-172225000D02*
G75*
G03X141350000Y-172225000I50000J0D01*
G01*
X141350000Y-172225000D02*
G75*
G03X141250000Y-172225000I-50000J0D01*
G01*
D14*
X171650279Y-94540000D02*
X171324721Y-94540000D01*
X171650279Y-95560000D02*
X171324721Y-95560000D01*
D15*
X138600000Y-133950000D02*
G75*
G03X138600000Y-133950000I-6100000J0D01*
G01*
X132322090Y-127089000D02*
G75*
G03X132322090Y-127089000I-50090J0D01*
G01*
D14*
X122765000Y-158885000D02*
X125050000Y-158885000D01*
X122765000Y-157415000D02*
X122765000Y-158885000D01*
X125050000Y-157415000D02*
X122765000Y-157415000D01*
D15*
X125592360Y-168079000D02*
G75*
G03X125592360Y-168079000I-274360J0D01*
G01*
D16*
X116125000Y-159630000D02*
X116125000Y-169630000D01*
X122775000Y-159630000D02*
X116125000Y-159630000D01*
X122775000Y-169630000D02*
X122775000Y-159630000D01*
X116125000Y-169630000D02*
X122775000Y-169630000D01*
D11*
X132400000Y-125750000D02*
X132400000Y-104750000D01*
X111400000Y-125750000D02*
X132400000Y-125750000D01*
X111400000Y-82750000D02*
X111400000Y-125750000D01*
X132400000Y-82750000D02*
X111400000Y-82750000D01*
X132400000Y-104750000D02*
X132400000Y-82750000D01*
D13*
X81838000Y-167050000D02*
X91488000Y-167050000D01*
X91488000Y-167050000D02*
X91488000Y-176960000D01*
X91488000Y-176960000D02*
X81838000Y-176960000D01*
X81838000Y-176960000D02*
X81838000Y-167050000D01*
D16*
X92063000Y-168160000D02*
X92063000Y-168160000D01*
X92063000Y-167960000D02*
X92063000Y-167960000D01*
X92063000Y-167960000D02*
G75*
G03X92063000Y-168160000I0J-100000D01*
G01*
X92063000Y-168160000D02*
G75*
G03X92063000Y-167960000I0J100000D01*
G01*
D14*
X173510000Y-101800279D02*
X173510000Y-101474721D01*
X172490000Y-101800279D02*
X172490000Y-101474721D01*
D11*
X109800000Y-104750000D02*
X109800000Y-82750000D01*
X109800000Y-82750000D02*
X88800000Y-82750000D01*
X88800000Y-82750000D02*
X88800000Y-125750000D01*
X88800000Y-125750000D02*
X109800000Y-125750000D01*
X109800000Y-125750000D02*
X109800000Y-104750000D01*
D14*
X134510000Y-145124721D02*
X134510000Y-145450279D01*
X133490000Y-145124721D02*
X133490000Y-145450279D01*
X112912500Y-157415000D02*
X110627500Y-157415000D01*
X110627500Y-157415000D02*
X110627500Y-158885000D01*
X110627500Y-158885000D02*
X112912500Y-158885000D01*
D16*
X110075000Y-146100000D02*
X113925000Y-146100000D01*
X113925000Y-146100000D02*
X113925000Y-152600000D01*
X113925000Y-152600000D02*
X110075000Y-152600000D01*
X110075000Y-152600000D02*
X110075000Y-146100000D01*
X107975000Y-146225000D02*
X109725000Y-146225000D01*
X119675000Y-146125000D02*
X121425000Y-146125000D01*
X121775000Y-152500000D02*
X121775000Y-146000000D01*
X125625000Y-152500000D02*
X121775000Y-152500000D01*
X125625000Y-146000000D02*
X125625000Y-152500000D01*
X121775000Y-146000000D02*
X125625000Y-146000000D01*
D14*
X124099721Y-155340000D02*
X124425279Y-155340000D01*
X124099721Y-156360000D02*
X124425279Y-156360000D01*
X111937221Y-156360000D02*
X112262779Y-156360000D01*
X111937221Y-155340000D02*
X112262779Y-155340000D01*
X138460000Y-108299721D02*
X138460000Y-108625279D01*
X137440000Y-108299721D02*
X137440000Y-108625279D01*
X135940000Y-157237221D02*
X135940000Y-157562779D01*
X136960000Y-157237221D02*
X136960000Y-157562779D01*
X145010000Y-155199721D02*
X145010000Y-155525279D01*
X143990000Y-155199721D02*
X143990000Y-155525279D01*
X159150000Y-161850000D02*
X158650000Y-161350000D01*
X158150000Y-161850000D02*
X159150000Y-161850000D01*
X158650000Y-161350000D02*
X158150000Y-161850000D01*
X172730000Y-161165000D02*
X172730000Y-145645000D01*
X154770000Y-145645000D02*
X172730000Y-145645000D01*
X154770000Y-145645000D02*
X154770000Y-161165000D01*
X154770000Y-161165000D02*
X172730000Y-161165000D01*
X150960000Y-144387221D02*
X150960000Y-144712779D01*
X149940000Y-144387221D02*
X149940000Y-144712779D01*
X150960000Y-147587221D02*
X150960000Y-147912779D01*
X149940000Y-147587221D02*
X149940000Y-147912779D01*
X149940000Y-150774721D02*
X149940000Y-151100279D01*
X150960000Y-150774721D02*
X150960000Y-151100279D01*
X150960000Y-162200279D02*
X150960000Y-161874721D01*
X149940000Y-162200279D02*
X149940000Y-161874721D01*
X149940000Y-158900279D02*
X149940000Y-158574721D01*
X150960000Y-158900279D02*
X150960000Y-158574721D01*
X150960000Y-155600279D02*
X150960000Y-155274721D01*
X149940000Y-155600279D02*
X149940000Y-155274721D01*
D11*
X139025000Y-156025000D02*
X139025000Y-156200000D01*
X142275000Y-156025000D02*
X142275000Y-156300000D01*
X142275000Y-159275000D02*
X142275000Y-159000000D01*
X139025000Y-159275000D02*
X139025000Y-159000000D01*
X139025000Y-156025000D02*
X142275000Y-156025000D01*
X139025000Y-159275000D02*
X142275000Y-159275000D01*
X139025000Y-156200000D02*
X137950000Y-156200000D01*
D13*
X95038000Y-167000000D02*
X104688000Y-167000000D01*
X104688000Y-167000000D02*
X104688000Y-176910000D01*
X104688000Y-176910000D02*
X95038000Y-176910000D01*
X95038000Y-176910000D02*
X95038000Y-167000000D01*
D16*
X105263000Y-168110000D02*
X105263000Y-168110000D01*
X105263000Y-167910000D02*
X105263000Y-167910000D01*
X105263000Y-167910000D02*
G75*
G03X105263000Y-168110000I0J-100000D01*
G01*
X105263000Y-168110000D02*
G75*
G03X105263000Y-167910000I0J100000D01*
G01*
D14*
X98020000Y-140430000D02*
X100680000Y-140430000D01*
X98020000Y-132750000D02*
X98020000Y-140430000D01*
X100680000Y-132750000D02*
X100680000Y-140430000D01*
X98020000Y-132750000D02*
X100680000Y-132750000D01*
X98020000Y-131480000D02*
X98020000Y-130150000D01*
X98020000Y-130150000D02*
X99350000Y-130150000D01*
X107620000Y-130230000D02*
X108950000Y-130230000D01*
X107620000Y-131560000D02*
X107620000Y-130230000D01*
X107620000Y-132830000D02*
X110280000Y-132830000D01*
X110280000Y-132830000D02*
X110280000Y-140510000D01*
X107620000Y-132830000D02*
X107620000Y-140510000D01*
X107620000Y-140510000D02*
X110280000Y-140510000D01*
X171600279Y-93060000D02*
X171274721Y-93060000D01*
X171600279Y-92040000D02*
X171274721Y-92040000D01*
D13*
X171900000Y-176925000D02*
X161875000Y-176925000D01*
X171925000Y-174025000D02*
X171900000Y-173025000D01*
X171900000Y-173025000D02*
X170900000Y-173025000D01*
X161900000Y-174025000D02*
X161875000Y-173125000D01*
X161875000Y-173125000D02*
X161900000Y-173025000D01*
X161900000Y-173025000D02*
X162900000Y-173025000D01*
X170100000Y-172225000D02*
X170100000Y-172225000D01*
X170000000Y-172225000D02*
X170000000Y-172225000D01*
X170000000Y-172225000D02*
G75*
G03X170100000Y-172225000I50000J0D01*
G01*
X170100000Y-172225000D02*
G75*
G03X170000000Y-172225000I-50000J0D01*
G01*
D16*
X107925000Y-169630000D02*
X114575000Y-169630000D01*
X114575000Y-169630000D02*
X114575000Y-159630000D01*
X114575000Y-159630000D02*
X107925000Y-159630000D01*
X107925000Y-159630000D02*
X107925000Y-169630000D01*
D15*
X117392360Y-168079000D02*
G75*
G03X117392360Y-168079000I-274360J0D01*
G01*
D13*
X155725000Y-172225000D02*
G75*
G03X155625000Y-172225000I-50000J0D01*
G01*
X155625000Y-172225000D02*
G75*
G03X155725000Y-172225000I50000J0D01*
G01*
X155625000Y-172225000D02*
X155625000Y-172225000D01*
X155725000Y-172225000D02*
X155725000Y-172225000D01*
X147525000Y-173025000D02*
X148525000Y-173025000D01*
X147500000Y-173125000D02*
X147525000Y-173025000D01*
X147525000Y-174025000D02*
X147500000Y-173125000D01*
X157525000Y-173025000D02*
X156525000Y-173025000D01*
X157550000Y-174025000D02*
X157525000Y-173025000D01*
X157525000Y-176925000D02*
X147500000Y-176925000D01*
D14*
X138460000Y-104512779D02*
X138460000Y-104187221D01*
X137440000Y-104512779D02*
X137440000Y-104187221D01*
X171390000Y-106662779D02*
X171390000Y-106337221D01*
X172410000Y-106662779D02*
X172410000Y-106337221D01*
X147835000Y-165850000D02*
X147835000Y-163565000D01*
X147835000Y-163565000D02*
X146365000Y-163565000D01*
X146365000Y-163565000D02*
X146365000Y-165850000D01*
D16*
X137075000Y-163350000D02*
X140925000Y-163350000D01*
X140925000Y-163350000D02*
X140925000Y-169850000D01*
X140925000Y-169850000D02*
X137075000Y-169850000D01*
X137075000Y-169850000D02*
X137075000Y-163350000D01*
X134975000Y-163475000D02*
X136725000Y-163475000D01*
D14*
X145610000Y-164874721D02*
X145610000Y-165200279D01*
X144590000Y-164874721D02*
X144590000Y-165200279D01*
X171960000Y-102662500D02*
X171960000Y-99977500D01*
X171960000Y-99977500D02*
X170040000Y-99977500D01*
X170040000Y-99977500D02*
X170040000Y-102662500D01*
X141410000Y-149410000D02*
X141410000Y-148150000D01*
X141410000Y-142590000D02*
X141410000Y-143850000D01*
X137650000Y-149410000D02*
X141410000Y-149410000D01*
X135400000Y-142590000D02*
X141410000Y-142590000D01*
D17*
X138737798Y-82952167D02*
X138737798Y-83762006D01*
X138785435Y-83857282D01*
X138833073Y-83904919D01*
X138928348Y-83952557D01*
X139118899Y-83952557D01*
X139214174Y-83904919D01*
X139261811Y-83857282D01*
X139309449Y-83762006D01*
X139309449Y-82952167D01*
X140309839Y-83952557D02*
X139738188Y-83952557D01*
X140024013Y-83952557D02*
X140024013Y-82952167D01*
X139928738Y-83095080D01*
X139833463Y-83190355D01*
X139738188Y-83237993D01*
X136572141Y-137922996D02*
X136905825Y-137922996D01*
X137048832Y-138447355D02*
X136572141Y-138447355D01*
X136572141Y-137446305D01*
X137048832Y-137446305D01*
X137430184Y-138399686D02*
X137573191Y-138447355D01*
X137811536Y-138447355D01*
X137906875Y-138399686D01*
X137954544Y-138352017D01*
X138002213Y-138256679D01*
X138002213Y-138161341D01*
X137954544Y-138066003D01*
X137906875Y-138018334D01*
X137811536Y-137970665D01*
X137620860Y-137922996D01*
X137525522Y-137875327D01*
X137477853Y-137827658D01*
X137430184Y-137732320D01*
X137430184Y-137636982D01*
X137477853Y-137541644D01*
X137525522Y-137493975D01*
X137620860Y-137446305D01*
X137859205Y-137446305D01*
X138002213Y-137493975D01*
X138431234Y-138447355D02*
X138431234Y-137446305D01*
X138812586Y-137446305D01*
X138907925Y-137493975D01*
X138955594Y-137541644D01*
X139003263Y-137636982D01*
X139003263Y-137779989D01*
X138955594Y-137875327D01*
X138907925Y-137922996D01*
X138812586Y-137970665D01*
X138431234Y-137970665D01*
X139336946Y-137446305D02*
X139956644Y-137446305D01*
X139622960Y-137827658D01*
X139765967Y-137827658D01*
X139861305Y-137875327D01*
X139908975Y-137922996D01*
X139956644Y-138018334D01*
X139956644Y-138256679D01*
X139908975Y-138352017D01*
X139861305Y-138399686D01*
X139765967Y-138447355D01*
X139479953Y-138447355D01*
X139384615Y-138399686D01*
X139336946Y-138352017D01*
X140337996Y-137541644D02*
X140385665Y-137493975D01*
X140481003Y-137446305D01*
X140719348Y-137446305D01*
X140814686Y-137493975D01*
X140862355Y-137541644D01*
X140910025Y-137636982D01*
X140910025Y-137732320D01*
X140862355Y-137875327D01*
X140290327Y-138447355D01*
X140910025Y-138447355D01*
X141339046Y-138066003D02*
X142101751Y-138066003D01*
X142578441Y-138447355D02*
X142578441Y-137446305D01*
X142816786Y-137446305D01*
X142959794Y-137493975D01*
X143055132Y-137589313D01*
X143102801Y-137684651D01*
X143150470Y-137875327D01*
X143150470Y-138018334D01*
X143102801Y-138209010D01*
X143055132Y-138304348D01*
X142959794Y-138399686D01*
X142816786Y-138447355D01*
X142578441Y-138447355D01*
X143579491Y-137922996D02*
X143913175Y-137922996D01*
X144056182Y-138447355D02*
X143579491Y-138447355D01*
X143579491Y-137446305D01*
X144056182Y-137446305D01*
X144342196Y-137446305D02*
X144675879Y-138447355D01*
X145009563Y-137446305D01*
X145343246Y-138447355D02*
X145343246Y-137446305D01*
X145915275Y-138447355D02*
X145486253Y-137875327D01*
X145915275Y-137446305D02*
X145343246Y-138018334D01*
X146344296Y-138447355D02*
X146344296Y-137446305D01*
X146677979Y-137446305D02*
X147250008Y-137446305D01*
X146963994Y-138447355D02*
X146963994Y-137446305D01*
X148155720Y-138352017D02*
X148108051Y-138399686D01*
X147965044Y-138447355D01*
X147869705Y-138447355D01*
X147726698Y-138399686D01*
X147631360Y-138304348D01*
X147583691Y-138209010D01*
X147536022Y-138018334D01*
X147536022Y-137875327D01*
X147583691Y-137684651D01*
X147631360Y-137589313D01*
X147726698Y-137493975D01*
X147869705Y-137446305D01*
X147965044Y-137446305D01*
X148108051Y-137493975D01*
X148155720Y-137541644D01*
X148584741Y-138066003D02*
X149347446Y-138066003D01*
X149728798Y-137446305D02*
X150348496Y-137446305D01*
X150014813Y-137827658D01*
X150157820Y-137827658D01*
X150253158Y-137875327D01*
X150300827Y-137922996D01*
X150348496Y-138018334D01*
X150348496Y-138256679D01*
X150300827Y-138352017D01*
X150253158Y-138399686D01*
X150157820Y-138447355D01*
X149871805Y-138447355D01*
X149776467Y-138399686D01*
X149728798Y-138352017D01*
X150729848Y-137541644D02*
X150777517Y-137493975D01*
X150872855Y-137446305D01*
X151111201Y-137446305D01*
X151206539Y-137493975D01*
X151254208Y-137541644D01*
X151301877Y-137636982D01*
X151301877Y-137732320D01*
X151254208Y-137875327D01*
X150682179Y-138447355D01*
X151301877Y-138447355D01*
X151730898Y-138447355D02*
X151730898Y-137446305D01*
X151969244Y-137446305D01*
X152112251Y-137493975D01*
X152207589Y-137589313D01*
X152255258Y-137684651D01*
X152302927Y-137875327D01*
X152302927Y-138018334D01*
X152255258Y-138209010D01*
X152207589Y-138304348D01*
X152112251Y-138399686D01*
X151969244Y-138447355D01*
X151730898Y-138447355D01*
D15*
X137726666Y-173854523D02*
X137726666Y-174761666D01*
X137666190Y-174943095D01*
X137545238Y-175064047D01*
X137363809Y-175124523D01*
X137242857Y-175124523D01*
X138210476Y-173854523D02*
X139057142Y-173854523D01*
X138512857Y-175124523D01*
D11*
X171320833Y-96932380D02*
X170987500Y-96456190D01*
X170749404Y-96932380D02*
X170749404Y-95932380D01*
X171130357Y-95932380D01*
X171225595Y-95980000D01*
X171273214Y-96027619D01*
X171320833Y-96122857D01*
X171320833Y-96265714D01*
X171273214Y-96360952D01*
X171225595Y-96408571D01*
X171130357Y-96456190D01*
X170749404Y-96456190D01*
X172225595Y-95932380D02*
X171749404Y-95932380D01*
X171701785Y-96408571D01*
X171749404Y-96360952D01*
X171844642Y-96313333D01*
X172082738Y-96313333D01*
X172177976Y-96360952D01*
X172225595Y-96408571D01*
X172273214Y-96503809D01*
X172273214Y-96741904D01*
X172225595Y-96837142D01*
X172177976Y-96884761D01*
X172082738Y-96932380D01*
X171844642Y-96932380D01*
X171749404Y-96884761D01*
X171701785Y-96837142D01*
D15*
X139383571Y-130924523D02*
X138778809Y-130924523D01*
X138778809Y-129654523D01*
X139746428Y-130864047D02*
X139927857Y-130924523D01*
X140230238Y-130924523D01*
X140351190Y-130864047D01*
X140411666Y-130803571D01*
X140472142Y-130682619D01*
X140472142Y-130561666D01*
X140411666Y-130440714D01*
X140351190Y-130380238D01*
X140230238Y-130319761D01*
X139988333Y-130259285D01*
X139867380Y-130198809D01*
X139806904Y-130138333D01*
X139746428Y-130017380D01*
X139746428Y-129896428D01*
X139806904Y-129775476D01*
X139867380Y-129715000D01*
X139988333Y-129654523D01*
X140290714Y-129654523D01*
X140472142Y-129715000D01*
X141681666Y-130924523D02*
X140955952Y-130924523D01*
X141318809Y-130924523D02*
X141318809Y-129654523D01*
X141197857Y-129835952D01*
X141076904Y-129956904D01*
X140955952Y-130017380D01*
D11*
X120511904Y-158602380D02*
X120511904Y-157602380D01*
X120750000Y-157602380D01*
X120892857Y-157650000D01*
X120988095Y-157745238D01*
X121035714Y-157840476D01*
X121083333Y-158030952D01*
X121083333Y-158173809D01*
X121035714Y-158364285D01*
X120988095Y-158459523D01*
X120892857Y-158554761D01*
X120750000Y-158602380D01*
X120511904Y-158602380D01*
X122035714Y-158602380D02*
X121464285Y-158602380D01*
X121750000Y-158602380D02*
X121750000Y-157602380D01*
X121654761Y-157745238D01*
X121559523Y-157840476D01*
X121464285Y-157888095D01*
D15*
X118879666Y-161408523D02*
X118879666Y-162315666D01*
X118819190Y-162497095D01*
X118698238Y-162618047D01*
X118516809Y-162678523D01*
X118395857Y-162678523D01*
X120028714Y-161831857D02*
X120028714Y-162678523D01*
X119726333Y-161348047D02*
X119423952Y-162255190D01*
X120210142Y-162255190D01*
D11*
X110152380Y-105311904D02*
X110961904Y-105311904D01*
X111057142Y-105264285D01*
X111104761Y-105216666D01*
X111152380Y-105121428D01*
X111152380Y-104930952D01*
X111104761Y-104835714D01*
X111057142Y-104788095D01*
X110961904Y-104740476D01*
X110152380Y-104740476D01*
X110485714Y-103835714D02*
X111152380Y-103835714D01*
X110104761Y-104073809D02*
X110819047Y-104311904D01*
X110819047Y-103692857D01*
D15*
X81276666Y-161604523D02*
X81276666Y-162511666D01*
X81216190Y-162693095D01*
X81095238Y-162814047D01*
X80913809Y-162874523D01*
X80792857Y-162874523D01*
X82486190Y-161604523D02*
X81881428Y-161604523D01*
X81820952Y-162209285D01*
X81881428Y-162148809D01*
X82002380Y-162088333D01*
X82304761Y-162088333D01*
X82425714Y-162148809D01*
X82486190Y-162209285D01*
X82546666Y-162330238D01*
X82546666Y-162632619D01*
X82486190Y-162753571D01*
X82425714Y-162814047D01*
X82304761Y-162874523D01*
X82002380Y-162874523D01*
X81881428Y-162814047D01*
X81820952Y-162753571D01*
D11*
X172022380Y-101804166D02*
X171546190Y-102137500D01*
X172022380Y-102375595D02*
X171022380Y-102375595D01*
X171022380Y-101994642D01*
X171070000Y-101899404D01*
X171117619Y-101851785D01*
X171212857Y-101804166D01*
X171355714Y-101804166D01*
X171450952Y-101851785D01*
X171498571Y-101899404D01*
X171546190Y-101994642D01*
X171546190Y-102375595D01*
X171022380Y-100947023D02*
X171022380Y-101137500D01*
X171070000Y-101232738D01*
X171117619Y-101280357D01*
X171260476Y-101375595D01*
X171450952Y-101423214D01*
X171831904Y-101423214D01*
X171927142Y-101375595D01*
X171974761Y-101327976D01*
X172022380Y-101232738D01*
X172022380Y-101042261D01*
X171974761Y-100947023D01*
X171927142Y-100899404D01*
X171831904Y-100851785D01*
X171593809Y-100851785D01*
X171498571Y-100899404D01*
X171450952Y-100947023D01*
X171403333Y-101042261D01*
X171403333Y-101232738D01*
X171450952Y-101327976D01*
X171498571Y-101375595D01*
X171593809Y-101423214D01*
X87152380Y-105111904D02*
X87961904Y-105111904D01*
X88057142Y-105064285D01*
X88104761Y-105016666D01*
X88152380Y-104921428D01*
X88152380Y-104730952D01*
X88104761Y-104635714D01*
X88057142Y-104588095D01*
X87961904Y-104540476D01*
X87152380Y-104540476D01*
X87152380Y-103588095D02*
X87152380Y-104064285D01*
X87628571Y-104111904D01*
X87580952Y-104064285D01*
X87533333Y-103969047D01*
X87533333Y-103730952D01*
X87580952Y-103635714D01*
X87628571Y-103588095D01*
X87723809Y-103540476D01*
X87961904Y-103540476D01*
X88057142Y-103588095D01*
X88104761Y-103635714D01*
X88152380Y-103730952D01*
X88152380Y-103969047D01*
X88104761Y-104064285D01*
X88057142Y-104111904D01*
X134407142Y-142916666D02*
X134454761Y-142964285D01*
X134502380Y-143107142D01*
X134502380Y-143202380D01*
X134454761Y-143345238D01*
X134359523Y-143440476D01*
X134264285Y-143488095D01*
X134073809Y-143535714D01*
X133930952Y-143535714D01*
X133740476Y-143488095D01*
X133645238Y-143440476D01*
X133550000Y-143345238D01*
X133502380Y-143202380D01*
X133502380Y-143107142D01*
X133550000Y-142964285D01*
X133597619Y-142916666D01*
X133502380Y-142583333D02*
X133502380Y-141964285D01*
X133883333Y-142297619D01*
X133883333Y-142154761D01*
X133930952Y-142059523D01*
X133978571Y-142011904D01*
X134073809Y-141964285D01*
X134311904Y-141964285D01*
X134407142Y-142011904D01*
X134454761Y-142059523D01*
X134502380Y-142154761D01*
X134502380Y-142440476D01*
X134454761Y-142535714D01*
X134407142Y-142583333D01*
X108561904Y-158602380D02*
X108561904Y-157602380D01*
X108800000Y-157602380D01*
X108942857Y-157650000D01*
X109038095Y-157745238D01*
X109085714Y-157840476D01*
X109133333Y-158030952D01*
X109133333Y-158173809D01*
X109085714Y-158364285D01*
X109038095Y-158459523D01*
X108942857Y-158554761D01*
X108800000Y-158602380D01*
X108561904Y-158602380D01*
X109514285Y-157697619D02*
X109561904Y-157650000D01*
X109657142Y-157602380D01*
X109895238Y-157602380D01*
X109990476Y-157650000D01*
X110038095Y-157697619D01*
X110085714Y-157792857D01*
X110085714Y-157888095D01*
X110038095Y-158030952D01*
X109466666Y-158602380D01*
X110085714Y-158602380D01*
D15*
X112079047Y-145445476D02*
X111958095Y-145385000D01*
X111837142Y-145264047D01*
X111655714Y-145082619D01*
X111534761Y-145022142D01*
X111413809Y-145022142D01*
X111474285Y-145324523D02*
X111353333Y-145264047D01*
X111232380Y-145143095D01*
X111171904Y-144901190D01*
X111171904Y-144477857D01*
X111232380Y-144235952D01*
X111353333Y-144115000D01*
X111474285Y-144054523D01*
X111716190Y-144054523D01*
X111837142Y-144115000D01*
X111958095Y-144235952D01*
X112018571Y-144477857D01*
X112018571Y-144901190D01*
X111958095Y-145143095D01*
X111837142Y-145264047D01*
X111716190Y-145324523D01*
X111474285Y-145324523D01*
X112441904Y-144054523D02*
X113228095Y-144054523D01*
X112804761Y-144538333D01*
X112986190Y-144538333D01*
X113107142Y-144598809D01*
X113167619Y-144659285D01*
X113228095Y-144780238D01*
X113228095Y-145082619D01*
X113167619Y-145203571D01*
X113107142Y-145264047D01*
X112986190Y-145324523D01*
X112623333Y-145324523D01*
X112502380Y-145264047D01*
X112441904Y-145203571D01*
X123579047Y-145345476D02*
X123458095Y-145285000D01*
X123337142Y-145164047D01*
X123155714Y-144982619D01*
X123034761Y-144922142D01*
X122913809Y-144922142D01*
X122974285Y-145224523D02*
X122853333Y-145164047D01*
X122732380Y-145043095D01*
X122671904Y-144801190D01*
X122671904Y-144377857D01*
X122732380Y-144135952D01*
X122853333Y-144015000D01*
X122974285Y-143954523D01*
X123216190Y-143954523D01*
X123337142Y-144015000D01*
X123458095Y-144135952D01*
X123518571Y-144377857D01*
X123518571Y-144801190D01*
X123458095Y-145043095D01*
X123337142Y-145164047D01*
X123216190Y-145224523D01*
X122974285Y-145224523D01*
X124667619Y-143954523D02*
X124062857Y-143954523D01*
X124002380Y-144559285D01*
X124062857Y-144498809D01*
X124183809Y-144438333D01*
X124486190Y-144438333D01*
X124607142Y-144498809D01*
X124667619Y-144559285D01*
X124728095Y-144680238D01*
X124728095Y-144982619D01*
X124667619Y-145103571D01*
X124607142Y-145164047D01*
X124486190Y-145224523D01*
X124183809Y-145224523D01*
X124062857Y-145164047D01*
X124002380Y-145103571D01*
D11*
X120307142Y-156202380D02*
X119973809Y-155726190D01*
X119735714Y-156202380D02*
X119735714Y-155202380D01*
X120116666Y-155202380D01*
X120211904Y-155250000D01*
X120259523Y-155297619D01*
X120307142Y-155392857D01*
X120307142Y-155535714D01*
X120259523Y-155630952D01*
X120211904Y-155678571D01*
X120116666Y-155726190D01*
X119735714Y-155726190D01*
X121259523Y-156202380D02*
X120688095Y-156202380D01*
X120973809Y-156202380D02*
X120973809Y-155202380D01*
X120878571Y-155345238D01*
X120783333Y-155440476D01*
X120688095Y-155488095D01*
X122211904Y-156202380D02*
X121640476Y-156202380D01*
X121926190Y-156202380D02*
X121926190Y-155202380D01*
X121830952Y-155345238D01*
X121735714Y-155440476D01*
X121640476Y-155488095D01*
X108157142Y-156302380D02*
X107823809Y-155826190D01*
X107585714Y-156302380D02*
X107585714Y-155302380D01*
X107966666Y-155302380D01*
X108061904Y-155350000D01*
X108109523Y-155397619D01*
X108157142Y-155492857D01*
X108157142Y-155635714D01*
X108109523Y-155730952D01*
X108061904Y-155778571D01*
X107966666Y-155826190D01*
X107585714Y-155826190D01*
X109109523Y-156302380D02*
X108538095Y-156302380D01*
X108823809Y-156302380D02*
X108823809Y-155302380D01*
X108728571Y-155445238D01*
X108633333Y-155540476D01*
X108538095Y-155588095D01*
X109490476Y-155397619D02*
X109538095Y-155350000D01*
X109633333Y-155302380D01*
X109871428Y-155302380D01*
X109966666Y-155350000D01*
X110014285Y-155397619D01*
X110061904Y-155492857D01*
X110061904Y-155588095D01*
X110014285Y-155730952D01*
X109442857Y-156302380D01*
X110061904Y-156302380D01*
X139832380Y-109105357D02*
X139356190Y-109438690D01*
X139832380Y-109676785D02*
X138832380Y-109676785D01*
X138832380Y-109295833D01*
X138880000Y-109200595D01*
X138927619Y-109152976D01*
X139022857Y-109105357D01*
X139165714Y-109105357D01*
X139260952Y-109152976D01*
X139308571Y-109200595D01*
X139356190Y-109295833D01*
X139356190Y-109676785D01*
X139832380Y-108152976D02*
X139832380Y-108724404D01*
X139832380Y-108438690D02*
X138832380Y-108438690D01*
X138975238Y-108533928D01*
X139070476Y-108629166D01*
X139118095Y-108724404D01*
X138832380Y-107248214D02*
X138832380Y-107724404D01*
X139308571Y-107772023D01*
X139260952Y-107724404D01*
X139213333Y-107629166D01*
X139213333Y-107391071D01*
X139260952Y-107295833D01*
X139308571Y-107248214D01*
X139403809Y-107200595D01*
X139641904Y-107200595D01*
X139737142Y-107248214D01*
X139784761Y-107295833D01*
X139832380Y-107391071D01*
X139832380Y-107629166D01*
X139784761Y-107724404D01*
X139737142Y-107772023D01*
X136807142Y-160166666D02*
X136854761Y-160214285D01*
X136902380Y-160357142D01*
X136902380Y-160452380D01*
X136854761Y-160595238D01*
X136759523Y-160690476D01*
X136664285Y-160738095D01*
X136473809Y-160785714D01*
X136330952Y-160785714D01*
X136140476Y-160738095D01*
X136045238Y-160690476D01*
X135950000Y-160595238D01*
X135902380Y-160452380D01*
X135902380Y-160357142D01*
X135950000Y-160214285D01*
X135997619Y-160166666D01*
X136235714Y-159309523D02*
X136902380Y-159309523D01*
X135854761Y-159547619D02*
X136569047Y-159785714D01*
X136569047Y-159166666D01*
X146287142Y-155529166D02*
X146334761Y-155576785D01*
X146382380Y-155719642D01*
X146382380Y-155814880D01*
X146334761Y-155957738D01*
X146239523Y-156052976D01*
X146144285Y-156100595D01*
X145953809Y-156148214D01*
X145810952Y-156148214D01*
X145620476Y-156100595D01*
X145525238Y-156052976D01*
X145430000Y-155957738D01*
X145382380Y-155814880D01*
X145382380Y-155719642D01*
X145430000Y-155576785D01*
X145477619Y-155529166D01*
X145382380Y-154624404D02*
X145382380Y-155100595D01*
X145858571Y-155148214D01*
X145810952Y-155100595D01*
X145763333Y-155005357D01*
X145763333Y-154767261D01*
X145810952Y-154672023D01*
X145858571Y-154624404D01*
X145953809Y-154576785D01*
X146191904Y-154576785D01*
X146287142Y-154624404D01*
X146334761Y-154672023D01*
X146382380Y-154767261D01*
X146382380Y-155005357D01*
X146334761Y-155100595D01*
X146287142Y-155148214D01*
X153102380Y-153738333D02*
X153816666Y-153738333D01*
X153959523Y-153785952D01*
X154054761Y-153881190D01*
X154102380Y-154024047D01*
X154102380Y-154119285D01*
X153102380Y-152833571D02*
X153102380Y-153024047D01*
X153150000Y-153119285D01*
X153197619Y-153166904D01*
X153340476Y-153262142D01*
X153530952Y-153309761D01*
X153911904Y-153309761D01*
X154007142Y-153262142D01*
X154054761Y-153214523D01*
X154102380Y-153119285D01*
X154102380Y-152928809D01*
X154054761Y-152833571D01*
X154007142Y-152785952D01*
X153911904Y-152738333D01*
X153673809Y-152738333D01*
X153578571Y-152785952D01*
X153530952Y-152833571D01*
X153483333Y-152928809D01*
X153483333Y-153119285D01*
X153530952Y-153214523D01*
X153578571Y-153262142D01*
X153673809Y-153309761D01*
X152332380Y-144716666D02*
X151856190Y-145050000D01*
X152332380Y-145288095D02*
X151332380Y-145288095D01*
X151332380Y-144907142D01*
X151380000Y-144811904D01*
X151427619Y-144764285D01*
X151522857Y-144716666D01*
X151665714Y-144716666D01*
X151760952Y-144764285D01*
X151808571Y-144811904D01*
X151856190Y-144907142D01*
X151856190Y-145288095D01*
X151332380Y-144383333D02*
X151332380Y-143764285D01*
X151713333Y-144097619D01*
X151713333Y-143954761D01*
X151760952Y-143859523D01*
X151808571Y-143811904D01*
X151903809Y-143764285D01*
X152141904Y-143764285D01*
X152237142Y-143811904D01*
X152284761Y-143859523D01*
X152332380Y-143954761D01*
X152332380Y-144240476D01*
X152284761Y-144335714D01*
X152237142Y-144383333D01*
X152332380Y-147916666D02*
X151856190Y-148250000D01*
X152332380Y-148488095D02*
X151332380Y-148488095D01*
X151332380Y-148107142D01*
X151380000Y-148011904D01*
X151427619Y-147964285D01*
X151522857Y-147916666D01*
X151665714Y-147916666D01*
X151760952Y-147964285D01*
X151808571Y-148011904D01*
X151856190Y-148107142D01*
X151856190Y-148488095D01*
X152332380Y-147440476D02*
X152332380Y-147250000D01*
X152284761Y-147154761D01*
X152237142Y-147107142D01*
X152094285Y-147011904D01*
X151903809Y-146964285D01*
X151522857Y-146964285D01*
X151427619Y-147011904D01*
X151380000Y-147059523D01*
X151332380Y-147154761D01*
X151332380Y-147345238D01*
X151380000Y-147440476D01*
X151427619Y-147488095D01*
X151522857Y-147535714D01*
X151760952Y-147535714D01*
X151856190Y-147488095D01*
X151903809Y-147440476D01*
X151951428Y-147345238D01*
X151951428Y-147154761D01*
X151903809Y-147059523D01*
X151856190Y-147011904D01*
X151760952Y-146964285D01*
X152332380Y-151580357D02*
X151856190Y-151913690D01*
X152332380Y-152151785D02*
X151332380Y-152151785D01*
X151332380Y-151770833D01*
X151380000Y-151675595D01*
X151427619Y-151627976D01*
X151522857Y-151580357D01*
X151665714Y-151580357D01*
X151760952Y-151627976D01*
X151808571Y-151675595D01*
X151856190Y-151770833D01*
X151856190Y-152151785D01*
X152332380Y-150627976D02*
X152332380Y-151199404D01*
X152332380Y-150913690D02*
X151332380Y-150913690D01*
X151475238Y-151008928D01*
X151570476Y-151104166D01*
X151618095Y-151199404D01*
X151332380Y-150008928D02*
X151332380Y-149913690D01*
X151380000Y-149818452D01*
X151427619Y-149770833D01*
X151522857Y-149723214D01*
X151713333Y-149675595D01*
X151951428Y-149675595D01*
X152141904Y-149723214D01*
X152237142Y-149770833D01*
X152284761Y-149818452D01*
X152332380Y-149913690D01*
X152332380Y-150008928D01*
X152284761Y-150104166D01*
X152237142Y-150151785D01*
X152141904Y-150199404D01*
X151951428Y-150247023D01*
X151713333Y-150247023D01*
X151522857Y-150199404D01*
X151427619Y-150151785D01*
X151380000Y-150104166D01*
X151332380Y-150008928D01*
X149472380Y-162680357D02*
X148996190Y-163013690D01*
X149472380Y-163251785D02*
X148472380Y-163251785D01*
X148472380Y-162870833D01*
X148520000Y-162775595D01*
X148567619Y-162727976D01*
X148662857Y-162680357D01*
X148805714Y-162680357D01*
X148900952Y-162727976D01*
X148948571Y-162775595D01*
X148996190Y-162870833D01*
X148996190Y-163251785D01*
X149472380Y-161727976D02*
X149472380Y-162299404D01*
X149472380Y-162013690D02*
X148472380Y-162013690D01*
X148615238Y-162108928D01*
X148710476Y-162204166D01*
X148758095Y-162299404D01*
X148472380Y-160870833D02*
X148472380Y-161061309D01*
X148520000Y-161156547D01*
X148567619Y-161204166D01*
X148710476Y-161299404D01*
X148900952Y-161347023D01*
X149281904Y-161347023D01*
X149377142Y-161299404D01*
X149424761Y-161251785D01*
X149472380Y-161156547D01*
X149472380Y-160966071D01*
X149424761Y-160870833D01*
X149377142Y-160823214D01*
X149281904Y-160775595D01*
X149043809Y-160775595D01*
X148948571Y-160823214D01*
X148900952Y-160870833D01*
X148853333Y-160966071D01*
X148853333Y-161156547D01*
X148900952Y-161251785D01*
X148948571Y-161299404D01*
X149043809Y-161347023D01*
X149472380Y-159380357D02*
X148996190Y-159713690D01*
X149472380Y-159951785D02*
X148472380Y-159951785D01*
X148472380Y-159570833D01*
X148520000Y-159475595D01*
X148567619Y-159427976D01*
X148662857Y-159380357D01*
X148805714Y-159380357D01*
X148900952Y-159427976D01*
X148948571Y-159475595D01*
X148996190Y-159570833D01*
X148996190Y-159951785D01*
X149472380Y-158427976D02*
X149472380Y-158999404D01*
X149472380Y-158713690D02*
X148472380Y-158713690D01*
X148615238Y-158808928D01*
X148710476Y-158904166D01*
X148758095Y-158999404D01*
X148472380Y-158094642D02*
X148472380Y-157427976D01*
X149472380Y-157856547D01*
X149472380Y-156080357D02*
X148996190Y-156413690D01*
X149472380Y-156651785D02*
X148472380Y-156651785D01*
X148472380Y-156270833D01*
X148520000Y-156175595D01*
X148567619Y-156127976D01*
X148662857Y-156080357D01*
X148805714Y-156080357D01*
X148900952Y-156127976D01*
X148948571Y-156175595D01*
X148996190Y-156270833D01*
X148996190Y-156651785D01*
X149472380Y-155127976D02*
X149472380Y-155699404D01*
X149472380Y-155413690D02*
X148472380Y-155413690D01*
X148615238Y-155508928D01*
X148710476Y-155604166D01*
X148758095Y-155699404D01*
X148900952Y-154556547D02*
X148853333Y-154651785D01*
X148805714Y-154699404D01*
X148710476Y-154747023D01*
X148662857Y-154747023D01*
X148567619Y-154699404D01*
X148520000Y-154651785D01*
X148472380Y-154556547D01*
X148472380Y-154366071D01*
X148520000Y-154270833D01*
X148567619Y-154223214D01*
X148662857Y-154175595D01*
X148710476Y-154175595D01*
X148805714Y-154223214D01*
X148853333Y-154270833D01*
X148900952Y-154366071D01*
X148900952Y-154556547D01*
X148948571Y-154651785D01*
X148996190Y-154699404D01*
X149091428Y-154747023D01*
X149281904Y-154747023D01*
X149377142Y-154699404D01*
X149424761Y-154651785D01*
X149472380Y-154556547D01*
X149472380Y-154366071D01*
X149424761Y-154270833D01*
X149377142Y-154223214D01*
X149281904Y-154175595D01*
X149091428Y-154175595D01*
X148996190Y-154223214D01*
X148948571Y-154270833D01*
X148900952Y-154366071D01*
X139673809Y-155552380D02*
X139673809Y-154552380D01*
X140721428Y-155457142D02*
X140673809Y-155504761D01*
X140530952Y-155552380D01*
X140435714Y-155552380D01*
X140292857Y-155504761D01*
X140197619Y-155409523D01*
X140150000Y-155314285D01*
X140102380Y-155123809D01*
X140102380Y-154980952D01*
X140150000Y-154790476D01*
X140197619Y-154695238D01*
X140292857Y-154600000D01*
X140435714Y-154552380D01*
X140530952Y-154552380D01*
X140673809Y-154600000D01*
X140721428Y-154647619D01*
X141102380Y-154647619D02*
X141150000Y-154600000D01*
X141245238Y-154552380D01*
X141483333Y-154552380D01*
X141578571Y-154600000D01*
X141626190Y-154647619D01*
X141673809Y-154742857D01*
X141673809Y-154838095D01*
X141626190Y-154980952D01*
X141054761Y-155552380D01*
X141673809Y-155552380D01*
D15*
X99171904Y-169853523D02*
X99171904Y-170760666D01*
X99111428Y-170942095D01*
X98990476Y-171063047D01*
X98809047Y-171123523D01*
X98688095Y-171123523D01*
X100441904Y-171123523D02*
X99716190Y-171123523D01*
X100079047Y-171123523D02*
X100079047Y-169853523D01*
X99958095Y-170034952D01*
X99837142Y-170155904D01*
X99716190Y-170216380D01*
X101228095Y-169853523D02*
X101349047Y-169853523D01*
X101470000Y-169914000D01*
X101530476Y-169974476D01*
X101590952Y-170095428D01*
X101651428Y-170337333D01*
X101651428Y-170639714D01*
X101590952Y-170881619D01*
X101530476Y-171002571D01*
X101470000Y-171063047D01*
X101349047Y-171123523D01*
X101228095Y-171123523D01*
X101107142Y-171063047D01*
X101046666Y-171002571D01*
X100986190Y-170881619D01*
X100925714Y-170639714D01*
X100925714Y-170337333D01*
X100986190Y-170095428D01*
X101046666Y-169974476D01*
X101107142Y-169914000D01*
X101228095Y-169853523D01*
D11*
X98540476Y-128602380D02*
X98540476Y-129316666D01*
X98492857Y-129459523D01*
X98397619Y-129554761D01*
X98254761Y-129602380D01*
X98159523Y-129602380D01*
X99540476Y-129602380D02*
X98969047Y-129602380D01*
X99254761Y-129602380D02*
X99254761Y-128602380D01*
X99159523Y-128745238D01*
X99064285Y-128840476D01*
X98969047Y-128888095D01*
X100492857Y-129602380D02*
X99921428Y-129602380D01*
X100207142Y-129602380D02*
X100207142Y-128602380D01*
X100111904Y-128745238D01*
X100016666Y-128840476D01*
X99921428Y-128888095D01*
X108140476Y-128682380D02*
X108140476Y-129396666D01*
X108092857Y-129539523D01*
X107997619Y-129634761D01*
X107854761Y-129682380D01*
X107759523Y-129682380D01*
X109140476Y-129682380D02*
X108569047Y-129682380D01*
X108854761Y-129682380D02*
X108854761Y-128682380D01*
X108759523Y-128825238D01*
X108664285Y-128920476D01*
X108569047Y-128968095D01*
X109521428Y-128777619D02*
X109569047Y-128730000D01*
X109664285Y-128682380D01*
X109902380Y-128682380D01*
X109997619Y-128730000D01*
X110045238Y-128777619D01*
X110092857Y-128872857D01*
X110092857Y-128968095D01*
X110045238Y-129110952D01*
X109473809Y-129682380D01*
X110092857Y-129682380D01*
X171270833Y-94432380D02*
X170937500Y-93956190D01*
X170699404Y-94432380D02*
X170699404Y-93432380D01*
X171080357Y-93432380D01*
X171175595Y-93480000D01*
X171223214Y-93527619D01*
X171270833Y-93622857D01*
X171270833Y-93765714D01*
X171223214Y-93860952D01*
X171175595Y-93908571D01*
X171080357Y-93956190D01*
X170699404Y-93956190D01*
X171604166Y-93432380D02*
X172270833Y-93432380D01*
X171842261Y-94432380D01*
D15*
X166476666Y-173854523D02*
X166476666Y-174761666D01*
X166416190Y-174943095D01*
X166295238Y-175064047D01*
X166113809Y-175124523D01*
X165992857Y-175124523D01*
X167746666Y-175124523D02*
X167020952Y-175124523D01*
X167383809Y-175124523D02*
X167383809Y-173854523D01*
X167262857Y-174035952D01*
X167141904Y-174156904D01*
X167020952Y-174217380D01*
X110679666Y-161408523D02*
X110679666Y-162315666D01*
X110619190Y-162497095D01*
X110498238Y-162618047D01*
X110316809Y-162678523D01*
X110195857Y-162678523D01*
X111163476Y-161408523D02*
X111949666Y-161408523D01*
X111526333Y-161892333D01*
X111707761Y-161892333D01*
X111828714Y-161952809D01*
X111889190Y-162013285D01*
X111949666Y-162134238D01*
X111949666Y-162436619D01*
X111889190Y-162557571D01*
X111828714Y-162618047D01*
X111707761Y-162678523D01*
X111344904Y-162678523D01*
X111223952Y-162618047D01*
X111163476Y-162557571D01*
X152101666Y-173854523D02*
X152101666Y-174761666D01*
X152041190Y-174943095D01*
X151920238Y-175064047D01*
X151738809Y-175124523D01*
X151617857Y-175124523D01*
X152766904Y-175124523D02*
X153008809Y-175124523D01*
X153129761Y-175064047D01*
X153190238Y-175003571D01*
X153311190Y-174822142D01*
X153371666Y-174580238D01*
X153371666Y-174096428D01*
X153311190Y-173975476D01*
X153250714Y-173915000D01*
X153129761Y-173854523D01*
X152887857Y-173854523D01*
X152766904Y-173915000D01*
X152706428Y-173975476D01*
X152645952Y-174096428D01*
X152645952Y-174398809D01*
X152706428Y-174519761D01*
X152766904Y-174580238D01*
X152887857Y-174640714D01*
X153129761Y-174640714D01*
X153250714Y-174580238D01*
X153311190Y-174519761D01*
X153371666Y-174398809D01*
D11*
X136972380Y-104992857D02*
X136496190Y-105326190D01*
X136972380Y-105564285D02*
X135972380Y-105564285D01*
X135972380Y-105183333D01*
X136020000Y-105088095D01*
X136067619Y-105040476D01*
X136162857Y-104992857D01*
X136305714Y-104992857D01*
X136400952Y-105040476D01*
X136448571Y-105088095D01*
X136496190Y-105183333D01*
X136496190Y-105564285D01*
X136972380Y-104040476D02*
X136972380Y-104611904D01*
X136972380Y-104326190D02*
X135972380Y-104326190D01*
X136115238Y-104421428D01*
X136210476Y-104516666D01*
X136258095Y-104611904D01*
X135972380Y-103707142D02*
X135972380Y-103088095D01*
X136353333Y-103421428D01*
X136353333Y-103278571D01*
X136400952Y-103183333D01*
X136448571Y-103135714D01*
X136543809Y-103088095D01*
X136781904Y-103088095D01*
X136877142Y-103135714D01*
X136924761Y-103183333D01*
X136972380Y-103278571D01*
X136972380Y-103564285D01*
X136924761Y-103659523D01*
X136877142Y-103707142D01*
X170922380Y-107142857D02*
X170446190Y-107476190D01*
X170922380Y-107714285D02*
X169922380Y-107714285D01*
X169922380Y-107333333D01*
X169970000Y-107238095D01*
X170017619Y-107190476D01*
X170112857Y-107142857D01*
X170255714Y-107142857D01*
X170350952Y-107190476D01*
X170398571Y-107238095D01*
X170446190Y-107333333D01*
X170446190Y-107714285D01*
X170922380Y-106190476D02*
X170922380Y-106761904D01*
X170922380Y-106476190D02*
X169922380Y-106476190D01*
X170065238Y-106571428D01*
X170160476Y-106666666D01*
X170208095Y-106761904D01*
X170922380Y-105714285D02*
X170922380Y-105523809D01*
X170874761Y-105428571D01*
X170827142Y-105380952D01*
X170684285Y-105285714D01*
X170493809Y-105238095D01*
X170112857Y-105238095D01*
X170017619Y-105285714D01*
X169970000Y-105333333D01*
X169922380Y-105428571D01*
X169922380Y-105619047D01*
X169970000Y-105714285D01*
X170017619Y-105761904D01*
X170112857Y-105809523D01*
X170350952Y-105809523D01*
X170446190Y-105761904D01*
X170493809Y-105714285D01*
X170541428Y-105619047D01*
X170541428Y-105428571D01*
X170493809Y-105333333D01*
X170446190Y-105285714D01*
X170350952Y-105238095D01*
X147547381Y-162843094D02*
X146547381Y-162843094D01*
X146547381Y-162604999D01*
X146595001Y-162462141D01*
X146690239Y-162366903D01*
X146785477Y-162319284D01*
X146975953Y-162271665D01*
X147118810Y-162271665D01*
X147309286Y-162319284D01*
X147404524Y-162366903D01*
X147499762Y-162462141D01*
X147547381Y-162604999D01*
X147547381Y-162843094D01*
X146547381Y-161938332D02*
X146547381Y-161319284D01*
X146928334Y-161652618D01*
X146928334Y-161509760D01*
X146975953Y-161414522D01*
X147023572Y-161366903D01*
X147118810Y-161319284D01*
X147356905Y-161319284D01*
X147452143Y-161366903D01*
X147499762Y-161414522D01*
X147547381Y-161509760D01*
X147547381Y-161795475D01*
X147499762Y-161890713D01*
X147452143Y-161938332D01*
D15*
X138879047Y-167295476D02*
X138758095Y-167235000D01*
X138637142Y-167114047D01*
X138455714Y-166932619D01*
X138334761Y-166872142D01*
X138213809Y-166872142D01*
X138274285Y-167174523D02*
X138153333Y-167114047D01*
X138032380Y-166993095D01*
X137971904Y-166751190D01*
X137971904Y-166327857D01*
X138032380Y-166085952D01*
X138153333Y-165965000D01*
X138274285Y-165904523D01*
X138516190Y-165904523D01*
X138637142Y-165965000D01*
X138758095Y-166085952D01*
X138818571Y-166327857D01*
X138818571Y-166751190D01*
X138758095Y-166993095D01*
X138637142Y-167114047D01*
X138516190Y-167174523D01*
X138274285Y-167174523D01*
X140028095Y-167174523D02*
X139302380Y-167174523D01*
X139665238Y-167174523D02*
X139665238Y-165904523D01*
X139544285Y-166085952D01*
X139423333Y-166206904D01*
X139302380Y-166267380D01*
D11*
X145497381Y-162699165D02*
X145021191Y-163032499D01*
X145497381Y-163270594D02*
X144497381Y-163270594D01*
X144497381Y-162889641D01*
X144545001Y-162794403D01*
X144592620Y-162746784D01*
X144687858Y-162699165D01*
X144830715Y-162699165D01*
X144925953Y-162746784D01*
X144973572Y-162794403D01*
X145021191Y-162889641D01*
X145021191Y-163270594D01*
X145497381Y-161746784D02*
X145497381Y-162318213D01*
X145497381Y-162032499D02*
X144497381Y-162032499D01*
X144640239Y-162127737D01*
X144735477Y-162222975D01*
X144783096Y-162318213D01*
X173102380Y-101829166D02*
X172626190Y-102162500D01*
X173102380Y-102400595D02*
X172102380Y-102400595D01*
X172102380Y-102019642D01*
X172150000Y-101924404D01*
X172197619Y-101876785D01*
X172292857Y-101829166D01*
X172435714Y-101829166D01*
X172530952Y-101876785D01*
X172578571Y-101924404D01*
X172626190Y-102019642D01*
X172626190Y-102400595D01*
X172435714Y-100972023D02*
X173102380Y-100972023D01*
X172054761Y-101210119D02*
X172769047Y-101448214D01*
X172769047Y-100829166D01*
X81288095Y-84402380D02*
X81288095Y-83402380D01*
X81288095Y-83878571D02*
X81859523Y-83878571D01*
X81859523Y-84402380D02*
X81859523Y-83402380D01*
X82859523Y-84402380D02*
X82288095Y-84402380D01*
X82573809Y-84402380D02*
X82573809Y-83402380D01*
X82478571Y-83545238D01*
X82383333Y-83640476D01*
X82288095Y-83688095D01*
X88738095Y-152152380D02*
X88738095Y-151152380D01*
X88738095Y-151628571D02*
X89309523Y-151628571D01*
X89309523Y-152152380D02*
X89309523Y-151152380D01*
X89738095Y-151247619D02*
X89785714Y-151200000D01*
X89880952Y-151152380D01*
X90119047Y-151152380D01*
X90214285Y-151200000D01*
X90261904Y-151247619D01*
X90309523Y-151342857D01*
X90309523Y-151438095D01*
X90261904Y-151580952D01*
X89690476Y-152152380D01*
X90309523Y-152152380D01*
X162738095Y-161652380D02*
X162738095Y-160652380D01*
X162738095Y-161128571D02*
X163309523Y-161128571D01*
X163309523Y-161652380D02*
X163309523Y-160652380D01*
X163690476Y-160652380D02*
X164309523Y-160652380D01*
X163976190Y-161033333D01*
X164119047Y-161033333D01*
X164214285Y-161080952D01*
X164261904Y-161128571D01*
X164309523Y-161223809D01*
X164309523Y-161461904D01*
X164261904Y-161557142D01*
X164214285Y-161604761D01*
X164119047Y-161652380D01*
X163833333Y-161652380D01*
X163738095Y-161604761D01*
X163690476Y-161557142D01*
X136288095Y-85002380D02*
X136288095Y-84002380D01*
X136288095Y-84478571D02*
X136859523Y-84478571D01*
X136859523Y-85002380D02*
X136859523Y-84002380D01*
X137764285Y-84335714D02*
X137764285Y-85002380D01*
X137526190Y-83954761D02*
X137288095Y-84669047D01*
X137907142Y-84669047D01*
X138738095Y-140952380D02*
X138738095Y-141761904D01*
X138785714Y-141857142D01*
X138833333Y-141904761D01*
X138928571Y-141952380D01*
X139119047Y-141952380D01*
X139214285Y-141904761D01*
X139261904Y-141857142D01*
X139309523Y-141761904D01*
X139309523Y-140952380D01*
X139738095Y-141047619D02*
X139785714Y-141000000D01*
X139880952Y-140952380D01*
X140119047Y-140952380D01*
X140214285Y-141000000D01*
X140261904Y-141047619D01*
X140309523Y-141142857D01*
X140309523Y-141238095D01*
X140261904Y-141380952D01*
X139690476Y-141952380D01*
X140309523Y-141952380D01*
M02*
