G04 #@! TF.GenerationSoftware,KiCad,Pcbnew,(5.1.4)-1*
G04 #@! TF.CreationDate,2019-09-05T22:40:59+02:00*
G04 #@! TF.ProjectId,Control_board,436f6e74-726f-46c5-9f62-6f6172642e6b,rev?*
G04 #@! TF.SameCoordinates,Original*
G04 #@! TF.FileFunction,Paste,Top*
G04 #@! TF.FilePolarity,Positive*
%FSLAX46Y46*%
G04 Gerber Fmt 4.6, Leading zero omitted, Abs format (unit mm)*
G04 Created by KiCad (PCBNEW (5.1.4)-1) date 2019-09-05 22:40:59*
%MOMM*%
%LPD*%
G04 APERTURE LIST*
%ADD10R,1.000000X2.500000*%
%ADD11R,1.800000X3.800000*%
%ADD12R,2.000000X3.800000*%
%ADD13R,2.000000X1.500000*%
%ADD14R,2.500000X5.100000*%
%ADD15C,17.800000*%
%ADD16C,0.100000*%
%ADD17C,0.875000*%
%ADD18R,0.900000X1.200000*%
%ADD19R,0.900000X0.800000*%
%ADD20R,1.050000X0.600000*%
%ADD21R,1.550000X0.600000*%
%ADD22R,1.800000X1.000000*%
%ADD23R,1.450000X0.450000*%
%ADD24R,1.750000X0.950000*%
%ADD25R,1.750000X3.200000*%
%ADD26R,0.850000X0.300000*%
G04 APERTURE END LIST*
D10*
X155800000Y-168488000D03*
X157800000Y-168488000D03*
X159800000Y-168488000D03*
X161800000Y-168488000D03*
X163800000Y-168488000D03*
D11*
X153400000Y-173138000D03*
X172200000Y-173138000D03*
D10*
X165800000Y-168488000D03*
X167800000Y-168488000D03*
X169800000Y-168488000D03*
D12*
X143100000Y-102350000D03*
D13*
X136800000Y-102350000D03*
X136800000Y-104650000D03*
X136800000Y-100050000D03*
D14*
X160650000Y-73700000D03*
X137750000Y-73700000D03*
D15*
X149200000Y-73700000D03*
D16*
G36*
X154477691Y-84676053D02*
G01*
X154498926Y-84679203D01*
X154519750Y-84684419D01*
X154539962Y-84691651D01*
X154559368Y-84700830D01*
X154577781Y-84711866D01*
X154595024Y-84724654D01*
X154610930Y-84739070D01*
X154625346Y-84754976D01*
X154638134Y-84772219D01*
X154649170Y-84790632D01*
X154658349Y-84810038D01*
X154665581Y-84830250D01*
X154670797Y-84851074D01*
X154673947Y-84872309D01*
X154675000Y-84893750D01*
X154675000Y-85331250D01*
X154673947Y-85352691D01*
X154670797Y-85373926D01*
X154665581Y-85394750D01*
X154658349Y-85414962D01*
X154649170Y-85434368D01*
X154638134Y-85452781D01*
X154625346Y-85470024D01*
X154610930Y-85485930D01*
X154595024Y-85500346D01*
X154577781Y-85513134D01*
X154559368Y-85524170D01*
X154539962Y-85533349D01*
X154519750Y-85540581D01*
X154498926Y-85545797D01*
X154477691Y-85548947D01*
X154456250Y-85550000D01*
X153943750Y-85550000D01*
X153922309Y-85548947D01*
X153901074Y-85545797D01*
X153880250Y-85540581D01*
X153860038Y-85533349D01*
X153840632Y-85524170D01*
X153822219Y-85513134D01*
X153804976Y-85500346D01*
X153789070Y-85485930D01*
X153774654Y-85470024D01*
X153761866Y-85452781D01*
X153750830Y-85434368D01*
X153741651Y-85414962D01*
X153734419Y-85394750D01*
X153729203Y-85373926D01*
X153726053Y-85352691D01*
X153725000Y-85331250D01*
X153725000Y-84893750D01*
X153726053Y-84872309D01*
X153729203Y-84851074D01*
X153734419Y-84830250D01*
X153741651Y-84810038D01*
X153750830Y-84790632D01*
X153761866Y-84772219D01*
X153774654Y-84754976D01*
X153789070Y-84739070D01*
X153804976Y-84724654D01*
X153822219Y-84711866D01*
X153840632Y-84700830D01*
X153860038Y-84691651D01*
X153880250Y-84684419D01*
X153901074Y-84679203D01*
X153922309Y-84676053D01*
X153943750Y-84675000D01*
X154456250Y-84675000D01*
X154477691Y-84676053D01*
X154477691Y-84676053D01*
G37*
D17*
X154200000Y-85112500D03*
D16*
G36*
X154477691Y-86251053D02*
G01*
X154498926Y-86254203D01*
X154519750Y-86259419D01*
X154539962Y-86266651D01*
X154559368Y-86275830D01*
X154577781Y-86286866D01*
X154595024Y-86299654D01*
X154610930Y-86314070D01*
X154625346Y-86329976D01*
X154638134Y-86347219D01*
X154649170Y-86365632D01*
X154658349Y-86385038D01*
X154665581Y-86405250D01*
X154670797Y-86426074D01*
X154673947Y-86447309D01*
X154675000Y-86468750D01*
X154675000Y-86906250D01*
X154673947Y-86927691D01*
X154670797Y-86948926D01*
X154665581Y-86969750D01*
X154658349Y-86989962D01*
X154649170Y-87009368D01*
X154638134Y-87027781D01*
X154625346Y-87045024D01*
X154610930Y-87060930D01*
X154595024Y-87075346D01*
X154577781Y-87088134D01*
X154559368Y-87099170D01*
X154539962Y-87108349D01*
X154519750Y-87115581D01*
X154498926Y-87120797D01*
X154477691Y-87123947D01*
X154456250Y-87125000D01*
X153943750Y-87125000D01*
X153922309Y-87123947D01*
X153901074Y-87120797D01*
X153880250Y-87115581D01*
X153860038Y-87108349D01*
X153840632Y-87099170D01*
X153822219Y-87088134D01*
X153804976Y-87075346D01*
X153789070Y-87060930D01*
X153774654Y-87045024D01*
X153761866Y-87027781D01*
X153750830Y-87009368D01*
X153741651Y-86989962D01*
X153734419Y-86969750D01*
X153729203Y-86948926D01*
X153726053Y-86927691D01*
X153725000Y-86906250D01*
X153725000Y-86468750D01*
X153726053Y-86447309D01*
X153729203Y-86426074D01*
X153734419Y-86405250D01*
X153741651Y-86385038D01*
X153750830Y-86365632D01*
X153761866Y-86347219D01*
X153774654Y-86329976D01*
X153789070Y-86314070D01*
X153804976Y-86299654D01*
X153822219Y-86286866D01*
X153840632Y-86275830D01*
X153860038Y-86266651D01*
X153880250Y-86259419D01*
X153901074Y-86254203D01*
X153922309Y-86251053D01*
X153943750Y-86250000D01*
X154456250Y-86250000D01*
X154477691Y-86251053D01*
X154477691Y-86251053D01*
G37*
D17*
X154200000Y-86687500D03*
D18*
X117250000Y-136500000D03*
X113950000Y-136500000D03*
D19*
X101000000Y-155250000D03*
X101000000Y-157150000D03*
X103000000Y-156200000D03*
D20*
X109200000Y-135050000D03*
X109200000Y-136950000D03*
X111400000Y-136000000D03*
D16*
G36*
X99277691Y-156563553D02*
G01*
X99298926Y-156566703D01*
X99319750Y-156571919D01*
X99339962Y-156579151D01*
X99359368Y-156588330D01*
X99377781Y-156599366D01*
X99395024Y-156612154D01*
X99410930Y-156626570D01*
X99425346Y-156642476D01*
X99438134Y-156659719D01*
X99449170Y-156678132D01*
X99458349Y-156697538D01*
X99465581Y-156717750D01*
X99470797Y-156738574D01*
X99473947Y-156759809D01*
X99475000Y-156781250D01*
X99475000Y-157218750D01*
X99473947Y-157240191D01*
X99470797Y-157261426D01*
X99465581Y-157282250D01*
X99458349Y-157302462D01*
X99449170Y-157321868D01*
X99438134Y-157340281D01*
X99425346Y-157357524D01*
X99410930Y-157373430D01*
X99395024Y-157387846D01*
X99377781Y-157400634D01*
X99359368Y-157411670D01*
X99339962Y-157420849D01*
X99319750Y-157428081D01*
X99298926Y-157433297D01*
X99277691Y-157436447D01*
X99256250Y-157437500D01*
X98743750Y-157437500D01*
X98722309Y-157436447D01*
X98701074Y-157433297D01*
X98680250Y-157428081D01*
X98660038Y-157420849D01*
X98640632Y-157411670D01*
X98622219Y-157400634D01*
X98604976Y-157387846D01*
X98589070Y-157373430D01*
X98574654Y-157357524D01*
X98561866Y-157340281D01*
X98550830Y-157321868D01*
X98541651Y-157302462D01*
X98534419Y-157282250D01*
X98529203Y-157261426D01*
X98526053Y-157240191D01*
X98525000Y-157218750D01*
X98525000Y-156781250D01*
X98526053Y-156759809D01*
X98529203Y-156738574D01*
X98534419Y-156717750D01*
X98541651Y-156697538D01*
X98550830Y-156678132D01*
X98561866Y-156659719D01*
X98574654Y-156642476D01*
X98589070Y-156626570D01*
X98604976Y-156612154D01*
X98622219Y-156599366D01*
X98640632Y-156588330D01*
X98660038Y-156579151D01*
X98680250Y-156571919D01*
X98701074Y-156566703D01*
X98722309Y-156563553D01*
X98743750Y-156562500D01*
X99256250Y-156562500D01*
X99277691Y-156563553D01*
X99277691Y-156563553D01*
G37*
D17*
X99000000Y-157000000D03*
D16*
G36*
X99277691Y-154988553D02*
G01*
X99298926Y-154991703D01*
X99319750Y-154996919D01*
X99339962Y-155004151D01*
X99359368Y-155013330D01*
X99377781Y-155024366D01*
X99395024Y-155037154D01*
X99410930Y-155051570D01*
X99425346Y-155067476D01*
X99438134Y-155084719D01*
X99449170Y-155103132D01*
X99458349Y-155122538D01*
X99465581Y-155142750D01*
X99470797Y-155163574D01*
X99473947Y-155184809D01*
X99475000Y-155206250D01*
X99475000Y-155643750D01*
X99473947Y-155665191D01*
X99470797Y-155686426D01*
X99465581Y-155707250D01*
X99458349Y-155727462D01*
X99449170Y-155746868D01*
X99438134Y-155765281D01*
X99425346Y-155782524D01*
X99410930Y-155798430D01*
X99395024Y-155812846D01*
X99377781Y-155825634D01*
X99359368Y-155836670D01*
X99339962Y-155845849D01*
X99319750Y-155853081D01*
X99298926Y-155858297D01*
X99277691Y-155861447D01*
X99256250Y-155862500D01*
X98743750Y-155862500D01*
X98722309Y-155861447D01*
X98701074Y-155858297D01*
X98680250Y-155853081D01*
X98660038Y-155845849D01*
X98640632Y-155836670D01*
X98622219Y-155825634D01*
X98604976Y-155812846D01*
X98589070Y-155798430D01*
X98574654Y-155782524D01*
X98561866Y-155765281D01*
X98550830Y-155746868D01*
X98541651Y-155727462D01*
X98534419Y-155707250D01*
X98529203Y-155686426D01*
X98526053Y-155665191D01*
X98525000Y-155643750D01*
X98525000Y-155206250D01*
X98526053Y-155184809D01*
X98529203Y-155163574D01*
X98534419Y-155142750D01*
X98541651Y-155122538D01*
X98550830Y-155103132D01*
X98561866Y-155084719D01*
X98574654Y-155067476D01*
X98589070Y-155051570D01*
X98604976Y-155037154D01*
X98622219Y-155024366D01*
X98640632Y-155013330D01*
X98660038Y-155004151D01*
X98680250Y-154996919D01*
X98701074Y-154991703D01*
X98722309Y-154988553D01*
X98743750Y-154987500D01*
X99256250Y-154987500D01*
X99277691Y-154988553D01*
X99277691Y-154988553D01*
G37*
D17*
X99000000Y-155425000D03*
D16*
G36*
X105477691Y-156563553D02*
G01*
X105498926Y-156566703D01*
X105519750Y-156571919D01*
X105539962Y-156579151D01*
X105559368Y-156588330D01*
X105577781Y-156599366D01*
X105595024Y-156612154D01*
X105610930Y-156626570D01*
X105625346Y-156642476D01*
X105638134Y-156659719D01*
X105649170Y-156678132D01*
X105658349Y-156697538D01*
X105665581Y-156717750D01*
X105670797Y-156738574D01*
X105673947Y-156759809D01*
X105675000Y-156781250D01*
X105675000Y-157218750D01*
X105673947Y-157240191D01*
X105670797Y-157261426D01*
X105665581Y-157282250D01*
X105658349Y-157302462D01*
X105649170Y-157321868D01*
X105638134Y-157340281D01*
X105625346Y-157357524D01*
X105610930Y-157373430D01*
X105595024Y-157387846D01*
X105577781Y-157400634D01*
X105559368Y-157411670D01*
X105539962Y-157420849D01*
X105519750Y-157428081D01*
X105498926Y-157433297D01*
X105477691Y-157436447D01*
X105456250Y-157437500D01*
X104943750Y-157437500D01*
X104922309Y-157436447D01*
X104901074Y-157433297D01*
X104880250Y-157428081D01*
X104860038Y-157420849D01*
X104840632Y-157411670D01*
X104822219Y-157400634D01*
X104804976Y-157387846D01*
X104789070Y-157373430D01*
X104774654Y-157357524D01*
X104761866Y-157340281D01*
X104750830Y-157321868D01*
X104741651Y-157302462D01*
X104734419Y-157282250D01*
X104729203Y-157261426D01*
X104726053Y-157240191D01*
X104725000Y-157218750D01*
X104725000Y-156781250D01*
X104726053Y-156759809D01*
X104729203Y-156738574D01*
X104734419Y-156717750D01*
X104741651Y-156697538D01*
X104750830Y-156678132D01*
X104761866Y-156659719D01*
X104774654Y-156642476D01*
X104789070Y-156626570D01*
X104804976Y-156612154D01*
X104822219Y-156599366D01*
X104840632Y-156588330D01*
X104860038Y-156579151D01*
X104880250Y-156571919D01*
X104901074Y-156566703D01*
X104922309Y-156563553D01*
X104943750Y-156562500D01*
X105456250Y-156562500D01*
X105477691Y-156563553D01*
X105477691Y-156563553D01*
G37*
D17*
X105200000Y-157000000D03*
D16*
G36*
X105477691Y-154988553D02*
G01*
X105498926Y-154991703D01*
X105519750Y-154996919D01*
X105539962Y-155004151D01*
X105559368Y-155013330D01*
X105577781Y-155024366D01*
X105595024Y-155037154D01*
X105610930Y-155051570D01*
X105625346Y-155067476D01*
X105638134Y-155084719D01*
X105649170Y-155103132D01*
X105658349Y-155122538D01*
X105665581Y-155142750D01*
X105670797Y-155163574D01*
X105673947Y-155184809D01*
X105675000Y-155206250D01*
X105675000Y-155643750D01*
X105673947Y-155665191D01*
X105670797Y-155686426D01*
X105665581Y-155707250D01*
X105658349Y-155727462D01*
X105649170Y-155746868D01*
X105638134Y-155765281D01*
X105625346Y-155782524D01*
X105610930Y-155798430D01*
X105595024Y-155812846D01*
X105577781Y-155825634D01*
X105559368Y-155836670D01*
X105539962Y-155845849D01*
X105519750Y-155853081D01*
X105498926Y-155858297D01*
X105477691Y-155861447D01*
X105456250Y-155862500D01*
X104943750Y-155862500D01*
X104922309Y-155861447D01*
X104901074Y-155858297D01*
X104880250Y-155853081D01*
X104860038Y-155845849D01*
X104840632Y-155836670D01*
X104822219Y-155825634D01*
X104804976Y-155812846D01*
X104789070Y-155798430D01*
X104774654Y-155782524D01*
X104761866Y-155765281D01*
X104750830Y-155746868D01*
X104741651Y-155727462D01*
X104734419Y-155707250D01*
X104729203Y-155686426D01*
X104726053Y-155665191D01*
X104725000Y-155643750D01*
X104725000Y-155206250D01*
X104726053Y-155184809D01*
X104729203Y-155163574D01*
X104734419Y-155142750D01*
X104741651Y-155122538D01*
X104750830Y-155103132D01*
X104761866Y-155084719D01*
X104774654Y-155067476D01*
X104789070Y-155051570D01*
X104804976Y-155037154D01*
X104822219Y-155024366D01*
X104840632Y-155013330D01*
X104860038Y-155004151D01*
X104880250Y-154996919D01*
X104901074Y-154991703D01*
X104922309Y-154988553D01*
X104943750Y-154987500D01*
X105456250Y-154987500D01*
X105477691Y-154988553D01*
X105477691Y-154988553D01*
G37*
D17*
X105200000Y-155425000D03*
D16*
G36*
X109915191Y-129826053D02*
G01*
X109936426Y-129829203D01*
X109957250Y-129834419D01*
X109977462Y-129841651D01*
X109996868Y-129850830D01*
X110015281Y-129861866D01*
X110032524Y-129874654D01*
X110048430Y-129889070D01*
X110062846Y-129904976D01*
X110075634Y-129922219D01*
X110086670Y-129940632D01*
X110095849Y-129960038D01*
X110103081Y-129980250D01*
X110108297Y-130001074D01*
X110111447Y-130022309D01*
X110112500Y-130043750D01*
X110112500Y-130556250D01*
X110111447Y-130577691D01*
X110108297Y-130598926D01*
X110103081Y-130619750D01*
X110095849Y-130639962D01*
X110086670Y-130659368D01*
X110075634Y-130677781D01*
X110062846Y-130695024D01*
X110048430Y-130710930D01*
X110032524Y-130725346D01*
X110015281Y-130738134D01*
X109996868Y-130749170D01*
X109977462Y-130758349D01*
X109957250Y-130765581D01*
X109936426Y-130770797D01*
X109915191Y-130773947D01*
X109893750Y-130775000D01*
X109456250Y-130775000D01*
X109434809Y-130773947D01*
X109413574Y-130770797D01*
X109392750Y-130765581D01*
X109372538Y-130758349D01*
X109353132Y-130749170D01*
X109334719Y-130738134D01*
X109317476Y-130725346D01*
X109301570Y-130710930D01*
X109287154Y-130695024D01*
X109274366Y-130677781D01*
X109263330Y-130659368D01*
X109254151Y-130639962D01*
X109246919Y-130619750D01*
X109241703Y-130598926D01*
X109238553Y-130577691D01*
X109237500Y-130556250D01*
X109237500Y-130043750D01*
X109238553Y-130022309D01*
X109241703Y-130001074D01*
X109246919Y-129980250D01*
X109254151Y-129960038D01*
X109263330Y-129940632D01*
X109274366Y-129922219D01*
X109287154Y-129904976D01*
X109301570Y-129889070D01*
X109317476Y-129874654D01*
X109334719Y-129861866D01*
X109353132Y-129850830D01*
X109372538Y-129841651D01*
X109392750Y-129834419D01*
X109413574Y-129829203D01*
X109434809Y-129826053D01*
X109456250Y-129825000D01*
X109893750Y-129825000D01*
X109915191Y-129826053D01*
X109915191Y-129826053D01*
G37*
D17*
X109675000Y-130300000D03*
D16*
G36*
X108340191Y-129826053D02*
G01*
X108361426Y-129829203D01*
X108382250Y-129834419D01*
X108402462Y-129841651D01*
X108421868Y-129850830D01*
X108440281Y-129861866D01*
X108457524Y-129874654D01*
X108473430Y-129889070D01*
X108487846Y-129904976D01*
X108500634Y-129922219D01*
X108511670Y-129940632D01*
X108520849Y-129960038D01*
X108528081Y-129980250D01*
X108533297Y-130001074D01*
X108536447Y-130022309D01*
X108537500Y-130043750D01*
X108537500Y-130556250D01*
X108536447Y-130577691D01*
X108533297Y-130598926D01*
X108528081Y-130619750D01*
X108520849Y-130639962D01*
X108511670Y-130659368D01*
X108500634Y-130677781D01*
X108487846Y-130695024D01*
X108473430Y-130710930D01*
X108457524Y-130725346D01*
X108440281Y-130738134D01*
X108421868Y-130749170D01*
X108402462Y-130758349D01*
X108382250Y-130765581D01*
X108361426Y-130770797D01*
X108340191Y-130773947D01*
X108318750Y-130775000D01*
X107881250Y-130775000D01*
X107859809Y-130773947D01*
X107838574Y-130770797D01*
X107817750Y-130765581D01*
X107797538Y-130758349D01*
X107778132Y-130749170D01*
X107759719Y-130738134D01*
X107742476Y-130725346D01*
X107726570Y-130710930D01*
X107712154Y-130695024D01*
X107699366Y-130677781D01*
X107688330Y-130659368D01*
X107679151Y-130639962D01*
X107671919Y-130619750D01*
X107666703Y-130598926D01*
X107663553Y-130577691D01*
X107662500Y-130556250D01*
X107662500Y-130043750D01*
X107663553Y-130022309D01*
X107666703Y-130001074D01*
X107671919Y-129980250D01*
X107679151Y-129960038D01*
X107688330Y-129940632D01*
X107699366Y-129922219D01*
X107712154Y-129904976D01*
X107726570Y-129889070D01*
X107742476Y-129874654D01*
X107759719Y-129861866D01*
X107778132Y-129850830D01*
X107797538Y-129841651D01*
X107817750Y-129834419D01*
X107838574Y-129829203D01*
X107859809Y-129826053D01*
X107881250Y-129825000D01*
X108318750Y-129825000D01*
X108340191Y-129826053D01*
X108340191Y-129826053D01*
G37*
D17*
X108100000Y-130300000D03*
D16*
G36*
X87627691Y-158726053D02*
G01*
X87648926Y-158729203D01*
X87669750Y-158734419D01*
X87689962Y-158741651D01*
X87709368Y-158750830D01*
X87727781Y-158761866D01*
X87745024Y-158774654D01*
X87760930Y-158789070D01*
X87775346Y-158804976D01*
X87788134Y-158822219D01*
X87799170Y-158840632D01*
X87808349Y-158860038D01*
X87815581Y-158880250D01*
X87820797Y-158901074D01*
X87823947Y-158922309D01*
X87825000Y-158943750D01*
X87825000Y-159456250D01*
X87823947Y-159477691D01*
X87820797Y-159498926D01*
X87815581Y-159519750D01*
X87808349Y-159539962D01*
X87799170Y-159559368D01*
X87788134Y-159577781D01*
X87775346Y-159595024D01*
X87760930Y-159610930D01*
X87745024Y-159625346D01*
X87727781Y-159638134D01*
X87709368Y-159649170D01*
X87689962Y-159658349D01*
X87669750Y-159665581D01*
X87648926Y-159670797D01*
X87627691Y-159673947D01*
X87606250Y-159675000D01*
X87168750Y-159675000D01*
X87147309Y-159673947D01*
X87126074Y-159670797D01*
X87105250Y-159665581D01*
X87085038Y-159658349D01*
X87065632Y-159649170D01*
X87047219Y-159638134D01*
X87029976Y-159625346D01*
X87014070Y-159610930D01*
X86999654Y-159595024D01*
X86986866Y-159577781D01*
X86975830Y-159559368D01*
X86966651Y-159539962D01*
X86959419Y-159519750D01*
X86954203Y-159498926D01*
X86951053Y-159477691D01*
X86950000Y-159456250D01*
X86950000Y-158943750D01*
X86951053Y-158922309D01*
X86954203Y-158901074D01*
X86959419Y-158880250D01*
X86966651Y-158860038D01*
X86975830Y-158840632D01*
X86986866Y-158822219D01*
X86999654Y-158804976D01*
X87014070Y-158789070D01*
X87029976Y-158774654D01*
X87047219Y-158761866D01*
X87065632Y-158750830D01*
X87085038Y-158741651D01*
X87105250Y-158734419D01*
X87126074Y-158729203D01*
X87147309Y-158726053D01*
X87168750Y-158725000D01*
X87606250Y-158725000D01*
X87627691Y-158726053D01*
X87627691Y-158726053D01*
G37*
D17*
X87387500Y-159200000D03*
D16*
G36*
X86052691Y-158726053D02*
G01*
X86073926Y-158729203D01*
X86094750Y-158734419D01*
X86114962Y-158741651D01*
X86134368Y-158750830D01*
X86152781Y-158761866D01*
X86170024Y-158774654D01*
X86185930Y-158789070D01*
X86200346Y-158804976D01*
X86213134Y-158822219D01*
X86224170Y-158840632D01*
X86233349Y-158860038D01*
X86240581Y-158880250D01*
X86245797Y-158901074D01*
X86248947Y-158922309D01*
X86250000Y-158943750D01*
X86250000Y-159456250D01*
X86248947Y-159477691D01*
X86245797Y-159498926D01*
X86240581Y-159519750D01*
X86233349Y-159539962D01*
X86224170Y-159559368D01*
X86213134Y-159577781D01*
X86200346Y-159595024D01*
X86185930Y-159610930D01*
X86170024Y-159625346D01*
X86152781Y-159638134D01*
X86134368Y-159649170D01*
X86114962Y-159658349D01*
X86094750Y-159665581D01*
X86073926Y-159670797D01*
X86052691Y-159673947D01*
X86031250Y-159675000D01*
X85593750Y-159675000D01*
X85572309Y-159673947D01*
X85551074Y-159670797D01*
X85530250Y-159665581D01*
X85510038Y-159658349D01*
X85490632Y-159649170D01*
X85472219Y-159638134D01*
X85454976Y-159625346D01*
X85439070Y-159610930D01*
X85424654Y-159595024D01*
X85411866Y-159577781D01*
X85400830Y-159559368D01*
X85391651Y-159539962D01*
X85384419Y-159519750D01*
X85379203Y-159498926D01*
X85376053Y-159477691D01*
X85375000Y-159456250D01*
X85375000Y-158943750D01*
X85376053Y-158922309D01*
X85379203Y-158901074D01*
X85384419Y-158880250D01*
X85391651Y-158860038D01*
X85400830Y-158840632D01*
X85411866Y-158822219D01*
X85424654Y-158804976D01*
X85439070Y-158789070D01*
X85454976Y-158774654D01*
X85472219Y-158761866D01*
X85490632Y-158750830D01*
X85510038Y-158741651D01*
X85530250Y-158734419D01*
X85551074Y-158729203D01*
X85572309Y-158726053D01*
X85593750Y-158725000D01*
X86031250Y-158725000D01*
X86052691Y-158726053D01*
X86052691Y-158726053D01*
G37*
D17*
X85812500Y-159200000D03*
D16*
G36*
X111765191Y-129826053D02*
G01*
X111786426Y-129829203D01*
X111807250Y-129834419D01*
X111827462Y-129841651D01*
X111846868Y-129850830D01*
X111865281Y-129861866D01*
X111882524Y-129874654D01*
X111898430Y-129889070D01*
X111912846Y-129904976D01*
X111925634Y-129922219D01*
X111936670Y-129940632D01*
X111945849Y-129960038D01*
X111953081Y-129980250D01*
X111958297Y-130001074D01*
X111961447Y-130022309D01*
X111962500Y-130043750D01*
X111962500Y-130556250D01*
X111961447Y-130577691D01*
X111958297Y-130598926D01*
X111953081Y-130619750D01*
X111945849Y-130639962D01*
X111936670Y-130659368D01*
X111925634Y-130677781D01*
X111912846Y-130695024D01*
X111898430Y-130710930D01*
X111882524Y-130725346D01*
X111865281Y-130738134D01*
X111846868Y-130749170D01*
X111827462Y-130758349D01*
X111807250Y-130765581D01*
X111786426Y-130770797D01*
X111765191Y-130773947D01*
X111743750Y-130775000D01*
X111306250Y-130775000D01*
X111284809Y-130773947D01*
X111263574Y-130770797D01*
X111242750Y-130765581D01*
X111222538Y-130758349D01*
X111203132Y-130749170D01*
X111184719Y-130738134D01*
X111167476Y-130725346D01*
X111151570Y-130710930D01*
X111137154Y-130695024D01*
X111124366Y-130677781D01*
X111113330Y-130659368D01*
X111104151Y-130639962D01*
X111096919Y-130619750D01*
X111091703Y-130598926D01*
X111088553Y-130577691D01*
X111087500Y-130556250D01*
X111087500Y-130043750D01*
X111088553Y-130022309D01*
X111091703Y-130001074D01*
X111096919Y-129980250D01*
X111104151Y-129960038D01*
X111113330Y-129940632D01*
X111124366Y-129922219D01*
X111137154Y-129904976D01*
X111151570Y-129889070D01*
X111167476Y-129874654D01*
X111184719Y-129861866D01*
X111203132Y-129850830D01*
X111222538Y-129841651D01*
X111242750Y-129834419D01*
X111263574Y-129829203D01*
X111284809Y-129826053D01*
X111306250Y-129825000D01*
X111743750Y-129825000D01*
X111765191Y-129826053D01*
X111765191Y-129826053D01*
G37*
D17*
X111525000Y-130300000D03*
D16*
G36*
X113340191Y-129826053D02*
G01*
X113361426Y-129829203D01*
X113382250Y-129834419D01*
X113402462Y-129841651D01*
X113421868Y-129850830D01*
X113440281Y-129861866D01*
X113457524Y-129874654D01*
X113473430Y-129889070D01*
X113487846Y-129904976D01*
X113500634Y-129922219D01*
X113511670Y-129940632D01*
X113520849Y-129960038D01*
X113528081Y-129980250D01*
X113533297Y-130001074D01*
X113536447Y-130022309D01*
X113537500Y-130043750D01*
X113537500Y-130556250D01*
X113536447Y-130577691D01*
X113533297Y-130598926D01*
X113528081Y-130619750D01*
X113520849Y-130639962D01*
X113511670Y-130659368D01*
X113500634Y-130677781D01*
X113487846Y-130695024D01*
X113473430Y-130710930D01*
X113457524Y-130725346D01*
X113440281Y-130738134D01*
X113421868Y-130749170D01*
X113402462Y-130758349D01*
X113382250Y-130765581D01*
X113361426Y-130770797D01*
X113340191Y-130773947D01*
X113318750Y-130775000D01*
X112881250Y-130775000D01*
X112859809Y-130773947D01*
X112838574Y-130770797D01*
X112817750Y-130765581D01*
X112797538Y-130758349D01*
X112778132Y-130749170D01*
X112759719Y-130738134D01*
X112742476Y-130725346D01*
X112726570Y-130710930D01*
X112712154Y-130695024D01*
X112699366Y-130677781D01*
X112688330Y-130659368D01*
X112679151Y-130639962D01*
X112671919Y-130619750D01*
X112666703Y-130598926D01*
X112663553Y-130577691D01*
X112662500Y-130556250D01*
X112662500Y-130043750D01*
X112663553Y-130022309D01*
X112666703Y-130001074D01*
X112671919Y-129980250D01*
X112679151Y-129960038D01*
X112688330Y-129940632D01*
X112699366Y-129922219D01*
X112712154Y-129904976D01*
X112726570Y-129889070D01*
X112742476Y-129874654D01*
X112759719Y-129861866D01*
X112778132Y-129850830D01*
X112797538Y-129841651D01*
X112817750Y-129834419D01*
X112838574Y-129829203D01*
X112859809Y-129826053D01*
X112881250Y-129825000D01*
X113318750Y-129825000D01*
X113340191Y-129826053D01*
X113340191Y-129826053D01*
G37*
D17*
X113100000Y-130300000D03*
D21*
X146500000Y-84995000D03*
X146500000Y-86265000D03*
X146500000Y-87535000D03*
X146500000Y-88805000D03*
X151900000Y-88805000D03*
X151900000Y-87535000D03*
X151900000Y-86265000D03*
X151900000Y-84995000D03*
D22*
X143200000Y-85650000D03*
X143200000Y-88150000D03*
D16*
G36*
X159530191Y-163026053D02*
G01*
X159551426Y-163029203D01*
X159572250Y-163034419D01*
X159592462Y-163041651D01*
X159611868Y-163050830D01*
X159630281Y-163061866D01*
X159647524Y-163074654D01*
X159663430Y-163089070D01*
X159677846Y-163104976D01*
X159690634Y-163122219D01*
X159701670Y-163140632D01*
X159710849Y-163160038D01*
X159718081Y-163180250D01*
X159723297Y-163201074D01*
X159726447Y-163222309D01*
X159727500Y-163243750D01*
X159727500Y-163756250D01*
X159726447Y-163777691D01*
X159723297Y-163798926D01*
X159718081Y-163819750D01*
X159710849Y-163839962D01*
X159701670Y-163859368D01*
X159690634Y-163877781D01*
X159677846Y-163895024D01*
X159663430Y-163910930D01*
X159647524Y-163925346D01*
X159630281Y-163938134D01*
X159611868Y-163949170D01*
X159592462Y-163958349D01*
X159572250Y-163965581D01*
X159551426Y-163970797D01*
X159530191Y-163973947D01*
X159508750Y-163975000D01*
X159071250Y-163975000D01*
X159049809Y-163973947D01*
X159028574Y-163970797D01*
X159007750Y-163965581D01*
X158987538Y-163958349D01*
X158968132Y-163949170D01*
X158949719Y-163938134D01*
X158932476Y-163925346D01*
X158916570Y-163910930D01*
X158902154Y-163895024D01*
X158889366Y-163877781D01*
X158878330Y-163859368D01*
X158869151Y-163839962D01*
X158861919Y-163819750D01*
X158856703Y-163798926D01*
X158853553Y-163777691D01*
X158852500Y-163756250D01*
X158852500Y-163243750D01*
X158853553Y-163222309D01*
X158856703Y-163201074D01*
X158861919Y-163180250D01*
X158869151Y-163160038D01*
X158878330Y-163140632D01*
X158889366Y-163122219D01*
X158902154Y-163104976D01*
X158916570Y-163089070D01*
X158932476Y-163074654D01*
X158949719Y-163061866D01*
X158968132Y-163050830D01*
X158987538Y-163041651D01*
X159007750Y-163034419D01*
X159028574Y-163029203D01*
X159049809Y-163026053D01*
X159071250Y-163025000D01*
X159508750Y-163025000D01*
X159530191Y-163026053D01*
X159530191Y-163026053D01*
G37*
D17*
X159290000Y-163500000D03*
D16*
G36*
X157955191Y-163026053D02*
G01*
X157976426Y-163029203D01*
X157997250Y-163034419D01*
X158017462Y-163041651D01*
X158036868Y-163050830D01*
X158055281Y-163061866D01*
X158072524Y-163074654D01*
X158088430Y-163089070D01*
X158102846Y-163104976D01*
X158115634Y-163122219D01*
X158126670Y-163140632D01*
X158135849Y-163160038D01*
X158143081Y-163180250D01*
X158148297Y-163201074D01*
X158151447Y-163222309D01*
X158152500Y-163243750D01*
X158152500Y-163756250D01*
X158151447Y-163777691D01*
X158148297Y-163798926D01*
X158143081Y-163819750D01*
X158135849Y-163839962D01*
X158126670Y-163859368D01*
X158115634Y-163877781D01*
X158102846Y-163895024D01*
X158088430Y-163910930D01*
X158072524Y-163925346D01*
X158055281Y-163938134D01*
X158036868Y-163949170D01*
X158017462Y-163958349D01*
X157997250Y-163965581D01*
X157976426Y-163970797D01*
X157955191Y-163973947D01*
X157933750Y-163975000D01*
X157496250Y-163975000D01*
X157474809Y-163973947D01*
X157453574Y-163970797D01*
X157432750Y-163965581D01*
X157412538Y-163958349D01*
X157393132Y-163949170D01*
X157374719Y-163938134D01*
X157357476Y-163925346D01*
X157341570Y-163910930D01*
X157327154Y-163895024D01*
X157314366Y-163877781D01*
X157303330Y-163859368D01*
X157294151Y-163839962D01*
X157286919Y-163819750D01*
X157281703Y-163798926D01*
X157278553Y-163777691D01*
X157277500Y-163756250D01*
X157277500Y-163243750D01*
X157278553Y-163222309D01*
X157281703Y-163201074D01*
X157286919Y-163180250D01*
X157294151Y-163160038D01*
X157303330Y-163140632D01*
X157314366Y-163122219D01*
X157327154Y-163104976D01*
X157341570Y-163089070D01*
X157357476Y-163074654D01*
X157374719Y-163061866D01*
X157393132Y-163050830D01*
X157412538Y-163041651D01*
X157432750Y-163034419D01*
X157453574Y-163029203D01*
X157474809Y-163026053D01*
X157496250Y-163025000D01*
X157933750Y-163025000D01*
X157955191Y-163026053D01*
X157955191Y-163026053D01*
G37*
D17*
X157715000Y-163500000D03*
D16*
G36*
X154060191Y-163026053D02*
G01*
X154081426Y-163029203D01*
X154102250Y-163034419D01*
X154122462Y-163041651D01*
X154141868Y-163050830D01*
X154160281Y-163061866D01*
X154177524Y-163074654D01*
X154193430Y-163089070D01*
X154207846Y-163104976D01*
X154220634Y-163122219D01*
X154231670Y-163140632D01*
X154240849Y-163160038D01*
X154248081Y-163180250D01*
X154253297Y-163201074D01*
X154256447Y-163222309D01*
X154257500Y-163243750D01*
X154257500Y-163756250D01*
X154256447Y-163777691D01*
X154253297Y-163798926D01*
X154248081Y-163819750D01*
X154240849Y-163839962D01*
X154231670Y-163859368D01*
X154220634Y-163877781D01*
X154207846Y-163895024D01*
X154193430Y-163910930D01*
X154177524Y-163925346D01*
X154160281Y-163938134D01*
X154141868Y-163949170D01*
X154122462Y-163958349D01*
X154102250Y-163965581D01*
X154081426Y-163970797D01*
X154060191Y-163973947D01*
X154038750Y-163975000D01*
X153601250Y-163975000D01*
X153579809Y-163973947D01*
X153558574Y-163970797D01*
X153537750Y-163965581D01*
X153517538Y-163958349D01*
X153498132Y-163949170D01*
X153479719Y-163938134D01*
X153462476Y-163925346D01*
X153446570Y-163910930D01*
X153432154Y-163895024D01*
X153419366Y-163877781D01*
X153408330Y-163859368D01*
X153399151Y-163839962D01*
X153391919Y-163819750D01*
X153386703Y-163798926D01*
X153383553Y-163777691D01*
X153382500Y-163756250D01*
X153382500Y-163243750D01*
X153383553Y-163222309D01*
X153386703Y-163201074D01*
X153391919Y-163180250D01*
X153399151Y-163160038D01*
X153408330Y-163140632D01*
X153419366Y-163122219D01*
X153432154Y-163104976D01*
X153446570Y-163089070D01*
X153462476Y-163074654D01*
X153479719Y-163061866D01*
X153498132Y-163050830D01*
X153517538Y-163041651D01*
X153537750Y-163034419D01*
X153558574Y-163029203D01*
X153579809Y-163026053D01*
X153601250Y-163025000D01*
X154038750Y-163025000D01*
X154060191Y-163026053D01*
X154060191Y-163026053D01*
G37*
D17*
X153820000Y-163500000D03*
D16*
G36*
X155635191Y-163026053D02*
G01*
X155656426Y-163029203D01*
X155677250Y-163034419D01*
X155697462Y-163041651D01*
X155716868Y-163050830D01*
X155735281Y-163061866D01*
X155752524Y-163074654D01*
X155768430Y-163089070D01*
X155782846Y-163104976D01*
X155795634Y-163122219D01*
X155806670Y-163140632D01*
X155815849Y-163160038D01*
X155823081Y-163180250D01*
X155828297Y-163201074D01*
X155831447Y-163222309D01*
X155832500Y-163243750D01*
X155832500Y-163756250D01*
X155831447Y-163777691D01*
X155828297Y-163798926D01*
X155823081Y-163819750D01*
X155815849Y-163839962D01*
X155806670Y-163859368D01*
X155795634Y-163877781D01*
X155782846Y-163895024D01*
X155768430Y-163910930D01*
X155752524Y-163925346D01*
X155735281Y-163938134D01*
X155716868Y-163949170D01*
X155697462Y-163958349D01*
X155677250Y-163965581D01*
X155656426Y-163970797D01*
X155635191Y-163973947D01*
X155613750Y-163975000D01*
X155176250Y-163975000D01*
X155154809Y-163973947D01*
X155133574Y-163970797D01*
X155112750Y-163965581D01*
X155092538Y-163958349D01*
X155073132Y-163949170D01*
X155054719Y-163938134D01*
X155037476Y-163925346D01*
X155021570Y-163910930D01*
X155007154Y-163895024D01*
X154994366Y-163877781D01*
X154983330Y-163859368D01*
X154974151Y-163839962D01*
X154966919Y-163819750D01*
X154961703Y-163798926D01*
X154958553Y-163777691D01*
X154957500Y-163756250D01*
X154957500Y-163243750D01*
X154958553Y-163222309D01*
X154961703Y-163201074D01*
X154966919Y-163180250D01*
X154974151Y-163160038D01*
X154983330Y-163140632D01*
X154994366Y-163122219D01*
X155007154Y-163104976D01*
X155021570Y-163089070D01*
X155037476Y-163074654D01*
X155054719Y-163061866D01*
X155073132Y-163050830D01*
X155092538Y-163041651D01*
X155112750Y-163034419D01*
X155133574Y-163029203D01*
X155154809Y-163026053D01*
X155176250Y-163025000D01*
X155613750Y-163025000D01*
X155635191Y-163026053D01*
X155635191Y-163026053D01*
G37*
D17*
X155395000Y-163500000D03*
D16*
G36*
X134827691Y-102313553D02*
G01*
X134848926Y-102316703D01*
X134869750Y-102321919D01*
X134889962Y-102329151D01*
X134909368Y-102338330D01*
X134927781Y-102349366D01*
X134945024Y-102362154D01*
X134960930Y-102376570D01*
X134975346Y-102392476D01*
X134988134Y-102409719D01*
X134999170Y-102428132D01*
X135008349Y-102447538D01*
X135015581Y-102467750D01*
X135020797Y-102488574D01*
X135023947Y-102509809D01*
X135025000Y-102531250D01*
X135025000Y-102968750D01*
X135023947Y-102990191D01*
X135020797Y-103011426D01*
X135015581Y-103032250D01*
X135008349Y-103052462D01*
X134999170Y-103071868D01*
X134988134Y-103090281D01*
X134975346Y-103107524D01*
X134960930Y-103123430D01*
X134945024Y-103137846D01*
X134927781Y-103150634D01*
X134909368Y-103161670D01*
X134889962Y-103170849D01*
X134869750Y-103178081D01*
X134848926Y-103183297D01*
X134827691Y-103186447D01*
X134806250Y-103187500D01*
X134293750Y-103187500D01*
X134272309Y-103186447D01*
X134251074Y-103183297D01*
X134230250Y-103178081D01*
X134210038Y-103170849D01*
X134190632Y-103161670D01*
X134172219Y-103150634D01*
X134154976Y-103137846D01*
X134139070Y-103123430D01*
X134124654Y-103107524D01*
X134111866Y-103090281D01*
X134100830Y-103071868D01*
X134091651Y-103052462D01*
X134084419Y-103032250D01*
X134079203Y-103011426D01*
X134076053Y-102990191D01*
X134075000Y-102968750D01*
X134075000Y-102531250D01*
X134076053Y-102509809D01*
X134079203Y-102488574D01*
X134084419Y-102467750D01*
X134091651Y-102447538D01*
X134100830Y-102428132D01*
X134111866Y-102409719D01*
X134124654Y-102392476D01*
X134139070Y-102376570D01*
X134154976Y-102362154D01*
X134172219Y-102349366D01*
X134190632Y-102338330D01*
X134210038Y-102329151D01*
X134230250Y-102321919D01*
X134251074Y-102316703D01*
X134272309Y-102313553D01*
X134293750Y-102312500D01*
X134806250Y-102312500D01*
X134827691Y-102313553D01*
X134827691Y-102313553D01*
G37*
D17*
X134550000Y-102750000D03*
D16*
G36*
X134827691Y-103888553D02*
G01*
X134848926Y-103891703D01*
X134869750Y-103896919D01*
X134889962Y-103904151D01*
X134909368Y-103913330D01*
X134927781Y-103924366D01*
X134945024Y-103937154D01*
X134960930Y-103951570D01*
X134975346Y-103967476D01*
X134988134Y-103984719D01*
X134999170Y-104003132D01*
X135008349Y-104022538D01*
X135015581Y-104042750D01*
X135020797Y-104063574D01*
X135023947Y-104084809D01*
X135025000Y-104106250D01*
X135025000Y-104543750D01*
X135023947Y-104565191D01*
X135020797Y-104586426D01*
X135015581Y-104607250D01*
X135008349Y-104627462D01*
X134999170Y-104646868D01*
X134988134Y-104665281D01*
X134975346Y-104682524D01*
X134960930Y-104698430D01*
X134945024Y-104712846D01*
X134927781Y-104725634D01*
X134909368Y-104736670D01*
X134889962Y-104745849D01*
X134869750Y-104753081D01*
X134848926Y-104758297D01*
X134827691Y-104761447D01*
X134806250Y-104762500D01*
X134293750Y-104762500D01*
X134272309Y-104761447D01*
X134251074Y-104758297D01*
X134230250Y-104753081D01*
X134210038Y-104745849D01*
X134190632Y-104736670D01*
X134172219Y-104725634D01*
X134154976Y-104712846D01*
X134139070Y-104698430D01*
X134124654Y-104682524D01*
X134111866Y-104665281D01*
X134100830Y-104646868D01*
X134091651Y-104627462D01*
X134084419Y-104607250D01*
X134079203Y-104586426D01*
X134076053Y-104565191D01*
X134075000Y-104543750D01*
X134075000Y-104106250D01*
X134076053Y-104084809D01*
X134079203Y-104063574D01*
X134084419Y-104042750D01*
X134091651Y-104022538D01*
X134100830Y-104003132D01*
X134111866Y-103984719D01*
X134124654Y-103967476D01*
X134139070Y-103951570D01*
X134154976Y-103937154D01*
X134172219Y-103924366D01*
X134190632Y-103913330D01*
X134210038Y-103904151D01*
X134230250Y-103896919D01*
X134251074Y-103891703D01*
X134272309Y-103888553D01*
X134293750Y-103887500D01*
X134806250Y-103887500D01*
X134827691Y-103888553D01*
X134827691Y-103888553D01*
G37*
D17*
X134550000Y-104325000D03*
D16*
G36*
X146627691Y-158726053D02*
G01*
X146648926Y-158729203D01*
X146669750Y-158734419D01*
X146689962Y-158741651D01*
X146709368Y-158750830D01*
X146727781Y-158761866D01*
X146745024Y-158774654D01*
X146760930Y-158789070D01*
X146775346Y-158804976D01*
X146788134Y-158822219D01*
X146799170Y-158840632D01*
X146808349Y-158860038D01*
X146815581Y-158880250D01*
X146820797Y-158901074D01*
X146823947Y-158922309D01*
X146825000Y-158943750D01*
X146825000Y-159456250D01*
X146823947Y-159477691D01*
X146820797Y-159498926D01*
X146815581Y-159519750D01*
X146808349Y-159539962D01*
X146799170Y-159559368D01*
X146788134Y-159577781D01*
X146775346Y-159595024D01*
X146760930Y-159610930D01*
X146745024Y-159625346D01*
X146727781Y-159638134D01*
X146709368Y-159649170D01*
X146689962Y-159658349D01*
X146669750Y-159665581D01*
X146648926Y-159670797D01*
X146627691Y-159673947D01*
X146606250Y-159675000D01*
X146168750Y-159675000D01*
X146147309Y-159673947D01*
X146126074Y-159670797D01*
X146105250Y-159665581D01*
X146085038Y-159658349D01*
X146065632Y-159649170D01*
X146047219Y-159638134D01*
X146029976Y-159625346D01*
X146014070Y-159610930D01*
X145999654Y-159595024D01*
X145986866Y-159577781D01*
X145975830Y-159559368D01*
X145966651Y-159539962D01*
X145959419Y-159519750D01*
X145954203Y-159498926D01*
X145951053Y-159477691D01*
X145950000Y-159456250D01*
X145950000Y-158943750D01*
X145951053Y-158922309D01*
X145954203Y-158901074D01*
X145959419Y-158880250D01*
X145966651Y-158860038D01*
X145975830Y-158840632D01*
X145986866Y-158822219D01*
X145999654Y-158804976D01*
X146014070Y-158789070D01*
X146029976Y-158774654D01*
X146047219Y-158761866D01*
X146065632Y-158750830D01*
X146085038Y-158741651D01*
X146105250Y-158734419D01*
X146126074Y-158729203D01*
X146147309Y-158726053D01*
X146168750Y-158725000D01*
X146606250Y-158725000D01*
X146627691Y-158726053D01*
X146627691Y-158726053D01*
G37*
D17*
X146387500Y-159200000D03*
D16*
G36*
X145052691Y-158726053D02*
G01*
X145073926Y-158729203D01*
X145094750Y-158734419D01*
X145114962Y-158741651D01*
X145134368Y-158750830D01*
X145152781Y-158761866D01*
X145170024Y-158774654D01*
X145185930Y-158789070D01*
X145200346Y-158804976D01*
X145213134Y-158822219D01*
X145224170Y-158840632D01*
X145233349Y-158860038D01*
X145240581Y-158880250D01*
X145245797Y-158901074D01*
X145248947Y-158922309D01*
X145250000Y-158943750D01*
X145250000Y-159456250D01*
X145248947Y-159477691D01*
X145245797Y-159498926D01*
X145240581Y-159519750D01*
X145233349Y-159539962D01*
X145224170Y-159559368D01*
X145213134Y-159577781D01*
X145200346Y-159595024D01*
X145185930Y-159610930D01*
X145170024Y-159625346D01*
X145152781Y-159638134D01*
X145134368Y-159649170D01*
X145114962Y-159658349D01*
X145094750Y-159665581D01*
X145073926Y-159670797D01*
X145052691Y-159673947D01*
X145031250Y-159675000D01*
X144593750Y-159675000D01*
X144572309Y-159673947D01*
X144551074Y-159670797D01*
X144530250Y-159665581D01*
X144510038Y-159658349D01*
X144490632Y-159649170D01*
X144472219Y-159638134D01*
X144454976Y-159625346D01*
X144439070Y-159610930D01*
X144424654Y-159595024D01*
X144411866Y-159577781D01*
X144400830Y-159559368D01*
X144391651Y-159539962D01*
X144384419Y-159519750D01*
X144379203Y-159498926D01*
X144376053Y-159477691D01*
X144375000Y-159456250D01*
X144375000Y-158943750D01*
X144376053Y-158922309D01*
X144379203Y-158901074D01*
X144384419Y-158880250D01*
X144391651Y-158860038D01*
X144400830Y-158840632D01*
X144411866Y-158822219D01*
X144424654Y-158804976D01*
X144439070Y-158789070D01*
X144454976Y-158774654D01*
X144472219Y-158761866D01*
X144490632Y-158750830D01*
X144510038Y-158741651D01*
X144530250Y-158734419D01*
X144551074Y-158729203D01*
X144572309Y-158726053D01*
X144593750Y-158725000D01*
X145031250Y-158725000D01*
X145052691Y-158726053D01*
X145052691Y-158726053D01*
G37*
D17*
X144812500Y-159200000D03*
D16*
G36*
X131865191Y-158726053D02*
G01*
X131886426Y-158729203D01*
X131907250Y-158734419D01*
X131927462Y-158741651D01*
X131946868Y-158750830D01*
X131965281Y-158761866D01*
X131982524Y-158774654D01*
X131998430Y-158789070D01*
X132012846Y-158804976D01*
X132025634Y-158822219D01*
X132036670Y-158840632D01*
X132045849Y-158860038D01*
X132053081Y-158880250D01*
X132058297Y-158901074D01*
X132061447Y-158922309D01*
X132062500Y-158943750D01*
X132062500Y-159456250D01*
X132061447Y-159477691D01*
X132058297Y-159498926D01*
X132053081Y-159519750D01*
X132045849Y-159539962D01*
X132036670Y-159559368D01*
X132025634Y-159577781D01*
X132012846Y-159595024D01*
X131998430Y-159610930D01*
X131982524Y-159625346D01*
X131965281Y-159638134D01*
X131946868Y-159649170D01*
X131927462Y-159658349D01*
X131907250Y-159665581D01*
X131886426Y-159670797D01*
X131865191Y-159673947D01*
X131843750Y-159675000D01*
X131406250Y-159675000D01*
X131384809Y-159673947D01*
X131363574Y-159670797D01*
X131342750Y-159665581D01*
X131322538Y-159658349D01*
X131303132Y-159649170D01*
X131284719Y-159638134D01*
X131267476Y-159625346D01*
X131251570Y-159610930D01*
X131237154Y-159595024D01*
X131224366Y-159577781D01*
X131213330Y-159559368D01*
X131204151Y-159539962D01*
X131196919Y-159519750D01*
X131191703Y-159498926D01*
X131188553Y-159477691D01*
X131187500Y-159456250D01*
X131187500Y-158943750D01*
X131188553Y-158922309D01*
X131191703Y-158901074D01*
X131196919Y-158880250D01*
X131204151Y-158860038D01*
X131213330Y-158840632D01*
X131224366Y-158822219D01*
X131237154Y-158804976D01*
X131251570Y-158789070D01*
X131267476Y-158774654D01*
X131284719Y-158761866D01*
X131303132Y-158750830D01*
X131322538Y-158741651D01*
X131342750Y-158734419D01*
X131363574Y-158729203D01*
X131384809Y-158726053D01*
X131406250Y-158725000D01*
X131843750Y-158725000D01*
X131865191Y-158726053D01*
X131865191Y-158726053D01*
G37*
D17*
X131625000Y-159200000D03*
D16*
G36*
X133440191Y-158726053D02*
G01*
X133461426Y-158729203D01*
X133482250Y-158734419D01*
X133502462Y-158741651D01*
X133521868Y-158750830D01*
X133540281Y-158761866D01*
X133557524Y-158774654D01*
X133573430Y-158789070D01*
X133587846Y-158804976D01*
X133600634Y-158822219D01*
X133611670Y-158840632D01*
X133620849Y-158860038D01*
X133628081Y-158880250D01*
X133633297Y-158901074D01*
X133636447Y-158922309D01*
X133637500Y-158943750D01*
X133637500Y-159456250D01*
X133636447Y-159477691D01*
X133633297Y-159498926D01*
X133628081Y-159519750D01*
X133620849Y-159539962D01*
X133611670Y-159559368D01*
X133600634Y-159577781D01*
X133587846Y-159595024D01*
X133573430Y-159610930D01*
X133557524Y-159625346D01*
X133540281Y-159638134D01*
X133521868Y-159649170D01*
X133502462Y-159658349D01*
X133482250Y-159665581D01*
X133461426Y-159670797D01*
X133440191Y-159673947D01*
X133418750Y-159675000D01*
X132981250Y-159675000D01*
X132959809Y-159673947D01*
X132938574Y-159670797D01*
X132917750Y-159665581D01*
X132897538Y-159658349D01*
X132878132Y-159649170D01*
X132859719Y-159638134D01*
X132842476Y-159625346D01*
X132826570Y-159610930D01*
X132812154Y-159595024D01*
X132799366Y-159577781D01*
X132788330Y-159559368D01*
X132779151Y-159539962D01*
X132771919Y-159519750D01*
X132766703Y-159498926D01*
X132763553Y-159477691D01*
X132762500Y-159456250D01*
X132762500Y-158943750D01*
X132763553Y-158922309D01*
X132766703Y-158901074D01*
X132771919Y-158880250D01*
X132779151Y-158860038D01*
X132788330Y-158840632D01*
X132799366Y-158822219D01*
X132812154Y-158804976D01*
X132826570Y-158789070D01*
X132842476Y-158774654D01*
X132859719Y-158761866D01*
X132878132Y-158750830D01*
X132897538Y-158741651D01*
X132917750Y-158734419D01*
X132938574Y-158729203D01*
X132959809Y-158726053D01*
X132981250Y-158725000D01*
X133418750Y-158725000D01*
X133440191Y-158726053D01*
X133440191Y-158726053D01*
G37*
D17*
X133200000Y-159200000D03*
D16*
G36*
X158840191Y-158626053D02*
G01*
X158861426Y-158629203D01*
X158882250Y-158634419D01*
X158902462Y-158641651D01*
X158921868Y-158650830D01*
X158940281Y-158661866D01*
X158957524Y-158674654D01*
X158973430Y-158689070D01*
X158987846Y-158704976D01*
X159000634Y-158722219D01*
X159011670Y-158740632D01*
X159020849Y-158760038D01*
X159028081Y-158780250D01*
X159033297Y-158801074D01*
X159036447Y-158822309D01*
X159037500Y-158843750D01*
X159037500Y-159356250D01*
X159036447Y-159377691D01*
X159033297Y-159398926D01*
X159028081Y-159419750D01*
X159020849Y-159439962D01*
X159011670Y-159459368D01*
X159000634Y-159477781D01*
X158987846Y-159495024D01*
X158973430Y-159510930D01*
X158957524Y-159525346D01*
X158940281Y-159538134D01*
X158921868Y-159549170D01*
X158902462Y-159558349D01*
X158882250Y-159565581D01*
X158861426Y-159570797D01*
X158840191Y-159573947D01*
X158818750Y-159575000D01*
X158381250Y-159575000D01*
X158359809Y-159573947D01*
X158338574Y-159570797D01*
X158317750Y-159565581D01*
X158297538Y-159558349D01*
X158278132Y-159549170D01*
X158259719Y-159538134D01*
X158242476Y-159525346D01*
X158226570Y-159510930D01*
X158212154Y-159495024D01*
X158199366Y-159477781D01*
X158188330Y-159459368D01*
X158179151Y-159439962D01*
X158171919Y-159419750D01*
X158166703Y-159398926D01*
X158163553Y-159377691D01*
X158162500Y-159356250D01*
X158162500Y-158843750D01*
X158163553Y-158822309D01*
X158166703Y-158801074D01*
X158171919Y-158780250D01*
X158179151Y-158760038D01*
X158188330Y-158740632D01*
X158199366Y-158722219D01*
X158212154Y-158704976D01*
X158226570Y-158689070D01*
X158242476Y-158674654D01*
X158259719Y-158661866D01*
X158278132Y-158650830D01*
X158297538Y-158641651D01*
X158317750Y-158634419D01*
X158338574Y-158629203D01*
X158359809Y-158626053D01*
X158381250Y-158625000D01*
X158818750Y-158625000D01*
X158840191Y-158626053D01*
X158840191Y-158626053D01*
G37*
D17*
X158600000Y-159100000D03*
D16*
G36*
X160415191Y-158626053D02*
G01*
X160436426Y-158629203D01*
X160457250Y-158634419D01*
X160477462Y-158641651D01*
X160496868Y-158650830D01*
X160515281Y-158661866D01*
X160532524Y-158674654D01*
X160548430Y-158689070D01*
X160562846Y-158704976D01*
X160575634Y-158722219D01*
X160586670Y-158740632D01*
X160595849Y-158760038D01*
X160603081Y-158780250D01*
X160608297Y-158801074D01*
X160611447Y-158822309D01*
X160612500Y-158843750D01*
X160612500Y-159356250D01*
X160611447Y-159377691D01*
X160608297Y-159398926D01*
X160603081Y-159419750D01*
X160595849Y-159439962D01*
X160586670Y-159459368D01*
X160575634Y-159477781D01*
X160562846Y-159495024D01*
X160548430Y-159510930D01*
X160532524Y-159525346D01*
X160515281Y-159538134D01*
X160496868Y-159549170D01*
X160477462Y-159558349D01*
X160457250Y-159565581D01*
X160436426Y-159570797D01*
X160415191Y-159573947D01*
X160393750Y-159575000D01*
X159956250Y-159575000D01*
X159934809Y-159573947D01*
X159913574Y-159570797D01*
X159892750Y-159565581D01*
X159872538Y-159558349D01*
X159853132Y-159549170D01*
X159834719Y-159538134D01*
X159817476Y-159525346D01*
X159801570Y-159510930D01*
X159787154Y-159495024D01*
X159774366Y-159477781D01*
X159763330Y-159459368D01*
X159754151Y-159439962D01*
X159746919Y-159419750D01*
X159741703Y-159398926D01*
X159738553Y-159377691D01*
X159737500Y-159356250D01*
X159737500Y-158843750D01*
X159738553Y-158822309D01*
X159741703Y-158801074D01*
X159746919Y-158780250D01*
X159754151Y-158760038D01*
X159763330Y-158740632D01*
X159774366Y-158722219D01*
X159787154Y-158704976D01*
X159801570Y-158689070D01*
X159817476Y-158674654D01*
X159834719Y-158661866D01*
X159853132Y-158650830D01*
X159872538Y-158641651D01*
X159892750Y-158634419D01*
X159913574Y-158629203D01*
X159934809Y-158626053D01*
X159956250Y-158625000D01*
X160393750Y-158625000D01*
X160415191Y-158626053D01*
X160415191Y-158626053D01*
G37*
D17*
X160175000Y-159100000D03*
D16*
G36*
X116627691Y-158626053D02*
G01*
X116648926Y-158629203D01*
X116669750Y-158634419D01*
X116689962Y-158641651D01*
X116709368Y-158650830D01*
X116727781Y-158661866D01*
X116745024Y-158674654D01*
X116760930Y-158689070D01*
X116775346Y-158704976D01*
X116788134Y-158722219D01*
X116799170Y-158740632D01*
X116808349Y-158760038D01*
X116815581Y-158780250D01*
X116820797Y-158801074D01*
X116823947Y-158822309D01*
X116825000Y-158843750D01*
X116825000Y-159356250D01*
X116823947Y-159377691D01*
X116820797Y-159398926D01*
X116815581Y-159419750D01*
X116808349Y-159439962D01*
X116799170Y-159459368D01*
X116788134Y-159477781D01*
X116775346Y-159495024D01*
X116760930Y-159510930D01*
X116745024Y-159525346D01*
X116727781Y-159538134D01*
X116709368Y-159549170D01*
X116689962Y-159558349D01*
X116669750Y-159565581D01*
X116648926Y-159570797D01*
X116627691Y-159573947D01*
X116606250Y-159575000D01*
X116168750Y-159575000D01*
X116147309Y-159573947D01*
X116126074Y-159570797D01*
X116105250Y-159565581D01*
X116085038Y-159558349D01*
X116065632Y-159549170D01*
X116047219Y-159538134D01*
X116029976Y-159525346D01*
X116014070Y-159510930D01*
X115999654Y-159495024D01*
X115986866Y-159477781D01*
X115975830Y-159459368D01*
X115966651Y-159439962D01*
X115959419Y-159419750D01*
X115954203Y-159398926D01*
X115951053Y-159377691D01*
X115950000Y-159356250D01*
X115950000Y-158843750D01*
X115951053Y-158822309D01*
X115954203Y-158801074D01*
X115959419Y-158780250D01*
X115966651Y-158760038D01*
X115975830Y-158740632D01*
X115986866Y-158722219D01*
X115999654Y-158704976D01*
X116014070Y-158689070D01*
X116029976Y-158674654D01*
X116047219Y-158661866D01*
X116065632Y-158650830D01*
X116085038Y-158641651D01*
X116105250Y-158634419D01*
X116126074Y-158629203D01*
X116147309Y-158626053D01*
X116168750Y-158625000D01*
X116606250Y-158625000D01*
X116627691Y-158626053D01*
X116627691Y-158626053D01*
G37*
D17*
X116387500Y-159100000D03*
D16*
G36*
X115052691Y-158626053D02*
G01*
X115073926Y-158629203D01*
X115094750Y-158634419D01*
X115114962Y-158641651D01*
X115134368Y-158650830D01*
X115152781Y-158661866D01*
X115170024Y-158674654D01*
X115185930Y-158689070D01*
X115200346Y-158704976D01*
X115213134Y-158722219D01*
X115224170Y-158740632D01*
X115233349Y-158760038D01*
X115240581Y-158780250D01*
X115245797Y-158801074D01*
X115248947Y-158822309D01*
X115250000Y-158843750D01*
X115250000Y-159356250D01*
X115248947Y-159377691D01*
X115245797Y-159398926D01*
X115240581Y-159419750D01*
X115233349Y-159439962D01*
X115224170Y-159459368D01*
X115213134Y-159477781D01*
X115200346Y-159495024D01*
X115185930Y-159510930D01*
X115170024Y-159525346D01*
X115152781Y-159538134D01*
X115134368Y-159549170D01*
X115114962Y-159558349D01*
X115094750Y-159565581D01*
X115073926Y-159570797D01*
X115052691Y-159573947D01*
X115031250Y-159575000D01*
X114593750Y-159575000D01*
X114572309Y-159573947D01*
X114551074Y-159570797D01*
X114530250Y-159565581D01*
X114510038Y-159558349D01*
X114490632Y-159549170D01*
X114472219Y-159538134D01*
X114454976Y-159525346D01*
X114439070Y-159510930D01*
X114424654Y-159495024D01*
X114411866Y-159477781D01*
X114400830Y-159459368D01*
X114391651Y-159439962D01*
X114384419Y-159419750D01*
X114379203Y-159398926D01*
X114376053Y-159377691D01*
X114375000Y-159356250D01*
X114375000Y-158843750D01*
X114376053Y-158822309D01*
X114379203Y-158801074D01*
X114384419Y-158780250D01*
X114391651Y-158760038D01*
X114400830Y-158740632D01*
X114411866Y-158722219D01*
X114424654Y-158704976D01*
X114439070Y-158689070D01*
X114454976Y-158674654D01*
X114472219Y-158661866D01*
X114490632Y-158650830D01*
X114510038Y-158641651D01*
X114530250Y-158634419D01*
X114551074Y-158629203D01*
X114572309Y-158626053D01*
X114593750Y-158625000D01*
X115031250Y-158625000D01*
X115052691Y-158626053D01*
X115052691Y-158626053D01*
G37*
D17*
X114812500Y-159100000D03*
D23*
X157600000Y-149325000D03*
X157600000Y-149975000D03*
X157600000Y-150625000D03*
X157600000Y-151275000D03*
X162000000Y-151275000D03*
X162000000Y-150625000D03*
X162000000Y-149975000D03*
X162000000Y-149325000D03*
D24*
X129150000Y-148100000D03*
X129150000Y-150400000D03*
X129150000Y-152700000D03*
D25*
X135450000Y-150400000D03*
X148200000Y-150300000D03*
D24*
X141900000Y-152600000D03*
X141900000Y-150300000D03*
X141900000Y-148000000D03*
D16*
G36*
X145065191Y-156426053D02*
G01*
X145086426Y-156429203D01*
X145107250Y-156434419D01*
X145127462Y-156441651D01*
X145146868Y-156450830D01*
X145165281Y-156461866D01*
X145182524Y-156474654D01*
X145198430Y-156489070D01*
X145212846Y-156504976D01*
X145225634Y-156522219D01*
X145236670Y-156540632D01*
X145245849Y-156560038D01*
X145253081Y-156580250D01*
X145258297Y-156601074D01*
X145261447Y-156622309D01*
X145262500Y-156643750D01*
X145262500Y-157156250D01*
X145261447Y-157177691D01*
X145258297Y-157198926D01*
X145253081Y-157219750D01*
X145245849Y-157239962D01*
X145236670Y-157259368D01*
X145225634Y-157277781D01*
X145212846Y-157295024D01*
X145198430Y-157310930D01*
X145182524Y-157325346D01*
X145165281Y-157338134D01*
X145146868Y-157349170D01*
X145127462Y-157358349D01*
X145107250Y-157365581D01*
X145086426Y-157370797D01*
X145065191Y-157373947D01*
X145043750Y-157375000D01*
X144606250Y-157375000D01*
X144584809Y-157373947D01*
X144563574Y-157370797D01*
X144542750Y-157365581D01*
X144522538Y-157358349D01*
X144503132Y-157349170D01*
X144484719Y-157338134D01*
X144467476Y-157325346D01*
X144451570Y-157310930D01*
X144437154Y-157295024D01*
X144424366Y-157277781D01*
X144413330Y-157259368D01*
X144404151Y-157239962D01*
X144396919Y-157219750D01*
X144391703Y-157198926D01*
X144388553Y-157177691D01*
X144387500Y-157156250D01*
X144387500Y-156643750D01*
X144388553Y-156622309D01*
X144391703Y-156601074D01*
X144396919Y-156580250D01*
X144404151Y-156560038D01*
X144413330Y-156540632D01*
X144424366Y-156522219D01*
X144437154Y-156504976D01*
X144451570Y-156489070D01*
X144467476Y-156474654D01*
X144484719Y-156461866D01*
X144503132Y-156450830D01*
X144522538Y-156441651D01*
X144542750Y-156434419D01*
X144563574Y-156429203D01*
X144584809Y-156426053D01*
X144606250Y-156425000D01*
X145043750Y-156425000D01*
X145065191Y-156426053D01*
X145065191Y-156426053D01*
G37*
D17*
X144825000Y-156900000D03*
D16*
G36*
X146640191Y-156426053D02*
G01*
X146661426Y-156429203D01*
X146682250Y-156434419D01*
X146702462Y-156441651D01*
X146721868Y-156450830D01*
X146740281Y-156461866D01*
X146757524Y-156474654D01*
X146773430Y-156489070D01*
X146787846Y-156504976D01*
X146800634Y-156522219D01*
X146811670Y-156540632D01*
X146820849Y-156560038D01*
X146828081Y-156580250D01*
X146833297Y-156601074D01*
X146836447Y-156622309D01*
X146837500Y-156643750D01*
X146837500Y-157156250D01*
X146836447Y-157177691D01*
X146833297Y-157198926D01*
X146828081Y-157219750D01*
X146820849Y-157239962D01*
X146811670Y-157259368D01*
X146800634Y-157277781D01*
X146787846Y-157295024D01*
X146773430Y-157310930D01*
X146757524Y-157325346D01*
X146740281Y-157338134D01*
X146721868Y-157349170D01*
X146702462Y-157358349D01*
X146682250Y-157365581D01*
X146661426Y-157370797D01*
X146640191Y-157373947D01*
X146618750Y-157375000D01*
X146181250Y-157375000D01*
X146159809Y-157373947D01*
X146138574Y-157370797D01*
X146117750Y-157365581D01*
X146097538Y-157358349D01*
X146078132Y-157349170D01*
X146059719Y-157338134D01*
X146042476Y-157325346D01*
X146026570Y-157310930D01*
X146012154Y-157295024D01*
X145999366Y-157277781D01*
X145988330Y-157259368D01*
X145979151Y-157239962D01*
X145971919Y-157219750D01*
X145966703Y-157198926D01*
X145963553Y-157177691D01*
X145962500Y-157156250D01*
X145962500Y-156643750D01*
X145963553Y-156622309D01*
X145966703Y-156601074D01*
X145971919Y-156580250D01*
X145979151Y-156560038D01*
X145988330Y-156540632D01*
X145999366Y-156522219D01*
X146012154Y-156504976D01*
X146026570Y-156489070D01*
X146042476Y-156474654D01*
X146059719Y-156461866D01*
X146078132Y-156450830D01*
X146097538Y-156441651D01*
X146117750Y-156434419D01*
X146138574Y-156429203D01*
X146159809Y-156426053D01*
X146181250Y-156425000D01*
X146618750Y-156425000D01*
X146640191Y-156426053D01*
X146640191Y-156426053D01*
G37*
D17*
X146400000Y-156900000D03*
D16*
G36*
X133427691Y-156426053D02*
G01*
X133448926Y-156429203D01*
X133469750Y-156434419D01*
X133489962Y-156441651D01*
X133509368Y-156450830D01*
X133527781Y-156461866D01*
X133545024Y-156474654D01*
X133560930Y-156489070D01*
X133575346Y-156504976D01*
X133588134Y-156522219D01*
X133599170Y-156540632D01*
X133608349Y-156560038D01*
X133615581Y-156580250D01*
X133620797Y-156601074D01*
X133623947Y-156622309D01*
X133625000Y-156643750D01*
X133625000Y-157156250D01*
X133623947Y-157177691D01*
X133620797Y-157198926D01*
X133615581Y-157219750D01*
X133608349Y-157239962D01*
X133599170Y-157259368D01*
X133588134Y-157277781D01*
X133575346Y-157295024D01*
X133560930Y-157310930D01*
X133545024Y-157325346D01*
X133527781Y-157338134D01*
X133509368Y-157349170D01*
X133489962Y-157358349D01*
X133469750Y-157365581D01*
X133448926Y-157370797D01*
X133427691Y-157373947D01*
X133406250Y-157375000D01*
X132968750Y-157375000D01*
X132947309Y-157373947D01*
X132926074Y-157370797D01*
X132905250Y-157365581D01*
X132885038Y-157358349D01*
X132865632Y-157349170D01*
X132847219Y-157338134D01*
X132829976Y-157325346D01*
X132814070Y-157310930D01*
X132799654Y-157295024D01*
X132786866Y-157277781D01*
X132775830Y-157259368D01*
X132766651Y-157239962D01*
X132759419Y-157219750D01*
X132754203Y-157198926D01*
X132751053Y-157177691D01*
X132750000Y-157156250D01*
X132750000Y-156643750D01*
X132751053Y-156622309D01*
X132754203Y-156601074D01*
X132759419Y-156580250D01*
X132766651Y-156560038D01*
X132775830Y-156540632D01*
X132786866Y-156522219D01*
X132799654Y-156504976D01*
X132814070Y-156489070D01*
X132829976Y-156474654D01*
X132847219Y-156461866D01*
X132865632Y-156450830D01*
X132885038Y-156441651D01*
X132905250Y-156434419D01*
X132926074Y-156429203D01*
X132947309Y-156426053D01*
X132968750Y-156425000D01*
X133406250Y-156425000D01*
X133427691Y-156426053D01*
X133427691Y-156426053D01*
G37*
D17*
X133187500Y-156900000D03*
D16*
G36*
X131852691Y-156426053D02*
G01*
X131873926Y-156429203D01*
X131894750Y-156434419D01*
X131914962Y-156441651D01*
X131934368Y-156450830D01*
X131952781Y-156461866D01*
X131970024Y-156474654D01*
X131985930Y-156489070D01*
X132000346Y-156504976D01*
X132013134Y-156522219D01*
X132024170Y-156540632D01*
X132033349Y-156560038D01*
X132040581Y-156580250D01*
X132045797Y-156601074D01*
X132048947Y-156622309D01*
X132050000Y-156643750D01*
X132050000Y-157156250D01*
X132048947Y-157177691D01*
X132045797Y-157198926D01*
X132040581Y-157219750D01*
X132033349Y-157239962D01*
X132024170Y-157259368D01*
X132013134Y-157277781D01*
X132000346Y-157295024D01*
X131985930Y-157310930D01*
X131970024Y-157325346D01*
X131952781Y-157338134D01*
X131934368Y-157349170D01*
X131914962Y-157358349D01*
X131894750Y-157365581D01*
X131873926Y-157370797D01*
X131852691Y-157373947D01*
X131831250Y-157375000D01*
X131393750Y-157375000D01*
X131372309Y-157373947D01*
X131351074Y-157370797D01*
X131330250Y-157365581D01*
X131310038Y-157358349D01*
X131290632Y-157349170D01*
X131272219Y-157338134D01*
X131254976Y-157325346D01*
X131239070Y-157310930D01*
X131224654Y-157295024D01*
X131211866Y-157277781D01*
X131200830Y-157259368D01*
X131191651Y-157239962D01*
X131184419Y-157219750D01*
X131179203Y-157198926D01*
X131176053Y-157177691D01*
X131175000Y-157156250D01*
X131175000Y-156643750D01*
X131176053Y-156622309D01*
X131179203Y-156601074D01*
X131184419Y-156580250D01*
X131191651Y-156560038D01*
X131200830Y-156540632D01*
X131211866Y-156522219D01*
X131224654Y-156504976D01*
X131239070Y-156489070D01*
X131254976Y-156474654D01*
X131272219Y-156461866D01*
X131290632Y-156450830D01*
X131310038Y-156441651D01*
X131330250Y-156434419D01*
X131351074Y-156429203D01*
X131372309Y-156426053D01*
X131393750Y-156425000D01*
X131831250Y-156425000D01*
X131852691Y-156426053D01*
X131852691Y-156426053D01*
G37*
D17*
X131612500Y-156900000D03*
D16*
G36*
X158865191Y-156526053D02*
G01*
X158886426Y-156529203D01*
X158907250Y-156534419D01*
X158927462Y-156541651D01*
X158946868Y-156550830D01*
X158965281Y-156561866D01*
X158982524Y-156574654D01*
X158998430Y-156589070D01*
X159012846Y-156604976D01*
X159025634Y-156622219D01*
X159036670Y-156640632D01*
X159045849Y-156660038D01*
X159053081Y-156680250D01*
X159058297Y-156701074D01*
X159061447Y-156722309D01*
X159062500Y-156743750D01*
X159062500Y-157256250D01*
X159061447Y-157277691D01*
X159058297Y-157298926D01*
X159053081Y-157319750D01*
X159045849Y-157339962D01*
X159036670Y-157359368D01*
X159025634Y-157377781D01*
X159012846Y-157395024D01*
X158998430Y-157410930D01*
X158982524Y-157425346D01*
X158965281Y-157438134D01*
X158946868Y-157449170D01*
X158927462Y-157458349D01*
X158907250Y-157465581D01*
X158886426Y-157470797D01*
X158865191Y-157473947D01*
X158843750Y-157475000D01*
X158406250Y-157475000D01*
X158384809Y-157473947D01*
X158363574Y-157470797D01*
X158342750Y-157465581D01*
X158322538Y-157458349D01*
X158303132Y-157449170D01*
X158284719Y-157438134D01*
X158267476Y-157425346D01*
X158251570Y-157410930D01*
X158237154Y-157395024D01*
X158224366Y-157377781D01*
X158213330Y-157359368D01*
X158204151Y-157339962D01*
X158196919Y-157319750D01*
X158191703Y-157298926D01*
X158188553Y-157277691D01*
X158187500Y-157256250D01*
X158187500Y-156743750D01*
X158188553Y-156722309D01*
X158191703Y-156701074D01*
X158196919Y-156680250D01*
X158204151Y-156660038D01*
X158213330Y-156640632D01*
X158224366Y-156622219D01*
X158237154Y-156604976D01*
X158251570Y-156589070D01*
X158267476Y-156574654D01*
X158284719Y-156561866D01*
X158303132Y-156550830D01*
X158322538Y-156541651D01*
X158342750Y-156534419D01*
X158363574Y-156529203D01*
X158384809Y-156526053D01*
X158406250Y-156525000D01*
X158843750Y-156525000D01*
X158865191Y-156526053D01*
X158865191Y-156526053D01*
G37*
D17*
X158625000Y-157000000D03*
D16*
G36*
X160440191Y-156526053D02*
G01*
X160461426Y-156529203D01*
X160482250Y-156534419D01*
X160502462Y-156541651D01*
X160521868Y-156550830D01*
X160540281Y-156561866D01*
X160557524Y-156574654D01*
X160573430Y-156589070D01*
X160587846Y-156604976D01*
X160600634Y-156622219D01*
X160611670Y-156640632D01*
X160620849Y-156660038D01*
X160628081Y-156680250D01*
X160633297Y-156701074D01*
X160636447Y-156722309D01*
X160637500Y-156743750D01*
X160637500Y-157256250D01*
X160636447Y-157277691D01*
X160633297Y-157298926D01*
X160628081Y-157319750D01*
X160620849Y-157339962D01*
X160611670Y-157359368D01*
X160600634Y-157377781D01*
X160587846Y-157395024D01*
X160573430Y-157410930D01*
X160557524Y-157425346D01*
X160540281Y-157438134D01*
X160521868Y-157449170D01*
X160502462Y-157458349D01*
X160482250Y-157465581D01*
X160461426Y-157470797D01*
X160440191Y-157473947D01*
X160418750Y-157475000D01*
X159981250Y-157475000D01*
X159959809Y-157473947D01*
X159938574Y-157470797D01*
X159917750Y-157465581D01*
X159897538Y-157458349D01*
X159878132Y-157449170D01*
X159859719Y-157438134D01*
X159842476Y-157425346D01*
X159826570Y-157410930D01*
X159812154Y-157395024D01*
X159799366Y-157377781D01*
X159788330Y-157359368D01*
X159779151Y-157339962D01*
X159771919Y-157319750D01*
X159766703Y-157298926D01*
X159763553Y-157277691D01*
X159762500Y-157256250D01*
X159762500Y-156743750D01*
X159763553Y-156722309D01*
X159766703Y-156701074D01*
X159771919Y-156680250D01*
X159779151Y-156660038D01*
X159788330Y-156640632D01*
X159799366Y-156622219D01*
X159812154Y-156604976D01*
X159826570Y-156589070D01*
X159842476Y-156574654D01*
X159859719Y-156561866D01*
X159878132Y-156550830D01*
X159897538Y-156541651D01*
X159917750Y-156534419D01*
X159938574Y-156529203D01*
X159959809Y-156526053D01*
X159981250Y-156525000D01*
X160418750Y-156525000D01*
X160440191Y-156526053D01*
X160440191Y-156526053D01*
G37*
D17*
X160200000Y-157000000D03*
D16*
G36*
X116640191Y-156426053D02*
G01*
X116661426Y-156429203D01*
X116682250Y-156434419D01*
X116702462Y-156441651D01*
X116721868Y-156450830D01*
X116740281Y-156461866D01*
X116757524Y-156474654D01*
X116773430Y-156489070D01*
X116787846Y-156504976D01*
X116800634Y-156522219D01*
X116811670Y-156540632D01*
X116820849Y-156560038D01*
X116828081Y-156580250D01*
X116833297Y-156601074D01*
X116836447Y-156622309D01*
X116837500Y-156643750D01*
X116837500Y-157156250D01*
X116836447Y-157177691D01*
X116833297Y-157198926D01*
X116828081Y-157219750D01*
X116820849Y-157239962D01*
X116811670Y-157259368D01*
X116800634Y-157277781D01*
X116787846Y-157295024D01*
X116773430Y-157310930D01*
X116757524Y-157325346D01*
X116740281Y-157338134D01*
X116721868Y-157349170D01*
X116702462Y-157358349D01*
X116682250Y-157365581D01*
X116661426Y-157370797D01*
X116640191Y-157373947D01*
X116618750Y-157375000D01*
X116181250Y-157375000D01*
X116159809Y-157373947D01*
X116138574Y-157370797D01*
X116117750Y-157365581D01*
X116097538Y-157358349D01*
X116078132Y-157349170D01*
X116059719Y-157338134D01*
X116042476Y-157325346D01*
X116026570Y-157310930D01*
X116012154Y-157295024D01*
X115999366Y-157277781D01*
X115988330Y-157259368D01*
X115979151Y-157239962D01*
X115971919Y-157219750D01*
X115966703Y-157198926D01*
X115963553Y-157177691D01*
X115962500Y-157156250D01*
X115962500Y-156643750D01*
X115963553Y-156622309D01*
X115966703Y-156601074D01*
X115971919Y-156580250D01*
X115979151Y-156560038D01*
X115988330Y-156540632D01*
X115999366Y-156522219D01*
X116012154Y-156504976D01*
X116026570Y-156489070D01*
X116042476Y-156474654D01*
X116059719Y-156461866D01*
X116078132Y-156450830D01*
X116097538Y-156441651D01*
X116117750Y-156434419D01*
X116138574Y-156429203D01*
X116159809Y-156426053D01*
X116181250Y-156425000D01*
X116618750Y-156425000D01*
X116640191Y-156426053D01*
X116640191Y-156426053D01*
G37*
D17*
X116400000Y-156900000D03*
D16*
G36*
X115065191Y-156426053D02*
G01*
X115086426Y-156429203D01*
X115107250Y-156434419D01*
X115127462Y-156441651D01*
X115146868Y-156450830D01*
X115165281Y-156461866D01*
X115182524Y-156474654D01*
X115198430Y-156489070D01*
X115212846Y-156504976D01*
X115225634Y-156522219D01*
X115236670Y-156540632D01*
X115245849Y-156560038D01*
X115253081Y-156580250D01*
X115258297Y-156601074D01*
X115261447Y-156622309D01*
X115262500Y-156643750D01*
X115262500Y-157156250D01*
X115261447Y-157177691D01*
X115258297Y-157198926D01*
X115253081Y-157219750D01*
X115245849Y-157239962D01*
X115236670Y-157259368D01*
X115225634Y-157277781D01*
X115212846Y-157295024D01*
X115198430Y-157310930D01*
X115182524Y-157325346D01*
X115165281Y-157338134D01*
X115146868Y-157349170D01*
X115127462Y-157358349D01*
X115107250Y-157365581D01*
X115086426Y-157370797D01*
X115065191Y-157373947D01*
X115043750Y-157375000D01*
X114606250Y-157375000D01*
X114584809Y-157373947D01*
X114563574Y-157370797D01*
X114542750Y-157365581D01*
X114522538Y-157358349D01*
X114503132Y-157349170D01*
X114484719Y-157338134D01*
X114467476Y-157325346D01*
X114451570Y-157310930D01*
X114437154Y-157295024D01*
X114424366Y-157277781D01*
X114413330Y-157259368D01*
X114404151Y-157239962D01*
X114396919Y-157219750D01*
X114391703Y-157198926D01*
X114388553Y-157177691D01*
X114387500Y-157156250D01*
X114387500Y-156643750D01*
X114388553Y-156622309D01*
X114391703Y-156601074D01*
X114396919Y-156580250D01*
X114404151Y-156560038D01*
X114413330Y-156540632D01*
X114424366Y-156522219D01*
X114437154Y-156504976D01*
X114451570Y-156489070D01*
X114467476Y-156474654D01*
X114484719Y-156461866D01*
X114503132Y-156450830D01*
X114522538Y-156441651D01*
X114542750Y-156434419D01*
X114563574Y-156429203D01*
X114584809Y-156426053D01*
X114606250Y-156425000D01*
X115043750Y-156425000D01*
X115065191Y-156426053D01*
X115065191Y-156426053D01*
G37*
D17*
X114825000Y-156900000D03*
D16*
G36*
X164165191Y-163026053D02*
G01*
X164186426Y-163029203D01*
X164207250Y-163034419D01*
X164227462Y-163041651D01*
X164246868Y-163050830D01*
X164265281Y-163061866D01*
X164282524Y-163074654D01*
X164298430Y-163089070D01*
X164312846Y-163104976D01*
X164325634Y-163122219D01*
X164336670Y-163140632D01*
X164345849Y-163160038D01*
X164353081Y-163180250D01*
X164358297Y-163201074D01*
X164361447Y-163222309D01*
X164362500Y-163243750D01*
X164362500Y-163756250D01*
X164361447Y-163777691D01*
X164358297Y-163798926D01*
X164353081Y-163819750D01*
X164345849Y-163839962D01*
X164336670Y-163859368D01*
X164325634Y-163877781D01*
X164312846Y-163895024D01*
X164298430Y-163910930D01*
X164282524Y-163925346D01*
X164265281Y-163938134D01*
X164246868Y-163949170D01*
X164227462Y-163958349D01*
X164207250Y-163965581D01*
X164186426Y-163970797D01*
X164165191Y-163973947D01*
X164143750Y-163975000D01*
X163706250Y-163975000D01*
X163684809Y-163973947D01*
X163663574Y-163970797D01*
X163642750Y-163965581D01*
X163622538Y-163958349D01*
X163603132Y-163949170D01*
X163584719Y-163938134D01*
X163567476Y-163925346D01*
X163551570Y-163910930D01*
X163537154Y-163895024D01*
X163524366Y-163877781D01*
X163513330Y-163859368D01*
X163504151Y-163839962D01*
X163496919Y-163819750D01*
X163491703Y-163798926D01*
X163488553Y-163777691D01*
X163487500Y-163756250D01*
X163487500Y-163243750D01*
X163488553Y-163222309D01*
X163491703Y-163201074D01*
X163496919Y-163180250D01*
X163504151Y-163160038D01*
X163513330Y-163140632D01*
X163524366Y-163122219D01*
X163537154Y-163104976D01*
X163551570Y-163089070D01*
X163567476Y-163074654D01*
X163584719Y-163061866D01*
X163603132Y-163050830D01*
X163622538Y-163041651D01*
X163642750Y-163034419D01*
X163663574Y-163029203D01*
X163684809Y-163026053D01*
X163706250Y-163025000D01*
X164143750Y-163025000D01*
X164165191Y-163026053D01*
X164165191Y-163026053D01*
G37*
D17*
X163925000Y-163500000D03*
D16*
G36*
X165740191Y-163026053D02*
G01*
X165761426Y-163029203D01*
X165782250Y-163034419D01*
X165802462Y-163041651D01*
X165821868Y-163050830D01*
X165840281Y-163061866D01*
X165857524Y-163074654D01*
X165873430Y-163089070D01*
X165887846Y-163104976D01*
X165900634Y-163122219D01*
X165911670Y-163140632D01*
X165920849Y-163160038D01*
X165928081Y-163180250D01*
X165933297Y-163201074D01*
X165936447Y-163222309D01*
X165937500Y-163243750D01*
X165937500Y-163756250D01*
X165936447Y-163777691D01*
X165933297Y-163798926D01*
X165928081Y-163819750D01*
X165920849Y-163839962D01*
X165911670Y-163859368D01*
X165900634Y-163877781D01*
X165887846Y-163895024D01*
X165873430Y-163910930D01*
X165857524Y-163925346D01*
X165840281Y-163938134D01*
X165821868Y-163949170D01*
X165802462Y-163958349D01*
X165782250Y-163965581D01*
X165761426Y-163970797D01*
X165740191Y-163973947D01*
X165718750Y-163975000D01*
X165281250Y-163975000D01*
X165259809Y-163973947D01*
X165238574Y-163970797D01*
X165217750Y-163965581D01*
X165197538Y-163958349D01*
X165178132Y-163949170D01*
X165159719Y-163938134D01*
X165142476Y-163925346D01*
X165126570Y-163910930D01*
X165112154Y-163895024D01*
X165099366Y-163877781D01*
X165088330Y-163859368D01*
X165079151Y-163839962D01*
X165071919Y-163819750D01*
X165066703Y-163798926D01*
X165063553Y-163777691D01*
X165062500Y-163756250D01*
X165062500Y-163243750D01*
X165063553Y-163222309D01*
X165066703Y-163201074D01*
X165071919Y-163180250D01*
X165079151Y-163160038D01*
X165088330Y-163140632D01*
X165099366Y-163122219D01*
X165112154Y-163104976D01*
X165126570Y-163089070D01*
X165142476Y-163074654D01*
X165159719Y-163061866D01*
X165178132Y-163050830D01*
X165197538Y-163041651D01*
X165217750Y-163034419D01*
X165238574Y-163029203D01*
X165259809Y-163026053D01*
X165281250Y-163025000D01*
X165718750Y-163025000D01*
X165740191Y-163026053D01*
X165740191Y-163026053D01*
G37*
D17*
X165500000Y-163500000D03*
D16*
G36*
X137577691Y-114451053D02*
G01*
X137598926Y-114454203D01*
X137619750Y-114459419D01*
X137639962Y-114466651D01*
X137659368Y-114475830D01*
X137677781Y-114486866D01*
X137695024Y-114499654D01*
X137710930Y-114514070D01*
X137725346Y-114529976D01*
X137738134Y-114547219D01*
X137749170Y-114565632D01*
X137758349Y-114585038D01*
X137765581Y-114605250D01*
X137770797Y-114626074D01*
X137773947Y-114647309D01*
X137775000Y-114668750D01*
X137775000Y-115106250D01*
X137773947Y-115127691D01*
X137770797Y-115148926D01*
X137765581Y-115169750D01*
X137758349Y-115189962D01*
X137749170Y-115209368D01*
X137738134Y-115227781D01*
X137725346Y-115245024D01*
X137710930Y-115260930D01*
X137695024Y-115275346D01*
X137677781Y-115288134D01*
X137659368Y-115299170D01*
X137639962Y-115308349D01*
X137619750Y-115315581D01*
X137598926Y-115320797D01*
X137577691Y-115323947D01*
X137556250Y-115325000D01*
X137043750Y-115325000D01*
X137022309Y-115323947D01*
X137001074Y-115320797D01*
X136980250Y-115315581D01*
X136960038Y-115308349D01*
X136940632Y-115299170D01*
X136922219Y-115288134D01*
X136904976Y-115275346D01*
X136889070Y-115260930D01*
X136874654Y-115245024D01*
X136861866Y-115227781D01*
X136850830Y-115209368D01*
X136841651Y-115189962D01*
X136834419Y-115169750D01*
X136829203Y-115148926D01*
X136826053Y-115127691D01*
X136825000Y-115106250D01*
X136825000Y-114668750D01*
X136826053Y-114647309D01*
X136829203Y-114626074D01*
X136834419Y-114605250D01*
X136841651Y-114585038D01*
X136850830Y-114565632D01*
X136861866Y-114547219D01*
X136874654Y-114529976D01*
X136889070Y-114514070D01*
X136904976Y-114499654D01*
X136922219Y-114486866D01*
X136940632Y-114475830D01*
X136960038Y-114466651D01*
X136980250Y-114459419D01*
X137001074Y-114454203D01*
X137022309Y-114451053D01*
X137043750Y-114450000D01*
X137556250Y-114450000D01*
X137577691Y-114451053D01*
X137577691Y-114451053D01*
G37*
D17*
X137300000Y-114887500D03*
D16*
G36*
X137577691Y-112876053D02*
G01*
X137598926Y-112879203D01*
X137619750Y-112884419D01*
X137639962Y-112891651D01*
X137659368Y-112900830D01*
X137677781Y-112911866D01*
X137695024Y-112924654D01*
X137710930Y-112939070D01*
X137725346Y-112954976D01*
X137738134Y-112972219D01*
X137749170Y-112990632D01*
X137758349Y-113010038D01*
X137765581Y-113030250D01*
X137770797Y-113051074D01*
X137773947Y-113072309D01*
X137775000Y-113093750D01*
X137775000Y-113531250D01*
X137773947Y-113552691D01*
X137770797Y-113573926D01*
X137765581Y-113594750D01*
X137758349Y-113614962D01*
X137749170Y-113634368D01*
X137738134Y-113652781D01*
X137725346Y-113670024D01*
X137710930Y-113685930D01*
X137695024Y-113700346D01*
X137677781Y-113713134D01*
X137659368Y-113724170D01*
X137639962Y-113733349D01*
X137619750Y-113740581D01*
X137598926Y-113745797D01*
X137577691Y-113748947D01*
X137556250Y-113750000D01*
X137043750Y-113750000D01*
X137022309Y-113748947D01*
X137001074Y-113745797D01*
X136980250Y-113740581D01*
X136960038Y-113733349D01*
X136940632Y-113724170D01*
X136922219Y-113713134D01*
X136904976Y-113700346D01*
X136889070Y-113685930D01*
X136874654Y-113670024D01*
X136861866Y-113652781D01*
X136850830Y-113634368D01*
X136841651Y-113614962D01*
X136834419Y-113594750D01*
X136829203Y-113573926D01*
X136826053Y-113552691D01*
X136825000Y-113531250D01*
X136825000Y-113093750D01*
X136826053Y-113072309D01*
X136829203Y-113051074D01*
X136834419Y-113030250D01*
X136841651Y-113010038D01*
X136850830Y-112990632D01*
X136861866Y-112972219D01*
X136874654Y-112954976D01*
X136889070Y-112939070D01*
X136904976Y-112924654D01*
X136922219Y-112911866D01*
X136940632Y-112900830D01*
X136960038Y-112891651D01*
X136980250Y-112884419D01*
X137001074Y-112879203D01*
X137022309Y-112876053D01*
X137043750Y-112875000D01*
X137556250Y-112875000D01*
X137577691Y-112876053D01*
X137577691Y-112876053D01*
G37*
D17*
X137300000Y-113312500D03*
D16*
G36*
X144977691Y-111288553D02*
G01*
X144998926Y-111291703D01*
X145019750Y-111296919D01*
X145039962Y-111304151D01*
X145059368Y-111313330D01*
X145077781Y-111324366D01*
X145095024Y-111337154D01*
X145110930Y-111351570D01*
X145125346Y-111367476D01*
X145138134Y-111384719D01*
X145149170Y-111403132D01*
X145158349Y-111422538D01*
X145165581Y-111442750D01*
X145170797Y-111463574D01*
X145173947Y-111484809D01*
X145175000Y-111506250D01*
X145175000Y-111943750D01*
X145173947Y-111965191D01*
X145170797Y-111986426D01*
X145165581Y-112007250D01*
X145158349Y-112027462D01*
X145149170Y-112046868D01*
X145138134Y-112065281D01*
X145125346Y-112082524D01*
X145110930Y-112098430D01*
X145095024Y-112112846D01*
X145077781Y-112125634D01*
X145059368Y-112136670D01*
X145039962Y-112145849D01*
X145019750Y-112153081D01*
X144998926Y-112158297D01*
X144977691Y-112161447D01*
X144956250Y-112162500D01*
X144443750Y-112162500D01*
X144422309Y-112161447D01*
X144401074Y-112158297D01*
X144380250Y-112153081D01*
X144360038Y-112145849D01*
X144340632Y-112136670D01*
X144322219Y-112125634D01*
X144304976Y-112112846D01*
X144289070Y-112098430D01*
X144274654Y-112082524D01*
X144261866Y-112065281D01*
X144250830Y-112046868D01*
X144241651Y-112027462D01*
X144234419Y-112007250D01*
X144229203Y-111986426D01*
X144226053Y-111965191D01*
X144225000Y-111943750D01*
X144225000Y-111506250D01*
X144226053Y-111484809D01*
X144229203Y-111463574D01*
X144234419Y-111442750D01*
X144241651Y-111422538D01*
X144250830Y-111403132D01*
X144261866Y-111384719D01*
X144274654Y-111367476D01*
X144289070Y-111351570D01*
X144304976Y-111337154D01*
X144322219Y-111324366D01*
X144340632Y-111313330D01*
X144360038Y-111304151D01*
X144380250Y-111296919D01*
X144401074Y-111291703D01*
X144422309Y-111288553D01*
X144443750Y-111287500D01*
X144956250Y-111287500D01*
X144977691Y-111288553D01*
X144977691Y-111288553D01*
G37*
D17*
X144700000Y-111725000D03*
D16*
G36*
X144977691Y-112863553D02*
G01*
X144998926Y-112866703D01*
X145019750Y-112871919D01*
X145039962Y-112879151D01*
X145059368Y-112888330D01*
X145077781Y-112899366D01*
X145095024Y-112912154D01*
X145110930Y-112926570D01*
X145125346Y-112942476D01*
X145138134Y-112959719D01*
X145149170Y-112978132D01*
X145158349Y-112997538D01*
X145165581Y-113017750D01*
X145170797Y-113038574D01*
X145173947Y-113059809D01*
X145175000Y-113081250D01*
X145175000Y-113518750D01*
X145173947Y-113540191D01*
X145170797Y-113561426D01*
X145165581Y-113582250D01*
X145158349Y-113602462D01*
X145149170Y-113621868D01*
X145138134Y-113640281D01*
X145125346Y-113657524D01*
X145110930Y-113673430D01*
X145095024Y-113687846D01*
X145077781Y-113700634D01*
X145059368Y-113711670D01*
X145039962Y-113720849D01*
X145019750Y-113728081D01*
X144998926Y-113733297D01*
X144977691Y-113736447D01*
X144956250Y-113737500D01*
X144443750Y-113737500D01*
X144422309Y-113736447D01*
X144401074Y-113733297D01*
X144380250Y-113728081D01*
X144360038Y-113720849D01*
X144340632Y-113711670D01*
X144322219Y-113700634D01*
X144304976Y-113687846D01*
X144289070Y-113673430D01*
X144274654Y-113657524D01*
X144261866Y-113640281D01*
X144250830Y-113621868D01*
X144241651Y-113602462D01*
X144234419Y-113582250D01*
X144229203Y-113561426D01*
X144226053Y-113540191D01*
X144225000Y-113518750D01*
X144225000Y-113081250D01*
X144226053Y-113059809D01*
X144229203Y-113038574D01*
X144234419Y-113017750D01*
X144241651Y-112997538D01*
X144250830Y-112978132D01*
X144261866Y-112959719D01*
X144274654Y-112942476D01*
X144289070Y-112926570D01*
X144304976Y-112912154D01*
X144322219Y-112899366D01*
X144340632Y-112888330D01*
X144360038Y-112879151D01*
X144380250Y-112871919D01*
X144401074Y-112866703D01*
X144422309Y-112863553D01*
X144443750Y-112862500D01*
X144956250Y-112862500D01*
X144977691Y-112863553D01*
X144977691Y-112863553D01*
G37*
D17*
X144700000Y-113300000D03*
D16*
G36*
X151277691Y-99976053D02*
G01*
X151298926Y-99979203D01*
X151319750Y-99984419D01*
X151339962Y-99991651D01*
X151359368Y-100000830D01*
X151377781Y-100011866D01*
X151395024Y-100024654D01*
X151410930Y-100039070D01*
X151425346Y-100054976D01*
X151438134Y-100072219D01*
X151449170Y-100090632D01*
X151458349Y-100110038D01*
X151465581Y-100130250D01*
X151470797Y-100151074D01*
X151473947Y-100172309D01*
X151475000Y-100193750D01*
X151475000Y-100631250D01*
X151473947Y-100652691D01*
X151470797Y-100673926D01*
X151465581Y-100694750D01*
X151458349Y-100714962D01*
X151449170Y-100734368D01*
X151438134Y-100752781D01*
X151425346Y-100770024D01*
X151410930Y-100785930D01*
X151395024Y-100800346D01*
X151377781Y-100813134D01*
X151359368Y-100824170D01*
X151339962Y-100833349D01*
X151319750Y-100840581D01*
X151298926Y-100845797D01*
X151277691Y-100848947D01*
X151256250Y-100850000D01*
X150743750Y-100850000D01*
X150722309Y-100848947D01*
X150701074Y-100845797D01*
X150680250Y-100840581D01*
X150660038Y-100833349D01*
X150640632Y-100824170D01*
X150622219Y-100813134D01*
X150604976Y-100800346D01*
X150589070Y-100785930D01*
X150574654Y-100770024D01*
X150561866Y-100752781D01*
X150550830Y-100734368D01*
X150541651Y-100714962D01*
X150534419Y-100694750D01*
X150529203Y-100673926D01*
X150526053Y-100652691D01*
X150525000Y-100631250D01*
X150525000Y-100193750D01*
X150526053Y-100172309D01*
X150529203Y-100151074D01*
X150534419Y-100130250D01*
X150541651Y-100110038D01*
X150550830Y-100090632D01*
X150561866Y-100072219D01*
X150574654Y-100054976D01*
X150589070Y-100039070D01*
X150604976Y-100024654D01*
X150622219Y-100011866D01*
X150640632Y-100000830D01*
X150660038Y-99991651D01*
X150680250Y-99984419D01*
X150701074Y-99979203D01*
X150722309Y-99976053D01*
X150743750Y-99975000D01*
X151256250Y-99975000D01*
X151277691Y-99976053D01*
X151277691Y-99976053D01*
G37*
D17*
X151000000Y-100412500D03*
D16*
G36*
X151277691Y-101551053D02*
G01*
X151298926Y-101554203D01*
X151319750Y-101559419D01*
X151339962Y-101566651D01*
X151359368Y-101575830D01*
X151377781Y-101586866D01*
X151395024Y-101599654D01*
X151410930Y-101614070D01*
X151425346Y-101629976D01*
X151438134Y-101647219D01*
X151449170Y-101665632D01*
X151458349Y-101685038D01*
X151465581Y-101705250D01*
X151470797Y-101726074D01*
X151473947Y-101747309D01*
X151475000Y-101768750D01*
X151475000Y-102206250D01*
X151473947Y-102227691D01*
X151470797Y-102248926D01*
X151465581Y-102269750D01*
X151458349Y-102289962D01*
X151449170Y-102309368D01*
X151438134Y-102327781D01*
X151425346Y-102345024D01*
X151410930Y-102360930D01*
X151395024Y-102375346D01*
X151377781Y-102388134D01*
X151359368Y-102399170D01*
X151339962Y-102408349D01*
X151319750Y-102415581D01*
X151298926Y-102420797D01*
X151277691Y-102423947D01*
X151256250Y-102425000D01*
X150743750Y-102425000D01*
X150722309Y-102423947D01*
X150701074Y-102420797D01*
X150680250Y-102415581D01*
X150660038Y-102408349D01*
X150640632Y-102399170D01*
X150622219Y-102388134D01*
X150604976Y-102375346D01*
X150589070Y-102360930D01*
X150574654Y-102345024D01*
X150561866Y-102327781D01*
X150550830Y-102309368D01*
X150541651Y-102289962D01*
X150534419Y-102269750D01*
X150529203Y-102248926D01*
X150526053Y-102227691D01*
X150525000Y-102206250D01*
X150525000Y-101768750D01*
X150526053Y-101747309D01*
X150529203Y-101726074D01*
X150534419Y-101705250D01*
X150541651Y-101685038D01*
X150550830Y-101665632D01*
X150561866Y-101647219D01*
X150574654Y-101629976D01*
X150589070Y-101614070D01*
X150604976Y-101599654D01*
X150622219Y-101586866D01*
X150640632Y-101575830D01*
X150660038Y-101566651D01*
X150680250Y-101559419D01*
X150701074Y-101554203D01*
X150722309Y-101551053D01*
X150743750Y-101550000D01*
X151256250Y-101550000D01*
X151277691Y-101551053D01*
X151277691Y-101551053D01*
G37*
D17*
X151000000Y-101987500D03*
D16*
G36*
X151277691Y-103176053D02*
G01*
X151298926Y-103179203D01*
X151319750Y-103184419D01*
X151339962Y-103191651D01*
X151359368Y-103200830D01*
X151377781Y-103211866D01*
X151395024Y-103224654D01*
X151410930Y-103239070D01*
X151425346Y-103254976D01*
X151438134Y-103272219D01*
X151449170Y-103290632D01*
X151458349Y-103310038D01*
X151465581Y-103330250D01*
X151470797Y-103351074D01*
X151473947Y-103372309D01*
X151475000Y-103393750D01*
X151475000Y-103831250D01*
X151473947Y-103852691D01*
X151470797Y-103873926D01*
X151465581Y-103894750D01*
X151458349Y-103914962D01*
X151449170Y-103934368D01*
X151438134Y-103952781D01*
X151425346Y-103970024D01*
X151410930Y-103985930D01*
X151395024Y-104000346D01*
X151377781Y-104013134D01*
X151359368Y-104024170D01*
X151339962Y-104033349D01*
X151319750Y-104040581D01*
X151298926Y-104045797D01*
X151277691Y-104048947D01*
X151256250Y-104050000D01*
X150743750Y-104050000D01*
X150722309Y-104048947D01*
X150701074Y-104045797D01*
X150680250Y-104040581D01*
X150660038Y-104033349D01*
X150640632Y-104024170D01*
X150622219Y-104013134D01*
X150604976Y-104000346D01*
X150589070Y-103985930D01*
X150574654Y-103970024D01*
X150561866Y-103952781D01*
X150550830Y-103934368D01*
X150541651Y-103914962D01*
X150534419Y-103894750D01*
X150529203Y-103873926D01*
X150526053Y-103852691D01*
X150525000Y-103831250D01*
X150525000Y-103393750D01*
X150526053Y-103372309D01*
X150529203Y-103351074D01*
X150534419Y-103330250D01*
X150541651Y-103310038D01*
X150550830Y-103290632D01*
X150561866Y-103272219D01*
X150574654Y-103254976D01*
X150589070Y-103239070D01*
X150604976Y-103224654D01*
X150622219Y-103211866D01*
X150640632Y-103200830D01*
X150660038Y-103191651D01*
X150680250Y-103184419D01*
X150701074Y-103179203D01*
X150722309Y-103176053D01*
X150743750Y-103175000D01*
X151256250Y-103175000D01*
X151277691Y-103176053D01*
X151277691Y-103176053D01*
G37*
D17*
X151000000Y-103612500D03*
D16*
G36*
X151277691Y-104751053D02*
G01*
X151298926Y-104754203D01*
X151319750Y-104759419D01*
X151339962Y-104766651D01*
X151359368Y-104775830D01*
X151377781Y-104786866D01*
X151395024Y-104799654D01*
X151410930Y-104814070D01*
X151425346Y-104829976D01*
X151438134Y-104847219D01*
X151449170Y-104865632D01*
X151458349Y-104885038D01*
X151465581Y-104905250D01*
X151470797Y-104926074D01*
X151473947Y-104947309D01*
X151475000Y-104968750D01*
X151475000Y-105406250D01*
X151473947Y-105427691D01*
X151470797Y-105448926D01*
X151465581Y-105469750D01*
X151458349Y-105489962D01*
X151449170Y-105509368D01*
X151438134Y-105527781D01*
X151425346Y-105545024D01*
X151410930Y-105560930D01*
X151395024Y-105575346D01*
X151377781Y-105588134D01*
X151359368Y-105599170D01*
X151339962Y-105608349D01*
X151319750Y-105615581D01*
X151298926Y-105620797D01*
X151277691Y-105623947D01*
X151256250Y-105625000D01*
X150743750Y-105625000D01*
X150722309Y-105623947D01*
X150701074Y-105620797D01*
X150680250Y-105615581D01*
X150660038Y-105608349D01*
X150640632Y-105599170D01*
X150622219Y-105588134D01*
X150604976Y-105575346D01*
X150589070Y-105560930D01*
X150574654Y-105545024D01*
X150561866Y-105527781D01*
X150550830Y-105509368D01*
X150541651Y-105489962D01*
X150534419Y-105469750D01*
X150529203Y-105448926D01*
X150526053Y-105427691D01*
X150525000Y-105406250D01*
X150525000Y-104968750D01*
X150526053Y-104947309D01*
X150529203Y-104926074D01*
X150534419Y-104905250D01*
X150541651Y-104885038D01*
X150550830Y-104865632D01*
X150561866Y-104847219D01*
X150574654Y-104829976D01*
X150589070Y-104814070D01*
X150604976Y-104799654D01*
X150622219Y-104786866D01*
X150640632Y-104775830D01*
X150660038Y-104766651D01*
X150680250Y-104759419D01*
X150701074Y-104754203D01*
X150722309Y-104751053D01*
X150743750Y-104750000D01*
X151256250Y-104750000D01*
X151277691Y-104751053D01*
X151277691Y-104751053D01*
G37*
D17*
X151000000Y-105187500D03*
D16*
G36*
X151277691Y-107938553D02*
G01*
X151298926Y-107941703D01*
X151319750Y-107946919D01*
X151339962Y-107954151D01*
X151359368Y-107963330D01*
X151377781Y-107974366D01*
X151395024Y-107987154D01*
X151410930Y-108001570D01*
X151425346Y-108017476D01*
X151438134Y-108034719D01*
X151449170Y-108053132D01*
X151458349Y-108072538D01*
X151465581Y-108092750D01*
X151470797Y-108113574D01*
X151473947Y-108134809D01*
X151475000Y-108156250D01*
X151475000Y-108593750D01*
X151473947Y-108615191D01*
X151470797Y-108636426D01*
X151465581Y-108657250D01*
X151458349Y-108677462D01*
X151449170Y-108696868D01*
X151438134Y-108715281D01*
X151425346Y-108732524D01*
X151410930Y-108748430D01*
X151395024Y-108762846D01*
X151377781Y-108775634D01*
X151359368Y-108786670D01*
X151339962Y-108795849D01*
X151319750Y-108803081D01*
X151298926Y-108808297D01*
X151277691Y-108811447D01*
X151256250Y-108812500D01*
X150743750Y-108812500D01*
X150722309Y-108811447D01*
X150701074Y-108808297D01*
X150680250Y-108803081D01*
X150660038Y-108795849D01*
X150640632Y-108786670D01*
X150622219Y-108775634D01*
X150604976Y-108762846D01*
X150589070Y-108748430D01*
X150574654Y-108732524D01*
X150561866Y-108715281D01*
X150550830Y-108696868D01*
X150541651Y-108677462D01*
X150534419Y-108657250D01*
X150529203Y-108636426D01*
X150526053Y-108615191D01*
X150525000Y-108593750D01*
X150525000Y-108156250D01*
X150526053Y-108134809D01*
X150529203Y-108113574D01*
X150534419Y-108092750D01*
X150541651Y-108072538D01*
X150550830Y-108053132D01*
X150561866Y-108034719D01*
X150574654Y-108017476D01*
X150589070Y-108001570D01*
X150604976Y-107987154D01*
X150622219Y-107974366D01*
X150640632Y-107963330D01*
X150660038Y-107954151D01*
X150680250Y-107946919D01*
X150701074Y-107941703D01*
X150722309Y-107938553D01*
X150743750Y-107937500D01*
X151256250Y-107937500D01*
X151277691Y-107938553D01*
X151277691Y-107938553D01*
G37*
D17*
X151000000Y-108375000D03*
D16*
G36*
X151277691Y-106363553D02*
G01*
X151298926Y-106366703D01*
X151319750Y-106371919D01*
X151339962Y-106379151D01*
X151359368Y-106388330D01*
X151377781Y-106399366D01*
X151395024Y-106412154D01*
X151410930Y-106426570D01*
X151425346Y-106442476D01*
X151438134Y-106459719D01*
X151449170Y-106478132D01*
X151458349Y-106497538D01*
X151465581Y-106517750D01*
X151470797Y-106538574D01*
X151473947Y-106559809D01*
X151475000Y-106581250D01*
X151475000Y-107018750D01*
X151473947Y-107040191D01*
X151470797Y-107061426D01*
X151465581Y-107082250D01*
X151458349Y-107102462D01*
X151449170Y-107121868D01*
X151438134Y-107140281D01*
X151425346Y-107157524D01*
X151410930Y-107173430D01*
X151395024Y-107187846D01*
X151377781Y-107200634D01*
X151359368Y-107211670D01*
X151339962Y-107220849D01*
X151319750Y-107228081D01*
X151298926Y-107233297D01*
X151277691Y-107236447D01*
X151256250Y-107237500D01*
X150743750Y-107237500D01*
X150722309Y-107236447D01*
X150701074Y-107233297D01*
X150680250Y-107228081D01*
X150660038Y-107220849D01*
X150640632Y-107211670D01*
X150622219Y-107200634D01*
X150604976Y-107187846D01*
X150589070Y-107173430D01*
X150574654Y-107157524D01*
X150561866Y-107140281D01*
X150550830Y-107121868D01*
X150541651Y-107102462D01*
X150534419Y-107082250D01*
X150529203Y-107061426D01*
X150526053Y-107040191D01*
X150525000Y-107018750D01*
X150525000Y-106581250D01*
X150526053Y-106559809D01*
X150529203Y-106538574D01*
X150534419Y-106517750D01*
X150541651Y-106497538D01*
X150550830Y-106478132D01*
X150561866Y-106459719D01*
X150574654Y-106442476D01*
X150589070Y-106426570D01*
X150604976Y-106412154D01*
X150622219Y-106399366D01*
X150640632Y-106388330D01*
X150660038Y-106379151D01*
X150680250Y-106371919D01*
X150701074Y-106366703D01*
X150722309Y-106363553D01*
X150743750Y-106362500D01*
X151256250Y-106362500D01*
X151277691Y-106363553D01*
X151277691Y-106363553D01*
G37*
D17*
X151000000Y-106800000D03*
D16*
G36*
X151277691Y-117463553D02*
G01*
X151298926Y-117466703D01*
X151319750Y-117471919D01*
X151339962Y-117479151D01*
X151359368Y-117488330D01*
X151377781Y-117499366D01*
X151395024Y-117512154D01*
X151410930Y-117526570D01*
X151425346Y-117542476D01*
X151438134Y-117559719D01*
X151449170Y-117578132D01*
X151458349Y-117597538D01*
X151465581Y-117617750D01*
X151470797Y-117638574D01*
X151473947Y-117659809D01*
X151475000Y-117681250D01*
X151475000Y-118118750D01*
X151473947Y-118140191D01*
X151470797Y-118161426D01*
X151465581Y-118182250D01*
X151458349Y-118202462D01*
X151449170Y-118221868D01*
X151438134Y-118240281D01*
X151425346Y-118257524D01*
X151410930Y-118273430D01*
X151395024Y-118287846D01*
X151377781Y-118300634D01*
X151359368Y-118311670D01*
X151339962Y-118320849D01*
X151319750Y-118328081D01*
X151298926Y-118333297D01*
X151277691Y-118336447D01*
X151256250Y-118337500D01*
X150743750Y-118337500D01*
X150722309Y-118336447D01*
X150701074Y-118333297D01*
X150680250Y-118328081D01*
X150660038Y-118320849D01*
X150640632Y-118311670D01*
X150622219Y-118300634D01*
X150604976Y-118287846D01*
X150589070Y-118273430D01*
X150574654Y-118257524D01*
X150561866Y-118240281D01*
X150550830Y-118221868D01*
X150541651Y-118202462D01*
X150534419Y-118182250D01*
X150529203Y-118161426D01*
X150526053Y-118140191D01*
X150525000Y-118118750D01*
X150525000Y-117681250D01*
X150526053Y-117659809D01*
X150529203Y-117638574D01*
X150534419Y-117617750D01*
X150541651Y-117597538D01*
X150550830Y-117578132D01*
X150561866Y-117559719D01*
X150574654Y-117542476D01*
X150589070Y-117526570D01*
X150604976Y-117512154D01*
X150622219Y-117499366D01*
X150640632Y-117488330D01*
X150660038Y-117479151D01*
X150680250Y-117471919D01*
X150701074Y-117466703D01*
X150722309Y-117463553D01*
X150743750Y-117462500D01*
X151256250Y-117462500D01*
X151277691Y-117463553D01*
X151277691Y-117463553D01*
G37*
D17*
X151000000Y-117900000D03*
D16*
G36*
X151277691Y-119038553D02*
G01*
X151298926Y-119041703D01*
X151319750Y-119046919D01*
X151339962Y-119054151D01*
X151359368Y-119063330D01*
X151377781Y-119074366D01*
X151395024Y-119087154D01*
X151410930Y-119101570D01*
X151425346Y-119117476D01*
X151438134Y-119134719D01*
X151449170Y-119153132D01*
X151458349Y-119172538D01*
X151465581Y-119192750D01*
X151470797Y-119213574D01*
X151473947Y-119234809D01*
X151475000Y-119256250D01*
X151475000Y-119693750D01*
X151473947Y-119715191D01*
X151470797Y-119736426D01*
X151465581Y-119757250D01*
X151458349Y-119777462D01*
X151449170Y-119796868D01*
X151438134Y-119815281D01*
X151425346Y-119832524D01*
X151410930Y-119848430D01*
X151395024Y-119862846D01*
X151377781Y-119875634D01*
X151359368Y-119886670D01*
X151339962Y-119895849D01*
X151319750Y-119903081D01*
X151298926Y-119908297D01*
X151277691Y-119911447D01*
X151256250Y-119912500D01*
X150743750Y-119912500D01*
X150722309Y-119911447D01*
X150701074Y-119908297D01*
X150680250Y-119903081D01*
X150660038Y-119895849D01*
X150640632Y-119886670D01*
X150622219Y-119875634D01*
X150604976Y-119862846D01*
X150589070Y-119848430D01*
X150574654Y-119832524D01*
X150561866Y-119815281D01*
X150550830Y-119796868D01*
X150541651Y-119777462D01*
X150534419Y-119757250D01*
X150529203Y-119736426D01*
X150526053Y-119715191D01*
X150525000Y-119693750D01*
X150525000Y-119256250D01*
X150526053Y-119234809D01*
X150529203Y-119213574D01*
X150534419Y-119192750D01*
X150541651Y-119172538D01*
X150550830Y-119153132D01*
X150561866Y-119134719D01*
X150574654Y-119117476D01*
X150589070Y-119101570D01*
X150604976Y-119087154D01*
X150622219Y-119074366D01*
X150640632Y-119063330D01*
X150660038Y-119054151D01*
X150680250Y-119046919D01*
X150701074Y-119041703D01*
X150722309Y-119038553D01*
X150743750Y-119037500D01*
X151256250Y-119037500D01*
X151277691Y-119038553D01*
X151277691Y-119038553D01*
G37*
D17*
X151000000Y-119475000D03*
D16*
G36*
X151277691Y-115738553D02*
G01*
X151298926Y-115741703D01*
X151319750Y-115746919D01*
X151339962Y-115754151D01*
X151359368Y-115763330D01*
X151377781Y-115774366D01*
X151395024Y-115787154D01*
X151410930Y-115801570D01*
X151425346Y-115817476D01*
X151438134Y-115834719D01*
X151449170Y-115853132D01*
X151458349Y-115872538D01*
X151465581Y-115892750D01*
X151470797Y-115913574D01*
X151473947Y-115934809D01*
X151475000Y-115956250D01*
X151475000Y-116393750D01*
X151473947Y-116415191D01*
X151470797Y-116436426D01*
X151465581Y-116457250D01*
X151458349Y-116477462D01*
X151449170Y-116496868D01*
X151438134Y-116515281D01*
X151425346Y-116532524D01*
X151410930Y-116548430D01*
X151395024Y-116562846D01*
X151377781Y-116575634D01*
X151359368Y-116586670D01*
X151339962Y-116595849D01*
X151319750Y-116603081D01*
X151298926Y-116608297D01*
X151277691Y-116611447D01*
X151256250Y-116612500D01*
X150743750Y-116612500D01*
X150722309Y-116611447D01*
X150701074Y-116608297D01*
X150680250Y-116603081D01*
X150660038Y-116595849D01*
X150640632Y-116586670D01*
X150622219Y-116575634D01*
X150604976Y-116562846D01*
X150589070Y-116548430D01*
X150574654Y-116532524D01*
X150561866Y-116515281D01*
X150550830Y-116496868D01*
X150541651Y-116477462D01*
X150534419Y-116457250D01*
X150529203Y-116436426D01*
X150526053Y-116415191D01*
X150525000Y-116393750D01*
X150525000Y-115956250D01*
X150526053Y-115934809D01*
X150529203Y-115913574D01*
X150534419Y-115892750D01*
X150541651Y-115872538D01*
X150550830Y-115853132D01*
X150561866Y-115834719D01*
X150574654Y-115817476D01*
X150589070Y-115801570D01*
X150604976Y-115787154D01*
X150622219Y-115774366D01*
X150640632Y-115763330D01*
X150660038Y-115754151D01*
X150680250Y-115746919D01*
X150701074Y-115741703D01*
X150722309Y-115738553D01*
X150743750Y-115737500D01*
X151256250Y-115737500D01*
X151277691Y-115738553D01*
X151277691Y-115738553D01*
G37*
D17*
X151000000Y-116175000D03*
D16*
G36*
X151277691Y-114163553D02*
G01*
X151298926Y-114166703D01*
X151319750Y-114171919D01*
X151339962Y-114179151D01*
X151359368Y-114188330D01*
X151377781Y-114199366D01*
X151395024Y-114212154D01*
X151410930Y-114226570D01*
X151425346Y-114242476D01*
X151438134Y-114259719D01*
X151449170Y-114278132D01*
X151458349Y-114297538D01*
X151465581Y-114317750D01*
X151470797Y-114338574D01*
X151473947Y-114359809D01*
X151475000Y-114381250D01*
X151475000Y-114818750D01*
X151473947Y-114840191D01*
X151470797Y-114861426D01*
X151465581Y-114882250D01*
X151458349Y-114902462D01*
X151449170Y-114921868D01*
X151438134Y-114940281D01*
X151425346Y-114957524D01*
X151410930Y-114973430D01*
X151395024Y-114987846D01*
X151377781Y-115000634D01*
X151359368Y-115011670D01*
X151339962Y-115020849D01*
X151319750Y-115028081D01*
X151298926Y-115033297D01*
X151277691Y-115036447D01*
X151256250Y-115037500D01*
X150743750Y-115037500D01*
X150722309Y-115036447D01*
X150701074Y-115033297D01*
X150680250Y-115028081D01*
X150660038Y-115020849D01*
X150640632Y-115011670D01*
X150622219Y-115000634D01*
X150604976Y-114987846D01*
X150589070Y-114973430D01*
X150574654Y-114957524D01*
X150561866Y-114940281D01*
X150550830Y-114921868D01*
X150541651Y-114902462D01*
X150534419Y-114882250D01*
X150529203Y-114861426D01*
X150526053Y-114840191D01*
X150525000Y-114818750D01*
X150525000Y-114381250D01*
X150526053Y-114359809D01*
X150529203Y-114338574D01*
X150534419Y-114317750D01*
X150541651Y-114297538D01*
X150550830Y-114278132D01*
X150561866Y-114259719D01*
X150574654Y-114242476D01*
X150589070Y-114226570D01*
X150604976Y-114212154D01*
X150622219Y-114199366D01*
X150640632Y-114188330D01*
X150660038Y-114179151D01*
X150680250Y-114171919D01*
X150701074Y-114166703D01*
X150722309Y-114163553D01*
X150743750Y-114162500D01*
X151256250Y-114162500D01*
X151277691Y-114163553D01*
X151277691Y-114163553D01*
G37*
D17*
X151000000Y-114600000D03*
D16*
G36*
X151277691Y-110863553D02*
G01*
X151298926Y-110866703D01*
X151319750Y-110871919D01*
X151339962Y-110879151D01*
X151359368Y-110888330D01*
X151377781Y-110899366D01*
X151395024Y-110912154D01*
X151410930Y-110926570D01*
X151425346Y-110942476D01*
X151438134Y-110959719D01*
X151449170Y-110978132D01*
X151458349Y-110997538D01*
X151465581Y-111017750D01*
X151470797Y-111038574D01*
X151473947Y-111059809D01*
X151475000Y-111081250D01*
X151475000Y-111518750D01*
X151473947Y-111540191D01*
X151470797Y-111561426D01*
X151465581Y-111582250D01*
X151458349Y-111602462D01*
X151449170Y-111621868D01*
X151438134Y-111640281D01*
X151425346Y-111657524D01*
X151410930Y-111673430D01*
X151395024Y-111687846D01*
X151377781Y-111700634D01*
X151359368Y-111711670D01*
X151339962Y-111720849D01*
X151319750Y-111728081D01*
X151298926Y-111733297D01*
X151277691Y-111736447D01*
X151256250Y-111737500D01*
X150743750Y-111737500D01*
X150722309Y-111736447D01*
X150701074Y-111733297D01*
X150680250Y-111728081D01*
X150660038Y-111720849D01*
X150640632Y-111711670D01*
X150622219Y-111700634D01*
X150604976Y-111687846D01*
X150589070Y-111673430D01*
X150574654Y-111657524D01*
X150561866Y-111640281D01*
X150550830Y-111621868D01*
X150541651Y-111602462D01*
X150534419Y-111582250D01*
X150529203Y-111561426D01*
X150526053Y-111540191D01*
X150525000Y-111518750D01*
X150525000Y-111081250D01*
X150526053Y-111059809D01*
X150529203Y-111038574D01*
X150534419Y-111017750D01*
X150541651Y-110997538D01*
X150550830Y-110978132D01*
X150561866Y-110959719D01*
X150574654Y-110942476D01*
X150589070Y-110926570D01*
X150604976Y-110912154D01*
X150622219Y-110899366D01*
X150640632Y-110888330D01*
X150660038Y-110879151D01*
X150680250Y-110871919D01*
X150701074Y-110866703D01*
X150722309Y-110863553D01*
X150743750Y-110862500D01*
X151256250Y-110862500D01*
X151277691Y-110863553D01*
X151277691Y-110863553D01*
G37*
D17*
X151000000Y-111300000D03*
D16*
G36*
X151277691Y-112438553D02*
G01*
X151298926Y-112441703D01*
X151319750Y-112446919D01*
X151339962Y-112454151D01*
X151359368Y-112463330D01*
X151377781Y-112474366D01*
X151395024Y-112487154D01*
X151410930Y-112501570D01*
X151425346Y-112517476D01*
X151438134Y-112534719D01*
X151449170Y-112553132D01*
X151458349Y-112572538D01*
X151465581Y-112592750D01*
X151470797Y-112613574D01*
X151473947Y-112634809D01*
X151475000Y-112656250D01*
X151475000Y-113093750D01*
X151473947Y-113115191D01*
X151470797Y-113136426D01*
X151465581Y-113157250D01*
X151458349Y-113177462D01*
X151449170Y-113196868D01*
X151438134Y-113215281D01*
X151425346Y-113232524D01*
X151410930Y-113248430D01*
X151395024Y-113262846D01*
X151377781Y-113275634D01*
X151359368Y-113286670D01*
X151339962Y-113295849D01*
X151319750Y-113303081D01*
X151298926Y-113308297D01*
X151277691Y-113311447D01*
X151256250Y-113312500D01*
X150743750Y-113312500D01*
X150722309Y-113311447D01*
X150701074Y-113308297D01*
X150680250Y-113303081D01*
X150660038Y-113295849D01*
X150640632Y-113286670D01*
X150622219Y-113275634D01*
X150604976Y-113262846D01*
X150589070Y-113248430D01*
X150574654Y-113232524D01*
X150561866Y-113215281D01*
X150550830Y-113196868D01*
X150541651Y-113177462D01*
X150534419Y-113157250D01*
X150529203Y-113136426D01*
X150526053Y-113115191D01*
X150525000Y-113093750D01*
X150525000Y-112656250D01*
X150526053Y-112634809D01*
X150529203Y-112613574D01*
X150534419Y-112592750D01*
X150541651Y-112572538D01*
X150550830Y-112553132D01*
X150561866Y-112534719D01*
X150574654Y-112517476D01*
X150589070Y-112501570D01*
X150604976Y-112487154D01*
X150622219Y-112474366D01*
X150640632Y-112463330D01*
X150660038Y-112454151D01*
X150680250Y-112446919D01*
X150701074Y-112441703D01*
X150722309Y-112438553D01*
X150743750Y-112437500D01*
X151256250Y-112437500D01*
X151277691Y-112438553D01*
X151277691Y-112438553D01*
G37*
D17*
X151000000Y-112875000D03*
D26*
X139750000Y-113300000D03*
X139750000Y-113800000D03*
X139750000Y-114300000D03*
X139750000Y-114800000D03*
X139750000Y-115300000D03*
X142650000Y-115300000D03*
X142650000Y-114800000D03*
X142650000Y-114300000D03*
X142650000Y-113800000D03*
X142650000Y-113300000D03*
M02*
