G04 #@! TF.GenerationSoftware,KiCad,Pcbnew,(5.1.2)-2*
G04 #@! TF.CreationDate,2019-12-12T20:57:49+01:00*
G04 #@! TF.ProjectId,Control_board,436f6e74-726f-46c5-9f62-6f6172642e6b,rev?*
G04 #@! TF.SameCoordinates,Original*
G04 #@! TF.FileFunction,Paste,Top*
G04 #@! TF.FilePolarity,Positive*
%FSLAX46Y46*%
G04 Gerber Fmt 4.6, Leading zero omitted, Abs format (unit mm)*
G04 Created by KiCad (PCBNEW (5.1.2)-2) date 2019-12-12 20:57:49*
%MOMM*%
%LPD*%
G04 APERTURE LIST*
%ADD10R,0.800000X1.200000*%
%ADD11R,1.300000X2.150000*%
%ADD12C,0.100000*%
%ADD13C,0.875000*%
%ADD14R,1.750000X0.950000*%
%ADD15R,1.750000X3.200000*%
%ADD16R,1.100000X0.250000*%
%ADD17C,0.975000*%
%ADD18R,2.000000X3.800000*%
%ADD19R,2.000000X1.500000*%
G04 APERTURE END LIST*
D10*
X141275000Y-173125000D03*
X140025000Y-173125000D03*
X138775000Y-173125000D03*
X137525000Y-173125000D03*
X136275000Y-173125000D03*
X135025000Y-173125000D03*
D11*
X143175000Y-175665000D03*
X133125000Y-175665000D03*
D12*
G36*
X170940191Y-94576053D02*
G01*
X170961426Y-94579203D01*
X170982250Y-94584419D01*
X171002462Y-94591651D01*
X171021868Y-94600830D01*
X171040281Y-94611866D01*
X171057524Y-94624654D01*
X171073430Y-94639070D01*
X171087846Y-94654976D01*
X171100634Y-94672219D01*
X171111670Y-94690632D01*
X171120849Y-94710038D01*
X171128081Y-94730250D01*
X171133297Y-94751074D01*
X171136447Y-94772309D01*
X171137500Y-94793750D01*
X171137500Y-95306250D01*
X171136447Y-95327691D01*
X171133297Y-95348926D01*
X171128081Y-95369750D01*
X171120849Y-95389962D01*
X171111670Y-95409368D01*
X171100634Y-95427781D01*
X171087846Y-95445024D01*
X171073430Y-95460930D01*
X171057524Y-95475346D01*
X171040281Y-95488134D01*
X171021868Y-95499170D01*
X171002462Y-95508349D01*
X170982250Y-95515581D01*
X170961426Y-95520797D01*
X170940191Y-95523947D01*
X170918750Y-95525000D01*
X170481250Y-95525000D01*
X170459809Y-95523947D01*
X170438574Y-95520797D01*
X170417750Y-95515581D01*
X170397538Y-95508349D01*
X170378132Y-95499170D01*
X170359719Y-95488134D01*
X170342476Y-95475346D01*
X170326570Y-95460930D01*
X170312154Y-95445024D01*
X170299366Y-95427781D01*
X170288330Y-95409368D01*
X170279151Y-95389962D01*
X170271919Y-95369750D01*
X170266703Y-95348926D01*
X170263553Y-95327691D01*
X170262500Y-95306250D01*
X170262500Y-94793750D01*
X170263553Y-94772309D01*
X170266703Y-94751074D01*
X170271919Y-94730250D01*
X170279151Y-94710038D01*
X170288330Y-94690632D01*
X170299366Y-94672219D01*
X170312154Y-94654976D01*
X170326570Y-94639070D01*
X170342476Y-94624654D01*
X170359719Y-94611866D01*
X170378132Y-94600830D01*
X170397538Y-94591651D01*
X170417750Y-94584419D01*
X170438574Y-94579203D01*
X170459809Y-94576053D01*
X170481250Y-94575000D01*
X170918750Y-94575000D01*
X170940191Y-94576053D01*
X170940191Y-94576053D01*
G37*
D13*
X170700000Y-95050000D03*
D12*
G36*
X172515191Y-94576053D02*
G01*
X172536426Y-94579203D01*
X172557250Y-94584419D01*
X172577462Y-94591651D01*
X172596868Y-94600830D01*
X172615281Y-94611866D01*
X172632524Y-94624654D01*
X172648430Y-94639070D01*
X172662846Y-94654976D01*
X172675634Y-94672219D01*
X172686670Y-94690632D01*
X172695849Y-94710038D01*
X172703081Y-94730250D01*
X172708297Y-94751074D01*
X172711447Y-94772309D01*
X172712500Y-94793750D01*
X172712500Y-95306250D01*
X172711447Y-95327691D01*
X172708297Y-95348926D01*
X172703081Y-95369750D01*
X172695849Y-95389962D01*
X172686670Y-95409368D01*
X172675634Y-95427781D01*
X172662846Y-95445024D01*
X172648430Y-95460930D01*
X172632524Y-95475346D01*
X172615281Y-95488134D01*
X172596868Y-95499170D01*
X172577462Y-95508349D01*
X172557250Y-95515581D01*
X172536426Y-95520797D01*
X172515191Y-95523947D01*
X172493750Y-95525000D01*
X172056250Y-95525000D01*
X172034809Y-95523947D01*
X172013574Y-95520797D01*
X171992750Y-95515581D01*
X171972538Y-95508349D01*
X171953132Y-95499170D01*
X171934719Y-95488134D01*
X171917476Y-95475346D01*
X171901570Y-95460930D01*
X171887154Y-95445024D01*
X171874366Y-95427781D01*
X171863330Y-95409368D01*
X171854151Y-95389962D01*
X171846919Y-95369750D01*
X171841703Y-95348926D01*
X171838553Y-95327691D01*
X171837500Y-95306250D01*
X171837500Y-94793750D01*
X171838553Y-94772309D01*
X171841703Y-94751074D01*
X171846919Y-94730250D01*
X171854151Y-94710038D01*
X171863330Y-94690632D01*
X171874366Y-94672219D01*
X171887154Y-94654976D01*
X171901570Y-94639070D01*
X171917476Y-94624654D01*
X171934719Y-94611866D01*
X171953132Y-94600830D01*
X171972538Y-94591651D01*
X171992750Y-94584419D01*
X172013574Y-94579203D01*
X172034809Y-94576053D01*
X172056250Y-94575000D01*
X172493750Y-94575000D01*
X172515191Y-94576053D01*
X172515191Y-94576053D01*
G37*
D13*
X172275000Y-95050000D03*
D12*
G36*
X125277691Y-157676053D02*
G01*
X125298926Y-157679203D01*
X125319750Y-157684419D01*
X125339962Y-157691651D01*
X125359368Y-157700830D01*
X125377781Y-157711866D01*
X125395024Y-157724654D01*
X125410930Y-157739070D01*
X125425346Y-157754976D01*
X125438134Y-157772219D01*
X125449170Y-157790632D01*
X125458349Y-157810038D01*
X125465581Y-157830250D01*
X125470797Y-157851074D01*
X125473947Y-157872309D01*
X125475000Y-157893750D01*
X125475000Y-158406250D01*
X125473947Y-158427691D01*
X125470797Y-158448926D01*
X125465581Y-158469750D01*
X125458349Y-158489962D01*
X125449170Y-158509368D01*
X125438134Y-158527781D01*
X125425346Y-158545024D01*
X125410930Y-158560930D01*
X125395024Y-158575346D01*
X125377781Y-158588134D01*
X125359368Y-158599170D01*
X125339962Y-158608349D01*
X125319750Y-158615581D01*
X125298926Y-158620797D01*
X125277691Y-158623947D01*
X125256250Y-158625000D01*
X124818750Y-158625000D01*
X124797309Y-158623947D01*
X124776074Y-158620797D01*
X124755250Y-158615581D01*
X124735038Y-158608349D01*
X124715632Y-158599170D01*
X124697219Y-158588134D01*
X124679976Y-158575346D01*
X124664070Y-158560930D01*
X124649654Y-158545024D01*
X124636866Y-158527781D01*
X124625830Y-158509368D01*
X124616651Y-158489962D01*
X124609419Y-158469750D01*
X124604203Y-158448926D01*
X124601053Y-158427691D01*
X124600000Y-158406250D01*
X124600000Y-157893750D01*
X124601053Y-157872309D01*
X124604203Y-157851074D01*
X124609419Y-157830250D01*
X124616651Y-157810038D01*
X124625830Y-157790632D01*
X124636866Y-157772219D01*
X124649654Y-157754976D01*
X124664070Y-157739070D01*
X124679976Y-157724654D01*
X124697219Y-157711866D01*
X124715632Y-157700830D01*
X124735038Y-157691651D01*
X124755250Y-157684419D01*
X124776074Y-157679203D01*
X124797309Y-157676053D01*
X124818750Y-157675000D01*
X125256250Y-157675000D01*
X125277691Y-157676053D01*
X125277691Y-157676053D01*
G37*
D13*
X125037500Y-158150000D03*
D12*
G36*
X123702691Y-157676053D02*
G01*
X123723926Y-157679203D01*
X123744750Y-157684419D01*
X123764962Y-157691651D01*
X123784368Y-157700830D01*
X123802781Y-157711866D01*
X123820024Y-157724654D01*
X123835930Y-157739070D01*
X123850346Y-157754976D01*
X123863134Y-157772219D01*
X123874170Y-157790632D01*
X123883349Y-157810038D01*
X123890581Y-157830250D01*
X123895797Y-157851074D01*
X123898947Y-157872309D01*
X123900000Y-157893750D01*
X123900000Y-158406250D01*
X123898947Y-158427691D01*
X123895797Y-158448926D01*
X123890581Y-158469750D01*
X123883349Y-158489962D01*
X123874170Y-158509368D01*
X123863134Y-158527781D01*
X123850346Y-158545024D01*
X123835930Y-158560930D01*
X123820024Y-158575346D01*
X123802781Y-158588134D01*
X123784368Y-158599170D01*
X123764962Y-158608349D01*
X123744750Y-158615581D01*
X123723926Y-158620797D01*
X123702691Y-158623947D01*
X123681250Y-158625000D01*
X123243750Y-158625000D01*
X123222309Y-158623947D01*
X123201074Y-158620797D01*
X123180250Y-158615581D01*
X123160038Y-158608349D01*
X123140632Y-158599170D01*
X123122219Y-158588134D01*
X123104976Y-158575346D01*
X123089070Y-158560930D01*
X123074654Y-158545024D01*
X123061866Y-158527781D01*
X123050830Y-158509368D01*
X123041651Y-158489962D01*
X123034419Y-158469750D01*
X123029203Y-158448926D01*
X123026053Y-158427691D01*
X123025000Y-158406250D01*
X123025000Y-157893750D01*
X123026053Y-157872309D01*
X123029203Y-157851074D01*
X123034419Y-157830250D01*
X123041651Y-157810038D01*
X123050830Y-157790632D01*
X123061866Y-157772219D01*
X123074654Y-157754976D01*
X123089070Y-157739070D01*
X123104976Y-157724654D01*
X123122219Y-157711866D01*
X123140632Y-157700830D01*
X123160038Y-157691651D01*
X123180250Y-157684419D01*
X123201074Y-157679203D01*
X123222309Y-157676053D01*
X123243750Y-157675000D01*
X123681250Y-157675000D01*
X123702691Y-157676053D01*
X123702691Y-157676053D01*
G37*
D13*
X123462500Y-158150000D03*
D12*
G36*
X173277691Y-100413553D02*
G01*
X173298926Y-100416703D01*
X173319750Y-100421919D01*
X173339962Y-100429151D01*
X173359368Y-100438330D01*
X173377781Y-100449366D01*
X173395024Y-100462154D01*
X173410930Y-100476570D01*
X173425346Y-100492476D01*
X173438134Y-100509719D01*
X173449170Y-100528132D01*
X173458349Y-100547538D01*
X173465581Y-100567750D01*
X173470797Y-100588574D01*
X173473947Y-100609809D01*
X173475000Y-100631250D01*
X173475000Y-101068750D01*
X173473947Y-101090191D01*
X173470797Y-101111426D01*
X173465581Y-101132250D01*
X173458349Y-101152462D01*
X173449170Y-101171868D01*
X173438134Y-101190281D01*
X173425346Y-101207524D01*
X173410930Y-101223430D01*
X173395024Y-101237846D01*
X173377781Y-101250634D01*
X173359368Y-101261670D01*
X173339962Y-101270849D01*
X173319750Y-101278081D01*
X173298926Y-101283297D01*
X173277691Y-101286447D01*
X173256250Y-101287500D01*
X172743750Y-101287500D01*
X172722309Y-101286447D01*
X172701074Y-101283297D01*
X172680250Y-101278081D01*
X172660038Y-101270849D01*
X172640632Y-101261670D01*
X172622219Y-101250634D01*
X172604976Y-101237846D01*
X172589070Y-101223430D01*
X172574654Y-101207524D01*
X172561866Y-101190281D01*
X172550830Y-101171868D01*
X172541651Y-101152462D01*
X172534419Y-101132250D01*
X172529203Y-101111426D01*
X172526053Y-101090191D01*
X172525000Y-101068750D01*
X172525000Y-100631250D01*
X172526053Y-100609809D01*
X172529203Y-100588574D01*
X172534419Y-100567750D01*
X172541651Y-100547538D01*
X172550830Y-100528132D01*
X172561866Y-100509719D01*
X172574654Y-100492476D01*
X172589070Y-100476570D01*
X172604976Y-100462154D01*
X172622219Y-100449366D01*
X172640632Y-100438330D01*
X172660038Y-100429151D01*
X172680250Y-100421919D01*
X172701074Y-100416703D01*
X172722309Y-100413553D01*
X172743750Y-100412500D01*
X173256250Y-100412500D01*
X173277691Y-100413553D01*
X173277691Y-100413553D01*
G37*
D13*
X173000000Y-100850000D03*
D12*
G36*
X173277691Y-101988553D02*
G01*
X173298926Y-101991703D01*
X173319750Y-101996919D01*
X173339962Y-102004151D01*
X173359368Y-102013330D01*
X173377781Y-102024366D01*
X173395024Y-102037154D01*
X173410930Y-102051570D01*
X173425346Y-102067476D01*
X173438134Y-102084719D01*
X173449170Y-102103132D01*
X173458349Y-102122538D01*
X173465581Y-102142750D01*
X173470797Y-102163574D01*
X173473947Y-102184809D01*
X173475000Y-102206250D01*
X173475000Y-102643750D01*
X173473947Y-102665191D01*
X173470797Y-102686426D01*
X173465581Y-102707250D01*
X173458349Y-102727462D01*
X173449170Y-102746868D01*
X173438134Y-102765281D01*
X173425346Y-102782524D01*
X173410930Y-102798430D01*
X173395024Y-102812846D01*
X173377781Y-102825634D01*
X173359368Y-102836670D01*
X173339962Y-102845849D01*
X173319750Y-102853081D01*
X173298926Y-102858297D01*
X173277691Y-102861447D01*
X173256250Y-102862500D01*
X172743750Y-102862500D01*
X172722309Y-102861447D01*
X172701074Y-102858297D01*
X172680250Y-102853081D01*
X172660038Y-102845849D01*
X172640632Y-102836670D01*
X172622219Y-102825634D01*
X172604976Y-102812846D01*
X172589070Y-102798430D01*
X172574654Y-102782524D01*
X172561866Y-102765281D01*
X172550830Y-102746868D01*
X172541651Y-102727462D01*
X172534419Y-102707250D01*
X172529203Y-102686426D01*
X172526053Y-102665191D01*
X172525000Y-102643750D01*
X172525000Y-102206250D01*
X172526053Y-102184809D01*
X172529203Y-102163574D01*
X172534419Y-102142750D01*
X172541651Y-102122538D01*
X172550830Y-102103132D01*
X172561866Y-102084719D01*
X172574654Y-102067476D01*
X172589070Y-102051570D01*
X172604976Y-102037154D01*
X172622219Y-102024366D01*
X172640632Y-102013330D01*
X172660038Y-102004151D01*
X172680250Y-101996919D01*
X172701074Y-101991703D01*
X172722309Y-101988553D01*
X172743750Y-101987500D01*
X173256250Y-101987500D01*
X173277691Y-101988553D01*
X173277691Y-101988553D01*
G37*
D13*
X173000000Y-102425000D03*
D12*
G36*
X134277691Y-144063553D02*
G01*
X134298926Y-144066703D01*
X134319750Y-144071919D01*
X134339962Y-144079151D01*
X134359368Y-144088330D01*
X134377781Y-144099366D01*
X134395024Y-144112154D01*
X134410930Y-144126570D01*
X134425346Y-144142476D01*
X134438134Y-144159719D01*
X134449170Y-144178132D01*
X134458349Y-144197538D01*
X134465581Y-144217750D01*
X134470797Y-144238574D01*
X134473947Y-144259809D01*
X134475000Y-144281250D01*
X134475000Y-144718750D01*
X134473947Y-144740191D01*
X134470797Y-144761426D01*
X134465581Y-144782250D01*
X134458349Y-144802462D01*
X134449170Y-144821868D01*
X134438134Y-144840281D01*
X134425346Y-144857524D01*
X134410930Y-144873430D01*
X134395024Y-144887846D01*
X134377781Y-144900634D01*
X134359368Y-144911670D01*
X134339962Y-144920849D01*
X134319750Y-144928081D01*
X134298926Y-144933297D01*
X134277691Y-144936447D01*
X134256250Y-144937500D01*
X133743750Y-144937500D01*
X133722309Y-144936447D01*
X133701074Y-144933297D01*
X133680250Y-144928081D01*
X133660038Y-144920849D01*
X133640632Y-144911670D01*
X133622219Y-144900634D01*
X133604976Y-144887846D01*
X133589070Y-144873430D01*
X133574654Y-144857524D01*
X133561866Y-144840281D01*
X133550830Y-144821868D01*
X133541651Y-144802462D01*
X133534419Y-144782250D01*
X133529203Y-144761426D01*
X133526053Y-144740191D01*
X133525000Y-144718750D01*
X133525000Y-144281250D01*
X133526053Y-144259809D01*
X133529203Y-144238574D01*
X133534419Y-144217750D01*
X133541651Y-144197538D01*
X133550830Y-144178132D01*
X133561866Y-144159719D01*
X133574654Y-144142476D01*
X133589070Y-144126570D01*
X133604976Y-144112154D01*
X133622219Y-144099366D01*
X133640632Y-144088330D01*
X133660038Y-144079151D01*
X133680250Y-144071919D01*
X133701074Y-144066703D01*
X133722309Y-144063553D01*
X133743750Y-144062500D01*
X134256250Y-144062500D01*
X134277691Y-144063553D01*
X134277691Y-144063553D01*
G37*
D13*
X134000000Y-144500000D03*
D12*
G36*
X134277691Y-145638553D02*
G01*
X134298926Y-145641703D01*
X134319750Y-145646919D01*
X134339962Y-145654151D01*
X134359368Y-145663330D01*
X134377781Y-145674366D01*
X134395024Y-145687154D01*
X134410930Y-145701570D01*
X134425346Y-145717476D01*
X134438134Y-145734719D01*
X134449170Y-145753132D01*
X134458349Y-145772538D01*
X134465581Y-145792750D01*
X134470797Y-145813574D01*
X134473947Y-145834809D01*
X134475000Y-145856250D01*
X134475000Y-146293750D01*
X134473947Y-146315191D01*
X134470797Y-146336426D01*
X134465581Y-146357250D01*
X134458349Y-146377462D01*
X134449170Y-146396868D01*
X134438134Y-146415281D01*
X134425346Y-146432524D01*
X134410930Y-146448430D01*
X134395024Y-146462846D01*
X134377781Y-146475634D01*
X134359368Y-146486670D01*
X134339962Y-146495849D01*
X134319750Y-146503081D01*
X134298926Y-146508297D01*
X134277691Y-146511447D01*
X134256250Y-146512500D01*
X133743750Y-146512500D01*
X133722309Y-146511447D01*
X133701074Y-146508297D01*
X133680250Y-146503081D01*
X133660038Y-146495849D01*
X133640632Y-146486670D01*
X133622219Y-146475634D01*
X133604976Y-146462846D01*
X133589070Y-146448430D01*
X133574654Y-146432524D01*
X133561866Y-146415281D01*
X133550830Y-146396868D01*
X133541651Y-146377462D01*
X133534419Y-146357250D01*
X133529203Y-146336426D01*
X133526053Y-146315191D01*
X133525000Y-146293750D01*
X133525000Y-145856250D01*
X133526053Y-145834809D01*
X133529203Y-145813574D01*
X133534419Y-145792750D01*
X133541651Y-145772538D01*
X133550830Y-145753132D01*
X133561866Y-145734719D01*
X133574654Y-145717476D01*
X133589070Y-145701570D01*
X133604976Y-145687154D01*
X133622219Y-145674366D01*
X133640632Y-145663330D01*
X133660038Y-145654151D01*
X133680250Y-145646919D01*
X133701074Y-145641703D01*
X133722309Y-145638553D01*
X133743750Y-145637500D01*
X134256250Y-145637500D01*
X134277691Y-145638553D01*
X134277691Y-145638553D01*
G37*
D13*
X134000000Y-146075000D03*
D12*
G36*
X111565191Y-157676053D02*
G01*
X111586426Y-157679203D01*
X111607250Y-157684419D01*
X111627462Y-157691651D01*
X111646868Y-157700830D01*
X111665281Y-157711866D01*
X111682524Y-157724654D01*
X111698430Y-157739070D01*
X111712846Y-157754976D01*
X111725634Y-157772219D01*
X111736670Y-157790632D01*
X111745849Y-157810038D01*
X111753081Y-157830250D01*
X111758297Y-157851074D01*
X111761447Y-157872309D01*
X111762500Y-157893750D01*
X111762500Y-158406250D01*
X111761447Y-158427691D01*
X111758297Y-158448926D01*
X111753081Y-158469750D01*
X111745849Y-158489962D01*
X111736670Y-158509368D01*
X111725634Y-158527781D01*
X111712846Y-158545024D01*
X111698430Y-158560930D01*
X111682524Y-158575346D01*
X111665281Y-158588134D01*
X111646868Y-158599170D01*
X111627462Y-158608349D01*
X111607250Y-158615581D01*
X111586426Y-158620797D01*
X111565191Y-158623947D01*
X111543750Y-158625000D01*
X111106250Y-158625000D01*
X111084809Y-158623947D01*
X111063574Y-158620797D01*
X111042750Y-158615581D01*
X111022538Y-158608349D01*
X111003132Y-158599170D01*
X110984719Y-158588134D01*
X110967476Y-158575346D01*
X110951570Y-158560930D01*
X110937154Y-158545024D01*
X110924366Y-158527781D01*
X110913330Y-158509368D01*
X110904151Y-158489962D01*
X110896919Y-158469750D01*
X110891703Y-158448926D01*
X110888553Y-158427691D01*
X110887500Y-158406250D01*
X110887500Y-157893750D01*
X110888553Y-157872309D01*
X110891703Y-157851074D01*
X110896919Y-157830250D01*
X110904151Y-157810038D01*
X110913330Y-157790632D01*
X110924366Y-157772219D01*
X110937154Y-157754976D01*
X110951570Y-157739070D01*
X110967476Y-157724654D01*
X110984719Y-157711866D01*
X111003132Y-157700830D01*
X111022538Y-157691651D01*
X111042750Y-157684419D01*
X111063574Y-157679203D01*
X111084809Y-157676053D01*
X111106250Y-157675000D01*
X111543750Y-157675000D01*
X111565191Y-157676053D01*
X111565191Y-157676053D01*
G37*
D13*
X111325000Y-158150000D03*
D12*
G36*
X113140191Y-157676053D02*
G01*
X113161426Y-157679203D01*
X113182250Y-157684419D01*
X113202462Y-157691651D01*
X113221868Y-157700830D01*
X113240281Y-157711866D01*
X113257524Y-157724654D01*
X113273430Y-157739070D01*
X113287846Y-157754976D01*
X113300634Y-157772219D01*
X113311670Y-157790632D01*
X113320849Y-157810038D01*
X113328081Y-157830250D01*
X113333297Y-157851074D01*
X113336447Y-157872309D01*
X113337500Y-157893750D01*
X113337500Y-158406250D01*
X113336447Y-158427691D01*
X113333297Y-158448926D01*
X113328081Y-158469750D01*
X113320849Y-158489962D01*
X113311670Y-158509368D01*
X113300634Y-158527781D01*
X113287846Y-158545024D01*
X113273430Y-158560930D01*
X113257524Y-158575346D01*
X113240281Y-158588134D01*
X113221868Y-158599170D01*
X113202462Y-158608349D01*
X113182250Y-158615581D01*
X113161426Y-158620797D01*
X113140191Y-158623947D01*
X113118750Y-158625000D01*
X112681250Y-158625000D01*
X112659809Y-158623947D01*
X112638574Y-158620797D01*
X112617750Y-158615581D01*
X112597538Y-158608349D01*
X112578132Y-158599170D01*
X112559719Y-158588134D01*
X112542476Y-158575346D01*
X112526570Y-158560930D01*
X112512154Y-158545024D01*
X112499366Y-158527781D01*
X112488330Y-158509368D01*
X112479151Y-158489962D01*
X112471919Y-158469750D01*
X112466703Y-158448926D01*
X112463553Y-158427691D01*
X112462500Y-158406250D01*
X112462500Y-157893750D01*
X112463553Y-157872309D01*
X112466703Y-157851074D01*
X112471919Y-157830250D01*
X112479151Y-157810038D01*
X112488330Y-157790632D01*
X112499366Y-157772219D01*
X112512154Y-157754976D01*
X112526570Y-157739070D01*
X112542476Y-157724654D01*
X112559719Y-157711866D01*
X112578132Y-157700830D01*
X112597538Y-157691651D01*
X112617750Y-157684419D01*
X112638574Y-157679203D01*
X112659809Y-157676053D01*
X112681250Y-157675000D01*
X113118750Y-157675000D01*
X113140191Y-157676053D01*
X113140191Y-157676053D01*
G37*
D13*
X112900000Y-158150000D03*
D14*
X108850000Y-147050000D03*
X108850000Y-149350000D03*
X108850000Y-151650000D03*
D15*
X115150000Y-149350000D03*
X126850000Y-149250000D03*
D14*
X120550000Y-151550000D03*
X120550000Y-149250000D03*
X120550000Y-146950000D03*
D12*
G36*
X123715191Y-155376053D02*
G01*
X123736426Y-155379203D01*
X123757250Y-155384419D01*
X123777462Y-155391651D01*
X123796868Y-155400830D01*
X123815281Y-155411866D01*
X123832524Y-155424654D01*
X123848430Y-155439070D01*
X123862846Y-155454976D01*
X123875634Y-155472219D01*
X123886670Y-155490632D01*
X123895849Y-155510038D01*
X123903081Y-155530250D01*
X123908297Y-155551074D01*
X123911447Y-155572309D01*
X123912500Y-155593750D01*
X123912500Y-156106250D01*
X123911447Y-156127691D01*
X123908297Y-156148926D01*
X123903081Y-156169750D01*
X123895849Y-156189962D01*
X123886670Y-156209368D01*
X123875634Y-156227781D01*
X123862846Y-156245024D01*
X123848430Y-156260930D01*
X123832524Y-156275346D01*
X123815281Y-156288134D01*
X123796868Y-156299170D01*
X123777462Y-156308349D01*
X123757250Y-156315581D01*
X123736426Y-156320797D01*
X123715191Y-156323947D01*
X123693750Y-156325000D01*
X123256250Y-156325000D01*
X123234809Y-156323947D01*
X123213574Y-156320797D01*
X123192750Y-156315581D01*
X123172538Y-156308349D01*
X123153132Y-156299170D01*
X123134719Y-156288134D01*
X123117476Y-156275346D01*
X123101570Y-156260930D01*
X123087154Y-156245024D01*
X123074366Y-156227781D01*
X123063330Y-156209368D01*
X123054151Y-156189962D01*
X123046919Y-156169750D01*
X123041703Y-156148926D01*
X123038553Y-156127691D01*
X123037500Y-156106250D01*
X123037500Y-155593750D01*
X123038553Y-155572309D01*
X123041703Y-155551074D01*
X123046919Y-155530250D01*
X123054151Y-155510038D01*
X123063330Y-155490632D01*
X123074366Y-155472219D01*
X123087154Y-155454976D01*
X123101570Y-155439070D01*
X123117476Y-155424654D01*
X123134719Y-155411866D01*
X123153132Y-155400830D01*
X123172538Y-155391651D01*
X123192750Y-155384419D01*
X123213574Y-155379203D01*
X123234809Y-155376053D01*
X123256250Y-155375000D01*
X123693750Y-155375000D01*
X123715191Y-155376053D01*
X123715191Y-155376053D01*
G37*
D13*
X123475000Y-155850000D03*
D12*
G36*
X125290191Y-155376053D02*
G01*
X125311426Y-155379203D01*
X125332250Y-155384419D01*
X125352462Y-155391651D01*
X125371868Y-155400830D01*
X125390281Y-155411866D01*
X125407524Y-155424654D01*
X125423430Y-155439070D01*
X125437846Y-155454976D01*
X125450634Y-155472219D01*
X125461670Y-155490632D01*
X125470849Y-155510038D01*
X125478081Y-155530250D01*
X125483297Y-155551074D01*
X125486447Y-155572309D01*
X125487500Y-155593750D01*
X125487500Y-156106250D01*
X125486447Y-156127691D01*
X125483297Y-156148926D01*
X125478081Y-156169750D01*
X125470849Y-156189962D01*
X125461670Y-156209368D01*
X125450634Y-156227781D01*
X125437846Y-156245024D01*
X125423430Y-156260930D01*
X125407524Y-156275346D01*
X125390281Y-156288134D01*
X125371868Y-156299170D01*
X125352462Y-156308349D01*
X125332250Y-156315581D01*
X125311426Y-156320797D01*
X125290191Y-156323947D01*
X125268750Y-156325000D01*
X124831250Y-156325000D01*
X124809809Y-156323947D01*
X124788574Y-156320797D01*
X124767750Y-156315581D01*
X124747538Y-156308349D01*
X124728132Y-156299170D01*
X124709719Y-156288134D01*
X124692476Y-156275346D01*
X124676570Y-156260930D01*
X124662154Y-156245024D01*
X124649366Y-156227781D01*
X124638330Y-156209368D01*
X124629151Y-156189962D01*
X124621919Y-156169750D01*
X124616703Y-156148926D01*
X124613553Y-156127691D01*
X124612500Y-156106250D01*
X124612500Y-155593750D01*
X124613553Y-155572309D01*
X124616703Y-155551074D01*
X124621919Y-155530250D01*
X124629151Y-155510038D01*
X124638330Y-155490632D01*
X124649366Y-155472219D01*
X124662154Y-155454976D01*
X124676570Y-155439070D01*
X124692476Y-155424654D01*
X124709719Y-155411866D01*
X124728132Y-155400830D01*
X124747538Y-155391651D01*
X124767750Y-155384419D01*
X124788574Y-155379203D01*
X124809809Y-155376053D01*
X124831250Y-155375000D01*
X125268750Y-155375000D01*
X125290191Y-155376053D01*
X125290191Y-155376053D01*
G37*
D13*
X125050000Y-155850000D03*
D12*
G36*
X113127691Y-155376053D02*
G01*
X113148926Y-155379203D01*
X113169750Y-155384419D01*
X113189962Y-155391651D01*
X113209368Y-155400830D01*
X113227781Y-155411866D01*
X113245024Y-155424654D01*
X113260930Y-155439070D01*
X113275346Y-155454976D01*
X113288134Y-155472219D01*
X113299170Y-155490632D01*
X113308349Y-155510038D01*
X113315581Y-155530250D01*
X113320797Y-155551074D01*
X113323947Y-155572309D01*
X113325000Y-155593750D01*
X113325000Y-156106250D01*
X113323947Y-156127691D01*
X113320797Y-156148926D01*
X113315581Y-156169750D01*
X113308349Y-156189962D01*
X113299170Y-156209368D01*
X113288134Y-156227781D01*
X113275346Y-156245024D01*
X113260930Y-156260930D01*
X113245024Y-156275346D01*
X113227781Y-156288134D01*
X113209368Y-156299170D01*
X113189962Y-156308349D01*
X113169750Y-156315581D01*
X113148926Y-156320797D01*
X113127691Y-156323947D01*
X113106250Y-156325000D01*
X112668750Y-156325000D01*
X112647309Y-156323947D01*
X112626074Y-156320797D01*
X112605250Y-156315581D01*
X112585038Y-156308349D01*
X112565632Y-156299170D01*
X112547219Y-156288134D01*
X112529976Y-156275346D01*
X112514070Y-156260930D01*
X112499654Y-156245024D01*
X112486866Y-156227781D01*
X112475830Y-156209368D01*
X112466651Y-156189962D01*
X112459419Y-156169750D01*
X112454203Y-156148926D01*
X112451053Y-156127691D01*
X112450000Y-156106250D01*
X112450000Y-155593750D01*
X112451053Y-155572309D01*
X112454203Y-155551074D01*
X112459419Y-155530250D01*
X112466651Y-155510038D01*
X112475830Y-155490632D01*
X112486866Y-155472219D01*
X112499654Y-155454976D01*
X112514070Y-155439070D01*
X112529976Y-155424654D01*
X112547219Y-155411866D01*
X112565632Y-155400830D01*
X112585038Y-155391651D01*
X112605250Y-155384419D01*
X112626074Y-155379203D01*
X112647309Y-155376053D01*
X112668750Y-155375000D01*
X113106250Y-155375000D01*
X113127691Y-155376053D01*
X113127691Y-155376053D01*
G37*
D13*
X112887500Y-155850000D03*
D12*
G36*
X111552691Y-155376053D02*
G01*
X111573926Y-155379203D01*
X111594750Y-155384419D01*
X111614962Y-155391651D01*
X111634368Y-155400830D01*
X111652781Y-155411866D01*
X111670024Y-155424654D01*
X111685930Y-155439070D01*
X111700346Y-155454976D01*
X111713134Y-155472219D01*
X111724170Y-155490632D01*
X111733349Y-155510038D01*
X111740581Y-155530250D01*
X111745797Y-155551074D01*
X111748947Y-155572309D01*
X111750000Y-155593750D01*
X111750000Y-156106250D01*
X111748947Y-156127691D01*
X111745797Y-156148926D01*
X111740581Y-156169750D01*
X111733349Y-156189962D01*
X111724170Y-156209368D01*
X111713134Y-156227781D01*
X111700346Y-156245024D01*
X111685930Y-156260930D01*
X111670024Y-156275346D01*
X111652781Y-156288134D01*
X111634368Y-156299170D01*
X111614962Y-156308349D01*
X111594750Y-156315581D01*
X111573926Y-156320797D01*
X111552691Y-156323947D01*
X111531250Y-156325000D01*
X111093750Y-156325000D01*
X111072309Y-156323947D01*
X111051074Y-156320797D01*
X111030250Y-156315581D01*
X111010038Y-156308349D01*
X110990632Y-156299170D01*
X110972219Y-156288134D01*
X110954976Y-156275346D01*
X110939070Y-156260930D01*
X110924654Y-156245024D01*
X110911866Y-156227781D01*
X110900830Y-156209368D01*
X110891651Y-156189962D01*
X110884419Y-156169750D01*
X110879203Y-156148926D01*
X110876053Y-156127691D01*
X110875000Y-156106250D01*
X110875000Y-155593750D01*
X110876053Y-155572309D01*
X110879203Y-155551074D01*
X110884419Y-155530250D01*
X110891651Y-155510038D01*
X110900830Y-155490632D01*
X110911866Y-155472219D01*
X110924654Y-155454976D01*
X110939070Y-155439070D01*
X110954976Y-155424654D01*
X110972219Y-155411866D01*
X110990632Y-155400830D01*
X111010038Y-155391651D01*
X111030250Y-155384419D01*
X111051074Y-155379203D01*
X111072309Y-155376053D01*
X111093750Y-155375000D01*
X111531250Y-155375000D01*
X111552691Y-155376053D01*
X111552691Y-155376053D01*
G37*
D13*
X111312500Y-155850000D03*
D12*
G36*
X138227691Y-107238553D02*
G01*
X138248926Y-107241703D01*
X138269750Y-107246919D01*
X138289962Y-107254151D01*
X138309368Y-107263330D01*
X138327781Y-107274366D01*
X138345024Y-107287154D01*
X138360930Y-107301570D01*
X138375346Y-107317476D01*
X138388134Y-107334719D01*
X138399170Y-107353132D01*
X138408349Y-107372538D01*
X138415581Y-107392750D01*
X138420797Y-107413574D01*
X138423947Y-107434809D01*
X138425000Y-107456250D01*
X138425000Y-107893750D01*
X138423947Y-107915191D01*
X138420797Y-107936426D01*
X138415581Y-107957250D01*
X138408349Y-107977462D01*
X138399170Y-107996868D01*
X138388134Y-108015281D01*
X138375346Y-108032524D01*
X138360930Y-108048430D01*
X138345024Y-108062846D01*
X138327781Y-108075634D01*
X138309368Y-108086670D01*
X138289962Y-108095849D01*
X138269750Y-108103081D01*
X138248926Y-108108297D01*
X138227691Y-108111447D01*
X138206250Y-108112500D01*
X137693750Y-108112500D01*
X137672309Y-108111447D01*
X137651074Y-108108297D01*
X137630250Y-108103081D01*
X137610038Y-108095849D01*
X137590632Y-108086670D01*
X137572219Y-108075634D01*
X137554976Y-108062846D01*
X137539070Y-108048430D01*
X137524654Y-108032524D01*
X137511866Y-108015281D01*
X137500830Y-107996868D01*
X137491651Y-107977462D01*
X137484419Y-107957250D01*
X137479203Y-107936426D01*
X137476053Y-107915191D01*
X137475000Y-107893750D01*
X137475000Y-107456250D01*
X137476053Y-107434809D01*
X137479203Y-107413574D01*
X137484419Y-107392750D01*
X137491651Y-107372538D01*
X137500830Y-107353132D01*
X137511866Y-107334719D01*
X137524654Y-107317476D01*
X137539070Y-107301570D01*
X137554976Y-107287154D01*
X137572219Y-107274366D01*
X137590632Y-107263330D01*
X137610038Y-107254151D01*
X137630250Y-107246919D01*
X137651074Y-107241703D01*
X137672309Y-107238553D01*
X137693750Y-107237500D01*
X138206250Y-107237500D01*
X138227691Y-107238553D01*
X138227691Y-107238553D01*
G37*
D13*
X137950000Y-107675000D03*
D12*
G36*
X138227691Y-108813553D02*
G01*
X138248926Y-108816703D01*
X138269750Y-108821919D01*
X138289962Y-108829151D01*
X138309368Y-108838330D01*
X138327781Y-108849366D01*
X138345024Y-108862154D01*
X138360930Y-108876570D01*
X138375346Y-108892476D01*
X138388134Y-108909719D01*
X138399170Y-108928132D01*
X138408349Y-108947538D01*
X138415581Y-108967750D01*
X138420797Y-108988574D01*
X138423947Y-109009809D01*
X138425000Y-109031250D01*
X138425000Y-109468750D01*
X138423947Y-109490191D01*
X138420797Y-109511426D01*
X138415581Y-109532250D01*
X138408349Y-109552462D01*
X138399170Y-109571868D01*
X138388134Y-109590281D01*
X138375346Y-109607524D01*
X138360930Y-109623430D01*
X138345024Y-109637846D01*
X138327781Y-109650634D01*
X138309368Y-109661670D01*
X138289962Y-109670849D01*
X138269750Y-109678081D01*
X138248926Y-109683297D01*
X138227691Y-109686447D01*
X138206250Y-109687500D01*
X137693750Y-109687500D01*
X137672309Y-109686447D01*
X137651074Y-109683297D01*
X137630250Y-109678081D01*
X137610038Y-109670849D01*
X137590632Y-109661670D01*
X137572219Y-109650634D01*
X137554976Y-109637846D01*
X137539070Y-109623430D01*
X137524654Y-109607524D01*
X137511866Y-109590281D01*
X137500830Y-109571868D01*
X137491651Y-109552462D01*
X137484419Y-109532250D01*
X137479203Y-109511426D01*
X137476053Y-109490191D01*
X137475000Y-109468750D01*
X137475000Y-109031250D01*
X137476053Y-109009809D01*
X137479203Y-108988574D01*
X137484419Y-108967750D01*
X137491651Y-108947538D01*
X137500830Y-108928132D01*
X137511866Y-108909719D01*
X137524654Y-108892476D01*
X137539070Y-108876570D01*
X137554976Y-108862154D01*
X137572219Y-108849366D01*
X137590632Y-108838330D01*
X137610038Y-108829151D01*
X137630250Y-108821919D01*
X137651074Y-108816703D01*
X137672309Y-108813553D01*
X137693750Y-108812500D01*
X138206250Y-108812500D01*
X138227691Y-108813553D01*
X138227691Y-108813553D01*
G37*
D13*
X137950000Y-109250000D03*
D12*
G36*
X136727691Y-157751053D02*
G01*
X136748926Y-157754203D01*
X136769750Y-157759419D01*
X136789962Y-157766651D01*
X136809368Y-157775830D01*
X136827781Y-157786866D01*
X136845024Y-157799654D01*
X136860930Y-157814070D01*
X136875346Y-157829976D01*
X136888134Y-157847219D01*
X136899170Y-157865632D01*
X136908349Y-157885038D01*
X136915581Y-157905250D01*
X136920797Y-157926074D01*
X136923947Y-157947309D01*
X136925000Y-157968750D01*
X136925000Y-158406250D01*
X136923947Y-158427691D01*
X136920797Y-158448926D01*
X136915581Y-158469750D01*
X136908349Y-158489962D01*
X136899170Y-158509368D01*
X136888134Y-158527781D01*
X136875346Y-158545024D01*
X136860930Y-158560930D01*
X136845024Y-158575346D01*
X136827781Y-158588134D01*
X136809368Y-158599170D01*
X136789962Y-158608349D01*
X136769750Y-158615581D01*
X136748926Y-158620797D01*
X136727691Y-158623947D01*
X136706250Y-158625000D01*
X136193750Y-158625000D01*
X136172309Y-158623947D01*
X136151074Y-158620797D01*
X136130250Y-158615581D01*
X136110038Y-158608349D01*
X136090632Y-158599170D01*
X136072219Y-158588134D01*
X136054976Y-158575346D01*
X136039070Y-158560930D01*
X136024654Y-158545024D01*
X136011866Y-158527781D01*
X136000830Y-158509368D01*
X135991651Y-158489962D01*
X135984419Y-158469750D01*
X135979203Y-158448926D01*
X135976053Y-158427691D01*
X135975000Y-158406250D01*
X135975000Y-157968750D01*
X135976053Y-157947309D01*
X135979203Y-157926074D01*
X135984419Y-157905250D01*
X135991651Y-157885038D01*
X136000830Y-157865632D01*
X136011866Y-157847219D01*
X136024654Y-157829976D01*
X136039070Y-157814070D01*
X136054976Y-157799654D01*
X136072219Y-157786866D01*
X136090632Y-157775830D01*
X136110038Y-157766651D01*
X136130250Y-157759419D01*
X136151074Y-157754203D01*
X136172309Y-157751053D01*
X136193750Y-157750000D01*
X136706250Y-157750000D01*
X136727691Y-157751053D01*
X136727691Y-157751053D01*
G37*
D13*
X136450000Y-158187500D03*
D12*
G36*
X136727691Y-156176053D02*
G01*
X136748926Y-156179203D01*
X136769750Y-156184419D01*
X136789962Y-156191651D01*
X136809368Y-156200830D01*
X136827781Y-156211866D01*
X136845024Y-156224654D01*
X136860930Y-156239070D01*
X136875346Y-156254976D01*
X136888134Y-156272219D01*
X136899170Y-156290632D01*
X136908349Y-156310038D01*
X136915581Y-156330250D01*
X136920797Y-156351074D01*
X136923947Y-156372309D01*
X136925000Y-156393750D01*
X136925000Y-156831250D01*
X136923947Y-156852691D01*
X136920797Y-156873926D01*
X136915581Y-156894750D01*
X136908349Y-156914962D01*
X136899170Y-156934368D01*
X136888134Y-156952781D01*
X136875346Y-156970024D01*
X136860930Y-156985930D01*
X136845024Y-157000346D01*
X136827781Y-157013134D01*
X136809368Y-157024170D01*
X136789962Y-157033349D01*
X136769750Y-157040581D01*
X136748926Y-157045797D01*
X136727691Y-157048947D01*
X136706250Y-157050000D01*
X136193750Y-157050000D01*
X136172309Y-157048947D01*
X136151074Y-157045797D01*
X136130250Y-157040581D01*
X136110038Y-157033349D01*
X136090632Y-157024170D01*
X136072219Y-157013134D01*
X136054976Y-157000346D01*
X136039070Y-156985930D01*
X136024654Y-156970024D01*
X136011866Y-156952781D01*
X136000830Y-156934368D01*
X135991651Y-156914962D01*
X135984419Y-156894750D01*
X135979203Y-156873926D01*
X135976053Y-156852691D01*
X135975000Y-156831250D01*
X135975000Y-156393750D01*
X135976053Y-156372309D01*
X135979203Y-156351074D01*
X135984419Y-156330250D01*
X135991651Y-156310038D01*
X136000830Y-156290632D01*
X136011866Y-156272219D01*
X136024654Y-156254976D01*
X136039070Y-156239070D01*
X136054976Y-156224654D01*
X136072219Y-156211866D01*
X136090632Y-156200830D01*
X136110038Y-156191651D01*
X136130250Y-156184419D01*
X136151074Y-156179203D01*
X136172309Y-156176053D01*
X136193750Y-156175000D01*
X136706250Y-156175000D01*
X136727691Y-156176053D01*
X136727691Y-156176053D01*
G37*
D13*
X136450000Y-156612500D03*
D12*
G36*
X144777691Y-154138553D02*
G01*
X144798926Y-154141703D01*
X144819750Y-154146919D01*
X144839962Y-154154151D01*
X144859368Y-154163330D01*
X144877781Y-154174366D01*
X144895024Y-154187154D01*
X144910930Y-154201570D01*
X144925346Y-154217476D01*
X144938134Y-154234719D01*
X144949170Y-154253132D01*
X144958349Y-154272538D01*
X144965581Y-154292750D01*
X144970797Y-154313574D01*
X144973947Y-154334809D01*
X144975000Y-154356250D01*
X144975000Y-154793750D01*
X144973947Y-154815191D01*
X144970797Y-154836426D01*
X144965581Y-154857250D01*
X144958349Y-154877462D01*
X144949170Y-154896868D01*
X144938134Y-154915281D01*
X144925346Y-154932524D01*
X144910930Y-154948430D01*
X144895024Y-154962846D01*
X144877781Y-154975634D01*
X144859368Y-154986670D01*
X144839962Y-154995849D01*
X144819750Y-155003081D01*
X144798926Y-155008297D01*
X144777691Y-155011447D01*
X144756250Y-155012500D01*
X144243750Y-155012500D01*
X144222309Y-155011447D01*
X144201074Y-155008297D01*
X144180250Y-155003081D01*
X144160038Y-154995849D01*
X144140632Y-154986670D01*
X144122219Y-154975634D01*
X144104976Y-154962846D01*
X144089070Y-154948430D01*
X144074654Y-154932524D01*
X144061866Y-154915281D01*
X144050830Y-154896868D01*
X144041651Y-154877462D01*
X144034419Y-154857250D01*
X144029203Y-154836426D01*
X144026053Y-154815191D01*
X144025000Y-154793750D01*
X144025000Y-154356250D01*
X144026053Y-154334809D01*
X144029203Y-154313574D01*
X144034419Y-154292750D01*
X144041651Y-154272538D01*
X144050830Y-154253132D01*
X144061866Y-154234719D01*
X144074654Y-154217476D01*
X144089070Y-154201570D01*
X144104976Y-154187154D01*
X144122219Y-154174366D01*
X144140632Y-154163330D01*
X144160038Y-154154151D01*
X144180250Y-154146919D01*
X144201074Y-154141703D01*
X144222309Y-154138553D01*
X144243750Y-154137500D01*
X144756250Y-154137500D01*
X144777691Y-154138553D01*
X144777691Y-154138553D01*
G37*
D13*
X144500000Y-154575000D03*
D12*
G36*
X144777691Y-155713553D02*
G01*
X144798926Y-155716703D01*
X144819750Y-155721919D01*
X144839962Y-155729151D01*
X144859368Y-155738330D01*
X144877781Y-155749366D01*
X144895024Y-155762154D01*
X144910930Y-155776570D01*
X144925346Y-155792476D01*
X144938134Y-155809719D01*
X144949170Y-155828132D01*
X144958349Y-155847538D01*
X144965581Y-155867750D01*
X144970797Y-155888574D01*
X144973947Y-155909809D01*
X144975000Y-155931250D01*
X144975000Y-156368750D01*
X144973947Y-156390191D01*
X144970797Y-156411426D01*
X144965581Y-156432250D01*
X144958349Y-156452462D01*
X144949170Y-156471868D01*
X144938134Y-156490281D01*
X144925346Y-156507524D01*
X144910930Y-156523430D01*
X144895024Y-156537846D01*
X144877781Y-156550634D01*
X144859368Y-156561670D01*
X144839962Y-156570849D01*
X144819750Y-156578081D01*
X144798926Y-156583297D01*
X144777691Y-156586447D01*
X144756250Y-156587500D01*
X144243750Y-156587500D01*
X144222309Y-156586447D01*
X144201074Y-156583297D01*
X144180250Y-156578081D01*
X144160038Y-156570849D01*
X144140632Y-156561670D01*
X144122219Y-156550634D01*
X144104976Y-156537846D01*
X144089070Y-156523430D01*
X144074654Y-156507524D01*
X144061866Y-156490281D01*
X144050830Y-156471868D01*
X144041651Y-156452462D01*
X144034419Y-156432250D01*
X144029203Y-156411426D01*
X144026053Y-156390191D01*
X144025000Y-156368750D01*
X144025000Y-155931250D01*
X144026053Y-155909809D01*
X144029203Y-155888574D01*
X144034419Y-155867750D01*
X144041651Y-155847538D01*
X144050830Y-155828132D01*
X144061866Y-155809719D01*
X144074654Y-155792476D01*
X144089070Y-155776570D01*
X144104976Y-155762154D01*
X144122219Y-155749366D01*
X144140632Y-155738330D01*
X144160038Y-155729151D01*
X144180250Y-155721919D01*
X144201074Y-155716703D01*
X144222309Y-155713553D01*
X144243750Y-155712500D01*
X144756250Y-155712500D01*
X144777691Y-155713553D01*
X144777691Y-155713553D01*
G37*
D13*
X144500000Y-156150000D03*
D12*
G36*
X150727691Y-143326053D02*
G01*
X150748926Y-143329203D01*
X150769750Y-143334419D01*
X150789962Y-143341651D01*
X150809368Y-143350830D01*
X150827781Y-143361866D01*
X150845024Y-143374654D01*
X150860930Y-143389070D01*
X150875346Y-143404976D01*
X150888134Y-143422219D01*
X150899170Y-143440632D01*
X150908349Y-143460038D01*
X150915581Y-143480250D01*
X150920797Y-143501074D01*
X150923947Y-143522309D01*
X150925000Y-143543750D01*
X150925000Y-143981250D01*
X150923947Y-144002691D01*
X150920797Y-144023926D01*
X150915581Y-144044750D01*
X150908349Y-144064962D01*
X150899170Y-144084368D01*
X150888134Y-144102781D01*
X150875346Y-144120024D01*
X150860930Y-144135930D01*
X150845024Y-144150346D01*
X150827781Y-144163134D01*
X150809368Y-144174170D01*
X150789962Y-144183349D01*
X150769750Y-144190581D01*
X150748926Y-144195797D01*
X150727691Y-144198947D01*
X150706250Y-144200000D01*
X150193750Y-144200000D01*
X150172309Y-144198947D01*
X150151074Y-144195797D01*
X150130250Y-144190581D01*
X150110038Y-144183349D01*
X150090632Y-144174170D01*
X150072219Y-144163134D01*
X150054976Y-144150346D01*
X150039070Y-144135930D01*
X150024654Y-144120024D01*
X150011866Y-144102781D01*
X150000830Y-144084368D01*
X149991651Y-144064962D01*
X149984419Y-144044750D01*
X149979203Y-144023926D01*
X149976053Y-144002691D01*
X149975000Y-143981250D01*
X149975000Y-143543750D01*
X149976053Y-143522309D01*
X149979203Y-143501074D01*
X149984419Y-143480250D01*
X149991651Y-143460038D01*
X150000830Y-143440632D01*
X150011866Y-143422219D01*
X150024654Y-143404976D01*
X150039070Y-143389070D01*
X150054976Y-143374654D01*
X150072219Y-143361866D01*
X150090632Y-143350830D01*
X150110038Y-143341651D01*
X150130250Y-143334419D01*
X150151074Y-143329203D01*
X150172309Y-143326053D01*
X150193750Y-143325000D01*
X150706250Y-143325000D01*
X150727691Y-143326053D01*
X150727691Y-143326053D01*
G37*
D13*
X150450000Y-143762500D03*
D12*
G36*
X150727691Y-144901053D02*
G01*
X150748926Y-144904203D01*
X150769750Y-144909419D01*
X150789962Y-144916651D01*
X150809368Y-144925830D01*
X150827781Y-144936866D01*
X150845024Y-144949654D01*
X150860930Y-144964070D01*
X150875346Y-144979976D01*
X150888134Y-144997219D01*
X150899170Y-145015632D01*
X150908349Y-145035038D01*
X150915581Y-145055250D01*
X150920797Y-145076074D01*
X150923947Y-145097309D01*
X150925000Y-145118750D01*
X150925000Y-145556250D01*
X150923947Y-145577691D01*
X150920797Y-145598926D01*
X150915581Y-145619750D01*
X150908349Y-145639962D01*
X150899170Y-145659368D01*
X150888134Y-145677781D01*
X150875346Y-145695024D01*
X150860930Y-145710930D01*
X150845024Y-145725346D01*
X150827781Y-145738134D01*
X150809368Y-145749170D01*
X150789962Y-145758349D01*
X150769750Y-145765581D01*
X150748926Y-145770797D01*
X150727691Y-145773947D01*
X150706250Y-145775000D01*
X150193750Y-145775000D01*
X150172309Y-145773947D01*
X150151074Y-145770797D01*
X150130250Y-145765581D01*
X150110038Y-145758349D01*
X150090632Y-145749170D01*
X150072219Y-145738134D01*
X150054976Y-145725346D01*
X150039070Y-145710930D01*
X150024654Y-145695024D01*
X150011866Y-145677781D01*
X150000830Y-145659368D01*
X149991651Y-145639962D01*
X149984419Y-145619750D01*
X149979203Y-145598926D01*
X149976053Y-145577691D01*
X149975000Y-145556250D01*
X149975000Y-145118750D01*
X149976053Y-145097309D01*
X149979203Y-145076074D01*
X149984419Y-145055250D01*
X149991651Y-145035038D01*
X150000830Y-145015632D01*
X150011866Y-144997219D01*
X150024654Y-144979976D01*
X150039070Y-144964070D01*
X150054976Y-144949654D01*
X150072219Y-144936866D01*
X150090632Y-144925830D01*
X150110038Y-144916651D01*
X150130250Y-144909419D01*
X150151074Y-144904203D01*
X150172309Y-144901053D01*
X150193750Y-144900000D01*
X150706250Y-144900000D01*
X150727691Y-144901053D01*
X150727691Y-144901053D01*
G37*
D13*
X150450000Y-145337500D03*
D12*
G36*
X150727691Y-146526053D02*
G01*
X150748926Y-146529203D01*
X150769750Y-146534419D01*
X150789962Y-146541651D01*
X150809368Y-146550830D01*
X150827781Y-146561866D01*
X150845024Y-146574654D01*
X150860930Y-146589070D01*
X150875346Y-146604976D01*
X150888134Y-146622219D01*
X150899170Y-146640632D01*
X150908349Y-146660038D01*
X150915581Y-146680250D01*
X150920797Y-146701074D01*
X150923947Y-146722309D01*
X150925000Y-146743750D01*
X150925000Y-147181250D01*
X150923947Y-147202691D01*
X150920797Y-147223926D01*
X150915581Y-147244750D01*
X150908349Y-147264962D01*
X150899170Y-147284368D01*
X150888134Y-147302781D01*
X150875346Y-147320024D01*
X150860930Y-147335930D01*
X150845024Y-147350346D01*
X150827781Y-147363134D01*
X150809368Y-147374170D01*
X150789962Y-147383349D01*
X150769750Y-147390581D01*
X150748926Y-147395797D01*
X150727691Y-147398947D01*
X150706250Y-147400000D01*
X150193750Y-147400000D01*
X150172309Y-147398947D01*
X150151074Y-147395797D01*
X150130250Y-147390581D01*
X150110038Y-147383349D01*
X150090632Y-147374170D01*
X150072219Y-147363134D01*
X150054976Y-147350346D01*
X150039070Y-147335930D01*
X150024654Y-147320024D01*
X150011866Y-147302781D01*
X150000830Y-147284368D01*
X149991651Y-147264962D01*
X149984419Y-147244750D01*
X149979203Y-147223926D01*
X149976053Y-147202691D01*
X149975000Y-147181250D01*
X149975000Y-146743750D01*
X149976053Y-146722309D01*
X149979203Y-146701074D01*
X149984419Y-146680250D01*
X149991651Y-146660038D01*
X150000830Y-146640632D01*
X150011866Y-146622219D01*
X150024654Y-146604976D01*
X150039070Y-146589070D01*
X150054976Y-146574654D01*
X150072219Y-146561866D01*
X150090632Y-146550830D01*
X150110038Y-146541651D01*
X150130250Y-146534419D01*
X150151074Y-146529203D01*
X150172309Y-146526053D01*
X150193750Y-146525000D01*
X150706250Y-146525000D01*
X150727691Y-146526053D01*
X150727691Y-146526053D01*
G37*
D13*
X150450000Y-146962500D03*
D12*
G36*
X150727691Y-148101053D02*
G01*
X150748926Y-148104203D01*
X150769750Y-148109419D01*
X150789962Y-148116651D01*
X150809368Y-148125830D01*
X150827781Y-148136866D01*
X150845024Y-148149654D01*
X150860930Y-148164070D01*
X150875346Y-148179976D01*
X150888134Y-148197219D01*
X150899170Y-148215632D01*
X150908349Y-148235038D01*
X150915581Y-148255250D01*
X150920797Y-148276074D01*
X150923947Y-148297309D01*
X150925000Y-148318750D01*
X150925000Y-148756250D01*
X150923947Y-148777691D01*
X150920797Y-148798926D01*
X150915581Y-148819750D01*
X150908349Y-148839962D01*
X150899170Y-148859368D01*
X150888134Y-148877781D01*
X150875346Y-148895024D01*
X150860930Y-148910930D01*
X150845024Y-148925346D01*
X150827781Y-148938134D01*
X150809368Y-148949170D01*
X150789962Y-148958349D01*
X150769750Y-148965581D01*
X150748926Y-148970797D01*
X150727691Y-148973947D01*
X150706250Y-148975000D01*
X150193750Y-148975000D01*
X150172309Y-148973947D01*
X150151074Y-148970797D01*
X150130250Y-148965581D01*
X150110038Y-148958349D01*
X150090632Y-148949170D01*
X150072219Y-148938134D01*
X150054976Y-148925346D01*
X150039070Y-148910930D01*
X150024654Y-148895024D01*
X150011866Y-148877781D01*
X150000830Y-148859368D01*
X149991651Y-148839962D01*
X149984419Y-148819750D01*
X149979203Y-148798926D01*
X149976053Y-148777691D01*
X149975000Y-148756250D01*
X149975000Y-148318750D01*
X149976053Y-148297309D01*
X149979203Y-148276074D01*
X149984419Y-148255250D01*
X149991651Y-148235038D01*
X150000830Y-148215632D01*
X150011866Y-148197219D01*
X150024654Y-148179976D01*
X150039070Y-148164070D01*
X150054976Y-148149654D01*
X150072219Y-148136866D01*
X150090632Y-148125830D01*
X150110038Y-148116651D01*
X150130250Y-148109419D01*
X150151074Y-148104203D01*
X150172309Y-148101053D01*
X150193750Y-148100000D01*
X150706250Y-148100000D01*
X150727691Y-148101053D01*
X150727691Y-148101053D01*
G37*
D13*
X150450000Y-148537500D03*
D12*
G36*
X150727691Y-151288553D02*
G01*
X150748926Y-151291703D01*
X150769750Y-151296919D01*
X150789962Y-151304151D01*
X150809368Y-151313330D01*
X150827781Y-151324366D01*
X150845024Y-151337154D01*
X150860930Y-151351570D01*
X150875346Y-151367476D01*
X150888134Y-151384719D01*
X150899170Y-151403132D01*
X150908349Y-151422538D01*
X150915581Y-151442750D01*
X150920797Y-151463574D01*
X150923947Y-151484809D01*
X150925000Y-151506250D01*
X150925000Y-151943750D01*
X150923947Y-151965191D01*
X150920797Y-151986426D01*
X150915581Y-152007250D01*
X150908349Y-152027462D01*
X150899170Y-152046868D01*
X150888134Y-152065281D01*
X150875346Y-152082524D01*
X150860930Y-152098430D01*
X150845024Y-152112846D01*
X150827781Y-152125634D01*
X150809368Y-152136670D01*
X150789962Y-152145849D01*
X150769750Y-152153081D01*
X150748926Y-152158297D01*
X150727691Y-152161447D01*
X150706250Y-152162500D01*
X150193750Y-152162500D01*
X150172309Y-152161447D01*
X150151074Y-152158297D01*
X150130250Y-152153081D01*
X150110038Y-152145849D01*
X150090632Y-152136670D01*
X150072219Y-152125634D01*
X150054976Y-152112846D01*
X150039070Y-152098430D01*
X150024654Y-152082524D01*
X150011866Y-152065281D01*
X150000830Y-152046868D01*
X149991651Y-152027462D01*
X149984419Y-152007250D01*
X149979203Y-151986426D01*
X149976053Y-151965191D01*
X149975000Y-151943750D01*
X149975000Y-151506250D01*
X149976053Y-151484809D01*
X149979203Y-151463574D01*
X149984419Y-151442750D01*
X149991651Y-151422538D01*
X150000830Y-151403132D01*
X150011866Y-151384719D01*
X150024654Y-151367476D01*
X150039070Y-151351570D01*
X150054976Y-151337154D01*
X150072219Y-151324366D01*
X150090632Y-151313330D01*
X150110038Y-151304151D01*
X150130250Y-151296919D01*
X150151074Y-151291703D01*
X150172309Y-151288553D01*
X150193750Y-151287500D01*
X150706250Y-151287500D01*
X150727691Y-151288553D01*
X150727691Y-151288553D01*
G37*
D13*
X150450000Y-151725000D03*
D12*
G36*
X150727691Y-149713553D02*
G01*
X150748926Y-149716703D01*
X150769750Y-149721919D01*
X150789962Y-149729151D01*
X150809368Y-149738330D01*
X150827781Y-149749366D01*
X150845024Y-149762154D01*
X150860930Y-149776570D01*
X150875346Y-149792476D01*
X150888134Y-149809719D01*
X150899170Y-149828132D01*
X150908349Y-149847538D01*
X150915581Y-149867750D01*
X150920797Y-149888574D01*
X150923947Y-149909809D01*
X150925000Y-149931250D01*
X150925000Y-150368750D01*
X150923947Y-150390191D01*
X150920797Y-150411426D01*
X150915581Y-150432250D01*
X150908349Y-150452462D01*
X150899170Y-150471868D01*
X150888134Y-150490281D01*
X150875346Y-150507524D01*
X150860930Y-150523430D01*
X150845024Y-150537846D01*
X150827781Y-150550634D01*
X150809368Y-150561670D01*
X150789962Y-150570849D01*
X150769750Y-150578081D01*
X150748926Y-150583297D01*
X150727691Y-150586447D01*
X150706250Y-150587500D01*
X150193750Y-150587500D01*
X150172309Y-150586447D01*
X150151074Y-150583297D01*
X150130250Y-150578081D01*
X150110038Y-150570849D01*
X150090632Y-150561670D01*
X150072219Y-150550634D01*
X150054976Y-150537846D01*
X150039070Y-150523430D01*
X150024654Y-150507524D01*
X150011866Y-150490281D01*
X150000830Y-150471868D01*
X149991651Y-150452462D01*
X149984419Y-150432250D01*
X149979203Y-150411426D01*
X149976053Y-150390191D01*
X149975000Y-150368750D01*
X149975000Y-149931250D01*
X149976053Y-149909809D01*
X149979203Y-149888574D01*
X149984419Y-149867750D01*
X149991651Y-149847538D01*
X150000830Y-149828132D01*
X150011866Y-149809719D01*
X150024654Y-149792476D01*
X150039070Y-149776570D01*
X150054976Y-149762154D01*
X150072219Y-149749366D01*
X150090632Y-149738330D01*
X150110038Y-149729151D01*
X150130250Y-149721919D01*
X150151074Y-149716703D01*
X150172309Y-149713553D01*
X150193750Y-149712500D01*
X150706250Y-149712500D01*
X150727691Y-149713553D01*
X150727691Y-149713553D01*
G37*
D13*
X150450000Y-150150000D03*
D12*
G36*
X150727691Y-160813553D02*
G01*
X150748926Y-160816703D01*
X150769750Y-160821919D01*
X150789962Y-160829151D01*
X150809368Y-160838330D01*
X150827781Y-160849366D01*
X150845024Y-160862154D01*
X150860930Y-160876570D01*
X150875346Y-160892476D01*
X150888134Y-160909719D01*
X150899170Y-160928132D01*
X150908349Y-160947538D01*
X150915581Y-160967750D01*
X150920797Y-160988574D01*
X150923947Y-161009809D01*
X150925000Y-161031250D01*
X150925000Y-161468750D01*
X150923947Y-161490191D01*
X150920797Y-161511426D01*
X150915581Y-161532250D01*
X150908349Y-161552462D01*
X150899170Y-161571868D01*
X150888134Y-161590281D01*
X150875346Y-161607524D01*
X150860930Y-161623430D01*
X150845024Y-161637846D01*
X150827781Y-161650634D01*
X150809368Y-161661670D01*
X150789962Y-161670849D01*
X150769750Y-161678081D01*
X150748926Y-161683297D01*
X150727691Y-161686447D01*
X150706250Y-161687500D01*
X150193750Y-161687500D01*
X150172309Y-161686447D01*
X150151074Y-161683297D01*
X150130250Y-161678081D01*
X150110038Y-161670849D01*
X150090632Y-161661670D01*
X150072219Y-161650634D01*
X150054976Y-161637846D01*
X150039070Y-161623430D01*
X150024654Y-161607524D01*
X150011866Y-161590281D01*
X150000830Y-161571868D01*
X149991651Y-161552462D01*
X149984419Y-161532250D01*
X149979203Y-161511426D01*
X149976053Y-161490191D01*
X149975000Y-161468750D01*
X149975000Y-161031250D01*
X149976053Y-161009809D01*
X149979203Y-160988574D01*
X149984419Y-160967750D01*
X149991651Y-160947538D01*
X150000830Y-160928132D01*
X150011866Y-160909719D01*
X150024654Y-160892476D01*
X150039070Y-160876570D01*
X150054976Y-160862154D01*
X150072219Y-160849366D01*
X150090632Y-160838330D01*
X150110038Y-160829151D01*
X150130250Y-160821919D01*
X150151074Y-160816703D01*
X150172309Y-160813553D01*
X150193750Y-160812500D01*
X150706250Y-160812500D01*
X150727691Y-160813553D01*
X150727691Y-160813553D01*
G37*
D13*
X150450000Y-161250000D03*
D12*
G36*
X150727691Y-162388553D02*
G01*
X150748926Y-162391703D01*
X150769750Y-162396919D01*
X150789962Y-162404151D01*
X150809368Y-162413330D01*
X150827781Y-162424366D01*
X150845024Y-162437154D01*
X150860930Y-162451570D01*
X150875346Y-162467476D01*
X150888134Y-162484719D01*
X150899170Y-162503132D01*
X150908349Y-162522538D01*
X150915581Y-162542750D01*
X150920797Y-162563574D01*
X150923947Y-162584809D01*
X150925000Y-162606250D01*
X150925000Y-163043750D01*
X150923947Y-163065191D01*
X150920797Y-163086426D01*
X150915581Y-163107250D01*
X150908349Y-163127462D01*
X150899170Y-163146868D01*
X150888134Y-163165281D01*
X150875346Y-163182524D01*
X150860930Y-163198430D01*
X150845024Y-163212846D01*
X150827781Y-163225634D01*
X150809368Y-163236670D01*
X150789962Y-163245849D01*
X150769750Y-163253081D01*
X150748926Y-163258297D01*
X150727691Y-163261447D01*
X150706250Y-163262500D01*
X150193750Y-163262500D01*
X150172309Y-163261447D01*
X150151074Y-163258297D01*
X150130250Y-163253081D01*
X150110038Y-163245849D01*
X150090632Y-163236670D01*
X150072219Y-163225634D01*
X150054976Y-163212846D01*
X150039070Y-163198430D01*
X150024654Y-163182524D01*
X150011866Y-163165281D01*
X150000830Y-163146868D01*
X149991651Y-163127462D01*
X149984419Y-163107250D01*
X149979203Y-163086426D01*
X149976053Y-163065191D01*
X149975000Y-163043750D01*
X149975000Y-162606250D01*
X149976053Y-162584809D01*
X149979203Y-162563574D01*
X149984419Y-162542750D01*
X149991651Y-162522538D01*
X150000830Y-162503132D01*
X150011866Y-162484719D01*
X150024654Y-162467476D01*
X150039070Y-162451570D01*
X150054976Y-162437154D01*
X150072219Y-162424366D01*
X150090632Y-162413330D01*
X150110038Y-162404151D01*
X150130250Y-162396919D01*
X150151074Y-162391703D01*
X150172309Y-162388553D01*
X150193750Y-162387500D01*
X150706250Y-162387500D01*
X150727691Y-162388553D01*
X150727691Y-162388553D01*
G37*
D13*
X150450000Y-162825000D03*
D12*
G36*
X150727691Y-159088553D02*
G01*
X150748926Y-159091703D01*
X150769750Y-159096919D01*
X150789962Y-159104151D01*
X150809368Y-159113330D01*
X150827781Y-159124366D01*
X150845024Y-159137154D01*
X150860930Y-159151570D01*
X150875346Y-159167476D01*
X150888134Y-159184719D01*
X150899170Y-159203132D01*
X150908349Y-159222538D01*
X150915581Y-159242750D01*
X150920797Y-159263574D01*
X150923947Y-159284809D01*
X150925000Y-159306250D01*
X150925000Y-159743750D01*
X150923947Y-159765191D01*
X150920797Y-159786426D01*
X150915581Y-159807250D01*
X150908349Y-159827462D01*
X150899170Y-159846868D01*
X150888134Y-159865281D01*
X150875346Y-159882524D01*
X150860930Y-159898430D01*
X150845024Y-159912846D01*
X150827781Y-159925634D01*
X150809368Y-159936670D01*
X150789962Y-159945849D01*
X150769750Y-159953081D01*
X150748926Y-159958297D01*
X150727691Y-159961447D01*
X150706250Y-159962500D01*
X150193750Y-159962500D01*
X150172309Y-159961447D01*
X150151074Y-159958297D01*
X150130250Y-159953081D01*
X150110038Y-159945849D01*
X150090632Y-159936670D01*
X150072219Y-159925634D01*
X150054976Y-159912846D01*
X150039070Y-159898430D01*
X150024654Y-159882524D01*
X150011866Y-159865281D01*
X150000830Y-159846868D01*
X149991651Y-159827462D01*
X149984419Y-159807250D01*
X149979203Y-159786426D01*
X149976053Y-159765191D01*
X149975000Y-159743750D01*
X149975000Y-159306250D01*
X149976053Y-159284809D01*
X149979203Y-159263574D01*
X149984419Y-159242750D01*
X149991651Y-159222538D01*
X150000830Y-159203132D01*
X150011866Y-159184719D01*
X150024654Y-159167476D01*
X150039070Y-159151570D01*
X150054976Y-159137154D01*
X150072219Y-159124366D01*
X150090632Y-159113330D01*
X150110038Y-159104151D01*
X150130250Y-159096919D01*
X150151074Y-159091703D01*
X150172309Y-159088553D01*
X150193750Y-159087500D01*
X150706250Y-159087500D01*
X150727691Y-159088553D01*
X150727691Y-159088553D01*
G37*
D13*
X150450000Y-159525000D03*
D12*
G36*
X150727691Y-157513553D02*
G01*
X150748926Y-157516703D01*
X150769750Y-157521919D01*
X150789962Y-157529151D01*
X150809368Y-157538330D01*
X150827781Y-157549366D01*
X150845024Y-157562154D01*
X150860930Y-157576570D01*
X150875346Y-157592476D01*
X150888134Y-157609719D01*
X150899170Y-157628132D01*
X150908349Y-157647538D01*
X150915581Y-157667750D01*
X150920797Y-157688574D01*
X150923947Y-157709809D01*
X150925000Y-157731250D01*
X150925000Y-158168750D01*
X150923947Y-158190191D01*
X150920797Y-158211426D01*
X150915581Y-158232250D01*
X150908349Y-158252462D01*
X150899170Y-158271868D01*
X150888134Y-158290281D01*
X150875346Y-158307524D01*
X150860930Y-158323430D01*
X150845024Y-158337846D01*
X150827781Y-158350634D01*
X150809368Y-158361670D01*
X150789962Y-158370849D01*
X150769750Y-158378081D01*
X150748926Y-158383297D01*
X150727691Y-158386447D01*
X150706250Y-158387500D01*
X150193750Y-158387500D01*
X150172309Y-158386447D01*
X150151074Y-158383297D01*
X150130250Y-158378081D01*
X150110038Y-158370849D01*
X150090632Y-158361670D01*
X150072219Y-158350634D01*
X150054976Y-158337846D01*
X150039070Y-158323430D01*
X150024654Y-158307524D01*
X150011866Y-158290281D01*
X150000830Y-158271868D01*
X149991651Y-158252462D01*
X149984419Y-158232250D01*
X149979203Y-158211426D01*
X149976053Y-158190191D01*
X149975000Y-158168750D01*
X149975000Y-157731250D01*
X149976053Y-157709809D01*
X149979203Y-157688574D01*
X149984419Y-157667750D01*
X149991651Y-157647538D01*
X150000830Y-157628132D01*
X150011866Y-157609719D01*
X150024654Y-157592476D01*
X150039070Y-157576570D01*
X150054976Y-157562154D01*
X150072219Y-157549366D01*
X150090632Y-157538330D01*
X150110038Y-157529151D01*
X150130250Y-157521919D01*
X150151074Y-157516703D01*
X150172309Y-157513553D01*
X150193750Y-157512500D01*
X150706250Y-157512500D01*
X150727691Y-157513553D01*
X150727691Y-157513553D01*
G37*
D13*
X150450000Y-157950000D03*
D12*
G36*
X150727691Y-154213553D02*
G01*
X150748926Y-154216703D01*
X150769750Y-154221919D01*
X150789962Y-154229151D01*
X150809368Y-154238330D01*
X150827781Y-154249366D01*
X150845024Y-154262154D01*
X150860930Y-154276570D01*
X150875346Y-154292476D01*
X150888134Y-154309719D01*
X150899170Y-154328132D01*
X150908349Y-154347538D01*
X150915581Y-154367750D01*
X150920797Y-154388574D01*
X150923947Y-154409809D01*
X150925000Y-154431250D01*
X150925000Y-154868750D01*
X150923947Y-154890191D01*
X150920797Y-154911426D01*
X150915581Y-154932250D01*
X150908349Y-154952462D01*
X150899170Y-154971868D01*
X150888134Y-154990281D01*
X150875346Y-155007524D01*
X150860930Y-155023430D01*
X150845024Y-155037846D01*
X150827781Y-155050634D01*
X150809368Y-155061670D01*
X150789962Y-155070849D01*
X150769750Y-155078081D01*
X150748926Y-155083297D01*
X150727691Y-155086447D01*
X150706250Y-155087500D01*
X150193750Y-155087500D01*
X150172309Y-155086447D01*
X150151074Y-155083297D01*
X150130250Y-155078081D01*
X150110038Y-155070849D01*
X150090632Y-155061670D01*
X150072219Y-155050634D01*
X150054976Y-155037846D01*
X150039070Y-155023430D01*
X150024654Y-155007524D01*
X150011866Y-154990281D01*
X150000830Y-154971868D01*
X149991651Y-154952462D01*
X149984419Y-154932250D01*
X149979203Y-154911426D01*
X149976053Y-154890191D01*
X149975000Y-154868750D01*
X149975000Y-154431250D01*
X149976053Y-154409809D01*
X149979203Y-154388574D01*
X149984419Y-154367750D01*
X149991651Y-154347538D01*
X150000830Y-154328132D01*
X150011866Y-154309719D01*
X150024654Y-154292476D01*
X150039070Y-154276570D01*
X150054976Y-154262154D01*
X150072219Y-154249366D01*
X150090632Y-154238330D01*
X150110038Y-154229151D01*
X150130250Y-154221919D01*
X150151074Y-154216703D01*
X150172309Y-154213553D01*
X150193750Y-154212500D01*
X150706250Y-154212500D01*
X150727691Y-154213553D01*
X150727691Y-154213553D01*
G37*
D13*
X150450000Y-154650000D03*
D12*
G36*
X150727691Y-155788553D02*
G01*
X150748926Y-155791703D01*
X150769750Y-155796919D01*
X150789962Y-155804151D01*
X150809368Y-155813330D01*
X150827781Y-155824366D01*
X150845024Y-155837154D01*
X150860930Y-155851570D01*
X150875346Y-155867476D01*
X150888134Y-155884719D01*
X150899170Y-155903132D01*
X150908349Y-155922538D01*
X150915581Y-155942750D01*
X150920797Y-155963574D01*
X150923947Y-155984809D01*
X150925000Y-156006250D01*
X150925000Y-156443750D01*
X150923947Y-156465191D01*
X150920797Y-156486426D01*
X150915581Y-156507250D01*
X150908349Y-156527462D01*
X150899170Y-156546868D01*
X150888134Y-156565281D01*
X150875346Y-156582524D01*
X150860930Y-156598430D01*
X150845024Y-156612846D01*
X150827781Y-156625634D01*
X150809368Y-156636670D01*
X150789962Y-156645849D01*
X150769750Y-156653081D01*
X150748926Y-156658297D01*
X150727691Y-156661447D01*
X150706250Y-156662500D01*
X150193750Y-156662500D01*
X150172309Y-156661447D01*
X150151074Y-156658297D01*
X150130250Y-156653081D01*
X150110038Y-156645849D01*
X150090632Y-156636670D01*
X150072219Y-156625634D01*
X150054976Y-156612846D01*
X150039070Y-156598430D01*
X150024654Y-156582524D01*
X150011866Y-156565281D01*
X150000830Y-156546868D01*
X149991651Y-156527462D01*
X149984419Y-156507250D01*
X149979203Y-156486426D01*
X149976053Y-156465191D01*
X149975000Y-156443750D01*
X149975000Y-156006250D01*
X149976053Y-155984809D01*
X149979203Y-155963574D01*
X149984419Y-155942750D01*
X149991651Y-155922538D01*
X150000830Y-155903132D01*
X150011866Y-155884719D01*
X150024654Y-155867476D01*
X150039070Y-155851570D01*
X150054976Y-155837154D01*
X150072219Y-155824366D01*
X150090632Y-155813330D01*
X150110038Y-155804151D01*
X150130250Y-155796919D01*
X150151074Y-155791703D01*
X150172309Y-155788553D01*
X150193750Y-155787500D01*
X150706250Y-155787500D01*
X150727691Y-155788553D01*
X150727691Y-155788553D01*
G37*
D13*
X150450000Y-156225000D03*
D16*
X138500000Y-156650000D03*
X138500000Y-157150000D03*
X138500000Y-157650000D03*
X138500000Y-158150000D03*
X138500000Y-158650000D03*
X142800000Y-158650000D03*
X142800000Y-158150000D03*
X142800000Y-157650000D03*
X142800000Y-157150000D03*
X142800000Y-156650000D03*
D12*
G36*
X172465191Y-92076053D02*
G01*
X172486426Y-92079203D01*
X172507250Y-92084419D01*
X172527462Y-92091651D01*
X172546868Y-92100830D01*
X172565281Y-92111866D01*
X172582524Y-92124654D01*
X172598430Y-92139070D01*
X172612846Y-92154976D01*
X172625634Y-92172219D01*
X172636670Y-92190632D01*
X172645849Y-92210038D01*
X172653081Y-92230250D01*
X172658297Y-92251074D01*
X172661447Y-92272309D01*
X172662500Y-92293750D01*
X172662500Y-92806250D01*
X172661447Y-92827691D01*
X172658297Y-92848926D01*
X172653081Y-92869750D01*
X172645849Y-92889962D01*
X172636670Y-92909368D01*
X172625634Y-92927781D01*
X172612846Y-92945024D01*
X172598430Y-92960930D01*
X172582524Y-92975346D01*
X172565281Y-92988134D01*
X172546868Y-92999170D01*
X172527462Y-93008349D01*
X172507250Y-93015581D01*
X172486426Y-93020797D01*
X172465191Y-93023947D01*
X172443750Y-93025000D01*
X172006250Y-93025000D01*
X171984809Y-93023947D01*
X171963574Y-93020797D01*
X171942750Y-93015581D01*
X171922538Y-93008349D01*
X171903132Y-92999170D01*
X171884719Y-92988134D01*
X171867476Y-92975346D01*
X171851570Y-92960930D01*
X171837154Y-92945024D01*
X171824366Y-92927781D01*
X171813330Y-92909368D01*
X171804151Y-92889962D01*
X171796919Y-92869750D01*
X171791703Y-92848926D01*
X171788553Y-92827691D01*
X171787500Y-92806250D01*
X171787500Y-92293750D01*
X171788553Y-92272309D01*
X171791703Y-92251074D01*
X171796919Y-92230250D01*
X171804151Y-92210038D01*
X171813330Y-92190632D01*
X171824366Y-92172219D01*
X171837154Y-92154976D01*
X171851570Y-92139070D01*
X171867476Y-92124654D01*
X171884719Y-92111866D01*
X171903132Y-92100830D01*
X171922538Y-92091651D01*
X171942750Y-92084419D01*
X171963574Y-92079203D01*
X171984809Y-92076053D01*
X172006250Y-92075000D01*
X172443750Y-92075000D01*
X172465191Y-92076053D01*
X172465191Y-92076053D01*
G37*
D13*
X172225000Y-92550000D03*
D12*
G36*
X170890191Y-92076053D02*
G01*
X170911426Y-92079203D01*
X170932250Y-92084419D01*
X170952462Y-92091651D01*
X170971868Y-92100830D01*
X170990281Y-92111866D01*
X171007524Y-92124654D01*
X171023430Y-92139070D01*
X171037846Y-92154976D01*
X171050634Y-92172219D01*
X171061670Y-92190632D01*
X171070849Y-92210038D01*
X171078081Y-92230250D01*
X171083297Y-92251074D01*
X171086447Y-92272309D01*
X171087500Y-92293750D01*
X171087500Y-92806250D01*
X171086447Y-92827691D01*
X171083297Y-92848926D01*
X171078081Y-92869750D01*
X171070849Y-92889962D01*
X171061670Y-92909368D01*
X171050634Y-92927781D01*
X171037846Y-92945024D01*
X171023430Y-92960930D01*
X171007524Y-92975346D01*
X170990281Y-92988134D01*
X170971868Y-92999170D01*
X170952462Y-93008349D01*
X170932250Y-93015581D01*
X170911426Y-93020797D01*
X170890191Y-93023947D01*
X170868750Y-93025000D01*
X170431250Y-93025000D01*
X170409809Y-93023947D01*
X170388574Y-93020797D01*
X170367750Y-93015581D01*
X170347538Y-93008349D01*
X170328132Y-92999170D01*
X170309719Y-92988134D01*
X170292476Y-92975346D01*
X170276570Y-92960930D01*
X170262154Y-92945024D01*
X170249366Y-92927781D01*
X170238330Y-92909368D01*
X170229151Y-92889962D01*
X170221919Y-92869750D01*
X170216703Y-92848926D01*
X170213553Y-92827691D01*
X170212500Y-92806250D01*
X170212500Y-92293750D01*
X170213553Y-92272309D01*
X170216703Y-92251074D01*
X170221919Y-92230250D01*
X170229151Y-92210038D01*
X170238330Y-92190632D01*
X170249366Y-92172219D01*
X170262154Y-92154976D01*
X170276570Y-92139070D01*
X170292476Y-92124654D01*
X170309719Y-92111866D01*
X170328132Y-92100830D01*
X170347538Y-92091651D01*
X170367750Y-92084419D01*
X170388574Y-92079203D01*
X170409809Y-92076053D01*
X170431250Y-92075000D01*
X170868750Y-92075000D01*
X170890191Y-92076053D01*
X170890191Y-92076053D01*
G37*
D13*
X170650000Y-92550000D03*
D10*
X170025000Y-173125000D03*
X168775000Y-173125000D03*
X167525000Y-173125000D03*
X166275000Y-173125000D03*
X165025000Y-173125000D03*
X163775000Y-173125000D03*
D11*
X171925000Y-175665000D03*
X161875000Y-175665000D03*
X147500000Y-175665000D03*
X157550000Y-175665000D03*
D10*
X149400000Y-173125000D03*
X150650000Y-173125000D03*
X151900000Y-173125000D03*
X153150000Y-173125000D03*
X154400000Y-173125000D03*
X155650000Y-173125000D03*
D12*
G36*
X138227691Y-103126053D02*
G01*
X138248926Y-103129203D01*
X138269750Y-103134419D01*
X138289962Y-103141651D01*
X138309368Y-103150830D01*
X138327781Y-103161866D01*
X138345024Y-103174654D01*
X138360930Y-103189070D01*
X138375346Y-103204976D01*
X138388134Y-103222219D01*
X138399170Y-103240632D01*
X138408349Y-103260038D01*
X138415581Y-103280250D01*
X138420797Y-103301074D01*
X138423947Y-103322309D01*
X138425000Y-103343750D01*
X138425000Y-103781250D01*
X138423947Y-103802691D01*
X138420797Y-103823926D01*
X138415581Y-103844750D01*
X138408349Y-103864962D01*
X138399170Y-103884368D01*
X138388134Y-103902781D01*
X138375346Y-103920024D01*
X138360930Y-103935930D01*
X138345024Y-103950346D01*
X138327781Y-103963134D01*
X138309368Y-103974170D01*
X138289962Y-103983349D01*
X138269750Y-103990581D01*
X138248926Y-103995797D01*
X138227691Y-103998947D01*
X138206250Y-104000000D01*
X137693750Y-104000000D01*
X137672309Y-103998947D01*
X137651074Y-103995797D01*
X137630250Y-103990581D01*
X137610038Y-103983349D01*
X137590632Y-103974170D01*
X137572219Y-103963134D01*
X137554976Y-103950346D01*
X137539070Y-103935930D01*
X137524654Y-103920024D01*
X137511866Y-103902781D01*
X137500830Y-103884368D01*
X137491651Y-103864962D01*
X137484419Y-103844750D01*
X137479203Y-103823926D01*
X137476053Y-103802691D01*
X137475000Y-103781250D01*
X137475000Y-103343750D01*
X137476053Y-103322309D01*
X137479203Y-103301074D01*
X137484419Y-103280250D01*
X137491651Y-103260038D01*
X137500830Y-103240632D01*
X137511866Y-103222219D01*
X137524654Y-103204976D01*
X137539070Y-103189070D01*
X137554976Y-103174654D01*
X137572219Y-103161866D01*
X137590632Y-103150830D01*
X137610038Y-103141651D01*
X137630250Y-103134419D01*
X137651074Y-103129203D01*
X137672309Y-103126053D01*
X137693750Y-103125000D01*
X138206250Y-103125000D01*
X138227691Y-103126053D01*
X138227691Y-103126053D01*
G37*
D13*
X137950000Y-103562500D03*
D12*
G36*
X138227691Y-104701053D02*
G01*
X138248926Y-104704203D01*
X138269750Y-104709419D01*
X138289962Y-104716651D01*
X138309368Y-104725830D01*
X138327781Y-104736866D01*
X138345024Y-104749654D01*
X138360930Y-104764070D01*
X138375346Y-104779976D01*
X138388134Y-104797219D01*
X138399170Y-104815632D01*
X138408349Y-104835038D01*
X138415581Y-104855250D01*
X138420797Y-104876074D01*
X138423947Y-104897309D01*
X138425000Y-104918750D01*
X138425000Y-105356250D01*
X138423947Y-105377691D01*
X138420797Y-105398926D01*
X138415581Y-105419750D01*
X138408349Y-105439962D01*
X138399170Y-105459368D01*
X138388134Y-105477781D01*
X138375346Y-105495024D01*
X138360930Y-105510930D01*
X138345024Y-105525346D01*
X138327781Y-105538134D01*
X138309368Y-105549170D01*
X138289962Y-105558349D01*
X138269750Y-105565581D01*
X138248926Y-105570797D01*
X138227691Y-105573947D01*
X138206250Y-105575000D01*
X137693750Y-105575000D01*
X137672309Y-105573947D01*
X137651074Y-105570797D01*
X137630250Y-105565581D01*
X137610038Y-105558349D01*
X137590632Y-105549170D01*
X137572219Y-105538134D01*
X137554976Y-105525346D01*
X137539070Y-105510930D01*
X137524654Y-105495024D01*
X137511866Y-105477781D01*
X137500830Y-105459368D01*
X137491651Y-105439962D01*
X137484419Y-105419750D01*
X137479203Y-105398926D01*
X137476053Y-105377691D01*
X137475000Y-105356250D01*
X137475000Y-104918750D01*
X137476053Y-104897309D01*
X137479203Y-104876074D01*
X137484419Y-104855250D01*
X137491651Y-104835038D01*
X137500830Y-104815632D01*
X137511866Y-104797219D01*
X137524654Y-104779976D01*
X137539070Y-104764070D01*
X137554976Y-104749654D01*
X137572219Y-104736866D01*
X137590632Y-104725830D01*
X137610038Y-104716651D01*
X137630250Y-104709419D01*
X137651074Y-104704203D01*
X137672309Y-104701053D01*
X137693750Y-104700000D01*
X138206250Y-104700000D01*
X138227691Y-104701053D01*
X138227691Y-104701053D01*
G37*
D13*
X137950000Y-105137500D03*
D12*
G36*
X172177691Y-106851053D02*
G01*
X172198926Y-106854203D01*
X172219750Y-106859419D01*
X172239962Y-106866651D01*
X172259368Y-106875830D01*
X172277781Y-106886866D01*
X172295024Y-106899654D01*
X172310930Y-106914070D01*
X172325346Y-106929976D01*
X172338134Y-106947219D01*
X172349170Y-106965632D01*
X172358349Y-106985038D01*
X172365581Y-107005250D01*
X172370797Y-107026074D01*
X172373947Y-107047309D01*
X172375000Y-107068750D01*
X172375000Y-107506250D01*
X172373947Y-107527691D01*
X172370797Y-107548926D01*
X172365581Y-107569750D01*
X172358349Y-107589962D01*
X172349170Y-107609368D01*
X172338134Y-107627781D01*
X172325346Y-107645024D01*
X172310930Y-107660930D01*
X172295024Y-107675346D01*
X172277781Y-107688134D01*
X172259368Y-107699170D01*
X172239962Y-107708349D01*
X172219750Y-107715581D01*
X172198926Y-107720797D01*
X172177691Y-107723947D01*
X172156250Y-107725000D01*
X171643750Y-107725000D01*
X171622309Y-107723947D01*
X171601074Y-107720797D01*
X171580250Y-107715581D01*
X171560038Y-107708349D01*
X171540632Y-107699170D01*
X171522219Y-107688134D01*
X171504976Y-107675346D01*
X171489070Y-107660930D01*
X171474654Y-107645024D01*
X171461866Y-107627781D01*
X171450830Y-107609368D01*
X171441651Y-107589962D01*
X171434419Y-107569750D01*
X171429203Y-107548926D01*
X171426053Y-107527691D01*
X171425000Y-107506250D01*
X171425000Y-107068750D01*
X171426053Y-107047309D01*
X171429203Y-107026074D01*
X171434419Y-107005250D01*
X171441651Y-106985038D01*
X171450830Y-106965632D01*
X171461866Y-106947219D01*
X171474654Y-106929976D01*
X171489070Y-106914070D01*
X171504976Y-106899654D01*
X171522219Y-106886866D01*
X171540632Y-106875830D01*
X171560038Y-106866651D01*
X171580250Y-106859419D01*
X171601074Y-106854203D01*
X171622309Y-106851053D01*
X171643750Y-106850000D01*
X172156250Y-106850000D01*
X172177691Y-106851053D01*
X172177691Y-106851053D01*
G37*
D13*
X171900000Y-107287500D03*
D12*
G36*
X172177691Y-105276053D02*
G01*
X172198926Y-105279203D01*
X172219750Y-105284419D01*
X172239962Y-105291651D01*
X172259368Y-105300830D01*
X172277781Y-105311866D01*
X172295024Y-105324654D01*
X172310930Y-105339070D01*
X172325346Y-105354976D01*
X172338134Y-105372219D01*
X172349170Y-105390632D01*
X172358349Y-105410038D01*
X172365581Y-105430250D01*
X172370797Y-105451074D01*
X172373947Y-105472309D01*
X172375000Y-105493750D01*
X172375000Y-105931250D01*
X172373947Y-105952691D01*
X172370797Y-105973926D01*
X172365581Y-105994750D01*
X172358349Y-106014962D01*
X172349170Y-106034368D01*
X172338134Y-106052781D01*
X172325346Y-106070024D01*
X172310930Y-106085930D01*
X172295024Y-106100346D01*
X172277781Y-106113134D01*
X172259368Y-106124170D01*
X172239962Y-106133349D01*
X172219750Y-106140581D01*
X172198926Y-106145797D01*
X172177691Y-106148947D01*
X172156250Y-106150000D01*
X171643750Y-106150000D01*
X171622309Y-106148947D01*
X171601074Y-106145797D01*
X171580250Y-106140581D01*
X171560038Y-106133349D01*
X171540632Y-106124170D01*
X171522219Y-106113134D01*
X171504976Y-106100346D01*
X171489070Y-106085930D01*
X171474654Y-106070024D01*
X171461866Y-106052781D01*
X171450830Y-106034368D01*
X171441651Y-106014962D01*
X171434419Y-105994750D01*
X171429203Y-105973926D01*
X171426053Y-105952691D01*
X171425000Y-105931250D01*
X171425000Y-105493750D01*
X171426053Y-105472309D01*
X171429203Y-105451074D01*
X171434419Y-105430250D01*
X171441651Y-105410038D01*
X171450830Y-105390632D01*
X171461866Y-105372219D01*
X171474654Y-105354976D01*
X171489070Y-105339070D01*
X171504976Y-105324654D01*
X171522219Y-105311866D01*
X171540632Y-105300830D01*
X171560038Y-105291651D01*
X171580250Y-105284419D01*
X171601074Y-105279203D01*
X171622309Y-105276053D01*
X171643750Y-105275000D01*
X172156250Y-105275000D01*
X172177691Y-105276053D01*
X172177691Y-105276053D01*
G37*
D13*
X171900000Y-105712500D03*
D12*
G36*
X147377691Y-163826053D02*
G01*
X147398926Y-163829203D01*
X147419750Y-163834419D01*
X147439962Y-163841651D01*
X147459368Y-163850830D01*
X147477781Y-163861866D01*
X147495024Y-163874654D01*
X147510930Y-163889070D01*
X147525346Y-163904976D01*
X147538134Y-163922219D01*
X147549170Y-163940632D01*
X147558349Y-163960038D01*
X147565581Y-163980250D01*
X147570797Y-164001074D01*
X147573947Y-164022309D01*
X147575000Y-164043750D01*
X147575000Y-164481250D01*
X147573947Y-164502691D01*
X147570797Y-164523926D01*
X147565581Y-164544750D01*
X147558349Y-164564962D01*
X147549170Y-164584368D01*
X147538134Y-164602781D01*
X147525346Y-164620024D01*
X147510930Y-164635930D01*
X147495024Y-164650346D01*
X147477781Y-164663134D01*
X147459368Y-164674170D01*
X147439962Y-164683349D01*
X147419750Y-164690581D01*
X147398926Y-164695797D01*
X147377691Y-164698947D01*
X147356250Y-164700000D01*
X146843750Y-164700000D01*
X146822309Y-164698947D01*
X146801074Y-164695797D01*
X146780250Y-164690581D01*
X146760038Y-164683349D01*
X146740632Y-164674170D01*
X146722219Y-164663134D01*
X146704976Y-164650346D01*
X146689070Y-164635930D01*
X146674654Y-164620024D01*
X146661866Y-164602781D01*
X146650830Y-164584368D01*
X146641651Y-164564962D01*
X146634419Y-164544750D01*
X146629203Y-164523926D01*
X146626053Y-164502691D01*
X146625000Y-164481250D01*
X146625000Y-164043750D01*
X146626053Y-164022309D01*
X146629203Y-164001074D01*
X146634419Y-163980250D01*
X146641651Y-163960038D01*
X146650830Y-163940632D01*
X146661866Y-163922219D01*
X146674654Y-163904976D01*
X146689070Y-163889070D01*
X146704976Y-163874654D01*
X146722219Y-163861866D01*
X146740632Y-163850830D01*
X146760038Y-163841651D01*
X146780250Y-163834419D01*
X146801074Y-163829203D01*
X146822309Y-163826053D01*
X146843750Y-163825000D01*
X147356250Y-163825000D01*
X147377691Y-163826053D01*
X147377691Y-163826053D01*
G37*
D13*
X147100000Y-164262500D03*
D12*
G36*
X147377691Y-165401053D02*
G01*
X147398926Y-165404203D01*
X147419750Y-165409419D01*
X147439962Y-165416651D01*
X147459368Y-165425830D01*
X147477781Y-165436866D01*
X147495024Y-165449654D01*
X147510930Y-165464070D01*
X147525346Y-165479976D01*
X147538134Y-165497219D01*
X147549170Y-165515632D01*
X147558349Y-165535038D01*
X147565581Y-165555250D01*
X147570797Y-165576074D01*
X147573947Y-165597309D01*
X147575000Y-165618750D01*
X147575000Y-166056250D01*
X147573947Y-166077691D01*
X147570797Y-166098926D01*
X147565581Y-166119750D01*
X147558349Y-166139962D01*
X147549170Y-166159368D01*
X147538134Y-166177781D01*
X147525346Y-166195024D01*
X147510930Y-166210930D01*
X147495024Y-166225346D01*
X147477781Y-166238134D01*
X147459368Y-166249170D01*
X147439962Y-166258349D01*
X147419750Y-166265581D01*
X147398926Y-166270797D01*
X147377691Y-166273947D01*
X147356250Y-166275000D01*
X146843750Y-166275000D01*
X146822309Y-166273947D01*
X146801074Y-166270797D01*
X146780250Y-166265581D01*
X146760038Y-166258349D01*
X146740632Y-166249170D01*
X146722219Y-166238134D01*
X146704976Y-166225346D01*
X146689070Y-166210930D01*
X146674654Y-166195024D01*
X146661866Y-166177781D01*
X146650830Y-166159368D01*
X146641651Y-166139962D01*
X146634419Y-166119750D01*
X146629203Y-166098926D01*
X146626053Y-166077691D01*
X146625000Y-166056250D01*
X146625000Y-165618750D01*
X146626053Y-165597309D01*
X146629203Y-165576074D01*
X146634419Y-165555250D01*
X146641651Y-165535038D01*
X146650830Y-165515632D01*
X146661866Y-165497219D01*
X146674654Y-165479976D01*
X146689070Y-165464070D01*
X146704976Y-165449654D01*
X146722219Y-165436866D01*
X146740632Y-165425830D01*
X146760038Y-165416651D01*
X146780250Y-165409419D01*
X146801074Y-165404203D01*
X146822309Y-165401053D01*
X146843750Y-165400000D01*
X147356250Y-165400000D01*
X147377691Y-165401053D01*
X147377691Y-165401053D01*
G37*
D13*
X147100000Y-165837500D03*
D14*
X135850000Y-164300000D03*
X135850000Y-166600000D03*
X135850000Y-168900000D03*
D15*
X142150000Y-166600000D03*
D12*
G36*
X145377691Y-163813553D02*
G01*
X145398926Y-163816703D01*
X145419750Y-163821919D01*
X145439962Y-163829151D01*
X145459368Y-163838330D01*
X145477781Y-163849366D01*
X145495024Y-163862154D01*
X145510930Y-163876570D01*
X145525346Y-163892476D01*
X145538134Y-163909719D01*
X145549170Y-163928132D01*
X145558349Y-163947538D01*
X145565581Y-163967750D01*
X145570797Y-163988574D01*
X145573947Y-164009809D01*
X145575000Y-164031250D01*
X145575000Y-164468750D01*
X145573947Y-164490191D01*
X145570797Y-164511426D01*
X145565581Y-164532250D01*
X145558349Y-164552462D01*
X145549170Y-164571868D01*
X145538134Y-164590281D01*
X145525346Y-164607524D01*
X145510930Y-164623430D01*
X145495024Y-164637846D01*
X145477781Y-164650634D01*
X145459368Y-164661670D01*
X145439962Y-164670849D01*
X145419750Y-164678081D01*
X145398926Y-164683297D01*
X145377691Y-164686447D01*
X145356250Y-164687500D01*
X144843750Y-164687500D01*
X144822309Y-164686447D01*
X144801074Y-164683297D01*
X144780250Y-164678081D01*
X144760038Y-164670849D01*
X144740632Y-164661670D01*
X144722219Y-164650634D01*
X144704976Y-164637846D01*
X144689070Y-164623430D01*
X144674654Y-164607524D01*
X144661866Y-164590281D01*
X144650830Y-164571868D01*
X144641651Y-164552462D01*
X144634419Y-164532250D01*
X144629203Y-164511426D01*
X144626053Y-164490191D01*
X144625000Y-164468750D01*
X144625000Y-164031250D01*
X144626053Y-164009809D01*
X144629203Y-163988574D01*
X144634419Y-163967750D01*
X144641651Y-163947538D01*
X144650830Y-163928132D01*
X144661866Y-163909719D01*
X144674654Y-163892476D01*
X144689070Y-163876570D01*
X144704976Y-163862154D01*
X144722219Y-163849366D01*
X144740632Y-163838330D01*
X144760038Y-163829151D01*
X144780250Y-163821919D01*
X144801074Y-163816703D01*
X144822309Y-163813553D01*
X144843750Y-163812500D01*
X145356250Y-163812500D01*
X145377691Y-163813553D01*
X145377691Y-163813553D01*
G37*
D13*
X145100000Y-164250000D03*
D12*
G36*
X145377691Y-165388553D02*
G01*
X145398926Y-165391703D01*
X145419750Y-165396919D01*
X145439962Y-165404151D01*
X145459368Y-165413330D01*
X145477781Y-165424366D01*
X145495024Y-165437154D01*
X145510930Y-165451570D01*
X145525346Y-165467476D01*
X145538134Y-165484719D01*
X145549170Y-165503132D01*
X145558349Y-165522538D01*
X145565581Y-165542750D01*
X145570797Y-165563574D01*
X145573947Y-165584809D01*
X145575000Y-165606250D01*
X145575000Y-166043750D01*
X145573947Y-166065191D01*
X145570797Y-166086426D01*
X145565581Y-166107250D01*
X145558349Y-166127462D01*
X145549170Y-166146868D01*
X145538134Y-166165281D01*
X145525346Y-166182524D01*
X145510930Y-166198430D01*
X145495024Y-166212846D01*
X145477781Y-166225634D01*
X145459368Y-166236670D01*
X145439962Y-166245849D01*
X145419750Y-166253081D01*
X145398926Y-166258297D01*
X145377691Y-166261447D01*
X145356250Y-166262500D01*
X144843750Y-166262500D01*
X144822309Y-166261447D01*
X144801074Y-166258297D01*
X144780250Y-166253081D01*
X144760038Y-166245849D01*
X144740632Y-166236670D01*
X144722219Y-166225634D01*
X144704976Y-166212846D01*
X144689070Y-166198430D01*
X144674654Y-166182524D01*
X144661866Y-166165281D01*
X144650830Y-166146868D01*
X144641651Y-166127462D01*
X144634419Y-166107250D01*
X144629203Y-166086426D01*
X144626053Y-166065191D01*
X144625000Y-166043750D01*
X144625000Y-165606250D01*
X144626053Y-165584809D01*
X144629203Y-165563574D01*
X144634419Y-165542750D01*
X144641651Y-165522538D01*
X144650830Y-165503132D01*
X144661866Y-165484719D01*
X144674654Y-165467476D01*
X144689070Y-165451570D01*
X144704976Y-165437154D01*
X144722219Y-165424366D01*
X144740632Y-165413330D01*
X144760038Y-165404151D01*
X144780250Y-165396919D01*
X144801074Y-165391703D01*
X144822309Y-165388553D01*
X144843750Y-165387500D01*
X145356250Y-165387500D01*
X145377691Y-165388553D01*
X145377691Y-165388553D01*
G37*
D13*
X145100000Y-165825000D03*
D12*
G36*
X171480142Y-100238674D02*
G01*
X171503803Y-100242184D01*
X171527007Y-100247996D01*
X171549529Y-100256054D01*
X171571153Y-100266282D01*
X171591670Y-100278579D01*
X171610883Y-100292829D01*
X171628607Y-100308893D01*
X171644671Y-100326617D01*
X171658921Y-100345830D01*
X171671218Y-100366347D01*
X171681446Y-100387971D01*
X171689504Y-100410493D01*
X171695316Y-100433697D01*
X171698826Y-100457358D01*
X171700000Y-100481250D01*
X171700000Y-100968750D01*
X171698826Y-100992642D01*
X171695316Y-101016303D01*
X171689504Y-101039507D01*
X171681446Y-101062029D01*
X171671218Y-101083653D01*
X171658921Y-101104170D01*
X171644671Y-101123383D01*
X171628607Y-101141107D01*
X171610883Y-101157171D01*
X171591670Y-101171421D01*
X171571153Y-101183718D01*
X171549529Y-101193946D01*
X171527007Y-101202004D01*
X171503803Y-101207816D01*
X171480142Y-101211326D01*
X171456250Y-101212500D01*
X170543750Y-101212500D01*
X170519858Y-101211326D01*
X170496197Y-101207816D01*
X170472993Y-101202004D01*
X170450471Y-101193946D01*
X170428847Y-101183718D01*
X170408330Y-101171421D01*
X170389117Y-101157171D01*
X170371393Y-101141107D01*
X170355329Y-101123383D01*
X170341079Y-101104170D01*
X170328782Y-101083653D01*
X170318554Y-101062029D01*
X170310496Y-101039507D01*
X170304684Y-101016303D01*
X170301174Y-100992642D01*
X170300000Y-100968750D01*
X170300000Y-100481250D01*
X170301174Y-100457358D01*
X170304684Y-100433697D01*
X170310496Y-100410493D01*
X170318554Y-100387971D01*
X170328782Y-100366347D01*
X170341079Y-100345830D01*
X170355329Y-100326617D01*
X170371393Y-100308893D01*
X170389117Y-100292829D01*
X170408330Y-100278579D01*
X170428847Y-100266282D01*
X170450471Y-100256054D01*
X170472993Y-100247996D01*
X170496197Y-100242184D01*
X170519858Y-100238674D01*
X170543750Y-100237500D01*
X171456250Y-100237500D01*
X171480142Y-100238674D01*
X171480142Y-100238674D01*
G37*
D17*
X171000000Y-100725000D03*
D12*
G36*
X171480142Y-102113674D02*
G01*
X171503803Y-102117184D01*
X171527007Y-102122996D01*
X171549529Y-102131054D01*
X171571153Y-102141282D01*
X171591670Y-102153579D01*
X171610883Y-102167829D01*
X171628607Y-102183893D01*
X171644671Y-102201617D01*
X171658921Y-102220830D01*
X171671218Y-102241347D01*
X171681446Y-102262971D01*
X171689504Y-102285493D01*
X171695316Y-102308697D01*
X171698826Y-102332358D01*
X171700000Y-102356250D01*
X171700000Y-102843750D01*
X171698826Y-102867642D01*
X171695316Y-102891303D01*
X171689504Y-102914507D01*
X171681446Y-102937029D01*
X171671218Y-102958653D01*
X171658921Y-102979170D01*
X171644671Y-102998383D01*
X171628607Y-103016107D01*
X171610883Y-103032171D01*
X171591670Y-103046421D01*
X171571153Y-103058718D01*
X171549529Y-103068946D01*
X171527007Y-103077004D01*
X171503803Y-103082816D01*
X171480142Y-103086326D01*
X171456250Y-103087500D01*
X170543750Y-103087500D01*
X170519858Y-103086326D01*
X170496197Y-103082816D01*
X170472993Y-103077004D01*
X170450471Y-103068946D01*
X170428847Y-103058718D01*
X170408330Y-103046421D01*
X170389117Y-103032171D01*
X170371393Y-103016107D01*
X170355329Y-102998383D01*
X170341079Y-102979170D01*
X170328782Y-102958653D01*
X170318554Y-102937029D01*
X170310496Y-102914507D01*
X170304684Y-102891303D01*
X170301174Y-102867642D01*
X170300000Y-102843750D01*
X170300000Y-102356250D01*
X170301174Y-102332358D01*
X170304684Y-102308697D01*
X170310496Y-102285493D01*
X170318554Y-102262971D01*
X170328782Y-102241347D01*
X170341079Y-102220830D01*
X170355329Y-102201617D01*
X170371393Y-102183893D01*
X170389117Y-102167829D01*
X170408330Y-102153579D01*
X170428847Y-102141282D01*
X170450471Y-102131054D01*
X170472993Y-102122996D01*
X170496197Y-102117184D01*
X170519858Y-102113674D01*
X170543750Y-102112500D01*
X171456250Y-102112500D01*
X171480142Y-102113674D01*
X171480142Y-102113674D01*
G37*
D17*
X171000000Y-102600000D03*
D18*
X142650000Y-146000000D03*
D19*
X136350000Y-146000000D03*
X136350000Y-148300000D03*
X136350000Y-143700000D03*
M02*
