M48
; DRILL file {KiCad (5.1.5)-3} date 04/04/20 16:36:38
; FORMAT={-:-/ absolute / metric / decimal}
; #@! TF.CreationDate,2020-04-04T16:36:38+02:00
; #@! TF.GenerationSoftware,Kicad,Pcbnew,(5.1.5)-3
; #@! TF.FileFunction,Plated,1,2,PTH
FMAT,2
METRIC
T1C0.400
T2C0.500
T3C0.760
T4C0.850
T5C1.000
T6C1.010
T7C1.040
T8C1.070
T9C1.090
T10C1.600
T11C3.050
%
G90
G05
T1
X99.414Y-158.814
X99.75Y-151.0
X100.2Y-159.8
X101.0Y-107.0
X101.2Y-162.0
X102.0Y-120.0
X102.2Y-159.2
X102.463Y-111.013
X103.0Y-127.0
X103.032Y-116.658
X103.25Y-153.0
X104.143Y-116.575
X104.4Y-162.0
X105.0Y-127.0
X105.4Y-119.0
X105.45Y-104.6
X109.0Y-107.0
X109.0Y-146.0
X110.5Y-158.5
X118.75Y-155.75
X123.0Y-146.5
X124.0Y-138.0
X124.0Y-140.0
X126.6Y-109.8
X127.8Y-161.6
X132.25Y-144.75
X133.6Y-159.4
X133.8Y-156.2
X134.2Y-154.0
X134.4Y-150.0
X134.6Y-158.6
X135.0Y-147.75
X135.4Y-153.2
X136.25Y-142.75
X136.6Y-160.0
X140.0Y-114.0
X145.0Y-113.0
X146.4Y-157.8
X148.2Y-160.2
X150.2Y-142.6
X151.8Y-149.6
X152.8Y-155.6
X152.8Y-160.0
X158.2Y-156.4
X158.6Y-159.2
X165.0Y-160.0
X165.4Y-155.4
X167.0Y-158.8
X167.275Y-155.798
X169.0Y-159.8
X171.8Y-96.0
X174.075Y-126.8
X174.6Y-141.8
T2
X170.75Y-120.5
T3
X94.96Y-100.14
X96.23Y-97.6
X97.5Y-100.14
X98.77Y-97.6
X100.04Y-100.14
X101.31Y-97.6
X102.58Y-100.14
X103.85Y-97.6
T4
X129.5Y-136.0
X134.5Y-136.0
T5
X108.95Y-131.56
X108.95Y-134.1
X108.95Y-136.64
X108.95Y-139.18
X116.84Y-85.09
X116.84Y-87.63
X116.84Y-90.17
X116.84Y-92.71
X116.84Y-95.25
X116.84Y-120.65
X116.84Y-123.19
X116.84Y-125.73
X116.84Y-128.27
X116.84Y-130.81
X116.84Y-133.35
X99.35Y-131.48
X99.35Y-134.02
X99.35Y-136.56
X99.35Y-139.1
T6
X82.55Y-120.65
X83.75Y-110.45
T7
X142.55Y-89.94
X142.55Y-92.48
X142.55Y-95.02
X142.55Y-97.56
X142.55Y-100.1
X142.55Y-102.64
X142.55Y-105.18
X142.55Y-107.72
X142.55Y-110.26
X142.55Y-112.8
X142.55Y-115.34
X142.55Y-117.88
X142.55Y-120.42
X142.55Y-122.96
X142.55Y-125.5
X142.55Y-128.04
X142.55Y-130.58
X142.55Y-133.12
X142.55Y-135.66
X167.95Y-89.94
X167.95Y-92.48
X167.95Y-95.02
X167.95Y-97.56
X167.95Y-100.1
X167.95Y-102.64
X167.95Y-105.18
X167.95Y-107.72
X167.95Y-110.26
X167.95Y-112.8
X167.95Y-115.34
X167.95Y-117.88
X167.95Y-120.42
X167.95Y-122.96
X167.95Y-125.5
X167.95Y-128.04
X167.95Y-130.58
X167.95Y-133.12
X167.95Y-135.66
T8
X147.0Y-164.5
X147.0Y-167.5
X150.0Y-164.5
X150.0Y-167.5
X153.0Y-164.5
X153.0Y-167.5
X129.0Y-164.5
X129.0Y-167.5
X132.0Y-164.5
X132.0Y-167.5
X135.0Y-164.5
X135.0Y-167.5
X99.163Y-165.04
X99.163Y-168.04
X102.163Y-165.04
X102.163Y-168.04
X164.4Y-164.8
X164.4Y-167.8
X167.4Y-164.8
X167.4Y-167.8
X170.4Y-164.8
X170.4Y-167.8
X86.163Y-165.04
X86.163Y-168.04
X89.163Y-165.04
X89.163Y-168.04
X112.0Y-164.93
X112.0Y-167.93
X120.0Y-164.93
X120.0Y-167.93
T9
X173.99Y-133.43
X173.99Y-138.43
X173.355Y-96.6
X173.355Y-101.6
T10
X83.45Y-95.73
X83.45Y-100.73
T11
X112.0Y-172.25
X120.0Y-172.25
T0
M30
