M48
; DRILL file {KiCad (5.1.2)-2} date 12/12/2019 8:57:57 PM
; FORMAT={-:-/ absolute / metric / decimal}
; #@! TF.CreationDate,2019-12-12T20:57:57+01:00
; #@! TF.GenerationSoftware,Kicad,Pcbnew,(5.1.2)-2
; #@! TF.FileFunction,Plated,1,2,PTH
FMAT,2
METRIC
T1C0.400
T2C0.760
T3C0.762
T4C0.850
T5C1.000
T6C1.040
T7C1.070
T8C1.999
T9C3.050
%
G90
G05
T1
X121.95Y-151.65
X123.0Y-146.5
X133.8Y-159.5
X134.1Y-172.7
X134.5Y-166.0
X134.688Y-157.35
X136.0Y-172.0
X136.3Y-174.4
X136.731Y-159.365
X137.384Y-157.475
X137.5Y-176.0
X139.15Y-155.95
X139.2Y-154.8
X139.7Y-157.7
X140.75Y-166.45
X143.825Y-163.85
X144.4Y-140.45
X144.5Y-135.0
X146.225Y-157.987
X146.326Y-170.742
X148.65Y-173.225
X149.604Y-171.922
X150.7Y-174.95
X151.65Y-159.45
X152.1Y-171.775
X156.5Y-172.5
X162.856Y-173.044
X163.5Y-113.0
X164.5Y-115.35
X164.95Y-174.15
X166.325Y-172.5
X169.5Y-153.0
X170.0Y-110.775
X172.0Y-110.5
T2
X156.11Y-148.96
X156.11Y-151.5
X156.11Y-154.04
X156.11Y-156.58
X158.65Y-150.23
X158.65Y-152.77
X158.65Y-155.31
X158.65Y-157.85
T3
X90.73Y-84.5
X90.73Y-124.0
X107.87Y-84.5
X107.87Y-124.0
X113.33Y-84.5
X113.33Y-124.0
X130.47Y-84.5
X130.47Y-124.0
T4
X132.5Y-131.45
X132.5Y-136.45
T5
X108.95Y-131.56
X108.95Y-134.1
X108.95Y-136.64
X108.95Y-139.18
X99.35Y-131.48
X99.35Y-134.02
X99.35Y-136.56
X99.35Y-139.1
T6
X142.55Y-89.94
X142.55Y-92.48
X142.55Y-95.02
X142.55Y-97.56
X142.55Y-100.1
X142.55Y-102.64
X142.55Y-105.18
X142.55Y-107.72
X142.55Y-110.26
X142.55Y-112.8
X142.55Y-115.34
X142.55Y-117.88
X142.55Y-120.42
X142.55Y-122.96
X142.55Y-125.5
X142.55Y-128.04
X142.55Y-130.58
X142.55Y-133.12
X142.55Y-135.66
X167.95Y-89.94
X167.95Y-92.48
X167.95Y-95.02
X167.95Y-97.56
X167.95Y-100.1
X167.95Y-102.64
X167.95Y-105.18
X167.95Y-107.72
X167.95Y-110.26
X167.95Y-112.8
X167.95Y-115.34
X167.95Y-117.88
X167.95Y-120.42
X167.95Y-122.96
X167.95Y-125.5
X167.95Y-128.04
X167.95Y-130.58
X167.95Y-133.12
X167.95Y-135.66
T7
X85.163Y-165.04
X85.163Y-168.04
X88.163Y-165.04
X88.163Y-168.04
X119.45Y-164.88
X119.45Y-167.88
X98.363Y-164.99
X98.363Y-167.99
X101.363Y-164.99
X101.363Y-167.99
X111.25Y-164.88
X111.25Y-167.88
T8
X83.5Y-95.65
X83.5Y-102.0
T9
X86.663Y-172.36
X119.45Y-172.2
X99.863Y-172.31
X111.25Y-172.2
T0
M30
