G04 #@! TF.GenerationSoftware,KiCad,Pcbnew,(5.1.2)-2*
G04 #@! TF.CreationDate,2019-09-05T23:13:48+02:00*
G04 #@! TF.ProjectId,LED_Driver_ISSI_ALU,4c45445f-4472-4697-9665-725f49535349,rev?*
G04 #@! TF.SameCoordinates,Original*
G04 #@! TF.FileFunction,Profile,NP*
%FSLAX46Y46*%
G04 Gerber Fmt 4.6, Leading zero omitted, Abs format (unit mm)*
G04 Created by KiCad (PCBNEW (5.1.2)-2) date 2019-09-05 23:13:48*
%MOMM*%
%LPD*%
G04 APERTURE LIST*
%ADD10C,0.200000*%
G04 APERTURE END LIST*
D10*
X144076520Y-121000928D02*
X170936433Y-147668143D01*
X190343969Y-77888233D02*
G75*
G02X170936433Y-147668143I-54382119J-22463789D01*
G01*
X120163700Y-115929045D02*
X115312945Y-108466692D01*
X158425640Y-154734140D02*
G75*
G02X88645730Y-135326605I-22463790J54382118D01*
G01*
X190343969Y-77888233D02*
X151538873Y-116150172D01*
X113497858Y-45969926D02*
X151760000Y-84775000D01*
X158425640Y-154734141D02*
X120163700Y-115929045D01*
X115312945Y-108466692D02*
X88645730Y-135326605D01*
X81579732Y-122815812D02*
G75*
G02X100987267Y-53035902I54382118J22463790D01*
G01*
X127847180Y-79703117D02*
X100987267Y-53035902D01*
X151760000Y-84775000D02*
X156610756Y-92237353D01*
X34547079Y-14609661D02*
X220547079Y-14609661D01*
X220547079Y-14609661D02*
X220547079Y-184609661D01*
X81579731Y-122815812D02*
X120384828Y-84553873D01*
X120384828Y-84553873D02*
X127847180Y-79703117D01*
X113497858Y-45969927D02*
G75*
G02X183277768Y-65377462I22463790J-54382118D01*
G01*
X151538873Y-116150172D02*
X144076520Y-121000928D01*
X156610756Y-92237353D02*
X183277768Y-65377462D01*
X34547079Y-184609661D02*
X34547079Y-14609661D01*
X220547079Y-184609661D02*
X34547079Y-184609661D01*
M02*
