G04 #@! TF.GenerationSoftware,KiCad,Pcbnew,(5.1.2)-2*
G04 #@! TF.CreationDate,2019-09-05T23:13:48+02:00*
G04 #@! TF.ProjectId,LED_Driver_ISSI_ALU,4c45445f-4472-4697-9665-725f49535349,rev?*
G04 #@! TF.SameCoordinates,Original*
G04 #@! TF.FileFunction,Legend,Top*
G04 #@! TF.FilePolarity,Positive*
%FSLAX46Y46*%
G04 Gerber Fmt 4.6, Leading zero omitted, Abs format (unit mm)*
G04 Created by KiCad (PCBNEW (5.1.2)-2) date 2019-09-05 23:13:48*
%MOMM*%
%LPD*%
G04 APERTURE LIST*
%ADD10C,0.200000*%
%ADD11C,0.120000*%
%ADD12C,0.125000*%
%ADD13C,0.254000*%
%ADD14C,0.100000*%
%ADD15C,0.150000*%
%ADD16C,0.050000*%
G04 APERTURE END LIST*
D10*
X66950000Y-29415000D02*
X66950000Y-33028000D01*
X65350000Y-30352000D02*
X65350000Y-33028000D01*
D11*
X80650000Y-142587936D02*
X80650000Y-143792064D01*
X78830000Y-142587936D02*
X78830000Y-143792064D01*
D10*
X65140000Y-55552000D02*
X65140000Y-58228000D01*
X66740000Y-54615000D02*
X66740000Y-58228000D01*
X39690000Y-33002000D02*
X39690000Y-35678000D01*
X41290000Y-32065000D02*
X41290000Y-35678000D01*
X69240000Y-136815000D02*
X69240000Y-140428000D01*
X67640000Y-137752000D02*
X67640000Y-140428000D01*
D11*
X45440279Y-76400000D02*
X45114721Y-76400000D01*
X45440279Y-75380000D02*
X45114721Y-75380000D01*
D12*
X67340000Y-147715000D02*
X71340000Y-147715000D01*
X71340000Y-147715000D02*
X72340000Y-146715000D01*
X72340000Y-146715000D02*
X72340000Y-142715000D01*
X72340000Y-142715000D02*
X71340000Y-141715000D01*
X71340000Y-141715000D02*
X67340000Y-141715000D01*
X67340000Y-141715000D02*
X66340000Y-142715000D01*
X66340000Y-142715000D02*
X66340000Y-146715000D01*
X66340000Y-146715000D02*
X67340000Y-147715000D01*
X39390000Y-42990000D02*
X43390000Y-42990000D01*
X43390000Y-42990000D02*
X44390000Y-41990000D01*
X44390000Y-41990000D02*
X44390000Y-37990000D01*
X44390000Y-37990000D02*
X43390000Y-36990000D01*
X43390000Y-36990000D02*
X39390000Y-36990000D01*
X39390000Y-36990000D02*
X38390000Y-37990000D01*
X38390000Y-37990000D02*
X38390000Y-41990000D01*
X38390000Y-41990000D02*
X39390000Y-42990000D01*
D13*
X46675000Y-41218000D02*
G75*
G03X46675000Y-41218000I-17000J0D01*
G01*
D10*
X50440000Y-37340000D02*
X50440000Y-39840000D01*
X45940000Y-39840000D02*
X45940000Y-37340000D01*
X73920001Y-144415000D02*
X73920001Y-141915000D01*
X78420001Y-141915000D02*
X78420001Y-144415000D01*
D13*
X74655001Y-145793000D02*
G75*
G03X74655001Y-145793000I-17000J0D01*
G01*
D11*
X74282064Y-58300000D02*
X73077936Y-58300000D01*
X74282064Y-56480000D02*
X73077936Y-56480000D01*
D10*
X47928000Y-53290000D02*
G75*
G03X47928000Y-53490000I0J-100000D01*
G01*
X47928000Y-53490000D02*
G75*
G03X47928000Y-53290000I0J100000D01*
G01*
X47928000Y-53490000D02*
X47928000Y-53490000D01*
X47928000Y-53290000D02*
X47928000Y-53290000D01*
D14*
X46202000Y-70390000D02*
X44027000Y-70390000D01*
X46202000Y-62390000D02*
X46202000Y-64390000D01*
X37752000Y-70390000D02*
X39028000Y-70390000D01*
X37752000Y-50390000D02*
X37752000Y-64390000D01*
X39028000Y-50390000D02*
X37752000Y-50390000D01*
X46202000Y-50390000D02*
X44027000Y-50390000D01*
X46202000Y-52390000D02*
X46202000Y-50390000D01*
D11*
X48792064Y-34080000D02*
X47587936Y-34080000D01*
X48792064Y-35900000D02*
X47587936Y-35900000D01*
X76992064Y-140500000D02*
X75787936Y-140500000D01*
X76992064Y-138680000D02*
X75787936Y-138680000D01*
X76080000Y-147237936D02*
X76080000Y-148442064D01*
X77900000Y-147237936D02*
X77900000Y-148442064D01*
X49800000Y-42887936D02*
X49800000Y-44092064D01*
X47980000Y-42887936D02*
X47980000Y-44092064D01*
X51842064Y-64050000D02*
X50637936Y-64050000D01*
X51842064Y-62230000D02*
X50637936Y-62230000D01*
D14*
X44590000Y-85240000D02*
X44590000Y-83240000D01*
X44590000Y-83240000D02*
X43090000Y-83240000D01*
X38090000Y-83240000D02*
X36140000Y-83240000D01*
X36140000Y-83240000D02*
X36140000Y-91240000D01*
X36140000Y-91240000D02*
X38090000Y-91240000D01*
X44590000Y-89240000D02*
X44590000Y-91240000D01*
X44590000Y-91240000D02*
X43090000Y-91240000D01*
D10*
X46390000Y-86140000D02*
X46390000Y-86140000D01*
X46390000Y-86340000D02*
X46390000Y-86340000D01*
X46390000Y-86340000D02*
G75*
G03X46390000Y-86140000I0J100000D01*
G01*
X46390000Y-86140000D02*
G75*
G03X46390000Y-86340000I0J-100000D01*
G01*
D11*
X75250000Y-65337936D02*
X75250000Y-66542064D01*
X73430000Y-65337936D02*
X73430000Y-66542064D01*
X73640000Y-40187936D02*
X73640000Y-41392064D01*
X75460000Y-40187936D02*
X75460000Y-41392064D01*
X44239721Y-35100000D02*
X44565279Y-35100000D01*
X44239721Y-34080000D02*
X44565279Y-34080000D01*
X72690279Y-139750000D02*
X72364721Y-139750000D01*
X72690279Y-138730000D02*
X72364721Y-138730000D01*
D10*
X71300000Y-62435000D02*
X71300000Y-59935000D01*
X75800000Y-59935000D02*
X75800000Y-62435000D01*
D13*
X72035000Y-63813000D02*
G75*
G03X72035000Y-63813000I-17000J0D01*
G01*
D10*
X49890000Y-31240000D02*
X49890000Y-26290000D01*
X43290000Y-34015000D02*
X43290000Y-26290000D01*
X71390000Y-137915000D02*
X71390000Y-130190000D01*
X77990000Y-135140000D02*
X77990000Y-130190000D01*
D12*
X63840000Y-64655000D02*
X64840000Y-65655000D01*
X63840000Y-60655000D02*
X63840000Y-64655000D01*
X64840000Y-59655000D02*
X63840000Y-60655000D01*
X68840000Y-59655000D02*
X64840000Y-59655000D01*
X69840000Y-60655000D02*
X68840000Y-59655000D01*
X69840000Y-64655000D02*
X69840000Y-60655000D01*
X68840000Y-65655000D02*
X69840000Y-64655000D01*
X64840000Y-65655000D02*
X68840000Y-65655000D01*
D11*
X50880000Y-37987936D02*
X50880000Y-39192064D01*
X52700000Y-37987936D02*
X52700000Y-39192064D01*
D12*
X68490000Y-170015000D02*
X72490000Y-170015000D01*
X72490000Y-170015000D02*
X73490000Y-169015000D01*
X73490000Y-169015000D02*
X73490000Y-165015000D01*
X73490000Y-165015000D02*
X72490000Y-164015000D01*
X72490000Y-164015000D02*
X68490000Y-164015000D01*
X68490000Y-164015000D02*
X67490000Y-165015000D01*
X67490000Y-165015000D02*
X67490000Y-169015000D01*
X67490000Y-169015000D02*
X68490000Y-170015000D01*
D10*
X70390000Y-159015000D02*
X70390000Y-162628000D01*
X68790000Y-159952000D02*
X68790000Y-162628000D01*
D15*
X72800000Y-31104600D02*
X74800000Y-31104600D01*
X74800000Y-33254600D02*
X72800000Y-33254600D01*
D11*
X81800000Y-164937936D02*
X81800000Y-166142064D01*
X79980000Y-164937936D02*
X79980000Y-166142064D01*
D13*
X72285000Y-38613000D02*
G75*
G03X72285000Y-38613000I-17000J0D01*
G01*
D10*
X76050000Y-34735000D02*
X76050000Y-37235000D01*
X71550000Y-37235000D02*
X71550000Y-34735000D01*
D11*
X77080000Y-169587936D02*
X77080000Y-170792064D01*
X78900000Y-169587936D02*
X78900000Y-170792064D01*
D10*
X68450000Y-30415000D02*
X68450000Y-22690000D01*
X75050000Y-27640000D02*
X75050000Y-22690000D01*
D11*
X73640279Y-162050000D02*
X73314721Y-162050000D01*
X73640279Y-161030000D02*
X73314721Y-161030000D01*
D10*
X72240000Y-160365000D02*
X72240000Y-152640000D01*
X78840000Y-157590000D02*
X78840000Y-152640000D01*
D11*
X77892064Y-161030000D02*
X76687936Y-161030000D01*
X77892064Y-162850000D02*
X76687936Y-162850000D01*
D13*
X75775000Y-168173000D02*
G75*
G03X75775000Y-168173000I-17000J0D01*
G01*
D10*
X79540000Y-164295000D02*
X79540000Y-166795000D01*
X75040000Y-166795000D02*
X75040000Y-164295000D01*
X68440000Y-55715000D02*
X68440000Y-47990000D01*
X75040000Y-52940000D02*
X75040000Y-47990000D01*
D11*
X76180000Y-60637936D02*
X76180000Y-61842064D01*
X78000000Y-60637936D02*
X78000000Y-61842064D01*
X78266000Y-35505136D02*
X78266000Y-36709264D01*
X76446000Y-35505136D02*
X76446000Y-36709264D01*
D12*
X64942000Y-40374000D02*
X68942000Y-40374000D01*
X68942000Y-40374000D02*
X69942000Y-39374000D01*
X69942000Y-39374000D02*
X69942000Y-35374000D01*
X69942000Y-35374000D02*
X68942000Y-34374000D01*
X68942000Y-34374000D02*
X64942000Y-34374000D01*
X64942000Y-34374000D02*
X63942000Y-35374000D01*
X63942000Y-35374000D02*
X63942000Y-39374000D01*
X63942000Y-39374000D02*
X64942000Y-40374000D01*
D11*
X70152779Y-32296000D02*
X69827221Y-32296000D01*
X70152779Y-31276000D02*
X69827221Y-31276000D01*
X70012779Y-57660000D02*
X69687221Y-57660000D01*
X70012779Y-56640000D02*
X69687221Y-56640000D01*
D10*
X203340000Y-32665000D02*
X203340000Y-24940000D01*
X209940000Y-29890000D02*
X209940000Y-24940000D01*
D12*
X199590000Y-42590000D02*
X203590000Y-42590000D01*
X203590000Y-42590000D02*
X204590000Y-41590000D01*
X204590000Y-41590000D02*
X204590000Y-37590000D01*
X204590000Y-37590000D02*
X203590000Y-36590000D01*
X203590000Y-36590000D02*
X199590000Y-36590000D01*
X199590000Y-36590000D02*
X198590000Y-37590000D01*
X198590000Y-37590000D02*
X198590000Y-41590000D01*
X198590000Y-41590000D02*
X199590000Y-42590000D01*
D11*
X204590279Y-34400000D02*
X204264721Y-34400000D01*
X204590279Y-33380000D02*
X204264721Y-33380000D01*
X212800000Y-37187936D02*
X212800000Y-38392064D01*
X210980000Y-37187936D02*
X210980000Y-38392064D01*
D10*
X201390000Y-31415000D02*
X201390000Y-35028000D01*
X199790000Y-32352000D02*
X199790000Y-35028000D01*
D11*
X208792064Y-35200000D02*
X207587936Y-35200000D01*
X208792064Y-33380000D02*
X207587936Y-33380000D01*
D10*
X205940000Y-39040000D02*
X205940000Y-36540000D01*
X210440000Y-36540000D02*
X210440000Y-39040000D01*
D13*
X206675000Y-40418000D02*
G75*
G03X206675000Y-40418000I-17000J0D01*
G01*
D11*
X209800000Y-41887936D02*
X209800000Y-43092064D01*
X207980000Y-41887936D02*
X207980000Y-43092064D01*
D15*
X82096666Y-149472380D02*
X81763333Y-148996190D01*
X81525238Y-149472380D02*
X81525238Y-148472380D01*
X81906190Y-148472380D01*
X82001428Y-148520000D01*
X82049047Y-148567619D01*
X82096666Y-148662857D01*
X82096666Y-148805714D01*
X82049047Y-148900952D01*
X82001428Y-148948571D01*
X81906190Y-148996190D01*
X81525238Y-148996190D01*
X82525238Y-148948571D02*
X82858571Y-148948571D01*
X83001428Y-149472380D02*
X82525238Y-149472380D01*
X82525238Y-148472380D01*
X83001428Y-148472380D01*
X83763333Y-148948571D02*
X83430000Y-148948571D01*
X83430000Y-149472380D02*
X83430000Y-148472380D01*
X83906190Y-148472380D01*
X84430000Y-148472380D02*
X84430000Y-148710476D01*
X84191904Y-148615238D02*
X84430000Y-148710476D01*
X84668095Y-148615238D01*
X84287142Y-148900952D02*
X84430000Y-148710476D01*
X84572857Y-148900952D01*
X85191904Y-148472380D02*
X85191904Y-148710476D01*
X84953809Y-148615238D02*
X85191904Y-148710476D01*
X85430000Y-148615238D01*
X85049047Y-148900952D02*
X85191904Y-148710476D01*
X85334761Y-148900952D01*
X187156666Y-149492380D02*
X186823333Y-149016190D01*
X186585238Y-149492380D02*
X186585238Y-148492380D01*
X186966190Y-148492380D01*
X187061428Y-148540000D01*
X187109047Y-148587619D01*
X187156666Y-148682857D01*
X187156666Y-148825714D01*
X187109047Y-148920952D01*
X187061428Y-148968571D01*
X186966190Y-149016190D01*
X186585238Y-149016190D01*
X187585238Y-148968571D02*
X187918571Y-148968571D01*
X188061428Y-149492380D02*
X187585238Y-149492380D01*
X187585238Y-148492380D01*
X188061428Y-148492380D01*
X188823333Y-148968571D02*
X188490000Y-148968571D01*
X188490000Y-149492380D02*
X188490000Y-148492380D01*
X188966190Y-148492380D01*
X189490000Y-148492380D02*
X189490000Y-148730476D01*
X189251904Y-148635238D02*
X189490000Y-148730476D01*
X189728095Y-148635238D01*
X189347142Y-148920952D02*
X189490000Y-148730476D01*
X189632857Y-148920952D01*
X190251904Y-148492380D02*
X190251904Y-148730476D01*
X190013809Y-148635238D02*
X190251904Y-148730476D01*
X190490000Y-148635238D01*
X190109047Y-148920952D02*
X190251904Y-148730476D01*
X190394761Y-148920952D01*
X187156666Y-44432380D02*
X186823333Y-43956190D01*
X186585238Y-44432380D02*
X186585238Y-43432380D01*
X186966190Y-43432380D01*
X187061428Y-43480000D01*
X187109047Y-43527619D01*
X187156666Y-43622857D01*
X187156666Y-43765714D01*
X187109047Y-43860952D01*
X187061428Y-43908571D01*
X186966190Y-43956190D01*
X186585238Y-43956190D01*
X187585238Y-43908571D02*
X187918571Y-43908571D01*
X188061428Y-44432380D02*
X187585238Y-44432380D01*
X187585238Y-43432380D01*
X188061428Y-43432380D01*
X188823333Y-43908571D02*
X188490000Y-43908571D01*
X188490000Y-44432380D02*
X188490000Y-43432380D01*
X188966190Y-43432380D01*
X189490000Y-43432380D02*
X189490000Y-43670476D01*
X189251904Y-43575238D02*
X189490000Y-43670476D01*
X189728095Y-43575238D01*
X189347142Y-43860952D02*
X189490000Y-43670476D01*
X189632857Y-43860952D01*
X190251904Y-43432380D02*
X190251904Y-43670476D01*
X190013809Y-43575238D02*
X190251904Y-43670476D01*
X190490000Y-43575238D01*
X190109047Y-43860952D02*
X190251904Y-43670476D01*
X190394761Y-43860952D01*
X82116666Y-44482380D02*
X81783333Y-44006190D01*
X81545238Y-44482380D02*
X81545238Y-43482380D01*
X81926190Y-43482380D01*
X82021428Y-43530000D01*
X82069047Y-43577619D01*
X82116666Y-43672857D01*
X82116666Y-43815714D01*
X82069047Y-43910952D01*
X82021428Y-43958571D01*
X81926190Y-44006190D01*
X81545238Y-44006190D01*
X82545238Y-43958571D02*
X82878571Y-43958571D01*
X83021428Y-44482380D02*
X82545238Y-44482380D01*
X82545238Y-43482380D01*
X83021428Y-43482380D01*
X83783333Y-43958571D02*
X83450000Y-43958571D01*
X83450000Y-44482380D02*
X83450000Y-43482380D01*
X83926190Y-43482380D01*
X84450000Y-43482380D02*
X84450000Y-43720476D01*
X84211904Y-43625238D02*
X84450000Y-43720476D01*
X84688095Y-43625238D01*
X84307142Y-43910952D02*
X84450000Y-43720476D01*
X84592857Y-43910952D01*
X85211904Y-43482380D02*
X85211904Y-43720476D01*
X84973809Y-43625238D02*
X85211904Y-43720476D01*
X85450000Y-43625238D01*
X85069047Y-43910952D02*
X85211904Y-43720476D01*
X85354761Y-43910952D01*
X59442380Y-83004285D02*
X58442380Y-83004285D01*
X58442380Y-82766190D01*
X58490000Y-82623333D01*
X58585238Y-82528095D01*
X58680476Y-82480476D01*
X58870952Y-82432857D01*
X59013809Y-82432857D01*
X59204285Y-82480476D01*
X59299523Y-82528095D01*
X59394761Y-82623333D01*
X59442380Y-82766190D01*
X59442380Y-83004285D01*
X58442380Y-82099523D02*
X58442380Y-81480476D01*
X58823333Y-81813809D01*
X58823333Y-81670952D01*
X58870952Y-81575714D01*
X58918571Y-81528095D01*
X59013809Y-81480476D01*
X59251904Y-81480476D01*
X59347142Y-81528095D01*
X59394761Y-81575714D01*
X59442380Y-81670952D01*
X59442380Y-81956666D01*
X59394761Y-82051904D01*
X59347142Y-82099523D01*
X58870952Y-80909047D02*
X58823333Y-81004285D01*
X58775714Y-81051904D01*
X58680476Y-81099523D01*
X58632857Y-81099523D01*
X58537619Y-81051904D01*
X58490000Y-81004285D01*
X58442380Y-80909047D01*
X58442380Y-80718571D01*
X58490000Y-80623333D01*
X58537619Y-80575714D01*
X58632857Y-80528095D01*
X58680476Y-80528095D01*
X58775714Y-80575714D01*
X58823333Y-80623333D01*
X58870952Y-80718571D01*
X58870952Y-80909047D01*
X58918571Y-81004285D01*
X58966190Y-81051904D01*
X59061428Y-81099523D01*
X59251904Y-81099523D01*
X59347142Y-81051904D01*
X59394761Y-81004285D01*
X59442380Y-80909047D01*
X59442380Y-80718571D01*
X59394761Y-80623333D01*
X59347142Y-80575714D01*
X59251904Y-80528095D01*
X59061428Y-80528095D01*
X58966190Y-80575714D01*
X58918571Y-80623333D01*
X58870952Y-80718571D01*
X59442380Y-107604285D02*
X58442380Y-107604285D01*
X58442380Y-107366190D01*
X58490000Y-107223333D01*
X58585238Y-107128095D01*
X58680476Y-107080476D01*
X58870952Y-107032857D01*
X59013809Y-107032857D01*
X59204285Y-107080476D01*
X59299523Y-107128095D01*
X59394761Y-107223333D01*
X59442380Y-107366190D01*
X59442380Y-107604285D01*
X58775714Y-106175714D02*
X59442380Y-106175714D01*
X58394761Y-106413809D02*
X59109047Y-106651904D01*
X59109047Y-106032857D01*
X58442380Y-105461428D02*
X58442380Y-105366190D01*
X58490000Y-105270952D01*
X58537619Y-105223333D01*
X58632857Y-105175714D01*
X58823333Y-105128095D01*
X59061428Y-105128095D01*
X59251904Y-105175714D01*
X59347142Y-105223333D01*
X59394761Y-105270952D01*
X59442380Y-105366190D01*
X59442380Y-105461428D01*
X59394761Y-105556666D01*
X59347142Y-105604285D01*
X59251904Y-105651904D01*
X59061428Y-105699523D01*
X58823333Y-105699523D01*
X58632857Y-105651904D01*
X58537619Y-105604285D01*
X58490000Y-105556666D01*
X58442380Y-105461428D01*
X154775714Y-104342380D02*
X154775714Y-103342380D01*
X155013809Y-103342380D01*
X155156666Y-103390000D01*
X155251904Y-103485238D01*
X155299523Y-103580476D01*
X155347142Y-103770952D01*
X155347142Y-103913809D01*
X155299523Y-104104285D01*
X155251904Y-104199523D01*
X155156666Y-104294761D01*
X155013809Y-104342380D01*
X154775714Y-104342380D01*
X156204285Y-103675714D02*
X156204285Y-104342380D01*
X155966190Y-103294761D02*
X155728095Y-104009047D01*
X156347142Y-104009047D01*
X156775714Y-104342380D02*
X156966190Y-104342380D01*
X157061428Y-104294761D01*
X157109047Y-104247142D01*
X157204285Y-104104285D01*
X157251904Y-103913809D01*
X157251904Y-103532857D01*
X157204285Y-103437619D01*
X157156666Y-103390000D01*
X157061428Y-103342380D01*
X156870952Y-103342380D01*
X156775714Y-103390000D01*
X156728095Y-103437619D01*
X156680476Y-103532857D01*
X156680476Y-103770952D01*
X156728095Y-103866190D01*
X156775714Y-103913809D01*
X156870952Y-103961428D01*
X157061428Y-103961428D01*
X157156666Y-103913809D01*
X157204285Y-103866190D01*
X157251904Y-103770952D01*
X59342380Y-46504285D02*
X58342380Y-46504285D01*
X58342380Y-46266190D01*
X58390000Y-46123333D01*
X58485238Y-46028095D01*
X58580476Y-45980476D01*
X58770952Y-45932857D01*
X58913809Y-45932857D01*
X59104285Y-45980476D01*
X59199523Y-46028095D01*
X59294761Y-46123333D01*
X59342380Y-46266190D01*
X59342380Y-46504285D01*
X58342380Y-45599523D02*
X58342380Y-44980476D01*
X58723333Y-45313809D01*
X58723333Y-45170952D01*
X58770952Y-45075714D01*
X58818571Y-45028095D01*
X58913809Y-44980476D01*
X59151904Y-44980476D01*
X59247142Y-45028095D01*
X59294761Y-45075714D01*
X59342380Y-45170952D01*
X59342380Y-45456666D01*
X59294761Y-45551904D01*
X59247142Y-45599523D01*
X58342380Y-44075714D02*
X58342380Y-44551904D01*
X58818571Y-44599523D01*
X58770952Y-44551904D01*
X58723333Y-44456666D01*
X58723333Y-44218571D01*
X58770952Y-44123333D01*
X58818571Y-44075714D01*
X58913809Y-44028095D01*
X59151904Y-44028095D01*
X59247142Y-44075714D01*
X59294761Y-44123333D01*
X59342380Y-44218571D01*
X59342380Y-44456666D01*
X59294761Y-44551904D01*
X59247142Y-44599523D01*
D13*
X66782523Y-32657380D02*
X65512523Y-32657380D01*
X65512523Y-32355000D01*
X65573000Y-32173571D01*
X65693952Y-32052619D01*
X65814904Y-31992142D01*
X66056809Y-31931666D01*
X66238238Y-31931666D01*
X66480142Y-31992142D01*
X66601095Y-32052619D01*
X66722047Y-32173571D01*
X66782523Y-32355000D01*
X66782523Y-32657380D01*
X66782523Y-30722142D02*
X66782523Y-31447857D01*
X66782523Y-31085000D02*
X65512523Y-31085000D01*
X65693952Y-31205952D01*
X65814904Y-31326904D01*
X65875380Y-31447857D01*
D15*
X59342380Y-95304285D02*
X58342380Y-95304285D01*
X58342380Y-95066190D01*
X58390000Y-94923333D01*
X58485238Y-94828095D01*
X58580476Y-94780476D01*
X58770952Y-94732857D01*
X58913809Y-94732857D01*
X59104285Y-94780476D01*
X59199523Y-94828095D01*
X59294761Y-94923333D01*
X59342380Y-95066190D01*
X59342380Y-95304285D01*
X58342380Y-94399523D02*
X58342380Y-93780476D01*
X58723333Y-94113809D01*
X58723333Y-93970952D01*
X58770952Y-93875714D01*
X58818571Y-93828095D01*
X58913809Y-93780476D01*
X59151904Y-93780476D01*
X59247142Y-93828095D01*
X59294761Y-93875714D01*
X59342380Y-93970952D01*
X59342380Y-94256666D01*
X59294761Y-94351904D01*
X59247142Y-94399523D01*
X59342380Y-93304285D02*
X59342380Y-93113809D01*
X59294761Y-93018571D01*
X59247142Y-92970952D01*
X59104285Y-92875714D01*
X58913809Y-92828095D01*
X58532857Y-92828095D01*
X58437619Y-92875714D01*
X58390000Y-92923333D01*
X58342380Y-93018571D01*
X58342380Y-93209047D01*
X58390000Y-93304285D01*
X58437619Y-93351904D01*
X58532857Y-93399523D01*
X58770952Y-93399523D01*
X58866190Y-93351904D01*
X58913809Y-93304285D01*
X58961428Y-93209047D01*
X58961428Y-93018571D01*
X58913809Y-92923333D01*
X58866190Y-92875714D01*
X58770952Y-92828095D01*
X59442380Y-156504285D02*
X58442380Y-156504285D01*
X58442380Y-156266190D01*
X58490000Y-156123333D01*
X58585238Y-156028095D01*
X58680476Y-155980476D01*
X58870952Y-155932857D01*
X59013809Y-155932857D01*
X59204285Y-155980476D01*
X59299523Y-156028095D01*
X59394761Y-156123333D01*
X59442380Y-156266190D01*
X59442380Y-156504285D01*
X58775714Y-155075714D02*
X59442380Y-155075714D01*
X58394761Y-155313809D02*
X59109047Y-155551904D01*
X59109047Y-154932857D01*
X58775714Y-154123333D02*
X59442380Y-154123333D01*
X58394761Y-154361428D02*
X59109047Y-154599523D01*
X59109047Y-153980476D01*
X81917142Y-143832857D02*
X81964761Y-143880476D01*
X82012380Y-144023333D01*
X82012380Y-144118571D01*
X81964761Y-144261428D01*
X81869523Y-144356666D01*
X81774285Y-144404285D01*
X81583809Y-144451904D01*
X81440952Y-144451904D01*
X81250476Y-144404285D01*
X81155238Y-144356666D01*
X81060000Y-144261428D01*
X81012380Y-144118571D01*
X81012380Y-144023333D01*
X81060000Y-143880476D01*
X81107619Y-143832857D01*
X82012380Y-142880476D02*
X82012380Y-143451904D01*
X82012380Y-143166190D02*
X81012380Y-143166190D01*
X81155238Y-143261428D01*
X81250476Y-143356666D01*
X81298095Y-143451904D01*
X81012380Y-141975714D02*
X81012380Y-142451904D01*
X81488571Y-142499523D01*
X81440952Y-142451904D01*
X81393333Y-142356666D01*
X81393333Y-142118571D01*
X81440952Y-142023333D01*
X81488571Y-141975714D01*
X81583809Y-141928095D01*
X81821904Y-141928095D01*
X81917142Y-141975714D01*
X81964761Y-142023333D01*
X82012380Y-142118571D01*
X82012380Y-142356666D01*
X81964761Y-142451904D01*
X81917142Y-142499523D01*
D13*
X66514523Y-57827380D02*
X65244523Y-57827380D01*
X65244523Y-57525000D01*
X65305000Y-57343571D01*
X65425952Y-57222619D01*
X65546904Y-57162142D01*
X65788809Y-57101666D01*
X65970238Y-57101666D01*
X66212142Y-57162142D01*
X66333095Y-57222619D01*
X66454047Y-57343571D01*
X66514523Y-57525000D01*
X66514523Y-57827380D01*
X65365476Y-56617857D02*
X65305000Y-56557380D01*
X65244523Y-56436428D01*
X65244523Y-56134047D01*
X65305000Y-56013095D01*
X65365476Y-55952619D01*
X65486428Y-55892142D01*
X65607380Y-55892142D01*
X65788809Y-55952619D01*
X66514523Y-56678333D01*
X66514523Y-55892142D01*
X41064523Y-35882142D02*
X39794523Y-35882142D01*
X39794523Y-35579761D01*
X39855000Y-35398333D01*
X39975952Y-35277380D01*
X40096904Y-35216904D01*
X40338809Y-35156428D01*
X40520238Y-35156428D01*
X40762142Y-35216904D01*
X40883095Y-35277380D01*
X41004047Y-35398333D01*
X41064523Y-35579761D01*
X41064523Y-35882142D01*
X39794523Y-34733095D02*
X39794523Y-33946904D01*
X40278333Y-34370238D01*
X40278333Y-34188809D01*
X40338809Y-34067857D01*
X40399285Y-34007380D01*
X40520238Y-33946904D01*
X40822619Y-33946904D01*
X40943571Y-34007380D01*
X41004047Y-34067857D01*
X41064523Y-34188809D01*
X41064523Y-34551666D01*
X41004047Y-34672619D01*
X40943571Y-34733095D01*
X40217857Y-32858333D02*
X41064523Y-32858333D01*
X39734047Y-33160714D02*
X40641190Y-33463095D01*
X40641190Y-32676904D01*
D15*
X59342380Y-58604285D02*
X58342380Y-58604285D01*
X58342380Y-58366190D01*
X58390000Y-58223333D01*
X58485238Y-58128095D01*
X58580476Y-58080476D01*
X58770952Y-58032857D01*
X58913809Y-58032857D01*
X59104285Y-58080476D01*
X59199523Y-58128095D01*
X59294761Y-58223333D01*
X59342380Y-58366190D01*
X59342380Y-58604285D01*
X58342380Y-57699523D02*
X58342380Y-57080476D01*
X58723333Y-57413809D01*
X58723333Y-57270952D01*
X58770952Y-57175714D01*
X58818571Y-57128095D01*
X58913809Y-57080476D01*
X59151904Y-57080476D01*
X59247142Y-57128095D01*
X59294761Y-57175714D01*
X59342380Y-57270952D01*
X59342380Y-57556666D01*
X59294761Y-57651904D01*
X59247142Y-57699523D01*
X58342380Y-56223333D02*
X58342380Y-56413809D01*
X58390000Y-56509047D01*
X58437619Y-56556666D01*
X58580476Y-56651904D01*
X58770952Y-56699523D01*
X59151904Y-56699523D01*
X59247142Y-56651904D01*
X59294761Y-56604285D01*
X59342380Y-56509047D01*
X59342380Y-56318571D01*
X59294761Y-56223333D01*
X59247142Y-56175714D01*
X59151904Y-56128095D01*
X58913809Y-56128095D01*
X58818571Y-56175714D01*
X58770952Y-56223333D01*
X58723333Y-56318571D01*
X58723333Y-56509047D01*
X58770952Y-56604285D01*
X58818571Y-56651904D01*
X58913809Y-56699523D01*
X59442380Y-119704285D02*
X58442380Y-119704285D01*
X58442380Y-119466190D01*
X58490000Y-119323333D01*
X58585238Y-119228095D01*
X58680476Y-119180476D01*
X58870952Y-119132857D01*
X59013809Y-119132857D01*
X59204285Y-119180476D01*
X59299523Y-119228095D01*
X59394761Y-119323333D01*
X59442380Y-119466190D01*
X59442380Y-119704285D01*
X58775714Y-118275714D02*
X59442380Y-118275714D01*
X58394761Y-118513809D02*
X59109047Y-118751904D01*
X59109047Y-118132857D01*
X59442380Y-117228095D02*
X59442380Y-117799523D01*
X59442380Y-117513809D02*
X58442380Y-117513809D01*
X58585238Y-117609047D01*
X58680476Y-117704285D01*
X58728095Y-117799523D01*
D13*
X69014523Y-140632142D02*
X67744523Y-140632142D01*
X67744523Y-140329761D01*
X67805000Y-140148333D01*
X67925952Y-140027380D01*
X68046904Y-139966904D01*
X68288809Y-139906428D01*
X68470238Y-139906428D01*
X68712142Y-139966904D01*
X68833095Y-140027380D01*
X68954047Y-140148333D01*
X69014523Y-140329761D01*
X69014523Y-140632142D01*
X68167857Y-138817857D02*
X69014523Y-138817857D01*
X67684047Y-139120238D02*
X68591190Y-139422619D01*
X68591190Y-138636428D01*
X67744523Y-137547857D02*
X67744523Y-138152619D01*
X68349285Y-138213095D01*
X68288809Y-138152619D01*
X68228333Y-138031666D01*
X68228333Y-137729285D01*
X68288809Y-137608333D01*
X68349285Y-137547857D01*
X68470238Y-137487380D01*
X68772619Y-137487380D01*
X68893571Y-137547857D01*
X68954047Y-137608333D01*
X69014523Y-137729285D01*
X69014523Y-138031666D01*
X68954047Y-138152619D01*
X68893571Y-138213095D01*
D15*
X59442380Y-144304285D02*
X58442380Y-144304285D01*
X58442380Y-144066190D01*
X58490000Y-143923333D01*
X58585238Y-143828095D01*
X58680476Y-143780476D01*
X58870952Y-143732857D01*
X59013809Y-143732857D01*
X59204285Y-143780476D01*
X59299523Y-143828095D01*
X59394761Y-143923333D01*
X59442380Y-144066190D01*
X59442380Y-144304285D01*
X58775714Y-142875714D02*
X59442380Y-142875714D01*
X58394761Y-143113809D02*
X59109047Y-143351904D01*
X59109047Y-142732857D01*
X58442380Y-142447142D02*
X58442380Y-141828095D01*
X58823333Y-142161428D01*
X58823333Y-142018571D01*
X58870952Y-141923333D01*
X58918571Y-141875714D01*
X59013809Y-141828095D01*
X59251904Y-141828095D01*
X59347142Y-141875714D01*
X59394761Y-141923333D01*
X59442380Y-142018571D01*
X59442380Y-142304285D01*
X59394761Y-142399523D01*
X59347142Y-142447142D01*
X145875714Y-113092380D02*
X145875714Y-112092380D01*
X146113809Y-112092380D01*
X146256666Y-112140000D01*
X146351904Y-112235238D01*
X146399523Y-112330476D01*
X146447142Y-112520952D01*
X146447142Y-112663809D01*
X146399523Y-112854285D01*
X146351904Y-112949523D01*
X146256666Y-113044761D01*
X146113809Y-113092380D01*
X145875714Y-113092380D01*
X147351904Y-112092380D02*
X146875714Y-112092380D01*
X146828095Y-112568571D01*
X146875714Y-112520952D01*
X146970952Y-112473333D01*
X147209047Y-112473333D01*
X147304285Y-112520952D01*
X147351904Y-112568571D01*
X147399523Y-112663809D01*
X147399523Y-112901904D01*
X147351904Y-112997142D01*
X147304285Y-113044761D01*
X147209047Y-113092380D01*
X146970952Y-113092380D01*
X146875714Y-113044761D01*
X146828095Y-112997142D01*
X148018571Y-112092380D02*
X148113809Y-112092380D01*
X148209047Y-112140000D01*
X148256666Y-112187619D01*
X148304285Y-112282857D01*
X148351904Y-112473333D01*
X148351904Y-112711428D01*
X148304285Y-112901904D01*
X148256666Y-112997142D01*
X148209047Y-113044761D01*
X148113809Y-113092380D01*
X148018571Y-113092380D01*
X147923333Y-113044761D01*
X147875714Y-112997142D01*
X147828095Y-112901904D01*
X147780476Y-112711428D01*
X147780476Y-112473333D01*
X147828095Y-112282857D01*
X147875714Y-112187619D01*
X147923333Y-112140000D01*
X148018571Y-112092380D01*
X158975714Y-149422380D02*
X158975714Y-148422380D01*
X159213809Y-148422380D01*
X159356666Y-148470000D01*
X159451904Y-148565238D01*
X159499523Y-148660476D01*
X159547142Y-148850952D01*
X159547142Y-148993809D01*
X159499523Y-149184285D01*
X159451904Y-149279523D01*
X159356666Y-149374761D01*
X159213809Y-149422380D01*
X158975714Y-149422380D01*
X160451904Y-148422380D02*
X159975714Y-148422380D01*
X159928095Y-148898571D01*
X159975714Y-148850952D01*
X160070952Y-148803333D01*
X160309047Y-148803333D01*
X160404285Y-148850952D01*
X160451904Y-148898571D01*
X160499523Y-148993809D01*
X160499523Y-149231904D01*
X160451904Y-149327142D01*
X160404285Y-149374761D01*
X160309047Y-149422380D01*
X160070952Y-149422380D01*
X159975714Y-149374761D01*
X159928095Y-149327142D01*
X161451904Y-149422380D02*
X160880476Y-149422380D01*
X161166190Y-149422380D02*
X161166190Y-148422380D01*
X161070952Y-148565238D01*
X160975714Y-148660476D01*
X160880476Y-148708095D01*
X43991785Y-76772380D02*
X44563214Y-76772380D01*
X44277500Y-77772380D02*
X44277500Y-76772380D01*
X44896547Y-77772380D02*
X44896547Y-76772380D01*
X44896547Y-77248571D02*
X45467976Y-77248571D01*
X45467976Y-77772380D02*
X45467976Y-76772380D01*
X46467976Y-77772380D02*
X45896547Y-77772380D01*
X46182261Y-77772380D02*
X46182261Y-76772380D01*
X46087023Y-76915238D01*
X45991785Y-77010476D01*
X45896547Y-77058095D01*
X111851904Y-31542380D02*
X111851904Y-30542380D01*
X112090000Y-30542380D01*
X112232857Y-30590000D01*
X112328095Y-30685238D01*
X112375714Y-30780476D01*
X112423333Y-30970952D01*
X112423333Y-31113809D01*
X112375714Y-31304285D01*
X112328095Y-31399523D01*
X112232857Y-31494761D01*
X112090000Y-31542380D01*
X111851904Y-31542380D01*
X113328095Y-30542380D02*
X112851904Y-30542380D01*
X112804285Y-31018571D01*
X112851904Y-30970952D01*
X112947142Y-30923333D01*
X113185238Y-30923333D01*
X113280476Y-30970952D01*
X113328095Y-31018571D01*
X113375714Y-31113809D01*
X113375714Y-31351904D01*
X113328095Y-31447142D01*
X113280476Y-31494761D01*
X113185238Y-31542380D01*
X112947142Y-31542380D01*
X112851904Y-31494761D01*
X112804285Y-31447142D01*
X127225714Y-72942380D02*
X127225714Y-71942380D01*
X127463809Y-71942380D01*
X127606666Y-71990000D01*
X127701904Y-72085238D01*
X127749523Y-72180476D01*
X127797142Y-72370952D01*
X127797142Y-72513809D01*
X127749523Y-72704285D01*
X127701904Y-72799523D01*
X127606666Y-72894761D01*
X127463809Y-72942380D01*
X127225714Y-72942380D01*
X128178095Y-72037619D02*
X128225714Y-71990000D01*
X128320952Y-71942380D01*
X128559047Y-71942380D01*
X128654285Y-71990000D01*
X128701904Y-72037619D01*
X128749523Y-72132857D01*
X128749523Y-72228095D01*
X128701904Y-72370952D01*
X128130476Y-72942380D01*
X128749523Y-72942380D01*
X129368571Y-71942380D02*
X129463809Y-71942380D01*
X129559047Y-71990000D01*
X129606666Y-72037619D01*
X129654285Y-72132857D01*
X129701904Y-72323333D01*
X129701904Y-72561428D01*
X129654285Y-72751904D01*
X129606666Y-72847142D01*
X129559047Y-72894761D01*
X129463809Y-72942380D01*
X129368571Y-72942380D01*
X129273333Y-72894761D01*
X129225714Y-72847142D01*
X129178095Y-72751904D01*
X129130476Y-72561428D01*
X129130476Y-72323333D01*
X129178095Y-72132857D01*
X129225714Y-72037619D01*
X129273333Y-71990000D01*
X129368571Y-71942380D01*
X111325714Y-166492380D02*
X111325714Y-165492380D01*
X111563809Y-165492380D01*
X111706666Y-165540000D01*
X111801904Y-165635238D01*
X111849523Y-165730476D01*
X111897142Y-165920952D01*
X111897142Y-166063809D01*
X111849523Y-166254285D01*
X111801904Y-166349523D01*
X111706666Y-166444761D01*
X111563809Y-166492380D01*
X111325714Y-166492380D01*
X112278095Y-165587619D02*
X112325714Y-165540000D01*
X112420952Y-165492380D01*
X112659047Y-165492380D01*
X112754285Y-165540000D01*
X112801904Y-165587619D01*
X112849523Y-165682857D01*
X112849523Y-165778095D01*
X112801904Y-165920952D01*
X112230476Y-166492380D01*
X112849523Y-166492380D01*
X113706666Y-165492380D02*
X113516190Y-165492380D01*
X113420952Y-165540000D01*
X113373333Y-165587619D01*
X113278095Y-165730476D01*
X113230476Y-165920952D01*
X113230476Y-166301904D01*
X113278095Y-166397142D01*
X113325714Y-166444761D01*
X113420952Y-166492380D01*
X113611428Y-166492380D01*
X113706666Y-166444761D01*
X113754285Y-166397142D01*
X113801904Y-166301904D01*
X113801904Y-166063809D01*
X113754285Y-165968571D01*
X113706666Y-165920952D01*
X113611428Y-165873333D01*
X113420952Y-165873333D01*
X113325714Y-165920952D01*
X113278095Y-165968571D01*
X113230476Y-166063809D01*
X163475714Y-95542380D02*
X163475714Y-94542380D01*
X163713809Y-94542380D01*
X163856666Y-94590000D01*
X163951904Y-94685238D01*
X163999523Y-94780476D01*
X164047142Y-94970952D01*
X164047142Y-95113809D01*
X163999523Y-95304285D01*
X163951904Y-95399523D01*
X163856666Y-95494761D01*
X163713809Y-95542380D01*
X163475714Y-95542380D01*
X164904285Y-94875714D02*
X164904285Y-95542380D01*
X164666190Y-94494761D02*
X164428095Y-95209047D01*
X165047142Y-95209047D01*
X165570952Y-94970952D02*
X165475714Y-94923333D01*
X165428095Y-94875714D01*
X165380476Y-94780476D01*
X165380476Y-94732857D01*
X165428095Y-94637619D01*
X165475714Y-94590000D01*
X165570952Y-94542380D01*
X165761428Y-94542380D01*
X165856666Y-94590000D01*
X165904285Y-94637619D01*
X165951904Y-94732857D01*
X165951904Y-94780476D01*
X165904285Y-94875714D01*
X165856666Y-94923333D01*
X165761428Y-94970952D01*
X165570952Y-94970952D01*
X165475714Y-95018571D01*
X165428095Y-95066190D01*
X165380476Y-95161428D01*
X165380476Y-95351904D01*
X165428095Y-95447142D01*
X165475714Y-95494761D01*
X165570952Y-95542380D01*
X165761428Y-95542380D01*
X165856666Y-95494761D01*
X165904285Y-95447142D01*
X165951904Y-95351904D01*
X165951904Y-95161428D01*
X165904285Y-95066190D01*
X165856666Y-95018571D01*
X165761428Y-94970952D01*
X141275714Y-131842380D02*
X141275714Y-130842380D01*
X141513809Y-130842380D01*
X141656666Y-130890000D01*
X141751904Y-130985238D01*
X141799523Y-131080476D01*
X141847142Y-131270952D01*
X141847142Y-131413809D01*
X141799523Y-131604285D01*
X141751904Y-131699523D01*
X141656666Y-131794761D01*
X141513809Y-131842380D01*
X141275714Y-131842380D01*
X142751904Y-130842380D02*
X142275714Y-130842380D01*
X142228095Y-131318571D01*
X142275714Y-131270952D01*
X142370952Y-131223333D01*
X142609047Y-131223333D01*
X142704285Y-131270952D01*
X142751904Y-131318571D01*
X142799523Y-131413809D01*
X142799523Y-131651904D01*
X142751904Y-131747142D01*
X142704285Y-131794761D01*
X142609047Y-131842380D01*
X142370952Y-131842380D01*
X142275714Y-131794761D01*
X142228095Y-131747142D01*
X143132857Y-130842380D02*
X143751904Y-130842380D01*
X143418571Y-131223333D01*
X143561428Y-131223333D01*
X143656666Y-131270952D01*
X143704285Y-131318571D01*
X143751904Y-131413809D01*
X143751904Y-131651904D01*
X143704285Y-131747142D01*
X143656666Y-131794761D01*
X143561428Y-131842380D01*
X143275714Y-131842380D01*
X143180476Y-131794761D01*
X143132857Y-131747142D01*
X166925714Y-166542380D02*
X166925714Y-165542380D01*
X167163809Y-165542380D01*
X167306666Y-165590000D01*
X167401904Y-165685238D01*
X167449523Y-165780476D01*
X167497142Y-165970952D01*
X167497142Y-166113809D01*
X167449523Y-166304285D01*
X167401904Y-166399523D01*
X167306666Y-166494761D01*
X167163809Y-166542380D01*
X166925714Y-166542380D01*
X167830476Y-165542380D02*
X168449523Y-165542380D01*
X168116190Y-165923333D01*
X168259047Y-165923333D01*
X168354285Y-165970952D01*
X168401904Y-166018571D01*
X168449523Y-166113809D01*
X168449523Y-166351904D01*
X168401904Y-166447142D01*
X168354285Y-166494761D01*
X168259047Y-166542380D01*
X167973333Y-166542380D01*
X167878095Y-166494761D01*
X167830476Y-166447142D01*
X169401904Y-166542380D02*
X168830476Y-166542380D01*
X169116190Y-166542380D02*
X169116190Y-165542380D01*
X169020952Y-165685238D01*
X168925714Y-165780476D01*
X168830476Y-165828095D01*
X132375714Y-122942380D02*
X132375714Y-121942380D01*
X132613809Y-121942380D01*
X132756666Y-121990000D01*
X132851904Y-122085238D01*
X132899523Y-122180476D01*
X132947142Y-122370952D01*
X132947142Y-122513809D01*
X132899523Y-122704285D01*
X132851904Y-122799523D01*
X132756666Y-122894761D01*
X132613809Y-122942380D01*
X132375714Y-122942380D01*
X133851904Y-121942380D02*
X133375714Y-121942380D01*
X133328095Y-122418571D01*
X133375714Y-122370952D01*
X133470952Y-122323333D01*
X133709047Y-122323333D01*
X133804285Y-122370952D01*
X133851904Y-122418571D01*
X133899523Y-122513809D01*
X133899523Y-122751904D01*
X133851904Y-122847142D01*
X133804285Y-122894761D01*
X133709047Y-122942380D01*
X133470952Y-122942380D01*
X133375714Y-122894761D01*
X133328095Y-122847142D01*
X134756666Y-122275714D02*
X134756666Y-122942380D01*
X134518571Y-121894761D02*
X134280476Y-122609047D01*
X134899523Y-122609047D01*
D16*
X68708766Y-141071205D02*
X68333813Y-141071205D01*
X68333813Y-140283803D01*
X69346187Y-140283803D02*
X68971233Y-140283803D01*
X68933738Y-140658757D01*
X68971233Y-140621261D01*
X69046224Y-140583766D01*
X69233701Y-140583766D01*
X69308691Y-140621261D01*
X69346187Y-140658757D01*
X69383682Y-140733747D01*
X69383682Y-140921224D01*
X69346187Y-140996215D01*
X69308691Y-141033710D01*
X69233701Y-141071205D01*
X69046224Y-141071205D01*
X68971233Y-141033710D01*
X68933738Y-140996215D01*
X68204285Y-144500714D02*
X68204285Y-145167380D01*
X67990000Y-144119761D02*
X67775714Y-144834047D01*
X68332857Y-144834047D01*
X68590000Y-144167380D02*
X69190000Y-144167380D01*
X68804285Y-145167380D01*
X69918571Y-144500714D02*
X69918571Y-145167380D01*
X69532857Y-144500714D02*
X69532857Y-145024523D01*
X69575714Y-145119761D01*
X69661428Y-145167380D01*
X69790000Y-145167380D01*
X69875714Y-145119761D01*
X69918571Y-145072142D01*
X70347142Y-145167380D02*
X70347142Y-144167380D01*
X70347142Y-144643571D02*
X70861428Y-144643571D01*
X70861428Y-145167380D02*
X70861428Y-144167380D01*
X40758766Y-36346205D02*
X40383813Y-36346205D01*
X40383813Y-35558803D01*
X41358691Y-35821271D02*
X41358691Y-36346205D01*
X41171215Y-35521308D02*
X40983738Y-36083738D01*
X41471177Y-36083738D01*
X40254285Y-39775714D02*
X40254285Y-40442380D01*
X40040000Y-39394761D02*
X39825714Y-40109047D01*
X40382857Y-40109047D01*
X40640000Y-39442380D02*
X41240000Y-39442380D01*
X40854285Y-40442380D01*
X41968571Y-39775714D02*
X41968571Y-40442380D01*
X41582857Y-39775714D02*
X41582857Y-40299523D01*
X41625714Y-40394761D01*
X41711428Y-40442380D01*
X41840000Y-40442380D01*
X41925714Y-40394761D01*
X41968571Y-40347142D01*
X42397142Y-40442380D02*
X42397142Y-39442380D01*
X42397142Y-39918571D02*
X42911428Y-39918571D01*
X42911428Y-40442380D02*
X42911428Y-39442380D01*
D15*
X123475714Y-114142380D02*
X123475714Y-113142380D01*
X123713809Y-113142380D01*
X123856666Y-113190000D01*
X123951904Y-113285238D01*
X123999523Y-113380476D01*
X124047142Y-113570952D01*
X124047142Y-113713809D01*
X123999523Y-113904285D01*
X123951904Y-113999523D01*
X123856666Y-114094761D01*
X123713809Y-114142380D01*
X123475714Y-114142380D01*
X124951904Y-113142380D02*
X124475714Y-113142380D01*
X124428095Y-113618571D01*
X124475714Y-113570952D01*
X124570952Y-113523333D01*
X124809047Y-113523333D01*
X124904285Y-113570952D01*
X124951904Y-113618571D01*
X124999523Y-113713809D01*
X124999523Y-113951904D01*
X124951904Y-114047142D01*
X124904285Y-114094761D01*
X124809047Y-114142380D01*
X124570952Y-114142380D01*
X124475714Y-114094761D01*
X124428095Y-114047142D01*
X125904285Y-113142380D02*
X125428095Y-113142380D01*
X125380476Y-113618571D01*
X125428095Y-113570952D01*
X125523333Y-113523333D01*
X125761428Y-113523333D01*
X125856666Y-113570952D01*
X125904285Y-113618571D01*
X125951904Y-113713809D01*
X125951904Y-113951904D01*
X125904285Y-114047142D01*
X125856666Y-114094761D01*
X125761428Y-114142380D01*
X125523333Y-114142380D01*
X125428095Y-114094761D01*
X125380476Y-114047142D01*
D13*
X46806380Y-35356523D02*
X46806380Y-36384619D01*
X46866857Y-36505571D01*
X46927333Y-36566047D01*
X47048285Y-36626523D01*
X47290190Y-36626523D01*
X47411142Y-36566047D01*
X47471619Y-36505571D01*
X47532095Y-36384619D01*
X47532095Y-35356523D01*
X48681142Y-35779857D02*
X48681142Y-36626523D01*
X48378761Y-35296047D02*
X48076380Y-36203190D01*
X48862571Y-36203190D01*
D15*
X104925714Y-109542380D02*
X104925714Y-108542380D01*
X105163809Y-108542380D01*
X105306666Y-108590000D01*
X105401904Y-108685238D01*
X105449523Y-108780476D01*
X105497142Y-108970952D01*
X105497142Y-109113809D01*
X105449523Y-109304285D01*
X105401904Y-109399523D01*
X105306666Y-109494761D01*
X105163809Y-109542380D01*
X104925714Y-109542380D01*
X106449523Y-109542380D02*
X105878095Y-109542380D01*
X106163809Y-109542380D02*
X106163809Y-108542380D01*
X106068571Y-108685238D01*
X105973333Y-108780476D01*
X105878095Y-108828095D01*
X107354285Y-108542380D02*
X106878095Y-108542380D01*
X106830476Y-109018571D01*
X106878095Y-108970952D01*
X106973333Y-108923333D01*
X107211428Y-108923333D01*
X107306666Y-108970952D01*
X107354285Y-109018571D01*
X107401904Y-109113809D01*
X107401904Y-109351904D01*
X107354285Y-109447142D01*
X107306666Y-109494761D01*
X107211428Y-109542380D01*
X106973333Y-109542380D01*
X106878095Y-109494761D01*
X106830476Y-109447142D01*
X59442380Y-132004285D02*
X58442380Y-132004285D01*
X58442380Y-131766190D01*
X58490000Y-131623333D01*
X58585238Y-131528095D01*
X58680476Y-131480476D01*
X58870952Y-131432857D01*
X59013809Y-131432857D01*
X59204285Y-131480476D01*
X59299523Y-131528095D01*
X59394761Y-131623333D01*
X59442380Y-131766190D01*
X59442380Y-132004285D01*
X58775714Y-130575714D02*
X59442380Y-130575714D01*
X58394761Y-130813809D02*
X59109047Y-131051904D01*
X59109047Y-130432857D01*
X58537619Y-130099523D02*
X58490000Y-130051904D01*
X58442380Y-129956666D01*
X58442380Y-129718571D01*
X58490000Y-129623333D01*
X58537619Y-129575714D01*
X58632857Y-129528095D01*
X58728095Y-129528095D01*
X58870952Y-129575714D01*
X59442380Y-130147142D01*
X59442380Y-129528095D01*
D13*
X74786381Y-139931523D02*
X74786381Y-140959619D01*
X74846858Y-141080571D01*
X74907334Y-141141047D01*
X75028286Y-141201523D01*
X75270191Y-141201523D01*
X75391143Y-141141047D01*
X75451620Y-141080571D01*
X75512096Y-140959619D01*
X75512096Y-139931523D01*
X76721620Y-139931523D02*
X76116858Y-139931523D01*
X76056381Y-140536285D01*
X76116858Y-140475809D01*
X76237810Y-140415333D01*
X76540191Y-140415333D01*
X76661143Y-140475809D01*
X76721620Y-140536285D01*
X76782096Y-140657238D01*
X76782096Y-140959619D01*
X76721620Y-141080571D01*
X76661143Y-141141047D01*
X76540191Y-141201523D01*
X76237810Y-141201523D01*
X76116858Y-141141047D01*
X76056381Y-141080571D01*
D15*
X59442380Y-70804285D02*
X58442380Y-70804285D01*
X58442380Y-70566190D01*
X58490000Y-70423333D01*
X58585238Y-70328095D01*
X58680476Y-70280476D01*
X58870952Y-70232857D01*
X59013809Y-70232857D01*
X59204285Y-70280476D01*
X59299523Y-70328095D01*
X59394761Y-70423333D01*
X59442380Y-70566190D01*
X59442380Y-70804285D01*
X58442380Y-69899523D02*
X58442380Y-69280476D01*
X58823333Y-69613809D01*
X58823333Y-69470952D01*
X58870952Y-69375714D01*
X58918571Y-69328095D01*
X59013809Y-69280476D01*
X59251904Y-69280476D01*
X59347142Y-69328095D01*
X59394761Y-69375714D01*
X59442380Y-69470952D01*
X59442380Y-69756666D01*
X59394761Y-69851904D01*
X59347142Y-69899523D01*
X58442380Y-68947142D02*
X58442380Y-68280476D01*
X59442380Y-68709047D01*
X166925714Y-31492380D02*
X166925714Y-30492380D01*
X167163809Y-30492380D01*
X167306666Y-30540000D01*
X167401904Y-30635238D01*
X167449523Y-30730476D01*
X167497142Y-30920952D01*
X167497142Y-31063809D01*
X167449523Y-31254285D01*
X167401904Y-31349523D01*
X167306666Y-31444761D01*
X167163809Y-31492380D01*
X166925714Y-31492380D01*
X168449523Y-31492380D02*
X167878095Y-31492380D01*
X168163809Y-31492380D02*
X168163809Y-30492380D01*
X168068571Y-30635238D01*
X167973333Y-30730476D01*
X167878095Y-30778095D01*
X169068571Y-30492380D02*
X169163809Y-30492380D01*
X169259047Y-30540000D01*
X169306666Y-30587619D01*
X169354285Y-30682857D01*
X169401904Y-30873333D01*
X169401904Y-31111428D01*
X169354285Y-31301904D01*
X169306666Y-31397142D01*
X169259047Y-31444761D01*
X169163809Y-31492380D01*
X169068571Y-31492380D01*
X168973333Y-31444761D01*
X168925714Y-31397142D01*
X168878095Y-31301904D01*
X168830476Y-31111428D01*
X168830476Y-30873333D01*
X168878095Y-30682857D01*
X168925714Y-30587619D01*
X168973333Y-30540000D01*
X169068571Y-30492380D01*
X150175714Y-140542380D02*
X150175714Y-139542380D01*
X150413809Y-139542380D01*
X150556666Y-139590000D01*
X150651904Y-139685238D01*
X150699523Y-139780476D01*
X150747142Y-139970952D01*
X150747142Y-140113809D01*
X150699523Y-140304285D01*
X150651904Y-140399523D01*
X150556666Y-140494761D01*
X150413809Y-140542380D01*
X150175714Y-140542380D01*
X151651904Y-139542380D02*
X151175714Y-139542380D01*
X151128095Y-140018571D01*
X151175714Y-139970952D01*
X151270952Y-139923333D01*
X151509047Y-139923333D01*
X151604285Y-139970952D01*
X151651904Y-140018571D01*
X151699523Y-140113809D01*
X151699523Y-140351904D01*
X151651904Y-140447142D01*
X151604285Y-140494761D01*
X151509047Y-140542380D01*
X151270952Y-140542380D01*
X151175714Y-140494761D01*
X151128095Y-140447142D01*
X152080476Y-139637619D02*
X152128095Y-139590000D01*
X152223333Y-139542380D01*
X152461428Y-139542380D01*
X152556666Y-139590000D01*
X152604285Y-139637619D01*
X152651904Y-139732857D01*
X152651904Y-139828095D01*
X152604285Y-139970952D01*
X152032857Y-140542380D01*
X152651904Y-140542380D01*
X73513333Y-59662380D02*
X73180000Y-59186190D01*
X72941904Y-59662380D02*
X72941904Y-58662380D01*
X73322857Y-58662380D01*
X73418095Y-58710000D01*
X73465714Y-58757619D01*
X73513333Y-58852857D01*
X73513333Y-58995714D01*
X73465714Y-59090952D01*
X73418095Y-59138571D01*
X73322857Y-59186190D01*
X72941904Y-59186190D01*
X73846666Y-58662380D02*
X74465714Y-58662380D01*
X74132380Y-59043333D01*
X74275238Y-59043333D01*
X74370476Y-59090952D01*
X74418095Y-59138571D01*
X74465714Y-59233809D01*
X74465714Y-59471904D01*
X74418095Y-59567142D01*
X74370476Y-59614761D01*
X74275238Y-59662380D01*
X73989523Y-59662380D01*
X73894285Y-59614761D01*
X73846666Y-59567142D01*
D13*
X42194523Y-57813333D02*
X43101666Y-57813333D01*
X43283095Y-57873809D01*
X43404047Y-57994761D01*
X43464523Y-58176190D01*
X43464523Y-58297142D01*
X43464523Y-56543333D02*
X43464523Y-57269047D01*
X43464523Y-56906190D02*
X42194523Y-56906190D01*
X42375952Y-57027142D01*
X42496904Y-57148095D01*
X42557380Y-57269047D01*
D15*
X48023333Y-37262380D02*
X47690000Y-36786190D01*
X47451904Y-37262380D02*
X47451904Y-36262380D01*
X47832857Y-36262380D01*
X47928095Y-36310000D01*
X47975714Y-36357619D01*
X48023333Y-36452857D01*
X48023333Y-36595714D01*
X47975714Y-36690952D01*
X47928095Y-36738571D01*
X47832857Y-36786190D01*
X47451904Y-36786190D01*
X48928095Y-36262380D02*
X48451904Y-36262380D01*
X48404285Y-36738571D01*
X48451904Y-36690952D01*
X48547142Y-36643333D01*
X48785238Y-36643333D01*
X48880476Y-36690952D01*
X48928095Y-36738571D01*
X48975714Y-36833809D01*
X48975714Y-37071904D01*
X48928095Y-37167142D01*
X48880476Y-37214761D01*
X48785238Y-37262380D01*
X48547142Y-37262380D01*
X48451904Y-37214761D01*
X48404285Y-37167142D01*
X76223333Y-141862380D02*
X75890000Y-141386190D01*
X75651904Y-141862380D02*
X75651904Y-140862380D01*
X76032857Y-140862380D01*
X76128095Y-140910000D01*
X76175714Y-140957619D01*
X76223333Y-141052857D01*
X76223333Y-141195714D01*
X76175714Y-141290952D01*
X76128095Y-141338571D01*
X76032857Y-141386190D01*
X75651904Y-141386190D01*
X77080476Y-140862380D02*
X76890000Y-140862380D01*
X76794761Y-140910000D01*
X76747142Y-140957619D01*
X76651904Y-141100476D01*
X76604285Y-141290952D01*
X76604285Y-141671904D01*
X76651904Y-141767142D01*
X76699523Y-141814761D01*
X76794761Y-141862380D01*
X76985238Y-141862380D01*
X77080476Y-141814761D01*
X77128095Y-141767142D01*
X77175714Y-141671904D01*
X77175714Y-141433809D01*
X77128095Y-141338571D01*
X77080476Y-141290952D01*
X76985238Y-141243333D01*
X76794761Y-141243333D01*
X76699523Y-141290952D01*
X76651904Y-141338571D01*
X76604285Y-141433809D01*
X79262380Y-148482857D02*
X78786190Y-148816190D01*
X79262380Y-149054285D02*
X78262380Y-149054285D01*
X78262380Y-148673333D01*
X78310000Y-148578095D01*
X78357619Y-148530476D01*
X78452857Y-148482857D01*
X78595714Y-148482857D01*
X78690952Y-148530476D01*
X78738571Y-148578095D01*
X78786190Y-148673333D01*
X78786190Y-149054285D01*
X79262380Y-147530476D02*
X79262380Y-148101904D01*
X79262380Y-147816190D02*
X78262380Y-147816190D01*
X78405238Y-147911428D01*
X78500476Y-148006666D01*
X78548095Y-148101904D01*
X78262380Y-147197142D02*
X78262380Y-146578095D01*
X78643333Y-146911428D01*
X78643333Y-146768571D01*
X78690952Y-146673333D01*
X78738571Y-146625714D01*
X78833809Y-146578095D01*
X79071904Y-146578095D01*
X79167142Y-146625714D01*
X79214761Y-146673333D01*
X79262380Y-146768571D01*
X79262380Y-147054285D01*
X79214761Y-147149523D01*
X79167142Y-147197142D01*
X51162380Y-44132857D02*
X50686190Y-44466190D01*
X51162380Y-44704285D02*
X50162380Y-44704285D01*
X50162380Y-44323333D01*
X50210000Y-44228095D01*
X50257619Y-44180476D01*
X50352857Y-44132857D01*
X50495714Y-44132857D01*
X50590952Y-44180476D01*
X50638571Y-44228095D01*
X50686190Y-44323333D01*
X50686190Y-44704285D01*
X51162380Y-43180476D02*
X51162380Y-43751904D01*
X51162380Y-43466190D02*
X50162380Y-43466190D01*
X50305238Y-43561428D01*
X50400476Y-43656666D01*
X50448095Y-43751904D01*
X50257619Y-42799523D02*
X50210000Y-42751904D01*
X50162380Y-42656666D01*
X50162380Y-42418571D01*
X50210000Y-42323333D01*
X50257619Y-42275714D01*
X50352857Y-42228095D01*
X50448095Y-42228095D01*
X50590952Y-42275714D01*
X51162380Y-42847142D01*
X51162380Y-42228095D01*
X50597142Y-65412380D02*
X50263809Y-64936190D01*
X50025714Y-65412380D02*
X50025714Y-64412380D01*
X50406666Y-64412380D01*
X50501904Y-64460000D01*
X50549523Y-64507619D01*
X50597142Y-64602857D01*
X50597142Y-64745714D01*
X50549523Y-64840952D01*
X50501904Y-64888571D01*
X50406666Y-64936190D01*
X50025714Y-64936190D01*
X51549523Y-65412380D02*
X50978095Y-65412380D01*
X51263809Y-65412380D02*
X51263809Y-64412380D01*
X51168571Y-64555238D01*
X51073333Y-64650476D01*
X50978095Y-64698095D01*
X52454285Y-64412380D02*
X51978095Y-64412380D01*
X51930476Y-64888571D01*
X51978095Y-64840952D01*
X52073333Y-64793333D01*
X52311428Y-64793333D01*
X52406666Y-64840952D01*
X52454285Y-64888571D01*
X52501904Y-64983809D01*
X52501904Y-65221904D01*
X52454285Y-65317142D01*
X52406666Y-65364761D01*
X52311428Y-65412380D01*
X52073333Y-65412380D01*
X51978095Y-65364761D01*
X51930476Y-65317142D01*
D13*
X40619523Y-87663333D02*
X41526666Y-87663333D01*
X41708095Y-87723809D01*
X41829047Y-87844761D01*
X41889523Y-88026190D01*
X41889523Y-88147142D01*
X40740476Y-87119047D02*
X40680000Y-87058571D01*
X40619523Y-86937619D01*
X40619523Y-86635238D01*
X40680000Y-86514285D01*
X40740476Y-86453809D01*
X40861428Y-86393333D01*
X40982380Y-86393333D01*
X41163809Y-86453809D01*
X41889523Y-87179523D01*
X41889523Y-86393333D01*
D15*
X76612380Y-66582857D02*
X76136190Y-66916190D01*
X76612380Y-67154285D02*
X75612380Y-67154285D01*
X75612380Y-66773333D01*
X75660000Y-66678095D01*
X75707619Y-66630476D01*
X75802857Y-66582857D01*
X75945714Y-66582857D01*
X76040952Y-66630476D01*
X76088571Y-66678095D01*
X76136190Y-66773333D01*
X76136190Y-67154285D01*
X76612380Y-65630476D02*
X76612380Y-66201904D01*
X76612380Y-65916190D02*
X75612380Y-65916190D01*
X75755238Y-66011428D01*
X75850476Y-66106666D01*
X75898095Y-66201904D01*
X75612380Y-65011428D02*
X75612380Y-64916190D01*
X75660000Y-64820952D01*
X75707619Y-64773333D01*
X75802857Y-64725714D01*
X75993333Y-64678095D01*
X76231428Y-64678095D01*
X76421904Y-64725714D01*
X76517142Y-64773333D01*
X76564761Y-64820952D01*
X76612380Y-64916190D01*
X76612380Y-65011428D01*
X76564761Y-65106666D01*
X76517142Y-65154285D01*
X76421904Y-65201904D01*
X76231428Y-65249523D01*
X75993333Y-65249523D01*
X75802857Y-65201904D01*
X75707619Y-65154285D01*
X75660000Y-65106666D01*
X75612380Y-65011428D01*
X76822380Y-40956666D02*
X76346190Y-41290000D01*
X76822380Y-41528095D02*
X75822380Y-41528095D01*
X75822380Y-41147142D01*
X75870000Y-41051904D01*
X75917619Y-41004285D01*
X76012857Y-40956666D01*
X76155714Y-40956666D01*
X76250952Y-41004285D01*
X76298571Y-41051904D01*
X76346190Y-41147142D01*
X76346190Y-41528095D01*
X76250952Y-40385238D02*
X76203333Y-40480476D01*
X76155714Y-40528095D01*
X76060476Y-40575714D01*
X76012857Y-40575714D01*
X75917619Y-40528095D01*
X75870000Y-40480476D01*
X75822380Y-40385238D01*
X75822380Y-40194761D01*
X75870000Y-40099523D01*
X75917619Y-40051904D01*
X76012857Y-40004285D01*
X76060476Y-40004285D01*
X76155714Y-40051904D01*
X76203333Y-40099523D01*
X76250952Y-40194761D01*
X76250952Y-40385238D01*
X76298571Y-40480476D01*
X76346190Y-40528095D01*
X76441428Y-40575714D01*
X76631904Y-40575714D01*
X76727142Y-40528095D01*
X76774761Y-40480476D01*
X76822380Y-40385238D01*
X76822380Y-40194761D01*
X76774761Y-40099523D01*
X76727142Y-40051904D01*
X76631904Y-40004285D01*
X76441428Y-40004285D01*
X76346190Y-40051904D01*
X76298571Y-40099523D01*
X76250952Y-40194761D01*
X144625714Y-166542380D02*
X144625714Y-165542380D01*
X144863809Y-165542380D01*
X145006666Y-165590000D01*
X145101904Y-165685238D01*
X145149523Y-165780476D01*
X145197142Y-165970952D01*
X145197142Y-166113809D01*
X145149523Y-166304285D01*
X145101904Y-166399523D01*
X145006666Y-166494761D01*
X144863809Y-166542380D01*
X144625714Y-166542380D01*
X145578095Y-165637619D02*
X145625714Y-165590000D01*
X145720952Y-165542380D01*
X145959047Y-165542380D01*
X146054285Y-165590000D01*
X146101904Y-165637619D01*
X146149523Y-165732857D01*
X146149523Y-165828095D01*
X146101904Y-165970952D01*
X145530476Y-166542380D01*
X146149523Y-166542380D01*
X146625714Y-166542380D02*
X146816190Y-166542380D01*
X146911428Y-166494761D01*
X146959047Y-166447142D01*
X147054285Y-166304285D01*
X147101904Y-166113809D01*
X147101904Y-165732857D01*
X147054285Y-165637619D01*
X147006666Y-165590000D01*
X146911428Y-165542380D01*
X146720952Y-165542380D01*
X146625714Y-165590000D01*
X146578095Y-165637619D01*
X146530476Y-165732857D01*
X146530476Y-165970952D01*
X146578095Y-166066190D01*
X146625714Y-166113809D01*
X146720952Y-166161428D01*
X146911428Y-166161428D01*
X147006666Y-166113809D01*
X147054285Y-166066190D01*
X147101904Y-165970952D01*
X155825714Y-166592380D02*
X155825714Y-165592380D01*
X156063809Y-165592380D01*
X156206666Y-165640000D01*
X156301904Y-165735238D01*
X156349523Y-165830476D01*
X156397142Y-166020952D01*
X156397142Y-166163809D01*
X156349523Y-166354285D01*
X156301904Y-166449523D01*
X156206666Y-166544761D01*
X156063809Y-166592380D01*
X155825714Y-166592380D01*
X156730476Y-165592380D02*
X157349523Y-165592380D01*
X157016190Y-165973333D01*
X157159047Y-165973333D01*
X157254285Y-166020952D01*
X157301904Y-166068571D01*
X157349523Y-166163809D01*
X157349523Y-166401904D01*
X157301904Y-166497142D01*
X157254285Y-166544761D01*
X157159047Y-166592380D01*
X156873333Y-166592380D01*
X156778095Y-166544761D01*
X156730476Y-166497142D01*
X157968571Y-165592380D02*
X158063809Y-165592380D01*
X158159047Y-165640000D01*
X158206666Y-165687619D01*
X158254285Y-165782857D01*
X158301904Y-165973333D01*
X158301904Y-166211428D01*
X158254285Y-166401904D01*
X158206666Y-166497142D01*
X158159047Y-166544761D01*
X158063809Y-166592380D01*
X157968571Y-166592380D01*
X157873333Y-166544761D01*
X157825714Y-166497142D01*
X157778095Y-166401904D01*
X157730476Y-166211428D01*
X157730476Y-165973333D01*
X157778095Y-165782857D01*
X157825714Y-165687619D01*
X157873333Y-165640000D01*
X157968571Y-165592380D01*
X43759642Y-33517142D02*
X43712023Y-33564761D01*
X43569166Y-33612380D01*
X43473928Y-33612380D01*
X43331071Y-33564761D01*
X43235833Y-33469523D01*
X43188214Y-33374285D01*
X43140595Y-33183809D01*
X43140595Y-33040952D01*
X43188214Y-32850476D01*
X43235833Y-32755238D01*
X43331071Y-32660000D01*
X43473928Y-32612380D01*
X43569166Y-32612380D01*
X43712023Y-32660000D01*
X43759642Y-32707619D01*
X44712023Y-33612380D02*
X44140595Y-33612380D01*
X44426309Y-33612380D02*
X44426309Y-32612380D01*
X44331071Y-32755238D01*
X44235833Y-32850476D01*
X44140595Y-32898095D01*
X45664404Y-33612380D02*
X45092976Y-33612380D01*
X45378690Y-33612380D02*
X45378690Y-32612380D01*
X45283452Y-32755238D01*
X45188214Y-32850476D01*
X45092976Y-32898095D01*
X122425714Y-166542380D02*
X122425714Y-165542380D01*
X122663809Y-165542380D01*
X122806666Y-165590000D01*
X122901904Y-165685238D01*
X122949523Y-165780476D01*
X122997142Y-165970952D01*
X122997142Y-166113809D01*
X122949523Y-166304285D01*
X122901904Y-166399523D01*
X122806666Y-166494761D01*
X122663809Y-166542380D01*
X122425714Y-166542380D01*
X123378095Y-165637619D02*
X123425714Y-165590000D01*
X123520952Y-165542380D01*
X123759047Y-165542380D01*
X123854285Y-165590000D01*
X123901904Y-165637619D01*
X123949523Y-165732857D01*
X123949523Y-165828095D01*
X123901904Y-165970952D01*
X123330476Y-166542380D01*
X123949523Y-166542380D01*
X124282857Y-165542380D02*
X124949523Y-165542380D01*
X124520952Y-166542380D01*
X71884642Y-141027142D02*
X71837023Y-141074761D01*
X71694166Y-141122380D01*
X71598928Y-141122380D01*
X71456071Y-141074761D01*
X71360833Y-140979523D01*
X71313214Y-140884285D01*
X71265595Y-140693809D01*
X71265595Y-140550952D01*
X71313214Y-140360476D01*
X71360833Y-140265238D01*
X71456071Y-140170000D01*
X71598928Y-140122380D01*
X71694166Y-140122380D01*
X71837023Y-140170000D01*
X71884642Y-140217619D01*
X72837023Y-141122380D02*
X72265595Y-141122380D01*
X72551309Y-141122380D02*
X72551309Y-140122380D01*
X72456071Y-140265238D01*
X72360833Y-140360476D01*
X72265595Y-140408095D01*
X73694166Y-140455714D02*
X73694166Y-141122380D01*
X73456071Y-140074761D02*
X73217976Y-140789047D01*
X73837023Y-140789047D01*
D13*
X72166380Y-57951523D02*
X72166380Y-58979619D01*
X72226857Y-59100571D01*
X72287333Y-59161047D01*
X72408285Y-59221523D01*
X72650190Y-59221523D01*
X72771142Y-59161047D01*
X72831619Y-59100571D01*
X72892095Y-58979619D01*
X72892095Y-57951523D01*
X73436380Y-58072476D02*
X73496857Y-58012000D01*
X73617809Y-57951523D01*
X73920190Y-57951523D01*
X74041142Y-58012000D01*
X74101619Y-58072476D01*
X74162095Y-58193428D01*
X74162095Y-58314380D01*
X74101619Y-58495809D01*
X73375904Y-59221523D01*
X74162095Y-59221523D01*
D15*
X118475714Y-64192380D02*
X118475714Y-63192380D01*
X118713809Y-63192380D01*
X118856666Y-63240000D01*
X118951904Y-63335238D01*
X118999523Y-63430476D01*
X119047142Y-63620952D01*
X119047142Y-63763809D01*
X118999523Y-63954285D01*
X118951904Y-64049523D01*
X118856666Y-64144761D01*
X118713809Y-64192380D01*
X118475714Y-64192380D01*
X119999523Y-64192380D02*
X119428095Y-64192380D01*
X119713809Y-64192380D02*
X119713809Y-63192380D01*
X119618571Y-63335238D01*
X119523333Y-63430476D01*
X119428095Y-63478095D01*
X120475714Y-64192380D02*
X120666190Y-64192380D01*
X120761428Y-64144761D01*
X120809047Y-64097142D01*
X120904285Y-63954285D01*
X120951904Y-63763809D01*
X120951904Y-63382857D01*
X120904285Y-63287619D01*
X120856666Y-63240000D01*
X120761428Y-63192380D01*
X120570952Y-63192380D01*
X120475714Y-63240000D01*
X120428095Y-63287619D01*
X120380476Y-63382857D01*
X120380476Y-63620952D01*
X120428095Y-63716190D01*
X120475714Y-63763809D01*
X120570952Y-63811428D01*
X120761428Y-63811428D01*
X120856666Y-63763809D01*
X120904285Y-63716190D01*
X120951904Y-63620952D01*
D13*
X47043571Y-30406428D02*
X47104047Y-30466904D01*
X47164523Y-30648333D01*
X47164523Y-30769285D01*
X47104047Y-30950714D01*
X46983095Y-31071666D01*
X46862142Y-31132142D01*
X46620238Y-31192619D01*
X46438809Y-31192619D01*
X46196904Y-31132142D01*
X46075952Y-31071666D01*
X45955000Y-30950714D01*
X45894523Y-30769285D01*
X45894523Y-30648333D01*
X45955000Y-30466904D01*
X46015476Y-30406428D01*
X47164523Y-29196904D02*
X47164523Y-29922619D01*
X47164523Y-29559761D02*
X45894523Y-29559761D01*
X46075952Y-29680714D01*
X46196904Y-29801666D01*
X46257380Y-29922619D01*
X45894523Y-28410714D02*
X45894523Y-28289761D01*
X45955000Y-28168809D01*
X46015476Y-28108333D01*
X46136428Y-28047857D01*
X46378333Y-27987380D01*
X46680714Y-27987380D01*
X46922619Y-28047857D01*
X47043571Y-28108333D01*
X47104047Y-28168809D01*
X47164523Y-28289761D01*
X47164523Y-28410714D01*
X47104047Y-28531666D01*
X47043571Y-28592142D01*
X46922619Y-28652619D01*
X46680714Y-28713095D01*
X46378333Y-28713095D01*
X46136428Y-28652619D01*
X46015476Y-28592142D01*
X45955000Y-28531666D01*
X45894523Y-28410714D01*
D15*
X136225714Y-81692380D02*
X136225714Y-80692380D01*
X136463809Y-80692380D01*
X136606666Y-80740000D01*
X136701904Y-80835238D01*
X136749523Y-80930476D01*
X136797142Y-81120952D01*
X136797142Y-81263809D01*
X136749523Y-81454285D01*
X136701904Y-81549523D01*
X136606666Y-81644761D01*
X136463809Y-81692380D01*
X136225714Y-81692380D01*
X137178095Y-80787619D02*
X137225714Y-80740000D01*
X137320952Y-80692380D01*
X137559047Y-80692380D01*
X137654285Y-80740000D01*
X137701904Y-80787619D01*
X137749523Y-80882857D01*
X137749523Y-80978095D01*
X137701904Y-81120952D01*
X137130476Y-81692380D01*
X137749523Y-81692380D01*
X138701904Y-81692380D02*
X138130476Y-81692380D01*
X138416190Y-81692380D02*
X138416190Y-80692380D01*
X138320952Y-80835238D01*
X138225714Y-80930476D01*
X138130476Y-80978095D01*
X100175714Y-166542380D02*
X100175714Y-165542380D01*
X100413809Y-165542380D01*
X100556666Y-165590000D01*
X100651904Y-165685238D01*
X100699523Y-165780476D01*
X100747142Y-165970952D01*
X100747142Y-166113809D01*
X100699523Y-166304285D01*
X100651904Y-166399523D01*
X100556666Y-166494761D01*
X100413809Y-166542380D01*
X100175714Y-166542380D01*
X101128095Y-165637619D02*
X101175714Y-165590000D01*
X101270952Y-165542380D01*
X101509047Y-165542380D01*
X101604285Y-165590000D01*
X101651904Y-165637619D01*
X101699523Y-165732857D01*
X101699523Y-165828095D01*
X101651904Y-165970952D01*
X101080476Y-166542380D01*
X101699523Y-166542380D01*
X102604285Y-165542380D02*
X102128095Y-165542380D01*
X102080476Y-166018571D01*
X102128095Y-165970952D01*
X102223333Y-165923333D01*
X102461428Y-165923333D01*
X102556666Y-165970952D01*
X102604285Y-166018571D01*
X102651904Y-166113809D01*
X102651904Y-166351904D01*
X102604285Y-166447142D01*
X102556666Y-166494761D01*
X102461428Y-166542380D01*
X102223333Y-166542380D01*
X102128095Y-166494761D01*
X102080476Y-166447142D01*
D13*
X75143571Y-134306428D02*
X75204047Y-134366904D01*
X75264523Y-134548333D01*
X75264523Y-134669285D01*
X75204047Y-134850714D01*
X75083095Y-134971666D01*
X74962142Y-135032142D01*
X74720238Y-135092619D01*
X74538809Y-135092619D01*
X74296904Y-135032142D01*
X74175952Y-134971666D01*
X74055000Y-134850714D01*
X73994523Y-134669285D01*
X73994523Y-134548333D01*
X74055000Y-134366904D01*
X74115476Y-134306428D01*
X75264523Y-133096904D02*
X75264523Y-133822619D01*
X75264523Y-133459761D02*
X73994523Y-133459761D01*
X74175952Y-133580714D01*
X74296904Y-133701666D01*
X74357380Y-133822619D01*
X73994523Y-132673571D02*
X73994523Y-131887380D01*
X74478333Y-132310714D01*
X74478333Y-132129285D01*
X74538809Y-132008333D01*
X74599285Y-131947857D01*
X74720238Y-131887380D01*
X75022619Y-131887380D01*
X75143571Y-131947857D01*
X75204047Y-132008333D01*
X75264523Y-132129285D01*
X75264523Y-132492142D01*
X75204047Y-132613095D01*
X75143571Y-132673571D01*
D15*
X89025714Y-166542380D02*
X89025714Y-165542380D01*
X89263809Y-165542380D01*
X89406666Y-165590000D01*
X89501904Y-165685238D01*
X89549523Y-165780476D01*
X89597142Y-165970952D01*
X89597142Y-166113809D01*
X89549523Y-166304285D01*
X89501904Y-166399523D01*
X89406666Y-166494761D01*
X89263809Y-166542380D01*
X89025714Y-166542380D01*
X89978095Y-165637619D02*
X90025714Y-165590000D01*
X90120952Y-165542380D01*
X90359047Y-165542380D01*
X90454285Y-165590000D01*
X90501904Y-165637619D01*
X90549523Y-165732857D01*
X90549523Y-165828095D01*
X90501904Y-165970952D01*
X89930476Y-166542380D01*
X90549523Y-166542380D01*
X91406666Y-165875714D02*
X91406666Y-166542380D01*
X91168571Y-165494761D02*
X90930476Y-166209047D01*
X91549523Y-166209047D01*
X144975714Y-90442380D02*
X144975714Y-89442380D01*
X145213809Y-89442380D01*
X145356666Y-89490000D01*
X145451904Y-89585238D01*
X145499523Y-89680476D01*
X145547142Y-89870952D01*
X145547142Y-90013809D01*
X145499523Y-90204285D01*
X145451904Y-90299523D01*
X145356666Y-90394761D01*
X145213809Y-90442380D01*
X144975714Y-90442380D01*
X145928095Y-89537619D02*
X145975714Y-89490000D01*
X146070952Y-89442380D01*
X146309047Y-89442380D01*
X146404285Y-89490000D01*
X146451904Y-89537619D01*
X146499523Y-89632857D01*
X146499523Y-89728095D01*
X146451904Y-89870952D01*
X145880476Y-90442380D01*
X146499523Y-90442380D01*
X146880476Y-89537619D02*
X146928095Y-89490000D01*
X147023333Y-89442380D01*
X147261428Y-89442380D01*
X147356666Y-89490000D01*
X147404285Y-89537619D01*
X147451904Y-89632857D01*
X147451904Y-89728095D01*
X147404285Y-89870952D01*
X146832857Y-90442380D01*
X147451904Y-90442380D01*
X133525714Y-166542380D02*
X133525714Y-165542380D01*
X133763809Y-165542380D01*
X133906666Y-165590000D01*
X134001904Y-165685238D01*
X134049523Y-165780476D01*
X134097142Y-165970952D01*
X134097142Y-166113809D01*
X134049523Y-166304285D01*
X134001904Y-166399523D01*
X133906666Y-166494761D01*
X133763809Y-166542380D01*
X133525714Y-166542380D01*
X134478095Y-165637619D02*
X134525714Y-165590000D01*
X134620952Y-165542380D01*
X134859047Y-165542380D01*
X134954285Y-165590000D01*
X135001904Y-165637619D01*
X135049523Y-165732857D01*
X135049523Y-165828095D01*
X135001904Y-165970952D01*
X134430476Y-166542380D01*
X135049523Y-166542380D01*
X135620952Y-165970952D02*
X135525714Y-165923333D01*
X135478095Y-165875714D01*
X135430476Y-165780476D01*
X135430476Y-165732857D01*
X135478095Y-165637619D01*
X135525714Y-165590000D01*
X135620952Y-165542380D01*
X135811428Y-165542380D01*
X135906666Y-165590000D01*
X135954285Y-165637619D01*
X136001904Y-165732857D01*
X136001904Y-165780476D01*
X135954285Y-165875714D01*
X135906666Y-165923333D01*
X135811428Y-165970952D01*
X135620952Y-165970952D01*
X135525714Y-166018571D01*
X135478095Y-166066190D01*
X135430476Y-166161428D01*
X135430476Y-166351904D01*
X135478095Y-166447142D01*
X135525714Y-166494761D01*
X135620952Y-166542380D01*
X135811428Y-166542380D01*
X135906666Y-166494761D01*
X135954285Y-166447142D01*
X136001904Y-166351904D01*
X136001904Y-166161428D01*
X135954285Y-166066190D01*
X135906666Y-166018571D01*
X135811428Y-165970952D01*
D16*
X66208766Y-59011205D02*
X65833813Y-59011205D01*
X65833813Y-58223803D01*
X66433738Y-58298794D02*
X66471233Y-58261299D01*
X66546224Y-58223803D01*
X66733701Y-58223803D01*
X66808691Y-58261299D01*
X66846187Y-58298794D01*
X66883682Y-58373785D01*
X66883682Y-58448775D01*
X66846187Y-58561261D01*
X66396243Y-59011205D01*
X66883682Y-59011205D01*
X65704285Y-62440714D02*
X65704285Y-63107380D01*
X65490000Y-62059761D02*
X65275714Y-62774047D01*
X65832857Y-62774047D01*
X66090000Y-62107380D02*
X66690000Y-62107380D01*
X66304285Y-63107380D01*
X67418571Y-62440714D02*
X67418571Y-63107380D01*
X67032857Y-62440714D02*
X67032857Y-62964523D01*
X67075714Y-63059761D01*
X67161428Y-63107380D01*
X67290000Y-63107380D01*
X67375714Y-63059761D01*
X67418571Y-63012142D01*
X67847142Y-63107380D02*
X67847142Y-62107380D01*
X67847142Y-62583571D02*
X68361428Y-62583571D01*
X68361428Y-63107380D02*
X68361428Y-62107380D01*
D15*
X53967142Y-39232857D02*
X54014761Y-39280476D01*
X54062380Y-39423333D01*
X54062380Y-39518571D01*
X54014761Y-39661428D01*
X53919523Y-39756666D01*
X53824285Y-39804285D01*
X53633809Y-39851904D01*
X53490952Y-39851904D01*
X53300476Y-39804285D01*
X53205238Y-39756666D01*
X53110000Y-39661428D01*
X53062380Y-39518571D01*
X53062380Y-39423333D01*
X53110000Y-39280476D01*
X53157619Y-39232857D01*
X54062380Y-38280476D02*
X54062380Y-38851904D01*
X54062380Y-38566190D02*
X53062380Y-38566190D01*
X53205238Y-38661428D01*
X53300476Y-38756666D01*
X53348095Y-38851904D01*
X53157619Y-37899523D02*
X53110000Y-37851904D01*
X53062380Y-37756666D01*
X53062380Y-37518571D01*
X53110000Y-37423333D01*
X53157619Y-37375714D01*
X53252857Y-37328095D01*
X53348095Y-37328095D01*
X53490952Y-37375714D01*
X54062380Y-37947142D01*
X54062380Y-37328095D01*
D16*
X69858766Y-163371205D02*
X69483813Y-163371205D01*
X69483813Y-162583803D01*
X70046243Y-162583803D02*
X70533682Y-162583803D01*
X70271215Y-162883766D01*
X70383701Y-162883766D01*
X70458691Y-162921261D01*
X70496187Y-162958757D01*
X70533682Y-163033747D01*
X70533682Y-163221224D01*
X70496187Y-163296215D01*
X70458691Y-163333710D01*
X70383701Y-163371205D01*
X70158729Y-163371205D01*
X70083738Y-163333710D01*
X70046243Y-163296215D01*
X69491784Y-166550714D02*
X69491784Y-167217380D01*
X69277499Y-166169761D02*
X69063213Y-166884047D01*
X69620356Y-166884047D01*
X69877499Y-166217380D02*
X70477499Y-166217380D01*
X70091784Y-167217380D01*
X71206070Y-166550714D02*
X71206070Y-167217380D01*
X70820356Y-166550714D02*
X70820356Y-167074523D01*
X70863213Y-167169761D01*
X70948927Y-167217380D01*
X71077499Y-167217380D01*
X71163213Y-167169761D01*
X71206070Y-167122142D01*
X71634641Y-167217380D02*
X71634641Y-166217380D01*
X71634641Y-166693571D02*
X72148927Y-166693571D01*
X72148927Y-167217380D02*
X72148927Y-166217380D01*
D13*
X70164523Y-162832142D02*
X68894523Y-162832142D01*
X68894523Y-162529761D01*
X68955000Y-162348333D01*
X69075952Y-162227380D01*
X69196904Y-162166904D01*
X69438809Y-162106428D01*
X69620238Y-162106428D01*
X69862142Y-162166904D01*
X69983095Y-162227380D01*
X70104047Y-162348333D01*
X70164523Y-162529761D01*
X70164523Y-162832142D01*
X69015476Y-161622619D02*
X68955000Y-161562142D01*
X68894523Y-161441190D01*
X68894523Y-161138809D01*
X68955000Y-161017857D01*
X69015476Y-160957380D01*
X69136428Y-160896904D01*
X69257380Y-160896904D01*
X69438809Y-160957380D01*
X70164523Y-161683095D01*
X70164523Y-160896904D01*
X68894523Y-160473571D02*
X68894523Y-159687380D01*
X69378333Y-160110714D01*
X69378333Y-159929285D01*
X69438809Y-159808333D01*
X69499285Y-159747857D01*
X69620238Y-159687380D01*
X69922619Y-159687380D01*
X70043571Y-159747857D01*
X70104047Y-159808333D01*
X70164523Y-159929285D01*
X70164523Y-160292142D01*
X70104047Y-160413095D01*
X70043571Y-160473571D01*
D15*
X73633333Y-34931980D02*
X73300000Y-34455790D01*
X73061904Y-34931980D02*
X73061904Y-33931980D01*
X73442857Y-33931980D01*
X73538095Y-33979600D01*
X73585714Y-34027219D01*
X73633333Y-34122457D01*
X73633333Y-34265314D01*
X73585714Y-34360552D01*
X73538095Y-34408171D01*
X73442857Y-34455790D01*
X73061904Y-34455790D01*
X74585714Y-34931980D02*
X74014285Y-34931980D01*
X74300000Y-34931980D02*
X74300000Y-33931980D01*
X74204761Y-34074838D01*
X74109523Y-34170076D01*
X74014285Y-34217695D01*
X83067142Y-165706666D02*
X83114761Y-165754285D01*
X83162380Y-165897142D01*
X83162380Y-165992380D01*
X83114761Y-166135238D01*
X83019523Y-166230476D01*
X82924285Y-166278095D01*
X82733809Y-166325714D01*
X82590952Y-166325714D01*
X82400476Y-166278095D01*
X82305238Y-166230476D01*
X82210000Y-166135238D01*
X82162380Y-165992380D01*
X82162380Y-165897142D01*
X82210000Y-165754285D01*
X82257619Y-165706666D01*
X83162380Y-165230476D02*
X83162380Y-165040000D01*
X83114761Y-164944761D01*
X83067142Y-164897142D01*
X82924285Y-164801904D01*
X82733809Y-164754285D01*
X82352857Y-164754285D01*
X82257619Y-164801904D01*
X82210000Y-164849523D01*
X82162380Y-164944761D01*
X82162380Y-165135238D01*
X82210000Y-165230476D01*
X82257619Y-165278095D01*
X82352857Y-165325714D01*
X82590952Y-165325714D01*
X82686190Y-165278095D01*
X82733809Y-165230476D01*
X82781428Y-165135238D01*
X82781428Y-164944761D01*
X82733809Y-164849523D01*
X82686190Y-164801904D01*
X82590952Y-164754285D01*
D13*
X72882380Y-38994523D02*
X72882380Y-40022619D01*
X72942857Y-40143571D01*
X73003333Y-40204047D01*
X73124285Y-40264523D01*
X73366190Y-40264523D01*
X73487142Y-40204047D01*
X73547619Y-40143571D01*
X73608095Y-40022619D01*
X73608095Y-38994523D01*
X74878095Y-40264523D02*
X74152380Y-40264523D01*
X74515238Y-40264523D02*
X74515238Y-38994523D01*
X74394285Y-39175952D01*
X74273333Y-39296904D01*
X74152380Y-39357380D01*
D15*
X80262380Y-170832857D02*
X79786190Y-171166190D01*
X80262380Y-171404285D02*
X79262380Y-171404285D01*
X79262380Y-171023333D01*
X79310000Y-170928095D01*
X79357619Y-170880476D01*
X79452857Y-170832857D01*
X79595714Y-170832857D01*
X79690952Y-170880476D01*
X79738571Y-170928095D01*
X79786190Y-171023333D01*
X79786190Y-171404285D01*
X80262380Y-169880476D02*
X80262380Y-170451904D01*
X80262380Y-170166190D02*
X79262380Y-170166190D01*
X79405238Y-170261428D01*
X79500476Y-170356666D01*
X79548095Y-170451904D01*
X80262380Y-168928095D02*
X80262380Y-169499523D01*
X80262380Y-169213809D02*
X79262380Y-169213809D01*
X79405238Y-169309047D01*
X79500476Y-169404285D01*
X79548095Y-169499523D01*
D13*
X69793971Y-26201666D02*
X69854447Y-26262142D01*
X69914923Y-26443571D01*
X69914923Y-26564523D01*
X69854447Y-26745952D01*
X69733495Y-26866904D01*
X69612542Y-26927380D01*
X69370638Y-26987857D01*
X69189209Y-26987857D01*
X68947304Y-26927380D01*
X68826352Y-26866904D01*
X68705400Y-26745952D01*
X68644923Y-26564523D01*
X68644923Y-26443571D01*
X68705400Y-26262142D01*
X68765876Y-26201666D01*
X69914923Y-24992142D02*
X69914923Y-25717857D01*
X69914923Y-25355000D02*
X68644923Y-25355000D01*
X68826352Y-25475952D01*
X68947304Y-25596904D01*
X69007780Y-25717857D01*
D15*
X73310833Y-163327142D02*
X73263214Y-163374761D01*
X73120357Y-163422380D01*
X73025119Y-163422380D01*
X72882261Y-163374761D01*
X72787023Y-163279523D01*
X72739404Y-163184285D01*
X72691785Y-162993809D01*
X72691785Y-162850952D01*
X72739404Y-162660476D01*
X72787023Y-162565238D01*
X72882261Y-162470000D01*
X73025119Y-162422380D01*
X73120357Y-162422380D01*
X73263214Y-162470000D01*
X73310833Y-162517619D01*
X73882261Y-162850952D02*
X73787023Y-162803333D01*
X73739404Y-162755714D01*
X73691785Y-162660476D01*
X73691785Y-162612857D01*
X73739404Y-162517619D01*
X73787023Y-162470000D01*
X73882261Y-162422380D01*
X74072738Y-162422380D01*
X74167976Y-162470000D01*
X74215595Y-162517619D01*
X74263214Y-162612857D01*
X74263214Y-162660476D01*
X74215595Y-162755714D01*
X74167976Y-162803333D01*
X74072738Y-162850952D01*
X73882261Y-162850952D01*
X73787023Y-162898571D01*
X73739404Y-162946190D01*
X73691785Y-163041428D01*
X73691785Y-163231904D01*
X73739404Y-163327142D01*
X73787023Y-163374761D01*
X73882261Y-163422380D01*
X74072738Y-163422380D01*
X74167976Y-163374761D01*
X74215595Y-163327142D01*
X74263214Y-163231904D01*
X74263214Y-163041428D01*
X74215595Y-162946190D01*
X74167976Y-162898571D01*
X74072738Y-162850952D01*
D13*
X75993571Y-156151666D02*
X76054047Y-156212142D01*
X76114523Y-156393571D01*
X76114523Y-156514523D01*
X76054047Y-156695952D01*
X75933095Y-156816904D01*
X75812142Y-156877380D01*
X75570238Y-156937857D01*
X75388809Y-156937857D01*
X75146904Y-156877380D01*
X75025952Y-156816904D01*
X74905000Y-156695952D01*
X74844523Y-156514523D01*
X74844523Y-156393571D01*
X74905000Y-156212142D01*
X74965476Y-156151666D01*
X74844523Y-155728333D02*
X74844523Y-154881666D01*
X76114523Y-155425952D01*
D15*
X77123333Y-164212380D02*
X76790000Y-163736190D01*
X76551904Y-164212380D02*
X76551904Y-163212380D01*
X76932857Y-163212380D01*
X77028095Y-163260000D01*
X77075714Y-163307619D01*
X77123333Y-163402857D01*
X77123333Y-163545714D01*
X77075714Y-163640952D01*
X77028095Y-163688571D01*
X76932857Y-163736190D01*
X76551904Y-163736190D01*
X77980476Y-163545714D02*
X77980476Y-164212380D01*
X77742380Y-163164761D02*
X77504285Y-163879047D01*
X78123333Y-163879047D01*
D13*
X75906380Y-162311523D02*
X75906380Y-163339619D01*
X75966857Y-163460571D01*
X76027333Y-163521047D01*
X76148285Y-163581523D01*
X76390190Y-163581523D01*
X76511142Y-163521047D01*
X76571619Y-163460571D01*
X76632095Y-163339619D01*
X76632095Y-162311523D01*
X77115904Y-162311523D02*
X77902095Y-162311523D01*
X77478761Y-162795333D01*
X77660190Y-162795333D01*
X77781142Y-162855809D01*
X77841619Y-162916285D01*
X77902095Y-163037238D01*
X77902095Y-163339619D01*
X77841619Y-163460571D01*
X77781142Y-163521047D01*
X77660190Y-163581523D01*
X77297333Y-163581523D01*
X77176380Y-163521047D01*
X77115904Y-163460571D01*
X72193571Y-51501666D02*
X72254047Y-51562142D01*
X72314523Y-51743571D01*
X72314523Y-51864523D01*
X72254047Y-52045952D01*
X72133095Y-52166904D01*
X72012142Y-52227380D01*
X71770238Y-52287857D01*
X71588809Y-52287857D01*
X71346904Y-52227380D01*
X71225952Y-52166904D01*
X71105000Y-52045952D01*
X71044523Y-51864523D01*
X71044523Y-51743571D01*
X71105000Y-51562142D01*
X71165476Y-51501666D01*
X71467857Y-50413095D02*
X72314523Y-50413095D01*
X70984047Y-50715476D02*
X71891190Y-51017857D01*
X71891190Y-50231666D01*
D15*
X87275714Y-127342380D02*
X87275714Y-126342380D01*
X87513809Y-126342380D01*
X87656666Y-126390000D01*
X87751904Y-126485238D01*
X87799523Y-126580476D01*
X87847142Y-126770952D01*
X87847142Y-126913809D01*
X87799523Y-127104285D01*
X87751904Y-127199523D01*
X87656666Y-127294761D01*
X87513809Y-127342380D01*
X87275714Y-127342380D01*
X88799523Y-127342380D02*
X88228095Y-127342380D01*
X88513809Y-127342380D02*
X88513809Y-126342380D01*
X88418571Y-126485238D01*
X88323333Y-126580476D01*
X88228095Y-126628095D01*
X89132857Y-126342380D02*
X89751904Y-126342380D01*
X89418571Y-126723333D01*
X89561428Y-126723333D01*
X89656666Y-126770952D01*
X89704285Y-126818571D01*
X89751904Y-126913809D01*
X89751904Y-127151904D01*
X89704285Y-127247142D01*
X89656666Y-127294761D01*
X89561428Y-127342380D01*
X89275714Y-127342380D01*
X89180476Y-127294761D01*
X89132857Y-127247142D01*
X96125714Y-118492380D02*
X96125714Y-117492380D01*
X96363809Y-117492380D01*
X96506666Y-117540000D01*
X96601904Y-117635238D01*
X96649523Y-117730476D01*
X96697142Y-117920952D01*
X96697142Y-118063809D01*
X96649523Y-118254285D01*
X96601904Y-118349523D01*
X96506666Y-118444761D01*
X96363809Y-118492380D01*
X96125714Y-118492380D01*
X97649523Y-118492380D02*
X97078095Y-118492380D01*
X97363809Y-118492380D02*
X97363809Y-117492380D01*
X97268571Y-117635238D01*
X97173333Y-117730476D01*
X97078095Y-117778095D01*
X98506666Y-117825714D02*
X98506666Y-118492380D01*
X98268571Y-117444761D02*
X98030476Y-118159047D01*
X98649523Y-118159047D01*
X113775714Y-100692380D02*
X113775714Y-99692380D01*
X114013809Y-99692380D01*
X114156666Y-99740000D01*
X114251904Y-99835238D01*
X114299523Y-99930476D01*
X114347142Y-100120952D01*
X114347142Y-100263809D01*
X114299523Y-100454285D01*
X114251904Y-100549523D01*
X114156666Y-100644761D01*
X114013809Y-100692380D01*
X113775714Y-100692380D01*
X115299523Y-100692380D02*
X114728095Y-100692380D01*
X115013809Y-100692380D02*
X115013809Y-99692380D01*
X114918571Y-99835238D01*
X114823333Y-99930476D01*
X114728095Y-99978095D01*
X116156666Y-99692380D02*
X115966190Y-99692380D01*
X115870952Y-99740000D01*
X115823333Y-99787619D01*
X115728095Y-99930476D01*
X115680476Y-100120952D01*
X115680476Y-100501904D01*
X115728095Y-100597142D01*
X115775714Y-100644761D01*
X115870952Y-100692380D01*
X116061428Y-100692380D01*
X116156666Y-100644761D01*
X116204285Y-100597142D01*
X116251904Y-100501904D01*
X116251904Y-100263809D01*
X116204285Y-100168571D01*
X116156666Y-100120952D01*
X116061428Y-100073333D01*
X115870952Y-100073333D01*
X115775714Y-100120952D01*
X115728095Y-100168571D01*
X115680476Y-100263809D01*
X133551904Y-30932380D02*
X133551904Y-29932380D01*
X133790000Y-29932380D01*
X133932857Y-29980000D01*
X134028095Y-30075238D01*
X134075714Y-30170476D01*
X134123333Y-30360952D01*
X134123333Y-30503809D01*
X134075714Y-30694285D01*
X134028095Y-30789523D01*
X133932857Y-30884761D01*
X133790000Y-30932380D01*
X133551904Y-30932380D01*
X134456666Y-29932380D02*
X135123333Y-29932380D01*
X134694761Y-30932380D01*
X155851904Y-30972380D02*
X155851904Y-29972380D01*
X156090000Y-29972380D01*
X156232857Y-30020000D01*
X156328095Y-30115238D01*
X156375714Y-30210476D01*
X156423333Y-30400952D01*
X156423333Y-30543809D01*
X156375714Y-30734285D01*
X156328095Y-30829523D01*
X156232857Y-30924761D01*
X156090000Y-30972380D01*
X155851904Y-30972380D01*
X156899523Y-30972380D02*
X157090000Y-30972380D01*
X157185238Y-30924761D01*
X157232857Y-30877142D01*
X157328095Y-30734285D01*
X157375714Y-30543809D01*
X157375714Y-30162857D01*
X157328095Y-30067619D01*
X157280476Y-30020000D01*
X157185238Y-29972380D01*
X156994761Y-29972380D01*
X156899523Y-30020000D01*
X156851904Y-30067619D01*
X156804285Y-30162857D01*
X156804285Y-30400952D01*
X156851904Y-30496190D01*
X156899523Y-30543809D01*
X156994761Y-30591428D01*
X157185238Y-30591428D01*
X157280476Y-30543809D01*
X157328095Y-30496190D01*
X157375714Y-30400952D01*
X122675714Y-91842380D02*
X122675714Y-90842380D01*
X122913809Y-90842380D01*
X123056666Y-90890000D01*
X123151904Y-90985238D01*
X123199523Y-91080476D01*
X123247142Y-91270952D01*
X123247142Y-91413809D01*
X123199523Y-91604285D01*
X123151904Y-91699523D01*
X123056666Y-91794761D01*
X122913809Y-91842380D01*
X122675714Y-91842380D01*
X124199523Y-91842380D02*
X123628095Y-91842380D01*
X123913809Y-91842380D02*
X123913809Y-90842380D01*
X123818571Y-90985238D01*
X123723333Y-91080476D01*
X123628095Y-91128095D01*
X124532857Y-90842380D02*
X125199523Y-90842380D01*
X124770952Y-91842380D01*
X109475714Y-55442380D02*
X109475714Y-54442380D01*
X109713809Y-54442380D01*
X109856666Y-54490000D01*
X109951904Y-54585238D01*
X109999523Y-54680476D01*
X110047142Y-54870952D01*
X110047142Y-55013809D01*
X109999523Y-55204285D01*
X109951904Y-55299523D01*
X109856666Y-55394761D01*
X109713809Y-55442380D01*
X109475714Y-55442380D01*
X110999523Y-55442380D02*
X110428095Y-55442380D01*
X110713809Y-55442380D02*
X110713809Y-54442380D01*
X110618571Y-54585238D01*
X110523333Y-54680476D01*
X110428095Y-54728095D01*
X111570952Y-54870952D02*
X111475714Y-54823333D01*
X111428095Y-54775714D01*
X111380476Y-54680476D01*
X111380476Y-54632857D01*
X111428095Y-54537619D01*
X111475714Y-54490000D01*
X111570952Y-54442380D01*
X111761428Y-54442380D01*
X111856666Y-54490000D01*
X111904285Y-54537619D01*
X111951904Y-54632857D01*
X111951904Y-54680476D01*
X111904285Y-54775714D01*
X111856666Y-54823333D01*
X111761428Y-54870952D01*
X111570952Y-54870952D01*
X111475714Y-54918571D01*
X111428095Y-54966190D01*
X111380476Y-55061428D01*
X111380476Y-55251904D01*
X111428095Y-55347142D01*
X111475714Y-55394761D01*
X111570952Y-55442380D01*
X111761428Y-55442380D01*
X111856666Y-55394761D01*
X111904285Y-55347142D01*
X111951904Y-55251904D01*
X111951904Y-55061428D01*
X111904285Y-54966190D01*
X111856666Y-54918571D01*
X111761428Y-54870952D01*
X79267142Y-61406666D02*
X79314761Y-61454285D01*
X79362380Y-61597142D01*
X79362380Y-61692380D01*
X79314761Y-61835238D01*
X79219523Y-61930476D01*
X79124285Y-61978095D01*
X78933809Y-62025714D01*
X78790952Y-62025714D01*
X78600476Y-61978095D01*
X78505238Y-61930476D01*
X78410000Y-61835238D01*
X78362380Y-61692380D01*
X78362380Y-61597142D01*
X78410000Y-61454285D01*
X78457619Y-61406666D01*
X78362380Y-60549523D02*
X78362380Y-60740000D01*
X78410000Y-60835238D01*
X78457619Y-60882857D01*
X78600476Y-60978095D01*
X78790952Y-61025714D01*
X79171904Y-61025714D01*
X79267142Y-60978095D01*
X79314761Y-60930476D01*
X79362380Y-60835238D01*
X79362380Y-60644761D01*
X79314761Y-60549523D01*
X79267142Y-60501904D01*
X79171904Y-60454285D01*
X78933809Y-60454285D01*
X78838571Y-60501904D01*
X78790952Y-60549523D01*
X78743333Y-60644761D01*
X78743333Y-60835238D01*
X78790952Y-60930476D01*
X78838571Y-60978095D01*
X78933809Y-61025714D01*
X79707142Y-35856666D02*
X79754761Y-35904285D01*
X79802380Y-36047142D01*
X79802380Y-36142380D01*
X79754761Y-36285238D01*
X79659523Y-36380476D01*
X79564285Y-36428095D01*
X79373809Y-36475714D01*
X79230952Y-36475714D01*
X79040476Y-36428095D01*
X78945238Y-36380476D01*
X78850000Y-36285238D01*
X78802380Y-36142380D01*
X78802380Y-36047142D01*
X78850000Y-35904285D01*
X78897619Y-35856666D01*
X78802380Y-35523333D02*
X78802380Y-34904285D01*
X79183333Y-35237619D01*
X79183333Y-35094761D01*
X79230952Y-34999523D01*
X79278571Y-34951904D01*
X79373809Y-34904285D01*
X79611904Y-34904285D01*
X79707142Y-34951904D01*
X79754761Y-34999523D01*
X79802380Y-35094761D01*
X79802380Y-35380476D01*
X79754761Y-35475714D01*
X79707142Y-35523333D01*
D16*
X66310766Y-33730205D02*
X65935813Y-33730205D01*
X65935813Y-32942803D01*
X66985682Y-33730205D02*
X66535738Y-33730205D01*
X66760710Y-33730205D02*
X66760710Y-32942803D01*
X66685719Y-33055289D01*
X66610729Y-33130280D01*
X66535738Y-33167775D01*
X65806285Y-37159714D02*
X65806285Y-37826380D01*
X65592000Y-36778761D02*
X65377714Y-37493047D01*
X65934857Y-37493047D01*
X66192000Y-36826380D02*
X66792000Y-36826380D01*
X66406285Y-37826380D01*
X67520571Y-37159714D02*
X67520571Y-37826380D01*
X67134857Y-37159714D02*
X67134857Y-37683523D01*
X67177714Y-37778761D01*
X67263428Y-37826380D01*
X67392000Y-37826380D01*
X67477714Y-37778761D01*
X67520571Y-37731142D01*
X67949142Y-37826380D02*
X67949142Y-36826380D01*
X67949142Y-37302571D02*
X68463428Y-37302571D01*
X68463428Y-37826380D02*
X68463428Y-36826380D01*
D15*
X122451904Y-30992380D02*
X122451904Y-29992380D01*
X122690000Y-29992380D01*
X122832857Y-30040000D01*
X122928095Y-30135238D01*
X122975714Y-30230476D01*
X123023333Y-30420952D01*
X123023333Y-30563809D01*
X122975714Y-30754285D01*
X122928095Y-30849523D01*
X122832857Y-30944761D01*
X122690000Y-30992380D01*
X122451904Y-30992380D01*
X123880476Y-29992380D02*
X123690000Y-29992380D01*
X123594761Y-30040000D01*
X123547142Y-30087619D01*
X123451904Y-30230476D01*
X123404285Y-30420952D01*
X123404285Y-30801904D01*
X123451904Y-30897142D01*
X123499523Y-30944761D01*
X123594761Y-30992380D01*
X123785238Y-30992380D01*
X123880476Y-30944761D01*
X123928095Y-30897142D01*
X123975714Y-30801904D01*
X123975714Y-30563809D01*
X123928095Y-30468571D01*
X123880476Y-30420952D01*
X123785238Y-30373333D01*
X123594761Y-30373333D01*
X123499523Y-30420952D01*
X123451904Y-30468571D01*
X123404285Y-30563809D01*
X69683333Y-33573142D02*
X69635714Y-33620761D01*
X69492857Y-33668380D01*
X69397619Y-33668380D01*
X69254761Y-33620761D01*
X69159523Y-33525523D01*
X69111904Y-33430285D01*
X69064285Y-33239809D01*
X69064285Y-33096952D01*
X69111904Y-32906476D01*
X69159523Y-32811238D01*
X69254761Y-32716000D01*
X69397619Y-32668380D01*
X69492857Y-32668380D01*
X69635714Y-32716000D01*
X69683333Y-32763619D01*
X70064285Y-32763619D02*
X70111904Y-32716000D01*
X70207142Y-32668380D01*
X70445238Y-32668380D01*
X70540476Y-32716000D01*
X70588095Y-32763619D01*
X70635714Y-32858857D01*
X70635714Y-32954095D01*
X70588095Y-33096952D01*
X70016666Y-33668380D01*
X70635714Y-33668380D01*
X88981904Y-31192380D02*
X88981904Y-30192380D01*
X89220000Y-30192380D01*
X89362857Y-30240000D01*
X89458095Y-30335238D01*
X89505714Y-30430476D01*
X89553333Y-30620952D01*
X89553333Y-30763809D01*
X89505714Y-30954285D01*
X89458095Y-31049523D01*
X89362857Y-31144761D01*
X89220000Y-31192380D01*
X88981904Y-31192380D01*
X89886666Y-30192380D02*
X90505714Y-30192380D01*
X90172380Y-30573333D01*
X90315238Y-30573333D01*
X90410476Y-30620952D01*
X90458095Y-30668571D01*
X90505714Y-30763809D01*
X90505714Y-31001904D01*
X90458095Y-31097142D01*
X90410476Y-31144761D01*
X90315238Y-31192380D01*
X90029523Y-31192380D01*
X89934285Y-31144761D01*
X89886666Y-31097142D01*
X100261904Y-31142380D02*
X100261904Y-30142380D01*
X100500000Y-30142380D01*
X100642857Y-30190000D01*
X100738095Y-30285238D01*
X100785714Y-30380476D01*
X100833333Y-30570952D01*
X100833333Y-30713809D01*
X100785714Y-30904285D01*
X100738095Y-30999523D01*
X100642857Y-31094761D01*
X100500000Y-31142380D01*
X100261904Y-31142380D01*
X101690476Y-30475714D02*
X101690476Y-31142380D01*
X101452380Y-30094761D02*
X101214285Y-30809047D01*
X101833333Y-30809047D01*
X144701904Y-30872380D02*
X144701904Y-29872380D01*
X144940000Y-29872380D01*
X145082857Y-29920000D01*
X145178095Y-30015238D01*
X145225714Y-30110476D01*
X145273333Y-30300952D01*
X145273333Y-30443809D01*
X145225714Y-30634285D01*
X145178095Y-30729523D01*
X145082857Y-30824761D01*
X144940000Y-30872380D01*
X144701904Y-30872380D01*
X145844761Y-30300952D02*
X145749523Y-30253333D01*
X145701904Y-30205714D01*
X145654285Y-30110476D01*
X145654285Y-30062857D01*
X145701904Y-29967619D01*
X145749523Y-29920000D01*
X145844761Y-29872380D01*
X146035238Y-29872380D01*
X146130476Y-29920000D01*
X146178095Y-29967619D01*
X146225714Y-30062857D01*
X146225714Y-30110476D01*
X146178095Y-30205714D01*
X146130476Y-30253333D01*
X146035238Y-30300952D01*
X145844761Y-30300952D01*
X145749523Y-30348571D01*
X145701904Y-30396190D01*
X145654285Y-30491428D01*
X145654285Y-30681904D01*
X145701904Y-30777142D01*
X145749523Y-30824761D01*
X145844761Y-30872380D01*
X146035238Y-30872380D01*
X146130476Y-30824761D01*
X146178095Y-30777142D01*
X146225714Y-30681904D01*
X146225714Y-30491428D01*
X146178095Y-30396190D01*
X146130476Y-30348571D01*
X146035238Y-30300952D01*
X69683333Y-58937142D02*
X69635714Y-58984761D01*
X69492857Y-59032380D01*
X69397619Y-59032380D01*
X69254761Y-58984761D01*
X69159523Y-58889523D01*
X69111904Y-58794285D01*
X69064285Y-58603809D01*
X69064285Y-58460952D01*
X69111904Y-58270476D01*
X69159523Y-58175238D01*
X69254761Y-58080000D01*
X69397619Y-58032380D01*
X69492857Y-58032380D01*
X69635714Y-58080000D01*
X69683333Y-58127619D01*
X70588095Y-58032380D02*
X70111904Y-58032380D01*
X70064285Y-58508571D01*
X70111904Y-58460952D01*
X70207142Y-58413333D01*
X70445238Y-58413333D01*
X70540476Y-58460952D01*
X70588095Y-58508571D01*
X70635714Y-58603809D01*
X70635714Y-58841904D01*
X70588095Y-58937142D01*
X70540476Y-58984761D01*
X70445238Y-59032380D01*
X70207142Y-59032380D01*
X70111904Y-58984761D01*
X70064285Y-58937142D01*
D13*
X207093571Y-29056428D02*
X207154047Y-29116904D01*
X207214523Y-29298333D01*
X207214523Y-29419285D01*
X207154047Y-29600714D01*
X207033095Y-29721666D01*
X206912142Y-29782142D01*
X206670238Y-29842619D01*
X206488809Y-29842619D01*
X206246904Y-29782142D01*
X206125952Y-29721666D01*
X206005000Y-29600714D01*
X205944523Y-29419285D01*
X205944523Y-29298333D01*
X206005000Y-29116904D01*
X206065476Y-29056428D01*
X207214523Y-27846904D02*
X207214523Y-28572619D01*
X207214523Y-28209761D02*
X205944523Y-28209761D01*
X206125952Y-28330714D01*
X206246904Y-28451666D01*
X206307380Y-28572619D01*
X205944523Y-26758333D02*
X205944523Y-27000238D01*
X206005000Y-27121190D01*
X206065476Y-27181666D01*
X206246904Y-27302619D01*
X206488809Y-27363095D01*
X206972619Y-27363095D01*
X207093571Y-27302619D01*
X207154047Y-27242142D01*
X207214523Y-27121190D01*
X207214523Y-26879285D01*
X207154047Y-26758333D01*
X207093571Y-26697857D01*
X206972619Y-26637380D01*
X206670238Y-26637380D01*
X206549285Y-26697857D01*
X206488809Y-26758333D01*
X206428333Y-26879285D01*
X206428333Y-27121190D01*
X206488809Y-27242142D01*
X206549285Y-27302619D01*
X206670238Y-27363095D01*
D16*
X200958766Y-35946205D02*
X200583813Y-35946205D01*
X200583813Y-35158803D01*
X201558691Y-35158803D02*
X201408710Y-35158803D01*
X201333719Y-35196299D01*
X201296224Y-35233794D01*
X201221233Y-35346280D01*
X201183738Y-35496261D01*
X201183738Y-35796224D01*
X201221233Y-35871215D01*
X201258729Y-35908710D01*
X201333719Y-35946205D01*
X201483701Y-35946205D01*
X201558691Y-35908710D01*
X201596187Y-35871215D01*
X201633682Y-35796224D01*
X201633682Y-35608747D01*
X201596187Y-35533757D01*
X201558691Y-35496261D01*
X201483701Y-35458766D01*
X201333719Y-35458766D01*
X201258729Y-35496261D01*
X201221233Y-35533757D01*
X201183738Y-35608747D01*
X200454285Y-39375714D02*
X200454285Y-40042380D01*
X200240000Y-38994761D02*
X200025714Y-39709047D01*
X200582857Y-39709047D01*
X200840000Y-39042380D02*
X201440000Y-39042380D01*
X201054285Y-40042380D01*
X202168571Y-39375714D02*
X202168571Y-40042380D01*
X201782857Y-39375714D02*
X201782857Y-39899523D01*
X201825714Y-39994761D01*
X201911428Y-40042380D01*
X202040000Y-40042380D01*
X202125714Y-39994761D01*
X202168571Y-39947142D01*
X202597142Y-40042380D02*
X202597142Y-39042380D01*
X202597142Y-39518571D02*
X203111428Y-39518571D01*
X203111428Y-40042380D02*
X203111428Y-39042380D01*
D15*
X177675714Y-30942380D02*
X177675714Y-29942380D01*
X177913809Y-29942380D01*
X178056666Y-29990000D01*
X178151904Y-30085238D01*
X178199523Y-30180476D01*
X178247142Y-30370952D01*
X178247142Y-30513809D01*
X178199523Y-30704285D01*
X178151904Y-30799523D01*
X178056666Y-30894761D01*
X177913809Y-30942380D01*
X177675714Y-30942380D01*
X179199523Y-30942380D02*
X178628095Y-30942380D01*
X178913809Y-30942380D02*
X178913809Y-29942380D01*
X178818571Y-30085238D01*
X178723333Y-30180476D01*
X178628095Y-30228095D01*
X180151904Y-30942380D02*
X179580476Y-30942380D01*
X179866190Y-30942380D02*
X179866190Y-29942380D01*
X179770952Y-30085238D01*
X179675714Y-30180476D01*
X179580476Y-30228095D01*
X188825714Y-30992380D02*
X188825714Y-29992380D01*
X189063809Y-29992380D01*
X189206666Y-30040000D01*
X189301904Y-30135238D01*
X189349523Y-30230476D01*
X189397142Y-30420952D01*
X189397142Y-30563809D01*
X189349523Y-30754285D01*
X189301904Y-30849523D01*
X189206666Y-30944761D01*
X189063809Y-30992380D01*
X188825714Y-30992380D01*
X190349523Y-30992380D02*
X189778095Y-30992380D01*
X190063809Y-30992380D02*
X190063809Y-29992380D01*
X189968571Y-30135238D01*
X189873333Y-30230476D01*
X189778095Y-30278095D01*
X190730476Y-30087619D02*
X190778095Y-30040000D01*
X190873333Y-29992380D01*
X191111428Y-29992380D01*
X191206666Y-30040000D01*
X191254285Y-30087619D01*
X191301904Y-30182857D01*
X191301904Y-30278095D01*
X191254285Y-30420952D01*
X190682857Y-30992380D01*
X191301904Y-30992380D01*
X177975714Y-166542380D02*
X177975714Y-165542380D01*
X178213809Y-165542380D01*
X178356666Y-165590000D01*
X178451904Y-165685238D01*
X178499523Y-165780476D01*
X178547142Y-165970952D01*
X178547142Y-166113809D01*
X178499523Y-166304285D01*
X178451904Y-166399523D01*
X178356666Y-166494761D01*
X178213809Y-166542380D01*
X177975714Y-166542380D01*
X178880476Y-165542380D02*
X179499523Y-165542380D01*
X179166190Y-165923333D01*
X179309047Y-165923333D01*
X179404285Y-165970952D01*
X179451904Y-166018571D01*
X179499523Y-166113809D01*
X179499523Y-166351904D01*
X179451904Y-166447142D01*
X179404285Y-166494761D01*
X179309047Y-166542380D01*
X179023333Y-166542380D01*
X178928095Y-166494761D01*
X178880476Y-166447142D01*
X179880476Y-165637619D02*
X179928095Y-165590000D01*
X180023333Y-165542380D01*
X180261428Y-165542380D01*
X180356666Y-165590000D01*
X180404285Y-165637619D01*
X180451904Y-165732857D01*
X180451904Y-165828095D01*
X180404285Y-165970952D01*
X179832857Y-166542380D01*
X180451904Y-166542380D01*
X189175714Y-166592380D02*
X189175714Y-165592380D01*
X189413809Y-165592380D01*
X189556666Y-165640000D01*
X189651904Y-165735238D01*
X189699523Y-165830476D01*
X189747142Y-166020952D01*
X189747142Y-166163809D01*
X189699523Y-166354285D01*
X189651904Y-166449523D01*
X189556666Y-166544761D01*
X189413809Y-166592380D01*
X189175714Y-166592380D01*
X190080476Y-165592380D02*
X190699523Y-165592380D01*
X190366190Y-165973333D01*
X190509047Y-165973333D01*
X190604285Y-166020952D01*
X190651904Y-166068571D01*
X190699523Y-166163809D01*
X190699523Y-166401904D01*
X190651904Y-166497142D01*
X190604285Y-166544761D01*
X190509047Y-166592380D01*
X190223333Y-166592380D01*
X190128095Y-166544761D01*
X190080476Y-166497142D01*
X191032857Y-165592380D02*
X191651904Y-165592380D01*
X191318571Y-165973333D01*
X191461428Y-165973333D01*
X191556666Y-166020952D01*
X191604285Y-166068571D01*
X191651904Y-166163809D01*
X191651904Y-166401904D01*
X191604285Y-166497142D01*
X191556666Y-166544761D01*
X191461428Y-166592380D01*
X191175714Y-166592380D01*
X191080476Y-166544761D01*
X191032857Y-166497142D01*
X181175714Y-77642380D02*
X181175714Y-76642380D01*
X181413809Y-76642380D01*
X181556666Y-76690000D01*
X181651904Y-76785238D01*
X181699523Y-76880476D01*
X181747142Y-77070952D01*
X181747142Y-77213809D01*
X181699523Y-77404285D01*
X181651904Y-77499523D01*
X181556666Y-77594761D01*
X181413809Y-77642380D01*
X181175714Y-77642380D01*
X182604285Y-76975714D02*
X182604285Y-77642380D01*
X182366190Y-76594761D02*
X182128095Y-77309047D01*
X182747142Y-77309047D01*
X183556666Y-76642380D02*
X183366190Y-76642380D01*
X183270952Y-76690000D01*
X183223333Y-76737619D01*
X183128095Y-76880476D01*
X183080476Y-77070952D01*
X183080476Y-77451904D01*
X183128095Y-77547142D01*
X183175714Y-77594761D01*
X183270952Y-77642380D01*
X183461428Y-77642380D01*
X183556666Y-77594761D01*
X183604285Y-77547142D01*
X183651904Y-77451904D01*
X183651904Y-77213809D01*
X183604285Y-77118571D01*
X183556666Y-77070952D01*
X183461428Y-77023333D01*
X183270952Y-77023333D01*
X183175714Y-77070952D01*
X183128095Y-77118571D01*
X183080476Y-77213809D01*
X172325714Y-86592380D02*
X172325714Y-85592380D01*
X172563809Y-85592380D01*
X172706666Y-85640000D01*
X172801904Y-85735238D01*
X172849523Y-85830476D01*
X172897142Y-86020952D01*
X172897142Y-86163809D01*
X172849523Y-86354285D01*
X172801904Y-86449523D01*
X172706666Y-86544761D01*
X172563809Y-86592380D01*
X172325714Y-86592380D01*
X173754285Y-85925714D02*
X173754285Y-86592380D01*
X173516190Y-85544761D02*
X173278095Y-86259047D01*
X173897142Y-86259047D01*
X174182857Y-85592380D02*
X174849523Y-85592380D01*
X174420952Y-86592380D01*
X203784642Y-35677142D02*
X203737023Y-35724761D01*
X203594166Y-35772380D01*
X203498928Y-35772380D01*
X203356071Y-35724761D01*
X203260833Y-35629523D01*
X203213214Y-35534285D01*
X203165595Y-35343809D01*
X203165595Y-35200952D01*
X203213214Y-35010476D01*
X203260833Y-34915238D01*
X203356071Y-34820000D01*
X203498928Y-34772380D01*
X203594166Y-34772380D01*
X203737023Y-34820000D01*
X203784642Y-34867619D01*
X204737023Y-35772380D02*
X204165595Y-35772380D01*
X204451309Y-35772380D02*
X204451309Y-34772380D01*
X204356071Y-34915238D01*
X204260833Y-35010476D01*
X204165595Y-35058095D01*
X205070357Y-34772380D02*
X205737023Y-34772380D01*
X205308452Y-35772380D01*
X214067142Y-38432857D02*
X214114761Y-38480476D01*
X214162380Y-38623333D01*
X214162380Y-38718571D01*
X214114761Y-38861428D01*
X214019523Y-38956666D01*
X213924285Y-39004285D01*
X213733809Y-39051904D01*
X213590952Y-39051904D01*
X213400476Y-39004285D01*
X213305238Y-38956666D01*
X213210000Y-38861428D01*
X213162380Y-38718571D01*
X213162380Y-38623333D01*
X213210000Y-38480476D01*
X213257619Y-38432857D01*
X214162380Y-37480476D02*
X214162380Y-38051904D01*
X214162380Y-37766190D02*
X213162380Y-37766190D01*
X213305238Y-37861428D01*
X213400476Y-37956666D01*
X213448095Y-38051904D01*
X213590952Y-36909047D02*
X213543333Y-37004285D01*
X213495714Y-37051904D01*
X213400476Y-37099523D01*
X213352857Y-37099523D01*
X213257619Y-37051904D01*
X213210000Y-37004285D01*
X213162380Y-36909047D01*
X213162380Y-36718571D01*
X213210000Y-36623333D01*
X213257619Y-36575714D01*
X213352857Y-36528095D01*
X213400476Y-36528095D01*
X213495714Y-36575714D01*
X213543333Y-36623333D01*
X213590952Y-36718571D01*
X213590952Y-36909047D01*
X213638571Y-37004285D01*
X213686190Y-37051904D01*
X213781428Y-37099523D01*
X213971904Y-37099523D01*
X214067142Y-37051904D01*
X214114761Y-37004285D01*
X214162380Y-36909047D01*
X214162380Y-36718571D01*
X214114761Y-36623333D01*
X214067142Y-36575714D01*
X213971904Y-36528095D01*
X213781428Y-36528095D01*
X213686190Y-36575714D01*
X213638571Y-36623333D01*
X213590952Y-36718571D01*
D13*
X201164523Y-35232142D02*
X199894523Y-35232142D01*
X199894523Y-34929761D01*
X199955000Y-34748333D01*
X200075952Y-34627380D01*
X200196904Y-34566904D01*
X200438809Y-34506428D01*
X200620238Y-34506428D01*
X200862142Y-34566904D01*
X200983095Y-34627380D01*
X201104047Y-34748333D01*
X201164523Y-34929761D01*
X201164523Y-35232142D01*
X199894523Y-33357380D02*
X199894523Y-33962142D01*
X200499285Y-34022619D01*
X200438809Y-33962142D01*
X200378333Y-33841190D01*
X200378333Y-33538809D01*
X200438809Y-33417857D01*
X200499285Y-33357380D01*
X200620238Y-33296904D01*
X200922619Y-33296904D01*
X201043571Y-33357380D01*
X201104047Y-33417857D01*
X201164523Y-33538809D01*
X201164523Y-33841190D01*
X201104047Y-33962142D01*
X201043571Y-34022619D01*
X199894523Y-32208333D02*
X199894523Y-32450238D01*
X199955000Y-32571190D01*
X200015476Y-32631666D01*
X200196904Y-32752619D01*
X200438809Y-32813095D01*
X200922619Y-32813095D01*
X201043571Y-32752619D01*
X201104047Y-32692142D01*
X201164523Y-32571190D01*
X201164523Y-32329285D01*
X201104047Y-32208333D01*
X201043571Y-32147857D01*
X200922619Y-32087380D01*
X200620238Y-32087380D01*
X200499285Y-32147857D01*
X200438809Y-32208333D01*
X200378333Y-32329285D01*
X200378333Y-32571190D01*
X200438809Y-32692142D01*
X200499285Y-32752619D01*
X200620238Y-32813095D01*
D15*
X215942380Y-46504285D02*
X214942380Y-46504285D01*
X214942380Y-46266190D01*
X214990000Y-46123333D01*
X215085238Y-46028095D01*
X215180476Y-45980476D01*
X215370952Y-45932857D01*
X215513809Y-45932857D01*
X215704285Y-45980476D01*
X215799523Y-46028095D01*
X215894761Y-46123333D01*
X215942380Y-46266190D01*
X215942380Y-46504285D01*
X214942380Y-45028095D02*
X214942380Y-45504285D01*
X215418571Y-45551904D01*
X215370952Y-45504285D01*
X215323333Y-45409047D01*
X215323333Y-45170952D01*
X215370952Y-45075714D01*
X215418571Y-45028095D01*
X215513809Y-44980476D01*
X215751904Y-44980476D01*
X215847142Y-45028095D01*
X215894761Y-45075714D01*
X215942380Y-45170952D01*
X215942380Y-45409047D01*
X215894761Y-45504285D01*
X215847142Y-45551904D01*
X214942380Y-44647142D02*
X214942380Y-43980476D01*
X215942380Y-44409047D01*
X215942380Y-58704285D02*
X214942380Y-58704285D01*
X214942380Y-58466190D01*
X214990000Y-58323333D01*
X215085238Y-58228095D01*
X215180476Y-58180476D01*
X215370952Y-58132857D01*
X215513809Y-58132857D01*
X215704285Y-58180476D01*
X215799523Y-58228095D01*
X215894761Y-58323333D01*
X215942380Y-58466190D01*
X215942380Y-58704285D01*
X214942380Y-57228095D02*
X214942380Y-57704285D01*
X215418571Y-57751904D01*
X215370952Y-57704285D01*
X215323333Y-57609047D01*
X215323333Y-57370952D01*
X215370952Y-57275714D01*
X215418571Y-57228095D01*
X215513809Y-57180476D01*
X215751904Y-57180476D01*
X215847142Y-57228095D01*
X215894761Y-57275714D01*
X215942380Y-57370952D01*
X215942380Y-57609047D01*
X215894761Y-57704285D01*
X215847142Y-57751904D01*
X215370952Y-56609047D02*
X215323333Y-56704285D01*
X215275714Y-56751904D01*
X215180476Y-56799523D01*
X215132857Y-56799523D01*
X215037619Y-56751904D01*
X214990000Y-56704285D01*
X214942380Y-56609047D01*
X214942380Y-56418571D01*
X214990000Y-56323333D01*
X215037619Y-56275714D01*
X215132857Y-56228095D01*
X215180476Y-56228095D01*
X215275714Y-56275714D01*
X215323333Y-56323333D01*
X215370952Y-56418571D01*
X215370952Y-56609047D01*
X215418571Y-56704285D01*
X215466190Y-56751904D01*
X215561428Y-56799523D01*
X215751904Y-56799523D01*
X215847142Y-56751904D01*
X215894761Y-56704285D01*
X215942380Y-56609047D01*
X215942380Y-56418571D01*
X215894761Y-56323333D01*
X215847142Y-56275714D01*
X215751904Y-56228095D01*
X215561428Y-56228095D01*
X215466190Y-56275714D01*
X215418571Y-56323333D01*
X215370952Y-56418571D01*
X216042380Y-70904285D02*
X215042380Y-70904285D01*
X215042380Y-70666190D01*
X215090000Y-70523333D01*
X215185238Y-70428095D01*
X215280476Y-70380476D01*
X215470952Y-70332857D01*
X215613809Y-70332857D01*
X215804285Y-70380476D01*
X215899523Y-70428095D01*
X215994761Y-70523333D01*
X216042380Y-70666190D01*
X216042380Y-70904285D01*
X215042380Y-69428095D02*
X215042380Y-69904285D01*
X215518571Y-69951904D01*
X215470952Y-69904285D01*
X215423333Y-69809047D01*
X215423333Y-69570952D01*
X215470952Y-69475714D01*
X215518571Y-69428095D01*
X215613809Y-69380476D01*
X215851904Y-69380476D01*
X215947142Y-69428095D01*
X215994761Y-69475714D01*
X216042380Y-69570952D01*
X216042380Y-69809047D01*
X215994761Y-69904285D01*
X215947142Y-69951904D01*
X216042380Y-68904285D02*
X216042380Y-68713809D01*
X215994761Y-68618571D01*
X215947142Y-68570952D01*
X215804285Y-68475714D01*
X215613809Y-68428095D01*
X215232857Y-68428095D01*
X215137619Y-68475714D01*
X215090000Y-68523333D01*
X215042380Y-68618571D01*
X215042380Y-68809047D01*
X215090000Y-68904285D01*
X215137619Y-68951904D01*
X215232857Y-68999523D01*
X215470952Y-68999523D01*
X215566190Y-68951904D01*
X215613809Y-68904285D01*
X215661428Y-68809047D01*
X215661428Y-68618571D01*
X215613809Y-68523333D01*
X215566190Y-68475714D01*
X215470952Y-68428095D01*
X216042380Y-83104285D02*
X215042380Y-83104285D01*
X215042380Y-82866190D01*
X215090000Y-82723333D01*
X215185238Y-82628095D01*
X215280476Y-82580476D01*
X215470952Y-82532857D01*
X215613809Y-82532857D01*
X215804285Y-82580476D01*
X215899523Y-82628095D01*
X215994761Y-82723333D01*
X216042380Y-82866190D01*
X216042380Y-83104285D01*
X215042380Y-81675714D02*
X215042380Y-81866190D01*
X215090000Y-81961428D01*
X215137619Y-82009047D01*
X215280476Y-82104285D01*
X215470952Y-82151904D01*
X215851904Y-82151904D01*
X215947142Y-82104285D01*
X215994761Y-82056666D01*
X216042380Y-81961428D01*
X216042380Y-81770952D01*
X215994761Y-81675714D01*
X215947142Y-81628095D01*
X215851904Y-81580476D01*
X215613809Y-81580476D01*
X215518571Y-81628095D01*
X215470952Y-81675714D01*
X215423333Y-81770952D01*
X215423333Y-81961428D01*
X215470952Y-82056666D01*
X215518571Y-82104285D01*
X215613809Y-82151904D01*
X215042380Y-80961428D02*
X215042380Y-80866190D01*
X215090000Y-80770952D01*
X215137619Y-80723333D01*
X215232857Y-80675714D01*
X215423333Y-80628095D01*
X215661428Y-80628095D01*
X215851904Y-80675714D01*
X215947142Y-80723333D01*
X215994761Y-80770952D01*
X216042380Y-80866190D01*
X216042380Y-80961428D01*
X215994761Y-81056666D01*
X215947142Y-81104285D01*
X215851904Y-81151904D01*
X215661428Y-81199523D01*
X215423333Y-81199523D01*
X215232857Y-81151904D01*
X215137619Y-81104285D01*
X215090000Y-81056666D01*
X215042380Y-80961428D01*
X216042380Y-95504285D02*
X215042380Y-95504285D01*
X215042380Y-95266190D01*
X215090000Y-95123333D01*
X215185238Y-95028095D01*
X215280476Y-94980476D01*
X215470952Y-94932857D01*
X215613809Y-94932857D01*
X215804285Y-94980476D01*
X215899523Y-95028095D01*
X215994761Y-95123333D01*
X216042380Y-95266190D01*
X216042380Y-95504285D01*
X215042380Y-94075714D02*
X215042380Y-94266190D01*
X215090000Y-94361428D01*
X215137619Y-94409047D01*
X215280476Y-94504285D01*
X215470952Y-94551904D01*
X215851904Y-94551904D01*
X215947142Y-94504285D01*
X215994761Y-94456666D01*
X216042380Y-94361428D01*
X216042380Y-94170952D01*
X215994761Y-94075714D01*
X215947142Y-94028095D01*
X215851904Y-93980476D01*
X215613809Y-93980476D01*
X215518571Y-94028095D01*
X215470952Y-94075714D01*
X215423333Y-94170952D01*
X215423333Y-94361428D01*
X215470952Y-94456666D01*
X215518571Y-94504285D01*
X215613809Y-94551904D01*
X216042380Y-93028095D02*
X216042380Y-93599523D01*
X216042380Y-93313809D02*
X215042380Y-93313809D01*
X215185238Y-93409047D01*
X215280476Y-93504285D01*
X215328095Y-93599523D01*
X216042380Y-107704285D02*
X215042380Y-107704285D01*
X215042380Y-107466190D01*
X215090000Y-107323333D01*
X215185238Y-107228095D01*
X215280476Y-107180476D01*
X215470952Y-107132857D01*
X215613809Y-107132857D01*
X215804285Y-107180476D01*
X215899523Y-107228095D01*
X215994761Y-107323333D01*
X216042380Y-107466190D01*
X216042380Y-107704285D01*
X215042380Y-106275714D02*
X215042380Y-106466190D01*
X215090000Y-106561428D01*
X215137619Y-106609047D01*
X215280476Y-106704285D01*
X215470952Y-106751904D01*
X215851904Y-106751904D01*
X215947142Y-106704285D01*
X215994761Y-106656666D01*
X216042380Y-106561428D01*
X216042380Y-106370952D01*
X215994761Y-106275714D01*
X215947142Y-106228095D01*
X215851904Y-106180476D01*
X215613809Y-106180476D01*
X215518571Y-106228095D01*
X215470952Y-106275714D01*
X215423333Y-106370952D01*
X215423333Y-106561428D01*
X215470952Y-106656666D01*
X215518571Y-106704285D01*
X215613809Y-106751904D01*
X215137619Y-105799523D02*
X215090000Y-105751904D01*
X215042380Y-105656666D01*
X215042380Y-105418571D01*
X215090000Y-105323333D01*
X215137619Y-105275714D01*
X215232857Y-105228095D01*
X215328095Y-105228095D01*
X215470952Y-105275714D01*
X216042380Y-105847142D01*
X216042380Y-105228095D01*
X216042380Y-119904285D02*
X215042380Y-119904285D01*
X215042380Y-119666190D01*
X215090000Y-119523333D01*
X215185238Y-119428095D01*
X215280476Y-119380476D01*
X215470952Y-119332857D01*
X215613809Y-119332857D01*
X215804285Y-119380476D01*
X215899523Y-119428095D01*
X215994761Y-119523333D01*
X216042380Y-119666190D01*
X216042380Y-119904285D01*
X215042380Y-118475714D02*
X215042380Y-118666190D01*
X215090000Y-118761428D01*
X215137619Y-118809047D01*
X215280476Y-118904285D01*
X215470952Y-118951904D01*
X215851904Y-118951904D01*
X215947142Y-118904285D01*
X215994761Y-118856666D01*
X216042380Y-118761428D01*
X216042380Y-118570952D01*
X215994761Y-118475714D01*
X215947142Y-118428095D01*
X215851904Y-118380476D01*
X215613809Y-118380476D01*
X215518571Y-118428095D01*
X215470952Y-118475714D01*
X215423333Y-118570952D01*
X215423333Y-118761428D01*
X215470952Y-118856666D01*
X215518571Y-118904285D01*
X215613809Y-118951904D01*
X215042380Y-118047142D02*
X215042380Y-117428095D01*
X215423333Y-117761428D01*
X215423333Y-117618571D01*
X215470952Y-117523333D01*
X215518571Y-117475714D01*
X215613809Y-117428095D01*
X215851904Y-117428095D01*
X215947142Y-117475714D01*
X215994761Y-117523333D01*
X216042380Y-117618571D01*
X216042380Y-117904285D01*
X215994761Y-117999523D01*
X215947142Y-118047142D01*
X216042380Y-132104285D02*
X215042380Y-132104285D01*
X215042380Y-131866190D01*
X215090000Y-131723333D01*
X215185238Y-131628095D01*
X215280476Y-131580476D01*
X215470952Y-131532857D01*
X215613809Y-131532857D01*
X215804285Y-131580476D01*
X215899523Y-131628095D01*
X215994761Y-131723333D01*
X216042380Y-131866190D01*
X216042380Y-132104285D01*
X215042380Y-130675714D02*
X215042380Y-130866190D01*
X215090000Y-130961428D01*
X215137619Y-131009047D01*
X215280476Y-131104285D01*
X215470952Y-131151904D01*
X215851904Y-131151904D01*
X215947142Y-131104285D01*
X215994761Y-131056666D01*
X216042380Y-130961428D01*
X216042380Y-130770952D01*
X215994761Y-130675714D01*
X215947142Y-130628095D01*
X215851904Y-130580476D01*
X215613809Y-130580476D01*
X215518571Y-130628095D01*
X215470952Y-130675714D01*
X215423333Y-130770952D01*
X215423333Y-130961428D01*
X215470952Y-131056666D01*
X215518571Y-131104285D01*
X215613809Y-131151904D01*
X215375714Y-129723333D02*
X216042380Y-129723333D01*
X214994761Y-129961428D02*
X215709047Y-130199523D01*
X215709047Y-129580476D01*
X216042380Y-144304285D02*
X215042380Y-144304285D01*
X215042380Y-144066190D01*
X215090000Y-143923333D01*
X215185238Y-143828095D01*
X215280476Y-143780476D01*
X215470952Y-143732857D01*
X215613809Y-143732857D01*
X215804285Y-143780476D01*
X215899523Y-143828095D01*
X215994761Y-143923333D01*
X216042380Y-144066190D01*
X216042380Y-144304285D01*
X215042380Y-142875714D02*
X215042380Y-143066190D01*
X215090000Y-143161428D01*
X215137619Y-143209047D01*
X215280476Y-143304285D01*
X215470952Y-143351904D01*
X215851904Y-143351904D01*
X215947142Y-143304285D01*
X215994761Y-143256666D01*
X216042380Y-143161428D01*
X216042380Y-142970952D01*
X215994761Y-142875714D01*
X215947142Y-142828095D01*
X215851904Y-142780476D01*
X215613809Y-142780476D01*
X215518571Y-142828095D01*
X215470952Y-142875714D01*
X215423333Y-142970952D01*
X215423333Y-143161428D01*
X215470952Y-143256666D01*
X215518571Y-143304285D01*
X215613809Y-143351904D01*
X215042380Y-141875714D02*
X215042380Y-142351904D01*
X215518571Y-142399523D01*
X215470952Y-142351904D01*
X215423333Y-142256666D01*
X215423333Y-142018571D01*
X215470952Y-141923333D01*
X215518571Y-141875714D01*
X215613809Y-141828095D01*
X215851904Y-141828095D01*
X215947142Y-141875714D01*
X215994761Y-141923333D01*
X216042380Y-142018571D01*
X216042380Y-142256666D01*
X215994761Y-142351904D01*
X215947142Y-142399523D01*
X216042380Y-156404285D02*
X215042380Y-156404285D01*
X215042380Y-156166190D01*
X215090000Y-156023333D01*
X215185238Y-155928095D01*
X215280476Y-155880476D01*
X215470952Y-155832857D01*
X215613809Y-155832857D01*
X215804285Y-155880476D01*
X215899523Y-155928095D01*
X215994761Y-156023333D01*
X216042380Y-156166190D01*
X216042380Y-156404285D01*
X215042380Y-154975714D02*
X215042380Y-155166190D01*
X215090000Y-155261428D01*
X215137619Y-155309047D01*
X215280476Y-155404285D01*
X215470952Y-155451904D01*
X215851904Y-155451904D01*
X215947142Y-155404285D01*
X215994761Y-155356666D01*
X216042380Y-155261428D01*
X216042380Y-155070952D01*
X215994761Y-154975714D01*
X215947142Y-154928095D01*
X215851904Y-154880476D01*
X215613809Y-154880476D01*
X215518571Y-154928095D01*
X215470952Y-154975714D01*
X215423333Y-155070952D01*
X215423333Y-155261428D01*
X215470952Y-155356666D01*
X215518571Y-155404285D01*
X215613809Y-155451904D01*
X215042380Y-154023333D02*
X215042380Y-154213809D01*
X215090000Y-154309047D01*
X215137619Y-154356666D01*
X215280476Y-154451904D01*
X215470952Y-154499523D01*
X215851904Y-154499523D01*
X215947142Y-154451904D01*
X215994761Y-154404285D01*
X216042380Y-154309047D01*
X216042380Y-154118571D01*
X215994761Y-154023333D01*
X215947142Y-153975714D01*
X215851904Y-153928095D01*
X215613809Y-153928095D01*
X215518571Y-153975714D01*
X215470952Y-154023333D01*
X215423333Y-154118571D01*
X215423333Y-154309047D01*
X215470952Y-154404285D01*
X215518571Y-154451904D01*
X215613809Y-154499523D01*
X208023333Y-36562380D02*
X207690000Y-36086190D01*
X207451904Y-36562380D02*
X207451904Y-35562380D01*
X207832857Y-35562380D01*
X207928095Y-35610000D01*
X207975714Y-35657619D01*
X208023333Y-35752857D01*
X208023333Y-35895714D01*
X207975714Y-35990952D01*
X207928095Y-36038571D01*
X207832857Y-36086190D01*
X207451904Y-36086190D01*
X208356666Y-35562380D02*
X209023333Y-35562380D01*
X208594761Y-36562380D01*
D13*
X206806380Y-34556523D02*
X206806380Y-35584619D01*
X206866857Y-35705571D01*
X206927333Y-35766047D01*
X207048285Y-35826523D01*
X207290190Y-35826523D01*
X207411142Y-35766047D01*
X207471619Y-35705571D01*
X207532095Y-35584619D01*
X207532095Y-34556523D01*
X208681142Y-34556523D02*
X208439238Y-34556523D01*
X208318285Y-34617000D01*
X208257809Y-34677476D01*
X208136857Y-34858904D01*
X208076380Y-35100809D01*
X208076380Y-35584619D01*
X208136857Y-35705571D01*
X208197333Y-35766047D01*
X208318285Y-35826523D01*
X208560190Y-35826523D01*
X208681142Y-35766047D01*
X208741619Y-35705571D01*
X208802095Y-35584619D01*
X208802095Y-35282238D01*
X208741619Y-35161285D01*
X208681142Y-35100809D01*
X208560190Y-35040333D01*
X208318285Y-35040333D01*
X208197333Y-35100809D01*
X208136857Y-35161285D01*
X208076380Y-35282238D01*
D15*
X211162380Y-43132857D02*
X210686190Y-43466190D01*
X211162380Y-43704285D02*
X210162380Y-43704285D01*
X210162380Y-43323333D01*
X210210000Y-43228095D01*
X210257619Y-43180476D01*
X210352857Y-43132857D01*
X210495714Y-43132857D01*
X210590952Y-43180476D01*
X210638571Y-43228095D01*
X210686190Y-43323333D01*
X210686190Y-43704285D01*
X211162380Y-42180476D02*
X211162380Y-42751904D01*
X211162380Y-42466190D02*
X210162380Y-42466190D01*
X210305238Y-42561428D01*
X210400476Y-42656666D01*
X210448095Y-42751904D01*
X210495714Y-41323333D02*
X211162380Y-41323333D01*
X210114761Y-41561428D02*
X210829047Y-41799523D01*
X210829047Y-41180476D01*
M02*
