G04 #@! TF.GenerationSoftware,KiCad,Pcbnew,(5.1.2)-2*
G04 #@! TF.CreationDate,2020-02-04T22:48:58+01:00*
G04 #@! TF.ProjectId,LED_Driver_ISSI_ALU_IS31LT3117,4c45445f-4472-4697-9665-725f49535349,rev?*
G04 #@! TF.SameCoordinates,Original*
G04 #@! TF.FileFunction,Legend,Top*
G04 #@! TF.FilePolarity,Positive*
%FSLAX46Y46*%
G04 Gerber Fmt 4.6, Leading zero omitted, Abs format (unit mm)*
G04 Created by KiCad (PCBNEW (5.1.2)-2) date 2020-02-04 22:48:58*
%MOMM*%
%LPD*%
G04 APERTURE LIST*
%ADD10C,0.200000*%
%ADD11C,0.254000*%
%ADD12C,0.120000*%
%ADD13C,0.150000*%
G04 APERTURE END LIST*
D10*
X199341444Y-161016216D02*
X199541444Y-160216216D01*
X196309503Y-154116737D02*
X196341445Y-153616216D01*
X199207390Y-157524906D02*
X198859830Y-157223469D01*
X196614124Y-155377167D02*
X196374142Y-154728648D01*
X198859830Y-157223469D02*
X198151453Y-156899424D01*
X199707337Y-158738568D02*
X199547202Y-158099487D01*
X199207390Y-161698432D02*
X199341444Y-161016216D01*
X199141444Y-162616216D02*
X199141444Y-162216216D01*
X197081351Y-156153367D02*
X196614124Y-155377167D01*
X199141444Y-162216216D02*
X199207390Y-161698432D01*
X199207390Y-163207122D02*
X199141444Y-162616216D01*
X196374142Y-154728648D02*
X196309503Y-154116737D01*
X197741444Y-156616216D02*
X197081351Y-156153367D01*
X198151453Y-156899424D02*
X197741444Y-156616216D01*
X199547202Y-158099487D02*
X199207390Y-157524906D01*
X199541444Y-160216216D02*
X199698488Y-159579188D01*
X199698488Y-159579188D02*
X199760429Y-159167727D01*
X196341445Y-153616216D02*
X196504311Y-153733049D01*
X199760429Y-159167727D02*
X199707337Y-158738568D01*
X199746418Y-156517585D02*
X199898942Y-157096393D01*
X200141444Y-158016216D02*
X200444617Y-157683503D01*
X202413129Y-159714093D02*
X201741444Y-159416216D01*
X205504579Y-160709644D02*
X205141444Y-160616216D01*
X199941444Y-157816216D02*
X199920380Y-158361339D01*
X205612146Y-160222939D02*
X205743278Y-160907590D01*
X203222378Y-160115807D02*
X202413129Y-159714093D01*
X204587623Y-160532075D02*
X203976320Y-160398171D01*
X204803309Y-158772304D02*
X205341444Y-159616216D01*
X203774592Y-158070164D02*
X204374677Y-158376329D01*
X200655243Y-157448097D02*
X200741444Y-157616216D01*
X196805447Y-153866476D02*
X197165247Y-153967701D01*
X198941444Y-155216216D02*
X199355331Y-155765267D01*
X198268111Y-154616904D02*
X198941444Y-155216216D01*
X200141444Y-158816216D02*
X200127091Y-158878041D01*
X205141444Y-160616216D02*
X204587623Y-160532075D01*
X205341444Y-159616216D02*
X205612146Y-160222939D01*
X203450715Y-157952935D02*
X203774592Y-158070164D01*
X199920380Y-158361339D02*
X199914328Y-158409753D01*
X202783942Y-157913043D02*
X203450715Y-157952935D01*
X200127091Y-158878041D02*
X200826538Y-158519285D01*
X204374677Y-158376329D02*
X204803309Y-158772304D01*
X199355331Y-155765267D02*
X199746418Y-156517585D01*
X200549930Y-158222354D02*
X200141444Y-158816216D01*
X199984058Y-158361339D02*
X200141444Y-158016216D01*
X199914328Y-158409753D02*
X199914328Y-158517948D01*
X196504311Y-153733049D02*
X196805447Y-153866476D01*
X199914328Y-158517948D02*
X199984058Y-158361339D01*
X197845737Y-154307946D02*
X198268111Y-154616904D01*
X197165247Y-153967701D02*
X197845737Y-154307946D01*
X205743278Y-160907590D02*
X205504579Y-160709644D01*
X200741444Y-157616216D02*
X200549930Y-158222354D01*
X199898942Y-157096393D02*
X199941444Y-157816216D01*
X201741444Y-159416216D02*
X201161412Y-159257071D01*
X203976320Y-160398171D02*
X203222378Y-160115807D01*
X200444617Y-157683503D02*
X200655243Y-157448097D01*
X200826538Y-158519285D02*
X202060181Y-158015169D01*
X202060181Y-158015169D02*
X202783942Y-157913043D01*
X199803846Y-159850063D02*
X200024864Y-159318374D01*
X199634347Y-160503132D02*
X199803846Y-159850063D01*
X199504321Y-161156201D02*
X199634347Y-160503132D01*
X199454877Y-161639771D02*
X199504321Y-161156201D01*
X199484789Y-162252958D02*
X199454877Y-161639771D01*
X199584494Y-162741513D02*
X199484789Y-162252958D01*
X199741444Y-163216216D02*
X199584494Y-162741513D01*
X200614150Y-159225050D02*
X200195809Y-159286180D01*
X201161412Y-159257071D02*
X200614150Y-159225050D01*
X200195809Y-159286180D02*
X200024864Y-159318374D01*
D11*
X90150000Y-43500000D02*
X90150000Y-27850000D01*
X90150000Y-27850000D02*
X93342000Y-27850000D01*
X90150000Y-43500000D02*
X93232330Y-43500000D01*
X100060000Y-27850000D02*
X96017670Y-27850000D01*
X100060000Y-43500000D02*
X96017670Y-43500000D01*
X100060000Y-43500000D02*
X100060000Y-41172670D01*
X100060000Y-27850000D02*
X100060000Y-30190000D01*
X101355520Y-41862000D02*
G75*
G03X101355520Y-41862000I-135520J0D01*
G01*
D12*
X108090000Y-36675279D02*
X108090000Y-36349721D01*
X109110000Y-36675279D02*
X109110000Y-36349721D01*
X74960000Y-57278922D02*
X74960000Y-57796078D01*
X73540000Y-57278922D02*
X73540000Y-57796078D01*
X75990000Y-72960000D02*
X78340000Y-72960000D01*
X82810000Y-72960000D02*
X80460000Y-72960000D01*
X82810000Y-67204437D02*
X82810000Y-72960000D01*
X75990000Y-67204437D02*
X75990000Y-72960000D01*
X77054437Y-66140000D02*
X78340000Y-66140000D01*
X81745563Y-66140000D02*
X80460000Y-66140000D01*
X81745563Y-66140000D02*
X82810000Y-67204437D01*
X77054437Y-66140000D02*
X75990000Y-67204437D01*
X81247500Y-65112500D02*
X81247500Y-65900000D01*
X81641250Y-65506250D02*
X80853750Y-65506250D01*
X84647936Y-61340000D02*
X85852064Y-61340000D01*
X84647936Y-63160000D02*
X85852064Y-63160000D01*
D10*
X77075000Y-55100000D02*
X78550000Y-55100000D01*
D12*
X112560000Y-35621078D02*
X112560000Y-35103922D01*
X111140000Y-35621078D02*
X111140000Y-35103922D01*
X74960000Y-61446078D02*
X74960000Y-60928922D01*
X73540000Y-61446078D02*
X73540000Y-60928922D01*
X71440000Y-61446078D02*
X71440000Y-60928922D01*
X72860000Y-61446078D02*
X72860000Y-60928922D01*
X111140000Y-39246078D02*
X111140000Y-38728922D01*
X112560000Y-39246078D02*
X112560000Y-38728922D01*
X67140000Y-72360000D02*
X68840000Y-72360000D01*
X72660000Y-72360000D02*
X70960000Y-72360000D01*
X72660000Y-67904437D02*
X72660000Y-72360000D01*
X67140000Y-67904437D02*
X67140000Y-72360000D01*
X68204437Y-66840000D02*
X68840000Y-66840000D01*
X71595563Y-66840000D02*
X70960000Y-66840000D01*
X71595563Y-66840000D02*
X72660000Y-67904437D01*
X68204437Y-66840000D02*
X67140000Y-67904437D01*
X71585000Y-65975000D02*
X71585000Y-66600000D01*
X71897500Y-66287500D02*
X71272500Y-66287500D01*
D11*
X93788193Y-35571003D02*
X94695336Y-35571003D01*
X94876765Y-35631479D01*
X94997717Y-35752431D01*
X95058193Y-35933860D01*
X95058193Y-36054812D01*
X95058193Y-34301003D02*
X95058193Y-35026717D01*
X95058193Y-34663860D02*
X93788193Y-34663860D01*
X93969622Y-34784812D01*
X94090574Y-34905765D01*
X94151050Y-35026717D01*
D13*
X106622380Y-37798214D02*
X106622380Y-37226785D01*
X107622380Y-37512500D02*
X106622380Y-37512500D01*
X107622380Y-36893452D02*
X106622380Y-36893452D01*
X107098571Y-36893452D02*
X107098571Y-36322023D01*
X107622380Y-36322023D02*
X106622380Y-36322023D01*
X107622380Y-35322023D02*
X107622380Y-35893452D01*
X107622380Y-35607738D02*
X106622380Y-35607738D01*
X106765238Y-35702976D01*
X106860476Y-35798214D01*
X106908095Y-35893452D01*
X134151904Y-21492380D02*
X134151904Y-20492380D01*
X134390000Y-20492380D01*
X134532857Y-20540000D01*
X134628095Y-20635238D01*
X134675714Y-20730476D01*
X134723333Y-20920952D01*
X134723333Y-21063809D01*
X134675714Y-21254285D01*
X134628095Y-21349523D01*
X134532857Y-21444761D01*
X134390000Y-21492380D01*
X134151904Y-21492380D01*
X135628095Y-20492380D02*
X135151904Y-20492380D01*
X135104285Y-20968571D01*
X135151904Y-20920952D01*
X135247142Y-20873333D01*
X135485238Y-20873333D01*
X135580476Y-20920952D01*
X135628095Y-20968571D01*
X135675714Y-21063809D01*
X135675714Y-21301904D01*
X135628095Y-21397142D01*
X135580476Y-21444761D01*
X135485238Y-21492380D01*
X135247142Y-21492380D01*
X135151904Y-21444761D01*
X135104285Y-21397142D01*
X189225714Y-21442380D02*
X189225714Y-20442380D01*
X189463809Y-20442380D01*
X189606666Y-20490000D01*
X189701904Y-20585238D01*
X189749523Y-20680476D01*
X189797142Y-20870952D01*
X189797142Y-21013809D01*
X189749523Y-21204285D01*
X189701904Y-21299523D01*
X189606666Y-21394761D01*
X189463809Y-21442380D01*
X189225714Y-21442380D01*
X190749523Y-21442380D02*
X190178095Y-21442380D01*
X190463809Y-21442380D02*
X190463809Y-20442380D01*
X190368571Y-20585238D01*
X190273333Y-20680476D01*
X190178095Y-20728095D01*
X191368571Y-20442380D02*
X191463809Y-20442380D01*
X191559047Y-20490000D01*
X191606666Y-20537619D01*
X191654285Y-20632857D01*
X191701904Y-20823333D01*
X191701904Y-21061428D01*
X191654285Y-21251904D01*
X191606666Y-21347142D01*
X191559047Y-21394761D01*
X191463809Y-21442380D01*
X191368571Y-21442380D01*
X191273333Y-21394761D01*
X191225714Y-21347142D01*
X191178095Y-21251904D01*
X191130476Y-21061428D01*
X191130476Y-20823333D01*
X191178095Y-20632857D01*
X191225714Y-20537619D01*
X191273333Y-20490000D01*
X191368571Y-20442380D01*
X155851904Y-20882380D02*
X155851904Y-19882380D01*
X156090000Y-19882380D01*
X156232857Y-19930000D01*
X156328095Y-20025238D01*
X156375714Y-20120476D01*
X156423333Y-20310952D01*
X156423333Y-20453809D01*
X156375714Y-20644285D01*
X156328095Y-20739523D01*
X156232857Y-20834761D01*
X156090000Y-20882380D01*
X155851904Y-20882380D01*
X156756666Y-19882380D02*
X157423333Y-19882380D01*
X156994761Y-20882380D01*
X178151904Y-20922380D02*
X178151904Y-19922380D01*
X178390000Y-19922380D01*
X178532857Y-19970000D01*
X178628095Y-20065238D01*
X178675714Y-20160476D01*
X178723333Y-20350952D01*
X178723333Y-20493809D01*
X178675714Y-20684285D01*
X178628095Y-20779523D01*
X178532857Y-20874761D01*
X178390000Y-20922380D01*
X178151904Y-20922380D01*
X179199523Y-20922380D02*
X179390000Y-20922380D01*
X179485238Y-20874761D01*
X179532857Y-20827142D01*
X179628095Y-20684285D01*
X179675714Y-20493809D01*
X179675714Y-20112857D01*
X179628095Y-20017619D01*
X179580476Y-19970000D01*
X179485238Y-19922380D01*
X179294761Y-19922380D01*
X179199523Y-19970000D01*
X179151904Y-20017619D01*
X179104285Y-20112857D01*
X179104285Y-20350952D01*
X179151904Y-20446190D01*
X179199523Y-20493809D01*
X179294761Y-20541428D01*
X179485238Y-20541428D01*
X179580476Y-20493809D01*
X179628095Y-20446190D01*
X179675714Y-20350952D01*
X144751904Y-20942380D02*
X144751904Y-19942380D01*
X144990000Y-19942380D01*
X145132857Y-19990000D01*
X145228095Y-20085238D01*
X145275714Y-20180476D01*
X145323333Y-20370952D01*
X145323333Y-20513809D01*
X145275714Y-20704285D01*
X145228095Y-20799523D01*
X145132857Y-20894761D01*
X144990000Y-20942380D01*
X144751904Y-20942380D01*
X146180476Y-19942380D02*
X145990000Y-19942380D01*
X145894761Y-19990000D01*
X145847142Y-20037619D01*
X145751904Y-20180476D01*
X145704285Y-20370952D01*
X145704285Y-20751904D01*
X145751904Y-20847142D01*
X145799523Y-20894761D01*
X145894761Y-20942380D01*
X146085238Y-20942380D01*
X146180476Y-20894761D01*
X146228095Y-20847142D01*
X146275714Y-20751904D01*
X146275714Y-20513809D01*
X146228095Y-20418571D01*
X146180476Y-20370952D01*
X146085238Y-20323333D01*
X145894761Y-20323333D01*
X145799523Y-20370952D01*
X145751904Y-20418571D01*
X145704285Y-20513809D01*
X111281904Y-21142380D02*
X111281904Y-20142380D01*
X111520000Y-20142380D01*
X111662857Y-20190000D01*
X111758095Y-20285238D01*
X111805714Y-20380476D01*
X111853333Y-20570952D01*
X111853333Y-20713809D01*
X111805714Y-20904285D01*
X111758095Y-20999523D01*
X111662857Y-21094761D01*
X111520000Y-21142380D01*
X111281904Y-21142380D01*
X112186666Y-20142380D02*
X112805714Y-20142380D01*
X112472380Y-20523333D01*
X112615238Y-20523333D01*
X112710476Y-20570952D01*
X112758095Y-20618571D01*
X112805714Y-20713809D01*
X112805714Y-20951904D01*
X112758095Y-21047142D01*
X112710476Y-21094761D01*
X112615238Y-21142380D01*
X112329523Y-21142380D01*
X112234285Y-21094761D01*
X112186666Y-21047142D01*
X122561904Y-21092380D02*
X122561904Y-20092380D01*
X122800000Y-20092380D01*
X122942857Y-20140000D01*
X123038095Y-20235238D01*
X123085714Y-20330476D01*
X123133333Y-20520952D01*
X123133333Y-20663809D01*
X123085714Y-20854285D01*
X123038095Y-20949523D01*
X122942857Y-21044761D01*
X122800000Y-21092380D01*
X122561904Y-21092380D01*
X123990476Y-20425714D02*
X123990476Y-21092380D01*
X123752380Y-20044761D02*
X123514285Y-20759047D01*
X124133333Y-20759047D01*
X167001904Y-20822380D02*
X167001904Y-19822380D01*
X167240000Y-19822380D01*
X167382857Y-19870000D01*
X167478095Y-19965238D01*
X167525714Y-20060476D01*
X167573333Y-20250952D01*
X167573333Y-20393809D01*
X167525714Y-20584285D01*
X167478095Y-20679523D01*
X167382857Y-20774761D01*
X167240000Y-20822380D01*
X167001904Y-20822380D01*
X168144761Y-20250952D02*
X168049523Y-20203333D01*
X168001904Y-20155714D01*
X167954285Y-20060476D01*
X167954285Y-20012857D01*
X168001904Y-19917619D01*
X168049523Y-19870000D01*
X168144761Y-19822380D01*
X168335238Y-19822380D01*
X168430476Y-19870000D01*
X168478095Y-19917619D01*
X168525714Y-20012857D01*
X168525714Y-20060476D01*
X168478095Y-20155714D01*
X168430476Y-20203333D01*
X168335238Y-20250952D01*
X168144761Y-20250952D01*
X168049523Y-20298571D01*
X168001904Y-20346190D01*
X167954285Y-20441428D01*
X167954285Y-20631904D01*
X168001904Y-20727142D01*
X168049523Y-20774761D01*
X168144761Y-20822380D01*
X168335238Y-20822380D01*
X168430476Y-20774761D01*
X168478095Y-20727142D01*
X168525714Y-20631904D01*
X168525714Y-20441428D01*
X168478095Y-20346190D01*
X168430476Y-20298571D01*
X168335238Y-20250952D01*
X181885714Y-73702380D02*
X181885714Y-72702380D01*
X182123809Y-72702380D01*
X182266666Y-72750000D01*
X182361904Y-72845238D01*
X182409523Y-72940476D01*
X182457142Y-73130952D01*
X182457142Y-73273809D01*
X182409523Y-73464285D01*
X182361904Y-73559523D01*
X182266666Y-73654761D01*
X182123809Y-73702380D01*
X181885714Y-73702380D01*
X183409523Y-73702380D02*
X182838095Y-73702380D01*
X183123809Y-73702380D02*
X183123809Y-72702380D01*
X183028571Y-72845238D01*
X182933333Y-72940476D01*
X182838095Y-72988095D01*
X184361904Y-73702380D02*
X183790476Y-73702380D01*
X184076190Y-73702380D02*
X184076190Y-72702380D01*
X183980952Y-72845238D01*
X183885714Y-72940476D01*
X183790476Y-72988095D01*
X173085714Y-82552380D02*
X173085714Y-81552380D01*
X173323809Y-81552380D01*
X173466666Y-81600000D01*
X173561904Y-81695238D01*
X173609523Y-81790476D01*
X173657142Y-81980952D01*
X173657142Y-82123809D01*
X173609523Y-82314285D01*
X173561904Y-82409523D01*
X173466666Y-82504761D01*
X173323809Y-82552380D01*
X173085714Y-82552380D01*
X174609523Y-82552380D02*
X174038095Y-82552380D01*
X174323809Y-82552380D02*
X174323809Y-81552380D01*
X174228571Y-81695238D01*
X174133333Y-81790476D01*
X174038095Y-81838095D01*
X174990476Y-81647619D02*
X175038095Y-81600000D01*
X175133333Y-81552380D01*
X175371428Y-81552380D01*
X175466666Y-81600000D01*
X175514285Y-81647619D01*
X175561904Y-81742857D01*
X175561904Y-81838095D01*
X175514285Y-81980952D01*
X174942857Y-82552380D01*
X175561904Y-82552380D01*
X76257142Y-57704166D02*
X76304761Y-57751785D01*
X76352380Y-57894642D01*
X76352380Y-57989880D01*
X76304761Y-58132738D01*
X76209523Y-58227976D01*
X76114285Y-58275595D01*
X75923809Y-58323214D01*
X75780952Y-58323214D01*
X75590476Y-58275595D01*
X75495238Y-58227976D01*
X75400000Y-58132738D01*
X75352380Y-57989880D01*
X75352380Y-57894642D01*
X75400000Y-57751785D01*
X75447619Y-57704166D01*
X75447619Y-57323214D02*
X75400000Y-57275595D01*
X75352380Y-57180357D01*
X75352380Y-56942261D01*
X75400000Y-56847023D01*
X75447619Y-56799404D01*
X75542857Y-56751785D01*
X75638095Y-56751785D01*
X75780952Y-56799404D01*
X76352380Y-57370833D01*
X76352380Y-56751785D01*
X84107142Y-69716666D02*
X84154761Y-69764285D01*
X84202380Y-69907142D01*
X84202380Y-70002380D01*
X84154761Y-70145238D01*
X84059523Y-70240476D01*
X83964285Y-70288095D01*
X83773809Y-70335714D01*
X83630952Y-70335714D01*
X83440476Y-70288095D01*
X83345238Y-70240476D01*
X83250000Y-70145238D01*
X83202380Y-70002380D01*
X83202380Y-69907142D01*
X83250000Y-69764285D01*
X83297619Y-69716666D01*
X83202380Y-69383333D02*
X83202380Y-68764285D01*
X83583333Y-69097619D01*
X83583333Y-68954761D01*
X83630952Y-68859523D01*
X83678571Y-68811904D01*
X83773809Y-68764285D01*
X84011904Y-68764285D01*
X84107142Y-68811904D01*
X84154761Y-68859523D01*
X84202380Y-68954761D01*
X84202380Y-69240476D01*
X84154761Y-69335714D01*
X84107142Y-69383333D01*
X85083333Y-60787142D02*
X85035714Y-60834761D01*
X84892857Y-60882380D01*
X84797619Y-60882380D01*
X84654761Y-60834761D01*
X84559523Y-60739523D01*
X84511904Y-60644285D01*
X84464285Y-60453809D01*
X84464285Y-60310952D01*
X84511904Y-60120476D01*
X84559523Y-60025238D01*
X84654761Y-59930000D01*
X84797619Y-59882380D01*
X84892857Y-59882380D01*
X85035714Y-59930000D01*
X85083333Y-59977619D01*
X85940476Y-60215714D02*
X85940476Y-60882380D01*
X85702380Y-59834761D02*
X85464285Y-60549047D01*
X86083333Y-60549047D01*
X89561904Y-21452380D02*
X89561904Y-20452380D01*
X89800000Y-20452380D01*
X89942857Y-20500000D01*
X90038095Y-20595238D01*
X90085714Y-20690476D01*
X90133333Y-20880952D01*
X90133333Y-21023809D01*
X90085714Y-21214285D01*
X90038095Y-21309523D01*
X89942857Y-21404761D01*
X89800000Y-21452380D01*
X89561904Y-21452380D01*
X91085714Y-21452380D02*
X90514285Y-21452380D01*
X90800000Y-21452380D02*
X90800000Y-20452380D01*
X90704761Y-20595238D01*
X90609523Y-20690476D01*
X90514285Y-20738095D01*
X100611904Y-21502380D02*
X100611904Y-20502380D01*
X100850000Y-20502380D01*
X100992857Y-20550000D01*
X101088095Y-20645238D01*
X101135714Y-20740476D01*
X101183333Y-20930952D01*
X101183333Y-21073809D01*
X101135714Y-21264285D01*
X101088095Y-21359523D01*
X100992857Y-21454761D01*
X100850000Y-21502380D01*
X100611904Y-21502380D01*
X101564285Y-20597619D02*
X101611904Y-20550000D01*
X101707142Y-20502380D01*
X101945238Y-20502380D01*
X102040476Y-20550000D01*
X102088095Y-20597619D01*
X102135714Y-20692857D01*
X102135714Y-20788095D01*
X102088095Y-20930952D01*
X101516666Y-21502380D01*
X102135714Y-21502380D01*
X164685714Y-91952380D02*
X164685714Y-90952380D01*
X164923809Y-90952380D01*
X165066666Y-91000000D01*
X165161904Y-91095238D01*
X165209523Y-91190476D01*
X165257142Y-91380952D01*
X165257142Y-91523809D01*
X165209523Y-91714285D01*
X165161904Y-91809523D01*
X165066666Y-91904761D01*
X164923809Y-91952380D01*
X164685714Y-91952380D01*
X166209523Y-91952380D02*
X165638095Y-91952380D01*
X165923809Y-91952380D02*
X165923809Y-90952380D01*
X165828571Y-91095238D01*
X165733333Y-91190476D01*
X165638095Y-91238095D01*
X166542857Y-90952380D02*
X167161904Y-90952380D01*
X166828571Y-91333333D01*
X166971428Y-91333333D01*
X167066666Y-91380952D01*
X167114285Y-91428571D01*
X167161904Y-91523809D01*
X167161904Y-91761904D01*
X167114285Y-91857142D01*
X167066666Y-91904761D01*
X166971428Y-91952380D01*
X166685714Y-91952380D01*
X166590476Y-91904761D01*
X166542857Y-91857142D01*
X155835714Y-100902380D02*
X155835714Y-99902380D01*
X156073809Y-99902380D01*
X156216666Y-99950000D01*
X156311904Y-100045238D01*
X156359523Y-100140476D01*
X156407142Y-100330952D01*
X156407142Y-100473809D01*
X156359523Y-100664285D01*
X156311904Y-100759523D01*
X156216666Y-100854761D01*
X156073809Y-100902380D01*
X155835714Y-100902380D01*
X157359523Y-100902380D02*
X156788095Y-100902380D01*
X157073809Y-100902380D02*
X157073809Y-99902380D01*
X156978571Y-100045238D01*
X156883333Y-100140476D01*
X156788095Y-100188095D01*
X158216666Y-100235714D02*
X158216666Y-100902380D01*
X157978571Y-99854761D02*
X157740476Y-100569047D01*
X158359523Y-100569047D01*
X147035714Y-109752380D02*
X147035714Y-108752380D01*
X147273809Y-108752380D01*
X147416666Y-108800000D01*
X147511904Y-108895238D01*
X147559523Y-108990476D01*
X147607142Y-109180952D01*
X147607142Y-109323809D01*
X147559523Y-109514285D01*
X147511904Y-109609523D01*
X147416666Y-109704761D01*
X147273809Y-109752380D01*
X147035714Y-109752380D01*
X148559523Y-109752380D02*
X147988095Y-109752380D01*
X148273809Y-109752380D02*
X148273809Y-108752380D01*
X148178571Y-108895238D01*
X148083333Y-108990476D01*
X147988095Y-109038095D01*
X149464285Y-108752380D02*
X148988095Y-108752380D01*
X148940476Y-109228571D01*
X148988095Y-109180952D01*
X149083333Y-109133333D01*
X149321428Y-109133333D01*
X149416666Y-109180952D01*
X149464285Y-109228571D01*
X149511904Y-109323809D01*
X149511904Y-109561904D01*
X149464285Y-109657142D01*
X149416666Y-109704761D01*
X149321428Y-109752380D01*
X149083333Y-109752380D01*
X148988095Y-109704761D01*
X148940476Y-109657142D01*
X215952380Y-46414285D02*
X214952380Y-46414285D01*
X214952380Y-46176190D01*
X215000000Y-46033333D01*
X215095238Y-45938095D01*
X215190476Y-45890476D01*
X215380952Y-45842857D01*
X215523809Y-45842857D01*
X215714285Y-45890476D01*
X215809523Y-45938095D01*
X215904761Y-46033333D01*
X215952380Y-46176190D01*
X215952380Y-46414285D01*
X215952380Y-44890476D02*
X215952380Y-45461904D01*
X215952380Y-45176190D02*
X214952380Y-45176190D01*
X215095238Y-45271428D01*
X215190476Y-45366666D01*
X215238095Y-45461904D01*
X214952380Y-44033333D02*
X214952380Y-44223809D01*
X215000000Y-44319047D01*
X215047619Y-44366666D01*
X215190476Y-44461904D01*
X215380952Y-44509523D01*
X215761904Y-44509523D01*
X215857142Y-44461904D01*
X215904761Y-44414285D01*
X215952380Y-44319047D01*
X215952380Y-44128571D01*
X215904761Y-44033333D01*
X215857142Y-43985714D01*
X215761904Y-43938095D01*
X215523809Y-43938095D01*
X215428571Y-43985714D01*
X215380952Y-44033333D01*
X215333333Y-44128571D01*
X215333333Y-44319047D01*
X215380952Y-44414285D01*
X215428571Y-44461904D01*
X215523809Y-44509523D01*
X215952380Y-58614285D02*
X214952380Y-58614285D01*
X214952380Y-58376190D01*
X215000000Y-58233333D01*
X215095238Y-58138095D01*
X215190476Y-58090476D01*
X215380952Y-58042857D01*
X215523809Y-58042857D01*
X215714285Y-58090476D01*
X215809523Y-58138095D01*
X215904761Y-58233333D01*
X215952380Y-58376190D01*
X215952380Y-58614285D01*
X215952380Y-57090476D02*
X215952380Y-57661904D01*
X215952380Y-57376190D02*
X214952380Y-57376190D01*
X215095238Y-57471428D01*
X215190476Y-57566666D01*
X215238095Y-57661904D01*
X214952380Y-56757142D02*
X214952380Y-56090476D01*
X215952380Y-56519047D01*
X215952380Y-70864285D02*
X214952380Y-70864285D01*
X214952380Y-70626190D01*
X215000000Y-70483333D01*
X215095238Y-70388095D01*
X215190476Y-70340476D01*
X215380952Y-70292857D01*
X215523809Y-70292857D01*
X215714285Y-70340476D01*
X215809523Y-70388095D01*
X215904761Y-70483333D01*
X215952380Y-70626190D01*
X215952380Y-70864285D01*
X215952380Y-69340476D02*
X215952380Y-69911904D01*
X215952380Y-69626190D02*
X214952380Y-69626190D01*
X215095238Y-69721428D01*
X215190476Y-69816666D01*
X215238095Y-69911904D01*
X215380952Y-68769047D02*
X215333333Y-68864285D01*
X215285714Y-68911904D01*
X215190476Y-68959523D01*
X215142857Y-68959523D01*
X215047619Y-68911904D01*
X215000000Y-68864285D01*
X214952380Y-68769047D01*
X214952380Y-68578571D01*
X215000000Y-68483333D01*
X215047619Y-68435714D01*
X215142857Y-68388095D01*
X215190476Y-68388095D01*
X215285714Y-68435714D01*
X215333333Y-68483333D01*
X215380952Y-68578571D01*
X215380952Y-68769047D01*
X215428571Y-68864285D01*
X215476190Y-68911904D01*
X215571428Y-68959523D01*
X215761904Y-68959523D01*
X215857142Y-68911904D01*
X215904761Y-68864285D01*
X215952380Y-68769047D01*
X215952380Y-68578571D01*
X215904761Y-68483333D01*
X215857142Y-68435714D01*
X215761904Y-68388095D01*
X215571428Y-68388095D01*
X215476190Y-68435714D01*
X215428571Y-68483333D01*
X215380952Y-68578571D01*
X215952380Y-83014285D02*
X214952380Y-83014285D01*
X214952380Y-82776190D01*
X215000000Y-82633333D01*
X215095238Y-82538095D01*
X215190476Y-82490476D01*
X215380952Y-82442857D01*
X215523809Y-82442857D01*
X215714285Y-82490476D01*
X215809523Y-82538095D01*
X215904761Y-82633333D01*
X215952380Y-82776190D01*
X215952380Y-83014285D01*
X215952380Y-81490476D02*
X215952380Y-82061904D01*
X215952380Y-81776190D02*
X214952380Y-81776190D01*
X215095238Y-81871428D01*
X215190476Y-81966666D01*
X215238095Y-82061904D01*
X215952380Y-81014285D02*
X215952380Y-80823809D01*
X215904761Y-80728571D01*
X215857142Y-80680952D01*
X215714285Y-80585714D01*
X215523809Y-80538095D01*
X215142857Y-80538095D01*
X215047619Y-80585714D01*
X215000000Y-80633333D01*
X214952380Y-80728571D01*
X214952380Y-80919047D01*
X215000000Y-81014285D01*
X215047619Y-81061904D01*
X215142857Y-81109523D01*
X215380952Y-81109523D01*
X215476190Y-81061904D01*
X215523809Y-81014285D01*
X215571428Y-80919047D01*
X215571428Y-80728571D01*
X215523809Y-80633333D01*
X215476190Y-80585714D01*
X215380952Y-80538095D01*
X215952380Y-95314285D02*
X214952380Y-95314285D01*
X214952380Y-95076190D01*
X215000000Y-94933333D01*
X215095238Y-94838095D01*
X215190476Y-94790476D01*
X215380952Y-94742857D01*
X215523809Y-94742857D01*
X215714285Y-94790476D01*
X215809523Y-94838095D01*
X215904761Y-94933333D01*
X215952380Y-95076190D01*
X215952380Y-95314285D01*
X215047619Y-94361904D02*
X215000000Y-94314285D01*
X214952380Y-94219047D01*
X214952380Y-93980952D01*
X215000000Y-93885714D01*
X215047619Y-93838095D01*
X215142857Y-93790476D01*
X215238095Y-93790476D01*
X215380952Y-93838095D01*
X215952380Y-94409523D01*
X215952380Y-93790476D01*
X214952380Y-93171428D02*
X214952380Y-93076190D01*
X215000000Y-92980952D01*
X215047619Y-92933333D01*
X215142857Y-92885714D01*
X215333333Y-92838095D01*
X215571428Y-92838095D01*
X215761904Y-92885714D01*
X215857142Y-92933333D01*
X215904761Y-92980952D01*
X215952380Y-93076190D01*
X215952380Y-93171428D01*
X215904761Y-93266666D01*
X215857142Y-93314285D01*
X215761904Y-93361904D01*
X215571428Y-93409523D01*
X215333333Y-93409523D01*
X215142857Y-93361904D01*
X215047619Y-93314285D01*
X215000000Y-93266666D01*
X214952380Y-93171428D01*
X215952380Y-107514285D02*
X214952380Y-107514285D01*
X214952380Y-107276190D01*
X215000000Y-107133333D01*
X215095238Y-107038095D01*
X215190476Y-106990476D01*
X215380952Y-106942857D01*
X215523809Y-106942857D01*
X215714285Y-106990476D01*
X215809523Y-107038095D01*
X215904761Y-107133333D01*
X215952380Y-107276190D01*
X215952380Y-107514285D01*
X215047619Y-106561904D02*
X215000000Y-106514285D01*
X214952380Y-106419047D01*
X214952380Y-106180952D01*
X215000000Y-106085714D01*
X215047619Y-106038095D01*
X215142857Y-105990476D01*
X215238095Y-105990476D01*
X215380952Y-106038095D01*
X215952380Y-106609523D01*
X215952380Y-105990476D01*
X215952380Y-105038095D02*
X215952380Y-105609523D01*
X215952380Y-105323809D02*
X214952380Y-105323809D01*
X215095238Y-105419047D01*
X215190476Y-105514285D01*
X215238095Y-105609523D01*
X215952380Y-119764285D02*
X214952380Y-119764285D01*
X214952380Y-119526190D01*
X215000000Y-119383333D01*
X215095238Y-119288095D01*
X215190476Y-119240476D01*
X215380952Y-119192857D01*
X215523809Y-119192857D01*
X215714285Y-119240476D01*
X215809523Y-119288095D01*
X215904761Y-119383333D01*
X215952380Y-119526190D01*
X215952380Y-119764285D01*
X215047619Y-118811904D02*
X215000000Y-118764285D01*
X214952380Y-118669047D01*
X214952380Y-118430952D01*
X215000000Y-118335714D01*
X215047619Y-118288095D01*
X215142857Y-118240476D01*
X215238095Y-118240476D01*
X215380952Y-118288095D01*
X215952380Y-118859523D01*
X215952380Y-118240476D01*
X215047619Y-117859523D02*
X215000000Y-117811904D01*
X214952380Y-117716666D01*
X214952380Y-117478571D01*
X215000000Y-117383333D01*
X215047619Y-117335714D01*
X215142857Y-117288095D01*
X215238095Y-117288095D01*
X215380952Y-117335714D01*
X215952380Y-117907142D01*
X215952380Y-117288095D01*
X215952380Y-131964285D02*
X214952380Y-131964285D01*
X214952380Y-131726190D01*
X215000000Y-131583333D01*
X215095238Y-131488095D01*
X215190476Y-131440476D01*
X215380952Y-131392857D01*
X215523809Y-131392857D01*
X215714285Y-131440476D01*
X215809523Y-131488095D01*
X215904761Y-131583333D01*
X215952380Y-131726190D01*
X215952380Y-131964285D01*
X215047619Y-131011904D02*
X215000000Y-130964285D01*
X214952380Y-130869047D01*
X214952380Y-130630952D01*
X215000000Y-130535714D01*
X215047619Y-130488095D01*
X215142857Y-130440476D01*
X215238095Y-130440476D01*
X215380952Y-130488095D01*
X215952380Y-131059523D01*
X215952380Y-130440476D01*
X214952380Y-130107142D02*
X214952380Y-129488095D01*
X215333333Y-129821428D01*
X215333333Y-129678571D01*
X215380952Y-129583333D01*
X215428571Y-129535714D01*
X215523809Y-129488095D01*
X215761904Y-129488095D01*
X215857142Y-129535714D01*
X215904761Y-129583333D01*
X215952380Y-129678571D01*
X215952380Y-129964285D01*
X215904761Y-130059523D01*
X215857142Y-130107142D01*
X215952380Y-144164285D02*
X214952380Y-144164285D01*
X214952380Y-143926190D01*
X215000000Y-143783333D01*
X215095238Y-143688095D01*
X215190476Y-143640476D01*
X215380952Y-143592857D01*
X215523809Y-143592857D01*
X215714285Y-143640476D01*
X215809523Y-143688095D01*
X215904761Y-143783333D01*
X215952380Y-143926190D01*
X215952380Y-144164285D01*
X215047619Y-143211904D02*
X215000000Y-143164285D01*
X214952380Y-143069047D01*
X214952380Y-142830952D01*
X215000000Y-142735714D01*
X215047619Y-142688095D01*
X215142857Y-142640476D01*
X215238095Y-142640476D01*
X215380952Y-142688095D01*
X215952380Y-143259523D01*
X215952380Y-142640476D01*
X215285714Y-141783333D02*
X215952380Y-141783333D01*
X214904761Y-142021428D02*
X215619047Y-142259523D01*
X215619047Y-141640476D01*
X215952380Y-156414285D02*
X214952380Y-156414285D01*
X214952380Y-156176190D01*
X215000000Y-156033333D01*
X215095238Y-155938095D01*
X215190476Y-155890476D01*
X215380952Y-155842857D01*
X215523809Y-155842857D01*
X215714285Y-155890476D01*
X215809523Y-155938095D01*
X215904761Y-156033333D01*
X215952380Y-156176190D01*
X215952380Y-156414285D01*
X215047619Y-155461904D02*
X215000000Y-155414285D01*
X214952380Y-155319047D01*
X214952380Y-155080952D01*
X215000000Y-154985714D01*
X215047619Y-154938095D01*
X215142857Y-154890476D01*
X215238095Y-154890476D01*
X215380952Y-154938095D01*
X215952380Y-155509523D01*
X215952380Y-154890476D01*
X214952380Y-153985714D02*
X214952380Y-154461904D01*
X215428571Y-154509523D01*
X215380952Y-154461904D01*
X215333333Y-154366666D01*
X215333333Y-154128571D01*
X215380952Y-154033333D01*
X215428571Y-153985714D01*
X215523809Y-153938095D01*
X215761904Y-153938095D01*
X215857142Y-153985714D01*
X215904761Y-154033333D01*
X215952380Y-154128571D01*
X215952380Y-154366666D01*
X215904761Y-154461904D01*
X215857142Y-154509523D01*
X144885714Y-90802380D02*
X144885714Y-89802380D01*
X145123809Y-89802380D01*
X145266666Y-89850000D01*
X145361904Y-89945238D01*
X145409523Y-90040476D01*
X145457142Y-90230952D01*
X145457142Y-90373809D01*
X145409523Y-90564285D01*
X145361904Y-90659523D01*
X145266666Y-90754761D01*
X145123809Y-90802380D01*
X144885714Y-90802380D01*
X145838095Y-89897619D02*
X145885714Y-89850000D01*
X145980952Y-89802380D01*
X146219047Y-89802380D01*
X146314285Y-89850000D01*
X146361904Y-89897619D01*
X146409523Y-89992857D01*
X146409523Y-90088095D01*
X146361904Y-90230952D01*
X145790476Y-90802380D01*
X146409523Y-90802380D01*
X147266666Y-89802380D02*
X147076190Y-89802380D01*
X146980952Y-89850000D01*
X146933333Y-89897619D01*
X146838095Y-90040476D01*
X146790476Y-90230952D01*
X146790476Y-90611904D01*
X146838095Y-90707142D01*
X146885714Y-90754761D01*
X146980952Y-90802380D01*
X147171428Y-90802380D01*
X147266666Y-90754761D01*
X147314285Y-90707142D01*
X147361904Y-90611904D01*
X147361904Y-90373809D01*
X147314285Y-90278571D01*
X147266666Y-90230952D01*
X147171428Y-90183333D01*
X146980952Y-90183333D01*
X146885714Y-90230952D01*
X146838095Y-90278571D01*
X146790476Y-90373809D01*
X136035714Y-82002380D02*
X136035714Y-81002380D01*
X136273809Y-81002380D01*
X136416666Y-81050000D01*
X136511904Y-81145238D01*
X136559523Y-81240476D01*
X136607142Y-81430952D01*
X136607142Y-81573809D01*
X136559523Y-81764285D01*
X136511904Y-81859523D01*
X136416666Y-81954761D01*
X136273809Y-82002380D01*
X136035714Y-82002380D01*
X136988095Y-81097619D02*
X137035714Y-81050000D01*
X137130952Y-81002380D01*
X137369047Y-81002380D01*
X137464285Y-81050000D01*
X137511904Y-81097619D01*
X137559523Y-81192857D01*
X137559523Y-81288095D01*
X137511904Y-81430952D01*
X136940476Y-82002380D01*
X137559523Y-82002380D01*
X137892857Y-81002380D02*
X138559523Y-81002380D01*
X138130952Y-82002380D01*
X127135714Y-73202380D02*
X127135714Y-72202380D01*
X127373809Y-72202380D01*
X127516666Y-72250000D01*
X127611904Y-72345238D01*
X127659523Y-72440476D01*
X127707142Y-72630952D01*
X127707142Y-72773809D01*
X127659523Y-72964285D01*
X127611904Y-73059523D01*
X127516666Y-73154761D01*
X127373809Y-73202380D01*
X127135714Y-73202380D01*
X128088095Y-72297619D02*
X128135714Y-72250000D01*
X128230952Y-72202380D01*
X128469047Y-72202380D01*
X128564285Y-72250000D01*
X128611904Y-72297619D01*
X128659523Y-72392857D01*
X128659523Y-72488095D01*
X128611904Y-72630952D01*
X128040476Y-73202380D01*
X128659523Y-73202380D01*
X129230952Y-72630952D02*
X129135714Y-72583333D01*
X129088095Y-72535714D01*
X129040476Y-72440476D01*
X129040476Y-72392857D01*
X129088095Y-72297619D01*
X129135714Y-72250000D01*
X129230952Y-72202380D01*
X129421428Y-72202380D01*
X129516666Y-72250000D01*
X129564285Y-72297619D01*
X129611904Y-72392857D01*
X129611904Y-72440476D01*
X129564285Y-72535714D01*
X129516666Y-72583333D01*
X129421428Y-72630952D01*
X129230952Y-72630952D01*
X129135714Y-72678571D01*
X129088095Y-72726190D01*
X129040476Y-72821428D01*
X129040476Y-73011904D01*
X129088095Y-73107142D01*
X129135714Y-73154761D01*
X129230952Y-73202380D01*
X129421428Y-73202380D01*
X129516666Y-73154761D01*
X129564285Y-73107142D01*
X129611904Y-73011904D01*
X129611904Y-72821428D01*
X129564285Y-72726190D01*
X129516666Y-72678571D01*
X129421428Y-72630952D01*
X118285714Y-64402380D02*
X118285714Y-63402380D01*
X118523809Y-63402380D01*
X118666666Y-63450000D01*
X118761904Y-63545238D01*
X118809523Y-63640476D01*
X118857142Y-63830952D01*
X118857142Y-63973809D01*
X118809523Y-64164285D01*
X118761904Y-64259523D01*
X118666666Y-64354761D01*
X118523809Y-64402380D01*
X118285714Y-64402380D01*
X119238095Y-63497619D02*
X119285714Y-63450000D01*
X119380952Y-63402380D01*
X119619047Y-63402380D01*
X119714285Y-63450000D01*
X119761904Y-63497619D01*
X119809523Y-63592857D01*
X119809523Y-63688095D01*
X119761904Y-63830952D01*
X119190476Y-64402380D01*
X119809523Y-64402380D01*
X120285714Y-64402380D02*
X120476190Y-64402380D01*
X120571428Y-64354761D01*
X120619047Y-64307142D01*
X120714285Y-64164285D01*
X120761904Y-63973809D01*
X120761904Y-63592857D01*
X120714285Y-63497619D01*
X120666666Y-63450000D01*
X120571428Y-63402380D01*
X120380952Y-63402380D01*
X120285714Y-63450000D01*
X120238095Y-63497619D01*
X120190476Y-63592857D01*
X120190476Y-63830952D01*
X120238095Y-63926190D01*
X120285714Y-63973809D01*
X120380952Y-64021428D01*
X120571428Y-64021428D01*
X120666666Y-63973809D01*
X120714285Y-63926190D01*
X120761904Y-63830952D01*
X109635714Y-55652380D02*
X109635714Y-54652380D01*
X109873809Y-54652380D01*
X110016666Y-54700000D01*
X110111904Y-54795238D01*
X110159523Y-54890476D01*
X110207142Y-55080952D01*
X110207142Y-55223809D01*
X110159523Y-55414285D01*
X110111904Y-55509523D01*
X110016666Y-55604761D01*
X109873809Y-55652380D01*
X109635714Y-55652380D01*
X110540476Y-54652380D02*
X111159523Y-54652380D01*
X110826190Y-55033333D01*
X110969047Y-55033333D01*
X111064285Y-55080952D01*
X111111904Y-55128571D01*
X111159523Y-55223809D01*
X111159523Y-55461904D01*
X111111904Y-55557142D01*
X111064285Y-55604761D01*
X110969047Y-55652380D01*
X110683333Y-55652380D01*
X110588095Y-55604761D01*
X110540476Y-55557142D01*
X111778571Y-54652380D02*
X111873809Y-54652380D01*
X111969047Y-54700000D01*
X112016666Y-54747619D01*
X112064285Y-54842857D01*
X112111904Y-55033333D01*
X112111904Y-55271428D01*
X112064285Y-55461904D01*
X112016666Y-55557142D01*
X111969047Y-55604761D01*
X111873809Y-55652380D01*
X111778571Y-55652380D01*
X111683333Y-55604761D01*
X111635714Y-55557142D01*
X111588095Y-55461904D01*
X111540476Y-55271428D01*
X111540476Y-55033333D01*
X111588095Y-54842857D01*
X111635714Y-54747619D01*
X111683333Y-54700000D01*
X111778571Y-54652380D01*
X89035714Y-176502380D02*
X89035714Y-175502380D01*
X89273809Y-175502380D01*
X89416666Y-175550000D01*
X89511904Y-175645238D01*
X89559523Y-175740476D01*
X89607142Y-175930952D01*
X89607142Y-176073809D01*
X89559523Y-176264285D01*
X89511904Y-176359523D01*
X89416666Y-176454761D01*
X89273809Y-176502380D01*
X89035714Y-176502380D01*
X89940476Y-175502380D02*
X90559523Y-175502380D01*
X90226190Y-175883333D01*
X90369047Y-175883333D01*
X90464285Y-175930952D01*
X90511904Y-175978571D01*
X90559523Y-176073809D01*
X90559523Y-176311904D01*
X90511904Y-176407142D01*
X90464285Y-176454761D01*
X90369047Y-176502380D01*
X90083333Y-176502380D01*
X89988095Y-176454761D01*
X89940476Y-176407142D01*
X91511904Y-176502380D02*
X90940476Y-176502380D01*
X91226190Y-176502380D02*
X91226190Y-175502380D01*
X91130952Y-175645238D01*
X91035714Y-175740476D01*
X90940476Y-175788095D01*
X100185714Y-176552380D02*
X100185714Y-175552380D01*
X100423809Y-175552380D01*
X100566666Y-175600000D01*
X100661904Y-175695238D01*
X100709523Y-175790476D01*
X100757142Y-175980952D01*
X100757142Y-176123809D01*
X100709523Y-176314285D01*
X100661904Y-176409523D01*
X100566666Y-176504761D01*
X100423809Y-176552380D01*
X100185714Y-176552380D01*
X101090476Y-175552380D02*
X101709523Y-175552380D01*
X101376190Y-175933333D01*
X101519047Y-175933333D01*
X101614285Y-175980952D01*
X101661904Y-176028571D01*
X101709523Y-176123809D01*
X101709523Y-176361904D01*
X101661904Y-176457142D01*
X101614285Y-176504761D01*
X101519047Y-176552380D01*
X101233333Y-176552380D01*
X101138095Y-176504761D01*
X101090476Y-176457142D01*
X102090476Y-175647619D02*
X102138095Y-175600000D01*
X102233333Y-175552380D01*
X102471428Y-175552380D01*
X102566666Y-175600000D01*
X102614285Y-175647619D01*
X102661904Y-175742857D01*
X102661904Y-175838095D01*
X102614285Y-175980952D01*
X102042857Y-176552380D01*
X102661904Y-176552380D01*
X111285714Y-176552380D02*
X111285714Y-175552380D01*
X111523809Y-175552380D01*
X111666666Y-175600000D01*
X111761904Y-175695238D01*
X111809523Y-175790476D01*
X111857142Y-175980952D01*
X111857142Y-176123809D01*
X111809523Y-176314285D01*
X111761904Y-176409523D01*
X111666666Y-176504761D01*
X111523809Y-176552380D01*
X111285714Y-176552380D01*
X112190476Y-175552380D02*
X112809523Y-175552380D01*
X112476190Y-175933333D01*
X112619047Y-175933333D01*
X112714285Y-175980952D01*
X112761904Y-176028571D01*
X112809523Y-176123809D01*
X112809523Y-176361904D01*
X112761904Y-176457142D01*
X112714285Y-176504761D01*
X112619047Y-176552380D01*
X112333333Y-176552380D01*
X112238095Y-176504761D01*
X112190476Y-176457142D01*
X113142857Y-175552380D02*
X113761904Y-175552380D01*
X113428571Y-175933333D01*
X113571428Y-175933333D01*
X113666666Y-175980952D01*
X113714285Y-176028571D01*
X113761904Y-176123809D01*
X113761904Y-176361904D01*
X113714285Y-176457142D01*
X113666666Y-176504761D01*
X113571428Y-176552380D01*
X113285714Y-176552380D01*
X113190476Y-176504761D01*
X113142857Y-176457142D01*
X122435714Y-176552380D02*
X122435714Y-175552380D01*
X122673809Y-175552380D01*
X122816666Y-175600000D01*
X122911904Y-175695238D01*
X122959523Y-175790476D01*
X123007142Y-175980952D01*
X123007142Y-176123809D01*
X122959523Y-176314285D01*
X122911904Y-176409523D01*
X122816666Y-176504761D01*
X122673809Y-176552380D01*
X122435714Y-176552380D01*
X123340476Y-175552380D02*
X123959523Y-175552380D01*
X123626190Y-175933333D01*
X123769047Y-175933333D01*
X123864285Y-175980952D01*
X123911904Y-176028571D01*
X123959523Y-176123809D01*
X123959523Y-176361904D01*
X123911904Y-176457142D01*
X123864285Y-176504761D01*
X123769047Y-176552380D01*
X123483333Y-176552380D01*
X123388095Y-176504761D01*
X123340476Y-176457142D01*
X124816666Y-175885714D02*
X124816666Y-176552380D01*
X124578571Y-175504761D02*
X124340476Y-176219047D01*
X124959523Y-176219047D01*
X133535714Y-176552380D02*
X133535714Y-175552380D01*
X133773809Y-175552380D01*
X133916666Y-175600000D01*
X134011904Y-175695238D01*
X134059523Y-175790476D01*
X134107142Y-175980952D01*
X134107142Y-176123809D01*
X134059523Y-176314285D01*
X134011904Y-176409523D01*
X133916666Y-176504761D01*
X133773809Y-176552380D01*
X133535714Y-176552380D01*
X134440476Y-175552380D02*
X135059523Y-175552380D01*
X134726190Y-175933333D01*
X134869047Y-175933333D01*
X134964285Y-175980952D01*
X135011904Y-176028571D01*
X135059523Y-176123809D01*
X135059523Y-176361904D01*
X135011904Y-176457142D01*
X134964285Y-176504761D01*
X134869047Y-176552380D01*
X134583333Y-176552380D01*
X134488095Y-176504761D01*
X134440476Y-176457142D01*
X135964285Y-175552380D02*
X135488095Y-175552380D01*
X135440476Y-176028571D01*
X135488095Y-175980952D01*
X135583333Y-175933333D01*
X135821428Y-175933333D01*
X135916666Y-175980952D01*
X135964285Y-176028571D01*
X136011904Y-176123809D01*
X136011904Y-176361904D01*
X135964285Y-176457142D01*
X135916666Y-176504761D01*
X135821428Y-176552380D01*
X135583333Y-176552380D01*
X135488095Y-176504761D01*
X135440476Y-176457142D01*
X144635714Y-176552380D02*
X144635714Y-175552380D01*
X144873809Y-175552380D01*
X145016666Y-175600000D01*
X145111904Y-175695238D01*
X145159523Y-175790476D01*
X145207142Y-175980952D01*
X145207142Y-176123809D01*
X145159523Y-176314285D01*
X145111904Y-176409523D01*
X145016666Y-176504761D01*
X144873809Y-176552380D01*
X144635714Y-176552380D01*
X145540476Y-175552380D02*
X146159523Y-175552380D01*
X145826190Y-175933333D01*
X145969047Y-175933333D01*
X146064285Y-175980952D01*
X146111904Y-176028571D01*
X146159523Y-176123809D01*
X146159523Y-176361904D01*
X146111904Y-176457142D01*
X146064285Y-176504761D01*
X145969047Y-176552380D01*
X145683333Y-176552380D01*
X145588095Y-176504761D01*
X145540476Y-176457142D01*
X147016666Y-175552380D02*
X146826190Y-175552380D01*
X146730952Y-175600000D01*
X146683333Y-175647619D01*
X146588095Y-175790476D01*
X146540476Y-175980952D01*
X146540476Y-176361904D01*
X146588095Y-176457142D01*
X146635714Y-176504761D01*
X146730952Y-176552380D01*
X146921428Y-176552380D01*
X147016666Y-176504761D01*
X147064285Y-176457142D01*
X147111904Y-176361904D01*
X147111904Y-176123809D01*
X147064285Y-176028571D01*
X147016666Y-175980952D01*
X146921428Y-175933333D01*
X146730952Y-175933333D01*
X146635714Y-175980952D01*
X146588095Y-176028571D01*
X146540476Y-176123809D01*
X155735714Y-176552380D02*
X155735714Y-175552380D01*
X155973809Y-175552380D01*
X156116666Y-175600000D01*
X156211904Y-175695238D01*
X156259523Y-175790476D01*
X156307142Y-175980952D01*
X156307142Y-176123809D01*
X156259523Y-176314285D01*
X156211904Y-176409523D01*
X156116666Y-176504761D01*
X155973809Y-176552380D01*
X155735714Y-176552380D01*
X156640476Y-175552380D02*
X157259523Y-175552380D01*
X156926190Y-175933333D01*
X157069047Y-175933333D01*
X157164285Y-175980952D01*
X157211904Y-176028571D01*
X157259523Y-176123809D01*
X157259523Y-176361904D01*
X157211904Y-176457142D01*
X157164285Y-176504761D01*
X157069047Y-176552380D01*
X156783333Y-176552380D01*
X156688095Y-176504761D01*
X156640476Y-176457142D01*
X157592857Y-175552380D02*
X158259523Y-175552380D01*
X157830952Y-176552380D01*
X166885714Y-176552380D02*
X166885714Y-175552380D01*
X167123809Y-175552380D01*
X167266666Y-175600000D01*
X167361904Y-175695238D01*
X167409523Y-175790476D01*
X167457142Y-175980952D01*
X167457142Y-176123809D01*
X167409523Y-176314285D01*
X167361904Y-176409523D01*
X167266666Y-176504761D01*
X167123809Y-176552380D01*
X166885714Y-176552380D01*
X167790476Y-175552380D02*
X168409523Y-175552380D01*
X168076190Y-175933333D01*
X168219047Y-175933333D01*
X168314285Y-175980952D01*
X168361904Y-176028571D01*
X168409523Y-176123809D01*
X168409523Y-176361904D01*
X168361904Y-176457142D01*
X168314285Y-176504761D01*
X168219047Y-176552380D01*
X167933333Y-176552380D01*
X167838095Y-176504761D01*
X167790476Y-176457142D01*
X168980952Y-175980952D02*
X168885714Y-175933333D01*
X168838095Y-175885714D01*
X168790476Y-175790476D01*
X168790476Y-175742857D01*
X168838095Y-175647619D01*
X168885714Y-175600000D01*
X168980952Y-175552380D01*
X169171428Y-175552380D01*
X169266666Y-175600000D01*
X169314285Y-175647619D01*
X169361904Y-175742857D01*
X169361904Y-175790476D01*
X169314285Y-175885714D01*
X169266666Y-175933333D01*
X169171428Y-175980952D01*
X168980952Y-175980952D01*
X168885714Y-176028571D01*
X168838095Y-176076190D01*
X168790476Y-176171428D01*
X168790476Y-176361904D01*
X168838095Y-176457142D01*
X168885714Y-176504761D01*
X168980952Y-176552380D01*
X169171428Y-176552380D01*
X169266666Y-176504761D01*
X169314285Y-176457142D01*
X169361904Y-176361904D01*
X169361904Y-176171428D01*
X169314285Y-176076190D01*
X169266666Y-176028571D01*
X169171428Y-175980952D01*
X177985714Y-176502380D02*
X177985714Y-175502380D01*
X178223809Y-175502380D01*
X178366666Y-175550000D01*
X178461904Y-175645238D01*
X178509523Y-175740476D01*
X178557142Y-175930952D01*
X178557142Y-176073809D01*
X178509523Y-176264285D01*
X178461904Y-176359523D01*
X178366666Y-176454761D01*
X178223809Y-176502380D01*
X177985714Y-176502380D01*
X178890476Y-175502380D02*
X179509523Y-175502380D01*
X179176190Y-175883333D01*
X179319047Y-175883333D01*
X179414285Y-175930952D01*
X179461904Y-175978571D01*
X179509523Y-176073809D01*
X179509523Y-176311904D01*
X179461904Y-176407142D01*
X179414285Y-176454761D01*
X179319047Y-176502380D01*
X179033333Y-176502380D01*
X178938095Y-176454761D01*
X178890476Y-176407142D01*
X179985714Y-176502380D02*
X180176190Y-176502380D01*
X180271428Y-176454761D01*
X180319047Y-176407142D01*
X180414285Y-176264285D01*
X180461904Y-176073809D01*
X180461904Y-175692857D01*
X180414285Y-175597619D01*
X180366666Y-175550000D01*
X180271428Y-175502380D01*
X180080952Y-175502380D01*
X179985714Y-175550000D01*
X179938095Y-175597619D01*
X179890476Y-175692857D01*
X179890476Y-175930952D01*
X179938095Y-176026190D01*
X179985714Y-176073809D01*
X180080952Y-176121428D01*
X180271428Y-176121428D01*
X180366666Y-176073809D01*
X180414285Y-176026190D01*
X180461904Y-175930952D01*
X189085714Y-176552380D02*
X189085714Y-175552380D01*
X189323809Y-175552380D01*
X189466666Y-175600000D01*
X189561904Y-175695238D01*
X189609523Y-175790476D01*
X189657142Y-175980952D01*
X189657142Y-176123809D01*
X189609523Y-176314285D01*
X189561904Y-176409523D01*
X189466666Y-176504761D01*
X189323809Y-176552380D01*
X189085714Y-176552380D01*
X190514285Y-175885714D02*
X190514285Y-176552380D01*
X190276190Y-175504761D02*
X190038095Y-176219047D01*
X190657142Y-176219047D01*
X191228571Y-175552380D02*
X191323809Y-175552380D01*
X191419047Y-175600000D01*
X191466666Y-175647619D01*
X191514285Y-175742857D01*
X191561904Y-175933333D01*
X191561904Y-176171428D01*
X191514285Y-176361904D01*
X191466666Y-176457142D01*
X191419047Y-176504761D01*
X191323809Y-176552380D01*
X191228571Y-176552380D01*
X191133333Y-176504761D01*
X191085714Y-176457142D01*
X191038095Y-176361904D01*
X190990476Y-176171428D01*
X190990476Y-175933333D01*
X191038095Y-175742857D01*
X191085714Y-175647619D01*
X191133333Y-175600000D01*
X191228571Y-175552380D01*
X160035714Y-146052380D02*
X160035714Y-145052380D01*
X160273809Y-145052380D01*
X160416666Y-145100000D01*
X160511904Y-145195238D01*
X160559523Y-145290476D01*
X160607142Y-145480952D01*
X160607142Y-145623809D01*
X160559523Y-145814285D01*
X160511904Y-145909523D01*
X160416666Y-146004761D01*
X160273809Y-146052380D01*
X160035714Y-146052380D01*
X161464285Y-145385714D02*
X161464285Y-146052380D01*
X161226190Y-145004761D02*
X160988095Y-145719047D01*
X161607142Y-145719047D01*
X162511904Y-146052380D02*
X161940476Y-146052380D01*
X162226190Y-146052380D02*
X162226190Y-145052380D01*
X162130952Y-145195238D01*
X162035714Y-145290476D01*
X161940476Y-145338095D01*
X151185714Y-137252380D02*
X151185714Y-136252380D01*
X151423809Y-136252380D01*
X151566666Y-136300000D01*
X151661904Y-136395238D01*
X151709523Y-136490476D01*
X151757142Y-136680952D01*
X151757142Y-136823809D01*
X151709523Y-137014285D01*
X151661904Y-137109523D01*
X151566666Y-137204761D01*
X151423809Y-137252380D01*
X151185714Y-137252380D01*
X152614285Y-136585714D02*
X152614285Y-137252380D01*
X152376190Y-136204761D02*
X152138095Y-136919047D01*
X152757142Y-136919047D01*
X153090476Y-136347619D02*
X153138095Y-136300000D01*
X153233333Y-136252380D01*
X153471428Y-136252380D01*
X153566666Y-136300000D01*
X153614285Y-136347619D01*
X153661904Y-136442857D01*
X153661904Y-136538095D01*
X153614285Y-136680952D01*
X153042857Y-137252380D01*
X153661904Y-137252380D01*
X142285714Y-128402380D02*
X142285714Y-127402380D01*
X142523809Y-127402380D01*
X142666666Y-127450000D01*
X142761904Y-127545238D01*
X142809523Y-127640476D01*
X142857142Y-127830952D01*
X142857142Y-127973809D01*
X142809523Y-128164285D01*
X142761904Y-128259523D01*
X142666666Y-128354761D01*
X142523809Y-128402380D01*
X142285714Y-128402380D01*
X143714285Y-127735714D02*
X143714285Y-128402380D01*
X143476190Y-127354761D02*
X143238095Y-128069047D01*
X143857142Y-128069047D01*
X144142857Y-127402380D02*
X144761904Y-127402380D01*
X144428571Y-127783333D01*
X144571428Y-127783333D01*
X144666666Y-127830952D01*
X144714285Y-127878571D01*
X144761904Y-127973809D01*
X144761904Y-128211904D01*
X144714285Y-128307142D01*
X144666666Y-128354761D01*
X144571428Y-128402380D01*
X144285714Y-128402380D01*
X144190476Y-128354761D01*
X144142857Y-128307142D01*
X133535714Y-119602380D02*
X133535714Y-118602380D01*
X133773809Y-118602380D01*
X133916666Y-118650000D01*
X134011904Y-118745238D01*
X134059523Y-118840476D01*
X134107142Y-119030952D01*
X134107142Y-119173809D01*
X134059523Y-119364285D01*
X134011904Y-119459523D01*
X133916666Y-119554761D01*
X133773809Y-119602380D01*
X133535714Y-119602380D01*
X134964285Y-118935714D02*
X134964285Y-119602380D01*
X134726190Y-118554761D02*
X134488095Y-119269047D01*
X135107142Y-119269047D01*
X135916666Y-118935714D02*
X135916666Y-119602380D01*
X135678571Y-118554761D02*
X135440476Y-119269047D01*
X136059523Y-119269047D01*
X124535714Y-110802380D02*
X124535714Y-109802380D01*
X124773809Y-109802380D01*
X124916666Y-109850000D01*
X125011904Y-109945238D01*
X125059523Y-110040476D01*
X125107142Y-110230952D01*
X125107142Y-110373809D01*
X125059523Y-110564285D01*
X125011904Y-110659523D01*
X124916666Y-110754761D01*
X124773809Y-110802380D01*
X124535714Y-110802380D01*
X125964285Y-110135714D02*
X125964285Y-110802380D01*
X125726190Y-109754761D02*
X125488095Y-110469047D01*
X126107142Y-110469047D01*
X126964285Y-109802380D02*
X126488095Y-109802380D01*
X126440476Y-110278571D01*
X126488095Y-110230952D01*
X126583333Y-110183333D01*
X126821428Y-110183333D01*
X126916666Y-110230952D01*
X126964285Y-110278571D01*
X127011904Y-110373809D01*
X127011904Y-110611904D01*
X126964285Y-110707142D01*
X126916666Y-110754761D01*
X126821428Y-110802380D01*
X126583333Y-110802380D01*
X126488095Y-110754761D01*
X126440476Y-110707142D01*
X59452380Y-46164285D02*
X58452380Y-46164285D01*
X58452380Y-45926190D01*
X58500000Y-45783333D01*
X58595238Y-45688095D01*
X58690476Y-45640476D01*
X58880952Y-45592857D01*
X59023809Y-45592857D01*
X59214285Y-45640476D01*
X59309523Y-45688095D01*
X59404761Y-45783333D01*
X59452380Y-45926190D01*
X59452380Y-46164285D01*
X58785714Y-44735714D02*
X59452380Y-44735714D01*
X58404761Y-44973809D02*
X59119047Y-45211904D01*
X59119047Y-44592857D01*
X58452380Y-43783333D02*
X58452380Y-43973809D01*
X58500000Y-44069047D01*
X58547619Y-44116666D01*
X58690476Y-44211904D01*
X58880952Y-44259523D01*
X59261904Y-44259523D01*
X59357142Y-44211904D01*
X59404761Y-44164285D01*
X59452380Y-44069047D01*
X59452380Y-43878571D01*
X59404761Y-43783333D01*
X59357142Y-43735714D01*
X59261904Y-43688095D01*
X59023809Y-43688095D01*
X58928571Y-43735714D01*
X58880952Y-43783333D01*
X58833333Y-43878571D01*
X58833333Y-44069047D01*
X58880952Y-44164285D01*
X58928571Y-44211904D01*
X59023809Y-44259523D01*
X59452380Y-58714285D02*
X58452380Y-58714285D01*
X58452380Y-58476190D01*
X58500000Y-58333333D01*
X58595238Y-58238095D01*
X58690476Y-58190476D01*
X58880952Y-58142857D01*
X59023809Y-58142857D01*
X59214285Y-58190476D01*
X59309523Y-58238095D01*
X59404761Y-58333333D01*
X59452380Y-58476190D01*
X59452380Y-58714285D01*
X58785714Y-57285714D02*
X59452380Y-57285714D01*
X58404761Y-57523809D02*
X59119047Y-57761904D01*
X59119047Y-57142857D01*
X58452380Y-56857142D02*
X58452380Y-56190476D01*
X59452380Y-56619047D01*
X59502380Y-70914285D02*
X58502380Y-70914285D01*
X58502380Y-70676190D01*
X58550000Y-70533333D01*
X58645238Y-70438095D01*
X58740476Y-70390476D01*
X58930952Y-70342857D01*
X59073809Y-70342857D01*
X59264285Y-70390476D01*
X59359523Y-70438095D01*
X59454761Y-70533333D01*
X59502380Y-70676190D01*
X59502380Y-70914285D01*
X58835714Y-69485714D02*
X59502380Y-69485714D01*
X58454761Y-69723809D02*
X59169047Y-69961904D01*
X59169047Y-69342857D01*
X58930952Y-68819047D02*
X58883333Y-68914285D01*
X58835714Y-68961904D01*
X58740476Y-69009523D01*
X58692857Y-69009523D01*
X58597619Y-68961904D01*
X58550000Y-68914285D01*
X58502380Y-68819047D01*
X58502380Y-68628571D01*
X58550000Y-68533333D01*
X58597619Y-68485714D01*
X58692857Y-68438095D01*
X58740476Y-68438095D01*
X58835714Y-68485714D01*
X58883333Y-68533333D01*
X58930952Y-68628571D01*
X58930952Y-68819047D01*
X58978571Y-68914285D01*
X59026190Y-68961904D01*
X59121428Y-69009523D01*
X59311904Y-69009523D01*
X59407142Y-68961904D01*
X59454761Y-68914285D01*
X59502380Y-68819047D01*
X59502380Y-68628571D01*
X59454761Y-68533333D01*
X59407142Y-68485714D01*
X59311904Y-68438095D01*
X59121428Y-68438095D01*
X59026190Y-68485714D01*
X58978571Y-68533333D01*
X58930952Y-68628571D01*
X59502380Y-83214285D02*
X58502380Y-83214285D01*
X58502380Y-82976190D01*
X58550000Y-82833333D01*
X58645238Y-82738095D01*
X58740476Y-82690476D01*
X58930952Y-82642857D01*
X59073809Y-82642857D01*
X59264285Y-82690476D01*
X59359523Y-82738095D01*
X59454761Y-82833333D01*
X59502380Y-82976190D01*
X59502380Y-83214285D01*
X58835714Y-81785714D02*
X59502380Y-81785714D01*
X58454761Y-82023809D02*
X59169047Y-82261904D01*
X59169047Y-81642857D01*
X59502380Y-81214285D02*
X59502380Y-81023809D01*
X59454761Y-80928571D01*
X59407142Y-80880952D01*
X59264285Y-80785714D01*
X59073809Y-80738095D01*
X58692857Y-80738095D01*
X58597619Y-80785714D01*
X58550000Y-80833333D01*
X58502380Y-80928571D01*
X58502380Y-81119047D01*
X58550000Y-81214285D01*
X58597619Y-81261904D01*
X58692857Y-81309523D01*
X58930952Y-81309523D01*
X59026190Y-81261904D01*
X59073809Y-81214285D01*
X59121428Y-81119047D01*
X59121428Y-80928571D01*
X59073809Y-80833333D01*
X59026190Y-80785714D01*
X58930952Y-80738095D01*
X59502380Y-95364285D02*
X58502380Y-95364285D01*
X58502380Y-95126190D01*
X58550000Y-94983333D01*
X58645238Y-94888095D01*
X58740476Y-94840476D01*
X58930952Y-94792857D01*
X59073809Y-94792857D01*
X59264285Y-94840476D01*
X59359523Y-94888095D01*
X59454761Y-94983333D01*
X59502380Y-95126190D01*
X59502380Y-95364285D01*
X58502380Y-93888095D02*
X58502380Y-94364285D01*
X58978571Y-94411904D01*
X58930952Y-94364285D01*
X58883333Y-94269047D01*
X58883333Y-94030952D01*
X58930952Y-93935714D01*
X58978571Y-93888095D01*
X59073809Y-93840476D01*
X59311904Y-93840476D01*
X59407142Y-93888095D01*
X59454761Y-93935714D01*
X59502380Y-94030952D01*
X59502380Y-94269047D01*
X59454761Y-94364285D01*
X59407142Y-94411904D01*
X58502380Y-93221428D02*
X58502380Y-93126190D01*
X58550000Y-93030952D01*
X58597619Y-92983333D01*
X58692857Y-92935714D01*
X58883333Y-92888095D01*
X59121428Y-92888095D01*
X59311904Y-92935714D01*
X59407142Y-92983333D01*
X59454761Y-93030952D01*
X59502380Y-93126190D01*
X59502380Y-93221428D01*
X59454761Y-93316666D01*
X59407142Y-93364285D01*
X59311904Y-93411904D01*
X59121428Y-93459523D01*
X58883333Y-93459523D01*
X58692857Y-93411904D01*
X58597619Y-93364285D01*
X58550000Y-93316666D01*
X58502380Y-93221428D01*
X59452380Y-107564285D02*
X58452380Y-107564285D01*
X58452380Y-107326190D01*
X58500000Y-107183333D01*
X58595238Y-107088095D01*
X58690476Y-107040476D01*
X58880952Y-106992857D01*
X59023809Y-106992857D01*
X59214285Y-107040476D01*
X59309523Y-107088095D01*
X59404761Y-107183333D01*
X59452380Y-107326190D01*
X59452380Y-107564285D01*
X58452380Y-106088095D02*
X58452380Y-106564285D01*
X58928571Y-106611904D01*
X58880952Y-106564285D01*
X58833333Y-106469047D01*
X58833333Y-106230952D01*
X58880952Y-106135714D01*
X58928571Y-106088095D01*
X59023809Y-106040476D01*
X59261904Y-106040476D01*
X59357142Y-106088095D01*
X59404761Y-106135714D01*
X59452380Y-106230952D01*
X59452380Y-106469047D01*
X59404761Y-106564285D01*
X59357142Y-106611904D01*
X59452380Y-105088095D02*
X59452380Y-105659523D01*
X59452380Y-105373809D02*
X58452380Y-105373809D01*
X58595238Y-105469047D01*
X58690476Y-105564285D01*
X58738095Y-105659523D01*
X59502380Y-119864285D02*
X58502380Y-119864285D01*
X58502380Y-119626190D01*
X58550000Y-119483333D01*
X58645238Y-119388095D01*
X58740476Y-119340476D01*
X58930952Y-119292857D01*
X59073809Y-119292857D01*
X59264285Y-119340476D01*
X59359523Y-119388095D01*
X59454761Y-119483333D01*
X59502380Y-119626190D01*
X59502380Y-119864285D01*
X58502380Y-118388095D02*
X58502380Y-118864285D01*
X58978571Y-118911904D01*
X58930952Y-118864285D01*
X58883333Y-118769047D01*
X58883333Y-118530952D01*
X58930952Y-118435714D01*
X58978571Y-118388095D01*
X59073809Y-118340476D01*
X59311904Y-118340476D01*
X59407142Y-118388095D01*
X59454761Y-118435714D01*
X59502380Y-118530952D01*
X59502380Y-118769047D01*
X59454761Y-118864285D01*
X59407142Y-118911904D01*
X58597619Y-117959523D02*
X58550000Y-117911904D01*
X58502380Y-117816666D01*
X58502380Y-117578571D01*
X58550000Y-117483333D01*
X58597619Y-117435714D01*
X58692857Y-117388095D01*
X58788095Y-117388095D01*
X58930952Y-117435714D01*
X59502380Y-118007142D01*
X59502380Y-117388095D01*
X59502380Y-132014285D02*
X58502380Y-132014285D01*
X58502380Y-131776190D01*
X58550000Y-131633333D01*
X58645238Y-131538095D01*
X58740476Y-131490476D01*
X58930952Y-131442857D01*
X59073809Y-131442857D01*
X59264285Y-131490476D01*
X59359523Y-131538095D01*
X59454761Y-131633333D01*
X59502380Y-131776190D01*
X59502380Y-132014285D01*
X58502380Y-130538095D02*
X58502380Y-131014285D01*
X58978571Y-131061904D01*
X58930952Y-131014285D01*
X58883333Y-130919047D01*
X58883333Y-130680952D01*
X58930952Y-130585714D01*
X58978571Y-130538095D01*
X59073809Y-130490476D01*
X59311904Y-130490476D01*
X59407142Y-130538095D01*
X59454761Y-130585714D01*
X59502380Y-130680952D01*
X59502380Y-130919047D01*
X59454761Y-131014285D01*
X59407142Y-131061904D01*
X58502380Y-130157142D02*
X58502380Y-129538095D01*
X58883333Y-129871428D01*
X58883333Y-129728571D01*
X58930952Y-129633333D01*
X58978571Y-129585714D01*
X59073809Y-129538095D01*
X59311904Y-129538095D01*
X59407142Y-129585714D01*
X59454761Y-129633333D01*
X59502380Y-129728571D01*
X59502380Y-130014285D01*
X59454761Y-130109523D01*
X59407142Y-130157142D01*
X59502380Y-144264285D02*
X58502380Y-144264285D01*
X58502380Y-144026190D01*
X58550000Y-143883333D01*
X58645238Y-143788095D01*
X58740476Y-143740476D01*
X58930952Y-143692857D01*
X59073809Y-143692857D01*
X59264285Y-143740476D01*
X59359523Y-143788095D01*
X59454761Y-143883333D01*
X59502380Y-144026190D01*
X59502380Y-144264285D01*
X58502380Y-142788095D02*
X58502380Y-143264285D01*
X58978571Y-143311904D01*
X58930952Y-143264285D01*
X58883333Y-143169047D01*
X58883333Y-142930952D01*
X58930952Y-142835714D01*
X58978571Y-142788095D01*
X59073809Y-142740476D01*
X59311904Y-142740476D01*
X59407142Y-142788095D01*
X59454761Y-142835714D01*
X59502380Y-142930952D01*
X59502380Y-143169047D01*
X59454761Y-143264285D01*
X59407142Y-143311904D01*
X58835714Y-141883333D02*
X59502380Y-141883333D01*
X58454761Y-142121428D02*
X59169047Y-142359523D01*
X59169047Y-141740476D01*
X59502380Y-156464285D02*
X58502380Y-156464285D01*
X58502380Y-156226190D01*
X58550000Y-156083333D01*
X58645238Y-155988095D01*
X58740476Y-155940476D01*
X58930952Y-155892857D01*
X59073809Y-155892857D01*
X59264285Y-155940476D01*
X59359523Y-155988095D01*
X59454761Y-156083333D01*
X59502380Y-156226190D01*
X59502380Y-156464285D01*
X58502380Y-154988095D02*
X58502380Y-155464285D01*
X58978571Y-155511904D01*
X58930952Y-155464285D01*
X58883333Y-155369047D01*
X58883333Y-155130952D01*
X58930952Y-155035714D01*
X58978571Y-154988095D01*
X59073809Y-154940476D01*
X59311904Y-154940476D01*
X59407142Y-154988095D01*
X59454761Y-155035714D01*
X59502380Y-155130952D01*
X59502380Y-155369047D01*
X59454761Y-155464285D01*
X59407142Y-155511904D01*
X58502380Y-154035714D02*
X58502380Y-154511904D01*
X58978571Y-154559523D01*
X58930952Y-154511904D01*
X58883333Y-154416666D01*
X58883333Y-154178571D01*
X58930952Y-154083333D01*
X58978571Y-154035714D01*
X59073809Y-153988095D01*
X59311904Y-153988095D01*
X59407142Y-154035714D01*
X59454761Y-154083333D01*
X59502380Y-154178571D01*
X59502380Y-154416666D01*
X59454761Y-154511904D01*
X59407142Y-154559523D01*
X88285714Y-123902380D02*
X88285714Y-122902380D01*
X88523809Y-122902380D01*
X88666666Y-122950000D01*
X88761904Y-123045238D01*
X88809523Y-123140476D01*
X88857142Y-123330952D01*
X88857142Y-123473809D01*
X88809523Y-123664285D01*
X88761904Y-123759523D01*
X88666666Y-123854761D01*
X88523809Y-123902380D01*
X88285714Y-123902380D01*
X89761904Y-122902380D02*
X89285714Y-122902380D01*
X89238095Y-123378571D01*
X89285714Y-123330952D01*
X89380952Y-123283333D01*
X89619047Y-123283333D01*
X89714285Y-123330952D01*
X89761904Y-123378571D01*
X89809523Y-123473809D01*
X89809523Y-123711904D01*
X89761904Y-123807142D01*
X89714285Y-123854761D01*
X89619047Y-123902380D01*
X89380952Y-123902380D01*
X89285714Y-123854761D01*
X89238095Y-123807142D01*
X90666666Y-122902380D02*
X90476190Y-122902380D01*
X90380952Y-122950000D01*
X90333333Y-122997619D01*
X90238095Y-123140476D01*
X90190476Y-123330952D01*
X90190476Y-123711904D01*
X90238095Y-123807142D01*
X90285714Y-123854761D01*
X90380952Y-123902380D01*
X90571428Y-123902380D01*
X90666666Y-123854761D01*
X90714285Y-123807142D01*
X90761904Y-123711904D01*
X90761904Y-123473809D01*
X90714285Y-123378571D01*
X90666666Y-123330952D01*
X90571428Y-123283333D01*
X90380952Y-123283333D01*
X90285714Y-123330952D01*
X90238095Y-123378571D01*
X90190476Y-123473809D01*
X97135714Y-115052380D02*
X97135714Y-114052380D01*
X97373809Y-114052380D01*
X97516666Y-114100000D01*
X97611904Y-114195238D01*
X97659523Y-114290476D01*
X97707142Y-114480952D01*
X97707142Y-114623809D01*
X97659523Y-114814285D01*
X97611904Y-114909523D01*
X97516666Y-115004761D01*
X97373809Y-115052380D01*
X97135714Y-115052380D01*
X98611904Y-114052380D02*
X98135714Y-114052380D01*
X98088095Y-114528571D01*
X98135714Y-114480952D01*
X98230952Y-114433333D01*
X98469047Y-114433333D01*
X98564285Y-114480952D01*
X98611904Y-114528571D01*
X98659523Y-114623809D01*
X98659523Y-114861904D01*
X98611904Y-114957142D01*
X98564285Y-115004761D01*
X98469047Y-115052380D01*
X98230952Y-115052380D01*
X98135714Y-115004761D01*
X98088095Y-114957142D01*
X98992857Y-114052380D02*
X99659523Y-114052380D01*
X99230952Y-115052380D01*
X105935714Y-106152380D02*
X105935714Y-105152380D01*
X106173809Y-105152380D01*
X106316666Y-105200000D01*
X106411904Y-105295238D01*
X106459523Y-105390476D01*
X106507142Y-105580952D01*
X106507142Y-105723809D01*
X106459523Y-105914285D01*
X106411904Y-106009523D01*
X106316666Y-106104761D01*
X106173809Y-106152380D01*
X105935714Y-106152380D01*
X107411904Y-105152380D02*
X106935714Y-105152380D01*
X106888095Y-105628571D01*
X106935714Y-105580952D01*
X107030952Y-105533333D01*
X107269047Y-105533333D01*
X107364285Y-105580952D01*
X107411904Y-105628571D01*
X107459523Y-105723809D01*
X107459523Y-105961904D01*
X107411904Y-106057142D01*
X107364285Y-106104761D01*
X107269047Y-106152380D01*
X107030952Y-106152380D01*
X106935714Y-106104761D01*
X106888095Y-106057142D01*
X108030952Y-105580952D02*
X107935714Y-105533333D01*
X107888095Y-105485714D01*
X107840476Y-105390476D01*
X107840476Y-105342857D01*
X107888095Y-105247619D01*
X107935714Y-105200000D01*
X108030952Y-105152380D01*
X108221428Y-105152380D01*
X108316666Y-105200000D01*
X108364285Y-105247619D01*
X108411904Y-105342857D01*
X108411904Y-105390476D01*
X108364285Y-105485714D01*
X108316666Y-105533333D01*
X108221428Y-105580952D01*
X108030952Y-105580952D01*
X107935714Y-105628571D01*
X107888095Y-105676190D01*
X107840476Y-105771428D01*
X107840476Y-105961904D01*
X107888095Y-106057142D01*
X107935714Y-106104761D01*
X108030952Y-106152380D01*
X108221428Y-106152380D01*
X108316666Y-106104761D01*
X108364285Y-106057142D01*
X108411904Y-105961904D01*
X108411904Y-105771428D01*
X108364285Y-105676190D01*
X108316666Y-105628571D01*
X108221428Y-105580952D01*
X114735714Y-97302380D02*
X114735714Y-96302380D01*
X114973809Y-96302380D01*
X115116666Y-96350000D01*
X115211904Y-96445238D01*
X115259523Y-96540476D01*
X115307142Y-96730952D01*
X115307142Y-96873809D01*
X115259523Y-97064285D01*
X115211904Y-97159523D01*
X115116666Y-97254761D01*
X114973809Y-97302380D01*
X114735714Y-97302380D01*
X116211904Y-96302380D02*
X115735714Y-96302380D01*
X115688095Y-96778571D01*
X115735714Y-96730952D01*
X115830952Y-96683333D01*
X116069047Y-96683333D01*
X116164285Y-96730952D01*
X116211904Y-96778571D01*
X116259523Y-96873809D01*
X116259523Y-97111904D01*
X116211904Y-97207142D01*
X116164285Y-97254761D01*
X116069047Y-97302380D01*
X115830952Y-97302380D01*
X115735714Y-97254761D01*
X115688095Y-97207142D01*
X116735714Y-97302380D02*
X116926190Y-97302380D01*
X117021428Y-97254761D01*
X117069047Y-97207142D01*
X117164285Y-97064285D01*
X117211904Y-96873809D01*
X117211904Y-96492857D01*
X117164285Y-96397619D01*
X117116666Y-96350000D01*
X117021428Y-96302380D01*
X116830952Y-96302380D01*
X116735714Y-96350000D01*
X116688095Y-96397619D01*
X116640476Y-96492857D01*
X116640476Y-96730952D01*
X116688095Y-96826190D01*
X116735714Y-96873809D01*
X116830952Y-96921428D01*
X117021428Y-96921428D01*
X117116666Y-96873809D01*
X117164285Y-96826190D01*
X117211904Y-96730952D01*
X123535714Y-88402380D02*
X123535714Y-87402380D01*
X123773809Y-87402380D01*
X123916666Y-87450000D01*
X124011904Y-87545238D01*
X124059523Y-87640476D01*
X124107142Y-87830952D01*
X124107142Y-87973809D01*
X124059523Y-88164285D01*
X124011904Y-88259523D01*
X123916666Y-88354761D01*
X123773809Y-88402380D01*
X123535714Y-88402380D01*
X124964285Y-87402380D02*
X124773809Y-87402380D01*
X124678571Y-87450000D01*
X124630952Y-87497619D01*
X124535714Y-87640476D01*
X124488095Y-87830952D01*
X124488095Y-88211904D01*
X124535714Y-88307142D01*
X124583333Y-88354761D01*
X124678571Y-88402380D01*
X124869047Y-88402380D01*
X124964285Y-88354761D01*
X125011904Y-88307142D01*
X125059523Y-88211904D01*
X125059523Y-87973809D01*
X125011904Y-87878571D01*
X124964285Y-87830952D01*
X124869047Y-87783333D01*
X124678571Y-87783333D01*
X124583333Y-87830952D01*
X124535714Y-87878571D01*
X124488095Y-87973809D01*
X125678571Y-87402380D02*
X125773809Y-87402380D01*
X125869047Y-87450000D01*
X125916666Y-87497619D01*
X125964285Y-87592857D01*
X126011904Y-87783333D01*
X126011904Y-88021428D01*
X125964285Y-88211904D01*
X125916666Y-88307142D01*
X125869047Y-88354761D01*
X125773809Y-88402380D01*
X125678571Y-88402380D01*
X125583333Y-88354761D01*
X125535714Y-88307142D01*
X125488095Y-88211904D01*
X125440476Y-88021428D01*
X125440476Y-87783333D01*
X125488095Y-87592857D01*
X125535714Y-87497619D01*
X125583333Y-87450000D01*
X125678571Y-87402380D01*
X181635714Y-71352380D02*
X181635714Y-70352380D01*
X181873809Y-70352380D01*
X182016666Y-70400000D01*
X182111904Y-70495238D01*
X182159523Y-70590476D01*
X182207142Y-70780952D01*
X182207142Y-70923809D01*
X182159523Y-71114285D01*
X182111904Y-71209523D01*
X182016666Y-71304761D01*
X181873809Y-71352380D01*
X181635714Y-71352380D01*
X183064285Y-70352380D02*
X182873809Y-70352380D01*
X182778571Y-70400000D01*
X182730952Y-70447619D01*
X182635714Y-70590476D01*
X182588095Y-70780952D01*
X182588095Y-71161904D01*
X182635714Y-71257142D01*
X182683333Y-71304761D01*
X182778571Y-71352380D01*
X182969047Y-71352380D01*
X183064285Y-71304761D01*
X183111904Y-71257142D01*
X183159523Y-71161904D01*
X183159523Y-70923809D01*
X183111904Y-70828571D01*
X183064285Y-70780952D01*
X182969047Y-70733333D01*
X182778571Y-70733333D01*
X182683333Y-70780952D01*
X182635714Y-70828571D01*
X182588095Y-70923809D01*
X184111904Y-71352380D02*
X183540476Y-71352380D01*
X183826190Y-71352380D02*
X183826190Y-70352380D01*
X183730952Y-70495238D01*
X183635714Y-70590476D01*
X183540476Y-70638095D01*
X132985714Y-26602380D02*
X132985714Y-25602380D01*
X133223809Y-25602380D01*
X133366666Y-25650000D01*
X133461904Y-25745238D01*
X133509523Y-25840476D01*
X133557142Y-26030952D01*
X133557142Y-26173809D01*
X133509523Y-26364285D01*
X133461904Y-26459523D01*
X133366666Y-26554761D01*
X133223809Y-26602380D01*
X132985714Y-26602380D01*
X134414285Y-25602380D02*
X134223809Y-25602380D01*
X134128571Y-25650000D01*
X134080952Y-25697619D01*
X133985714Y-25840476D01*
X133938095Y-26030952D01*
X133938095Y-26411904D01*
X133985714Y-26507142D01*
X134033333Y-26554761D01*
X134128571Y-26602380D01*
X134319047Y-26602380D01*
X134414285Y-26554761D01*
X134461904Y-26507142D01*
X134509523Y-26411904D01*
X134509523Y-26173809D01*
X134461904Y-26078571D01*
X134414285Y-26030952D01*
X134319047Y-25983333D01*
X134128571Y-25983333D01*
X134033333Y-26030952D01*
X133985714Y-26078571D01*
X133938095Y-26173809D01*
X134890476Y-25697619D02*
X134938095Y-25650000D01*
X135033333Y-25602380D01*
X135271428Y-25602380D01*
X135366666Y-25650000D01*
X135414285Y-25697619D01*
X135461904Y-25792857D01*
X135461904Y-25888095D01*
X135414285Y-26030952D01*
X134842857Y-26602380D01*
X135461904Y-26602380D01*
X210902380Y-94764285D02*
X209902380Y-94764285D01*
X209902380Y-94526190D01*
X209950000Y-94383333D01*
X210045238Y-94288095D01*
X210140476Y-94240476D01*
X210330952Y-94192857D01*
X210473809Y-94192857D01*
X210664285Y-94240476D01*
X210759523Y-94288095D01*
X210854761Y-94383333D01*
X210902380Y-94526190D01*
X210902380Y-94764285D01*
X209902380Y-93335714D02*
X209902380Y-93526190D01*
X209950000Y-93621428D01*
X209997619Y-93669047D01*
X210140476Y-93764285D01*
X210330952Y-93811904D01*
X210711904Y-93811904D01*
X210807142Y-93764285D01*
X210854761Y-93716666D01*
X210902380Y-93621428D01*
X210902380Y-93430952D01*
X210854761Y-93335714D01*
X210807142Y-93288095D01*
X210711904Y-93240476D01*
X210473809Y-93240476D01*
X210378571Y-93288095D01*
X210330952Y-93335714D01*
X210283333Y-93430952D01*
X210283333Y-93621428D01*
X210330952Y-93716666D01*
X210378571Y-93764285D01*
X210473809Y-93811904D01*
X209902380Y-92907142D02*
X209902380Y-92288095D01*
X210283333Y-92621428D01*
X210283333Y-92478571D01*
X210330952Y-92383333D01*
X210378571Y-92335714D01*
X210473809Y-92288095D01*
X210711904Y-92288095D01*
X210807142Y-92335714D01*
X210854761Y-92383333D01*
X210902380Y-92478571D01*
X210902380Y-92764285D01*
X210854761Y-92859523D01*
X210807142Y-92907142D01*
X145435714Y-93552380D02*
X145435714Y-92552380D01*
X145673809Y-92552380D01*
X145816666Y-92600000D01*
X145911904Y-92695238D01*
X145959523Y-92790476D01*
X146007142Y-92980952D01*
X146007142Y-93123809D01*
X145959523Y-93314285D01*
X145911904Y-93409523D01*
X145816666Y-93504761D01*
X145673809Y-93552380D01*
X145435714Y-93552380D01*
X146864285Y-92552380D02*
X146673809Y-92552380D01*
X146578571Y-92600000D01*
X146530952Y-92647619D01*
X146435714Y-92790476D01*
X146388095Y-92980952D01*
X146388095Y-93361904D01*
X146435714Y-93457142D01*
X146483333Y-93504761D01*
X146578571Y-93552380D01*
X146769047Y-93552380D01*
X146864285Y-93504761D01*
X146911904Y-93457142D01*
X146959523Y-93361904D01*
X146959523Y-93123809D01*
X146911904Y-93028571D01*
X146864285Y-92980952D01*
X146769047Y-92933333D01*
X146578571Y-92933333D01*
X146483333Y-92980952D01*
X146435714Y-93028571D01*
X146388095Y-93123809D01*
X147816666Y-92885714D02*
X147816666Y-93552380D01*
X147578571Y-92504761D02*
X147340476Y-93219047D01*
X147959523Y-93219047D01*
X132985714Y-173802380D02*
X132985714Y-172802380D01*
X133223809Y-172802380D01*
X133366666Y-172850000D01*
X133461904Y-172945238D01*
X133509523Y-173040476D01*
X133557142Y-173230952D01*
X133557142Y-173373809D01*
X133509523Y-173564285D01*
X133461904Y-173659523D01*
X133366666Y-173754761D01*
X133223809Y-173802380D01*
X132985714Y-173802380D01*
X134414285Y-172802380D02*
X134223809Y-172802380D01*
X134128571Y-172850000D01*
X134080952Y-172897619D01*
X133985714Y-173040476D01*
X133938095Y-173230952D01*
X133938095Y-173611904D01*
X133985714Y-173707142D01*
X134033333Y-173754761D01*
X134128571Y-173802380D01*
X134319047Y-173802380D01*
X134414285Y-173754761D01*
X134461904Y-173707142D01*
X134509523Y-173611904D01*
X134509523Y-173373809D01*
X134461904Y-173278571D01*
X134414285Y-173230952D01*
X134319047Y-173183333D01*
X134128571Y-173183333D01*
X134033333Y-173230952D01*
X133985714Y-173278571D01*
X133938095Y-173373809D01*
X135414285Y-172802380D02*
X134938095Y-172802380D01*
X134890476Y-173278571D01*
X134938095Y-173230952D01*
X135033333Y-173183333D01*
X135271428Y-173183333D01*
X135366666Y-173230952D01*
X135414285Y-173278571D01*
X135461904Y-173373809D01*
X135461904Y-173611904D01*
X135414285Y-173707142D01*
X135366666Y-173754761D01*
X135271428Y-173802380D01*
X135033333Y-173802380D01*
X134938095Y-173754761D01*
X134890476Y-173707142D01*
X159485714Y-151052380D02*
X159485714Y-150052380D01*
X159723809Y-150052380D01*
X159866666Y-150100000D01*
X159961904Y-150195238D01*
X160009523Y-150290476D01*
X160057142Y-150480952D01*
X160057142Y-150623809D01*
X160009523Y-150814285D01*
X159961904Y-150909523D01*
X159866666Y-151004761D01*
X159723809Y-151052380D01*
X159485714Y-151052380D01*
X160914285Y-150052380D02*
X160723809Y-150052380D01*
X160628571Y-150100000D01*
X160580952Y-150147619D01*
X160485714Y-150290476D01*
X160438095Y-150480952D01*
X160438095Y-150861904D01*
X160485714Y-150957142D01*
X160533333Y-151004761D01*
X160628571Y-151052380D01*
X160819047Y-151052380D01*
X160914285Y-151004761D01*
X160961904Y-150957142D01*
X161009523Y-150861904D01*
X161009523Y-150623809D01*
X160961904Y-150528571D01*
X160914285Y-150480952D01*
X160819047Y-150433333D01*
X160628571Y-150433333D01*
X160533333Y-150480952D01*
X160485714Y-150528571D01*
X160438095Y-150623809D01*
X161866666Y-150052380D02*
X161676190Y-150052380D01*
X161580952Y-150100000D01*
X161533333Y-150147619D01*
X161438095Y-150290476D01*
X161390476Y-150480952D01*
X161390476Y-150861904D01*
X161438095Y-150957142D01*
X161485714Y-151004761D01*
X161580952Y-151052380D01*
X161771428Y-151052380D01*
X161866666Y-151004761D01*
X161914285Y-150957142D01*
X161961904Y-150861904D01*
X161961904Y-150623809D01*
X161914285Y-150528571D01*
X161866666Y-150480952D01*
X161771428Y-150433333D01*
X161580952Y-150433333D01*
X161485714Y-150480952D01*
X161438095Y-150528571D01*
X161390476Y-150623809D01*
X87785714Y-121252380D02*
X87785714Y-120252380D01*
X88023809Y-120252380D01*
X88166666Y-120300000D01*
X88261904Y-120395238D01*
X88309523Y-120490476D01*
X88357142Y-120680952D01*
X88357142Y-120823809D01*
X88309523Y-121014285D01*
X88261904Y-121109523D01*
X88166666Y-121204761D01*
X88023809Y-121252380D01*
X87785714Y-121252380D01*
X89214285Y-120252380D02*
X89023809Y-120252380D01*
X88928571Y-120300000D01*
X88880952Y-120347619D01*
X88785714Y-120490476D01*
X88738095Y-120680952D01*
X88738095Y-121061904D01*
X88785714Y-121157142D01*
X88833333Y-121204761D01*
X88928571Y-121252380D01*
X89119047Y-121252380D01*
X89214285Y-121204761D01*
X89261904Y-121157142D01*
X89309523Y-121061904D01*
X89309523Y-120823809D01*
X89261904Y-120728571D01*
X89214285Y-120680952D01*
X89119047Y-120633333D01*
X88928571Y-120633333D01*
X88833333Y-120680952D01*
X88785714Y-120728571D01*
X88738095Y-120823809D01*
X89642857Y-120252380D02*
X90309523Y-120252380D01*
X89880952Y-121252380D01*
X62152380Y-94714285D02*
X61152380Y-94714285D01*
X61152380Y-94476190D01*
X61200000Y-94333333D01*
X61295238Y-94238095D01*
X61390476Y-94190476D01*
X61580952Y-94142857D01*
X61723809Y-94142857D01*
X61914285Y-94190476D01*
X62009523Y-94238095D01*
X62104761Y-94333333D01*
X62152380Y-94476190D01*
X62152380Y-94714285D01*
X61152380Y-93285714D02*
X61152380Y-93476190D01*
X61200000Y-93571428D01*
X61247619Y-93619047D01*
X61390476Y-93714285D01*
X61580952Y-93761904D01*
X61961904Y-93761904D01*
X62057142Y-93714285D01*
X62104761Y-93666666D01*
X62152380Y-93571428D01*
X62152380Y-93380952D01*
X62104761Y-93285714D01*
X62057142Y-93238095D01*
X61961904Y-93190476D01*
X61723809Y-93190476D01*
X61628571Y-93238095D01*
X61580952Y-93285714D01*
X61533333Y-93380952D01*
X61533333Y-93571428D01*
X61580952Y-93666666D01*
X61628571Y-93714285D01*
X61723809Y-93761904D01*
X61580952Y-92619047D02*
X61533333Y-92714285D01*
X61485714Y-92761904D01*
X61390476Y-92809523D01*
X61342857Y-92809523D01*
X61247619Y-92761904D01*
X61200000Y-92714285D01*
X61152380Y-92619047D01*
X61152380Y-92428571D01*
X61200000Y-92333333D01*
X61247619Y-92285714D01*
X61342857Y-92238095D01*
X61390476Y-92238095D01*
X61485714Y-92285714D01*
X61533333Y-92333333D01*
X61580952Y-92428571D01*
X61580952Y-92619047D01*
X61628571Y-92714285D01*
X61676190Y-92761904D01*
X61771428Y-92809523D01*
X61961904Y-92809523D01*
X62057142Y-92761904D01*
X62104761Y-92714285D01*
X62152380Y-92619047D01*
X62152380Y-92428571D01*
X62104761Y-92333333D01*
X62057142Y-92285714D01*
X61961904Y-92238095D01*
X61771428Y-92238095D01*
X61676190Y-92285714D01*
X61628571Y-92333333D01*
X61580952Y-92428571D01*
D11*
X79510238Y-58524523D02*
X79510238Y-57254523D01*
X80840714Y-58403571D02*
X80780238Y-58464047D01*
X80598809Y-58524523D01*
X80477857Y-58524523D01*
X80296428Y-58464047D01*
X80175476Y-58343095D01*
X80115000Y-58222142D01*
X80054523Y-57980238D01*
X80054523Y-57798809D01*
X80115000Y-57556904D01*
X80175476Y-57435952D01*
X80296428Y-57315000D01*
X80477857Y-57254523D01*
X80598809Y-57254523D01*
X80780238Y-57315000D01*
X80840714Y-57375476D01*
X82050238Y-58524523D02*
X81324523Y-58524523D01*
X81687380Y-58524523D02*
X81687380Y-57254523D01*
X81566428Y-57435952D01*
X81445476Y-57556904D01*
X81324523Y-57617380D01*
D13*
X110652380Y-35529166D02*
X110176190Y-35862500D01*
X110652380Y-36100595D02*
X109652380Y-36100595D01*
X109652380Y-35719642D01*
X109700000Y-35624404D01*
X109747619Y-35576785D01*
X109842857Y-35529166D01*
X109985714Y-35529166D01*
X110080952Y-35576785D01*
X110128571Y-35624404D01*
X110176190Y-35719642D01*
X110176190Y-36100595D01*
X109652380Y-35195833D02*
X109652380Y-34576785D01*
X110033333Y-34910119D01*
X110033333Y-34767261D01*
X110080952Y-34672023D01*
X110128571Y-34624404D01*
X110223809Y-34576785D01*
X110461904Y-34576785D01*
X110557142Y-34624404D01*
X110604761Y-34672023D01*
X110652380Y-34767261D01*
X110652380Y-35052976D01*
X110604761Y-35148214D01*
X110557142Y-35195833D01*
X73052380Y-61354166D02*
X72576190Y-61687500D01*
X73052380Y-61925595D02*
X72052380Y-61925595D01*
X72052380Y-61544642D01*
X72100000Y-61449404D01*
X72147619Y-61401785D01*
X72242857Y-61354166D01*
X72385714Y-61354166D01*
X72480952Y-61401785D01*
X72528571Y-61449404D01*
X72576190Y-61544642D01*
X72576190Y-61925595D01*
X73052380Y-60401785D02*
X73052380Y-60973214D01*
X73052380Y-60687500D02*
X72052380Y-60687500D01*
X72195238Y-60782738D01*
X72290476Y-60877976D01*
X72338095Y-60973214D01*
X70952380Y-61354166D02*
X70476190Y-61687500D01*
X70952380Y-61925595D02*
X69952380Y-61925595D01*
X69952380Y-61544642D01*
X70000000Y-61449404D01*
X70047619Y-61401785D01*
X70142857Y-61354166D01*
X70285714Y-61354166D01*
X70380952Y-61401785D01*
X70428571Y-61449404D01*
X70476190Y-61544642D01*
X70476190Y-61925595D01*
X70047619Y-60973214D02*
X70000000Y-60925595D01*
X69952380Y-60830357D01*
X69952380Y-60592261D01*
X70000000Y-60497023D01*
X70047619Y-60449404D01*
X70142857Y-60401785D01*
X70238095Y-60401785D01*
X70380952Y-60449404D01*
X70952380Y-61020833D01*
X70952380Y-60401785D01*
X110652380Y-39154166D02*
X110176190Y-39487500D01*
X110652380Y-39725595D02*
X109652380Y-39725595D01*
X109652380Y-39344642D01*
X109700000Y-39249404D01*
X109747619Y-39201785D01*
X109842857Y-39154166D01*
X109985714Y-39154166D01*
X110080952Y-39201785D01*
X110128571Y-39249404D01*
X110176190Y-39344642D01*
X110176190Y-39725595D01*
X109985714Y-38297023D02*
X110652380Y-38297023D01*
X109604761Y-38535119D02*
X110319047Y-38773214D01*
X110319047Y-38154166D01*
X187688095Y-43102380D02*
X187688095Y-42102380D01*
X187688095Y-42578571D02*
X188259523Y-42578571D01*
X188259523Y-43102380D02*
X188259523Y-42102380D01*
X189259523Y-43102380D02*
X188688095Y-43102380D01*
X188973809Y-43102380D02*
X188973809Y-42102380D01*
X188878571Y-42245238D01*
X188783333Y-42340476D01*
X188688095Y-42388095D01*
X187738095Y-148052380D02*
X187738095Y-147052380D01*
X187738095Y-147528571D02*
X188309523Y-147528571D01*
X188309523Y-148052380D02*
X188309523Y-147052380D01*
X188738095Y-147147619D02*
X188785714Y-147100000D01*
X188880952Y-147052380D01*
X189119047Y-147052380D01*
X189214285Y-147100000D01*
X189261904Y-147147619D01*
X189309523Y-147242857D01*
X189309523Y-147338095D01*
X189261904Y-147480952D01*
X188690476Y-148052380D01*
X189309523Y-148052380D01*
X82738095Y-148102380D02*
X82738095Y-147102380D01*
X82738095Y-147578571D02*
X83309523Y-147578571D01*
X83309523Y-148102380D02*
X83309523Y-147102380D01*
X83690476Y-147102380D02*
X84309523Y-147102380D01*
X83976190Y-147483333D01*
X84119047Y-147483333D01*
X84214285Y-147530952D01*
X84261904Y-147578571D01*
X84309523Y-147673809D01*
X84309523Y-147911904D01*
X84261904Y-148007142D01*
X84214285Y-148054761D01*
X84119047Y-148102380D01*
X83833333Y-148102380D01*
X83738095Y-148054761D01*
X83690476Y-148007142D01*
X82738095Y-43152380D02*
X82738095Y-42152380D01*
X82738095Y-42628571D02*
X83309523Y-42628571D01*
X83309523Y-43152380D02*
X83309523Y-42152380D01*
X84214285Y-42485714D02*
X84214285Y-43152380D01*
X83976190Y-42104761D02*
X83738095Y-42819047D01*
X84357142Y-42819047D01*
X73957142Y-69766666D02*
X74004761Y-69814285D01*
X74052380Y-69957142D01*
X74052380Y-70052380D01*
X74004761Y-70195238D01*
X73909523Y-70290476D01*
X73814285Y-70338095D01*
X73623809Y-70385714D01*
X73480952Y-70385714D01*
X73290476Y-70338095D01*
X73195238Y-70290476D01*
X73100000Y-70195238D01*
X73052380Y-70052380D01*
X73052380Y-69957142D01*
X73100000Y-69814285D01*
X73147619Y-69766666D01*
X74052380Y-68814285D02*
X74052380Y-69385714D01*
X74052380Y-69100000D02*
X73052380Y-69100000D01*
X73195238Y-69195238D01*
X73290476Y-69290476D01*
X73338095Y-69385714D01*
M02*
