G04 #@! TF.GenerationSoftware,KiCad,Pcbnew,(5.1.2)-1*
G04 #@! TF.CreationDate,2019-06-19T14:51:22+02:00*
G04 #@! TF.ProjectId,stop_light,73746f70-5f6c-4696-9768-742e6b696361,rev?*
G04 #@! TF.SameCoordinates,Original*
G04 #@! TF.FileFunction,Soldermask,Top*
G04 #@! TF.FilePolarity,Negative*
%FSLAX46Y46*%
G04 Gerber Fmt 4.6, Leading zero omitted, Abs format (unit mm)*
G04 Created by KiCad (PCBNEW (5.1.2)-1) date 2019-06-19 14:51:22*
%MOMM*%
%LPD*%
G04 APERTURE LIST*
%ADD10C,0.100000*%
G04 APERTURE END LIST*
D10*
G36*
X577360000Y-121615001D02*
G01*
X577362402Y-121639387D01*
X577369515Y-121662836D01*
X577381066Y-121684447D01*
X577396611Y-121703389D01*
X577415553Y-121718934D01*
X577437164Y-121730485D01*
X577460613Y-121737598D01*
X577484999Y-121740000D01*
X577660000Y-121740000D01*
X577660000Y-122465001D01*
X577662402Y-122489387D01*
X577669515Y-122512836D01*
X577681066Y-122534447D01*
X577696611Y-122553389D01*
X577715553Y-122568934D01*
X577737164Y-122580485D01*
X577760613Y-122587598D01*
X577784999Y-122590000D01*
X578460000Y-122590000D01*
X578460000Y-123490000D01*
X577984999Y-123490000D01*
X577960613Y-123492402D01*
X577937164Y-123499515D01*
X577915553Y-123511066D01*
X577896611Y-123526611D01*
X577881066Y-123545553D01*
X577869515Y-123567164D01*
X577862402Y-123590613D01*
X577860000Y-123614999D01*
X577860000Y-124490000D01*
X577484999Y-124490000D01*
X577460613Y-124492402D01*
X577437164Y-124499515D01*
X577415553Y-124511066D01*
X577396611Y-124526611D01*
X577381066Y-124545553D01*
X577369515Y-124567164D01*
X577362402Y-124590613D01*
X577360000Y-124614999D01*
X577360000Y-125090000D01*
X576360000Y-125090000D01*
X576360000Y-124614999D01*
X576357598Y-124590613D01*
X576350485Y-124567164D01*
X576338934Y-124545553D01*
X576323389Y-124526611D01*
X576304447Y-124511066D01*
X576282836Y-124499515D01*
X576259387Y-124492402D01*
X576235001Y-124490000D01*
X575860000Y-124490000D01*
X575860000Y-123614999D01*
X575857598Y-123590613D01*
X575850485Y-123567164D01*
X575838934Y-123545553D01*
X575823389Y-123526611D01*
X575804447Y-123511066D01*
X575782836Y-123499515D01*
X575759387Y-123492402D01*
X575735001Y-123490000D01*
X575260000Y-123490000D01*
X575260000Y-122590000D01*
X575935001Y-122590000D01*
X575959387Y-122587598D01*
X575982836Y-122580485D01*
X576004447Y-122568934D01*
X576023389Y-122553389D01*
X576038934Y-122534447D01*
X576050485Y-122512836D01*
X576057598Y-122489387D01*
X576060000Y-122465001D01*
X576060000Y-121740000D01*
X576235001Y-121740000D01*
X576259387Y-121737598D01*
X576282836Y-121730485D01*
X576304447Y-121718934D01*
X576323389Y-121703389D01*
X576338934Y-121684447D01*
X576350485Y-121662836D01*
X576357598Y-121639387D01*
X576360000Y-121615001D01*
X576360000Y-121150000D01*
X577360000Y-121150000D01*
X577360000Y-121615001D01*
X577360000Y-121615001D01*
G37*
G36*
X597041715Y-119484544D02*
G01*
X597442089Y-119650384D01*
X597442091Y-119650385D01*
X597802418Y-119891148D01*
X598108852Y-120197582D01*
X598349616Y-120557911D01*
X598515456Y-120958285D01*
X598600000Y-121383318D01*
X598600000Y-121816682D01*
X598515456Y-122241715D01*
X598375133Y-122580485D01*
X598349615Y-122642091D01*
X598108852Y-123002418D01*
X597802418Y-123308852D01*
X597442091Y-123549615D01*
X597442090Y-123549616D01*
X597442089Y-123549616D01*
X597041715Y-123715456D01*
X596616682Y-123800000D01*
X596183318Y-123800000D01*
X595758285Y-123715456D01*
X595357911Y-123549616D01*
X595357910Y-123549616D01*
X595357909Y-123549615D01*
X594997582Y-123308852D01*
X594691148Y-123002418D01*
X594450385Y-122642091D01*
X594424867Y-122580485D01*
X594284544Y-122241715D01*
X594200000Y-121816682D01*
X594200000Y-121383318D01*
X594284544Y-120958285D01*
X594450384Y-120557911D01*
X594691148Y-120197582D01*
X594997582Y-119891148D01*
X595357909Y-119650385D01*
X595357911Y-119650384D01*
X595758285Y-119484544D01*
X596183318Y-119400000D01*
X596616682Y-119400000D01*
X597041715Y-119484544D01*
X597041715Y-119484544D01*
G37*
G36*
X569900000Y-106155001D02*
G01*
X569902402Y-106179387D01*
X569909515Y-106202836D01*
X569921066Y-106224447D01*
X569936611Y-106243389D01*
X569955553Y-106258934D01*
X569977164Y-106270485D01*
X570000613Y-106277598D01*
X570024999Y-106280000D01*
X570200000Y-106280000D01*
X570200000Y-107005001D01*
X570202402Y-107029387D01*
X570209515Y-107052836D01*
X570221066Y-107074447D01*
X570236611Y-107093389D01*
X570255553Y-107108934D01*
X570277164Y-107120485D01*
X570300613Y-107127598D01*
X570324999Y-107130000D01*
X571000000Y-107130000D01*
X571000000Y-108030000D01*
X570524999Y-108030000D01*
X570500613Y-108032402D01*
X570477164Y-108039515D01*
X570455553Y-108051066D01*
X570436611Y-108066611D01*
X570421066Y-108085553D01*
X570409515Y-108107164D01*
X570402402Y-108130613D01*
X570400000Y-108154999D01*
X570400000Y-109030000D01*
X570024999Y-109030000D01*
X570000613Y-109032402D01*
X569977164Y-109039515D01*
X569955553Y-109051066D01*
X569936611Y-109066611D01*
X569921066Y-109085553D01*
X569909515Y-109107164D01*
X569902402Y-109130613D01*
X569900000Y-109154999D01*
X569900000Y-109630000D01*
X568900000Y-109630000D01*
X568900000Y-109154999D01*
X568897598Y-109130613D01*
X568890485Y-109107164D01*
X568878934Y-109085553D01*
X568863389Y-109066611D01*
X568844447Y-109051066D01*
X568822836Y-109039515D01*
X568799387Y-109032402D01*
X568775001Y-109030000D01*
X568400000Y-109030000D01*
X568400000Y-108154999D01*
X568397598Y-108130613D01*
X568390485Y-108107164D01*
X568378934Y-108085553D01*
X568363389Y-108066611D01*
X568344447Y-108051066D01*
X568322836Y-108039515D01*
X568299387Y-108032402D01*
X568275001Y-108030000D01*
X567800000Y-108030000D01*
X567800000Y-107130000D01*
X568475001Y-107130000D01*
X568499387Y-107127598D01*
X568522836Y-107120485D01*
X568544447Y-107108934D01*
X568563389Y-107093389D01*
X568578934Y-107074447D01*
X568590485Y-107052836D01*
X568597598Y-107029387D01*
X568600000Y-107005001D01*
X568600000Y-106280000D01*
X568775001Y-106280000D01*
X568799387Y-106277598D01*
X568822836Y-106270485D01*
X568844447Y-106258934D01*
X568863389Y-106243389D01*
X568878934Y-106224447D01*
X568890485Y-106202836D01*
X568897598Y-106179387D01*
X568900000Y-106155001D01*
X568900000Y-105690000D01*
X569900000Y-105690000D01*
X569900000Y-106155001D01*
X569900000Y-106155001D01*
G37*
G36*
X562810000Y-90525001D02*
G01*
X562812402Y-90549387D01*
X562819515Y-90572836D01*
X562831066Y-90594447D01*
X562846611Y-90613389D01*
X562865553Y-90628934D01*
X562887164Y-90640485D01*
X562910613Y-90647598D01*
X562934999Y-90650000D01*
X563110000Y-90650000D01*
X563110000Y-91375001D01*
X563112402Y-91399387D01*
X563119515Y-91422836D01*
X563131066Y-91444447D01*
X563146611Y-91463389D01*
X563165553Y-91478934D01*
X563187164Y-91490485D01*
X563210613Y-91497598D01*
X563234999Y-91500000D01*
X563910000Y-91500000D01*
X563910000Y-92400000D01*
X563434999Y-92400000D01*
X563410613Y-92402402D01*
X563387164Y-92409515D01*
X563365553Y-92421066D01*
X563346611Y-92436611D01*
X563331066Y-92455553D01*
X563319515Y-92477164D01*
X563312402Y-92500613D01*
X563310000Y-92524999D01*
X563310000Y-93400000D01*
X562934999Y-93400000D01*
X562910613Y-93402402D01*
X562887164Y-93409515D01*
X562865553Y-93421066D01*
X562846611Y-93436611D01*
X562831066Y-93455553D01*
X562819515Y-93477164D01*
X562812402Y-93500613D01*
X562810000Y-93524999D01*
X562810000Y-94000000D01*
X561810000Y-94000000D01*
X561810000Y-93524999D01*
X561807598Y-93500613D01*
X561800485Y-93477164D01*
X561788934Y-93455553D01*
X561773389Y-93436611D01*
X561754447Y-93421066D01*
X561732836Y-93409515D01*
X561709387Y-93402402D01*
X561685001Y-93400000D01*
X561310000Y-93400000D01*
X561310000Y-92524999D01*
X561307598Y-92500613D01*
X561300485Y-92477164D01*
X561288934Y-92455553D01*
X561273389Y-92436611D01*
X561254447Y-92421066D01*
X561232836Y-92409515D01*
X561209387Y-92402402D01*
X561185001Y-92400000D01*
X560710000Y-92400000D01*
X560710000Y-91500000D01*
X561385001Y-91500000D01*
X561409387Y-91497598D01*
X561432836Y-91490485D01*
X561454447Y-91478934D01*
X561473389Y-91463389D01*
X561488934Y-91444447D01*
X561500485Y-91422836D01*
X561507598Y-91399387D01*
X561510000Y-91375001D01*
X561510000Y-90650000D01*
X561685001Y-90650000D01*
X561709387Y-90647598D01*
X561732836Y-90640485D01*
X561754447Y-90628934D01*
X561773389Y-90613389D01*
X561788934Y-90594447D01*
X561800485Y-90572836D01*
X561807598Y-90549387D01*
X561810000Y-90525001D01*
X561810000Y-90060000D01*
X562810000Y-90060000D01*
X562810000Y-90525001D01*
X562810000Y-90525001D01*
G37*
G36*
X579541715Y-74684544D02*
G01*
X579876917Y-74823389D01*
X579942091Y-74850385D01*
X580302418Y-75091148D01*
X580608852Y-75397582D01*
X580750376Y-75609387D01*
X580849616Y-75757911D01*
X581015456Y-76158285D01*
X581100000Y-76583318D01*
X581100000Y-77016682D01*
X581015456Y-77441715D01*
X580945750Y-77610000D01*
X580849615Y-77842091D01*
X580608852Y-78202418D01*
X580302418Y-78508852D01*
X579942091Y-78749615D01*
X579942090Y-78749616D01*
X579942089Y-78749616D01*
X579541715Y-78915456D01*
X579116682Y-79000000D01*
X578683318Y-79000000D01*
X578258285Y-78915456D01*
X577857911Y-78749616D01*
X577857910Y-78749616D01*
X577857909Y-78749615D01*
X577497582Y-78508852D01*
X577191148Y-78202418D01*
X576950385Y-77842091D01*
X576854250Y-77610000D01*
X576784544Y-77441715D01*
X576700000Y-77016682D01*
X576700000Y-76583318D01*
X576784544Y-76158285D01*
X576950384Y-75757911D01*
X577049625Y-75609387D01*
X577191148Y-75397582D01*
X577497582Y-75091148D01*
X577857909Y-74850385D01*
X577923083Y-74823389D01*
X578258285Y-74684544D01*
X578683318Y-74600000D01*
X579116682Y-74600000D01*
X579541715Y-74684544D01*
X579541715Y-74684544D01*
G37*
G36*
X556050000Y-74735001D02*
G01*
X556052402Y-74759387D01*
X556059515Y-74782836D01*
X556071066Y-74804447D01*
X556086611Y-74823389D01*
X556105553Y-74838934D01*
X556127164Y-74850485D01*
X556150613Y-74857598D01*
X556174999Y-74860000D01*
X556350000Y-74860000D01*
X556350000Y-75585001D01*
X556352402Y-75609387D01*
X556359515Y-75632836D01*
X556371066Y-75654447D01*
X556386611Y-75673389D01*
X556405553Y-75688934D01*
X556427164Y-75700485D01*
X556450613Y-75707598D01*
X556474999Y-75710000D01*
X557150000Y-75710000D01*
X557150000Y-76610000D01*
X556674999Y-76610000D01*
X556650613Y-76612402D01*
X556627164Y-76619515D01*
X556605553Y-76631066D01*
X556586611Y-76646611D01*
X556571066Y-76665553D01*
X556559515Y-76687164D01*
X556552402Y-76710613D01*
X556550000Y-76734999D01*
X556550000Y-77610000D01*
X556174999Y-77610000D01*
X556150613Y-77612402D01*
X556127164Y-77619515D01*
X556105553Y-77631066D01*
X556086611Y-77646611D01*
X556071066Y-77665553D01*
X556059515Y-77687164D01*
X556052402Y-77710613D01*
X556050000Y-77734999D01*
X556050000Y-78210000D01*
X555050000Y-78210000D01*
X555050000Y-77734999D01*
X555047598Y-77710613D01*
X555040485Y-77687164D01*
X555028934Y-77665553D01*
X555013389Y-77646611D01*
X554994447Y-77631066D01*
X554972836Y-77619515D01*
X554949387Y-77612402D01*
X554925001Y-77610000D01*
X554550000Y-77610000D01*
X554550000Y-76734999D01*
X554547598Y-76710613D01*
X554540485Y-76687164D01*
X554528934Y-76665553D01*
X554513389Y-76646611D01*
X554494447Y-76631066D01*
X554472836Y-76619515D01*
X554449387Y-76612402D01*
X554425001Y-76610000D01*
X553950000Y-76610000D01*
X553950000Y-75710000D01*
X554625001Y-75710000D01*
X554649387Y-75707598D01*
X554672836Y-75700485D01*
X554694447Y-75688934D01*
X554713389Y-75673389D01*
X554728934Y-75654447D01*
X554740485Y-75632836D01*
X554747598Y-75609387D01*
X554750000Y-75585001D01*
X554750000Y-74860000D01*
X554925001Y-74860000D01*
X554949387Y-74857598D01*
X554972836Y-74850485D01*
X554994447Y-74838934D01*
X555013389Y-74823389D01*
X555028934Y-74804447D01*
X555040485Y-74782836D01*
X555047598Y-74759387D01*
X555050000Y-74735001D01*
X555050000Y-74270000D01*
X556050000Y-74270000D01*
X556050000Y-74735001D01*
X556050000Y-74735001D01*
G37*
G36*
X549610000Y-58835001D02*
G01*
X549612402Y-58859387D01*
X549619515Y-58882836D01*
X549631066Y-58904447D01*
X549646611Y-58923389D01*
X549665553Y-58938934D01*
X549687164Y-58950485D01*
X549710613Y-58957598D01*
X549734999Y-58960000D01*
X549910000Y-58960000D01*
X549910000Y-59685001D01*
X549912402Y-59709387D01*
X549919515Y-59732836D01*
X549931066Y-59754447D01*
X549946611Y-59773389D01*
X549965553Y-59788934D01*
X549987164Y-59800485D01*
X550010613Y-59807598D01*
X550034999Y-59810000D01*
X550710000Y-59810000D01*
X550710000Y-60710000D01*
X550234999Y-60710000D01*
X550210613Y-60712402D01*
X550187164Y-60719515D01*
X550165553Y-60731066D01*
X550146611Y-60746611D01*
X550131066Y-60765553D01*
X550119515Y-60787164D01*
X550112402Y-60810613D01*
X550110000Y-60834999D01*
X550110000Y-61710000D01*
X549734999Y-61710000D01*
X549710613Y-61712402D01*
X549687164Y-61719515D01*
X549665553Y-61731066D01*
X549646611Y-61746611D01*
X549631066Y-61765553D01*
X549619515Y-61787164D01*
X549612402Y-61810613D01*
X549610000Y-61834999D01*
X549610000Y-62310000D01*
X548610000Y-62310000D01*
X548610000Y-61834999D01*
X548607598Y-61810613D01*
X548600485Y-61787164D01*
X548588934Y-61765553D01*
X548573389Y-61746611D01*
X548554447Y-61731066D01*
X548532836Y-61719515D01*
X548509387Y-61712402D01*
X548485001Y-61710000D01*
X548110000Y-61710000D01*
X548110000Y-60834999D01*
X548107598Y-60810613D01*
X548100485Y-60787164D01*
X548088934Y-60765553D01*
X548073389Y-60746611D01*
X548054447Y-60731066D01*
X548032836Y-60719515D01*
X548009387Y-60712402D01*
X547985001Y-60710000D01*
X547510000Y-60710000D01*
X547510000Y-59810000D01*
X548185001Y-59810000D01*
X548209387Y-59807598D01*
X548232836Y-59800485D01*
X548254447Y-59788934D01*
X548273389Y-59773389D01*
X548288934Y-59754447D01*
X548300485Y-59732836D01*
X548307598Y-59709387D01*
X548310000Y-59685001D01*
X548310000Y-58960000D01*
X548485001Y-58960000D01*
X548509387Y-58957598D01*
X548532836Y-58950485D01*
X548554447Y-58938934D01*
X548573389Y-58923389D01*
X548588934Y-58904447D01*
X548600485Y-58882836D01*
X548607598Y-58859387D01*
X548610000Y-58835001D01*
X548610000Y-58370000D01*
X549610000Y-58370000D01*
X549610000Y-58835001D01*
X549610000Y-58835001D01*
G37*
G36*
X543450000Y-42815001D02*
G01*
X543452402Y-42839387D01*
X543459515Y-42862836D01*
X543471066Y-42884447D01*
X543486611Y-42903389D01*
X543505553Y-42918934D01*
X543527164Y-42930485D01*
X543550613Y-42937598D01*
X543574999Y-42940000D01*
X543750000Y-42940000D01*
X543750000Y-43665001D01*
X543752402Y-43689387D01*
X543759515Y-43712836D01*
X543771066Y-43734447D01*
X543786611Y-43753389D01*
X543805553Y-43768934D01*
X543827164Y-43780485D01*
X543850613Y-43787598D01*
X543874999Y-43790000D01*
X544550000Y-43790000D01*
X544550000Y-44690000D01*
X544074999Y-44690000D01*
X544050613Y-44692402D01*
X544027164Y-44699515D01*
X544005553Y-44711066D01*
X543986611Y-44726611D01*
X543971066Y-44745553D01*
X543959515Y-44767164D01*
X543952402Y-44790613D01*
X543950000Y-44814999D01*
X543950000Y-45690000D01*
X543574999Y-45690000D01*
X543550613Y-45692402D01*
X543527164Y-45699515D01*
X543505553Y-45711066D01*
X543486611Y-45726611D01*
X543471066Y-45745553D01*
X543459515Y-45767164D01*
X543452402Y-45790613D01*
X543450000Y-45814999D01*
X543450000Y-46290000D01*
X542450000Y-46290000D01*
X542450000Y-45814999D01*
X542447598Y-45790613D01*
X542440485Y-45767164D01*
X542428934Y-45745553D01*
X542413389Y-45726611D01*
X542394447Y-45711066D01*
X542372836Y-45699515D01*
X542349387Y-45692402D01*
X542325001Y-45690000D01*
X541950000Y-45690000D01*
X541950000Y-44814999D01*
X541947598Y-44790613D01*
X541940485Y-44767164D01*
X541928934Y-44745553D01*
X541913389Y-44726611D01*
X541894447Y-44711066D01*
X541872836Y-44699515D01*
X541849387Y-44692402D01*
X541825001Y-44690000D01*
X541350000Y-44690000D01*
X541350000Y-43790000D01*
X542025001Y-43790000D01*
X542049387Y-43787598D01*
X542072836Y-43780485D01*
X542094447Y-43768934D01*
X542113389Y-43753389D01*
X542128934Y-43734447D01*
X542140485Y-43712836D01*
X542147598Y-43689387D01*
X542150000Y-43665001D01*
X542150000Y-42940000D01*
X542325001Y-42940000D01*
X542349387Y-42937598D01*
X542372836Y-42930485D01*
X542394447Y-42918934D01*
X542413389Y-42903389D01*
X542428934Y-42884447D01*
X542440485Y-42862836D01*
X542447598Y-42839387D01*
X542450000Y-42815001D01*
X542450000Y-42350000D01*
X543450000Y-42350000D01*
X543450000Y-42815001D01*
X543450000Y-42815001D01*
G37*
G36*
X537550000Y-26695001D02*
G01*
X537552402Y-26719387D01*
X537559515Y-26742836D01*
X537571066Y-26764447D01*
X537586611Y-26783389D01*
X537605553Y-26798934D01*
X537627164Y-26810485D01*
X537650613Y-26817598D01*
X537674999Y-26820000D01*
X537850000Y-26820000D01*
X537850000Y-27545001D01*
X537852402Y-27569387D01*
X537859515Y-27592836D01*
X537871066Y-27614447D01*
X537886611Y-27633389D01*
X537905553Y-27648934D01*
X537927164Y-27660485D01*
X537950613Y-27667598D01*
X537974999Y-27670000D01*
X538650000Y-27670000D01*
X538650000Y-28570000D01*
X538174999Y-28570000D01*
X538150613Y-28572402D01*
X538127164Y-28579515D01*
X538105553Y-28591066D01*
X538086611Y-28606611D01*
X538071066Y-28625553D01*
X538059515Y-28647164D01*
X538052402Y-28670613D01*
X538050000Y-28694999D01*
X538050000Y-29570000D01*
X537674999Y-29570000D01*
X537650613Y-29572402D01*
X537627164Y-29579515D01*
X537605553Y-29591066D01*
X537586611Y-29606611D01*
X537571066Y-29625553D01*
X537559515Y-29647164D01*
X537552402Y-29670613D01*
X537550000Y-29694999D01*
X537550000Y-30170000D01*
X536550000Y-30170000D01*
X536550000Y-29694999D01*
X536547598Y-29670613D01*
X536540485Y-29647164D01*
X536528934Y-29625553D01*
X536513389Y-29606611D01*
X536494447Y-29591066D01*
X536472836Y-29579515D01*
X536449387Y-29572402D01*
X536425001Y-29570000D01*
X536050000Y-29570000D01*
X536050000Y-28694999D01*
X536047598Y-28670613D01*
X536040485Y-28647164D01*
X536028934Y-28625553D01*
X536013389Y-28606611D01*
X535994447Y-28591066D01*
X535972836Y-28579515D01*
X535949387Y-28572402D01*
X535925001Y-28570000D01*
X535450000Y-28570000D01*
X535450000Y-27670000D01*
X536125001Y-27670000D01*
X536149387Y-27667598D01*
X536172836Y-27660485D01*
X536194447Y-27648934D01*
X536213389Y-27633389D01*
X536228934Y-27614447D01*
X536240485Y-27592836D01*
X536247598Y-27569387D01*
X536250000Y-27545001D01*
X536250000Y-26820000D01*
X536425001Y-26820000D01*
X536449387Y-26817598D01*
X536472836Y-26810485D01*
X536494447Y-26798934D01*
X536513389Y-26783389D01*
X536528934Y-26764447D01*
X536540485Y-26742836D01*
X536547598Y-26719387D01*
X536550000Y-26695001D01*
X536550000Y-26230000D01*
X537550000Y-26230000D01*
X537550000Y-26695001D01*
X537550000Y-26695001D01*
G37*
G36*
X574637517Y-26144946D02*
G01*
X574679908Y-26157805D01*
X574718973Y-26178686D01*
X574753214Y-26206786D01*
X574781314Y-26241027D01*
X574802195Y-26280092D01*
X574815054Y-26322483D01*
X574820000Y-26372703D01*
X574820000Y-29807297D01*
X574815054Y-29857517D01*
X574802195Y-29899908D01*
X574781314Y-29938973D01*
X574753214Y-29973214D01*
X574718973Y-30001314D01*
X574679908Y-30022195D01*
X574637517Y-30035054D01*
X574587297Y-30040000D01*
X573052703Y-30040000D01*
X573002483Y-30035054D01*
X572960092Y-30022195D01*
X572921027Y-30001314D01*
X572886786Y-29973214D01*
X572858686Y-29938973D01*
X572837805Y-29899908D01*
X572824946Y-29857517D01*
X572820000Y-29807297D01*
X572820000Y-26372703D01*
X572824946Y-26322483D01*
X572837805Y-26280092D01*
X572858686Y-26241027D01*
X572886786Y-26206786D01*
X572921027Y-26178686D01*
X572960092Y-26157805D01*
X573002483Y-26144946D01*
X573052703Y-26140000D01*
X574587297Y-26140000D01*
X574637517Y-26144946D01*
X574637517Y-26144946D01*
G37*
G36*
X559641715Y-24584544D02*
G01*
X560042089Y-24750384D01*
X560042091Y-24750385D01*
X560402418Y-24991148D01*
X560708852Y-25297582D01*
X560949616Y-25657911D01*
X561115456Y-26058285D01*
X561200000Y-26483318D01*
X561200000Y-26916682D01*
X561115456Y-27341715D01*
X561031252Y-27545001D01*
X560949615Y-27742091D01*
X560708852Y-28102418D01*
X560402418Y-28408852D01*
X560042091Y-28649615D01*
X560042090Y-28649616D01*
X560042089Y-28649616D01*
X559641715Y-28815456D01*
X559216682Y-28900000D01*
X558783318Y-28900000D01*
X558358285Y-28815456D01*
X557957911Y-28649616D01*
X557957910Y-28649616D01*
X557957909Y-28649615D01*
X557597582Y-28408852D01*
X557291148Y-28102418D01*
X557050385Y-27742091D01*
X556968748Y-27545001D01*
X556884544Y-27341715D01*
X556800000Y-26916682D01*
X556800000Y-26483318D01*
X556884544Y-26058285D01*
X557050384Y-25657911D01*
X557291148Y-25297582D01*
X557597582Y-24991148D01*
X557957909Y-24750385D01*
X557957911Y-24750384D01*
X558358285Y-24584544D01*
X558783318Y-24500000D01*
X559216682Y-24500000D01*
X559641715Y-24584544D01*
X559641715Y-24584544D01*
G37*
G36*
X574637517Y-20544946D02*
G01*
X574679908Y-20557805D01*
X574718973Y-20578686D01*
X574753214Y-20606786D01*
X574781314Y-20641027D01*
X574802195Y-20680092D01*
X574815054Y-20722483D01*
X574820000Y-20772703D01*
X574820000Y-24207297D01*
X574815054Y-24257517D01*
X574802195Y-24299908D01*
X574781314Y-24338973D01*
X574753214Y-24373214D01*
X574718973Y-24401314D01*
X574679908Y-24422195D01*
X574637517Y-24435054D01*
X574587297Y-24440000D01*
X573052703Y-24440000D01*
X573002483Y-24435054D01*
X572960092Y-24422195D01*
X572921027Y-24401314D01*
X572886786Y-24373214D01*
X572858686Y-24338973D01*
X572837805Y-24299908D01*
X572824946Y-24257517D01*
X572820000Y-24207297D01*
X572820000Y-20772703D01*
X572824946Y-20722483D01*
X572837805Y-20680092D01*
X572858686Y-20641027D01*
X572886786Y-20606786D01*
X572921027Y-20578686D01*
X572960092Y-20557805D01*
X573002483Y-20544946D01*
X573052703Y-20540000D01*
X574587297Y-20540000D01*
X574637517Y-20544946D01*
X574637517Y-20544946D01*
G37*
G36*
X580020000Y-22065000D02*
G01*
X578820000Y-22065000D01*
X578820000Y-20415000D01*
X580020000Y-20415000D01*
X580020000Y-22065000D01*
X580020000Y-22065000D01*
G37*
G36*
X570989628Y-18030893D02*
G01*
X571037354Y-18045371D01*
X571081332Y-18068877D01*
X571119884Y-18100516D01*
X571151523Y-18139068D01*
X571175029Y-18183046D01*
X571189507Y-18230772D01*
X571195000Y-18286541D01*
X571195000Y-19914259D01*
X571189507Y-19970028D01*
X571175029Y-20017754D01*
X571151523Y-20061732D01*
X571119884Y-20100284D01*
X571081332Y-20131923D01*
X571037354Y-20155429D01*
X570989628Y-20169907D01*
X570933859Y-20175400D01*
X569806141Y-20175400D01*
X569750372Y-20169907D01*
X569702646Y-20155429D01*
X569658668Y-20131923D01*
X569620116Y-20100284D01*
X569588477Y-20061732D01*
X569564971Y-20017754D01*
X569550493Y-19970028D01*
X569545000Y-19914259D01*
X569545000Y-18286541D01*
X569550493Y-18230772D01*
X569564971Y-18183046D01*
X569588477Y-18139068D01*
X569620116Y-18100516D01*
X569658668Y-18068877D01*
X569702646Y-18045371D01*
X569750372Y-18030893D01*
X569806141Y-18025400D01*
X570933859Y-18025400D01*
X570989628Y-18030893D01*
X570989628Y-18030893D01*
G37*
G36*
X573789628Y-18030893D02*
G01*
X573837354Y-18045371D01*
X573881332Y-18068877D01*
X573919884Y-18100516D01*
X573951523Y-18139068D01*
X573975029Y-18183046D01*
X573989507Y-18230772D01*
X573995000Y-18286541D01*
X573995000Y-18832067D01*
X573997402Y-18856453D01*
X574004515Y-18879902D01*
X574016066Y-18901513D01*
X574031611Y-18920455D01*
X574050553Y-18936000D01*
X574072164Y-18947551D01*
X574095613Y-18954664D01*
X574119999Y-18957066D01*
X574144385Y-18954664D01*
X574167834Y-18947551D01*
X574189445Y-18936000D01*
X574216624Y-18911366D01*
X574230480Y-18894482D01*
X574269222Y-18862688D01*
X574313415Y-18839066D01*
X574361378Y-18824517D01*
X574417391Y-18819000D01*
X575167609Y-18819000D01*
X575223622Y-18824517D01*
X575271585Y-18839066D01*
X575315778Y-18862688D01*
X575354519Y-18894481D01*
X575386312Y-18933222D01*
X575409934Y-18977415D01*
X575424483Y-19025378D01*
X575430000Y-19081391D01*
X575430000Y-19906609D01*
X575424483Y-19962622D01*
X575409934Y-20010585D01*
X575386312Y-20054778D01*
X575354519Y-20093519D01*
X575315778Y-20125312D01*
X575271585Y-20148934D01*
X575223622Y-20163483D01*
X575167609Y-20169000D01*
X574417391Y-20169000D01*
X574361378Y-20163483D01*
X574313415Y-20148934D01*
X574269222Y-20125312D01*
X574230481Y-20093519D01*
X574198689Y-20054780D01*
X574187203Y-20033291D01*
X574173589Y-20012917D01*
X574156262Y-19995590D01*
X574135887Y-19981976D01*
X574113249Y-19972599D01*
X574089215Y-19967819D01*
X574064711Y-19967819D01*
X574040678Y-19972600D01*
X574018039Y-19981977D01*
X573997665Y-19995591D01*
X573980338Y-20012918D01*
X573966724Y-20033293D01*
X573951523Y-20061732D01*
X573919884Y-20100284D01*
X573881332Y-20131923D01*
X573837354Y-20155429D01*
X573789628Y-20169907D01*
X573733859Y-20175400D01*
X572606141Y-20175400D01*
X572550372Y-20169907D01*
X572502646Y-20155429D01*
X572458668Y-20131923D01*
X572420116Y-20100284D01*
X572388477Y-20061732D01*
X572364971Y-20017754D01*
X572350493Y-19970028D01*
X572345000Y-19914259D01*
X572345000Y-18286541D01*
X572350493Y-18230772D01*
X572364971Y-18183046D01*
X572388477Y-18139068D01*
X572420116Y-18100516D01*
X572458668Y-18068877D01*
X572502646Y-18045371D01*
X572550372Y-18030893D01*
X572606141Y-18025400D01*
X573733859Y-18025400D01*
X573789628Y-18030893D01*
X573789628Y-18030893D01*
G37*
G36*
X576798622Y-18824517D02*
G01*
X576846585Y-18839066D01*
X576890778Y-18862688D01*
X576929519Y-18894481D01*
X576961312Y-18933222D01*
X576984934Y-18977415D01*
X576999483Y-19025378D01*
X577005000Y-19081391D01*
X577005000Y-19906609D01*
X576999483Y-19962622D01*
X576984934Y-20010585D01*
X576961312Y-20054778D01*
X576929519Y-20093519D01*
X576890778Y-20125312D01*
X576846585Y-20148934D01*
X576798622Y-20163483D01*
X576742609Y-20169000D01*
X575992391Y-20169000D01*
X575936378Y-20163483D01*
X575888415Y-20148934D01*
X575844222Y-20125312D01*
X575805481Y-20093519D01*
X575773688Y-20054778D01*
X575750066Y-20010585D01*
X575735517Y-19962622D01*
X575730000Y-19906609D01*
X575730000Y-19081391D01*
X575735517Y-19025378D01*
X575750066Y-18977415D01*
X575773688Y-18933222D01*
X575805481Y-18894481D01*
X575844222Y-18862688D01*
X575888415Y-18839066D01*
X575936378Y-18824517D01*
X575992391Y-18819000D01*
X576742609Y-18819000D01*
X576798622Y-18824517D01*
X576798622Y-18824517D01*
G37*
G36*
X581378000Y-17356000D02*
G01*
X580144999Y-17356000D01*
X580120613Y-17358402D01*
X580097164Y-17365515D01*
X580075553Y-17377066D01*
X580056611Y-17392611D01*
X580041066Y-17411553D01*
X580029515Y-17433164D01*
X580022402Y-17456613D01*
X580020000Y-17480999D01*
X580020000Y-18765000D01*
X578820000Y-18765000D01*
X578820000Y-17480999D01*
X578817598Y-17456613D01*
X578810485Y-17433164D01*
X578798934Y-17411553D01*
X578783389Y-17392611D01*
X578764447Y-17377066D01*
X578742836Y-17365515D01*
X578719387Y-17358402D01*
X578695001Y-17356000D01*
X575878000Y-17356000D01*
X575878000Y-14606000D01*
X581378000Y-14606000D01*
X581378000Y-17356000D01*
X581378000Y-17356000D01*
G37*
G36*
X571889628Y-11070493D02*
G01*
X571937354Y-11084971D01*
X571981332Y-11108477D01*
X572019884Y-11140116D01*
X572051523Y-11178668D01*
X572075029Y-11222646D01*
X572089507Y-11270372D01*
X572095000Y-11326141D01*
X572095000Y-12453859D01*
X572089507Y-12509628D01*
X572075029Y-12557354D01*
X572051521Y-12601336D01*
X572019214Y-12640702D01*
X572005600Y-12661077D01*
X571996222Y-12683716D01*
X571991442Y-12707749D01*
X571991442Y-12732253D01*
X571996222Y-12756286D01*
X572005600Y-12778925D01*
X572019213Y-12799299D01*
X572036540Y-12816626D01*
X572056915Y-12830240D01*
X572079554Y-12839618D01*
X572103587Y-12844398D01*
X572115839Y-12845000D01*
X572310000Y-12845000D01*
X572310000Y-13925001D01*
X572312402Y-13949387D01*
X572319515Y-13972836D01*
X572331066Y-13994447D01*
X572346611Y-14013389D01*
X572365553Y-14028934D01*
X572387164Y-14040485D01*
X572410613Y-14047598D01*
X572434999Y-14050000D01*
X572605001Y-14050000D01*
X572629387Y-14047598D01*
X572652836Y-14040485D01*
X572674447Y-14028934D01*
X572693389Y-14013389D01*
X572708934Y-13994447D01*
X572720485Y-13972836D01*
X572727598Y-13949387D01*
X572730000Y-13925001D01*
X572730000Y-12845000D01*
X573810000Y-12845000D01*
X573810000Y-14445000D01*
X572844999Y-14445000D01*
X572820613Y-14447402D01*
X572797164Y-14454515D01*
X572775553Y-14466066D01*
X572756611Y-14481611D01*
X572741066Y-14500553D01*
X572729515Y-14522164D01*
X572722402Y-14545613D01*
X572720000Y-14569999D01*
X572720000Y-16020001D01*
X572722402Y-16044387D01*
X572729515Y-16067836D01*
X572741066Y-16089447D01*
X572756611Y-16108389D01*
X572775553Y-16123934D01*
X572797164Y-16135485D01*
X572820613Y-16142598D01*
X572844999Y-16145000D01*
X573810000Y-16145000D01*
X573810000Y-17745000D01*
X572844999Y-17745000D01*
X572820613Y-17747402D01*
X572812048Y-17750000D01*
X570727952Y-17750000D01*
X570719387Y-17747402D01*
X570695001Y-17745000D01*
X569730000Y-17745000D01*
X569730000Y-16145000D01*
X570695001Y-16145000D01*
X570719387Y-16142598D01*
X570742836Y-16135485D01*
X570764447Y-16123934D01*
X570783389Y-16108389D01*
X570798934Y-16089447D01*
X570810485Y-16067836D01*
X570817598Y-16044387D01*
X570820000Y-16020001D01*
X570820000Y-14569999D01*
X570817598Y-14545613D01*
X570810485Y-14522164D01*
X570798934Y-14500553D01*
X570783389Y-14481611D01*
X570764447Y-14466066D01*
X570742836Y-14454515D01*
X570719387Y-14447402D01*
X570695001Y-14445000D01*
X569730000Y-14445000D01*
X569730000Y-12845000D01*
X569924161Y-12845000D01*
X569948547Y-12842598D01*
X569957114Y-12839999D01*
X570810000Y-12839999D01*
X570810000Y-13925001D01*
X570812402Y-13949387D01*
X570819515Y-13972836D01*
X570831066Y-13994447D01*
X570846611Y-14013389D01*
X570865553Y-14028934D01*
X570887164Y-14040485D01*
X570910613Y-14047598D01*
X570934999Y-14050000D01*
X571105001Y-14050000D01*
X571129387Y-14047598D01*
X571152836Y-14040485D01*
X571174447Y-14028934D01*
X571193389Y-14013389D01*
X571208934Y-13994447D01*
X571220485Y-13972836D01*
X571227598Y-13949387D01*
X571230000Y-13925001D01*
X571230000Y-12839999D01*
X571227598Y-12815613D01*
X571220485Y-12792164D01*
X571208934Y-12770553D01*
X571193389Y-12751611D01*
X571174447Y-12736066D01*
X571152836Y-12724515D01*
X571129387Y-12717402D01*
X571105001Y-12715000D01*
X570934999Y-12715000D01*
X570910613Y-12717402D01*
X570887164Y-12724515D01*
X570865553Y-12736066D01*
X570846611Y-12751611D01*
X570831066Y-12770553D01*
X570819515Y-12792164D01*
X570812402Y-12815613D01*
X570810000Y-12839999D01*
X569957114Y-12839999D01*
X569971996Y-12835485D01*
X569993607Y-12823934D01*
X570012549Y-12808389D01*
X570028094Y-12789447D01*
X570039645Y-12767836D01*
X570046758Y-12744387D01*
X570049160Y-12720001D01*
X570046758Y-12695615D01*
X570039645Y-12672166D01*
X570028094Y-12650555D01*
X570020786Y-12640702D01*
X569988479Y-12601336D01*
X569964971Y-12557354D01*
X569950493Y-12509628D01*
X569945000Y-12453859D01*
X569945000Y-11326141D01*
X569950493Y-11270372D01*
X569964971Y-11222646D01*
X569988477Y-11178668D01*
X570020116Y-11140116D01*
X570058668Y-11108477D01*
X570102646Y-11084971D01*
X570150372Y-11070493D01*
X570206141Y-11065000D01*
X571833859Y-11065000D01*
X571889628Y-11070493D01*
X571889628Y-11070493D01*
G37*
G36*
X569083628Y-15753293D02*
G01*
X569131354Y-15767771D01*
X569175332Y-15791277D01*
X569213884Y-15822916D01*
X569245523Y-15861468D01*
X569269029Y-15905446D01*
X569283507Y-15953172D01*
X569289000Y-16008941D01*
X569289000Y-17136659D01*
X569283507Y-17192428D01*
X569269029Y-17240154D01*
X569245523Y-17284132D01*
X569213884Y-17322684D01*
X569175332Y-17354323D01*
X569131354Y-17377829D01*
X569083628Y-17392307D01*
X569027859Y-17397800D01*
X567400141Y-17397800D01*
X567344372Y-17392307D01*
X567296646Y-17377829D01*
X567252668Y-17354323D01*
X567214116Y-17322684D01*
X567182477Y-17284132D01*
X567158971Y-17240154D01*
X567144493Y-17192428D01*
X567139000Y-17136659D01*
X567139000Y-16008941D01*
X567144493Y-15953172D01*
X567158971Y-15905446D01*
X567182477Y-15861468D01*
X567214116Y-15822916D01*
X567252668Y-15791277D01*
X567296646Y-15767771D01*
X567344372Y-15753293D01*
X567400141Y-15747800D01*
X569027859Y-15747800D01*
X569083628Y-15753293D01*
X569083628Y-15753293D01*
G37*
G36*
X569083628Y-12953293D02*
G01*
X569131354Y-12967771D01*
X569175332Y-12991277D01*
X569213884Y-13022916D01*
X569245523Y-13061468D01*
X569269029Y-13105446D01*
X569283507Y-13153172D01*
X569289000Y-13208941D01*
X569289000Y-14336659D01*
X569283507Y-14392428D01*
X569269029Y-14440154D01*
X569245523Y-14484132D01*
X569213884Y-14522684D01*
X569175332Y-14554323D01*
X569131354Y-14577829D01*
X569083628Y-14592307D01*
X569027859Y-14597800D01*
X567400141Y-14597800D01*
X567344372Y-14592307D01*
X567296646Y-14577829D01*
X567252668Y-14554323D01*
X567214116Y-14522684D01*
X567182477Y-14484132D01*
X567158971Y-14440154D01*
X567144493Y-14392428D01*
X567139000Y-14336659D01*
X567139000Y-13208941D01*
X567144493Y-13153172D01*
X567158971Y-13105446D01*
X567182477Y-13061468D01*
X567214116Y-13022916D01*
X567252668Y-12991277D01*
X567296646Y-12967771D01*
X567344372Y-12953293D01*
X567400141Y-12947800D01*
X569027859Y-12947800D01*
X569083628Y-12953293D01*
X569083628Y-12953293D01*
G37*
G36*
X531890000Y-10505001D02*
G01*
X531892402Y-10529387D01*
X531899515Y-10552836D01*
X531911066Y-10574447D01*
X531926611Y-10593389D01*
X531945553Y-10608934D01*
X531967164Y-10620485D01*
X531990613Y-10627598D01*
X532014999Y-10630000D01*
X532190000Y-10630000D01*
X532190000Y-11355001D01*
X532192402Y-11379387D01*
X532199515Y-11402836D01*
X532211066Y-11424447D01*
X532226611Y-11443389D01*
X532245553Y-11458934D01*
X532267164Y-11470485D01*
X532290613Y-11477598D01*
X532314999Y-11480000D01*
X532990000Y-11480000D01*
X532990000Y-12380000D01*
X532514999Y-12380000D01*
X532490613Y-12382402D01*
X532467164Y-12389515D01*
X532445553Y-12401066D01*
X532426611Y-12416611D01*
X532411066Y-12435553D01*
X532399515Y-12457164D01*
X532392402Y-12480613D01*
X532390000Y-12504999D01*
X532390000Y-13380000D01*
X532014999Y-13380000D01*
X531990613Y-13382402D01*
X531967164Y-13389515D01*
X531945553Y-13401066D01*
X531926611Y-13416611D01*
X531911066Y-13435553D01*
X531899515Y-13457164D01*
X531892402Y-13480613D01*
X531890000Y-13504999D01*
X531890000Y-13980000D01*
X530890000Y-13980000D01*
X530890000Y-13504999D01*
X530887598Y-13480613D01*
X530880485Y-13457164D01*
X530868934Y-13435553D01*
X530853389Y-13416611D01*
X530834447Y-13401066D01*
X530812836Y-13389515D01*
X530789387Y-13382402D01*
X530765001Y-13380000D01*
X530390000Y-13380000D01*
X530390000Y-12504999D01*
X530387598Y-12480613D01*
X530380485Y-12457164D01*
X530368934Y-12435553D01*
X530353389Y-12416611D01*
X530334447Y-12401066D01*
X530312836Y-12389515D01*
X530289387Y-12382402D01*
X530265001Y-12380000D01*
X529790000Y-12380000D01*
X529790000Y-11480000D01*
X530465001Y-11480000D01*
X530489387Y-11477598D01*
X530512836Y-11470485D01*
X530534447Y-11458934D01*
X530553389Y-11443389D01*
X530568934Y-11424447D01*
X530580485Y-11402836D01*
X530587598Y-11379387D01*
X530590000Y-11355001D01*
X530590000Y-10630000D01*
X530765001Y-10630000D01*
X530789387Y-10627598D01*
X530812836Y-10620485D01*
X530834447Y-10608934D01*
X530853389Y-10593389D01*
X530868934Y-10574447D01*
X530880485Y-10552836D01*
X530887598Y-10529387D01*
X530890000Y-10505001D01*
X530890000Y-10040000D01*
X531890000Y-10040000D01*
X531890000Y-10505001D01*
X531890000Y-10505001D01*
G37*
G36*
X581378000Y-13206000D02*
G01*
X575878000Y-13206000D01*
X575878000Y-10456000D01*
X581378000Y-10456000D01*
X581378000Y-13206000D01*
X581378000Y-13206000D01*
G37*
G36*
X571889628Y-8270493D02*
G01*
X571937354Y-8284971D01*
X571981332Y-8308477D01*
X572019884Y-8340116D01*
X572051523Y-8378668D01*
X572075029Y-8422646D01*
X572089507Y-8470372D01*
X572095000Y-8526141D01*
X572095000Y-9653859D01*
X572089507Y-9709628D01*
X572075029Y-9757354D01*
X572051523Y-9801332D01*
X572019884Y-9839884D01*
X571981332Y-9871523D01*
X571937354Y-9895029D01*
X571889628Y-9909507D01*
X571833859Y-9915000D01*
X570206141Y-9915000D01*
X570150372Y-9909507D01*
X570102646Y-9895029D01*
X570058668Y-9871523D01*
X570020116Y-9839884D01*
X569988477Y-9801332D01*
X569964971Y-9757354D01*
X569950493Y-9709628D01*
X569945000Y-9653859D01*
X569945000Y-8526141D01*
X569950493Y-8470372D01*
X569964971Y-8422646D01*
X569988477Y-8378668D01*
X570020116Y-8340116D01*
X570058668Y-8308477D01*
X570102646Y-8284971D01*
X570150372Y-8270493D01*
X570206141Y-8265000D01*
X571833859Y-8265000D01*
X571889628Y-8270493D01*
X571889628Y-8270493D01*
G37*
G36*
X565433517Y-620946D02*
G01*
X565475908Y-633805D01*
X565514973Y-654686D01*
X565549214Y-682786D01*
X565577314Y-717027D01*
X565598195Y-756092D01*
X565611054Y-798483D01*
X565616000Y-848703D01*
X565616000Y-4283297D01*
X565611054Y-4333517D01*
X565598195Y-4375908D01*
X565577314Y-4414973D01*
X565549214Y-4449214D01*
X565514973Y-4477314D01*
X565475908Y-4498195D01*
X565433517Y-4511054D01*
X565383297Y-4516000D01*
X563848703Y-4516000D01*
X563798483Y-4511054D01*
X563756092Y-4498195D01*
X563717027Y-4477314D01*
X563682786Y-4449214D01*
X563654686Y-4414973D01*
X563633805Y-4375908D01*
X563620946Y-4333517D01*
X563616000Y-4283297D01*
X563616000Y-848703D01*
X563620946Y-798483D01*
X563633805Y-756092D01*
X563654686Y-717027D01*
X563682786Y-682786D01*
X563717027Y-654686D01*
X563756092Y-633805D01*
X563798483Y-620946D01*
X563848703Y-616000D01*
X565383297Y-616000D01*
X565433517Y-620946D01*
X565433517Y-620946D01*
G37*
G36*
X565361484Y5030555D02*
G01*
X565377029Y5011613D01*
X565395971Y4996068D01*
X565417582Y4984517D01*
X565429132Y4980384D01*
X565475908Y4966195D01*
X565514973Y4945314D01*
X565549214Y4917214D01*
X565577314Y4882973D01*
X565598195Y4843908D01*
X565611054Y4801517D01*
X565616000Y4751297D01*
X565616000Y1316703D01*
X565611054Y1266483D01*
X565598195Y1224092D01*
X565577314Y1185027D01*
X565549214Y1150786D01*
X565514973Y1122686D01*
X565475908Y1101805D01*
X565433517Y1088946D01*
X565383297Y1084000D01*
X563848703Y1084000D01*
X563798483Y1088946D01*
X563756092Y1101805D01*
X563717027Y1122686D01*
X563682786Y1150786D01*
X563654686Y1185027D01*
X563633805Y1224092D01*
X563620946Y1266483D01*
X563616000Y1316703D01*
X563616000Y4751297D01*
X563620946Y4801517D01*
X563633805Y4843908D01*
X563654686Y4882973D01*
X563682786Y4917214D01*
X563717027Y4945314D01*
X563756092Y4966195D01*
X563798483Y4979054D01*
X563848703Y4984000D01*
X565251360Y4984000D01*
X565275746Y4986402D01*
X565299195Y4993515D01*
X565320806Y5005066D01*
X565339748Y5020611D01*
X565355293Y5039553D01*
X565355984Y5040845D01*
X565361484Y5030555D01*
X565361484Y5030555D01*
G37*
G36*
X526470000Y5784999D02*
G01*
X526472402Y5760613D01*
X526479515Y5737164D01*
X526491066Y5715553D01*
X526506611Y5696611D01*
X526525553Y5681066D01*
X526547164Y5669515D01*
X526570613Y5662402D01*
X526594999Y5660000D01*
X526770000Y5660000D01*
X526770000Y4934999D01*
X526772402Y4910613D01*
X526779515Y4887164D01*
X526791066Y4865553D01*
X526806611Y4846611D01*
X526825553Y4831066D01*
X526847164Y4819515D01*
X526870613Y4812402D01*
X526894999Y4810000D01*
X527570000Y4810000D01*
X527570000Y3910000D01*
X527094999Y3910000D01*
X527070613Y3907598D01*
X527047164Y3900485D01*
X527025553Y3888934D01*
X527006611Y3873389D01*
X526991066Y3854447D01*
X526979515Y3832836D01*
X526972402Y3809387D01*
X526970000Y3785001D01*
X526970000Y2910000D01*
X526594999Y2910000D01*
X526570613Y2907598D01*
X526547164Y2900485D01*
X526525553Y2888934D01*
X526506611Y2873389D01*
X526491066Y2854447D01*
X526479515Y2832836D01*
X526472402Y2809387D01*
X526470000Y2785001D01*
X526470000Y2310000D01*
X525470000Y2310000D01*
X525470000Y2785001D01*
X525467598Y2809387D01*
X525460485Y2832836D01*
X525448934Y2854447D01*
X525433389Y2873389D01*
X525414447Y2888934D01*
X525392836Y2900485D01*
X525369387Y2907598D01*
X525345001Y2910000D01*
X524970000Y2910000D01*
X524970000Y3785001D01*
X524967598Y3809387D01*
X524960485Y3832836D01*
X524948934Y3854447D01*
X524933389Y3873389D01*
X524914447Y3888934D01*
X524892836Y3900485D01*
X524869387Y3907598D01*
X524845001Y3910000D01*
X524370000Y3910000D01*
X524370000Y4810000D01*
X525045001Y4810000D01*
X525069387Y4812402D01*
X525092836Y4819515D01*
X525114447Y4831066D01*
X525133389Y4846611D01*
X525148934Y4865553D01*
X525160485Y4887164D01*
X525167598Y4910613D01*
X525170000Y4934999D01*
X525170000Y5660000D01*
X525345001Y5660000D01*
X525369387Y5662402D01*
X525392836Y5669515D01*
X525414447Y5681066D01*
X525433389Y5696611D01*
X525448934Y5715553D01*
X525460485Y5737164D01*
X525467598Y5760613D01*
X525470000Y5784999D01*
X525470000Y6250000D01*
X526470000Y6250000D01*
X526470000Y5784999D01*
X526470000Y5784999D01*
G37*
G36*
X571016000Y3359000D02*
G01*
X569816000Y3359000D01*
X569816000Y5009000D01*
X571016000Y5009000D01*
X571016000Y3359000D01*
X571016000Y3359000D01*
G37*
G36*
X564695628Y7403507D02*
G01*
X564743354Y7389029D01*
X564787332Y7365523D01*
X564825884Y7333884D01*
X564857523Y7295332D01*
X564881029Y7251354D01*
X564895507Y7203628D01*
X564901000Y7147859D01*
X564901000Y6544874D01*
X564903402Y6520488D01*
X564910515Y6497039D01*
X564922066Y6475428D01*
X564937611Y6456486D01*
X564956553Y6440941D01*
X564978164Y6429390D01*
X565001613Y6422277D01*
X565025999Y6419875D01*
X565050385Y6422277D01*
X565073834Y6429390D01*
X565095445Y6440941D01*
X565122624Y6465575D01*
X565150481Y6499518D01*
X565189222Y6531312D01*
X565233415Y6554934D01*
X565281378Y6569483D01*
X565337391Y6575000D01*
X566087609Y6575000D01*
X566143622Y6569483D01*
X566191585Y6554934D01*
X566235778Y6531312D01*
X566274519Y6499519D01*
X566306312Y6460778D01*
X566329934Y6416585D01*
X566344483Y6368622D01*
X566350000Y6312609D01*
X566350000Y5487391D01*
X566344483Y5431378D01*
X566329934Y5383415D01*
X566306312Y5339222D01*
X566274519Y5300481D01*
X566235778Y5268688D01*
X566191585Y5245066D01*
X566143622Y5230517D01*
X566087609Y5225000D01*
X565465417Y5225000D01*
X565441031Y5222598D01*
X565417582Y5215485D01*
X565395971Y5203934D01*
X565377029Y5188389D01*
X565361484Y5169447D01*
X565360793Y5168155D01*
X565355293Y5178445D01*
X565339748Y5197387D01*
X565320806Y5212932D01*
X565299195Y5224483D01*
X565287645Y5228616D01*
X565233415Y5245066D01*
X565189222Y5268688D01*
X565150481Y5300481D01*
X565118691Y5339218D01*
X565089407Y5394005D01*
X565075793Y5414379D01*
X565058466Y5431706D01*
X565038092Y5445320D01*
X565015453Y5454697D01*
X564991420Y5459478D01*
X564966916Y5459478D01*
X564942882Y5454698D01*
X564920243Y5445321D01*
X564899869Y5431707D01*
X564882542Y5414380D01*
X564868927Y5394003D01*
X564857524Y5372669D01*
X564825884Y5334116D01*
X564787332Y5302477D01*
X564743354Y5278971D01*
X564695628Y5264493D01*
X564639859Y5259000D01*
X563512141Y5259000D01*
X563456372Y5264493D01*
X563408646Y5278971D01*
X563364668Y5302477D01*
X563326116Y5334116D01*
X563294477Y5372668D01*
X563270971Y5416646D01*
X563256493Y5464372D01*
X563251000Y5520141D01*
X563251000Y7147859D01*
X563256493Y7203628D01*
X563270971Y7251354D01*
X563294477Y7295332D01*
X563326116Y7333884D01*
X563364668Y7365523D01*
X563408646Y7389029D01*
X563456372Y7403507D01*
X563512141Y7409000D01*
X564639859Y7409000D01*
X564695628Y7403507D01*
X564695628Y7403507D01*
G37*
G36*
X567718622Y6569483D02*
G01*
X567766585Y6554934D01*
X567810778Y6531312D01*
X567849519Y6499519D01*
X567881312Y6460778D01*
X567904934Y6416585D01*
X567919483Y6368622D01*
X567925000Y6312609D01*
X567925000Y5487391D01*
X567919483Y5431378D01*
X567904934Y5383415D01*
X567881312Y5339222D01*
X567849519Y5300481D01*
X567810778Y5268688D01*
X567766585Y5245066D01*
X567718622Y5230517D01*
X567662609Y5225000D01*
X566912391Y5225000D01*
X566856378Y5230517D01*
X566808415Y5245066D01*
X566764222Y5268688D01*
X566725481Y5300481D01*
X566693688Y5339222D01*
X566670066Y5383415D01*
X566655517Y5431378D01*
X566650000Y5487391D01*
X566650000Y6312609D01*
X566655517Y6368622D01*
X566670066Y6416585D01*
X566693688Y6460778D01*
X566725481Y6499519D01*
X566764222Y6531312D01*
X566808415Y6554934D01*
X566856378Y6569483D01*
X566912391Y6575000D01*
X567662609Y6575000D01*
X567718622Y6569483D01*
X567718622Y6569483D01*
G37*
G36*
X561895628Y7403507D02*
G01*
X561943354Y7389029D01*
X561987332Y7365523D01*
X562025884Y7333884D01*
X562057523Y7295332D01*
X562081029Y7251354D01*
X562095507Y7203628D01*
X562101000Y7147859D01*
X562101000Y5520141D01*
X562095507Y5464372D01*
X562081029Y5416646D01*
X562057523Y5372668D01*
X562025884Y5334116D01*
X561987332Y5302477D01*
X561943354Y5278971D01*
X561895628Y5264493D01*
X561839859Y5259000D01*
X560712141Y5259000D01*
X560656372Y5264493D01*
X560608646Y5278971D01*
X560564668Y5302477D01*
X560526116Y5334116D01*
X560494477Y5372668D01*
X560470971Y5416646D01*
X560456493Y5464372D01*
X560451000Y5520141D01*
X560451000Y7147859D01*
X560456493Y7203628D01*
X560470971Y7251354D01*
X560494477Y7295332D01*
X560526116Y7333884D01*
X560564668Y7365523D01*
X560608646Y7389029D01*
X560656372Y7403507D01*
X560712141Y7409000D01*
X561839859Y7409000D01*
X561895628Y7403507D01*
X561895628Y7403507D01*
G37*
G36*
X572266000Y8149000D02*
G01*
X571140999Y8149000D01*
X571116613Y8146598D01*
X571093164Y8139485D01*
X571071553Y8127934D01*
X571052611Y8112389D01*
X571037066Y8093447D01*
X571025515Y8071836D01*
X571018402Y8048387D01*
X571016000Y8024001D01*
X571016000Y6659000D01*
X569816000Y6659000D01*
X569816000Y8024001D01*
X569813598Y8048387D01*
X569806485Y8071836D01*
X569794934Y8093447D01*
X569779389Y8112389D01*
X569760447Y8127934D01*
X569738836Y8139485D01*
X569715387Y8146598D01*
X569691001Y8149000D01*
X566766000Y8149000D01*
X566766000Y10899000D01*
X572266000Y10899000D01*
X572266000Y8149000D01*
X572266000Y8149000D01*
G37*
G36*
X562759628Y14347507D02*
G01*
X562807354Y14333029D01*
X562851332Y14309523D01*
X562889884Y14277884D01*
X562921523Y14239332D01*
X562945029Y14195354D01*
X562959507Y14147628D01*
X562965000Y14091859D01*
X562965000Y12964141D01*
X562959507Y12908372D01*
X562945029Y12860646D01*
X562921521Y12816664D01*
X562894138Y12783298D01*
X562880524Y12762923D01*
X562871147Y12740285D01*
X562866366Y12716251D01*
X562866366Y12691747D01*
X562871146Y12667714D01*
X562880524Y12645075D01*
X562894137Y12624701D01*
X562911464Y12607374D01*
X562931839Y12593760D01*
X562954477Y12584383D01*
X562978511Y12579602D01*
X562990763Y12579000D01*
X563346000Y12579000D01*
X563346000Y11498999D01*
X563348402Y11474613D01*
X563355515Y11451164D01*
X563367066Y11429553D01*
X563382611Y11410611D01*
X563401553Y11395066D01*
X563423164Y11383515D01*
X563446613Y11376402D01*
X563470999Y11374000D01*
X563641001Y11374000D01*
X563665387Y11376402D01*
X563688836Y11383515D01*
X563710447Y11395066D01*
X563729389Y11410611D01*
X563744934Y11429553D01*
X563756485Y11451164D01*
X563763598Y11474613D01*
X563766000Y11498999D01*
X563766000Y12579000D01*
X564846000Y12579000D01*
X564846000Y10979000D01*
X563880999Y10979000D01*
X563856613Y10976598D01*
X563833164Y10969485D01*
X563811553Y10957934D01*
X563792611Y10942389D01*
X563777066Y10923447D01*
X563765515Y10901836D01*
X563758402Y10878387D01*
X563756000Y10854001D01*
X563756000Y9403999D01*
X563758402Y9379613D01*
X563765515Y9356164D01*
X563777066Y9334553D01*
X563792611Y9315611D01*
X563811553Y9300066D01*
X563833164Y9288515D01*
X563856613Y9281402D01*
X563880999Y9279000D01*
X564846000Y9279000D01*
X564846000Y7679000D01*
X563880999Y7679000D01*
X563856613Y7676598D01*
X563848048Y7674000D01*
X561763952Y7674000D01*
X561755387Y7676598D01*
X561731001Y7679000D01*
X560766000Y7679000D01*
X560766000Y9279000D01*
X561731001Y9279000D01*
X561755387Y9281402D01*
X561778836Y9288515D01*
X561800447Y9300066D01*
X561819389Y9315611D01*
X561834934Y9334553D01*
X561846485Y9356164D01*
X561853598Y9379613D01*
X561856000Y9403999D01*
X561856000Y10854001D01*
X561853598Y10878387D01*
X561846485Y10901836D01*
X561834934Y10923447D01*
X561819389Y10942389D01*
X561800447Y10957934D01*
X561778836Y10969485D01*
X561755387Y10976598D01*
X561731001Y10979000D01*
X560766000Y10979000D01*
X560766000Y12578001D01*
X561846000Y12578001D01*
X561846000Y11498999D01*
X561848402Y11474613D01*
X561855515Y11451164D01*
X561867066Y11429553D01*
X561882611Y11410611D01*
X561901553Y11395066D01*
X561923164Y11383515D01*
X561946613Y11376402D01*
X561970999Y11374000D01*
X562141001Y11374000D01*
X562165387Y11376402D01*
X562188836Y11383515D01*
X562210447Y11395066D01*
X562229389Y11410611D01*
X562244934Y11429553D01*
X562256485Y11451164D01*
X562263598Y11474613D01*
X562266000Y11498999D01*
X562266000Y12578001D01*
X562263598Y12602387D01*
X562256485Y12625836D01*
X562244934Y12647447D01*
X562229389Y12666389D01*
X562210447Y12681934D01*
X562188836Y12693485D01*
X562165387Y12700598D01*
X562141001Y12703000D01*
X561970999Y12703000D01*
X561946613Y12700598D01*
X561923164Y12693485D01*
X561901553Y12681934D01*
X561882611Y12666389D01*
X561867066Y12647447D01*
X561855515Y12625836D01*
X561848402Y12602387D01*
X561846000Y12578001D01*
X560766000Y12578001D01*
X560766000Y12579000D01*
X560789237Y12579000D01*
X560813623Y12581402D01*
X560837072Y12588515D01*
X560858683Y12600066D01*
X560877625Y12615611D01*
X560893170Y12634553D01*
X560904721Y12656164D01*
X560911834Y12679613D01*
X560914236Y12703999D01*
X560911834Y12728385D01*
X560904721Y12751834D01*
X560893170Y12773445D01*
X560885862Y12783298D01*
X560858479Y12816664D01*
X560834971Y12860646D01*
X560820493Y12908372D01*
X560815000Y12964141D01*
X560815000Y14091859D01*
X560820493Y14147628D01*
X560834971Y14195354D01*
X560858477Y14239332D01*
X560890116Y14277884D01*
X560928668Y14309523D01*
X560972646Y14333029D01*
X561020372Y14347507D01*
X561076141Y14353000D01*
X562703859Y14353000D01*
X562759628Y14347507D01*
X562759628Y14347507D01*
G37*
G36*
X560135628Y9603507D02*
G01*
X560183354Y9589029D01*
X560227332Y9565523D01*
X560265884Y9533884D01*
X560297523Y9495332D01*
X560321029Y9451354D01*
X560335507Y9403628D01*
X560341000Y9347859D01*
X560341000Y8220141D01*
X560335507Y8164372D01*
X560321029Y8116646D01*
X560297523Y8072668D01*
X560265884Y8034116D01*
X560227332Y8002477D01*
X560183354Y7978971D01*
X560135628Y7964493D01*
X560079859Y7959000D01*
X558452141Y7959000D01*
X558396372Y7964493D01*
X558348646Y7978971D01*
X558304668Y8002477D01*
X558266116Y8034116D01*
X558234477Y8072668D01*
X558210971Y8116646D01*
X558196493Y8164372D01*
X558191000Y8220141D01*
X558191000Y9347859D01*
X558196493Y9403628D01*
X558210971Y9451354D01*
X558234477Y9495332D01*
X558266116Y9533884D01*
X558304668Y9565523D01*
X558348646Y9589029D01*
X558396372Y9603507D01*
X558452141Y9609000D01*
X560079859Y9609000D01*
X560135628Y9603507D01*
X560135628Y9603507D01*
G37*
G36*
X560135628Y12403507D02*
G01*
X560183354Y12389029D01*
X560227332Y12365523D01*
X560265884Y12333884D01*
X560297523Y12295332D01*
X560321029Y12251354D01*
X560335507Y12203628D01*
X560341000Y12147859D01*
X560341000Y11020141D01*
X560335507Y10964372D01*
X560321029Y10916646D01*
X560297523Y10872668D01*
X560265884Y10834116D01*
X560227332Y10802477D01*
X560183354Y10778971D01*
X560135628Y10764493D01*
X560079859Y10759000D01*
X558452141Y10759000D01*
X558396372Y10764493D01*
X558348646Y10778971D01*
X558304668Y10802477D01*
X558266116Y10834116D01*
X558234477Y10872668D01*
X558210971Y10916646D01*
X558196493Y10964372D01*
X558191000Y11020141D01*
X558191000Y12147859D01*
X558196493Y12203628D01*
X558210971Y12251354D01*
X558234477Y12295332D01*
X558266116Y12333884D01*
X558304668Y12365523D01*
X558348646Y12389029D01*
X558396372Y12403507D01*
X558452141Y12409000D01*
X560079859Y12409000D01*
X560135628Y12403507D01*
X560135628Y12403507D01*
G37*
G36*
X572266000Y12299000D02*
G01*
X566766000Y12299000D01*
X566766000Y15049000D01*
X572266000Y15049000D01*
X572266000Y12299000D01*
X572266000Y12299000D01*
G37*
G36*
X562759628Y17147507D02*
G01*
X562807354Y17133029D01*
X562851332Y17109523D01*
X562889884Y17077884D01*
X562921523Y17039332D01*
X562945029Y16995354D01*
X562959507Y16947628D01*
X562965000Y16891859D01*
X562965000Y15764141D01*
X562959507Y15708372D01*
X562945029Y15660646D01*
X562921523Y15616668D01*
X562889884Y15578116D01*
X562851332Y15546477D01*
X562807354Y15522971D01*
X562759628Y15508493D01*
X562703859Y15503000D01*
X561076141Y15503000D01*
X561020372Y15508493D01*
X560972646Y15522971D01*
X560928668Y15546477D01*
X560890116Y15578116D01*
X560858477Y15616668D01*
X560834971Y15660646D01*
X560820493Y15708372D01*
X560815000Y15764141D01*
X560815000Y16891859D01*
X560820493Y16947628D01*
X560834971Y16995354D01*
X560858477Y17039332D01*
X560890116Y17077884D01*
X560928668Y17109523D01*
X560972646Y17133029D01*
X561020372Y17147507D01*
X561076141Y17153000D01*
X562703859Y17153000D01*
X562759628Y17147507D01*
X562759628Y17147507D01*
G37*
G36*
X521280000Y22144999D02*
G01*
X521282402Y22120613D01*
X521289515Y22097164D01*
X521301066Y22075553D01*
X521316611Y22056611D01*
X521335553Y22041066D01*
X521357164Y22029515D01*
X521380613Y22022402D01*
X521404999Y22020000D01*
X521580000Y22020000D01*
X521580000Y21294999D01*
X521582402Y21270613D01*
X521589515Y21247164D01*
X521601066Y21225553D01*
X521616611Y21206611D01*
X521635553Y21191066D01*
X521657164Y21179515D01*
X521680613Y21172402D01*
X521704999Y21170000D01*
X522380000Y21170000D01*
X522380000Y20270000D01*
X521904999Y20270000D01*
X521880613Y20267598D01*
X521857164Y20260485D01*
X521835553Y20248934D01*
X521816611Y20233389D01*
X521801066Y20214447D01*
X521789515Y20192836D01*
X521782402Y20169387D01*
X521780000Y20145001D01*
X521780000Y19270000D01*
X521404999Y19270000D01*
X521380613Y19267598D01*
X521357164Y19260485D01*
X521335553Y19248934D01*
X521316611Y19233389D01*
X521301066Y19214447D01*
X521289515Y19192836D01*
X521282402Y19169387D01*
X521280000Y19145001D01*
X521280000Y18670000D01*
X520280000Y18670000D01*
X520280000Y19145001D01*
X520277598Y19169387D01*
X520270485Y19192836D01*
X520258934Y19214447D01*
X520243389Y19233389D01*
X520224447Y19248934D01*
X520202836Y19260485D01*
X520179387Y19267598D01*
X520155001Y19270000D01*
X519780000Y19270000D01*
X519780000Y20145001D01*
X519777598Y20169387D01*
X519770485Y20192836D01*
X519758934Y20214447D01*
X519743389Y20233389D01*
X519724447Y20248934D01*
X519702836Y20260485D01*
X519679387Y20267598D01*
X519655001Y20270000D01*
X519180000Y20270000D01*
X519180000Y21170000D01*
X519855001Y21170000D01*
X519879387Y21172402D01*
X519902836Y21179515D01*
X519924447Y21191066D01*
X519943389Y21206611D01*
X519958934Y21225553D01*
X519970485Y21247164D01*
X519977598Y21270613D01*
X519980000Y21294999D01*
X519980000Y22020000D01*
X520155001Y22020000D01*
X520179387Y22022402D01*
X520202836Y22029515D01*
X520224447Y22041066D01*
X520243389Y22056611D01*
X520258934Y22075553D01*
X520270485Y22097164D01*
X520277598Y22120613D01*
X520280000Y22144999D01*
X520280000Y22610000D01*
X521280000Y22610000D01*
X521280000Y22144999D01*
X521280000Y22144999D01*
G37*
G36*
X557617517Y24945054D02*
G01*
X557659908Y24932195D01*
X557698973Y24911314D01*
X557733214Y24883214D01*
X557761314Y24848973D01*
X557782195Y24809908D01*
X557795054Y24767517D01*
X557800000Y24717297D01*
X557800000Y21282703D01*
X557795054Y21232483D01*
X557782195Y21190092D01*
X557761314Y21151027D01*
X557733214Y21116786D01*
X557698973Y21088686D01*
X557659908Y21067805D01*
X557617517Y21054946D01*
X557567297Y21050000D01*
X556032703Y21050000D01*
X555982483Y21054946D01*
X555940092Y21067805D01*
X555901027Y21088686D01*
X555866786Y21116786D01*
X555838686Y21151027D01*
X555817805Y21190092D01*
X555804946Y21232483D01*
X555800000Y21282703D01*
X555800000Y24717297D01*
X555804946Y24767517D01*
X555817805Y24809908D01*
X555838686Y24848973D01*
X555866786Y24883214D01*
X555901027Y24911314D01*
X555940092Y24932195D01*
X555982483Y24945054D01*
X556032703Y24950000D01*
X557567297Y24950000D01*
X557617517Y24945054D01*
X557617517Y24945054D01*
G37*
G36*
X557179628Y32885507D02*
G01*
X557227354Y32871029D01*
X557271332Y32847523D01*
X557309884Y32815884D01*
X557341523Y32777332D01*
X557365029Y32733354D01*
X557379507Y32685628D01*
X557385000Y32629859D01*
X557385000Y32099216D01*
X557387402Y32074830D01*
X557394515Y32051381D01*
X557406066Y32029770D01*
X557421611Y32010828D01*
X557440553Y31995283D01*
X557462164Y31983732D01*
X557485613Y31976619D01*
X557509999Y31974217D01*
X557534385Y31976619D01*
X557557834Y31983732D01*
X557579445Y31995283D01*
X557598387Y32010828D01*
X557613932Y32029770D01*
X557620239Y32040293D01*
X557631189Y32060780D01*
X557662981Y32099519D01*
X557701722Y32131312D01*
X557745915Y32154934D01*
X557793878Y32169483D01*
X557849891Y32175000D01*
X558600109Y32175000D01*
X558656122Y32169483D01*
X558704085Y32154934D01*
X558748278Y32131312D01*
X558787019Y32099519D01*
X558818812Y32060778D01*
X558842434Y32016585D01*
X558856983Y31968622D01*
X558862500Y31912609D01*
X558862500Y31087391D01*
X558856983Y31031378D01*
X558842434Y30983415D01*
X558818812Y30939222D01*
X558787019Y30900481D01*
X558748278Y30868688D01*
X558704085Y30845066D01*
X558656122Y30830517D01*
X558600109Y30825000D01*
X557849891Y30825000D01*
X557793878Y30830517D01*
X557745915Y30845066D01*
X557701722Y30868688D01*
X557662981Y30900481D01*
X557631189Y30939220D01*
X557611501Y30976055D01*
X557597887Y30996430D01*
X557580560Y31013757D01*
X557560186Y31027371D01*
X557537547Y31036748D01*
X557513514Y31041529D01*
X557489010Y31041529D01*
X557464977Y31036749D01*
X557442338Y31027372D01*
X557421963Y31013758D01*
X557404636Y30996431D01*
X557391022Y30976057D01*
X557381644Y30953417D01*
X557365029Y30898646D01*
X557341523Y30854668D01*
X557309884Y30816116D01*
X557270082Y30783451D01*
X557252383Y30771625D01*
X557235056Y30754298D01*
X557221442Y30733924D01*
X557212065Y30711285D01*
X557207284Y30687252D01*
X557207284Y30662748D01*
X557212064Y30638715D01*
X557221441Y30616076D01*
X557235055Y30595701D01*
X557252382Y30578374D01*
X557272756Y30564760D01*
X557295395Y30555383D01*
X557319428Y30550602D01*
X557331681Y30550000D01*
X557567297Y30550000D01*
X557617517Y30545054D01*
X557659908Y30532195D01*
X557698973Y30511314D01*
X557733214Y30483214D01*
X557761314Y30448973D01*
X557782195Y30409908D01*
X557795054Y30367517D01*
X557800000Y30317297D01*
X557800000Y26882703D01*
X557795054Y26832483D01*
X557782195Y26790092D01*
X557761314Y26751027D01*
X557733214Y26716786D01*
X557698973Y26688686D01*
X557659908Y26667805D01*
X557617517Y26654946D01*
X557567297Y26650000D01*
X556032703Y26650000D01*
X555982483Y26654946D01*
X555940092Y26667805D01*
X555901027Y26688686D01*
X555866786Y26716786D01*
X555838686Y26751027D01*
X555817805Y26790092D01*
X555804946Y26832483D01*
X555800000Y26882703D01*
X555800000Y30317297D01*
X555804946Y30367517D01*
X555817805Y30409908D01*
X555838686Y30448973D01*
X555866786Y30483214D01*
X555901029Y30511315D01*
X555929821Y30526705D01*
X555950196Y30540319D01*
X555967523Y30557646D01*
X555981136Y30578020D01*
X555990514Y30600659D01*
X555995294Y30624692D01*
X555995294Y30649196D01*
X555990514Y30673230D01*
X555981136Y30695868D01*
X555967522Y30716243D01*
X555950195Y30733570D01*
X555929821Y30747183D01*
X555907183Y30756560D01*
X555892649Y30760969D01*
X555848668Y30784477D01*
X555810116Y30816116D01*
X555778477Y30854668D01*
X555754971Y30898646D01*
X555740493Y30946372D01*
X555735000Y31002141D01*
X555735000Y32629859D01*
X555740493Y32685628D01*
X555754971Y32733354D01*
X555778477Y32777332D01*
X555810116Y32815884D01*
X555848668Y32847523D01*
X555892646Y32871029D01*
X555940372Y32885507D01*
X555996141Y32891000D01*
X557123859Y32891000D01*
X557179628Y32885507D01*
X557179628Y32885507D01*
G37*
G36*
X562700000Y29875000D02*
G01*
X561500000Y29875000D01*
X561500000Y31525000D01*
X562700000Y31525000D01*
X562700000Y29875000D01*
X562700000Y29875000D01*
G37*
G36*
X554379628Y32885507D02*
G01*
X554427354Y32871029D01*
X554471332Y32847523D01*
X554509884Y32815884D01*
X554541523Y32777332D01*
X554565029Y32733354D01*
X554579507Y32685628D01*
X554585000Y32629859D01*
X554585000Y31002141D01*
X554579507Y30946372D01*
X554565029Y30898646D01*
X554541523Y30854668D01*
X554509884Y30816116D01*
X554471332Y30784477D01*
X554427354Y30760971D01*
X554379628Y30746493D01*
X554323859Y30741000D01*
X553196141Y30741000D01*
X553140372Y30746493D01*
X553092646Y30760971D01*
X553048668Y30784477D01*
X553010116Y30816116D01*
X552978477Y30854668D01*
X552954971Y30898646D01*
X552940493Y30946372D01*
X552935000Y31002141D01*
X552935000Y32629859D01*
X552940493Y32685628D01*
X552954971Y32733354D01*
X552978477Y32777332D01*
X553010116Y32815884D01*
X553048668Y32847523D01*
X553092646Y32871029D01*
X553140372Y32885507D01*
X553196141Y32891000D01*
X554323859Y32891000D01*
X554379628Y32885507D01*
X554379628Y32885507D01*
G37*
G36*
X560231122Y32169483D02*
G01*
X560279085Y32154934D01*
X560323278Y32131312D01*
X560362019Y32099519D01*
X560393812Y32060778D01*
X560417434Y32016585D01*
X560431983Y31968622D01*
X560437500Y31912609D01*
X560437500Y31087391D01*
X560431983Y31031378D01*
X560417434Y30983415D01*
X560393812Y30939222D01*
X560362019Y30900481D01*
X560323278Y30868688D01*
X560279085Y30845066D01*
X560231122Y30830517D01*
X560175109Y30825000D01*
X559424891Y30825000D01*
X559368878Y30830517D01*
X559320915Y30845066D01*
X559276722Y30868688D01*
X559237981Y30900481D01*
X559206188Y30939222D01*
X559182566Y30983415D01*
X559168017Y31031378D01*
X559162500Y31087391D01*
X559162500Y31912609D01*
X559168017Y31968622D01*
X559182566Y32016585D01*
X559206188Y32060778D01*
X559237981Y32099519D01*
X559276722Y32131312D01*
X559320915Y32154934D01*
X559368878Y32169483D01*
X559424891Y32175000D01*
X560175109Y32175000D01*
X560231122Y32169483D01*
X560231122Y32169483D01*
G37*
G36*
X539641715Y35315456D02*
G01*
X540042089Y35149616D01*
X540042091Y35149615D01*
X540131311Y35090000D01*
X540402418Y34908852D01*
X540708852Y34602418D01*
X540949616Y34242089D01*
X541115456Y33841715D01*
X541200000Y33416682D01*
X541200000Y32983318D01*
X541115456Y32558285D01*
X540956694Y32175000D01*
X540949615Y32157909D01*
X540708852Y31797582D01*
X540402418Y31491148D01*
X540042091Y31250385D01*
X540042090Y31250384D01*
X540042089Y31250384D01*
X539641715Y31084544D01*
X539216682Y31000000D01*
X538783318Y31000000D01*
X538358285Y31084544D01*
X537957911Y31250384D01*
X537957910Y31250384D01*
X537957909Y31250385D01*
X537597582Y31491148D01*
X537291148Y31797582D01*
X537050385Y32157909D01*
X537043306Y32175000D01*
X536884544Y32558285D01*
X536800000Y32983318D01*
X536800000Y33416682D01*
X536884544Y33841715D01*
X537050384Y34242089D01*
X537291148Y34602418D01*
X537597582Y34908852D01*
X537868689Y35090000D01*
X537957909Y35149615D01*
X537957911Y35149616D01*
X538358285Y35315456D01*
X538783318Y35400000D01*
X539216682Y35400000D01*
X539641715Y35315456D01*
X539641715Y35315456D01*
G37*
G36*
X555069628Y39819507D02*
G01*
X555117354Y39805029D01*
X555161332Y39781523D01*
X555199884Y39749884D01*
X555231523Y39711332D01*
X555255029Y39667354D01*
X555269507Y39619628D01*
X555275000Y39563859D01*
X555275000Y38436141D01*
X555269507Y38380372D01*
X555255029Y38332646D01*
X555231521Y38288665D01*
X555224655Y38280298D01*
X555211041Y38259924D01*
X555201664Y38237285D01*
X555196883Y38213252D01*
X555196883Y38188748D01*
X555201663Y38164714D01*
X555211040Y38142075D01*
X555224654Y38121701D01*
X555241981Y38104374D01*
X555262355Y38090760D01*
X555284994Y38081383D01*
X555309027Y38076602D01*
X555321280Y38076000D01*
X555700000Y38076000D01*
X555700000Y36995999D01*
X555702402Y36971613D01*
X555709515Y36948164D01*
X555721066Y36926553D01*
X555736611Y36907611D01*
X555755553Y36892066D01*
X555777164Y36880515D01*
X555800613Y36873402D01*
X555824999Y36871000D01*
X555995001Y36871000D01*
X556019387Y36873402D01*
X556042836Y36880515D01*
X556064447Y36892066D01*
X556083389Y36907611D01*
X556098934Y36926553D01*
X556110485Y36948164D01*
X556117598Y36971613D01*
X556120000Y36995999D01*
X556120000Y38076000D01*
X557200000Y38076000D01*
X557200000Y36476000D01*
X556234999Y36476000D01*
X556210613Y36473598D01*
X556187164Y36466485D01*
X556165553Y36454934D01*
X556146611Y36439389D01*
X556131066Y36420447D01*
X556119515Y36398836D01*
X556112402Y36375387D01*
X556110000Y36351001D01*
X556110000Y34900999D01*
X556112402Y34876613D01*
X556119515Y34853164D01*
X556131066Y34831553D01*
X556146611Y34812611D01*
X556165553Y34797066D01*
X556187164Y34785515D01*
X556210613Y34778402D01*
X556234999Y34776000D01*
X557200000Y34776000D01*
X557200000Y33176000D01*
X556234999Y33176000D01*
X556210613Y33173598D01*
X556202048Y33171000D01*
X554117952Y33171000D01*
X554109387Y33173598D01*
X554085001Y33176000D01*
X553120000Y33176000D01*
X553120000Y34776000D01*
X554085001Y34776000D01*
X554109387Y34778402D01*
X554132836Y34785515D01*
X554154447Y34797066D01*
X554173389Y34812611D01*
X554188934Y34831553D01*
X554200485Y34853164D01*
X554207598Y34876613D01*
X554210000Y34900999D01*
X554210000Y36351001D01*
X554207598Y36375387D01*
X554200485Y36398836D01*
X554188934Y36420447D01*
X554173389Y36439389D01*
X554154447Y36454934D01*
X554132836Y36466485D01*
X554109387Y36473598D01*
X554085001Y36476000D01*
X553120000Y36476000D01*
X553120000Y38050001D01*
X554200000Y38050001D01*
X554200000Y36995999D01*
X554202402Y36971613D01*
X554209515Y36948164D01*
X554221066Y36926553D01*
X554236611Y36907611D01*
X554255553Y36892066D01*
X554277164Y36880515D01*
X554300613Y36873402D01*
X554324999Y36871000D01*
X554495001Y36871000D01*
X554519387Y36873402D01*
X554542836Y36880515D01*
X554564447Y36892066D01*
X554583389Y36907611D01*
X554598934Y36926553D01*
X554610485Y36948164D01*
X554617598Y36971613D01*
X554620000Y36995999D01*
X554620000Y38050001D01*
X554617598Y38074387D01*
X554610485Y38097836D01*
X554598934Y38119447D01*
X554583389Y38138389D01*
X554564447Y38153934D01*
X554542836Y38165485D01*
X554519387Y38172598D01*
X554495001Y38175000D01*
X554324999Y38175000D01*
X554300613Y38172598D01*
X554277164Y38165485D01*
X554255553Y38153934D01*
X554236611Y38138389D01*
X554221066Y38119447D01*
X554209515Y38097836D01*
X554202402Y38074387D01*
X554200000Y38050001D01*
X553120000Y38050001D01*
X553120000Y38083527D01*
X553126555Y38085515D01*
X553148166Y38097066D01*
X553167108Y38112611D01*
X553182653Y38131553D01*
X553194204Y38153164D01*
X553201317Y38176613D01*
X553203719Y38200999D01*
X553201317Y38225385D01*
X553194204Y38248834D01*
X553182653Y38270445D01*
X553175345Y38280298D01*
X553168479Y38288665D01*
X553144971Y38332646D01*
X553130493Y38380372D01*
X553125000Y38436141D01*
X553125000Y39563859D01*
X553130493Y39619628D01*
X553144971Y39667354D01*
X553168477Y39711332D01*
X553200116Y39749884D01*
X553238668Y39781523D01*
X553282646Y39805029D01*
X553330372Y39819507D01*
X553386141Y39825000D01*
X555013859Y39825000D01*
X555069628Y39819507D01*
X555069628Y39819507D01*
G37*
G36*
X562700000Y33175000D02*
G01*
X561500000Y33175000D01*
X561500000Y34825000D01*
X562700000Y34825000D01*
X562700000Y33175000D01*
X562700000Y33175000D01*
G37*
G36*
X552469628Y35019507D02*
G01*
X552517354Y35005029D01*
X552561332Y34981523D01*
X552599884Y34949884D01*
X552631523Y34911332D01*
X552655029Y34867354D01*
X552669507Y34819628D01*
X552675000Y34763859D01*
X552675000Y33636141D01*
X552669507Y33580372D01*
X552655029Y33532646D01*
X552631523Y33488668D01*
X552599884Y33450116D01*
X552561332Y33418477D01*
X552517354Y33394971D01*
X552469628Y33380493D01*
X552413859Y33375000D01*
X550786141Y33375000D01*
X550730372Y33380493D01*
X550682646Y33394971D01*
X550638668Y33418477D01*
X550600116Y33450116D01*
X550568477Y33488668D01*
X550544971Y33532646D01*
X550530493Y33580372D01*
X550525000Y33636141D01*
X550525000Y34763859D01*
X550530493Y34819628D01*
X550544971Y34867354D01*
X550568477Y34911332D01*
X550600116Y34949884D01*
X550638668Y34981523D01*
X550682646Y35005029D01*
X550730372Y35019507D01*
X550786141Y35025000D01*
X552413859Y35025000D01*
X552469628Y35019507D01*
X552469628Y35019507D01*
G37*
G36*
X564150000Y35075000D02*
G01*
X558650000Y35075000D01*
X558650000Y37825000D01*
X564150000Y37825000D01*
X564150000Y35075000D01*
X564150000Y35075000D01*
G37*
G36*
X516310000Y38564999D02*
G01*
X516312402Y38540613D01*
X516319515Y38517164D01*
X516331066Y38495553D01*
X516346611Y38476611D01*
X516365553Y38461066D01*
X516387164Y38449515D01*
X516410613Y38442402D01*
X516434999Y38440000D01*
X516610000Y38440000D01*
X516610000Y37714999D01*
X516612402Y37690613D01*
X516619515Y37667164D01*
X516631066Y37645553D01*
X516646611Y37626611D01*
X516665553Y37611066D01*
X516687164Y37599515D01*
X516710613Y37592402D01*
X516734999Y37590000D01*
X517410000Y37590000D01*
X517410000Y36690000D01*
X516934999Y36690000D01*
X516910613Y36687598D01*
X516887164Y36680485D01*
X516865553Y36668934D01*
X516846611Y36653389D01*
X516831066Y36634447D01*
X516819515Y36612836D01*
X516812402Y36589387D01*
X516810000Y36565001D01*
X516810000Y35690000D01*
X516434999Y35690000D01*
X516410613Y35687598D01*
X516387164Y35680485D01*
X516365553Y35668934D01*
X516346611Y35653389D01*
X516331066Y35634447D01*
X516319515Y35612836D01*
X516312402Y35589387D01*
X516310000Y35565001D01*
X516310000Y35090000D01*
X515310000Y35090000D01*
X515310000Y35565001D01*
X515307598Y35589387D01*
X515300485Y35612836D01*
X515288934Y35634447D01*
X515273389Y35653389D01*
X515254447Y35668934D01*
X515232836Y35680485D01*
X515209387Y35687598D01*
X515185001Y35690000D01*
X514810000Y35690000D01*
X514810000Y36565001D01*
X514807598Y36589387D01*
X514800485Y36612836D01*
X514788934Y36634447D01*
X514773389Y36653389D01*
X514754447Y36668934D01*
X514732836Y36680485D01*
X514709387Y36687598D01*
X514685001Y36690000D01*
X514210000Y36690000D01*
X514210000Y37590000D01*
X514885001Y37590000D01*
X514909387Y37592402D01*
X514932836Y37599515D01*
X514954447Y37611066D01*
X514973389Y37626611D01*
X514988934Y37645553D01*
X515000485Y37667164D01*
X515007598Y37690613D01*
X515010000Y37714999D01*
X515010000Y38440000D01*
X515185001Y38440000D01*
X515209387Y38442402D01*
X515232836Y38449515D01*
X515254447Y38461066D01*
X515273389Y38476611D01*
X515288934Y38495553D01*
X515300485Y38517164D01*
X515307598Y38540613D01*
X515310000Y38564999D01*
X515310000Y39030000D01*
X516310000Y39030000D01*
X516310000Y38564999D01*
X516310000Y38564999D01*
G37*
G36*
X552469628Y37819507D02*
G01*
X552517354Y37805029D01*
X552561332Y37781523D01*
X552599884Y37749884D01*
X552631523Y37711332D01*
X552655029Y37667354D01*
X552669507Y37619628D01*
X552675000Y37563859D01*
X552675000Y36436141D01*
X552669507Y36380372D01*
X552655029Y36332646D01*
X552631523Y36288668D01*
X552599884Y36250116D01*
X552561332Y36218477D01*
X552517354Y36194971D01*
X552469628Y36180493D01*
X552413859Y36175000D01*
X550786141Y36175000D01*
X550730372Y36180493D01*
X550682646Y36194971D01*
X550638668Y36218477D01*
X550600116Y36250116D01*
X550568477Y36288668D01*
X550544971Y36332646D01*
X550530493Y36380372D01*
X550525000Y36436141D01*
X550525000Y37563859D01*
X550530493Y37619628D01*
X550544971Y37667354D01*
X550568477Y37711332D01*
X550600116Y37749884D01*
X550638668Y37781523D01*
X550682646Y37805029D01*
X550730372Y37819507D01*
X550786141Y37825000D01*
X552413859Y37825000D01*
X552469628Y37819507D01*
X552469628Y37819507D01*
G37*
G36*
X564150000Y39225000D02*
G01*
X558650000Y39225000D01*
X558650000Y41975000D01*
X564150000Y41975000D01*
X564150000Y39225000D01*
X564150000Y39225000D01*
G37*
G36*
X555069628Y42619507D02*
G01*
X555117354Y42605029D01*
X555161332Y42581523D01*
X555199884Y42549884D01*
X555231523Y42511332D01*
X555255029Y42467354D01*
X555269507Y42419628D01*
X555275000Y42363859D01*
X555275000Y41236141D01*
X555269507Y41180372D01*
X555255029Y41132646D01*
X555231523Y41088668D01*
X555199884Y41050116D01*
X555161332Y41018477D01*
X555117354Y40994971D01*
X555069628Y40980493D01*
X555013859Y40975000D01*
X553386141Y40975000D01*
X553330372Y40980493D01*
X553282646Y40994971D01*
X553238668Y41018477D01*
X553200116Y41050116D01*
X553168477Y41088668D01*
X553144971Y41132646D01*
X553130493Y41180372D01*
X553125000Y41236141D01*
X553125000Y42363859D01*
X553130493Y42419628D01*
X553144971Y42467354D01*
X553168477Y42511332D01*
X553200116Y42549884D01*
X553238668Y42581523D01*
X553282646Y42605029D01*
X553330372Y42619507D01*
X553386141Y42625000D01*
X555013859Y42625000D01*
X555069628Y42619507D01*
X555069628Y42619507D01*
G37*
G36*
X511570000Y55074999D02*
G01*
X511572402Y55050613D01*
X511579515Y55027164D01*
X511591066Y55005553D01*
X511606611Y54986611D01*
X511625553Y54971066D01*
X511647164Y54959515D01*
X511670613Y54952402D01*
X511694999Y54950000D01*
X511870000Y54950000D01*
X511870000Y54224999D01*
X511872402Y54200613D01*
X511879515Y54177164D01*
X511891066Y54155553D01*
X511906611Y54136611D01*
X511925553Y54121066D01*
X511947164Y54109515D01*
X511970613Y54102402D01*
X511994999Y54100000D01*
X512670000Y54100000D01*
X512670000Y53200000D01*
X512194999Y53200000D01*
X512170613Y53197598D01*
X512147164Y53190485D01*
X512125553Y53178934D01*
X512106611Y53163389D01*
X512091066Y53144447D01*
X512079515Y53122836D01*
X512072402Y53099387D01*
X512070000Y53075001D01*
X512070000Y52200000D01*
X511694999Y52200000D01*
X511670613Y52197598D01*
X511647164Y52190485D01*
X511625553Y52178934D01*
X511606611Y52163389D01*
X511591066Y52144447D01*
X511579515Y52122836D01*
X511572402Y52099387D01*
X511570000Y52075001D01*
X511570000Y51600000D01*
X510570000Y51600000D01*
X510570000Y52075001D01*
X510567598Y52099387D01*
X510560485Y52122836D01*
X510548934Y52144447D01*
X510533389Y52163389D01*
X510514447Y52178934D01*
X510492836Y52190485D01*
X510469387Y52197598D01*
X510445001Y52200000D01*
X510070000Y52200000D01*
X510070000Y53075001D01*
X510067598Y53099387D01*
X510060485Y53122836D01*
X510048934Y53144447D01*
X510033389Y53163389D01*
X510014447Y53178934D01*
X509992836Y53190485D01*
X509969387Y53197598D01*
X509945001Y53200000D01*
X509470000Y53200000D01*
X509470000Y54100000D01*
X510145001Y54100000D01*
X510169387Y54102402D01*
X510192836Y54109515D01*
X510214447Y54121066D01*
X510233389Y54136611D01*
X510248934Y54155553D01*
X510260485Y54177164D01*
X510267598Y54200613D01*
X510270000Y54224999D01*
X510270000Y54950000D01*
X510445001Y54950000D01*
X510469387Y54952402D01*
X510492836Y54959515D01*
X510514447Y54971066D01*
X510533389Y54986611D01*
X510548934Y55005553D01*
X510560485Y55027164D01*
X510567598Y55050613D01*
X510570000Y55074999D01*
X510570000Y55540000D01*
X511570000Y55540000D01*
X511570000Y55074999D01*
X511570000Y55074999D01*
G37*
G36*
X507040000Y71624999D02*
G01*
X507042402Y71600613D01*
X507049515Y71577164D01*
X507061066Y71555553D01*
X507076611Y71536611D01*
X507095553Y71521066D01*
X507117164Y71509515D01*
X507140613Y71502402D01*
X507164999Y71500000D01*
X507340000Y71500000D01*
X507340000Y70774999D01*
X507342402Y70750613D01*
X507349515Y70727164D01*
X507361066Y70705553D01*
X507376611Y70686611D01*
X507395553Y70671066D01*
X507417164Y70659515D01*
X507440613Y70652402D01*
X507464999Y70650000D01*
X508140000Y70650000D01*
X508140000Y69750000D01*
X507664999Y69750000D01*
X507640613Y69747598D01*
X507617164Y69740485D01*
X507595553Y69728934D01*
X507576611Y69713389D01*
X507561066Y69694447D01*
X507549515Y69672836D01*
X507542402Y69649387D01*
X507540000Y69625001D01*
X507540000Y68750000D01*
X507164999Y68750000D01*
X507140613Y68747598D01*
X507117164Y68740485D01*
X507095553Y68728934D01*
X507076611Y68713389D01*
X507061066Y68694447D01*
X507049515Y68672836D01*
X507042402Y68649387D01*
X507040000Y68625001D01*
X507040000Y68150000D01*
X506040000Y68150000D01*
X506040000Y68625001D01*
X506037598Y68649387D01*
X506030485Y68672836D01*
X506018934Y68694447D01*
X506003389Y68713389D01*
X505984447Y68728934D01*
X505962836Y68740485D01*
X505939387Y68747598D01*
X505915001Y68750000D01*
X505540000Y68750000D01*
X505540000Y69625001D01*
X505537598Y69649387D01*
X505530485Y69672836D01*
X505518934Y69694447D01*
X505503389Y69713389D01*
X505484447Y69728934D01*
X505462836Y69740485D01*
X505439387Y69747598D01*
X505415001Y69750000D01*
X504940000Y69750000D01*
X504940000Y70650000D01*
X505615001Y70650000D01*
X505639387Y70652402D01*
X505662836Y70659515D01*
X505684447Y70671066D01*
X505703389Y70686611D01*
X505718934Y70705553D01*
X505730485Y70727164D01*
X505737598Y70750613D01*
X505740000Y70774999D01*
X505740000Y71500000D01*
X505915001Y71500000D01*
X505939387Y71502402D01*
X505962836Y71509515D01*
X505984447Y71521066D01*
X506003389Y71536611D01*
X506018934Y71555553D01*
X506030485Y71577164D01*
X506037598Y71600613D01*
X506040000Y71624999D01*
X506040000Y72090000D01*
X507040000Y72090000D01*
X507040000Y71624999D01*
X507040000Y71624999D01*
G37*
G36*
X502720000Y88234999D02*
G01*
X502722402Y88210613D01*
X502729515Y88187164D01*
X502741066Y88165553D01*
X502756611Y88146611D01*
X502775553Y88131066D01*
X502797164Y88119515D01*
X502820613Y88112402D01*
X502844999Y88110000D01*
X503020000Y88110000D01*
X503020000Y87384999D01*
X503022402Y87360613D01*
X503029515Y87337164D01*
X503041066Y87315553D01*
X503056611Y87296611D01*
X503075553Y87281066D01*
X503097164Y87269515D01*
X503120613Y87262402D01*
X503144999Y87260000D01*
X503820000Y87260000D01*
X503820000Y86360000D01*
X503344999Y86360000D01*
X503320613Y86357598D01*
X503297164Y86350485D01*
X503275553Y86338934D01*
X503256611Y86323389D01*
X503241066Y86304447D01*
X503229515Y86282836D01*
X503222402Y86259387D01*
X503220000Y86235001D01*
X503220000Y85360000D01*
X502844999Y85360000D01*
X502820613Y85357598D01*
X502797164Y85350485D01*
X502775553Y85338934D01*
X502756611Y85323389D01*
X502741066Y85304447D01*
X502729515Y85282836D01*
X502722402Y85259387D01*
X502720000Y85235001D01*
X502720000Y84760000D01*
X501720000Y84760000D01*
X501720000Y85235001D01*
X501717598Y85259387D01*
X501710485Y85282836D01*
X501698934Y85304447D01*
X501683389Y85323389D01*
X501664447Y85338934D01*
X501642836Y85350485D01*
X501619387Y85357598D01*
X501595001Y85360000D01*
X501220000Y85360000D01*
X501220000Y86235001D01*
X501217598Y86259387D01*
X501210485Y86282836D01*
X501198934Y86304447D01*
X501183389Y86323389D01*
X501164447Y86338934D01*
X501142836Y86350485D01*
X501119387Y86357598D01*
X501095001Y86360000D01*
X500620000Y86360000D01*
X500620000Y87260000D01*
X501295001Y87260000D01*
X501319387Y87262402D01*
X501342836Y87269515D01*
X501364447Y87281066D01*
X501383389Y87296611D01*
X501398934Y87315553D01*
X501410485Y87337164D01*
X501417598Y87360613D01*
X501420000Y87384999D01*
X501420000Y88110000D01*
X501595001Y88110000D01*
X501619387Y88112402D01*
X501642836Y88119515D01*
X501664447Y88131066D01*
X501683389Y88146611D01*
X501698934Y88165553D01*
X501710485Y88187164D01*
X501717598Y88210613D01*
X501720000Y88234999D01*
X501720000Y88700000D01*
X502720000Y88700000D01*
X502720000Y88234999D01*
X502720000Y88234999D01*
G37*
G36*
X524441715Y100415456D02*
G01*
X524842089Y100249616D01*
X524842091Y100249615D01*
X525202418Y100008852D01*
X525508852Y99702418D01*
X525749616Y99342089D01*
X525915456Y98941715D01*
X526000000Y98516682D01*
X526000000Y98083318D01*
X525915456Y97658285D01*
X525749616Y97257911D01*
X525749615Y97257909D01*
X525508852Y96897582D01*
X525202418Y96591148D01*
X524842091Y96350385D01*
X524842090Y96350384D01*
X524842089Y96350384D01*
X524441715Y96184544D01*
X524016682Y96100000D01*
X523583318Y96100000D01*
X523158285Y96184544D01*
X522757911Y96350384D01*
X522757910Y96350384D01*
X522757909Y96350385D01*
X522397582Y96591148D01*
X522091148Y96897582D01*
X521850385Y97257909D01*
X521850384Y97257911D01*
X521684544Y97658285D01*
X521600000Y98083318D01*
X521600000Y98516682D01*
X521684544Y98941715D01*
X521850384Y99342089D01*
X522091148Y99702418D01*
X522397582Y100008852D01*
X522757909Y100249615D01*
X522757911Y100249616D01*
X523158285Y100415456D01*
X523583318Y100500000D01*
X524016682Y100500000D01*
X524441715Y100415456D01*
X524441715Y100415456D01*
G37*
G36*
X498590000Y104889999D02*
G01*
X498592402Y104865613D01*
X498599515Y104842164D01*
X498611066Y104820553D01*
X498626611Y104801611D01*
X498645553Y104786066D01*
X498667164Y104774515D01*
X498690613Y104767402D01*
X498714999Y104765000D01*
X498890000Y104765000D01*
X498890000Y104039999D01*
X498892402Y104015613D01*
X498899515Y103992164D01*
X498911066Y103970553D01*
X498926611Y103951611D01*
X498945553Y103936066D01*
X498967164Y103924515D01*
X498990613Y103917402D01*
X499014999Y103915000D01*
X499690000Y103915000D01*
X499690000Y103015000D01*
X499214999Y103015000D01*
X499190613Y103012598D01*
X499167164Y103005485D01*
X499145553Y102993934D01*
X499126611Y102978389D01*
X499111066Y102959447D01*
X499099515Y102937836D01*
X499092402Y102914387D01*
X499090000Y102890001D01*
X499090000Y102015000D01*
X498714999Y102015000D01*
X498690613Y102012598D01*
X498667164Y102005485D01*
X498645553Y101993934D01*
X498626611Y101978389D01*
X498611066Y101959447D01*
X498599515Y101937836D01*
X498592402Y101914387D01*
X498590000Y101890001D01*
X498590000Y101415000D01*
X497590000Y101415000D01*
X497590000Y101890001D01*
X497587598Y101914387D01*
X497580485Y101937836D01*
X497568934Y101959447D01*
X497553389Y101978389D01*
X497534447Y101993934D01*
X497512836Y102005485D01*
X497489387Y102012598D01*
X497465001Y102015000D01*
X497090000Y102015000D01*
X497090000Y102890001D01*
X497087598Y102914387D01*
X497080485Y102937836D01*
X497068934Y102959447D01*
X497053389Y102978389D01*
X497034447Y102993934D01*
X497012836Y103005485D01*
X496989387Y103012598D01*
X496965001Y103015000D01*
X496490000Y103015000D01*
X496490000Y103915000D01*
X497165001Y103915000D01*
X497189387Y103917402D01*
X497212836Y103924515D01*
X497234447Y103936066D01*
X497253389Y103951611D01*
X497268934Y103970553D01*
X497280485Y103992164D01*
X497287598Y104015613D01*
X497290000Y104039999D01*
X497290000Y104765000D01*
X497465001Y104765000D01*
X497489387Y104767402D01*
X497512836Y104774515D01*
X497534447Y104786066D01*
X497553389Y104801611D01*
X497568934Y104820553D01*
X497580485Y104842164D01*
X497587598Y104865613D01*
X497590000Y104889999D01*
X497590000Y105355000D01*
X498590000Y105355000D01*
X498590000Y104889999D01*
X498590000Y104889999D01*
G37*
M02*
