G04 #@! TF.GenerationSoftware,KiCad,Pcbnew,(5.1.2)-1*
G04 #@! TF.CreationDate,2019-06-19T14:51:22+02:00*
G04 #@! TF.ProjectId,stop_light,73746f70-5f6c-4696-9768-742e6b696361,rev?*
G04 #@! TF.SameCoordinates,Original*
G04 #@! TF.FileFunction,Paste,Top*
G04 #@! TF.FilePolarity,Positive*
%FSLAX46Y46*%
G04 Gerber Fmt 4.6, Leading zero omitted, Abs format (unit mm)*
G04 Created by KiCad (PCBNEW (5.1.2)-1) date 2019-06-19 14:51:22*
%MOMM*%
%LPD*%
G04 APERTURE LIST*
%ADD10C,0.010000*%
%ADD11R,0.520000X0.600000*%
%ADD12R,1.100000X0.400000*%
%ADD13R,0.600000X0.400000*%
%ADD14R,0.600000X1.400000*%
%ADD15R,0.500000X0.400000*%
%ADD16R,0.600000X0.600000*%
%ADD17R,1.200000X0.550000*%
%ADD18R,1.600000X1.000000*%
%ADD19R,2.800000X0.500000*%
%ADD20C,0.100000*%
%ADD21C,1.600000*%
%ADD22C,1.200000*%
%ADD23C,1.500000*%
%ADD24R,1.500000X3.300000*%
%ADD25R,0.680000X1.200000*%
%ADD26R,0.680000X1.400000*%
%ADD27C,0.875000*%
%ADD28C,1.250000*%
%ADD29R,5.100000X2.350000*%
%ADD30R,0.800000X1.250000*%
G04 APERTURE END LIST*
D10*
X576323858Y-122050000D02*
X576620603Y-122050000D01*
X577122615Y-124454309D02*
X576622615Y-124454309D01*
X576622615Y-124854309D02*
X577122615Y-124854309D01*
X576124400Y-123254309D02*
X576124400Y-124254308D01*
X576724869Y-124254308D02*
X576724869Y-122854310D01*
X577026007Y-122854310D02*
X578202614Y-122854310D01*
X575522615Y-122844309D02*
X575522615Y-123254309D01*
X578222615Y-122854310D02*
X578222615Y-123254310D01*
X578202614Y-122854310D02*
X578222615Y-122854310D01*
X576620603Y-121458591D02*
X577130000Y-121458591D01*
X577420232Y-122449986D02*
X576323858Y-122449986D01*
X577614311Y-124254308D02*
X577026007Y-124254308D01*
X575522615Y-123254309D02*
X576124400Y-123254309D01*
X576323858Y-122449986D02*
X576323858Y-122050000D01*
X577122615Y-124854309D02*
X577122615Y-124454309D01*
X577026007Y-124254308D02*
X577026007Y-122854310D01*
X578202614Y-123254310D02*
X577614311Y-123254310D01*
X577420232Y-122050000D02*
X577420232Y-122449986D01*
X577130000Y-121458591D02*
X577130000Y-122050000D01*
X576124400Y-124254308D02*
X576724869Y-124254308D01*
X576620603Y-122050000D02*
X576620603Y-121458591D01*
X576622615Y-124454309D02*
X576622615Y-124854309D01*
X576724869Y-122854310D02*
X575522615Y-122844309D01*
X578222615Y-123254310D02*
X578202614Y-123254310D01*
X577614311Y-123254310D02*
X577614311Y-124254308D01*
X577130000Y-122050000D02*
X577420232Y-122050000D01*
D11*
X576870000Y-121760000D03*
D12*
X576870000Y-122250000D03*
D13*
X577930000Y-123050000D03*
X575830000Y-123050000D03*
D14*
X577330000Y-123550000D03*
X576430000Y-123550000D03*
D15*
X576870000Y-124650000D03*
D16*
X569400000Y-106190000D03*
D17*
X569400000Y-106755000D03*
D16*
X569400000Y-109130000D03*
D18*
X569400000Y-108330000D03*
D19*
X569400000Y-107580000D03*
D16*
X562310000Y-90560000D03*
D17*
X562310000Y-91125000D03*
D16*
X562310000Y-93500000D03*
D18*
X562310000Y-92700000D03*
D19*
X562310000Y-91950000D03*
D16*
X549110000Y-58870000D03*
D17*
X549110000Y-59435000D03*
D16*
X549110000Y-61810000D03*
D18*
X549110000Y-61010000D03*
D19*
X549110000Y-60260000D03*
D16*
X555550000Y-74770000D03*
D17*
X555550000Y-75335000D03*
D16*
X555550000Y-77710000D03*
D18*
X555550000Y-76910000D03*
D19*
X555550000Y-76160000D03*
D16*
X531390000Y-10540000D03*
D17*
X531390000Y-11105000D03*
D16*
X531390000Y-13480000D03*
D18*
X531390000Y-12680000D03*
D19*
X531390000Y-11930000D03*
D16*
X525970000Y5750000D03*
D17*
X525970000Y5185000D03*
D16*
X525970000Y2810000D03*
D18*
X525970000Y3610000D03*
D19*
X525970000Y4360000D03*
D16*
X537050000Y-26730000D03*
D17*
X537050000Y-27295000D03*
D16*
X537050000Y-29670000D03*
D18*
X537050000Y-28870000D03*
D19*
X537050000Y-28120000D03*
D16*
X520780000Y22110000D03*
D17*
X520780000Y21545000D03*
D16*
X520780000Y19170000D03*
D18*
X520780000Y19970000D03*
D19*
X520780000Y20720000D03*
D16*
X542950000Y-42850000D03*
D17*
X542950000Y-43415000D03*
D16*
X542950000Y-45790000D03*
D18*
X542950000Y-44990000D03*
D19*
X542950000Y-44240000D03*
D16*
X515810000Y38530000D03*
D17*
X515810000Y37965000D03*
D16*
X515810000Y35590000D03*
D18*
X515810000Y36390000D03*
D19*
X515810000Y37140000D03*
D16*
X511070000Y55040000D03*
D17*
X511070000Y54475000D03*
D16*
X511070000Y52100000D03*
D18*
X511070000Y52900000D03*
D19*
X511070000Y53650000D03*
D16*
X506540000Y71590000D03*
D17*
X506540000Y71025000D03*
D16*
X506540000Y68650000D03*
D18*
X506540000Y69450000D03*
D19*
X506540000Y70200000D03*
D16*
X502220000Y88200000D03*
D17*
X502220000Y87635000D03*
D16*
X502220000Y85260000D03*
D18*
X502220000Y86060000D03*
D19*
X502220000Y86810000D03*
D16*
X498090000Y104855000D03*
D17*
X498090000Y104290000D03*
D16*
X498090000Y101915000D03*
D18*
X498090000Y102715000D03*
D19*
X498090000Y103465000D03*
D20*
G36*
X574394504Y-20741204D02*
G01*
X574418773Y-20744804D01*
X574442571Y-20750765D01*
X574465671Y-20759030D01*
X574487849Y-20769520D01*
X574508893Y-20782133D01*
X574528598Y-20796747D01*
X574546777Y-20813223D01*
X574563253Y-20831402D01*
X574577867Y-20851107D01*
X574590480Y-20872151D01*
X574600970Y-20894329D01*
X574609235Y-20917429D01*
X574615196Y-20941227D01*
X574618796Y-20965496D01*
X574620000Y-20990000D01*
X574620000Y-23990000D01*
X574618796Y-24014504D01*
X574615196Y-24038773D01*
X574609235Y-24062571D01*
X574600970Y-24085671D01*
X574590480Y-24107849D01*
X574577867Y-24128893D01*
X574563253Y-24148598D01*
X574546777Y-24166777D01*
X574528598Y-24183253D01*
X574508893Y-24197867D01*
X574487849Y-24210480D01*
X574465671Y-24220970D01*
X574442571Y-24229235D01*
X574418773Y-24235196D01*
X574394504Y-24238796D01*
X574370000Y-24240000D01*
X573270000Y-24240000D01*
X573245496Y-24238796D01*
X573221227Y-24235196D01*
X573197429Y-24229235D01*
X573174329Y-24220970D01*
X573152151Y-24210480D01*
X573131107Y-24197867D01*
X573111402Y-24183253D01*
X573093223Y-24166777D01*
X573076747Y-24148598D01*
X573062133Y-24128893D01*
X573049520Y-24107849D01*
X573039030Y-24085671D01*
X573030765Y-24062571D01*
X573024804Y-24038773D01*
X573021204Y-24014504D01*
X573020000Y-23990000D01*
X573020000Y-20990000D01*
X573021204Y-20965496D01*
X573024804Y-20941227D01*
X573030765Y-20917429D01*
X573039030Y-20894329D01*
X573049520Y-20872151D01*
X573062133Y-20851107D01*
X573076747Y-20831402D01*
X573093223Y-20813223D01*
X573111402Y-20796747D01*
X573131107Y-20782133D01*
X573152151Y-20769520D01*
X573174329Y-20759030D01*
X573197429Y-20750765D01*
X573221227Y-20744804D01*
X573245496Y-20741204D01*
X573270000Y-20740000D01*
X574370000Y-20740000D01*
X574394504Y-20741204D01*
X574394504Y-20741204D01*
G37*
D21*
X573820000Y-22490000D03*
D20*
G36*
X574394504Y-26341204D02*
G01*
X574418773Y-26344804D01*
X574442571Y-26350765D01*
X574465671Y-26359030D01*
X574487849Y-26369520D01*
X574508893Y-26382133D01*
X574528598Y-26396747D01*
X574546777Y-26413223D01*
X574563253Y-26431402D01*
X574577867Y-26451107D01*
X574590480Y-26472151D01*
X574600970Y-26494329D01*
X574609235Y-26517429D01*
X574615196Y-26541227D01*
X574618796Y-26565496D01*
X574620000Y-26590000D01*
X574620000Y-29590000D01*
X574618796Y-29614504D01*
X574615196Y-29638773D01*
X574609235Y-29662571D01*
X574600970Y-29685671D01*
X574590480Y-29707849D01*
X574577867Y-29728893D01*
X574563253Y-29748598D01*
X574546777Y-29766777D01*
X574528598Y-29783253D01*
X574508893Y-29797867D01*
X574487849Y-29810480D01*
X574465671Y-29820970D01*
X574442571Y-29829235D01*
X574418773Y-29835196D01*
X574394504Y-29838796D01*
X574370000Y-29840000D01*
X573270000Y-29840000D01*
X573245496Y-29838796D01*
X573221227Y-29835196D01*
X573197429Y-29829235D01*
X573174329Y-29820970D01*
X573152151Y-29810480D01*
X573131107Y-29797867D01*
X573111402Y-29783253D01*
X573093223Y-29766777D01*
X573076747Y-29748598D01*
X573062133Y-29728893D01*
X573049520Y-29707849D01*
X573039030Y-29685671D01*
X573030765Y-29662571D01*
X573024804Y-29638773D01*
X573021204Y-29614504D01*
X573020000Y-29590000D01*
X573020000Y-26590000D01*
X573021204Y-26565496D01*
X573024804Y-26541227D01*
X573030765Y-26517429D01*
X573039030Y-26494329D01*
X573049520Y-26472151D01*
X573062133Y-26451107D01*
X573076747Y-26431402D01*
X573093223Y-26413223D01*
X573111402Y-26396747D01*
X573131107Y-26382133D01*
X573152151Y-26369520D01*
X573174329Y-26359030D01*
X573197429Y-26350765D01*
X573221227Y-26344804D01*
X573245496Y-26341204D01*
X573270000Y-26340000D01*
X574370000Y-26340000D01*
X574394504Y-26341204D01*
X574394504Y-26341204D01*
G37*
D21*
X573820000Y-28090000D03*
D22*
X594047024Y-52277942D03*
D20*
G36*
X592918305Y-51984695D02*
G01*
X594836933Y-51420012D01*
X595175743Y-52571189D01*
X593257115Y-53135872D01*
X592918305Y-51984695D01*
X592918305Y-51984695D01*
G37*
D22*
X593200000Y-49400000D03*
D20*
G36*
X592071281Y-49106753D02*
G01*
X593989909Y-48542070D01*
X594328719Y-49693247D01*
X592410091Y-50257930D01*
X592071281Y-49106753D01*
X592071281Y-49106753D01*
G37*
D22*
X592352976Y-46522058D03*
D20*
G36*
X591224257Y-46228811D02*
G01*
X593142885Y-45664128D01*
X593481695Y-46815305D01*
X591563067Y-47379988D01*
X591224257Y-46228811D01*
X591224257Y-46228811D01*
G37*
D23*
X592558470Y-43855549D03*
D20*
G36*
X591579263Y-43361937D02*
G01*
X593114165Y-42910190D01*
X593537677Y-44349161D01*
X592002775Y-44800908D01*
X591579263Y-43361937D01*
X591579263Y-43361937D01*
G37*
D23*
X595664226Y-54408002D03*
D20*
G36*
X594685019Y-53914390D02*
G01*
X596219921Y-53462643D01*
X596643433Y-54901614D01*
X595108531Y-55353361D01*
X594685019Y-53914390D01*
X594685019Y-53914390D01*
G37*
D24*
X571770000Y-15900000D03*
D25*
X573270000Y-16945000D03*
X570270000Y-16945000D03*
X570270000Y-13645000D03*
D26*
X571770000Y-13745000D03*
D25*
X573270000Y-13645000D03*
D20*
G36*
X575032691Y-19020053D02*
G01*
X575053926Y-19023203D01*
X575074750Y-19028419D01*
X575094962Y-19035651D01*
X575114368Y-19044830D01*
X575132781Y-19055866D01*
X575150024Y-19068654D01*
X575165930Y-19083070D01*
X575180346Y-19098976D01*
X575193134Y-19116219D01*
X575204170Y-19134632D01*
X575213349Y-19154038D01*
X575220581Y-19174250D01*
X575225797Y-19195074D01*
X575228947Y-19216309D01*
X575230000Y-19237750D01*
X575230000Y-19750250D01*
X575228947Y-19771691D01*
X575225797Y-19792926D01*
X575220581Y-19813750D01*
X575213349Y-19833962D01*
X575204170Y-19853368D01*
X575193134Y-19871781D01*
X575180346Y-19889024D01*
X575165930Y-19904930D01*
X575150024Y-19919346D01*
X575132781Y-19932134D01*
X575114368Y-19943170D01*
X575094962Y-19952349D01*
X575074750Y-19959581D01*
X575053926Y-19964797D01*
X575032691Y-19967947D01*
X575011250Y-19969000D01*
X574573750Y-19969000D01*
X574552309Y-19967947D01*
X574531074Y-19964797D01*
X574510250Y-19959581D01*
X574490038Y-19952349D01*
X574470632Y-19943170D01*
X574452219Y-19932134D01*
X574434976Y-19919346D01*
X574419070Y-19904930D01*
X574404654Y-19889024D01*
X574391866Y-19871781D01*
X574380830Y-19853368D01*
X574371651Y-19833962D01*
X574364419Y-19813750D01*
X574359203Y-19792926D01*
X574356053Y-19771691D01*
X574355000Y-19750250D01*
X574355000Y-19237750D01*
X574356053Y-19216309D01*
X574359203Y-19195074D01*
X574364419Y-19174250D01*
X574371651Y-19154038D01*
X574380830Y-19134632D01*
X574391866Y-19116219D01*
X574404654Y-19098976D01*
X574419070Y-19083070D01*
X574434976Y-19068654D01*
X574452219Y-19055866D01*
X574470632Y-19044830D01*
X574490038Y-19035651D01*
X574510250Y-19028419D01*
X574531074Y-19023203D01*
X574552309Y-19020053D01*
X574573750Y-19019000D01*
X575011250Y-19019000D01*
X575032691Y-19020053D01*
X575032691Y-19020053D01*
G37*
D27*
X574792500Y-19494000D03*
D20*
G36*
X576607691Y-19020053D02*
G01*
X576628926Y-19023203D01*
X576649750Y-19028419D01*
X576669962Y-19035651D01*
X576689368Y-19044830D01*
X576707781Y-19055866D01*
X576725024Y-19068654D01*
X576740930Y-19083070D01*
X576755346Y-19098976D01*
X576768134Y-19116219D01*
X576779170Y-19134632D01*
X576788349Y-19154038D01*
X576795581Y-19174250D01*
X576800797Y-19195074D01*
X576803947Y-19216309D01*
X576805000Y-19237750D01*
X576805000Y-19750250D01*
X576803947Y-19771691D01*
X576800797Y-19792926D01*
X576795581Y-19813750D01*
X576788349Y-19833962D01*
X576779170Y-19853368D01*
X576768134Y-19871781D01*
X576755346Y-19889024D01*
X576740930Y-19904930D01*
X576725024Y-19919346D01*
X576707781Y-19932134D01*
X576689368Y-19943170D01*
X576669962Y-19952349D01*
X576649750Y-19959581D01*
X576628926Y-19964797D01*
X576607691Y-19967947D01*
X576586250Y-19969000D01*
X576148750Y-19969000D01*
X576127309Y-19967947D01*
X576106074Y-19964797D01*
X576085250Y-19959581D01*
X576065038Y-19952349D01*
X576045632Y-19943170D01*
X576027219Y-19932134D01*
X576009976Y-19919346D01*
X575994070Y-19904930D01*
X575979654Y-19889024D01*
X575966866Y-19871781D01*
X575955830Y-19853368D01*
X575946651Y-19833962D01*
X575939419Y-19813750D01*
X575934203Y-19792926D01*
X575931053Y-19771691D01*
X575930000Y-19750250D01*
X575930000Y-19237750D01*
X575931053Y-19216309D01*
X575934203Y-19195074D01*
X575939419Y-19174250D01*
X575946651Y-19154038D01*
X575955830Y-19134632D01*
X575966866Y-19116219D01*
X575979654Y-19098976D01*
X575994070Y-19083070D01*
X576009976Y-19068654D01*
X576027219Y-19055866D01*
X576045632Y-19044830D01*
X576065038Y-19035651D01*
X576085250Y-19028419D01*
X576106074Y-19023203D01*
X576127309Y-19020053D01*
X576148750Y-19019000D01*
X576586250Y-19019000D01*
X576607691Y-19020053D01*
X576607691Y-19020053D01*
G37*
D27*
X576367500Y-19494000D03*
D20*
G36*
X568863504Y-15949004D02*
G01*
X568887773Y-15952604D01*
X568911571Y-15958565D01*
X568934671Y-15966830D01*
X568956849Y-15977320D01*
X568977893Y-15989933D01*
X568997598Y-16004547D01*
X569015777Y-16021023D01*
X569032253Y-16039202D01*
X569046867Y-16058907D01*
X569059480Y-16079951D01*
X569069970Y-16102129D01*
X569078235Y-16125229D01*
X569084196Y-16149027D01*
X569087796Y-16173296D01*
X569089000Y-16197800D01*
X569089000Y-16947800D01*
X569087796Y-16972304D01*
X569084196Y-16996573D01*
X569078235Y-17020371D01*
X569069970Y-17043471D01*
X569059480Y-17065649D01*
X569046867Y-17086693D01*
X569032253Y-17106398D01*
X569015777Y-17124577D01*
X568997598Y-17141053D01*
X568977893Y-17155667D01*
X568956849Y-17168280D01*
X568934671Y-17178770D01*
X568911571Y-17187035D01*
X568887773Y-17192996D01*
X568863504Y-17196596D01*
X568839000Y-17197800D01*
X567589000Y-17197800D01*
X567564496Y-17196596D01*
X567540227Y-17192996D01*
X567516429Y-17187035D01*
X567493329Y-17178770D01*
X567471151Y-17168280D01*
X567450107Y-17155667D01*
X567430402Y-17141053D01*
X567412223Y-17124577D01*
X567395747Y-17106398D01*
X567381133Y-17086693D01*
X567368520Y-17065649D01*
X567358030Y-17043471D01*
X567349765Y-17020371D01*
X567343804Y-16996573D01*
X567340204Y-16972304D01*
X567339000Y-16947800D01*
X567339000Y-16197800D01*
X567340204Y-16173296D01*
X567343804Y-16149027D01*
X567349765Y-16125229D01*
X567358030Y-16102129D01*
X567368520Y-16079951D01*
X567381133Y-16058907D01*
X567395747Y-16039202D01*
X567412223Y-16021023D01*
X567430402Y-16004547D01*
X567450107Y-15989933D01*
X567471151Y-15977320D01*
X567493329Y-15966830D01*
X567516429Y-15958565D01*
X567540227Y-15952604D01*
X567564496Y-15949004D01*
X567589000Y-15947800D01*
X568839000Y-15947800D01*
X568863504Y-15949004D01*
X568863504Y-15949004D01*
G37*
D28*
X568214000Y-16572800D03*
D20*
G36*
X568863504Y-13149004D02*
G01*
X568887773Y-13152604D01*
X568911571Y-13158565D01*
X568934671Y-13166830D01*
X568956849Y-13177320D01*
X568977893Y-13189933D01*
X568997598Y-13204547D01*
X569015777Y-13221023D01*
X569032253Y-13239202D01*
X569046867Y-13258907D01*
X569059480Y-13279951D01*
X569069970Y-13302129D01*
X569078235Y-13325229D01*
X569084196Y-13349027D01*
X569087796Y-13373296D01*
X569089000Y-13397800D01*
X569089000Y-14147800D01*
X569087796Y-14172304D01*
X569084196Y-14196573D01*
X569078235Y-14220371D01*
X569069970Y-14243471D01*
X569059480Y-14265649D01*
X569046867Y-14286693D01*
X569032253Y-14306398D01*
X569015777Y-14324577D01*
X568997598Y-14341053D01*
X568977893Y-14355667D01*
X568956849Y-14368280D01*
X568934671Y-14378770D01*
X568911571Y-14387035D01*
X568887773Y-14392996D01*
X568863504Y-14396596D01*
X568839000Y-14397800D01*
X567589000Y-14397800D01*
X567564496Y-14396596D01*
X567540227Y-14392996D01*
X567516429Y-14387035D01*
X567493329Y-14378770D01*
X567471151Y-14368280D01*
X567450107Y-14355667D01*
X567430402Y-14341053D01*
X567412223Y-14324577D01*
X567395747Y-14306398D01*
X567381133Y-14286693D01*
X567368520Y-14265649D01*
X567358030Y-14243471D01*
X567349765Y-14220371D01*
X567343804Y-14196573D01*
X567340204Y-14172304D01*
X567339000Y-14147800D01*
X567339000Y-13397800D01*
X567340204Y-13373296D01*
X567343804Y-13349027D01*
X567349765Y-13325229D01*
X567358030Y-13302129D01*
X567368520Y-13279951D01*
X567381133Y-13258907D01*
X567395747Y-13239202D01*
X567412223Y-13221023D01*
X567430402Y-13204547D01*
X567450107Y-13189933D01*
X567471151Y-13177320D01*
X567493329Y-13166830D01*
X567516429Y-13158565D01*
X567540227Y-13152604D01*
X567564496Y-13149004D01*
X567589000Y-13147800D01*
X568839000Y-13147800D01*
X568863504Y-13149004D01*
X568863504Y-13149004D01*
G37*
D28*
X568214000Y-13772800D03*
D29*
X578628000Y-15981000D03*
X578628000Y-11831000D03*
D20*
G36*
X567527691Y6373947D02*
G01*
X567548926Y6370797D01*
X567569750Y6365581D01*
X567589962Y6358349D01*
X567609368Y6349170D01*
X567627781Y6338134D01*
X567645024Y6325346D01*
X567660930Y6310930D01*
X567675346Y6295024D01*
X567688134Y6277781D01*
X567699170Y6259368D01*
X567708349Y6239962D01*
X567715581Y6219750D01*
X567720797Y6198926D01*
X567723947Y6177691D01*
X567725000Y6156250D01*
X567725000Y5643750D01*
X567723947Y5622309D01*
X567720797Y5601074D01*
X567715581Y5580250D01*
X567708349Y5560038D01*
X567699170Y5540632D01*
X567688134Y5522219D01*
X567675346Y5504976D01*
X567660930Y5489070D01*
X567645024Y5474654D01*
X567627781Y5461866D01*
X567609368Y5450830D01*
X567589962Y5441651D01*
X567569750Y5434419D01*
X567548926Y5429203D01*
X567527691Y5426053D01*
X567506250Y5425000D01*
X567068750Y5425000D01*
X567047309Y5426053D01*
X567026074Y5429203D01*
X567005250Y5434419D01*
X566985038Y5441651D01*
X566965632Y5450830D01*
X566947219Y5461866D01*
X566929976Y5474654D01*
X566914070Y5489070D01*
X566899654Y5504976D01*
X566886866Y5522219D01*
X566875830Y5540632D01*
X566866651Y5560038D01*
X566859419Y5580250D01*
X566854203Y5601074D01*
X566851053Y5622309D01*
X566850000Y5643750D01*
X566850000Y6156250D01*
X566851053Y6177691D01*
X566854203Y6198926D01*
X566859419Y6219750D01*
X566866651Y6239962D01*
X566875830Y6259368D01*
X566886866Y6277781D01*
X566899654Y6295024D01*
X566914070Y6310930D01*
X566929976Y6325346D01*
X566947219Y6338134D01*
X566965632Y6349170D01*
X566985038Y6358349D01*
X567005250Y6365581D01*
X567026074Y6370797D01*
X567047309Y6373947D01*
X567068750Y6375000D01*
X567506250Y6375000D01*
X567527691Y6373947D01*
X567527691Y6373947D01*
G37*
D27*
X567287500Y5900000D03*
D20*
G36*
X565952691Y6373947D02*
G01*
X565973926Y6370797D01*
X565994750Y6365581D01*
X566014962Y6358349D01*
X566034368Y6349170D01*
X566052781Y6338134D01*
X566070024Y6325346D01*
X566085930Y6310930D01*
X566100346Y6295024D01*
X566113134Y6277781D01*
X566124170Y6259368D01*
X566133349Y6239962D01*
X566140581Y6219750D01*
X566145797Y6198926D01*
X566148947Y6177691D01*
X566150000Y6156250D01*
X566150000Y5643750D01*
X566148947Y5622309D01*
X566145797Y5601074D01*
X566140581Y5580250D01*
X566133349Y5560038D01*
X566124170Y5540632D01*
X566113134Y5522219D01*
X566100346Y5504976D01*
X566085930Y5489070D01*
X566070024Y5474654D01*
X566052781Y5461866D01*
X566034368Y5450830D01*
X566014962Y5441651D01*
X565994750Y5434419D01*
X565973926Y5429203D01*
X565952691Y5426053D01*
X565931250Y5425000D01*
X565493750Y5425000D01*
X565472309Y5426053D01*
X565451074Y5429203D01*
X565430250Y5434419D01*
X565410038Y5441651D01*
X565390632Y5450830D01*
X565372219Y5461866D01*
X565354976Y5474654D01*
X565339070Y5489070D01*
X565324654Y5504976D01*
X565311866Y5522219D01*
X565300830Y5540632D01*
X565291651Y5560038D01*
X565284419Y5580250D01*
X565279203Y5601074D01*
X565276053Y5622309D01*
X565275000Y5643750D01*
X565275000Y6156250D01*
X565276053Y6177691D01*
X565279203Y6198926D01*
X565284419Y6219750D01*
X565291651Y6239962D01*
X565300830Y6259368D01*
X565311866Y6277781D01*
X565324654Y6295024D01*
X565339070Y6310930D01*
X565354976Y6325346D01*
X565372219Y6338134D01*
X565390632Y6349170D01*
X565410038Y6358349D01*
X565430250Y6365581D01*
X565451074Y6370797D01*
X565472309Y6373947D01*
X565493750Y6375000D01*
X565931250Y6375000D01*
X565952691Y6373947D01*
X565952691Y6373947D01*
G37*
D27*
X565712500Y5900000D03*
D20*
G36*
X559915504Y12207796D02*
G01*
X559939773Y12204196D01*
X559963571Y12198235D01*
X559986671Y12189970D01*
X560008849Y12179480D01*
X560029893Y12166867D01*
X560049598Y12152253D01*
X560067777Y12135777D01*
X560084253Y12117598D01*
X560098867Y12097893D01*
X560111480Y12076849D01*
X560121970Y12054671D01*
X560130235Y12031571D01*
X560136196Y12007773D01*
X560139796Y11983504D01*
X560141000Y11959000D01*
X560141000Y11209000D01*
X560139796Y11184496D01*
X560136196Y11160227D01*
X560130235Y11136429D01*
X560121970Y11113329D01*
X560111480Y11091151D01*
X560098867Y11070107D01*
X560084253Y11050402D01*
X560067777Y11032223D01*
X560049598Y11015747D01*
X560029893Y11001133D01*
X560008849Y10988520D01*
X559986671Y10978030D01*
X559963571Y10969765D01*
X559939773Y10963804D01*
X559915504Y10960204D01*
X559891000Y10959000D01*
X558641000Y10959000D01*
X558616496Y10960204D01*
X558592227Y10963804D01*
X558568429Y10969765D01*
X558545329Y10978030D01*
X558523151Y10988520D01*
X558502107Y11001133D01*
X558482402Y11015747D01*
X558464223Y11032223D01*
X558447747Y11050402D01*
X558433133Y11070107D01*
X558420520Y11091151D01*
X558410030Y11113329D01*
X558401765Y11136429D01*
X558395804Y11160227D01*
X558392204Y11184496D01*
X558391000Y11209000D01*
X558391000Y11959000D01*
X558392204Y11983504D01*
X558395804Y12007773D01*
X558401765Y12031571D01*
X558410030Y12054671D01*
X558420520Y12076849D01*
X558433133Y12097893D01*
X558447747Y12117598D01*
X558464223Y12135777D01*
X558482402Y12152253D01*
X558502107Y12166867D01*
X558523151Y12179480D01*
X558545329Y12189970D01*
X558568429Y12198235D01*
X558592227Y12204196D01*
X558616496Y12207796D01*
X558641000Y12209000D01*
X559891000Y12209000D01*
X559915504Y12207796D01*
X559915504Y12207796D01*
G37*
D28*
X559266000Y11584000D03*
D20*
G36*
X559915504Y9407796D02*
G01*
X559939773Y9404196D01*
X559963571Y9398235D01*
X559986671Y9389970D01*
X560008849Y9379480D01*
X560029893Y9366867D01*
X560049598Y9352253D01*
X560067777Y9335777D01*
X560084253Y9317598D01*
X560098867Y9297893D01*
X560111480Y9276849D01*
X560121970Y9254671D01*
X560130235Y9231571D01*
X560136196Y9207773D01*
X560139796Y9183504D01*
X560141000Y9159000D01*
X560141000Y8409000D01*
X560139796Y8384496D01*
X560136196Y8360227D01*
X560130235Y8336429D01*
X560121970Y8313329D01*
X560111480Y8291151D01*
X560098867Y8270107D01*
X560084253Y8250402D01*
X560067777Y8232223D01*
X560049598Y8215747D01*
X560029893Y8201133D01*
X560008849Y8188520D01*
X559986671Y8178030D01*
X559963571Y8169765D01*
X559939773Y8163804D01*
X559915504Y8160204D01*
X559891000Y8159000D01*
X558641000Y8159000D01*
X558616496Y8160204D01*
X558592227Y8163804D01*
X558568429Y8169765D01*
X558545329Y8178030D01*
X558523151Y8188520D01*
X558502107Y8201133D01*
X558482402Y8215747D01*
X558464223Y8232223D01*
X558447747Y8250402D01*
X558433133Y8270107D01*
X558420520Y8291151D01*
X558410030Y8313329D01*
X558401765Y8336429D01*
X558395804Y8360227D01*
X558392204Y8384496D01*
X558391000Y8409000D01*
X558391000Y9159000D01*
X558392204Y9183504D01*
X558395804Y9207773D01*
X558401765Y9231571D01*
X558410030Y9254671D01*
X558420520Y9276849D01*
X558433133Y9297893D01*
X558447747Y9317598D01*
X558464223Y9335777D01*
X558482402Y9352253D01*
X558502107Y9366867D01*
X558523151Y9379480D01*
X558545329Y9389970D01*
X558568429Y9398235D01*
X558592227Y9404196D01*
X558616496Y9407796D01*
X558641000Y9409000D01*
X559891000Y9409000D01*
X559915504Y9407796D01*
X559915504Y9407796D01*
G37*
D28*
X559266000Y8784000D03*
D29*
X569516000Y13674000D03*
X569516000Y9524000D03*
D25*
X564306000Y11779000D03*
D26*
X562806000Y11679000D03*
D25*
X561306000Y11779000D03*
X561306000Y8479000D03*
X564306000Y8479000D03*
D24*
X562806000Y9524000D03*
D30*
X579420000Y-21240000D03*
X579420000Y-17940000D03*
X570416000Y7484000D03*
X570416000Y4184000D03*
D20*
G36*
X561675504Y7207796D02*
G01*
X561699773Y7204196D01*
X561723571Y7198235D01*
X561746671Y7189970D01*
X561768849Y7179480D01*
X561789893Y7166867D01*
X561809598Y7152253D01*
X561827777Y7135777D01*
X561844253Y7117598D01*
X561858867Y7097893D01*
X561871480Y7076849D01*
X561881970Y7054671D01*
X561890235Y7031571D01*
X561896196Y7007773D01*
X561899796Y6983504D01*
X561901000Y6959000D01*
X561901000Y5709000D01*
X561899796Y5684496D01*
X561896196Y5660227D01*
X561890235Y5636429D01*
X561881970Y5613329D01*
X561871480Y5591151D01*
X561858867Y5570107D01*
X561844253Y5550402D01*
X561827777Y5532223D01*
X561809598Y5515747D01*
X561789893Y5501133D01*
X561768849Y5488520D01*
X561746671Y5478030D01*
X561723571Y5469765D01*
X561699773Y5463804D01*
X561675504Y5460204D01*
X561651000Y5459000D01*
X560901000Y5459000D01*
X560876496Y5460204D01*
X560852227Y5463804D01*
X560828429Y5469765D01*
X560805329Y5478030D01*
X560783151Y5488520D01*
X560762107Y5501133D01*
X560742402Y5515747D01*
X560724223Y5532223D01*
X560707747Y5550402D01*
X560693133Y5570107D01*
X560680520Y5591151D01*
X560670030Y5613329D01*
X560661765Y5636429D01*
X560655804Y5660227D01*
X560652204Y5684496D01*
X560651000Y5709000D01*
X560651000Y6959000D01*
X560652204Y6983504D01*
X560655804Y7007773D01*
X560661765Y7031571D01*
X560670030Y7054671D01*
X560680520Y7076849D01*
X560693133Y7097893D01*
X560707747Y7117598D01*
X560724223Y7135777D01*
X560742402Y7152253D01*
X560762107Y7166867D01*
X560783151Y7179480D01*
X560805329Y7189970D01*
X560828429Y7198235D01*
X560852227Y7204196D01*
X560876496Y7207796D01*
X560901000Y7209000D01*
X561651000Y7209000D01*
X561675504Y7207796D01*
X561675504Y7207796D01*
G37*
D28*
X561276000Y6334000D03*
D20*
G36*
X564475504Y7207796D02*
G01*
X564499773Y7204196D01*
X564523571Y7198235D01*
X564546671Y7189970D01*
X564568849Y7179480D01*
X564589893Y7166867D01*
X564609598Y7152253D01*
X564627777Y7135777D01*
X564644253Y7117598D01*
X564658867Y7097893D01*
X564671480Y7076849D01*
X564681970Y7054671D01*
X564690235Y7031571D01*
X564696196Y7007773D01*
X564699796Y6983504D01*
X564701000Y6959000D01*
X564701000Y5709000D01*
X564699796Y5684496D01*
X564696196Y5660227D01*
X564690235Y5636429D01*
X564681970Y5613329D01*
X564671480Y5591151D01*
X564658867Y5570107D01*
X564644253Y5550402D01*
X564627777Y5532223D01*
X564609598Y5515747D01*
X564589893Y5501133D01*
X564568849Y5488520D01*
X564546671Y5478030D01*
X564523571Y5469765D01*
X564499773Y5463804D01*
X564475504Y5460204D01*
X564451000Y5459000D01*
X563701000Y5459000D01*
X563676496Y5460204D01*
X563652227Y5463804D01*
X563628429Y5469765D01*
X563605329Y5478030D01*
X563583151Y5488520D01*
X563562107Y5501133D01*
X563542402Y5515747D01*
X563524223Y5532223D01*
X563507747Y5550402D01*
X563493133Y5570107D01*
X563480520Y5591151D01*
X563470030Y5613329D01*
X563461765Y5636429D01*
X563455804Y5660227D01*
X563452204Y5684496D01*
X563451000Y5709000D01*
X563451000Y6959000D01*
X563452204Y6983504D01*
X563455804Y7007773D01*
X563461765Y7031571D01*
X563470030Y7054671D01*
X563480520Y7076849D01*
X563493133Y7097893D01*
X563507747Y7117598D01*
X563524223Y7135777D01*
X563542402Y7152253D01*
X563562107Y7166867D01*
X563583151Y7179480D01*
X563605329Y7189970D01*
X563628429Y7198235D01*
X563652227Y7204196D01*
X563676496Y7207796D01*
X563701000Y7209000D01*
X564451000Y7209000D01*
X564475504Y7207796D01*
X564475504Y7207796D01*
G37*
D28*
X564076000Y6334000D03*
D20*
G36*
X571669504Y-8466204D02*
G01*
X571693773Y-8469804D01*
X571717571Y-8475765D01*
X571740671Y-8484030D01*
X571762849Y-8494520D01*
X571783893Y-8507133D01*
X571803598Y-8521747D01*
X571821777Y-8538223D01*
X571838253Y-8556402D01*
X571852867Y-8576107D01*
X571865480Y-8597151D01*
X571875970Y-8619329D01*
X571884235Y-8642429D01*
X571890196Y-8666227D01*
X571893796Y-8690496D01*
X571895000Y-8715000D01*
X571895000Y-9465000D01*
X571893796Y-9489504D01*
X571890196Y-9513773D01*
X571884235Y-9537571D01*
X571875970Y-9560671D01*
X571865480Y-9582849D01*
X571852867Y-9603893D01*
X571838253Y-9623598D01*
X571821777Y-9641777D01*
X571803598Y-9658253D01*
X571783893Y-9672867D01*
X571762849Y-9685480D01*
X571740671Y-9695970D01*
X571717571Y-9704235D01*
X571693773Y-9710196D01*
X571669504Y-9713796D01*
X571645000Y-9715000D01*
X570395000Y-9715000D01*
X570370496Y-9713796D01*
X570346227Y-9710196D01*
X570322429Y-9704235D01*
X570299329Y-9695970D01*
X570277151Y-9685480D01*
X570256107Y-9672867D01*
X570236402Y-9658253D01*
X570218223Y-9641777D01*
X570201747Y-9623598D01*
X570187133Y-9603893D01*
X570174520Y-9582849D01*
X570164030Y-9560671D01*
X570155765Y-9537571D01*
X570149804Y-9513773D01*
X570146204Y-9489504D01*
X570145000Y-9465000D01*
X570145000Y-8715000D01*
X570146204Y-8690496D01*
X570149804Y-8666227D01*
X570155765Y-8642429D01*
X570164030Y-8619329D01*
X570174520Y-8597151D01*
X570187133Y-8576107D01*
X570201747Y-8556402D01*
X570218223Y-8538223D01*
X570236402Y-8521747D01*
X570256107Y-8507133D01*
X570277151Y-8494520D01*
X570299329Y-8484030D01*
X570322429Y-8475765D01*
X570346227Y-8469804D01*
X570370496Y-8466204D01*
X570395000Y-8465000D01*
X571645000Y-8465000D01*
X571669504Y-8466204D01*
X571669504Y-8466204D01*
G37*
D28*
X571020000Y-9090000D03*
D20*
G36*
X571669504Y-11266204D02*
G01*
X571693773Y-11269804D01*
X571717571Y-11275765D01*
X571740671Y-11284030D01*
X571762849Y-11294520D01*
X571783893Y-11307133D01*
X571803598Y-11321747D01*
X571821777Y-11338223D01*
X571838253Y-11356402D01*
X571852867Y-11376107D01*
X571865480Y-11397151D01*
X571875970Y-11419329D01*
X571884235Y-11442429D01*
X571890196Y-11466227D01*
X571893796Y-11490496D01*
X571895000Y-11515000D01*
X571895000Y-12265000D01*
X571893796Y-12289504D01*
X571890196Y-12313773D01*
X571884235Y-12337571D01*
X571875970Y-12360671D01*
X571865480Y-12382849D01*
X571852867Y-12403893D01*
X571838253Y-12423598D01*
X571821777Y-12441777D01*
X571803598Y-12458253D01*
X571783893Y-12472867D01*
X571762849Y-12485480D01*
X571740671Y-12495970D01*
X571717571Y-12504235D01*
X571693773Y-12510196D01*
X571669504Y-12513796D01*
X571645000Y-12515000D01*
X570395000Y-12515000D01*
X570370496Y-12513796D01*
X570346227Y-12510196D01*
X570322429Y-12504235D01*
X570299329Y-12495970D01*
X570277151Y-12485480D01*
X570256107Y-12472867D01*
X570236402Y-12458253D01*
X570218223Y-12441777D01*
X570201747Y-12423598D01*
X570187133Y-12403893D01*
X570174520Y-12382849D01*
X570164030Y-12360671D01*
X570155765Y-12337571D01*
X570149804Y-12313773D01*
X570146204Y-12289504D01*
X570145000Y-12265000D01*
X570145000Y-11515000D01*
X570146204Y-11490496D01*
X570149804Y-11466227D01*
X570155765Y-11442429D01*
X570164030Y-11419329D01*
X570174520Y-11397151D01*
X570187133Y-11376107D01*
X570201747Y-11356402D01*
X570218223Y-11338223D01*
X570236402Y-11321747D01*
X570256107Y-11307133D01*
X570277151Y-11294520D01*
X570299329Y-11284030D01*
X570322429Y-11275765D01*
X570346227Y-11269804D01*
X570370496Y-11266204D01*
X570395000Y-11265000D01*
X571645000Y-11265000D01*
X571669504Y-11266204D01*
X571669504Y-11266204D01*
G37*
D28*
X571020000Y-11890000D03*
D20*
G36*
X562539504Y14151796D02*
G01*
X562563773Y14148196D01*
X562587571Y14142235D01*
X562610671Y14133970D01*
X562632849Y14123480D01*
X562653893Y14110867D01*
X562673598Y14096253D01*
X562691777Y14079777D01*
X562708253Y14061598D01*
X562722867Y14041893D01*
X562735480Y14020849D01*
X562745970Y13998671D01*
X562754235Y13975571D01*
X562760196Y13951773D01*
X562763796Y13927504D01*
X562765000Y13903000D01*
X562765000Y13153000D01*
X562763796Y13128496D01*
X562760196Y13104227D01*
X562754235Y13080429D01*
X562745970Y13057329D01*
X562735480Y13035151D01*
X562722867Y13014107D01*
X562708253Y12994402D01*
X562691777Y12976223D01*
X562673598Y12959747D01*
X562653893Y12945133D01*
X562632849Y12932520D01*
X562610671Y12922030D01*
X562587571Y12913765D01*
X562563773Y12907804D01*
X562539504Y12904204D01*
X562515000Y12903000D01*
X561265000Y12903000D01*
X561240496Y12904204D01*
X561216227Y12907804D01*
X561192429Y12913765D01*
X561169329Y12922030D01*
X561147151Y12932520D01*
X561126107Y12945133D01*
X561106402Y12959747D01*
X561088223Y12976223D01*
X561071747Y12994402D01*
X561057133Y13014107D01*
X561044520Y13035151D01*
X561034030Y13057329D01*
X561025765Y13080429D01*
X561019804Y13104227D01*
X561016204Y13128496D01*
X561015000Y13153000D01*
X561015000Y13903000D01*
X561016204Y13927504D01*
X561019804Y13951773D01*
X561025765Y13975571D01*
X561034030Y13998671D01*
X561044520Y14020849D01*
X561057133Y14041893D01*
X561071747Y14061598D01*
X561088223Y14079777D01*
X561106402Y14096253D01*
X561126107Y14110867D01*
X561147151Y14123480D01*
X561169329Y14133970D01*
X561192429Y14142235D01*
X561216227Y14148196D01*
X561240496Y14151796D01*
X561265000Y14153000D01*
X562515000Y14153000D01*
X562539504Y14151796D01*
X562539504Y14151796D01*
G37*
D28*
X561890000Y13528000D03*
D20*
G36*
X562539504Y16951796D02*
G01*
X562563773Y16948196D01*
X562587571Y16942235D01*
X562610671Y16933970D01*
X562632849Y16923480D01*
X562653893Y16910867D01*
X562673598Y16896253D01*
X562691777Y16879777D01*
X562708253Y16861598D01*
X562722867Y16841893D01*
X562735480Y16820849D01*
X562745970Y16798671D01*
X562754235Y16775571D01*
X562760196Y16751773D01*
X562763796Y16727504D01*
X562765000Y16703000D01*
X562765000Y15953000D01*
X562763796Y15928496D01*
X562760196Y15904227D01*
X562754235Y15880429D01*
X562745970Y15857329D01*
X562735480Y15835151D01*
X562722867Y15814107D01*
X562708253Y15794402D01*
X562691777Y15776223D01*
X562673598Y15759747D01*
X562653893Y15745133D01*
X562632849Y15732520D01*
X562610671Y15722030D01*
X562587571Y15713765D01*
X562563773Y15707804D01*
X562539504Y15704204D01*
X562515000Y15703000D01*
X561265000Y15703000D01*
X561240496Y15704204D01*
X561216227Y15707804D01*
X561192429Y15713765D01*
X561169329Y15722030D01*
X561147151Y15732520D01*
X561126107Y15745133D01*
X561106402Y15759747D01*
X561088223Y15776223D01*
X561071747Y15794402D01*
X561057133Y15814107D01*
X561044520Y15835151D01*
X561034030Y15857329D01*
X561025765Y15880429D01*
X561019804Y15904227D01*
X561016204Y15928496D01*
X561015000Y15953000D01*
X561015000Y16703000D01*
X561016204Y16727504D01*
X561019804Y16751773D01*
X561025765Y16775571D01*
X561034030Y16798671D01*
X561044520Y16820849D01*
X561057133Y16841893D01*
X561071747Y16861598D01*
X561088223Y16879777D01*
X561106402Y16896253D01*
X561126107Y16910867D01*
X561147151Y16923480D01*
X561169329Y16933970D01*
X561192429Y16942235D01*
X561216227Y16948196D01*
X561240496Y16951796D01*
X561265000Y16953000D01*
X562515000Y16953000D01*
X562539504Y16951796D01*
X562539504Y16951796D01*
G37*
D28*
X561890000Y16328000D03*
D20*
G36*
X560040191Y31973947D02*
G01*
X560061426Y31970797D01*
X560082250Y31965581D01*
X560102462Y31958349D01*
X560121868Y31949170D01*
X560140281Y31938134D01*
X560157524Y31925346D01*
X560173430Y31910930D01*
X560187846Y31895024D01*
X560200634Y31877781D01*
X560211670Y31859368D01*
X560220849Y31839962D01*
X560228081Y31819750D01*
X560233297Y31798926D01*
X560236447Y31777691D01*
X560237500Y31756250D01*
X560237500Y31243750D01*
X560236447Y31222309D01*
X560233297Y31201074D01*
X560228081Y31180250D01*
X560220849Y31160038D01*
X560211670Y31140632D01*
X560200634Y31122219D01*
X560187846Y31104976D01*
X560173430Y31089070D01*
X560157524Y31074654D01*
X560140281Y31061866D01*
X560121868Y31050830D01*
X560102462Y31041651D01*
X560082250Y31034419D01*
X560061426Y31029203D01*
X560040191Y31026053D01*
X560018750Y31025000D01*
X559581250Y31025000D01*
X559559809Y31026053D01*
X559538574Y31029203D01*
X559517750Y31034419D01*
X559497538Y31041651D01*
X559478132Y31050830D01*
X559459719Y31061866D01*
X559442476Y31074654D01*
X559426570Y31089070D01*
X559412154Y31104976D01*
X559399366Y31122219D01*
X559388330Y31140632D01*
X559379151Y31160038D01*
X559371919Y31180250D01*
X559366703Y31201074D01*
X559363553Y31222309D01*
X559362500Y31243750D01*
X559362500Y31756250D01*
X559363553Y31777691D01*
X559366703Y31798926D01*
X559371919Y31819750D01*
X559379151Y31839962D01*
X559388330Y31859368D01*
X559399366Y31877781D01*
X559412154Y31895024D01*
X559426570Y31910930D01*
X559442476Y31925346D01*
X559459719Y31938134D01*
X559478132Y31949170D01*
X559497538Y31958349D01*
X559517750Y31965581D01*
X559538574Y31970797D01*
X559559809Y31973947D01*
X559581250Y31975000D01*
X560018750Y31975000D01*
X560040191Y31973947D01*
X560040191Y31973947D01*
G37*
D27*
X559800000Y31500000D03*
D20*
G36*
X558465191Y31973947D02*
G01*
X558486426Y31970797D01*
X558507250Y31965581D01*
X558527462Y31958349D01*
X558546868Y31949170D01*
X558565281Y31938134D01*
X558582524Y31925346D01*
X558598430Y31910930D01*
X558612846Y31895024D01*
X558625634Y31877781D01*
X558636670Y31859368D01*
X558645849Y31839962D01*
X558653081Y31819750D01*
X558658297Y31798926D01*
X558661447Y31777691D01*
X558662500Y31756250D01*
X558662500Y31243750D01*
X558661447Y31222309D01*
X558658297Y31201074D01*
X558653081Y31180250D01*
X558645849Y31160038D01*
X558636670Y31140632D01*
X558625634Y31122219D01*
X558612846Y31104976D01*
X558598430Y31089070D01*
X558582524Y31074654D01*
X558565281Y31061866D01*
X558546868Y31050830D01*
X558527462Y31041651D01*
X558507250Y31034419D01*
X558486426Y31029203D01*
X558465191Y31026053D01*
X558443750Y31025000D01*
X558006250Y31025000D01*
X557984809Y31026053D01*
X557963574Y31029203D01*
X557942750Y31034419D01*
X557922538Y31041651D01*
X557903132Y31050830D01*
X557884719Y31061866D01*
X557867476Y31074654D01*
X557851570Y31089070D01*
X557837154Y31104976D01*
X557824366Y31122219D01*
X557813330Y31140632D01*
X557804151Y31160038D01*
X557796919Y31180250D01*
X557791703Y31201074D01*
X557788553Y31222309D01*
X557787500Y31243750D01*
X557787500Y31756250D01*
X557788553Y31777691D01*
X557791703Y31798926D01*
X557796919Y31819750D01*
X557804151Y31839962D01*
X557813330Y31859368D01*
X557824366Y31877781D01*
X557837154Y31895024D01*
X557851570Y31910930D01*
X557867476Y31925346D01*
X557884719Y31938134D01*
X557903132Y31949170D01*
X557922538Y31958349D01*
X557942750Y31965581D01*
X557963574Y31970797D01*
X557984809Y31973947D01*
X558006250Y31975000D01*
X558443750Y31975000D01*
X558465191Y31973947D01*
X558465191Y31973947D01*
G37*
D27*
X558225000Y31500000D03*
D20*
G36*
X552249504Y34823796D02*
G01*
X552273773Y34820196D01*
X552297571Y34814235D01*
X552320671Y34805970D01*
X552342849Y34795480D01*
X552363893Y34782867D01*
X552383598Y34768253D01*
X552401777Y34751777D01*
X552418253Y34733598D01*
X552432867Y34713893D01*
X552445480Y34692849D01*
X552455970Y34670671D01*
X552464235Y34647571D01*
X552470196Y34623773D01*
X552473796Y34599504D01*
X552475000Y34575000D01*
X552475000Y33825000D01*
X552473796Y33800496D01*
X552470196Y33776227D01*
X552464235Y33752429D01*
X552455970Y33729329D01*
X552445480Y33707151D01*
X552432867Y33686107D01*
X552418253Y33666402D01*
X552401777Y33648223D01*
X552383598Y33631747D01*
X552363893Y33617133D01*
X552342849Y33604520D01*
X552320671Y33594030D01*
X552297571Y33585765D01*
X552273773Y33579804D01*
X552249504Y33576204D01*
X552225000Y33575000D01*
X550975000Y33575000D01*
X550950496Y33576204D01*
X550926227Y33579804D01*
X550902429Y33585765D01*
X550879329Y33594030D01*
X550857151Y33604520D01*
X550836107Y33617133D01*
X550816402Y33631747D01*
X550798223Y33648223D01*
X550781747Y33666402D01*
X550767133Y33686107D01*
X550754520Y33707151D01*
X550744030Y33729329D01*
X550735765Y33752429D01*
X550729804Y33776227D01*
X550726204Y33800496D01*
X550725000Y33825000D01*
X550725000Y34575000D01*
X550726204Y34599504D01*
X550729804Y34623773D01*
X550735765Y34647571D01*
X550744030Y34670671D01*
X550754520Y34692849D01*
X550767133Y34713893D01*
X550781747Y34733598D01*
X550798223Y34751777D01*
X550816402Y34768253D01*
X550836107Y34782867D01*
X550857151Y34795480D01*
X550879329Y34805970D01*
X550902429Y34814235D01*
X550926227Y34820196D01*
X550950496Y34823796D01*
X550975000Y34825000D01*
X552225000Y34825000D01*
X552249504Y34823796D01*
X552249504Y34823796D01*
G37*
D28*
X551600000Y34200000D03*
D20*
G36*
X552249504Y37623796D02*
G01*
X552273773Y37620196D01*
X552297571Y37614235D01*
X552320671Y37605970D01*
X552342849Y37595480D01*
X552363893Y37582867D01*
X552383598Y37568253D01*
X552401777Y37551777D01*
X552418253Y37533598D01*
X552432867Y37513893D01*
X552445480Y37492849D01*
X552455970Y37470671D01*
X552464235Y37447571D01*
X552470196Y37423773D01*
X552473796Y37399504D01*
X552475000Y37375000D01*
X552475000Y36625000D01*
X552473796Y36600496D01*
X552470196Y36576227D01*
X552464235Y36552429D01*
X552455970Y36529329D01*
X552445480Y36507151D01*
X552432867Y36486107D01*
X552418253Y36466402D01*
X552401777Y36448223D01*
X552383598Y36431747D01*
X552363893Y36417133D01*
X552342849Y36404520D01*
X552320671Y36394030D01*
X552297571Y36385765D01*
X552273773Y36379804D01*
X552249504Y36376204D01*
X552225000Y36375000D01*
X550975000Y36375000D01*
X550950496Y36376204D01*
X550926227Y36379804D01*
X550902429Y36385765D01*
X550879329Y36394030D01*
X550857151Y36404520D01*
X550836107Y36417133D01*
X550816402Y36431747D01*
X550798223Y36448223D01*
X550781747Y36466402D01*
X550767133Y36486107D01*
X550754520Y36507151D01*
X550744030Y36529329D01*
X550735765Y36552429D01*
X550729804Y36576227D01*
X550726204Y36600496D01*
X550725000Y36625000D01*
X550725000Y37375000D01*
X550726204Y37399504D01*
X550729804Y37423773D01*
X550735765Y37447571D01*
X550744030Y37470671D01*
X550754520Y37492849D01*
X550767133Y37513893D01*
X550781747Y37533598D01*
X550798223Y37551777D01*
X550816402Y37568253D01*
X550836107Y37582867D01*
X550857151Y37595480D01*
X550879329Y37605970D01*
X550902429Y37614235D01*
X550926227Y37620196D01*
X550950496Y37623796D01*
X550975000Y37625000D01*
X552225000Y37625000D01*
X552249504Y37623796D01*
X552249504Y37623796D01*
G37*
D28*
X551600000Y37000000D03*
D20*
G36*
X554849504Y39623796D02*
G01*
X554873773Y39620196D01*
X554897571Y39614235D01*
X554920671Y39605970D01*
X554942849Y39595480D01*
X554963893Y39582867D01*
X554983598Y39568253D01*
X555001777Y39551777D01*
X555018253Y39533598D01*
X555032867Y39513893D01*
X555045480Y39492849D01*
X555055970Y39470671D01*
X555064235Y39447571D01*
X555070196Y39423773D01*
X555073796Y39399504D01*
X555075000Y39375000D01*
X555075000Y38625000D01*
X555073796Y38600496D01*
X555070196Y38576227D01*
X555064235Y38552429D01*
X555055970Y38529329D01*
X555045480Y38507151D01*
X555032867Y38486107D01*
X555018253Y38466402D01*
X555001777Y38448223D01*
X554983598Y38431747D01*
X554963893Y38417133D01*
X554942849Y38404520D01*
X554920671Y38394030D01*
X554897571Y38385765D01*
X554873773Y38379804D01*
X554849504Y38376204D01*
X554825000Y38375000D01*
X553575000Y38375000D01*
X553550496Y38376204D01*
X553526227Y38379804D01*
X553502429Y38385765D01*
X553479329Y38394030D01*
X553457151Y38404520D01*
X553436107Y38417133D01*
X553416402Y38431747D01*
X553398223Y38448223D01*
X553381747Y38466402D01*
X553367133Y38486107D01*
X553354520Y38507151D01*
X553344030Y38529329D01*
X553335765Y38552429D01*
X553329804Y38576227D01*
X553326204Y38600496D01*
X553325000Y38625000D01*
X553325000Y39375000D01*
X553326204Y39399504D01*
X553329804Y39423773D01*
X553335765Y39447571D01*
X553344030Y39470671D01*
X553354520Y39492849D01*
X553367133Y39513893D01*
X553381747Y39533598D01*
X553398223Y39551777D01*
X553416402Y39568253D01*
X553436107Y39582867D01*
X553457151Y39595480D01*
X553479329Y39605970D01*
X553502429Y39614235D01*
X553526227Y39620196D01*
X553550496Y39623796D01*
X553575000Y39625000D01*
X554825000Y39625000D01*
X554849504Y39623796D01*
X554849504Y39623796D01*
G37*
D28*
X554200000Y39000000D03*
D20*
G36*
X554849504Y42423796D02*
G01*
X554873773Y42420196D01*
X554897571Y42414235D01*
X554920671Y42405970D01*
X554942849Y42395480D01*
X554963893Y42382867D01*
X554983598Y42368253D01*
X555001777Y42351777D01*
X555018253Y42333598D01*
X555032867Y42313893D01*
X555045480Y42292849D01*
X555055970Y42270671D01*
X555064235Y42247571D01*
X555070196Y42223773D01*
X555073796Y42199504D01*
X555075000Y42175000D01*
X555075000Y41425000D01*
X555073796Y41400496D01*
X555070196Y41376227D01*
X555064235Y41352429D01*
X555055970Y41329329D01*
X555045480Y41307151D01*
X555032867Y41286107D01*
X555018253Y41266402D01*
X555001777Y41248223D01*
X554983598Y41231747D01*
X554963893Y41217133D01*
X554942849Y41204520D01*
X554920671Y41194030D01*
X554897571Y41185765D01*
X554873773Y41179804D01*
X554849504Y41176204D01*
X554825000Y41175000D01*
X553575000Y41175000D01*
X553550496Y41176204D01*
X553526227Y41179804D01*
X553502429Y41185765D01*
X553479329Y41194030D01*
X553457151Y41204520D01*
X553436107Y41217133D01*
X553416402Y41231747D01*
X553398223Y41248223D01*
X553381747Y41266402D01*
X553367133Y41286107D01*
X553354520Y41307151D01*
X553344030Y41329329D01*
X553335765Y41352429D01*
X553329804Y41376227D01*
X553326204Y41400496D01*
X553325000Y41425000D01*
X553325000Y42175000D01*
X553326204Y42199504D01*
X553329804Y42223773D01*
X553335765Y42247571D01*
X553344030Y42270671D01*
X553354520Y42292849D01*
X553367133Y42313893D01*
X553381747Y42333598D01*
X553398223Y42351777D01*
X553416402Y42368253D01*
X553436107Y42382867D01*
X553457151Y42395480D01*
X553479329Y42405970D01*
X553502429Y42414235D01*
X553526227Y42420196D01*
X553550496Y42423796D01*
X553575000Y42425000D01*
X554825000Y42425000D01*
X554849504Y42423796D01*
X554849504Y42423796D01*
G37*
D28*
X554200000Y41800000D03*
D30*
X562100000Y30700000D03*
X562100000Y34000000D03*
D29*
X561400000Y36450000D03*
X561400000Y40600000D03*
D25*
X556660000Y37276000D03*
D26*
X555160000Y37176000D03*
D25*
X553660000Y37276000D03*
X553660000Y33976000D03*
X556660000Y33976000D03*
D24*
X555160000Y35021000D03*
D20*
G36*
X554159504Y32689796D02*
G01*
X554183773Y32686196D01*
X554207571Y32680235D01*
X554230671Y32671970D01*
X554252849Y32661480D01*
X554273893Y32648867D01*
X554293598Y32634253D01*
X554311777Y32617777D01*
X554328253Y32599598D01*
X554342867Y32579893D01*
X554355480Y32558849D01*
X554365970Y32536671D01*
X554374235Y32513571D01*
X554380196Y32489773D01*
X554383796Y32465504D01*
X554385000Y32441000D01*
X554385000Y31191000D01*
X554383796Y31166496D01*
X554380196Y31142227D01*
X554374235Y31118429D01*
X554365970Y31095329D01*
X554355480Y31073151D01*
X554342867Y31052107D01*
X554328253Y31032402D01*
X554311777Y31014223D01*
X554293598Y30997747D01*
X554273893Y30983133D01*
X554252849Y30970520D01*
X554230671Y30960030D01*
X554207571Y30951765D01*
X554183773Y30945804D01*
X554159504Y30942204D01*
X554135000Y30941000D01*
X553385000Y30941000D01*
X553360496Y30942204D01*
X553336227Y30945804D01*
X553312429Y30951765D01*
X553289329Y30960030D01*
X553267151Y30970520D01*
X553246107Y30983133D01*
X553226402Y30997747D01*
X553208223Y31014223D01*
X553191747Y31032402D01*
X553177133Y31052107D01*
X553164520Y31073151D01*
X553154030Y31095329D01*
X553145765Y31118429D01*
X553139804Y31142227D01*
X553136204Y31166496D01*
X553135000Y31191000D01*
X553135000Y32441000D01*
X553136204Y32465504D01*
X553139804Y32489773D01*
X553145765Y32513571D01*
X553154030Y32536671D01*
X553164520Y32558849D01*
X553177133Y32579893D01*
X553191747Y32599598D01*
X553208223Y32617777D01*
X553226402Y32634253D01*
X553246107Y32648867D01*
X553267151Y32661480D01*
X553289329Y32671970D01*
X553312429Y32680235D01*
X553336227Y32686196D01*
X553360496Y32689796D01*
X553385000Y32691000D01*
X554135000Y32691000D01*
X554159504Y32689796D01*
X554159504Y32689796D01*
G37*
D28*
X553760000Y31816000D03*
D20*
G36*
X556959504Y32689796D02*
G01*
X556983773Y32686196D01*
X557007571Y32680235D01*
X557030671Y32671970D01*
X557052849Y32661480D01*
X557073893Y32648867D01*
X557093598Y32634253D01*
X557111777Y32617777D01*
X557128253Y32599598D01*
X557142867Y32579893D01*
X557155480Y32558849D01*
X557165970Y32536671D01*
X557174235Y32513571D01*
X557180196Y32489773D01*
X557183796Y32465504D01*
X557185000Y32441000D01*
X557185000Y31191000D01*
X557183796Y31166496D01*
X557180196Y31142227D01*
X557174235Y31118429D01*
X557165970Y31095329D01*
X557155480Y31073151D01*
X557142867Y31052107D01*
X557128253Y31032402D01*
X557111777Y31014223D01*
X557093598Y30997747D01*
X557073893Y30983133D01*
X557052849Y30970520D01*
X557030671Y30960030D01*
X557007571Y30951765D01*
X556983773Y30945804D01*
X556959504Y30942204D01*
X556935000Y30941000D01*
X556185000Y30941000D01*
X556160496Y30942204D01*
X556136227Y30945804D01*
X556112429Y30951765D01*
X556089329Y30960030D01*
X556067151Y30970520D01*
X556046107Y30983133D01*
X556026402Y30997747D01*
X556008223Y31014223D01*
X555991747Y31032402D01*
X555977133Y31052107D01*
X555964520Y31073151D01*
X555954030Y31095329D01*
X555945765Y31118429D01*
X555939804Y31142227D01*
X555936204Y31166496D01*
X555935000Y31191000D01*
X555935000Y32441000D01*
X555936204Y32465504D01*
X555939804Y32489773D01*
X555945765Y32513571D01*
X555954030Y32536671D01*
X555964520Y32558849D01*
X555977133Y32579893D01*
X555991747Y32599598D01*
X556008223Y32617777D01*
X556026402Y32634253D01*
X556046107Y32648867D01*
X556067151Y32661480D01*
X556089329Y32671970D01*
X556112429Y32680235D01*
X556136227Y32686196D01*
X556160496Y32689796D01*
X556185000Y32691000D01*
X556935000Y32691000D01*
X556959504Y32689796D01*
X556959504Y32689796D01*
G37*
D28*
X556560000Y31816000D03*
D20*
G36*
X557374504Y30348796D02*
G01*
X557398773Y30345196D01*
X557422571Y30339235D01*
X557445671Y30330970D01*
X557467849Y30320480D01*
X557488893Y30307867D01*
X557508598Y30293253D01*
X557526777Y30276777D01*
X557543253Y30258598D01*
X557557867Y30238893D01*
X557570480Y30217849D01*
X557580970Y30195671D01*
X557589235Y30172571D01*
X557595196Y30148773D01*
X557598796Y30124504D01*
X557600000Y30100000D01*
X557600000Y27100000D01*
X557598796Y27075496D01*
X557595196Y27051227D01*
X557589235Y27027429D01*
X557580970Y27004329D01*
X557570480Y26982151D01*
X557557867Y26961107D01*
X557543253Y26941402D01*
X557526777Y26923223D01*
X557508598Y26906747D01*
X557488893Y26892133D01*
X557467849Y26879520D01*
X557445671Y26869030D01*
X557422571Y26860765D01*
X557398773Y26854804D01*
X557374504Y26851204D01*
X557350000Y26850000D01*
X556250000Y26850000D01*
X556225496Y26851204D01*
X556201227Y26854804D01*
X556177429Y26860765D01*
X556154329Y26869030D01*
X556132151Y26879520D01*
X556111107Y26892133D01*
X556091402Y26906747D01*
X556073223Y26923223D01*
X556056747Y26941402D01*
X556042133Y26961107D01*
X556029520Y26982151D01*
X556019030Y27004329D01*
X556010765Y27027429D01*
X556004804Y27051227D01*
X556001204Y27075496D01*
X556000000Y27100000D01*
X556000000Y30100000D01*
X556001204Y30124504D01*
X556004804Y30148773D01*
X556010765Y30172571D01*
X556019030Y30195671D01*
X556029520Y30217849D01*
X556042133Y30238893D01*
X556056747Y30258598D01*
X556073223Y30276777D01*
X556091402Y30293253D01*
X556111107Y30307867D01*
X556132151Y30320480D01*
X556154329Y30330970D01*
X556177429Y30339235D01*
X556201227Y30345196D01*
X556225496Y30348796D01*
X556250000Y30350000D01*
X557350000Y30350000D01*
X557374504Y30348796D01*
X557374504Y30348796D01*
G37*
D21*
X556800000Y28600000D03*
D20*
G36*
X557374504Y24748796D02*
G01*
X557398773Y24745196D01*
X557422571Y24739235D01*
X557445671Y24730970D01*
X557467849Y24720480D01*
X557488893Y24707867D01*
X557508598Y24693253D01*
X557526777Y24676777D01*
X557543253Y24658598D01*
X557557867Y24638893D01*
X557570480Y24617849D01*
X557580970Y24595671D01*
X557589235Y24572571D01*
X557595196Y24548773D01*
X557598796Y24524504D01*
X557600000Y24500000D01*
X557600000Y21500000D01*
X557598796Y21475496D01*
X557595196Y21451227D01*
X557589235Y21427429D01*
X557580970Y21404329D01*
X557570480Y21382151D01*
X557557867Y21361107D01*
X557543253Y21341402D01*
X557526777Y21323223D01*
X557508598Y21306747D01*
X557488893Y21292133D01*
X557467849Y21279520D01*
X557445671Y21269030D01*
X557422571Y21260765D01*
X557398773Y21254804D01*
X557374504Y21251204D01*
X557350000Y21250000D01*
X556250000Y21250000D01*
X556225496Y21251204D01*
X556201227Y21254804D01*
X556177429Y21260765D01*
X556154329Y21269030D01*
X556132151Y21279520D01*
X556111107Y21292133D01*
X556091402Y21306747D01*
X556073223Y21323223D01*
X556056747Y21341402D01*
X556042133Y21361107D01*
X556029520Y21382151D01*
X556019030Y21404329D01*
X556010765Y21427429D01*
X556004804Y21451227D01*
X556001204Y21475496D01*
X556000000Y21500000D01*
X556000000Y24500000D01*
X556001204Y24524504D01*
X556004804Y24548773D01*
X556010765Y24572571D01*
X556019030Y24595671D01*
X556029520Y24617849D01*
X556042133Y24638893D01*
X556056747Y24658598D01*
X556073223Y24676777D01*
X556091402Y24693253D01*
X556111107Y24707867D01*
X556132151Y24720480D01*
X556154329Y24730970D01*
X556177429Y24739235D01*
X556201227Y24745196D01*
X556225496Y24748796D01*
X556250000Y24750000D01*
X557350000Y24750000D01*
X557374504Y24748796D01*
X557374504Y24748796D01*
G37*
D21*
X556800000Y23000000D03*
D20*
G36*
X565190504Y4782796D02*
G01*
X565214773Y4779196D01*
X565238571Y4773235D01*
X565261671Y4764970D01*
X565283849Y4754480D01*
X565304893Y4741867D01*
X565324598Y4727253D01*
X565342777Y4710777D01*
X565359253Y4692598D01*
X565373867Y4672893D01*
X565386480Y4651849D01*
X565396970Y4629671D01*
X565405235Y4606571D01*
X565411196Y4582773D01*
X565414796Y4558504D01*
X565416000Y4534000D01*
X565416000Y1534000D01*
X565414796Y1509496D01*
X565411196Y1485227D01*
X565405235Y1461429D01*
X565396970Y1438329D01*
X565386480Y1416151D01*
X565373867Y1395107D01*
X565359253Y1375402D01*
X565342777Y1357223D01*
X565324598Y1340747D01*
X565304893Y1326133D01*
X565283849Y1313520D01*
X565261671Y1303030D01*
X565238571Y1294765D01*
X565214773Y1288804D01*
X565190504Y1285204D01*
X565166000Y1284000D01*
X564066000Y1284000D01*
X564041496Y1285204D01*
X564017227Y1288804D01*
X563993429Y1294765D01*
X563970329Y1303030D01*
X563948151Y1313520D01*
X563927107Y1326133D01*
X563907402Y1340747D01*
X563889223Y1357223D01*
X563872747Y1375402D01*
X563858133Y1395107D01*
X563845520Y1416151D01*
X563835030Y1438329D01*
X563826765Y1461429D01*
X563820804Y1485227D01*
X563817204Y1509496D01*
X563816000Y1534000D01*
X563816000Y4534000D01*
X563817204Y4558504D01*
X563820804Y4582773D01*
X563826765Y4606571D01*
X563835030Y4629671D01*
X563845520Y4651849D01*
X563858133Y4672893D01*
X563872747Y4692598D01*
X563889223Y4710777D01*
X563907402Y4727253D01*
X563927107Y4741867D01*
X563948151Y4754480D01*
X563970329Y4764970D01*
X563993429Y4773235D01*
X564017227Y4779196D01*
X564041496Y4782796D01*
X564066000Y4784000D01*
X565166000Y4784000D01*
X565190504Y4782796D01*
X565190504Y4782796D01*
G37*
D21*
X564616000Y3034000D03*
D20*
G36*
X565190504Y-817204D02*
G01*
X565214773Y-820804D01*
X565238571Y-826765D01*
X565261671Y-835030D01*
X565283849Y-845520D01*
X565304893Y-858133D01*
X565324598Y-872747D01*
X565342777Y-889223D01*
X565359253Y-907402D01*
X565373867Y-927107D01*
X565386480Y-948151D01*
X565396970Y-970329D01*
X565405235Y-993429D01*
X565411196Y-1017227D01*
X565414796Y-1041496D01*
X565416000Y-1066000D01*
X565416000Y-4066000D01*
X565414796Y-4090504D01*
X565411196Y-4114773D01*
X565405235Y-4138571D01*
X565396970Y-4161671D01*
X565386480Y-4183849D01*
X565373867Y-4204893D01*
X565359253Y-4224598D01*
X565342777Y-4242777D01*
X565324598Y-4259253D01*
X565304893Y-4273867D01*
X565283849Y-4286480D01*
X565261671Y-4296970D01*
X565238571Y-4305235D01*
X565214773Y-4311196D01*
X565190504Y-4314796D01*
X565166000Y-4316000D01*
X564066000Y-4316000D01*
X564041496Y-4314796D01*
X564017227Y-4311196D01*
X563993429Y-4305235D01*
X563970329Y-4296970D01*
X563948151Y-4286480D01*
X563927107Y-4273867D01*
X563907402Y-4259253D01*
X563889223Y-4242777D01*
X563872747Y-4224598D01*
X563858133Y-4204893D01*
X563845520Y-4183849D01*
X563835030Y-4161671D01*
X563826765Y-4138571D01*
X563820804Y-4114773D01*
X563817204Y-4090504D01*
X563816000Y-4066000D01*
X563816000Y-1066000D01*
X563817204Y-1041496D01*
X563820804Y-1017227D01*
X563826765Y-993429D01*
X563835030Y-970329D01*
X563845520Y-948151D01*
X563858133Y-927107D01*
X563872747Y-907402D01*
X563889223Y-889223D01*
X563907402Y-872747D01*
X563927107Y-858133D01*
X563948151Y-845520D01*
X563970329Y-835030D01*
X563993429Y-826765D01*
X564017227Y-820804D01*
X564041496Y-817204D01*
X564066000Y-816000D01*
X565166000Y-816000D01*
X565190504Y-817204D01*
X565190504Y-817204D01*
G37*
D21*
X564616000Y-2566000D03*
D20*
G36*
X570769504Y-18226604D02*
G01*
X570793773Y-18230204D01*
X570817571Y-18236165D01*
X570840671Y-18244430D01*
X570862849Y-18254920D01*
X570883893Y-18267533D01*
X570903598Y-18282147D01*
X570921777Y-18298623D01*
X570938253Y-18316802D01*
X570952867Y-18336507D01*
X570965480Y-18357551D01*
X570975970Y-18379729D01*
X570984235Y-18402829D01*
X570990196Y-18426627D01*
X570993796Y-18450896D01*
X570995000Y-18475400D01*
X570995000Y-19725400D01*
X570993796Y-19749904D01*
X570990196Y-19774173D01*
X570984235Y-19797971D01*
X570975970Y-19821071D01*
X570965480Y-19843249D01*
X570952867Y-19864293D01*
X570938253Y-19883998D01*
X570921777Y-19902177D01*
X570903598Y-19918653D01*
X570883893Y-19933267D01*
X570862849Y-19945880D01*
X570840671Y-19956370D01*
X570817571Y-19964635D01*
X570793773Y-19970596D01*
X570769504Y-19974196D01*
X570745000Y-19975400D01*
X569995000Y-19975400D01*
X569970496Y-19974196D01*
X569946227Y-19970596D01*
X569922429Y-19964635D01*
X569899329Y-19956370D01*
X569877151Y-19945880D01*
X569856107Y-19933267D01*
X569836402Y-19918653D01*
X569818223Y-19902177D01*
X569801747Y-19883998D01*
X569787133Y-19864293D01*
X569774520Y-19843249D01*
X569764030Y-19821071D01*
X569755765Y-19797971D01*
X569749804Y-19774173D01*
X569746204Y-19749904D01*
X569745000Y-19725400D01*
X569745000Y-18475400D01*
X569746204Y-18450896D01*
X569749804Y-18426627D01*
X569755765Y-18402829D01*
X569764030Y-18379729D01*
X569774520Y-18357551D01*
X569787133Y-18336507D01*
X569801747Y-18316802D01*
X569818223Y-18298623D01*
X569836402Y-18282147D01*
X569856107Y-18267533D01*
X569877151Y-18254920D01*
X569899329Y-18244430D01*
X569922429Y-18236165D01*
X569946227Y-18230204D01*
X569970496Y-18226604D01*
X569995000Y-18225400D01*
X570745000Y-18225400D01*
X570769504Y-18226604D01*
X570769504Y-18226604D01*
G37*
D28*
X570370000Y-19100400D03*
D20*
G36*
X573569504Y-18226604D02*
G01*
X573593773Y-18230204D01*
X573617571Y-18236165D01*
X573640671Y-18244430D01*
X573662849Y-18254920D01*
X573683893Y-18267533D01*
X573703598Y-18282147D01*
X573721777Y-18298623D01*
X573738253Y-18316802D01*
X573752867Y-18336507D01*
X573765480Y-18357551D01*
X573775970Y-18379729D01*
X573784235Y-18402829D01*
X573790196Y-18426627D01*
X573793796Y-18450896D01*
X573795000Y-18475400D01*
X573795000Y-19725400D01*
X573793796Y-19749904D01*
X573790196Y-19774173D01*
X573784235Y-19797971D01*
X573775970Y-19821071D01*
X573765480Y-19843249D01*
X573752867Y-19864293D01*
X573738253Y-19883998D01*
X573721777Y-19902177D01*
X573703598Y-19918653D01*
X573683893Y-19933267D01*
X573662849Y-19945880D01*
X573640671Y-19956370D01*
X573617571Y-19964635D01*
X573593773Y-19970596D01*
X573569504Y-19974196D01*
X573545000Y-19975400D01*
X572795000Y-19975400D01*
X572770496Y-19974196D01*
X572746227Y-19970596D01*
X572722429Y-19964635D01*
X572699329Y-19956370D01*
X572677151Y-19945880D01*
X572656107Y-19933267D01*
X572636402Y-19918653D01*
X572618223Y-19902177D01*
X572601747Y-19883998D01*
X572587133Y-19864293D01*
X572574520Y-19843249D01*
X572564030Y-19821071D01*
X572555765Y-19797971D01*
X572549804Y-19774173D01*
X572546204Y-19749904D01*
X572545000Y-19725400D01*
X572545000Y-18475400D01*
X572546204Y-18450896D01*
X572549804Y-18426627D01*
X572555765Y-18402829D01*
X572564030Y-18379729D01*
X572574520Y-18357551D01*
X572587133Y-18336507D01*
X572601747Y-18316802D01*
X572618223Y-18298623D01*
X572636402Y-18282147D01*
X572656107Y-18267533D01*
X572677151Y-18254920D01*
X572699329Y-18244430D01*
X572722429Y-18236165D01*
X572746227Y-18230204D01*
X572770496Y-18226604D01*
X572795000Y-18225400D01*
X573545000Y-18225400D01*
X573569504Y-18226604D01*
X573569504Y-18226604D01*
G37*
D28*
X573170000Y-19100400D03*
M02*
