M48
; DRILL file {KiCad (5.1.4)-1} date 2020-06-05 14:27:15
; FORMAT={-:-/ absolute / metric / decimal}
; #@! TF.CreationDate,2020-06-05T14:27:15+02:00
; #@! TF.GenerationSoftware,Kicad,Pcbnew,(5.1.4)-1
; #@! TF.FileFunction,Plated,1,2,PTH
FMAT,2
METRIC
T1C1.000
T2C3.200
T3C4.300
%
G90
G05
T1
X118.46Y-88.265
X119.845Y-85.425
X121.23Y-88.265
X122.615Y-85.425
X124.0Y-88.265
X125.385Y-85.425
X126.77Y-88.265
X128.155Y-85.425
X129.54Y-88.265
X156.56Y-52.705
X157.945Y-55.545
X159.33Y-52.705
X160.715Y-55.545
X162.1Y-52.705
X163.485Y-55.545
X164.87Y-52.705
X166.255Y-55.545
X167.64Y-52.705
X80.36Y-88.265
X81.745Y-85.425
X83.13Y-88.265
X84.515Y-85.425
X85.9Y-88.265
X87.285Y-85.425
X88.67Y-88.265
X90.055Y-85.425
X91.44Y-88.265
X156.56Y-133.985
X157.945Y-136.825
X159.33Y-133.985
X160.715Y-136.825
X162.1Y-133.985
X163.485Y-136.825
X164.87Y-133.985
X166.255Y-136.825
X167.64Y-133.985
X80.36Y-109.22
X81.745Y-112.06
X83.13Y-109.22
X84.515Y-112.06
X85.9Y-109.22
X87.285Y-112.06
X88.67Y-109.22
X90.055Y-112.06
X91.44Y-109.22
X118.285Y-133.985
X119.67Y-136.825
X121.055Y-133.985
X122.44Y-136.825
X123.825Y-133.985
X125.21Y-136.825
X126.595Y-133.985
X127.98Y-136.825
X129.365Y-133.985
X194.66Y-88.265
X196.045Y-85.425
X197.43Y-88.265
X198.815Y-85.425
X200.2Y-88.265
X201.585Y-85.425
X202.97Y-88.265
X204.355Y-85.425
X205.74Y-88.265
X156.56Y-36.83
X157.945Y-39.67
X159.33Y-36.83
X160.715Y-39.67
X162.1Y-36.83
X163.485Y-39.67
X164.87Y-36.83
X166.255Y-39.67
X167.64Y-36.83
X80.36Y-133.985
X81.745Y-136.825
X83.13Y-133.985
X84.515Y-136.825
X85.9Y-133.985
X87.285Y-136.825
X88.67Y-133.985
X90.055Y-136.825
X91.44Y-133.985
X194.66Y-133.985
X196.045Y-136.825
X197.43Y-133.985
X198.815Y-136.825
X200.2Y-133.985
X201.585Y-136.825
X202.97Y-133.985
X204.355Y-136.825
X205.74Y-133.985
X118.46Y-52.705
X119.845Y-55.545
X121.23Y-52.705
X122.615Y-55.545
X124.0Y-52.705
X125.385Y-55.545
X126.77Y-52.705
X128.155Y-55.545
X129.54Y-52.705
X118.46Y-36.83
X119.845Y-39.67
X121.23Y-36.83
X122.615Y-39.67
X124.0Y-36.83
X125.385Y-39.67
X126.77Y-36.83
X128.155Y-39.67
X129.54Y-36.83
X118.46Y-109.22
X119.845Y-112.06
X121.23Y-109.22
X122.615Y-112.06
X124.0Y-109.22
X125.385Y-112.06
X126.77Y-109.22
X128.155Y-112.06
X129.54Y-109.22
X194.66Y-109.22
X196.045Y-112.06
X197.43Y-109.22
X198.815Y-112.06
X200.2Y-109.22
X201.585Y-112.06
X202.97Y-109.22
X204.355Y-112.06
X205.74Y-109.22
X156.56Y-88.265
X157.945Y-85.425
X159.33Y-88.265
X160.715Y-85.425
X162.1Y-88.265
X163.485Y-85.425
X164.87Y-88.265
X166.255Y-85.425
X167.64Y-88.265
X156.56Y-109.22
X157.945Y-112.06
X159.33Y-109.22
X160.715Y-112.06
X162.1Y-109.22
X163.485Y-112.06
X164.87Y-109.22
X166.255Y-112.06
X167.64Y-109.22
T2
X111.5Y-54.125
X136.5Y-54.125
X111.5Y-38.25
X136.5Y-38.25
X111.5Y-110.64
X136.5Y-110.64
X187.7Y-110.64
X212.7Y-110.64
X149.6Y-86.845
X174.6Y-86.845
X149.6Y-110.64
X174.6Y-110.64
X111.5Y-86.845
X136.5Y-86.845
X149.6Y-54.125
X174.6Y-54.125
X73.4Y-86.845
X98.4Y-86.845
X149.6Y-135.405
X174.6Y-135.405
X73.4Y-110.64
X98.4Y-110.64
X111.325Y-135.405
X136.325Y-135.405
X187.7Y-86.845
X212.7Y-86.845
X149.6Y-38.25
X174.6Y-38.25
X73.4Y-135.405
X98.4Y-135.405
X187.7Y-135.405
X212.7Y-135.405
T3
X215.9Y-151.892
X71.12Y-152.4
X215.9Y-30.48
X71.12Y-30.48
T0
M30
