G04 #@! TF.GenerationSoftware,KiCad,Pcbnew,(5.1.4)-1*
G04 #@! TF.CreationDate,2020-06-05T14:27:08+02:00*
G04 #@! TF.ProjectId,Breakout,42726561-6b6f-4757-942e-6b696361645f,rev?*
G04 #@! TF.SameCoordinates,Original*
G04 #@! TF.FileFunction,Copper,L2,Bot*
G04 #@! TF.FilePolarity,Positive*
%FSLAX46Y46*%
G04 Gerber Fmt 4.6, Leading zero omitted, Abs format (unit mm)*
G04 Created by KiCad (PCBNEW (5.1.4)-1) date 2020-06-05 14:27:08*
%MOMM*%
%LPD*%
G04 APERTURE LIST*
%ADD10R,1.600000X1.600000*%
%ADD11C,1.600000*%
%ADD12C,4.000000*%
%ADD13C,7.600000*%
%ADD14C,0.250000*%
%ADD15C,1.000000*%
G04 APERTURE END LIST*
D10*
X91440000Y-133985000D03*
D11*
X88670000Y-133985000D03*
X85900000Y-133985000D03*
X83130000Y-133985000D03*
X80360000Y-133985000D03*
X90055000Y-136825000D03*
X87285000Y-136825000D03*
X84515000Y-136825000D03*
X81745000Y-136825000D03*
D12*
X73400000Y-135405000D03*
X98400000Y-135405000D03*
D13*
X215900000Y-151892000D03*
D12*
X174600000Y-38250000D03*
X149600000Y-38250000D03*
D11*
X157945000Y-39670000D03*
X160715000Y-39670000D03*
X163485000Y-39670000D03*
X166255000Y-39670000D03*
X156560000Y-36830000D03*
X159330000Y-36830000D03*
X162100000Y-36830000D03*
X164870000Y-36830000D03*
D10*
X167640000Y-36830000D03*
X129540000Y-52705000D03*
D11*
X126770000Y-52705000D03*
X124000000Y-52705000D03*
X121230000Y-52705000D03*
X118460000Y-52705000D03*
X128155000Y-55545000D03*
X125385000Y-55545000D03*
X122615000Y-55545000D03*
X119845000Y-55545000D03*
D12*
X111500000Y-54125000D03*
X136500000Y-54125000D03*
D10*
X205740000Y-88265000D03*
D11*
X202970000Y-88265000D03*
X200200000Y-88265000D03*
X197430000Y-88265000D03*
X194660000Y-88265000D03*
X204355000Y-85425000D03*
X201585000Y-85425000D03*
X198815000Y-85425000D03*
X196045000Y-85425000D03*
D12*
X212700000Y-86845000D03*
X187700000Y-86845000D03*
X73400000Y-86845000D03*
X98400000Y-86845000D03*
D11*
X81745000Y-85425000D03*
X84515000Y-85425000D03*
X87285000Y-85425000D03*
X90055000Y-85425000D03*
X80360000Y-88265000D03*
X83130000Y-88265000D03*
X85900000Y-88265000D03*
X88670000Y-88265000D03*
D10*
X91440000Y-88265000D03*
X129540000Y-36830000D03*
D11*
X126770000Y-36830000D03*
X124000000Y-36830000D03*
X121230000Y-36830000D03*
X118460000Y-36830000D03*
X128155000Y-39670000D03*
X125385000Y-39670000D03*
X122615000Y-39670000D03*
X119845000Y-39670000D03*
D12*
X111500000Y-38250000D03*
X136500000Y-38250000D03*
X212700000Y-110640000D03*
X187700000Y-110640000D03*
D11*
X196045000Y-112060000D03*
X198815000Y-112060000D03*
X201585000Y-112060000D03*
X204355000Y-112060000D03*
X194660000Y-109220000D03*
X197430000Y-109220000D03*
X200200000Y-109220000D03*
X202970000Y-109220000D03*
D10*
X205740000Y-109220000D03*
X205740000Y-133985000D03*
D11*
X202970000Y-133985000D03*
X200200000Y-133985000D03*
X197430000Y-133985000D03*
X194660000Y-133985000D03*
X204355000Y-136825000D03*
X201585000Y-136825000D03*
X198815000Y-136825000D03*
X196045000Y-136825000D03*
D12*
X187700000Y-135405000D03*
X212700000Y-135405000D03*
X174600000Y-54125000D03*
X149600000Y-54125000D03*
D11*
X157945000Y-55545000D03*
X160715000Y-55545000D03*
X163485000Y-55545000D03*
X166255000Y-55545000D03*
X156560000Y-52705000D03*
X159330000Y-52705000D03*
X162100000Y-52705000D03*
X164870000Y-52705000D03*
D10*
X167640000Y-52705000D03*
D12*
X98400000Y-110640000D03*
X73400000Y-110640000D03*
D11*
X81745000Y-112060000D03*
X84515000Y-112060000D03*
X87285000Y-112060000D03*
X90055000Y-112060000D03*
X80360000Y-109220000D03*
X83130000Y-109220000D03*
X85900000Y-109220000D03*
X88670000Y-109220000D03*
D10*
X91440000Y-109220000D03*
D12*
X149600000Y-86845000D03*
X174600000Y-86845000D03*
D11*
X157945000Y-85425000D03*
X160715000Y-85425000D03*
X163485000Y-85425000D03*
X166255000Y-85425000D03*
X156560000Y-88265000D03*
X159330000Y-88265000D03*
X162100000Y-88265000D03*
X164870000Y-88265000D03*
D10*
X167640000Y-88265000D03*
X167640000Y-133985000D03*
D11*
X164870000Y-133985000D03*
X162100000Y-133985000D03*
X159330000Y-133985000D03*
X156560000Y-133985000D03*
X166255000Y-136825000D03*
X163485000Y-136825000D03*
X160715000Y-136825000D03*
X157945000Y-136825000D03*
D12*
X149600000Y-135405000D03*
X174600000Y-135405000D03*
X174600000Y-110640000D03*
X149600000Y-110640000D03*
D11*
X157945000Y-112060000D03*
X160715000Y-112060000D03*
X163485000Y-112060000D03*
X166255000Y-112060000D03*
X156560000Y-109220000D03*
X159330000Y-109220000D03*
X162100000Y-109220000D03*
X164870000Y-109220000D03*
D10*
X167640000Y-109220000D03*
X129540000Y-88265000D03*
D11*
X126770000Y-88265000D03*
X124000000Y-88265000D03*
X121230000Y-88265000D03*
X118460000Y-88265000D03*
X128155000Y-85425000D03*
X125385000Y-85425000D03*
X122615000Y-85425000D03*
X119845000Y-85425000D03*
D12*
X136500000Y-86845000D03*
X111500000Y-86845000D03*
X136325000Y-135405000D03*
X111325000Y-135405000D03*
D11*
X119670000Y-136825000D03*
X122440000Y-136825000D03*
X125210000Y-136825000D03*
X127980000Y-136825000D03*
X118285000Y-133985000D03*
X121055000Y-133985000D03*
X123825000Y-133985000D03*
X126595000Y-133985000D03*
D10*
X129365000Y-133985000D03*
X129540000Y-109220000D03*
D11*
X126770000Y-109220000D03*
X124000000Y-109220000D03*
X121230000Y-109220000D03*
X118460000Y-109220000D03*
X128155000Y-112060000D03*
X125385000Y-112060000D03*
X122615000Y-112060000D03*
X119845000Y-112060000D03*
D12*
X111500000Y-110640000D03*
X136500000Y-110640000D03*
D13*
X71120000Y-30480000D03*
X215900000Y-30480000D03*
X71120000Y-152400000D03*
D14*
X205740000Y-88265000D02*
X205740000Y-69596000D01*
X205740000Y-69596000D02*
X180340000Y-44196000D01*
X180340000Y-44196000D02*
X131064000Y-44196000D01*
X129540000Y-42672000D02*
X129540000Y-36830000D01*
X131064000Y-44196000D02*
X129540000Y-42672000D01*
X205740000Y-109220000D02*
X205740000Y-133985000D01*
X205740000Y-109220000D02*
X205740000Y-88265000D01*
X126770000Y-44474000D02*
X126770000Y-36830000D01*
X127873990Y-45577990D02*
X126770000Y-44474000D01*
X179593242Y-45577990D02*
X127873990Y-45577990D01*
X202970000Y-88265000D02*
X202970000Y-68954748D01*
X202970000Y-68954748D02*
X179593242Y-45577990D01*
X202970000Y-109220000D02*
X202970000Y-133985000D01*
X202970000Y-89396370D02*
X202970000Y-109220000D01*
X202970000Y-88265000D02*
X202970000Y-89396370D01*
X124000000Y-44752000D02*
X124000000Y-36830000D01*
X126492000Y-47244000D02*
X124000000Y-44752000D01*
X178816000Y-47244000D02*
X126492000Y-47244000D01*
X200200000Y-88265000D02*
X200200000Y-68628000D01*
X200200000Y-68628000D02*
X178816000Y-47244000D01*
X200200000Y-109220000D02*
X200200000Y-133985000D01*
X200200000Y-89396370D02*
X200200000Y-109220000D01*
X200200000Y-88265000D02*
X200200000Y-89396370D01*
X121230000Y-46554000D02*
X121230000Y-36830000D01*
X123301990Y-48625990D02*
X121230000Y-46554000D01*
X177464494Y-48625990D02*
X123301990Y-48625990D01*
X197430000Y-88265000D02*
X197430000Y-68591496D01*
X197430000Y-68591496D02*
X177464494Y-48625990D01*
X197430000Y-112636002D02*
X197430000Y-133985000D01*
X197430000Y-109220000D02*
X197430000Y-112636002D01*
X197430000Y-89396370D02*
X197430000Y-109220000D01*
X197430000Y-88265000D02*
X197430000Y-89396370D01*
X194660000Y-88265000D02*
X194660000Y-67660000D01*
X194660000Y-67660000D02*
X177292000Y-50292000D01*
X177292000Y-50292000D02*
X121920000Y-50292000D01*
X118460000Y-46832000D02*
X118460000Y-36830000D01*
X121920000Y-50292000D02*
X118460000Y-46832000D01*
X194660000Y-109220000D02*
X194660000Y-133985000D01*
X194660000Y-89396370D02*
X194660000Y-109220000D01*
X194660000Y-88265000D02*
X194660000Y-89396370D01*
X204355000Y-69420496D02*
X204355000Y-85425000D01*
X179862484Y-44927980D02*
X204355000Y-69420496D01*
X129763980Y-44927980D02*
X179862484Y-44927980D01*
X128155000Y-39670000D02*
X128155000Y-43319000D01*
X128155000Y-43319000D02*
X129763980Y-44927980D01*
X204355000Y-136825000D02*
X204355000Y-112060000D01*
X204355000Y-110380002D02*
X204355000Y-112060000D01*
X204355000Y-85425000D02*
X204355000Y-110380002D01*
X125385000Y-39670000D02*
X125385000Y-44613000D01*
X125385000Y-44613000D02*
X127000000Y-46228000D01*
X127000000Y-46228000D02*
X179324000Y-46228000D01*
X201585000Y-68489000D02*
X201585000Y-85425000D01*
X179324000Y-46228000D02*
X201585000Y-68489000D01*
X201585000Y-136825000D02*
X201585000Y-112060000D01*
X201585000Y-109796002D02*
X201585000Y-112060000D01*
X201585000Y-85425000D02*
X201585000Y-109796002D01*
X122615000Y-39670000D02*
X122615000Y-46415000D01*
X122615000Y-46415000D02*
X124175980Y-47975980D01*
X124175980Y-47975980D02*
X178023980Y-47975980D01*
X198815000Y-68767000D02*
X198815000Y-85425000D01*
X178023980Y-47975980D02*
X198815000Y-68767000D01*
X198815000Y-133408998D02*
X198815000Y-112060000D01*
X198815000Y-136825000D02*
X198815000Y-133408998D01*
X198815000Y-85425000D02*
X198815000Y-112060000D01*
X196045000Y-68125748D02*
X196045000Y-85425000D01*
X177195252Y-49276000D02*
X196045000Y-68125748D01*
X122428000Y-49276000D02*
X177195252Y-49276000D01*
X119845000Y-39670000D02*
X119845000Y-46693000D01*
X119845000Y-46693000D02*
X122428000Y-49276000D01*
X196045000Y-133408998D02*
X196045000Y-112060000D01*
X196045000Y-136825000D02*
X196045000Y-133408998D01*
X196045000Y-109796002D02*
X196045000Y-112060000D01*
X196045000Y-85425000D02*
X196045000Y-109796002D01*
D15*
X111500000Y-38250000D02*
X119270000Y-30480000D01*
X128730000Y-30480000D02*
X136500000Y-38250000D01*
X119270000Y-30480000D02*
X128730000Y-30480000D01*
X139328427Y-38250000D02*
X149600000Y-38250000D01*
X136500000Y-38250000D02*
X139328427Y-38250000D01*
X149600000Y-54125000D02*
X136500000Y-54125000D01*
X151599999Y-36250001D02*
X149600000Y-38250000D01*
X155846000Y-32004000D02*
X151599999Y-36250001D01*
X168354000Y-32004000D02*
X155846000Y-32004000D01*
X174600000Y-38250000D02*
X168354000Y-32004000D01*
X113499999Y-40249999D02*
X111500000Y-38250000D01*
X113499999Y-52125001D02*
X113499999Y-40249999D01*
X111500000Y-54125000D02*
X113499999Y-52125001D01*
X73400000Y-84016573D02*
X73400000Y-86845000D01*
X73400000Y-81781890D02*
X73400000Y-84016573D01*
X101056890Y-54125000D02*
X73400000Y-81781890D01*
X111500000Y-54125000D02*
X101056890Y-54125000D01*
X73400000Y-89673427D02*
X73400000Y-110640000D01*
X73400000Y-86845000D02*
X73400000Y-89673427D01*
X73400000Y-135405000D02*
X73400000Y-110640000D01*
X100399999Y-137404999D02*
X98400000Y-135405000D01*
X109325001Y-137404999D02*
X100399999Y-137404999D01*
X111325000Y-135405000D02*
X109325001Y-137404999D01*
X98400000Y-135405000D02*
X98400000Y-110640000D01*
X111500000Y-110640000D02*
X98400000Y-110640000D01*
X108671573Y-86845000D02*
X98400000Y-86845000D01*
X111500000Y-86845000D02*
X108671573Y-86845000D01*
X98400000Y-86845000D02*
X98400000Y-110640000D01*
X113499999Y-84845001D02*
X113499999Y-84112001D01*
X111500000Y-86845000D02*
X113499999Y-84845001D01*
X113499999Y-84112001D02*
X117348000Y-80264000D01*
X129919000Y-80264000D02*
X136500000Y-86845000D01*
X117348000Y-80264000D02*
X129919000Y-80264000D01*
X149600000Y-86845000D02*
X136500000Y-86845000D01*
X136500000Y-89673427D02*
X136500000Y-110640000D01*
X136500000Y-86845000D02*
X136500000Y-89673427D01*
X139328427Y-110640000D02*
X149600000Y-110640000D01*
X136500000Y-110640000D02*
X139328427Y-110640000D01*
X136500000Y-135230000D02*
X136325000Y-135405000D01*
X136500000Y-110640000D02*
X136500000Y-135230000D01*
X139153427Y-135405000D02*
X149600000Y-135405000D01*
X136325000Y-135405000D02*
X139153427Y-135405000D01*
X172600001Y-137404999D02*
X174600000Y-135405000D01*
X170813000Y-139192000D02*
X172600001Y-137404999D01*
X153387000Y-139192000D02*
X170813000Y-139192000D01*
X149600000Y-135405000D02*
X153387000Y-139192000D01*
X174600000Y-135405000D02*
X187700000Y-135405000D01*
X174600000Y-135405000D02*
X174600000Y-110640000D01*
X174600000Y-110640000D02*
X187700000Y-110640000D01*
X174600000Y-107811573D02*
X174600000Y-86845000D01*
X174600000Y-110640000D02*
X174600000Y-107811573D01*
X184871573Y-86845000D02*
X174600000Y-86845000D01*
X187700000Y-86845000D02*
X184871573Y-86845000D01*
X210700001Y-137404999D02*
X212700000Y-135405000D01*
X208979999Y-139125001D02*
X210700001Y-137404999D01*
X191420001Y-139125001D02*
X208979999Y-139125001D01*
X187700000Y-135405000D02*
X191420001Y-139125001D01*
X212700000Y-132576573D02*
X212700000Y-110640000D01*
X212700000Y-135405000D02*
X212700000Y-132576573D01*
X212700000Y-89673427D02*
X212700000Y-110640000D01*
X212700000Y-86845000D02*
X212700000Y-89673427D01*
D14*
X157945000Y-56676370D02*
X157945000Y-55545000D01*
X157945000Y-61414252D02*
X157945000Y-56676370D01*
X148859242Y-70500010D02*
X157945000Y-61414252D01*
X87899242Y-70500010D02*
X148859242Y-70500010D01*
X81745000Y-76654252D02*
X87899242Y-70500010D01*
X81745000Y-85425000D02*
X81745000Y-76654252D01*
X81745000Y-136825000D02*
X81745000Y-112060000D01*
X81745000Y-87688998D02*
X81745000Y-85425000D01*
X81745000Y-112060000D02*
X81745000Y-87688998D01*
X84515000Y-85425000D02*
X84515000Y-76521000D01*
X84515000Y-76521000D02*
X88900000Y-72136000D01*
X160715000Y-56676370D02*
X160715000Y-55545000D01*
X160715000Y-60482756D02*
X160715000Y-56676370D01*
X149061756Y-72136000D02*
X160715000Y-60482756D01*
X88900000Y-72136000D02*
X149061756Y-72136000D01*
X84515000Y-85425000D02*
X84515000Y-112060000D01*
X84515000Y-136825000D02*
X84515000Y-112060000D01*
X87285000Y-85425000D02*
X87285000Y-77815000D01*
X87285000Y-77815000D02*
X90932000Y-74168000D01*
X90932000Y-74168000D02*
X149352000Y-74168000D01*
X163485000Y-60035000D02*
X163485000Y-55545000D01*
X149352000Y-74168000D02*
X163485000Y-60035000D01*
X87285000Y-85425000D02*
X87285000Y-112177000D01*
X87285000Y-112177000D02*
X87285000Y-112060000D01*
X87285000Y-136825000D02*
X87285000Y-112060000D01*
X90055000Y-85425000D02*
X90055000Y-79617000D01*
X90055000Y-79617000D02*
X93472000Y-76200000D01*
X93472000Y-76200000D02*
X150876000Y-76200000D01*
X166255000Y-60216252D02*
X166255000Y-56676370D01*
X165100000Y-61371252D02*
X166255000Y-60216252D01*
X165100000Y-61976000D02*
X165100000Y-61371252D01*
X166255000Y-56676370D02*
X166255000Y-55545000D01*
X150876000Y-76200000D02*
X165100000Y-61976000D01*
X90055000Y-110380002D02*
X90055000Y-112060000D01*
X90055000Y-85425000D02*
X90055000Y-110380002D01*
X90055000Y-136825000D02*
X90055000Y-112060000D01*
X156560000Y-61880000D02*
X156560000Y-52705000D01*
X148590000Y-69850000D02*
X156560000Y-61880000D01*
X87630000Y-69850000D02*
X148590000Y-69850000D01*
X80360000Y-77120000D02*
X87630000Y-69850000D01*
X80360000Y-88265000D02*
X80360000Y-77120000D01*
X80360000Y-89396370D02*
X80360000Y-109220000D01*
X80360000Y-88265000D02*
X80360000Y-89396370D01*
X79560001Y-133185001D02*
X80360000Y-133985000D01*
X79560001Y-110019999D02*
X79560001Y-133185001D01*
X80360000Y-109220000D02*
X79560001Y-110019999D01*
X83130000Y-76382000D02*
X83130000Y-88265000D01*
X88361980Y-71150020D02*
X83130000Y-76382000D01*
X149128484Y-71150020D02*
X88361980Y-71150020D01*
X159330000Y-52705000D02*
X159330000Y-60948504D01*
X159330000Y-60948504D02*
X149128484Y-71150020D01*
X83130000Y-89396370D02*
X83130000Y-109220000D01*
X83130000Y-88265000D02*
X83130000Y-89396370D01*
X83130000Y-109220000D02*
X83130000Y-133985000D01*
X162100000Y-60017008D02*
X148965008Y-73152000D01*
X162100000Y-52705000D02*
X162100000Y-60017008D01*
X148965008Y-73152000D02*
X89916000Y-73152000D01*
X85900000Y-77168000D02*
X85900000Y-88265000D01*
X89916000Y-73152000D02*
X85900000Y-77168000D01*
X85900000Y-109220000D02*
X85900000Y-88265000D01*
X85900000Y-112636002D02*
X85900000Y-133985000D01*
X85900000Y-109220000D02*
X85900000Y-112636002D01*
X164870000Y-52705000D02*
X164870000Y-60682000D01*
X164870000Y-60682000D02*
X150368000Y-75184000D01*
X150368000Y-75184000D02*
X92456000Y-75184000D01*
X88670000Y-78970000D02*
X88670000Y-88265000D01*
X92456000Y-75184000D02*
X88670000Y-78970000D01*
X88670000Y-109220000D02*
X88670000Y-88265000D01*
X88670000Y-109220000D02*
X88670000Y-133985000D01*
X167640000Y-60355252D02*
X151145242Y-76850010D01*
X167640000Y-52705000D02*
X167640000Y-60355252D01*
X151145242Y-76850010D02*
X95361990Y-76850010D01*
X91440000Y-80772000D02*
X91440000Y-88265000D01*
X95361990Y-76850010D02*
X91440000Y-80772000D01*
X91440000Y-109220000D02*
X91440000Y-88265000D01*
X91440000Y-109220000D02*
X91440000Y-133985000D01*
X157945000Y-109796002D02*
X157945000Y-112060000D01*
X157945000Y-85425000D02*
X157945000Y-109796002D01*
X157945000Y-134561002D02*
X157945000Y-136825000D01*
X157945000Y-112060000D02*
X157945000Y-134561002D01*
X160715000Y-85425000D02*
X160715000Y-112060000D01*
X160715000Y-112060000D02*
X160715000Y-136825000D01*
X163485000Y-134561002D02*
X163485000Y-136825000D01*
X163485000Y-112060000D02*
X163485000Y-134561002D01*
X163485000Y-85425000D02*
X163485000Y-112060000D01*
X166255000Y-112060000D02*
X166255000Y-136825000D01*
X166255000Y-85425000D02*
X166255000Y-112060000D01*
X156560000Y-89396370D02*
X156560000Y-109220000D01*
X156560000Y-88265000D02*
X156560000Y-89396370D01*
X156560000Y-133985000D02*
X156560000Y-109220000D01*
X159330000Y-89396370D02*
X159330000Y-109220000D01*
X159330000Y-88265000D02*
X159330000Y-89396370D01*
X159330000Y-133985000D02*
X159330000Y-109220000D01*
X162100000Y-89396370D02*
X162100000Y-109220000D01*
X162100000Y-88265000D02*
X162100000Y-89396370D01*
X162100000Y-111483998D02*
X162100000Y-109220000D01*
X162100000Y-133985000D02*
X162100000Y-111483998D01*
X164870000Y-111483998D02*
X164870000Y-109220000D01*
X164870000Y-133985000D02*
X164870000Y-111483998D01*
X164870000Y-89396370D02*
X164870000Y-109220000D01*
X164870000Y-88265000D02*
X164870000Y-89396370D01*
X167640000Y-133985000D02*
X167640000Y-109220000D01*
X167640000Y-89315000D02*
X167640000Y-109220000D01*
X167640000Y-88265000D02*
X167640000Y-89315000D01*
X129540000Y-89315000D02*
X129540000Y-109220000D01*
X129540000Y-88265000D02*
X129540000Y-89315000D01*
X129540000Y-110270000D02*
X129540000Y-109220000D01*
X129540000Y-132760000D02*
X129540000Y-110270000D01*
X129365000Y-132935000D02*
X129540000Y-132760000D01*
X129365000Y-133985000D02*
X129365000Y-132935000D01*
X126770000Y-89396370D02*
X126770000Y-109220000D01*
X126770000Y-88265000D02*
X126770000Y-89396370D01*
X126770000Y-133810000D02*
X126595000Y-133985000D01*
X126770000Y-109220000D02*
X126770000Y-133810000D01*
X124000000Y-89396370D02*
X124000000Y-109220000D01*
X124000000Y-88265000D02*
X124000000Y-89396370D01*
X124000000Y-133810000D02*
X123825000Y-133985000D01*
X124000000Y-109220000D02*
X124000000Y-133810000D01*
X121230000Y-89396370D02*
X121230000Y-109220000D01*
X121230000Y-88265000D02*
X121230000Y-89396370D01*
X121230000Y-110351370D02*
X121230000Y-109220000D01*
X121230000Y-112756000D02*
X121230000Y-110351370D01*
X121055000Y-112931000D02*
X121230000Y-112756000D01*
X121055000Y-133985000D02*
X121055000Y-112931000D01*
X117660001Y-108420001D02*
X118460000Y-109220000D01*
X117660001Y-89064999D02*
X117660001Y-108420001D01*
X118460000Y-88265000D02*
X117660001Y-89064999D01*
X118460000Y-109220000D02*
X118460000Y-134524000D01*
X118285000Y-134349000D02*
X118285000Y-133985000D01*
X118460000Y-134524000D02*
X118285000Y-134349000D01*
X128155000Y-110380002D02*
X128155000Y-112060000D01*
X128155000Y-85425000D02*
X128155000Y-110380002D01*
X127980000Y-135693630D02*
X127980000Y-136825000D01*
X127980000Y-113366370D02*
X127980000Y-135693630D01*
X128155000Y-113191370D02*
X127980000Y-113366370D01*
X128155000Y-112060000D02*
X128155000Y-113191370D01*
X125210000Y-112235000D02*
X125385000Y-112060000D01*
X125210000Y-136825000D02*
X125210000Y-112235000D01*
X125385000Y-87688998D02*
X125385000Y-85425000D01*
X125385000Y-112060000D02*
X125385000Y-87688998D01*
X122440000Y-112235000D02*
X122615000Y-112060000D01*
X122440000Y-136825000D02*
X122440000Y-112235000D01*
X122615000Y-112060000D02*
X122615000Y-85425000D01*
X119670000Y-112235000D02*
X119845000Y-112060000D01*
X119670000Y-136825000D02*
X119670000Y-112235000D01*
X119845000Y-112060000D02*
X119845000Y-85425000D01*
M02*
