G04 #@! TF.GenerationSoftware,KiCad,Pcbnew,(5.1.4)-1*
G04 #@! TF.CreationDate,2020-06-05T14:27:08+02:00*
G04 #@! TF.ProjectId,Breakout,42726561-6b6f-4757-942e-6b696361645f,rev?*
G04 #@! TF.SameCoordinates,Original*
G04 #@! TF.FileFunction,Copper,L1,Top*
G04 #@! TF.FilePolarity,Positive*
%FSLAX46Y46*%
G04 Gerber Fmt 4.6, Leading zero omitted, Abs format (unit mm)*
G04 Created by KiCad (PCBNEW (5.1.4)-1) date 2020-06-05 14:27:08*
%MOMM*%
%LPD*%
G04 APERTURE LIST*
%ADD10R,1.600000X1.600000*%
%ADD11C,1.600000*%
%ADD12C,4.000000*%
%ADD13C,7.600000*%
%ADD14C,1.000000*%
%ADD15C,0.250000*%
G04 APERTURE END LIST*
D10*
X91440000Y-133985000D03*
D11*
X88670000Y-133985000D03*
X85900000Y-133985000D03*
X83130000Y-133985000D03*
X80360000Y-133985000D03*
X90055000Y-136825000D03*
X87285000Y-136825000D03*
X84515000Y-136825000D03*
X81745000Y-136825000D03*
D12*
X73400000Y-135405000D03*
X98400000Y-135405000D03*
D13*
X215900000Y-151892000D03*
D12*
X174600000Y-38250000D03*
X149600000Y-38250000D03*
D11*
X157945000Y-39670000D03*
X160715000Y-39670000D03*
X163485000Y-39670000D03*
X166255000Y-39670000D03*
X156560000Y-36830000D03*
X159330000Y-36830000D03*
X162100000Y-36830000D03*
X164870000Y-36830000D03*
D10*
X167640000Y-36830000D03*
X129540000Y-52705000D03*
D11*
X126770000Y-52705000D03*
X124000000Y-52705000D03*
X121230000Y-52705000D03*
X118460000Y-52705000D03*
X128155000Y-55545000D03*
X125385000Y-55545000D03*
X122615000Y-55545000D03*
X119845000Y-55545000D03*
D12*
X111500000Y-54125000D03*
X136500000Y-54125000D03*
D10*
X205740000Y-88265000D03*
D11*
X202970000Y-88265000D03*
X200200000Y-88265000D03*
X197430000Y-88265000D03*
X194660000Y-88265000D03*
X204355000Y-85425000D03*
X201585000Y-85425000D03*
X198815000Y-85425000D03*
X196045000Y-85425000D03*
D12*
X212700000Y-86845000D03*
X187700000Y-86845000D03*
X73400000Y-86845000D03*
X98400000Y-86845000D03*
D11*
X81745000Y-85425000D03*
X84515000Y-85425000D03*
X87285000Y-85425000D03*
X90055000Y-85425000D03*
X80360000Y-88265000D03*
X83130000Y-88265000D03*
X85900000Y-88265000D03*
X88670000Y-88265000D03*
D10*
X91440000Y-88265000D03*
X129540000Y-36830000D03*
D11*
X126770000Y-36830000D03*
X124000000Y-36830000D03*
X121230000Y-36830000D03*
X118460000Y-36830000D03*
X128155000Y-39670000D03*
X125385000Y-39670000D03*
X122615000Y-39670000D03*
X119845000Y-39670000D03*
D12*
X111500000Y-38250000D03*
X136500000Y-38250000D03*
X212700000Y-110640000D03*
X187700000Y-110640000D03*
D11*
X196045000Y-112060000D03*
X198815000Y-112060000D03*
X201585000Y-112060000D03*
X204355000Y-112060000D03*
X194660000Y-109220000D03*
X197430000Y-109220000D03*
X200200000Y-109220000D03*
X202970000Y-109220000D03*
D10*
X205740000Y-109220000D03*
X205740000Y-133985000D03*
D11*
X202970000Y-133985000D03*
X200200000Y-133985000D03*
X197430000Y-133985000D03*
X194660000Y-133985000D03*
X204355000Y-136825000D03*
X201585000Y-136825000D03*
X198815000Y-136825000D03*
X196045000Y-136825000D03*
D12*
X187700000Y-135405000D03*
X212700000Y-135405000D03*
X174600000Y-54125000D03*
X149600000Y-54125000D03*
D11*
X157945000Y-55545000D03*
X160715000Y-55545000D03*
X163485000Y-55545000D03*
X166255000Y-55545000D03*
X156560000Y-52705000D03*
X159330000Y-52705000D03*
X162100000Y-52705000D03*
X164870000Y-52705000D03*
D10*
X167640000Y-52705000D03*
D12*
X98400000Y-110640000D03*
X73400000Y-110640000D03*
D11*
X81745000Y-112060000D03*
X84515000Y-112060000D03*
X87285000Y-112060000D03*
X90055000Y-112060000D03*
X80360000Y-109220000D03*
X83130000Y-109220000D03*
X85900000Y-109220000D03*
X88670000Y-109220000D03*
D10*
X91440000Y-109220000D03*
D12*
X149600000Y-86845000D03*
X174600000Y-86845000D03*
D11*
X157945000Y-85425000D03*
X160715000Y-85425000D03*
X163485000Y-85425000D03*
X166255000Y-85425000D03*
X156560000Y-88265000D03*
X159330000Y-88265000D03*
X162100000Y-88265000D03*
X164870000Y-88265000D03*
D10*
X167640000Y-88265000D03*
X167640000Y-133985000D03*
D11*
X164870000Y-133985000D03*
X162100000Y-133985000D03*
X159330000Y-133985000D03*
X156560000Y-133985000D03*
X166255000Y-136825000D03*
X163485000Y-136825000D03*
X160715000Y-136825000D03*
X157945000Y-136825000D03*
D12*
X149600000Y-135405000D03*
X174600000Y-135405000D03*
X174600000Y-110640000D03*
X149600000Y-110640000D03*
D11*
X157945000Y-112060000D03*
X160715000Y-112060000D03*
X163485000Y-112060000D03*
X166255000Y-112060000D03*
X156560000Y-109220000D03*
X159330000Y-109220000D03*
X162100000Y-109220000D03*
X164870000Y-109220000D03*
D10*
X167640000Y-109220000D03*
X129540000Y-88265000D03*
D11*
X126770000Y-88265000D03*
X124000000Y-88265000D03*
X121230000Y-88265000D03*
X118460000Y-88265000D03*
X128155000Y-85425000D03*
X125385000Y-85425000D03*
X122615000Y-85425000D03*
X119845000Y-85425000D03*
D12*
X136500000Y-86845000D03*
X111500000Y-86845000D03*
X136325000Y-135405000D03*
X111325000Y-135405000D03*
D11*
X119670000Y-136825000D03*
X122440000Y-136825000D03*
X125210000Y-136825000D03*
X127980000Y-136825000D03*
X118285000Y-133985000D03*
X121055000Y-133985000D03*
X123825000Y-133985000D03*
X126595000Y-133985000D03*
D10*
X129365000Y-133985000D03*
X129540000Y-109220000D03*
D11*
X126770000Y-109220000D03*
X124000000Y-109220000D03*
X121230000Y-109220000D03*
X118460000Y-109220000D03*
X128155000Y-112060000D03*
X125385000Y-112060000D03*
X122615000Y-112060000D03*
X119845000Y-112060000D03*
D12*
X111500000Y-110640000D03*
X136500000Y-110640000D03*
D13*
X71120000Y-30480000D03*
X215900000Y-30480000D03*
X71120000Y-152400000D03*
D14*
X174600000Y-41078427D02*
X174600000Y-54125000D01*
X174600000Y-38250000D02*
X174600000Y-41078427D01*
X136500000Y-41078427D02*
X136500000Y-54125000D01*
X136500000Y-38250000D02*
X136500000Y-41078427D01*
X75399999Y-88844999D02*
X73400000Y-86845000D01*
X77120001Y-90565001D02*
X75399999Y-88844999D01*
X94679999Y-90565001D02*
X77120001Y-90565001D01*
X98400000Y-86845000D02*
X94679999Y-90565001D01*
X215900000Y-138605000D02*
X212700000Y-135405000D01*
X215900000Y-151892000D02*
X215900000Y-138605000D01*
X71628000Y-151892000D02*
X71120000Y-152400000D01*
X215900000Y-151892000D02*
X71628000Y-151892000D01*
X215900000Y-30480000D02*
X71120000Y-30480000D01*
X67320001Y-148600001D02*
X67320001Y-123200001D01*
X67320001Y-148600001D02*
X71120000Y-152400000D01*
X67320001Y-34279999D02*
X67320001Y-148600001D01*
X71120000Y-30480000D02*
X67320001Y-34279999D01*
X215900000Y-53340000D02*
X215900000Y-30480000D01*
X218440000Y-55880000D02*
X215900000Y-53340000D01*
X218440000Y-137160000D02*
X218440000Y-55880000D01*
X215900000Y-151892000D02*
X215900000Y-139700000D01*
X215900000Y-139700000D02*
X218440000Y-137160000D01*
D15*
X157945000Y-53281002D02*
X155956000Y-55270002D01*
X157945000Y-39670000D02*
X157945000Y-53281002D01*
X155956000Y-83436000D02*
X157945000Y-85425000D01*
X155956000Y-55270002D02*
X155956000Y-83436000D01*
X163425001Y-53341001D02*
X162052000Y-54714002D01*
X163425001Y-52068999D02*
X163425001Y-53341001D01*
X160715000Y-39670000D02*
X160715000Y-49358998D01*
X160715000Y-49358998D02*
X163425001Y-52068999D01*
X160715000Y-84293630D02*
X160715000Y-85425000D01*
X160715000Y-57506002D02*
X160715000Y-84293630D01*
X162052000Y-56169002D02*
X160715000Y-57506002D01*
X162052000Y-54714002D02*
X162052000Y-56169002D01*
X164325002Y-84584998D02*
X163485000Y-85425000D01*
X164325002Y-59436000D02*
X164325002Y-84584998D01*
X168965001Y-54796001D02*
X164325002Y-59436000D01*
X168965001Y-47950999D02*
X168965001Y-54796001D01*
X163485000Y-42470998D02*
X163485000Y-39670000D01*
X168965001Y-47950999D02*
X163485000Y-42470998D01*
X166255000Y-39670000D02*
X166255000Y-42303000D01*
X166255000Y-42303000D02*
X170688000Y-46736000D01*
X170688000Y-46736000D02*
X170688000Y-56388000D01*
X166255000Y-60821000D02*
X166255000Y-85425000D01*
X170688000Y-56388000D02*
X166255000Y-60821000D01*
X155760001Y-87465001D02*
X156560000Y-88265000D01*
X155234999Y-86939999D02*
X155760001Y-87465001D01*
X155234999Y-38155001D02*
X155234999Y-86939999D01*
X156560000Y-36830000D02*
X155234999Y-38155001D01*
X159330000Y-88265000D02*
X159330000Y-58094000D01*
X159330000Y-37961370D02*
X159330000Y-36830000D01*
X159330000Y-48893250D02*
X159330000Y-37961370D01*
X160655001Y-50218251D02*
X159330000Y-48893250D01*
X160655001Y-53341001D02*
X160655001Y-50218251D01*
X159389999Y-54606003D02*
X160655001Y-53341001D01*
X159389999Y-58034001D02*
X159389999Y-54606003D01*
X159330000Y-58094000D02*
X159389999Y-58034001D01*
X162100000Y-58891002D02*
X164810001Y-56181001D01*
X162100000Y-88265000D02*
X162100000Y-58891002D01*
X164810001Y-54726001D02*
X166195001Y-53341001D01*
X164810001Y-56181001D02*
X164810001Y-54726001D01*
X166195001Y-52068999D02*
X166195001Y-53341001D01*
X162100000Y-47973998D02*
X166195001Y-52068999D01*
X162100000Y-36830000D02*
X162100000Y-47973998D01*
X164870000Y-40585068D02*
X164870000Y-36830000D01*
X164870000Y-41934000D02*
X164870000Y-40585068D01*
X164870000Y-84959252D02*
X164975010Y-84854242D01*
X164975010Y-84854242D02*
X164975010Y-59705244D01*
X164975010Y-59705244D02*
X169615011Y-55065243D01*
X169615011Y-55065243D02*
X169615011Y-46679011D01*
X164870000Y-88265000D02*
X164870000Y-84959252D01*
X169615011Y-46679011D02*
X164870000Y-41934000D01*
X167640000Y-41148000D02*
X167640000Y-36830000D01*
X171338010Y-44846010D02*
X167640000Y-41148000D01*
X171338010Y-57261990D02*
X171338010Y-44846010D01*
X167640000Y-88265000D02*
X167640000Y-60960000D01*
X167640000Y-60960000D02*
X171338010Y-57261990D01*
X129540000Y-85705002D02*
X129540000Y-88265000D01*
X129540000Y-52705000D02*
X129540000Y-85705002D01*
X126770000Y-52705000D02*
X126770000Y-88265000D01*
X124000000Y-52705000D02*
X124000000Y-88265000D01*
X121230000Y-52705000D02*
X121230000Y-88265000D01*
X118460000Y-52705000D02*
X118460000Y-88265000D01*
X128155000Y-85425000D02*
X128155000Y-55545000D01*
X125385000Y-85425000D02*
X125385000Y-55545000D01*
X122615000Y-56676370D02*
X122615000Y-85425000D01*
X122615000Y-55545000D02*
X122615000Y-56676370D01*
X119845000Y-85425000D02*
X119845000Y-55545000D01*
M02*
