G04 #@! TF.GenerationSoftware,KiCad,Pcbnew,(5.1.4)-1*
G04 #@! TF.CreationDate,2020-06-05T14:27:08+02:00*
G04 #@! TF.ProjectId,Breakout,42726561-6b6f-4757-942e-6b696361645f,rev?*
G04 #@! TF.SameCoordinates,Original*
G04 #@! TF.FileFunction,Soldermask,Top*
G04 #@! TF.FilePolarity,Negative*
%FSLAX46Y46*%
G04 Gerber Fmt 4.6, Leading zero omitted, Abs format (unit mm)*
G04 Created by KiCad (PCBNEW (5.1.4)-1) date 2020-06-05 14:27:08*
%MOMM*%
%LPD*%
G04 APERTURE LIST*
%ADD10C,0.300000*%
%ADD11C,0.100000*%
G04 APERTURE END LIST*
D10*
X103104285Y-55145714D02*
X103032857Y-55217142D01*
X102818571Y-55288571D01*
X102675714Y-55288571D01*
X102461428Y-55217142D01*
X102318571Y-55074285D01*
X102247142Y-54931428D01*
X102175714Y-54645714D01*
X102175714Y-54431428D01*
X102247142Y-54145714D01*
X102318571Y-54002857D01*
X102461428Y-53860000D01*
X102675714Y-53788571D01*
X102818571Y-53788571D01*
X103032857Y-53860000D01*
X103104285Y-53931428D01*
X103747142Y-55288571D02*
X103747142Y-53788571D01*
X103747142Y-54502857D02*
X104604285Y-54502857D01*
X104604285Y-55288571D02*
X104604285Y-53788571D01*
X105247142Y-53931428D02*
X105318571Y-53860000D01*
X105461428Y-53788571D01*
X105818571Y-53788571D01*
X105961428Y-53860000D01*
X106032857Y-53931428D01*
X106104285Y-54074285D01*
X106104285Y-54217142D01*
X106032857Y-54431428D01*
X105175714Y-55288571D01*
X106104285Y-55288571D01*
X103104285Y-38635714D02*
X103032857Y-38707142D01*
X102818571Y-38778571D01*
X102675714Y-38778571D01*
X102461428Y-38707142D01*
X102318571Y-38564285D01*
X102247142Y-38421428D01*
X102175714Y-38135714D01*
X102175714Y-37921428D01*
X102247142Y-37635714D01*
X102318571Y-37492857D01*
X102461428Y-37350000D01*
X102675714Y-37278571D01*
X102818571Y-37278571D01*
X103032857Y-37350000D01*
X103104285Y-37421428D01*
X103747142Y-38778571D02*
X103747142Y-37278571D01*
X103747142Y-37992857D02*
X104604285Y-37992857D01*
X104604285Y-38778571D02*
X104604285Y-37278571D01*
X105961428Y-37778571D02*
X105961428Y-38778571D01*
X105604285Y-37207142D02*
X105247142Y-38278571D01*
X106175714Y-38278571D01*
X179304285Y-38635714D02*
X179232857Y-38707142D01*
X179018571Y-38778571D01*
X178875714Y-38778571D01*
X178661428Y-38707142D01*
X178518571Y-38564285D01*
X178447142Y-38421428D01*
X178375714Y-38135714D01*
X178375714Y-37921428D01*
X178447142Y-37635714D01*
X178518571Y-37492857D01*
X178661428Y-37350000D01*
X178875714Y-37278571D01*
X179018571Y-37278571D01*
X179232857Y-37350000D01*
X179304285Y-37421428D01*
X179947142Y-38778571D02*
X179947142Y-37278571D01*
X179947142Y-37992857D02*
X180804285Y-37992857D01*
X180804285Y-38778571D02*
X180804285Y-37278571D01*
X181375714Y-37278571D02*
X182304285Y-37278571D01*
X181804285Y-37850000D01*
X182018571Y-37850000D01*
X182161428Y-37921428D01*
X182232857Y-37992857D01*
X182304285Y-38135714D01*
X182304285Y-38492857D01*
X182232857Y-38635714D01*
X182161428Y-38707142D01*
X182018571Y-38778571D01*
X181590000Y-38778571D01*
X181447142Y-38707142D01*
X181375714Y-38635714D01*
X179304285Y-55145714D02*
X179232857Y-55217142D01*
X179018571Y-55288571D01*
X178875714Y-55288571D01*
X178661428Y-55217142D01*
X178518571Y-55074285D01*
X178447142Y-54931428D01*
X178375714Y-54645714D01*
X178375714Y-54431428D01*
X178447142Y-54145714D01*
X178518571Y-54002857D01*
X178661428Y-53860000D01*
X178875714Y-53788571D01*
X179018571Y-53788571D01*
X179232857Y-53860000D01*
X179304285Y-53931428D01*
X179947142Y-55288571D02*
X179947142Y-53788571D01*
X179947142Y-54502857D02*
X180804285Y-54502857D01*
X180804285Y-55288571D02*
X180804285Y-53788571D01*
X182304285Y-55288571D02*
X181447142Y-55288571D01*
X181875714Y-55288571D02*
X181875714Y-53788571D01*
X181732857Y-54002857D01*
X181590000Y-54145714D01*
X181447142Y-54217142D01*
D11*
G36*
X71995293Y-148647661D02*
G01*
X72243295Y-148696992D01*
X72944132Y-148987288D01*
X73574869Y-149408733D01*
X74111267Y-149945131D01*
X74532712Y-150575868D01*
X74823008Y-151276705D01*
X74971000Y-152020710D01*
X74971000Y-152779290D01*
X74823008Y-153523295D01*
X74532712Y-154224132D01*
X74111267Y-154854869D01*
X73574869Y-155391267D01*
X72944132Y-155812712D01*
X72243295Y-156103008D01*
X71995293Y-156152339D01*
X71499292Y-156251000D01*
X70740708Y-156251000D01*
X70244707Y-156152339D01*
X69996705Y-156103008D01*
X69295868Y-155812712D01*
X68665131Y-155391267D01*
X68128733Y-154854869D01*
X67707288Y-154224132D01*
X67416992Y-153523295D01*
X67269000Y-152779290D01*
X67269000Y-152020710D01*
X67416992Y-151276705D01*
X67707288Y-150575868D01*
X68128733Y-149945131D01*
X68665131Y-149408733D01*
X69295868Y-148987288D01*
X69996705Y-148696992D01*
X70244707Y-148647661D01*
X70740708Y-148549000D01*
X71499292Y-148549000D01*
X71995293Y-148647661D01*
X71995293Y-148647661D01*
G37*
G36*
X216775293Y-148139661D02*
G01*
X217023295Y-148188992D01*
X217724132Y-148479288D01*
X218354869Y-148900733D01*
X218891267Y-149437131D01*
X219312712Y-150067868D01*
X219603008Y-150768705D01*
X219751000Y-151512710D01*
X219751000Y-152271290D01*
X219603008Y-153015295D01*
X219312712Y-153716132D01*
X218891267Y-154346869D01*
X218354869Y-154883267D01*
X217724132Y-155304712D01*
X217023295Y-155595008D01*
X216775293Y-155644339D01*
X216279292Y-155743000D01*
X215520708Y-155743000D01*
X215024707Y-155644339D01*
X214776705Y-155595008D01*
X214075868Y-155304712D01*
X213445131Y-154883267D01*
X212908733Y-154346869D01*
X212487288Y-153716132D01*
X212196992Y-153015295D01*
X212049000Y-152271290D01*
X212049000Y-151512710D01*
X212196992Y-150768705D01*
X212487288Y-150067868D01*
X212908733Y-149437131D01*
X213445131Y-148900733D01*
X214075868Y-148479288D01*
X214776705Y-148188992D01*
X215024707Y-148139661D01*
X215520708Y-148041000D01*
X216279292Y-148041000D01*
X216775293Y-148139661D01*
X216775293Y-148139661D01*
G37*
G36*
X163733228Y-136006703D02*
G01*
X163888100Y-136070853D01*
X164027481Y-136163985D01*
X164146015Y-136282519D01*
X164239147Y-136421900D01*
X164303297Y-136576772D01*
X164336000Y-136741184D01*
X164336000Y-136908816D01*
X164303297Y-137073228D01*
X164239147Y-137228100D01*
X164146015Y-137367481D01*
X164027481Y-137486015D01*
X163888100Y-137579147D01*
X163733228Y-137643297D01*
X163568816Y-137676000D01*
X163401184Y-137676000D01*
X163236772Y-137643297D01*
X163081900Y-137579147D01*
X162942519Y-137486015D01*
X162823985Y-137367481D01*
X162730853Y-137228100D01*
X162666703Y-137073228D01*
X162634000Y-136908816D01*
X162634000Y-136741184D01*
X162666703Y-136576772D01*
X162730853Y-136421900D01*
X162823985Y-136282519D01*
X162942519Y-136163985D01*
X163081900Y-136070853D01*
X163236772Y-136006703D01*
X163401184Y-135974000D01*
X163568816Y-135974000D01*
X163733228Y-136006703D01*
X163733228Y-136006703D01*
G37*
G36*
X128228228Y-136006703D02*
G01*
X128383100Y-136070853D01*
X128522481Y-136163985D01*
X128641015Y-136282519D01*
X128734147Y-136421900D01*
X128798297Y-136576772D01*
X128831000Y-136741184D01*
X128831000Y-136908816D01*
X128798297Y-137073228D01*
X128734147Y-137228100D01*
X128641015Y-137367481D01*
X128522481Y-137486015D01*
X128383100Y-137579147D01*
X128228228Y-137643297D01*
X128063816Y-137676000D01*
X127896184Y-137676000D01*
X127731772Y-137643297D01*
X127576900Y-137579147D01*
X127437519Y-137486015D01*
X127318985Y-137367481D01*
X127225853Y-137228100D01*
X127161703Y-137073228D01*
X127129000Y-136908816D01*
X127129000Y-136741184D01*
X127161703Y-136576772D01*
X127225853Y-136421900D01*
X127318985Y-136282519D01*
X127437519Y-136163985D01*
X127576900Y-136070853D01*
X127731772Y-136006703D01*
X127896184Y-135974000D01*
X128063816Y-135974000D01*
X128228228Y-136006703D01*
X128228228Y-136006703D01*
G37*
G36*
X125458228Y-136006703D02*
G01*
X125613100Y-136070853D01*
X125752481Y-136163985D01*
X125871015Y-136282519D01*
X125964147Y-136421900D01*
X126028297Y-136576772D01*
X126061000Y-136741184D01*
X126061000Y-136908816D01*
X126028297Y-137073228D01*
X125964147Y-137228100D01*
X125871015Y-137367481D01*
X125752481Y-137486015D01*
X125613100Y-137579147D01*
X125458228Y-137643297D01*
X125293816Y-137676000D01*
X125126184Y-137676000D01*
X124961772Y-137643297D01*
X124806900Y-137579147D01*
X124667519Y-137486015D01*
X124548985Y-137367481D01*
X124455853Y-137228100D01*
X124391703Y-137073228D01*
X124359000Y-136908816D01*
X124359000Y-136741184D01*
X124391703Y-136576772D01*
X124455853Y-136421900D01*
X124548985Y-136282519D01*
X124667519Y-136163985D01*
X124806900Y-136070853D01*
X124961772Y-136006703D01*
X125126184Y-135974000D01*
X125293816Y-135974000D01*
X125458228Y-136006703D01*
X125458228Y-136006703D01*
G37*
G36*
X122688228Y-136006703D02*
G01*
X122843100Y-136070853D01*
X122982481Y-136163985D01*
X123101015Y-136282519D01*
X123194147Y-136421900D01*
X123258297Y-136576772D01*
X123291000Y-136741184D01*
X123291000Y-136908816D01*
X123258297Y-137073228D01*
X123194147Y-137228100D01*
X123101015Y-137367481D01*
X122982481Y-137486015D01*
X122843100Y-137579147D01*
X122688228Y-137643297D01*
X122523816Y-137676000D01*
X122356184Y-137676000D01*
X122191772Y-137643297D01*
X122036900Y-137579147D01*
X121897519Y-137486015D01*
X121778985Y-137367481D01*
X121685853Y-137228100D01*
X121621703Y-137073228D01*
X121589000Y-136908816D01*
X121589000Y-136741184D01*
X121621703Y-136576772D01*
X121685853Y-136421900D01*
X121778985Y-136282519D01*
X121897519Y-136163985D01*
X122036900Y-136070853D01*
X122191772Y-136006703D01*
X122356184Y-135974000D01*
X122523816Y-135974000D01*
X122688228Y-136006703D01*
X122688228Y-136006703D01*
G37*
G36*
X119918228Y-136006703D02*
G01*
X120073100Y-136070853D01*
X120212481Y-136163985D01*
X120331015Y-136282519D01*
X120424147Y-136421900D01*
X120488297Y-136576772D01*
X120521000Y-136741184D01*
X120521000Y-136908816D01*
X120488297Y-137073228D01*
X120424147Y-137228100D01*
X120331015Y-137367481D01*
X120212481Y-137486015D01*
X120073100Y-137579147D01*
X119918228Y-137643297D01*
X119753816Y-137676000D01*
X119586184Y-137676000D01*
X119421772Y-137643297D01*
X119266900Y-137579147D01*
X119127519Y-137486015D01*
X119008985Y-137367481D01*
X118915853Y-137228100D01*
X118851703Y-137073228D01*
X118819000Y-136908816D01*
X118819000Y-136741184D01*
X118851703Y-136576772D01*
X118915853Y-136421900D01*
X119008985Y-136282519D01*
X119127519Y-136163985D01*
X119266900Y-136070853D01*
X119421772Y-136006703D01*
X119586184Y-135974000D01*
X119753816Y-135974000D01*
X119918228Y-136006703D01*
X119918228Y-136006703D01*
G37*
G36*
X158193228Y-136006703D02*
G01*
X158348100Y-136070853D01*
X158487481Y-136163985D01*
X158606015Y-136282519D01*
X158699147Y-136421900D01*
X158763297Y-136576772D01*
X158796000Y-136741184D01*
X158796000Y-136908816D01*
X158763297Y-137073228D01*
X158699147Y-137228100D01*
X158606015Y-137367481D01*
X158487481Y-137486015D01*
X158348100Y-137579147D01*
X158193228Y-137643297D01*
X158028816Y-137676000D01*
X157861184Y-137676000D01*
X157696772Y-137643297D01*
X157541900Y-137579147D01*
X157402519Y-137486015D01*
X157283985Y-137367481D01*
X157190853Y-137228100D01*
X157126703Y-137073228D01*
X157094000Y-136908816D01*
X157094000Y-136741184D01*
X157126703Y-136576772D01*
X157190853Y-136421900D01*
X157283985Y-136282519D01*
X157402519Y-136163985D01*
X157541900Y-136070853D01*
X157696772Y-136006703D01*
X157861184Y-135974000D01*
X158028816Y-135974000D01*
X158193228Y-136006703D01*
X158193228Y-136006703D01*
G37*
G36*
X160963228Y-136006703D02*
G01*
X161118100Y-136070853D01*
X161257481Y-136163985D01*
X161376015Y-136282519D01*
X161469147Y-136421900D01*
X161533297Y-136576772D01*
X161566000Y-136741184D01*
X161566000Y-136908816D01*
X161533297Y-137073228D01*
X161469147Y-137228100D01*
X161376015Y-137367481D01*
X161257481Y-137486015D01*
X161118100Y-137579147D01*
X160963228Y-137643297D01*
X160798816Y-137676000D01*
X160631184Y-137676000D01*
X160466772Y-137643297D01*
X160311900Y-137579147D01*
X160172519Y-137486015D01*
X160053985Y-137367481D01*
X159960853Y-137228100D01*
X159896703Y-137073228D01*
X159864000Y-136908816D01*
X159864000Y-136741184D01*
X159896703Y-136576772D01*
X159960853Y-136421900D01*
X160053985Y-136282519D01*
X160172519Y-136163985D01*
X160311900Y-136070853D01*
X160466772Y-136006703D01*
X160631184Y-135974000D01*
X160798816Y-135974000D01*
X160963228Y-136006703D01*
X160963228Y-136006703D01*
G37*
G36*
X196293228Y-136006703D02*
G01*
X196448100Y-136070853D01*
X196587481Y-136163985D01*
X196706015Y-136282519D01*
X196799147Y-136421900D01*
X196863297Y-136576772D01*
X196896000Y-136741184D01*
X196896000Y-136908816D01*
X196863297Y-137073228D01*
X196799147Y-137228100D01*
X196706015Y-137367481D01*
X196587481Y-137486015D01*
X196448100Y-137579147D01*
X196293228Y-137643297D01*
X196128816Y-137676000D01*
X195961184Y-137676000D01*
X195796772Y-137643297D01*
X195641900Y-137579147D01*
X195502519Y-137486015D01*
X195383985Y-137367481D01*
X195290853Y-137228100D01*
X195226703Y-137073228D01*
X195194000Y-136908816D01*
X195194000Y-136741184D01*
X195226703Y-136576772D01*
X195290853Y-136421900D01*
X195383985Y-136282519D01*
X195502519Y-136163985D01*
X195641900Y-136070853D01*
X195796772Y-136006703D01*
X195961184Y-135974000D01*
X196128816Y-135974000D01*
X196293228Y-136006703D01*
X196293228Y-136006703D01*
G37*
G36*
X199063228Y-136006703D02*
G01*
X199218100Y-136070853D01*
X199357481Y-136163985D01*
X199476015Y-136282519D01*
X199569147Y-136421900D01*
X199633297Y-136576772D01*
X199666000Y-136741184D01*
X199666000Y-136908816D01*
X199633297Y-137073228D01*
X199569147Y-137228100D01*
X199476015Y-137367481D01*
X199357481Y-137486015D01*
X199218100Y-137579147D01*
X199063228Y-137643297D01*
X198898816Y-137676000D01*
X198731184Y-137676000D01*
X198566772Y-137643297D01*
X198411900Y-137579147D01*
X198272519Y-137486015D01*
X198153985Y-137367481D01*
X198060853Y-137228100D01*
X197996703Y-137073228D01*
X197964000Y-136908816D01*
X197964000Y-136741184D01*
X197996703Y-136576772D01*
X198060853Y-136421900D01*
X198153985Y-136282519D01*
X198272519Y-136163985D01*
X198411900Y-136070853D01*
X198566772Y-136006703D01*
X198731184Y-135974000D01*
X198898816Y-135974000D01*
X199063228Y-136006703D01*
X199063228Y-136006703D01*
G37*
G36*
X204603228Y-136006703D02*
G01*
X204758100Y-136070853D01*
X204897481Y-136163985D01*
X205016015Y-136282519D01*
X205109147Y-136421900D01*
X205173297Y-136576772D01*
X205206000Y-136741184D01*
X205206000Y-136908816D01*
X205173297Y-137073228D01*
X205109147Y-137228100D01*
X205016015Y-137367481D01*
X204897481Y-137486015D01*
X204758100Y-137579147D01*
X204603228Y-137643297D01*
X204438816Y-137676000D01*
X204271184Y-137676000D01*
X204106772Y-137643297D01*
X203951900Y-137579147D01*
X203812519Y-137486015D01*
X203693985Y-137367481D01*
X203600853Y-137228100D01*
X203536703Y-137073228D01*
X203504000Y-136908816D01*
X203504000Y-136741184D01*
X203536703Y-136576772D01*
X203600853Y-136421900D01*
X203693985Y-136282519D01*
X203812519Y-136163985D01*
X203951900Y-136070853D01*
X204106772Y-136006703D01*
X204271184Y-135974000D01*
X204438816Y-135974000D01*
X204603228Y-136006703D01*
X204603228Y-136006703D01*
G37*
G36*
X201833228Y-136006703D02*
G01*
X201988100Y-136070853D01*
X202127481Y-136163985D01*
X202246015Y-136282519D01*
X202339147Y-136421900D01*
X202403297Y-136576772D01*
X202436000Y-136741184D01*
X202436000Y-136908816D01*
X202403297Y-137073228D01*
X202339147Y-137228100D01*
X202246015Y-137367481D01*
X202127481Y-137486015D01*
X201988100Y-137579147D01*
X201833228Y-137643297D01*
X201668816Y-137676000D01*
X201501184Y-137676000D01*
X201336772Y-137643297D01*
X201181900Y-137579147D01*
X201042519Y-137486015D01*
X200923985Y-137367481D01*
X200830853Y-137228100D01*
X200766703Y-137073228D01*
X200734000Y-136908816D01*
X200734000Y-136741184D01*
X200766703Y-136576772D01*
X200830853Y-136421900D01*
X200923985Y-136282519D01*
X201042519Y-136163985D01*
X201181900Y-136070853D01*
X201336772Y-136006703D01*
X201501184Y-135974000D01*
X201668816Y-135974000D01*
X201833228Y-136006703D01*
X201833228Y-136006703D01*
G37*
G36*
X81993228Y-136006703D02*
G01*
X82148100Y-136070853D01*
X82287481Y-136163985D01*
X82406015Y-136282519D01*
X82499147Y-136421900D01*
X82563297Y-136576772D01*
X82596000Y-136741184D01*
X82596000Y-136908816D01*
X82563297Y-137073228D01*
X82499147Y-137228100D01*
X82406015Y-137367481D01*
X82287481Y-137486015D01*
X82148100Y-137579147D01*
X81993228Y-137643297D01*
X81828816Y-137676000D01*
X81661184Y-137676000D01*
X81496772Y-137643297D01*
X81341900Y-137579147D01*
X81202519Y-137486015D01*
X81083985Y-137367481D01*
X80990853Y-137228100D01*
X80926703Y-137073228D01*
X80894000Y-136908816D01*
X80894000Y-136741184D01*
X80926703Y-136576772D01*
X80990853Y-136421900D01*
X81083985Y-136282519D01*
X81202519Y-136163985D01*
X81341900Y-136070853D01*
X81496772Y-136006703D01*
X81661184Y-135974000D01*
X81828816Y-135974000D01*
X81993228Y-136006703D01*
X81993228Y-136006703D01*
G37*
G36*
X84763228Y-136006703D02*
G01*
X84918100Y-136070853D01*
X85057481Y-136163985D01*
X85176015Y-136282519D01*
X85269147Y-136421900D01*
X85333297Y-136576772D01*
X85366000Y-136741184D01*
X85366000Y-136908816D01*
X85333297Y-137073228D01*
X85269147Y-137228100D01*
X85176015Y-137367481D01*
X85057481Y-137486015D01*
X84918100Y-137579147D01*
X84763228Y-137643297D01*
X84598816Y-137676000D01*
X84431184Y-137676000D01*
X84266772Y-137643297D01*
X84111900Y-137579147D01*
X83972519Y-137486015D01*
X83853985Y-137367481D01*
X83760853Y-137228100D01*
X83696703Y-137073228D01*
X83664000Y-136908816D01*
X83664000Y-136741184D01*
X83696703Y-136576772D01*
X83760853Y-136421900D01*
X83853985Y-136282519D01*
X83972519Y-136163985D01*
X84111900Y-136070853D01*
X84266772Y-136006703D01*
X84431184Y-135974000D01*
X84598816Y-135974000D01*
X84763228Y-136006703D01*
X84763228Y-136006703D01*
G37*
G36*
X87533228Y-136006703D02*
G01*
X87688100Y-136070853D01*
X87827481Y-136163985D01*
X87946015Y-136282519D01*
X88039147Y-136421900D01*
X88103297Y-136576772D01*
X88136000Y-136741184D01*
X88136000Y-136908816D01*
X88103297Y-137073228D01*
X88039147Y-137228100D01*
X87946015Y-137367481D01*
X87827481Y-137486015D01*
X87688100Y-137579147D01*
X87533228Y-137643297D01*
X87368816Y-137676000D01*
X87201184Y-137676000D01*
X87036772Y-137643297D01*
X86881900Y-137579147D01*
X86742519Y-137486015D01*
X86623985Y-137367481D01*
X86530853Y-137228100D01*
X86466703Y-137073228D01*
X86434000Y-136908816D01*
X86434000Y-136741184D01*
X86466703Y-136576772D01*
X86530853Y-136421900D01*
X86623985Y-136282519D01*
X86742519Y-136163985D01*
X86881900Y-136070853D01*
X87036772Y-136006703D01*
X87201184Y-135974000D01*
X87368816Y-135974000D01*
X87533228Y-136006703D01*
X87533228Y-136006703D01*
G37*
G36*
X90303228Y-136006703D02*
G01*
X90458100Y-136070853D01*
X90597481Y-136163985D01*
X90716015Y-136282519D01*
X90809147Y-136421900D01*
X90873297Y-136576772D01*
X90906000Y-136741184D01*
X90906000Y-136908816D01*
X90873297Y-137073228D01*
X90809147Y-137228100D01*
X90716015Y-137367481D01*
X90597481Y-137486015D01*
X90458100Y-137579147D01*
X90303228Y-137643297D01*
X90138816Y-137676000D01*
X89971184Y-137676000D01*
X89806772Y-137643297D01*
X89651900Y-137579147D01*
X89512519Y-137486015D01*
X89393985Y-137367481D01*
X89300853Y-137228100D01*
X89236703Y-137073228D01*
X89204000Y-136908816D01*
X89204000Y-136741184D01*
X89236703Y-136576772D01*
X89300853Y-136421900D01*
X89393985Y-136282519D01*
X89512519Y-136163985D01*
X89651900Y-136070853D01*
X89806772Y-136006703D01*
X89971184Y-135974000D01*
X90138816Y-135974000D01*
X90303228Y-136006703D01*
X90303228Y-136006703D01*
G37*
G36*
X166503228Y-136006703D02*
G01*
X166658100Y-136070853D01*
X166797481Y-136163985D01*
X166916015Y-136282519D01*
X167009147Y-136421900D01*
X167073297Y-136576772D01*
X167106000Y-136741184D01*
X167106000Y-136908816D01*
X167073297Y-137073228D01*
X167009147Y-137228100D01*
X166916015Y-137367481D01*
X166797481Y-137486015D01*
X166658100Y-137579147D01*
X166503228Y-137643297D01*
X166338816Y-137676000D01*
X166171184Y-137676000D01*
X166006772Y-137643297D01*
X165851900Y-137579147D01*
X165712519Y-137486015D01*
X165593985Y-137367481D01*
X165500853Y-137228100D01*
X165436703Y-137073228D01*
X165404000Y-136908816D01*
X165404000Y-136741184D01*
X165436703Y-136576772D01*
X165500853Y-136421900D01*
X165593985Y-136282519D01*
X165712519Y-136163985D01*
X165851900Y-136070853D01*
X166006772Y-136006703D01*
X166171184Y-135974000D01*
X166338816Y-135974000D01*
X166503228Y-136006703D01*
X166503228Y-136006703D01*
G37*
G36*
X136923254Y-133432818D02*
G01*
X137283170Y-133581900D01*
X137296513Y-133587427D01*
X137632436Y-133811884D01*
X137918116Y-134097564D01*
X138008765Y-134233229D01*
X138142574Y-134433489D01*
X138297182Y-134806746D01*
X138376000Y-135202993D01*
X138376000Y-135607007D01*
X138297182Y-136003254D01*
X138181506Y-136282520D01*
X138142573Y-136376513D01*
X137918116Y-136712436D01*
X137632436Y-136998116D01*
X137296513Y-137222573D01*
X137296512Y-137222574D01*
X137296511Y-137222574D01*
X136923254Y-137377182D01*
X136527007Y-137456000D01*
X136122993Y-137456000D01*
X135726746Y-137377182D01*
X135353489Y-137222574D01*
X135353488Y-137222574D01*
X135353487Y-137222573D01*
X135017564Y-136998116D01*
X134731884Y-136712436D01*
X134507427Y-136376513D01*
X134468494Y-136282520D01*
X134352818Y-136003254D01*
X134274000Y-135607007D01*
X134274000Y-135202993D01*
X134352818Y-134806746D01*
X134507426Y-134433489D01*
X134641236Y-134233229D01*
X134731884Y-134097564D01*
X135017564Y-133811884D01*
X135353487Y-133587427D01*
X135366830Y-133581900D01*
X135726746Y-133432818D01*
X136122993Y-133354000D01*
X136527007Y-133354000D01*
X136923254Y-133432818D01*
X136923254Y-133432818D01*
G37*
G36*
X213298254Y-133432818D02*
G01*
X213658170Y-133581900D01*
X213671513Y-133587427D01*
X214007436Y-133811884D01*
X214293116Y-134097564D01*
X214383765Y-134233229D01*
X214517574Y-134433489D01*
X214672182Y-134806746D01*
X214751000Y-135202993D01*
X214751000Y-135607007D01*
X214672182Y-136003254D01*
X214556506Y-136282520D01*
X214517573Y-136376513D01*
X214293116Y-136712436D01*
X214007436Y-136998116D01*
X213671513Y-137222573D01*
X213671512Y-137222574D01*
X213671511Y-137222574D01*
X213298254Y-137377182D01*
X212902007Y-137456000D01*
X212497993Y-137456000D01*
X212101746Y-137377182D01*
X211728489Y-137222574D01*
X211728488Y-137222574D01*
X211728487Y-137222573D01*
X211392564Y-136998116D01*
X211106884Y-136712436D01*
X210882427Y-136376513D01*
X210843494Y-136282520D01*
X210727818Y-136003254D01*
X210649000Y-135607007D01*
X210649000Y-135202993D01*
X210727818Y-134806746D01*
X210882426Y-134433489D01*
X211016236Y-134233229D01*
X211106884Y-134097564D01*
X211392564Y-133811884D01*
X211728487Y-133587427D01*
X211741830Y-133581900D01*
X212101746Y-133432818D01*
X212497993Y-133354000D01*
X212902007Y-133354000D01*
X213298254Y-133432818D01*
X213298254Y-133432818D01*
G37*
G36*
X111923254Y-133432818D02*
G01*
X112283170Y-133581900D01*
X112296513Y-133587427D01*
X112632436Y-133811884D01*
X112918116Y-134097564D01*
X113008765Y-134233229D01*
X113142574Y-134433489D01*
X113297182Y-134806746D01*
X113376000Y-135202993D01*
X113376000Y-135607007D01*
X113297182Y-136003254D01*
X113181506Y-136282520D01*
X113142573Y-136376513D01*
X112918116Y-136712436D01*
X112632436Y-136998116D01*
X112296513Y-137222573D01*
X112296512Y-137222574D01*
X112296511Y-137222574D01*
X111923254Y-137377182D01*
X111527007Y-137456000D01*
X111122993Y-137456000D01*
X110726746Y-137377182D01*
X110353489Y-137222574D01*
X110353488Y-137222574D01*
X110353487Y-137222573D01*
X110017564Y-136998116D01*
X109731884Y-136712436D01*
X109507427Y-136376513D01*
X109468494Y-136282520D01*
X109352818Y-136003254D01*
X109274000Y-135607007D01*
X109274000Y-135202993D01*
X109352818Y-134806746D01*
X109507426Y-134433489D01*
X109641236Y-134233229D01*
X109731884Y-134097564D01*
X110017564Y-133811884D01*
X110353487Y-133587427D01*
X110366830Y-133581900D01*
X110726746Y-133432818D01*
X111122993Y-133354000D01*
X111527007Y-133354000D01*
X111923254Y-133432818D01*
X111923254Y-133432818D01*
G37*
G36*
X98998254Y-133432818D02*
G01*
X99358170Y-133581900D01*
X99371513Y-133587427D01*
X99707436Y-133811884D01*
X99993116Y-134097564D01*
X100083765Y-134233229D01*
X100217574Y-134433489D01*
X100372182Y-134806746D01*
X100451000Y-135202993D01*
X100451000Y-135607007D01*
X100372182Y-136003254D01*
X100256506Y-136282520D01*
X100217573Y-136376513D01*
X99993116Y-136712436D01*
X99707436Y-136998116D01*
X99371513Y-137222573D01*
X99371512Y-137222574D01*
X99371511Y-137222574D01*
X98998254Y-137377182D01*
X98602007Y-137456000D01*
X98197993Y-137456000D01*
X97801746Y-137377182D01*
X97428489Y-137222574D01*
X97428488Y-137222574D01*
X97428487Y-137222573D01*
X97092564Y-136998116D01*
X96806884Y-136712436D01*
X96582427Y-136376513D01*
X96543494Y-136282520D01*
X96427818Y-136003254D01*
X96349000Y-135607007D01*
X96349000Y-135202993D01*
X96427818Y-134806746D01*
X96582426Y-134433489D01*
X96716236Y-134233229D01*
X96806884Y-134097564D01*
X97092564Y-133811884D01*
X97428487Y-133587427D01*
X97441830Y-133581900D01*
X97801746Y-133432818D01*
X98197993Y-133354000D01*
X98602007Y-133354000D01*
X98998254Y-133432818D01*
X98998254Y-133432818D01*
G37*
G36*
X73998254Y-133432818D02*
G01*
X74358170Y-133581900D01*
X74371513Y-133587427D01*
X74707436Y-133811884D01*
X74993116Y-134097564D01*
X75083765Y-134233229D01*
X75217574Y-134433489D01*
X75372182Y-134806746D01*
X75451000Y-135202993D01*
X75451000Y-135607007D01*
X75372182Y-136003254D01*
X75256506Y-136282520D01*
X75217573Y-136376513D01*
X74993116Y-136712436D01*
X74707436Y-136998116D01*
X74371513Y-137222573D01*
X74371512Y-137222574D01*
X74371511Y-137222574D01*
X73998254Y-137377182D01*
X73602007Y-137456000D01*
X73197993Y-137456000D01*
X72801746Y-137377182D01*
X72428489Y-137222574D01*
X72428488Y-137222574D01*
X72428487Y-137222573D01*
X72092564Y-136998116D01*
X71806884Y-136712436D01*
X71582427Y-136376513D01*
X71543494Y-136282520D01*
X71427818Y-136003254D01*
X71349000Y-135607007D01*
X71349000Y-135202993D01*
X71427818Y-134806746D01*
X71582426Y-134433489D01*
X71716236Y-134233229D01*
X71806884Y-134097564D01*
X72092564Y-133811884D01*
X72428487Y-133587427D01*
X72441830Y-133581900D01*
X72801746Y-133432818D01*
X73197993Y-133354000D01*
X73602007Y-133354000D01*
X73998254Y-133432818D01*
X73998254Y-133432818D01*
G37*
G36*
X188298254Y-133432818D02*
G01*
X188658170Y-133581900D01*
X188671513Y-133587427D01*
X189007436Y-133811884D01*
X189293116Y-134097564D01*
X189383765Y-134233229D01*
X189517574Y-134433489D01*
X189672182Y-134806746D01*
X189751000Y-135202993D01*
X189751000Y-135607007D01*
X189672182Y-136003254D01*
X189556506Y-136282520D01*
X189517573Y-136376513D01*
X189293116Y-136712436D01*
X189007436Y-136998116D01*
X188671513Y-137222573D01*
X188671512Y-137222574D01*
X188671511Y-137222574D01*
X188298254Y-137377182D01*
X187902007Y-137456000D01*
X187497993Y-137456000D01*
X187101746Y-137377182D01*
X186728489Y-137222574D01*
X186728488Y-137222574D01*
X186728487Y-137222573D01*
X186392564Y-136998116D01*
X186106884Y-136712436D01*
X185882427Y-136376513D01*
X185843494Y-136282520D01*
X185727818Y-136003254D01*
X185649000Y-135607007D01*
X185649000Y-135202993D01*
X185727818Y-134806746D01*
X185882426Y-134433489D01*
X186016236Y-134233229D01*
X186106884Y-134097564D01*
X186392564Y-133811884D01*
X186728487Y-133587427D01*
X186741830Y-133581900D01*
X187101746Y-133432818D01*
X187497993Y-133354000D01*
X187902007Y-133354000D01*
X188298254Y-133432818D01*
X188298254Y-133432818D01*
G37*
G36*
X175198254Y-133432818D02*
G01*
X175558170Y-133581900D01*
X175571513Y-133587427D01*
X175907436Y-133811884D01*
X176193116Y-134097564D01*
X176283765Y-134233229D01*
X176417574Y-134433489D01*
X176572182Y-134806746D01*
X176651000Y-135202993D01*
X176651000Y-135607007D01*
X176572182Y-136003254D01*
X176456506Y-136282520D01*
X176417573Y-136376513D01*
X176193116Y-136712436D01*
X175907436Y-136998116D01*
X175571513Y-137222573D01*
X175571512Y-137222574D01*
X175571511Y-137222574D01*
X175198254Y-137377182D01*
X174802007Y-137456000D01*
X174397993Y-137456000D01*
X174001746Y-137377182D01*
X173628489Y-137222574D01*
X173628488Y-137222574D01*
X173628487Y-137222573D01*
X173292564Y-136998116D01*
X173006884Y-136712436D01*
X172782427Y-136376513D01*
X172743494Y-136282520D01*
X172627818Y-136003254D01*
X172549000Y-135607007D01*
X172549000Y-135202993D01*
X172627818Y-134806746D01*
X172782426Y-134433489D01*
X172916236Y-134233229D01*
X173006884Y-134097564D01*
X173292564Y-133811884D01*
X173628487Y-133587427D01*
X173641830Y-133581900D01*
X174001746Y-133432818D01*
X174397993Y-133354000D01*
X174802007Y-133354000D01*
X175198254Y-133432818D01*
X175198254Y-133432818D01*
G37*
G36*
X150198254Y-133432818D02*
G01*
X150558170Y-133581900D01*
X150571513Y-133587427D01*
X150907436Y-133811884D01*
X151193116Y-134097564D01*
X151283765Y-134233229D01*
X151417574Y-134433489D01*
X151572182Y-134806746D01*
X151651000Y-135202993D01*
X151651000Y-135607007D01*
X151572182Y-136003254D01*
X151456506Y-136282520D01*
X151417573Y-136376513D01*
X151193116Y-136712436D01*
X150907436Y-136998116D01*
X150571513Y-137222573D01*
X150571512Y-137222574D01*
X150571511Y-137222574D01*
X150198254Y-137377182D01*
X149802007Y-137456000D01*
X149397993Y-137456000D01*
X149001746Y-137377182D01*
X148628489Y-137222574D01*
X148628488Y-137222574D01*
X148628487Y-137222573D01*
X148292564Y-136998116D01*
X148006884Y-136712436D01*
X147782427Y-136376513D01*
X147743494Y-136282520D01*
X147627818Y-136003254D01*
X147549000Y-135607007D01*
X147549000Y-135202993D01*
X147627818Y-134806746D01*
X147782426Y-134433489D01*
X147916236Y-134233229D01*
X148006884Y-134097564D01*
X148292564Y-133811884D01*
X148628487Y-133587427D01*
X148641830Y-133581900D01*
X149001746Y-133432818D01*
X149397993Y-133354000D01*
X149802007Y-133354000D01*
X150198254Y-133432818D01*
X150198254Y-133432818D01*
G37*
G36*
X92291000Y-134836000D02*
G01*
X90589000Y-134836000D01*
X90589000Y-133134000D01*
X92291000Y-133134000D01*
X92291000Y-134836000D01*
X92291000Y-134836000D01*
G37*
G36*
X130216000Y-134836000D02*
G01*
X128514000Y-134836000D01*
X128514000Y-133134000D01*
X130216000Y-133134000D01*
X130216000Y-134836000D01*
X130216000Y-134836000D01*
G37*
G36*
X80608228Y-133166703D02*
G01*
X80763100Y-133230853D01*
X80902481Y-133323985D01*
X81021015Y-133442519D01*
X81114147Y-133581900D01*
X81178297Y-133736772D01*
X81211000Y-133901184D01*
X81211000Y-134068816D01*
X81178297Y-134233228D01*
X81114147Y-134388100D01*
X81021015Y-134527481D01*
X80902481Y-134646015D01*
X80763100Y-134739147D01*
X80608228Y-134803297D01*
X80443816Y-134836000D01*
X80276184Y-134836000D01*
X80111772Y-134803297D01*
X79956900Y-134739147D01*
X79817519Y-134646015D01*
X79698985Y-134527481D01*
X79605853Y-134388100D01*
X79541703Y-134233228D01*
X79509000Y-134068816D01*
X79509000Y-133901184D01*
X79541703Y-133736772D01*
X79605853Y-133581900D01*
X79698985Y-133442519D01*
X79817519Y-133323985D01*
X79956900Y-133230853D01*
X80111772Y-133166703D01*
X80276184Y-133134000D01*
X80443816Y-133134000D01*
X80608228Y-133166703D01*
X80608228Y-133166703D01*
G37*
G36*
X83378228Y-133166703D02*
G01*
X83533100Y-133230853D01*
X83672481Y-133323985D01*
X83791015Y-133442519D01*
X83884147Y-133581900D01*
X83948297Y-133736772D01*
X83981000Y-133901184D01*
X83981000Y-134068816D01*
X83948297Y-134233228D01*
X83884147Y-134388100D01*
X83791015Y-134527481D01*
X83672481Y-134646015D01*
X83533100Y-134739147D01*
X83378228Y-134803297D01*
X83213816Y-134836000D01*
X83046184Y-134836000D01*
X82881772Y-134803297D01*
X82726900Y-134739147D01*
X82587519Y-134646015D01*
X82468985Y-134527481D01*
X82375853Y-134388100D01*
X82311703Y-134233228D01*
X82279000Y-134068816D01*
X82279000Y-133901184D01*
X82311703Y-133736772D01*
X82375853Y-133581900D01*
X82468985Y-133442519D01*
X82587519Y-133323985D01*
X82726900Y-133230853D01*
X82881772Y-133166703D01*
X83046184Y-133134000D01*
X83213816Y-133134000D01*
X83378228Y-133166703D01*
X83378228Y-133166703D01*
G37*
G36*
X86148228Y-133166703D02*
G01*
X86303100Y-133230853D01*
X86442481Y-133323985D01*
X86561015Y-133442519D01*
X86654147Y-133581900D01*
X86718297Y-133736772D01*
X86751000Y-133901184D01*
X86751000Y-134068816D01*
X86718297Y-134233228D01*
X86654147Y-134388100D01*
X86561015Y-134527481D01*
X86442481Y-134646015D01*
X86303100Y-134739147D01*
X86148228Y-134803297D01*
X85983816Y-134836000D01*
X85816184Y-134836000D01*
X85651772Y-134803297D01*
X85496900Y-134739147D01*
X85357519Y-134646015D01*
X85238985Y-134527481D01*
X85145853Y-134388100D01*
X85081703Y-134233228D01*
X85049000Y-134068816D01*
X85049000Y-133901184D01*
X85081703Y-133736772D01*
X85145853Y-133581900D01*
X85238985Y-133442519D01*
X85357519Y-133323985D01*
X85496900Y-133230853D01*
X85651772Y-133166703D01*
X85816184Y-133134000D01*
X85983816Y-133134000D01*
X86148228Y-133166703D01*
X86148228Y-133166703D01*
G37*
G36*
X206591000Y-134836000D02*
G01*
X204889000Y-134836000D01*
X204889000Y-133134000D01*
X206591000Y-133134000D01*
X206591000Y-134836000D01*
X206591000Y-134836000D01*
G37*
G36*
X203218228Y-133166703D02*
G01*
X203373100Y-133230853D01*
X203512481Y-133323985D01*
X203631015Y-133442519D01*
X203724147Y-133581900D01*
X203788297Y-133736772D01*
X203821000Y-133901184D01*
X203821000Y-134068816D01*
X203788297Y-134233228D01*
X203724147Y-134388100D01*
X203631015Y-134527481D01*
X203512481Y-134646015D01*
X203373100Y-134739147D01*
X203218228Y-134803297D01*
X203053816Y-134836000D01*
X202886184Y-134836000D01*
X202721772Y-134803297D01*
X202566900Y-134739147D01*
X202427519Y-134646015D01*
X202308985Y-134527481D01*
X202215853Y-134388100D01*
X202151703Y-134233228D01*
X202119000Y-134068816D01*
X202119000Y-133901184D01*
X202151703Y-133736772D01*
X202215853Y-133581900D01*
X202308985Y-133442519D01*
X202427519Y-133323985D01*
X202566900Y-133230853D01*
X202721772Y-133166703D01*
X202886184Y-133134000D01*
X203053816Y-133134000D01*
X203218228Y-133166703D01*
X203218228Y-133166703D01*
G37*
G36*
X200448228Y-133166703D02*
G01*
X200603100Y-133230853D01*
X200742481Y-133323985D01*
X200861015Y-133442519D01*
X200954147Y-133581900D01*
X201018297Y-133736772D01*
X201051000Y-133901184D01*
X201051000Y-134068816D01*
X201018297Y-134233228D01*
X200954147Y-134388100D01*
X200861015Y-134527481D01*
X200742481Y-134646015D01*
X200603100Y-134739147D01*
X200448228Y-134803297D01*
X200283816Y-134836000D01*
X200116184Y-134836000D01*
X199951772Y-134803297D01*
X199796900Y-134739147D01*
X199657519Y-134646015D01*
X199538985Y-134527481D01*
X199445853Y-134388100D01*
X199381703Y-134233228D01*
X199349000Y-134068816D01*
X199349000Y-133901184D01*
X199381703Y-133736772D01*
X199445853Y-133581900D01*
X199538985Y-133442519D01*
X199657519Y-133323985D01*
X199796900Y-133230853D01*
X199951772Y-133166703D01*
X200116184Y-133134000D01*
X200283816Y-133134000D01*
X200448228Y-133166703D01*
X200448228Y-133166703D01*
G37*
G36*
X197678228Y-133166703D02*
G01*
X197833100Y-133230853D01*
X197972481Y-133323985D01*
X198091015Y-133442519D01*
X198184147Y-133581900D01*
X198248297Y-133736772D01*
X198281000Y-133901184D01*
X198281000Y-134068816D01*
X198248297Y-134233228D01*
X198184147Y-134388100D01*
X198091015Y-134527481D01*
X197972481Y-134646015D01*
X197833100Y-134739147D01*
X197678228Y-134803297D01*
X197513816Y-134836000D01*
X197346184Y-134836000D01*
X197181772Y-134803297D01*
X197026900Y-134739147D01*
X196887519Y-134646015D01*
X196768985Y-134527481D01*
X196675853Y-134388100D01*
X196611703Y-134233228D01*
X196579000Y-134068816D01*
X196579000Y-133901184D01*
X196611703Y-133736772D01*
X196675853Y-133581900D01*
X196768985Y-133442519D01*
X196887519Y-133323985D01*
X197026900Y-133230853D01*
X197181772Y-133166703D01*
X197346184Y-133134000D01*
X197513816Y-133134000D01*
X197678228Y-133166703D01*
X197678228Y-133166703D01*
G37*
G36*
X194908228Y-133166703D02*
G01*
X195063100Y-133230853D01*
X195202481Y-133323985D01*
X195321015Y-133442519D01*
X195414147Y-133581900D01*
X195478297Y-133736772D01*
X195511000Y-133901184D01*
X195511000Y-134068816D01*
X195478297Y-134233228D01*
X195414147Y-134388100D01*
X195321015Y-134527481D01*
X195202481Y-134646015D01*
X195063100Y-134739147D01*
X194908228Y-134803297D01*
X194743816Y-134836000D01*
X194576184Y-134836000D01*
X194411772Y-134803297D01*
X194256900Y-134739147D01*
X194117519Y-134646015D01*
X193998985Y-134527481D01*
X193905853Y-134388100D01*
X193841703Y-134233228D01*
X193809000Y-134068816D01*
X193809000Y-133901184D01*
X193841703Y-133736772D01*
X193905853Y-133581900D01*
X193998985Y-133442519D01*
X194117519Y-133323985D01*
X194256900Y-133230853D01*
X194411772Y-133166703D01*
X194576184Y-133134000D01*
X194743816Y-133134000D01*
X194908228Y-133166703D01*
X194908228Y-133166703D01*
G37*
G36*
X118533228Y-133166703D02*
G01*
X118688100Y-133230853D01*
X118827481Y-133323985D01*
X118946015Y-133442519D01*
X119039147Y-133581900D01*
X119103297Y-133736772D01*
X119136000Y-133901184D01*
X119136000Y-134068816D01*
X119103297Y-134233228D01*
X119039147Y-134388100D01*
X118946015Y-134527481D01*
X118827481Y-134646015D01*
X118688100Y-134739147D01*
X118533228Y-134803297D01*
X118368816Y-134836000D01*
X118201184Y-134836000D01*
X118036772Y-134803297D01*
X117881900Y-134739147D01*
X117742519Y-134646015D01*
X117623985Y-134527481D01*
X117530853Y-134388100D01*
X117466703Y-134233228D01*
X117434000Y-134068816D01*
X117434000Y-133901184D01*
X117466703Y-133736772D01*
X117530853Y-133581900D01*
X117623985Y-133442519D01*
X117742519Y-133323985D01*
X117881900Y-133230853D01*
X118036772Y-133166703D01*
X118201184Y-133134000D01*
X118368816Y-133134000D01*
X118533228Y-133166703D01*
X118533228Y-133166703D01*
G37*
G36*
X121303228Y-133166703D02*
G01*
X121458100Y-133230853D01*
X121597481Y-133323985D01*
X121716015Y-133442519D01*
X121809147Y-133581900D01*
X121873297Y-133736772D01*
X121906000Y-133901184D01*
X121906000Y-134068816D01*
X121873297Y-134233228D01*
X121809147Y-134388100D01*
X121716015Y-134527481D01*
X121597481Y-134646015D01*
X121458100Y-134739147D01*
X121303228Y-134803297D01*
X121138816Y-134836000D01*
X120971184Y-134836000D01*
X120806772Y-134803297D01*
X120651900Y-134739147D01*
X120512519Y-134646015D01*
X120393985Y-134527481D01*
X120300853Y-134388100D01*
X120236703Y-134233228D01*
X120204000Y-134068816D01*
X120204000Y-133901184D01*
X120236703Y-133736772D01*
X120300853Y-133581900D01*
X120393985Y-133442519D01*
X120512519Y-133323985D01*
X120651900Y-133230853D01*
X120806772Y-133166703D01*
X120971184Y-133134000D01*
X121138816Y-133134000D01*
X121303228Y-133166703D01*
X121303228Y-133166703D01*
G37*
G36*
X124073228Y-133166703D02*
G01*
X124228100Y-133230853D01*
X124367481Y-133323985D01*
X124486015Y-133442519D01*
X124579147Y-133581900D01*
X124643297Y-133736772D01*
X124676000Y-133901184D01*
X124676000Y-134068816D01*
X124643297Y-134233228D01*
X124579147Y-134388100D01*
X124486015Y-134527481D01*
X124367481Y-134646015D01*
X124228100Y-134739147D01*
X124073228Y-134803297D01*
X123908816Y-134836000D01*
X123741184Y-134836000D01*
X123576772Y-134803297D01*
X123421900Y-134739147D01*
X123282519Y-134646015D01*
X123163985Y-134527481D01*
X123070853Y-134388100D01*
X123006703Y-134233228D01*
X122974000Y-134068816D01*
X122974000Y-133901184D01*
X123006703Y-133736772D01*
X123070853Y-133581900D01*
X123163985Y-133442519D01*
X123282519Y-133323985D01*
X123421900Y-133230853D01*
X123576772Y-133166703D01*
X123741184Y-133134000D01*
X123908816Y-133134000D01*
X124073228Y-133166703D01*
X124073228Y-133166703D01*
G37*
G36*
X126843228Y-133166703D02*
G01*
X126998100Y-133230853D01*
X127137481Y-133323985D01*
X127256015Y-133442519D01*
X127349147Y-133581900D01*
X127413297Y-133736772D01*
X127446000Y-133901184D01*
X127446000Y-134068816D01*
X127413297Y-134233228D01*
X127349147Y-134388100D01*
X127256015Y-134527481D01*
X127137481Y-134646015D01*
X126998100Y-134739147D01*
X126843228Y-134803297D01*
X126678816Y-134836000D01*
X126511184Y-134836000D01*
X126346772Y-134803297D01*
X126191900Y-134739147D01*
X126052519Y-134646015D01*
X125933985Y-134527481D01*
X125840853Y-134388100D01*
X125776703Y-134233228D01*
X125744000Y-134068816D01*
X125744000Y-133901184D01*
X125776703Y-133736772D01*
X125840853Y-133581900D01*
X125933985Y-133442519D01*
X126052519Y-133323985D01*
X126191900Y-133230853D01*
X126346772Y-133166703D01*
X126511184Y-133134000D01*
X126678816Y-133134000D01*
X126843228Y-133166703D01*
X126843228Y-133166703D01*
G37*
G36*
X168491000Y-134836000D02*
G01*
X166789000Y-134836000D01*
X166789000Y-133134000D01*
X168491000Y-133134000D01*
X168491000Y-134836000D01*
X168491000Y-134836000D01*
G37*
G36*
X165118228Y-133166703D02*
G01*
X165273100Y-133230853D01*
X165412481Y-133323985D01*
X165531015Y-133442519D01*
X165624147Y-133581900D01*
X165688297Y-133736772D01*
X165721000Y-133901184D01*
X165721000Y-134068816D01*
X165688297Y-134233228D01*
X165624147Y-134388100D01*
X165531015Y-134527481D01*
X165412481Y-134646015D01*
X165273100Y-134739147D01*
X165118228Y-134803297D01*
X164953816Y-134836000D01*
X164786184Y-134836000D01*
X164621772Y-134803297D01*
X164466900Y-134739147D01*
X164327519Y-134646015D01*
X164208985Y-134527481D01*
X164115853Y-134388100D01*
X164051703Y-134233228D01*
X164019000Y-134068816D01*
X164019000Y-133901184D01*
X164051703Y-133736772D01*
X164115853Y-133581900D01*
X164208985Y-133442519D01*
X164327519Y-133323985D01*
X164466900Y-133230853D01*
X164621772Y-133166703D01*
X164786184Y-133134000D01*
X164953816Y-133134000D01*
X165118228Y-133166703D01*
X165118228Y-133166703D01*
G37*
G36*
X162348228Y-133166703D02*
G01*
X162503100Y-133230853D01*
X162642481Y-133323985D01*
X162761015Y-133442519D01*
X162854147Y-133581900D01*
X162918297Y-133736772D01*
X162951000Y-133901184D01*
X162951000Y-134068816D01*
X162918297Y-134233228D01*
X162854147Y-134388100D01*
X162761015Y-134527481D01*
X162642481Y-134646015D01*
X162503100Y-134739147D01*
X162348228Y-134803297D01*
X162183816Y-134836000D01*
X162016184Y-134836000D01*
X161851772Y-134803297D01*
X161696900Y-134739147D01*
X161557519Y-134646015D01*
X161438985Y-134527481D01*
X161345853Y-134388100D01*
X161281703Y-134233228D01*
X161249000Y-134068816D01*
X161249000Y-133901184D01*
X161281703Y-133736772D01*
X161345853Y-133581900D01*
X161438985Y-133442519D01*
X161557519Y-133323985D01*
X161696900Y-133230853D01*
X161851772Y-133166703D01*
X162016184Y-133134000D01*
X162183816Y-133134000D01*
X162348228Y-133166703D01*
X162348228Y-133166703D01*
G37*
G36*
X159578228Y-133166703D02*
G01*
X159733100Y-133230853D01*
X159872481Y-133323985D01*
X159991015Y-133442519D01*
X160084147Y-133581900D01*
X160148297Y-133736772D01*
X160181000Y-133901184D01*
X160181000Y-134068816D01*
X160148297Y-134233228D01*
X160084147Y-134388100D01*
X159991015Y-134527481D01*
X159872481Y-134646015D01*
X159733100Y-134739147D01*
X159578228Y-134803297D01*
X159413816Y-134836000D01*
X159246184Y-134836000D01*
X159081772Y-134803297D01*
X158926900Y-134739147D01*
X158787519Y-134646015D01*
X158668985Y-134527481D01*
X158575853Y-134388100D01*
X158511703Y-134233228D01*
X158479000Y-134068816D01*
X158479000Y-133901184D01*
X158511703Y-133736772D01*
X158575853Y-133581900D01*
X158668985Y-133442519D01*
X158787519Y-133323985D01*
X158926900Y-133230853D01*
X159081772Y-133166703D01*
X159246184Y-133134000D01*
X159413816Y-133134000D01*
X159578228Y-133166703D01*
X159578228Y-133166703D01*
G37*
G36*
X88918228Y-133166703D02*
G01*
X89073100Y-133230853D01*
X89212481Y-133323985D01*
X89331015Y-133442519D01*
X89424147Y-133581900D01*
X89488297Y-133736772D01*
X89521000Y-133901184D01*
X89521000Y-134068816D01*
X89488297Y-134233228D01*
X89424147Y-134388100D01*
X89331015Y-134527481D01*
X89212481Y-134646015D01*
X89073100Y-134739147D01*
X88918228Y-134803297D01*
X88753816Y-134836000D01*
X88586184Y-134836000D01*
X88421772Y-134803297D01*
X88266900Y-134739147D01*
X88127519Y-134646015D01*
X88008985Y-134527481D01*
X87915853Y-134388100D01*
X87851703Y-134233228D01*
X87819000Y-134068816D01*
X87819000Y-133901184D01*
X87851703Y-133736772D01*
X87915853Y-133581900D01*
X88008985Y-133442519D01*
X88127519Y-133323985D01*
X88266900Y-133230853D01*
X88421772Y-133166703D01*
X88586184Y-133134000D01*
X88753816Y-133134000D01*
X88918228Y-133166703D01*
X88918228Y-133166703D01*
G37*
G36*
X156808228Y-133166703D02*
G01*
X156963100Y-133230853D01*
X157102481Y-133323985D01*
X157221015Y-133442519D01*
X157314147Y-133581900D01*
X157378297Y-133736772D01*
X157411000Y-133901184D01*
X157411000Y-134068816D01*
X157378297Y-134233228D01*
X157314147Y-134388100D01*
X157221015Y-134527481D01*
X157102481Y-134646015D01*
X156963100Y-134739147D01*
X156808228Y-134803297D01*
X156643816Y-134836000D01*
X156476184Y-134836000D01*
X156311772Y-134803297D01*
X156156900Y-134739147D01*
X156017519Y-134646015D01*
X155898985Y-134527481D01*
X155805853Y-134388100D01*
X155741703Y-134233228D01*
X155709000Y-134068816D01*
X155709000Y-133901184D01*
X155741703Y-133736772D01*
X155805853Y-133581900D01*
X155898985Y-133442519D01*
X156017519Y-133323985D01*
X156156900Y-133230853D01*
X156311772Y-133166703D01*
X156476184Y-133134000D01*
X156643816Y-133134000D01*
X156808228Y-133166703D01*
X156808228Y-133166703D01*
G37*
G36*
X160963228Y-111241703D02*
G01*
X161118100Y-111305853D01*
X161257481Y-111398985D01*
X161376015Y-111517519D01*
X161469147Y-111656900D01*
X161533297Y-111811772D01*
X161566000Y-111976184D01*
X161566000Y-112143816D01*
X161533297Y-112308228D01*
X161469147Y-112463100D01*
X161376015Y-112602481D01*
X161257481Y-112721015D01*
X161118100Y-112814147D01*
X160963228Y-112878297D01*
X160798816Y-112911000D01*
X160631184Y-112911000D01*
X160466772Y-112878297D01*
X160311900Y-112814147D01*
X160172519Y-112721015D01*
X160053985Y-112602481D01*
X159960853Y-112463100D01*
X159896703Y-112308228D01*
X159864000Y-112143816D01*
X159864000Y-111976184D01*
X159896703Y-111811772D01*
X159960853Y-111656900D01*
X160053985Y-111517519D01*
X160172519Y-111398985D01*
X160311900Y-111305853D01*
X160466772Y-111241703D01*
X160631184Y-111209000D01*
X160798816Y-111209000D01*
X160963228Y-111241703D01*
X160963228Y-111241703D01*
G37*
G36*
X90303228Y-111241703D02*
G01*
X90458100Y-111305853D01*
X90597481Y-111398985D01*
X90716015Y-111517519D01*
X90809147Y-111656900D01*
X90873297Y-111811772D01*
X90906000Y-111976184D01*
X90906000Y-112143816D01*
X90873297Y-112308228D01*
X90809147Y-112463100D01*
X90716015Y-112602481D01*
X90597481Y-112721015D01*
X90458100Y-112814147D01*
X90303228Y-112878297D01*
X90138816Y-112911000D01*
X89971184Y-112911000D01*
X89806772Y-112878297D01*
X89651900Y-112814147D01*
X89512519Y-112721015D01*
X89393985Y-112602481D01*
X89300853Y-112463100D01*
X89236703Y-112308228D01*
X89204000Y-112143816D01*
X89204000Y-111976184D01*
X89236703Y-111811772D01*
X89300853Y-111656900D01*
X89393985Y-111517519D01*
X89512519Y-111398985D01*
X89651900Y-111305853D01*
X89806772Y-111241703D01*
X89971184Y-111209000D01*
X90138816Y-111209000D01*
X90303228Y-111241703D01*
X90303228Y-111241703D01*
G37*
G36*
X87533228Y-111241703D02*
G01*
X87688100Y-111305853D01*
X87827481Y-111398985D01*
X87946015Y-111517519D01*
X88039147Y-111656900D01*
X88103297Y-111811772D01*
X88136000Y-111976184D01*
X88136000Y-112143816D01*
X88103297Y-112308228D01*
X88039147Y-112463100D01*
X87946015Y-112602481D01*
X87827481Y-112721015D01*
X87688100Y-112814147D01*
X87533228Y-112878297D01*
X87368816Y-112911000D01*
X87201184Y-112911000D01*
X87036772Y-112878297D01*
X86881900Y-112814147D01*
X86742519Y-112721015D01*
X86623985Y-112602481D01*
X86530853Y-112463100D01*
X86466703Y-112308228D01*
X86434000Y-112143816D01*
X86434000Y-111976184D01*
X86466703Y-111811772D01*
X86530853Y-111656900D01*
X86623985Y-111517519D01*
X86742519Y-111398985D01*
X86881900Y-111305853D01*
X87036772Y-111241703D01*
X87201184Y-111209000D01*
X87368816Y-111209000D01*
X87533228Y-111241703D01*
X87533228Y-111241703D01*
G37*
G36*
X84763228Y-111241703D02*
G01*
X84918100Y-111305853D01*
X85057481Y-111398985D01*
X85176015Y-111517519D01*
X85269147Y-111656900D01*
X85333297Y-111811772D01*
X85366000Y-111976184D01*
X85366000Y-112143816D01*
X85333297Y-112308228D01*
X85269147Y-112463100D01*
X85176015Y-112602481D01*
X85057481Y-112721015D01*
X84918100Y-112814147D01*
X84763228Y-112878297D01*
X84598816Y-112911000D01*
X84431184Y-112911000D01*
X84266772Y-112878297D01*
X84111900Y-112814147D01*
X83972519Y-112721015D01*
X83853985Y-112602481D01*
X83760853Y-112463100D01*
X83696703Y-112308228D01*
X83664000Y-112143816D01*
X83664000Y-111976184D01*
X83696703Y-111811772D01*
X83760853Y-111656900D01*
X83853985Y-111517519D01*
X83972519Y-111398985D01*
X84111900Y-111305853D01*
X84266772Y-111241703D01*
X84431184Y-111209000D01*
X84598816Y-111209000D01*
X84763228Y-111241703D01*
X84763228Y-111241703D01*
G37*
G36*
X81993228Y-111241703D02*
G01*
X82148100Y-111305853D01*
X82287481Y-111398985D01*
X82406015Y-111517519D01*
X82499147Y-111656900D01*
X82563297Y-111811772D01*
X82596000Y-111976184D01*
X82596000Y-112143816D01*
X82563297Y-112308228D01*
X82499147Y-112463100D01*
X82406015Y-112602481D01*
X82287481Y-112721015D01*
X82148100Y-112814147D01*
X81993228Y-112878297D01*
X81828816Y-112911000D01*
X81661184Y-112911000D01*
X81496772Y-112878297D01*
X81341900Y-112814147D01*
X81202519Y-112721015D01*
X81083985Y-112602481D01*
X80990853Y-112463100D01*
X80926703Y-112308228D01*
X80894000Y-112143816D01*
X80894000Y-111976184D01*
X80926703Y-111811772D01*
X80990853Y-111656900D01*
X81083985Y-111517519D01*
X81202519Y-111398985D01*
X81341900Y-111305853D01*
X81496772Y-111241703D01*
X81661184Y-111209000D01*
X81828816Y-111209000D01*
X81993228Y-111241703D01*
X81993228Y-111241703D01*
G37*
G36*
X158193228Y-111241703D02*
G01*
X158348100Y-111305853D01*
X158487481Y-111398985D01*
X158606015Y-111517519D01*
X158699147Y-111656900D01*
X158763297Y-111811772D01*
X158796000Y-111976184D01*
X158796000Y-112143816D01*
X158763297Y-112308228D01*
X158699147Y-112463100D01*
X158606015Y-112602481D01*
X158487481Y-112721015D01*
X158348100Y-112814147D01*
X158193228Y-112878297D01*
X158028816Y-112911000D01*
X157861184Y-112911000D01*
X157696772Y-112878297D01*
X157541900Y-112814147D01*
X157402519Y-112721015D01*
X157283985Y-112602481D01*
X157190853Y-112463100D01*
X157126703Y-112308228D01*
X157094000Y-112143816D01*
X157094000Y-111976184D01*
X157126703Y-111811772D01*
X157190853Y-111656900D01*
X157283985Y-111517519D01*
X157402519Y-111398985D01*
X157541900Y-111305853D01*
X157696772Y-111241703D01*
X157861184Y-111209000D01*
X158028816Y-111209000D01*
X158193228Y-111241703D01*
X158193228Y-111241703D01*
G37*
G36*
X166503228Y-111241703D02*
G01*
X166658100Y-111305853D01*
X166797481Y-111398985D01*
X166916015Y-111517519D01*
X167009147Y-111656900D01*
X167073297Y-111811772D01*
X167106000Y-111976184D01*
X167106000Y-112143816D01*
X167073297Y-112308228D01*
X167009147Y-112463100D01*
X166916015Y-112602481D01*
X166797481Y-112721015D01*
X166658100Y-112814147D01*
X166503228Y-112878297D01*
X166338816Y-112911000D01*
X166171184Y-112911000D01*
X166006772Y-112878297D01*
X165851900Y-112814147D01*
X165712519Y-112721015D01*
X165593985Y-112602481D01*
X165500853Y-112463100D01*
X165436703Y-112308228D01*
X165404000Y-112143816D01*
X165404000Y-111976184D01*
X165436703Y-111811772D01*
X165500853Y-111656900D01*
X165593985Y-111517519D01*
X165712519Y-111398985D01*
X165851900Y-111305853D01*
X166006772Y-111241703D01*
X166171184Y-111209000D01*
X166338816Y-111209000D01*
X166503228Y-111241703D01*
X166503228Y-111241703D01*
G37*
G36*
X125633228Y-111241703D02*
G01*
X125788100Y-111305853D01*
X125927481Y-111398985D01*
X126046015Y-111517519D01*
X126139147Y-111656900D01*
X126203297Y-111811772D01*
X126236000Y-111976184D01*
X126236000Y-112143816D01*
X126203297Y-112308228D01*
X126139147Y-112463100D01*
X126046015Y-112602481D01*
X125927481Y-112721015D01*
X125788100Y-112814147D01*
X125633228Y-112878297D01*
X125468816Y-112911000D01*
X125301184Y-112911000D01*
X125136772Y-112878297D01*
X124981900Y-112814147D01*
X124842519Y-112721015D01*
X124723985Y-112602481D01*
X124630853Y-112463100D01*
X124566703Y-112308228D01*
X124534000Y-112143816D01*
X124534000Y-111976184D01*
X124566703Y-111811772D01*
X124630853Y-111656900D01*
X124723985Y-111517519D01*
X124842519Y-111398985D01*
X124981900Y-111305853D01*
X125136772Y-111241703D01*
X125301184Y-111209000D01*
X125468816Y-111209000D01*
X125633228Y-111241703D01*
X125633228Y-111241703D01*
G37*
G36*
X201833228Y-111241703D02*
G01*
X201988100Y-111305853D01*
X202127481Y-111398985D01*
X202246015Y-111517519D01*
X202339147Y-111656900D01*
X202403297Y-111811772D01*
X202436000Y-111976184D01*
X202436000Y-112143816D01*
X202403297Y-112308228D01*
X202339147Y-112463100D01*
X202246015Y-112602481D01*
X202127481Y-112721015D01*
X201988100Y-112814147D01*
X201833228Y-112878297D01*
X201668816Y-112911000D01*
X201501184Y-112911000D01*
X201336772Y-112878297D01*
X201181900Y-112814147D01*
X201042519Y-112721015D01*
X200923985Y-112602481D01*
X200830853Y-112463100D01*
X200766703Y-112308228D01*
X200734000Y-112143816D01*
X200734000Y-111976184D01*
X200766703Y-111811772D01*
X200830853Y-111656900D01*
X200923985Y-111517519D01*
X201042519Y-111398985D01*
X201181900Y-111305853D01*
X201336772Y-111241703D01*
X201501184Y-111209000D01*
X201668816Y-111209000D01*
X201833228Y-111241703D01*
X201833228Y-111241703D01*
G37*
G36*
X199063228Y-111241703D02*
G01*
X199218100Y-111305853D01*
X199357481Y-111398985D01*
X199476015Y-111517519D01*
X199569147Y-111656900D01*
X199633297Y-111811772D01*
X199666000Y-111976184D01*
X199666000Y-112143816D01*
X199633297Y-112308228D01*
X199569147Y-112463100D01*
X199476015Y-112602481D01*
X199357481Y-112721015D01*
X199218100Y-112814147D01*
X199063228Y-112878297D01*
X198898816Y-112911000D01*
X198731184Y-112911000D01*
X198566772Y-112878297D01*
X198411900Y-112814147D01*
X198272519Y-112721015D01*
X198153985Y-112602481D01*
X198060853Y-112463100D01*
X197996703Y-112308228D01*
X197964000Y-112143816D01*
X197964000Y-111976184D01*
X197996703Y-111811772D01*
X198060853Y-111656900D01*
X198153985Y-111517519D01*
X198272519Y-111398985D01*
X198411900Y-111305853D01*
X198566772Y-111241703D01*
X198731184Y-111209000D01*
X198898816Y-111209000D01*
X199063228Y-111241703D01*
X199063228Y-111241703D01*
G37*
G36*
X128403228Y-111241703D02*
G01*
X128558100Y-111305853D01*
X128697481Y-111398985D01*
X128816015Y-111517519D01*
X128909147Y-111656900D01*
X128973297Y-111811772D01*
X129006000Y-111976184D01*
X129006000Y-112143816D01*
X128973297Y-112308228D01*
X128909147Y-112463100D01*
X128816015Y-112602481D01*
X128697481Y-112721015D01*
X128558100Y-112814147D01*
X128403228Y-112878297D01*
X128238816Y-112911000D01*
X128071184Y-112911000D01*
X127906772Y-112878297D01*
X127751900Y-112814147D01*
X127612519Y-112721015D01*
X127493985Y-112602481D01*
X127400853Y-112463100D01*
X127336703Y-112308228D01*
X127304000Y-112143816D01*
X127304000Y-111976184D01*
X127336703Y-111811772D01*
X127400853Y-111656900D01*
X127493985Y-111517519D01*
X127612519Y-111398985D01*
X127751900Y-111305853D01*
X127906772Y-111241703D01*
X128071184Y-111209000D01*
X128238816Y-111209000D01*
X128403228Y-111241703D01*
X128403228Y-111241703D01*
G37*
G36*
X196293228Y-111241703D02*
G01*
X196448100Y-111305853D01*
X196587481Y-111398985D01*
X196706015Y-111517519D01*
X196799147Y-111656900D01*
X196863297Y-111811772D01*
X196896000Y-111976184D01*
X196896000Y-112143816D01*
X196863297Y-112308228D01*
X196799147Y-112463100D01*
X196706015Y-112602481D01*
X196587481Y-112721015D01*
X196448100Y-112814147D01*
X196293228Y-112878297D01*
X196128816Y-112911000D01*
X195961184Y-112911000D01*
X195796772Y-112878297D01*
X195641900Y-112814147D01*
X195502519Y-112721015D01*
X195383985Y-112602481D01*
X195290853Y-112463100D01*
X195226703Y-112308228D01*
X195194000Y-112143816D01*
X195194000Y-111976184D01*
X195226703Y-111811772D01*
X195290853Y-111656900D01*
X195383985Y-111517519D01*
X195502519Y-111398985D01*
X195641900Y-111305853D01*
X195796772Y-111241703D01*
X195961184Y-111209000D01*
X196128816Y-111209000D01*
X196293228Y-111241703D01*
X196293228Y-111241703D01*
G37*
G36*
X122863228Y-111241703D02*
G01*
X123018100Y-111305853D01*
X123157481Y-111398985D01*
X123276015Y-111517519D01*
X123369147Y-111656900D01*
X123433297Y-111811772D01*
X123466000Y-111976184D01*
X123466000Y-112143816D01*
X123433297Y-112308228D01*
X123369147Y-112463100D01*
X123276015Y-112602481D01*
X123157481Y-112721015D01*
X123018100Y-112814147D01*
X122863228Y-112878297D01*
X122698816Y-112911000D01*
X122531184Y-112911000D01*
X122366772Y-112878297D01*
X122211900Y-112814147D01*
X122072519Y-112721015D01*
X121953985Y-112602481D01*
X121860853Y-112463100D01*
X121796703Y-112308228D01*
X121764000Y-112143816D01*
X121764000Y-111976184D01*
X121796703Y-111811772D01*
X121860853Y-111656900D01*
X121953985Y-111517519D01*
X122072519Y-111398985D01*
X122211900Y-111305853D01*
X122366772Y-111241703D01*
X122531184Y-111209000D01*
X122698816Y-111209000D01*
X122863228Y-111241703D01*
X122863228Y-111241703D01*
G37*
G36*
X120093228Y-111241703D02*
G01*
X120248100Y-111305853D01*
X120387481Y-111398985D01*
X120506015Y-111517519D01*
X120599147Y-111656900D01*
X120663297Y-111811772D01*
X120696000Y-111976184D01*
X120696000Y-112143816D01*
X120663297Y-112308228D01*
X120599147Y-112463100D01*
X120506015Y-112602481D01*
X120387481Y-112721015D01*
X120248100Y-112814147D01*
X120093228Y-112878297D01*
X119928816Y-112911000D01*
X119761184Y-112911000D01*
X119596772Y-112878297D01*
X119441900Y-112814147D01*
X119302519Y-112721015D01*
X119183985Y-112602481D01*
X119090853Y-112463100D01*
X119026703Y-112308228D01*
X118994000Y-112143816D01*
X118994000Y-111976184D01*
X119026703Y-111811772D01*
X119090853Y-111656900D01*
X119183985Y-111517519D01*
X119302519Y-111398985D01*
X119441900Y-111305853D01*
X119596772Y-111241703D01*
X119761184Y-111209000D01*
X119928816Y-111209000D01*
X120093228Y-111241703D01*
X120093228Y-111241703D01*
G37*
G36*
X163733228Y-111241703D02*
G01*
X163888100Y-111305853D01*
X164027481Y-111398985D01*
X164146015Y-111517519D01*
X164239147Y-111656900D01*
X164303297Y-111811772D01*
X164336000Y-111976184D01*
X164336000Y-112143816D01*
X164303297Y-112308228D01*
X164239147Y-112463100D01*
X164146015Y-112602481D01*
X164027481Y-112721015D01*
X163888100Y-112814147D01*
X163733228Y-112878297D01*
X163568816Y-112911000D01*
X163401184Y-112911000D01*
X163236772Y-112878297D01*
X163081900Y-112814147D01*
X162942519Y-112721015D01*
X162823985Y-112602481D01*
X162730853Y-112463100D01*
X162666703Y-112308228D01*
X162634000Y-112143816D01*
X162634000Y-111976184D01*
X162666703Y-111811772D01*
X162730853Y-111656900D01*
X162823985Y-111517519D01*
X162942519Y-111398985D01*
X163081900Y-111305853D01*
X163236772Y-111241703D01*
X163401184Y-111209000D01*
X163568816Y-111209000D01*
X163733228Y-111241703D01*
X163733228Y-111241703D01*
G37*
G36*
X204603228Y-111241703D02*
G01*
X204758100Y-111305853D01*
X204897481Y-111398985D01*
X205016015Y-111517519D01*
X205109147Y-111656900D01*
X205173297Y-111811772D01*
X205206000Y-111976184D01*
X205206000Y-112143816D01*
X205173297Y-112308228D01*
X205109147Y-112463100D01*
X205016015Y-112602481D01*
X204897481Y-112721015D01*
X204758100Y-112814147D01*
X204603228Y-112878297D01*
X204438816Y-112911000D01*
X204271184Y-112911000D01*
X204106772Y-112878297D01*
X203951900Y-112814147D01*
X203812519Y-112721015D01*
X203693985Y-112602481D01*
X203600853Y-112463100D01*
X203536703Y-112308228D01*
X203504000Y-112143816D01*
X203504000Y-111976184D01*
X203536703Y-111811772D01*
X203600853Y-111656900D01*
X203693985Y-111517519D01*
X203812519Y-111398985D01*
X203951900Y-111305853D01*
X204106772Y-111241703D01*
X204271184Y-111209000D01*
X204438816Y-111209000D01*
X204603228Y-111241703D01*
X204603228Y-111241703D01*
G37*
G36*
X150198254Y-108667818D02*
G01*
X150558170Y-108816900D01*
X150571513Y-108822427D01*
X150907436Y-109046884D01*
X151193116Y-109332564D01*
X151283765Y-109468229D01*
X151417574Y-109668489D01*
X151572182Y-110041746D01*
X151651000Y-110437993D01*
X151651000Y-110842007D01*
X151572182Y-111238254D01*
X151456506Y-111517520D01*
X151417573Y-111611513D01*
X151193116Y-111947436D01*
X150907436Y-112233116D01*
X150571513Y-112457573D01*
X150571512Y-112457574D01*
X150571511Y-112457574D01*
X150198254Y-112612182D01*
X149802007Y-112691000D01*
X149397993Y-112691000D01*
X149001746Y-112612182D01*
X148628489Y-112457574D01*
X148628488Y-112457574D01*
X148628487Y-112457573D01*
X148292564Y-112233116D01*
X148006884Y-111947436D01*
X147782427Y-111611513D01*
X147743494Y-111517520D01*
X147627818Y-111238254D01*
X147549000Y-110842007D01*
X147549000Y-110437993D01*
X147627818Y-110041746D01*
X147782426Y-109668489D01*
X147916236Y-109468229D01*
X148006884Y-109332564D01*
X148292564Y-109046884D01*
X148628487Y-108822427D01*
X148641830Y-108816900D01*
X149001746Y-108667818D01*
X149397993Y-108589000D01*
X149802007Y-108589000D01*
X150198254Y-108667818D01*
X150198254Y-108667818D01*
G37*
G36*
X188298254Y-108667818D02*
G01*
X188658170Y-108816900D01*
X188671513Y-108822427D01*
X189007436Y-109046884D01*
X189293116Y-109332564D01*
X189383765Y-109468229D01*
X189517574Y-109668489D01*
X189672182Y-110041746D01*
X189751000Y-110437993D01*
X189751000Y-110842007D01*
X189672182Y-111238254D01*
X189556506Y-111517520D01*
X189517573Y-111611513D01*
X189293116Y-111947436D01*
X189007436Y-112233116D01*
X188671513Y-112457573D01*
X188671512Y-112457574D01*
X188671511Y-112457574D01*
X188298254Y-112612182D01*
X187902007Y-112691000D01*
X187497993Y-112691000D01*
X187101746Y-112612182D01*
X186728489Y-112457574D01*
X186728488Y-112457574D01*
X186728487Y-112457573D01*
X186392564Y-112233116D01*
X186106884Y-111947436D01*
X185882427Y-111611513D01*
X185843494Y-111517520D01*
X185727818Y-111238254D01*
X185649000Y-110842007D01*
X185649000Y-110437993D01*
X185727818Y-110041746D01*
X185882426Y-109668489D01*
X186016236Y-109468229D01*
X186106884Y-109332564D01*
X186392564Y-109046884D01*
X186728487Y-108822427D01*
X186741830Y-108816900D01*
X187101746Y-108667818D01*
X187497993Y-108589000D01*
X187902007Y-108589000D01*
X188298254Y-108667818D01*
X188298254Y-108667818D01*
G37*
G36*
X137098254Y-108667818D02*
G01*
X137458170Y-108816900D01*
X137471513Y-108822427D01*
X137807436Y-109046884D01*
X138093116Y-109332564D01*
X138183765Y-109468229D01*
X138317574Y-109668489D01*
X138472182Y-110041746D01*
X138551000Y-110437993D01*
X138551000Y-110842007D01*
X138472182Y-111238254D01*
X138356506Y-111517520D01*
X138317573Y-111611513D01*
X138093116Y-111947436D01*
X137807436Y-112233116D01*
X137471513Y-112457573D01*
X137471512Y-112457574D01*
X137471511Y-112457574D01*
X137098254Y-112612182D01*
X136702007Y-112691000D01*
X136297993Y-112691000D01*
X135901746Y-112612182D01*
X135528489Y-112457574D01*
X135528488Y-112457574D01*
X135528487Y-112457573D01*
X135192564Y-112233116D01*
X134906884Y-111947436D01*
X134682427Y-111611513D01*
X134643494Y-111517520D01*
X134527818Y-111238254D01*
X134449000Y-110842007D01*
X134449000Y-110437993D01*
X134527818Y-110041746D01*
X134682426Y-109668489D01*
X134816236Y-109468229D01*
X134906884Y-109332564D01*
X135192564Y-109046884D01*
X135528487Y-108822427D01*
X135541830Y-108816900D01*
X135901746Y-108667818D01*
X136297993Y-108589000D01*
X136702007Y-108589000D01*
X137098254Y-108667818D01*
X137098254Y-108667818D01*
G37*
G36*
X213298254Y-108667818D02*
G01*
X213658170Y-108816900D01*
X213671513Y-108822427D01*
X214007436Y-109046884D01*
X214293116Y-109332564D01*
X214383765Y-109468229D01*
X214517574Y-109668489D01*
X214672182Y-110041746D01*
X214751000Y-110437993D01*
X214751000Y-110842007D01*
X214672182Y-111238254D01*
X214556506Y-111517520D01*
X214517573Y-111611513D01*
X214293116Y-111947436D01*
X214007436Y-112233116D01*
X213671513Y-112457573D01*
X213671512Y-112457574D01*
X213671511Y-112457574D01*
X213298254Y-112612182D01*
X212902007Y-112691000D01*
X212497993Y-112691000D01*
X212101746Y-112612182D01*
X211728489Y-112457574D01*
X211728488Y-112457574D01*
X211728487Y-112457573D01*
X211392564Y-112233116D01*
X211106884Y-111947436D01*
X210882427Y-111611513D01*
X210843494Y-111517520D01*
X210727818Y-111238254D01*
X210649000Y-110842007D01*
X210649000Y-110437993D01*
X210727818Y-110041746D01*
X210882426Y-109668489D01*
X211016236Y-109468229D01*
X211106884Y-109332564D01*
X211392564Y-109046884D01*
X211728487Y-108822427D01*
X211741830Y-108816900D01*
X212101746Y-108667818D01*
X212497993Y-108589000D01*
X212902007Y-108589000D01*
X213298254Y-108667818D01*
X213298254Y-108667818D01*
G37*
G36*
X73998254Y-108667818D02*
G01*
X74358170Y-108816900D01*
X74371513Y-108822427D01*
X74707436Y-109046884D01*
X74993116Y-109332564D01*
X75083765Y-109468229D01*
X75217574Y-109668489D01*
X75372182Y-110041746D01*
X75451000Y-110437993D01*
X75451000Y-110842007D01*
X75372182Y-111238254D01*
X75256506Y-111517520D01*
X75217573Y-111611513D01*
X74993116Y-111947436D01*
X74707436Y-112233116D01*
X74371513Y-112457573D01*
X74371512Y-112457574D01*
X74371511Y-112457574D01*
X73998254Y-112612182D01*
X73602007Y-112691000D01*
X73197993Y-112691000D01*
X72801746Y-112612182D01*
X72428489Y-112457574D01*
X72428488Y-112457574D01*
X72428487Y-112457573D01*
X72092564Y-112233116D01*
X71806884Y-111947436D01*
X71582427Y-111611513D01*
X71543494Y-111517520D01*
X71427818Y-111238254D01*
X71349000Y-110842007D01*
X71349000Y-110437993D01*
X71427818Y-110041746D01*
X71582426Y-109668489D01*
X71716236Y-109468229D01*
X71806884Y-109332564D01*
X72092564Y-109046884D01*
X72428487Y-108822427D01*
X72441830Y-108816900D01*
X72801746Y-108667818D01*
X73197993Y-108589000D01*
X73602007Y-108589000D01*
X73998254Y-108667818D01*
X73998254Y-108667818D01*
G37*
G36*
X98998254Y-108667818D02*
G01*
X99358170Y-108816900D01*
X99371513Y-108822427D01*
X99707436Y-109046884D01*
X99993116Y-109332564D01*
X100083765Y-109468229D01*
X100217574Y-109668489D01*
X100372182Y-110041746D01*
X100451000Y-110437993D01*
X100451000Y-110842007D01*
X100372182Y-111238254D01*
X100256506Y-111517520D01*
X100217573Y-111611513D01*
X99993116Y-111947436D01*
X99707436Y-112233116D01*
X99371513Y-112457573D01*
X99371512Y-112457574D01*
X99371511Y-112457574D01*
X98998254Y-112612182D01*
X98602007Y-112691000D01*
X98197993Y-112691000D01*
X97801746Y-112612182D01*
X97428489Y-112457574D01*
X97428488Y-112457574D01*
X97428487Y-112457573D01*
X97092564Y-112233116D01*
X96806884Y-111947436D01*
X96582427Y-111611513D01*
X96543494Y-111517520D01*
X96427818Y-111238254D01*
X96349000Y-110842007D01*
X96349000Y-110437993D01*
X96427818Y-110041746D01*
X96582426Y-109668489D01*
X96716236Y-109468229D01*
X96806884Y-109332564D01*
X97092564Y-109046884D01*
X97428487Y-108822427D01*
X97441830Y-108816900D01*
X97801746Y-108667818D01*
X98197993Y-108589000D01*
X98602007Y-108589000D01*
X98998254Y-108667818D01*
X98998254Y-108667818D01*
G37*
G36*
X112098254Y-108667818D02*
G01*
X112458170Y-108816900D01*
X112471513Y-108822427D01*
X112807436Y-109046884D01*
X113093116Y-109332564D01*
X113183765Y-109468229D01*
X113317574Y-109668489D01*
X113472182Y-110041746D01*
X113551000Y-110437993D01*
X113551000Y-110842007D01*
X113472182Y-111238254D01*
X113356506Y-111517520D01*
X113317573Y-111611513D01*
X113093116Y-111947436D01*
X112807436Y-112233116D01*
X112471513Y-112457573D01*
X112471512Y-112457574D01*
X112471511Y-112457574D01*
X112098254Y-112612182D01*
X111702007Y-112691000D01*
X111297993Y-112691000D01*
X110901746Y-112612182D01*
X110528489Y-112457574D01*
X110528488Y-112457574D01*
X110528487Y-112457573D01*
X110192564Y-112233116D01*
X109906884Y-111947436D01*
X109682427Y-111611513D01*
X109643494Y-111517520D01*
X109527818Y-111238254D01*
X109449000Y-110842007D01*
X109449000Y-110437993D01*
X109527818Y-110041746D01*
X109682426Y-109668489D01*
X109816236Y-109468229D01*
X109906884Y-109332564D01*
X110192564Y-109046884D01*
X110528487Y-108822427D01*
X110541830Y-108816900D01*
X110901746Y-108667818D01*
X111297993Y-108589000D01*
X111702007Y-108589000D01*
X112098254Y-108667818D01*
X112098254Y-108667818D01*
G37*
G36*
X175198254Y-108667818D02*
G01*
X175558170Y-108816900D01*
X175571513Y-108822427D01*
X175907436Y-109046884D01*
X176193116Y-109332564D01*
X176283765Y-109468229D01*
X176417574Y-109668489D01*
X176572182Y-110041746D01*
X176651000Y-110437993D01*
X176651000Y-110842007D01*
X176572182Y-111238254D01*
X176456506Y-111517520D01*
X176417573Y-111611513D01*
X176193116Y-111947436D01*
X175907436Y-112233116D01*
X175571513Y-112457573D01*
X175571512Y-112457574D01*
X175571511Y-112457574D01*
X175198254Y-112612182D01*
X174802007Y-112691000D01*
X174397993Y-112691000D01*
X174001746Y-112612182D01*
X173628489Y-112457574D01*
X173628488Y-112457574D01*
X173628487Y-112457573D01*
X173292564Y-112233116D01*
X173006884Y-111947436D01*
X172782427Y-111611513D01*
X172743494Y-111517520D01*
X172627818Y-111238254D01*
X172549000Y-110842007D01*
X172549000Y-110437993D01*
X172627818Y-110041746D01*
X172782426Y-109668489D01*
X172916236Y-109468229D01*
X173006884Y-109332564D01*
X173292564Y-109046884D01*
X173628487Y-108822427D01*
X173641830Y-108816900D01*
X174001746Y-108667818D01*
X174397993Y-108589000D01*
X174802007Y-108589000D01*
X175198254Y-108667818D01*
X175198254Y-108667818D01*
G37*
G36*
X200448228Y-108401703D02*
G01*
X200603100Y-108465853D01*
X200742481Y-108558985D01*
X200861015Y-108677519D01*
X200954147Y-108816900D01*
X201018297Y-108971772D01*
X201051000Y-109136184D01*
X201051000Y-109303816D01*
X201018297Y-109468228D01*
X200954147Y-109623100D01*
X200861015Y-109762481D01*
X200742481Y-109881015D01*
X200603100Y-109974147D01*
X200448228Y-110038297D01*
X200283816Y-110071000D01*
X200116184Y-110071000D01*
X199951772Y-110038297D01*
X199796900Y-109974147D01*
X199657519Y-109881015D01*
X199538985Y-109762481D01*
X199445853Y-109623100D01*
X199381703Y-109468228D01*
X199349000Y-109303816D01*
X199349000Y-109136184D01*
X199381703Y-108971772D01*
X199445853Y-108816900D01*
X199538985Y-108677519D01*
X199657519Y-108558985D01*
X199796900Y-108465853D01*
X199951772Y-108401703D01*
X200116184Y-108369000D01*
X200283816Y-108369000D01*
X200448228Y-108401703D01*
X200448228Y-108401703D01*
G37*
G36*
X159578228Y-108401703D02*
G01*
X159733100Y-108465853D01*
X159872481Y-108558985D01*
X159991015Y-108677519D01*
X160084147Y-108816900D01*
X160148297Y-108971772D01*
X160181000Y-109136184D01*
X160181000Y-109303816D01*
X160148297Y-109468228D01*
X160084147Y-109623100D01*
X159991015Y-109762481D01*
X159872481Y-109881015D01*
X159733100Y-109974147D01*
X159578228Y-110038297D01*
X159413816Y-110071000D01*
X159246184Y-110071000D01*
X159081772Y-110038297D01*
X158926900Y-109974147D01*
X158787519Y-109881015D01*
X158668985Y-109762481D01*
X158575853Y-109623100D01*
X158511703Y-109468228D01*
X158479000Y-109303816D01*
X158479000Y-109136184D01*
X158511703Y-108971772D01*
X158575853Y-108816900D01*
X158668985Y-108677519D01*
X158787519Y-108558985D01*
X158926900Y-108465853D01*
X159081772Y-108401703D01*
X159246184Y-108369000D01*
X159413816Y-108369000D01*
X159578228Y-108401703D01*
X159578228Y-108401703D01*
G37*
G36*
X165118228Y-108401703D02*
G01*
X165273100Y-108465853D01*
X165412481Y-108558985D01*
X165531015Y-108677519D01*
X165624147Y-108816900D01*
X165688297Y-108971772D01*
X165721000Y-109136184D01*
X165721000Y-109303816D01*
X165688297Y-109468228D01*
X165624147Y-109623100D01*
X165531015Y-109762481D01*
X165412481Y-109881015D01*
X165273100Y-109974147D01*
X165118228Y-110038297D01*
X164953816Y-110071000D01*
X164786184Y-110071000D01*
X164621772Y-110038297D01*
X164466900Y-109974147D01*
X164327519Y-109881015D01*
X164208985Y-109762481D01*
X164115853Y-109623100D01*
X164051703Y-109468228D01*
X164019000Y-109303816D01*
X164019000Y-109136184D01*
X164051703Y-108971772D01*
X164115853Y-108816900D01*
X164208985Y-108677519D01*
X164327519Y-108558985D01*
X164466900Y-108465853D01*
X164621772Y-108401703D01*
X164786184Y-108369000D01*
X164953816Y-108369000D01*
X165118228Y-108401703D01*
X165118228Y-108401703D01*
G37*
G36*
X168491000Y-110071000D02*
G01*
X166789000Y-110071000D01*
X166789000Y-108369000D01*
X168491000Y-108369000D01*
X168491000Y-110071000D01*
X168491000Y-110071000D01*
G37*
G36*
X162348228Y-108401703D02*
G01*
X162503100Y-108465853D01*
X162642481Y-108558985D01*
X162761015Y-108677519D01*
X162854147Y-108816900D01*
X162918297Y-108971772D01*
X162951000Y-109136184D01*
X162951000Y-109303816D01*
X162918297Y-109468228D01*
X162854147Y-109623100D01*
X162761015Y-109762481D01*
X162642481Y-109881015D01*
X162503100Y-109974147D01*
X162348228Y-110038297D01*
X162183816Y-110071000D01*
X162016184Y-110071000D01*
X161851772Y-110038297D01*
X161696900Y-109974147D01*
X161557519Y-109881015D01*
X161438985Y-109762481D01*
X161345853Y-109623100D01*
X161281703Y-109468228D01*
X161249000Y-109303816D01*
X161249000Y-109136184D01*
X161281703Y-108971772D01*
X161345853Y-108816900D01*
X161438985Y-108677519D01*
X161557519Y-108558985D01*
X161696900Y-108465853D01*
X161851772Y-108401703D01*
X162016184Y-108369000D01*
X162183816Y-108369000D01*
X162348228Y-108401703D01*
X162348228Y-108401703D01*
G37*
G36*
X206591000Y-110071000D02*
G01*
X204889000Y-110071000D01*
X204889000Y-108369000D01*
X206591000Y-108369000D01*
X206591000Y-110071000D01*
X206591000Y-110071000D01*
G37*
G36*
X203218228Y-108401703D02*
G01*
X203373100Y-108465853D01*
X203512481Y-108558985D01*
X203631015Y-108677519D01*
X203724147Y-108816900D01*
X203788297Y-108971772D01*
X203821000Y-109136184D01*
X203821000Y-109303816D01*
X203788297Y-109468228D01*
X203724147Y-109623100D01*
X203631015Y-109762481D01*
X203512481Y-109881015D01*
X203373100Y-109974147D01*
X203218228Y-110038297D01*
X203053816Y-110071000D01*
X202886184Y-110071000D01*
X202721772Y-110038297D01*
X202566900Y-109974147D01*
X202427519Y-109881015D01*
X202308985Y-109762481D01*
X202215853Y-109623100D01*
X202151703Y-109468228D01*
X202119000Y-109303816D01*
X202119000Y-109136184D01*
X202151703Y-108971772D01*
X202215853Y-108816900D01*
X202308985Y-108677519D01*
X202427519Y-108558985D01*
X202566900Y-108465853D01*
X202721772Y-108401703D01*
X202886184Y-108369000D01*
X203053816Y-108369000D01*
X203218228Y-108401703D01*
X203218228Y-108401703D01*
G37*
G36*
X197678228Y-108401703D02*
G01*
X197833100Y-108465853D01*
X197972481Y-108558985D01*
X198091015Y-108677519D01*
X198184147Y-108816900D01*
X198248297Y-108971772D01*
X198281000Y-109136184D01*
X198281000Y-109303816D01*
X198248297Y-109468228D01*
X198184147Y-109623100D01*
X198091015Y-109762481D01*
X197972481Y-109881015D01*
X197833100Y-109974147D01*
X197678228Y-110038297D01*
X197513816Y-110071000D01*
X197346184Y-110071000D01*
X197181772Y-110038297D01*
X197026900Y-109974147D01*
X196887519Y-109881015D01*
X196768985Y-109762481D01*
X196675853Y-109623100D01*
X196611703Y-109468228D01*
X196579000Y-109303816D01*
X196579000Y-109136184D01*
X196611703Y-108971772D01*
X196675853Y-108816900D01*
X196768985Y-108677519D01*
X196887519Y-108558985D01*
X197026900Y-108465853D01*
X197181772Y-108401703D01*
X197346184Y-108369000D01*
X197513816Y-108369000D01*
X197678228Y-108401703D01*
X197678228Y-108401703D01*
G37*
G36*
X194908228Y-108401703D02*
G01*
X195063100Y-108465853D01*
X195202481Y-108558985D01*
X195321015Y-108677519D01*
X195414147Y-108816900D01*
X195478297Y-108971772D01*
X195511000Y-109136184D01*
X195511000Y-109303816D01*
X195478297Y-109468228D01*
X195414147Y-109623100D01*
X195321015Y-109762481D01*
X195202481Y-109881015D01*
X195063100Y-109974147D01*
X194908228Y-110038297D01*
X194743816Y-110071000D01*
X194576184Y-110071000D01*
X194411772Y-110038297D01*
X194256900Y-109974147D01*
X194117519Y-109881015D01*
X193998985Y-109762481D01*
X193905853Y-109623100D01*
X193841703Y-109468228D01*
X193809000Y-109303816D01*
X193809000Y-109136184D01*
X193841703Y-108971772D01*
X193905853Y-108816900D01*
X193998985Y-108677519D01*
X194117519Y-108558985D01*
X194256900Y-108465853D01*
X194411772Y-108401703D01*
X194576184Y-108369000D01*
X194743816Y-108369000D01*
X194908228Y-108401703D01*
X194908228Y-108401703D01*
G37*
G36*
X118708228Y-108401703D02*
G01*
X118863100Y-108465853D01*
X119002481Y-108558985D01*
X119121015Y-108677519D01*
X119214147Y-108816900D01*
X119278297Y-108971772D01*
X119311000Y-109136184D01*
X119311000Y-109303816D01*
X119278297Y-109468228D01*
X119214147Y-109623100D01*
X119121015Y-109762481D01*
X119002481Y-109881015D01*
X118863100Y-109974147D01*
X118708228Y-110038297D01*
X118543816Y-110071000D01*
X118376184Y-110071000D01*
X118211772Y-110038297D01*
X118056900Y-109974147D01*
X117917519Y-109881015D01*
X117798985Y-109762481D01*
X117705853Y-109623100D01*
X117641703Y-109468228D01*
X117609000Y-109303816D01*
X117609000Y-109136184D01*
X117641703Y-108971772D01*
X117705853Y-108816900D01*
X117798985Y-108677519D01*
X117917519Y-108558985D01*
X118056900Y-108465853D01*
X118211772Y-108401703D01*
X118376184Y-108369000D01*
X118543816Y-108369000D01*
X118708228Y-108401703D01*
X118708228Y-108401703D01*
G37*
G36*
X124248228Y-108401703D02*
G01*
X124403100Y-108465853D01*
X124542481Y-108558985D01*
X124661015Y-108677519D01*
X124754147Y-108816900D01*
X124818297Y-108971772D01*
X124851000Y-109136184D01*
X124851000Y-109303816D01*
X124818297Y-109468228D01*
X124754147Y-109623100D01*
X124661015Y-109762481D01*
X124542481Y-109881015D01*
X124403100Y-109974147D01*
X124248228Y-110038297D01*
X124083816Y-110071000D01*
X123916184Y-110071000D01*
X123751772Y-110038297D01*
X123596900Y-109974147D01*
X123457519Y-109881015D01*
X123338985Y-109762481D01*
X123245853Y-109623100D01*
X123181703Y-109468228D01*
X123149000Y-109303816D01*
X123149000Y-109136184D01*
X123181703Y-108971772D01*
X123245853Y-108816900D01*
X123338985Y-108677519D01*
X123457519Y-108558985D01*
X123596900Y-108465853D01*
X123751772Y-108401703D01*
X123916184Y-108369000D01*
X124083816Y-108369000D01*
X124248228Y-108401703D01*
X124248228Y-108401703D01*
G37*
G36*
X80608228Y-108401703D02*
G01*
X80763100Y-108465853D01*
X80902481Y-108558985D01*
X81021015Y-108677519D01*
X81114147Y-108816900D01*
X81178297Y-108971772D01*
X81211000Y-109136184D01*
X81211000Y-109303816D01*
X81178297Y-109468228D01*
X81114147Y-109623100D01*
X81021015Y-109762481D01*
X80902481Y-109881015D01*
X80763100Y-109974147D01*
X80608228Y-110038297D01*
X80443816Y-110071000D01*
X80276184Y-110071000D01*
X80111772Y-110038297D01*
X79956900Y-109974147D01*
X79817519Y-109881015D01*
X79698985Y-109762481D01*
X79605853Y-109623100D01*
X79541703Y-109468228D01*
X79509000Y-109303816D01*
X79509000Y-109136184D01*
X79541703Y-108971772D01*
X79605853Y-108816900D01*
X79698985Y-108677519D01*
X79817519Y-108558985D01*
X79956900Y-108465853D01*
X80111772Y-108401703D01*
X80276184Y-108369000D01*
X80443816Y-108369000D01*
X80608228Y-108401703D01*
X80608228Y-108401703D01*
G37*
G36*
X130391000Y-110071000D02*
G01*
X128689000Y-110071000D01*
X128689000Y-108369000D01*
X130391000Y-108369000D01*
X130391000Y-110071000D01*
X130391000Y-110071000D01*
G37*
G36*
X127018228Y-108401703D02*
G01*
X127173100Y-108465853D01*
X127312481Y-108558985D01*
X127431015Y-108677519D01*
X127524147Y-108816900D01*
X127588297Y-108971772D01*
X127621000Y-109136184D01*
X127621000Y-109303816D01*
X127588297Y-109468228D01*
X127524147Y-109623100D01*
X127431015Y-109762481D01*
X127312481Y-109881015D01*
X127173100Y-109974147D01*
X127018228Y-110038297D01*
X126853816Y-110071000D01*
X126686184Y-110071000D01*
X126521772Y-110038297D01*
X126366900Y-109974147D01*
X126227519Y-109881015D01*
X126108985Y-109762481D01*
X126015853Y-109623100D01*
X125951703Y-109468228D01*
X125919000Y-109303816D01*
X125919000Y-109136184D01*
X125951703Y-108971772D01*
X126015853Y-108816900D01*
X126108985Y-108677519D01*
X126227519Y-108558985D01*
X126366900Y-108465853D01*
X126521772Y-108401703D01*
X126686184Y-108369000D01*
X126853816Y-108369000D01*
X127018228Y-108401703D01*
X127018228Y-108401703D01*
G37*
G36*
X83378228Y-108401703D02*
G01*
X83533100Y-108465853D01*
X83672481Y-108558985D01*
X83791015Y-108677519D01*
X83884147Y-108816900D01*
X83948297Y-108971772D01*
X83981000Y-109136184D01*
X83981000Y-109303816D01*
X83948297Y-109468228D01*
X83884147Y-109623100D01*
X83791015Y-109762481D01*
X83672481Y-109881015D01*
X83533100Y-109974147D01*
X83378228Y-110038297D01*
X83213816Y-110071000D01*
X83046184Y-110071000D01*
X82881772Y-110038297D01*
X82726900Y-109974147D01*
X82587519Y-109881015D01*
X82468985Y-109762481D01*
X82375853Y-109623100D01*
X82311703Y-109468228D01*
X82279000Y-109303816D01*
X82279000Y-109136184D01*
X82311703Y-108971772D01*
X82375853Y-108816900D01*
X82468985Y-108677519D01*
X82587519Y-108558985D01*
X82726900Y-108465853D01*
X82881772Y-108401703D01*
X83046184Y-108369000D01*
X83213816Y-108369000D01*
X83378228Y-108401703D01*
X83378228Y-108401703D01*
G37*
G36*
X86148228Y-108401703D02*
G01*
X86303100Y-108465853D01*
X86442481Y-108558985D01*
X86561015Y-108677519D01*
X86654147Y-108816900D01*
X86718297Y-108971772D01*
X86751000Y-109136184D01*
X86751000Y-109303816D01*
X86718297Y-109468228D01*
X86654147Y-109623100D01*
X86561015Y-109762481D01*
X86442481Y-109881015D01*
X86303100Y-109974147D01*
X86148228Y-110038297D01*
X85983816Y-110071000D01*
X85816184Y-110071000D01*
X85651772Y-110038297D01*
X85496900Y-109974147D01*
X85357519Y-109881015D01*
X85238985Y-109762481D01*
X85145853Y-109623100D01*
X85081703Y-109468228D01*
X85049000Y-109303816D01*
X85049000Y-109136184D01*
X85081703Y-108971772D01*
X85145853Y-108816900D01*
X85238985Y-108677519D01*
X85357519Y-108558985D01*
X85496900Y-108465853D01*
X85651772Y-108401703D01*
X85816184Y-108369000D01*
X85983816Y-108369000D01*
X86148228Y-108401703D01*
X86148228Y-108401703D01*
G37*
G36*
X88918228Y-108401703D02*
G01*
X89073100Y-108465853D01*
X89212481Y-108558985D01*
X89331015Y-108677519D01*
X89424147Y-108816900D01*
X89488297Y-108971772D01*
X89521000Y-109136184D01*
X89521000Y-109303816D01*
X89488297Y-109468228D01*
X89424147Y-109623100D01*
X89331015Y-109762481D01*
X89212481Y-109881015D01*
X89073100Y-109974147D01*
X88918228Y-110038297D01*
X88753816Y-110071000D01*
X88586184Y-110071000D01*
X88421772Y-110038297D01*
X88266900Y-109974147D01*
X88127519Y-109881015D01*
X88008985Y-109762481D01*
X87915853Y-109623100D01*
X87851703Y-109468228D01*
X87819000Y-109303816D01*
X87819000Y-109136184D01*
X87851703Y-108971772D01*
X87915853Y-108816900D01*
X88008985Y-108677519D01*
X88127519Y-108558985D01*
X88266900Y-108465853D01*
X88421772Y-108401703D01*
X88586184Y-108369000D01*
X88753816Y-108369000D01*
X88918228Y-108401703D01*
X88918228Y-108401703D01*
G37*
G36*
X92291000Y-110071000D02*
G01*
X90589000Y-110071000D01*
X90589000Y-108369000D01*
X92291000Y-108369000D01*
X92291000Y-110071000D01*
X92291000Y-110071000D01*
G37*
G36*
X156808228Y-108401703D02*
G01*
X156963100Y-108465853D01*
X157102481Y-108558985D01*
X157221015Y-108677519D01*
X157314147Y-108816900D01*
X157378297Y-108971772D01*
X157411000Y-109136184D01*
X157411000Y-109303816D01*
X157378297Y-109468228D01*
X157314147Y-109623100D01*
X157221015Y-109762481D01*
X157102481Y-109881015D01*
X156963100Y-109974147D01*
X156808228Y-110038297D01*
X156643816Y-110071000D01*
X156476184Y-110071000D01*
X156311772Y-110038297D01*
X156156900Y-109974147D01*
X156017519Y-109881015D01*
X155898985Y-109762481D01*
X155805853Y-109623100D01*
X155741703Y-109468228D01*
X155709000Y-109303816D01*
X155709000Y-109136184D01*
X155741703Y-108971772D01*
X155805853Y-108816900D01*
X155898985Y-108677519D01*
X156017519Y-108558985D01*
X156156900Y-108465853D01*
X156311772Y-108401703D01*
X156476184Y-108369000D01*
X156643816Y-108369000D01*
X156808228Y-108401703D01*
X156808228Y-108401703D01*
G37*
G36*
X121478228Y-108401703D02*
G01*
X121633100Y-108465853D01*
X121772481Y-108558985D01*
X121891015Y-108677519D01*
X121984147Y-108816900D01*
X122048297Y-108971772D01*
X122081000Y-109136184D01*
X122081000Y-109303816D01*
X122048297Y-109468228D01*
X121984147Y-109623100D01*
X121891015Y-109762481D01*
X121772481Y-109881015D01*
X121633100Y-109974147D01*
X121478228Y-110038297D01*
X121313816Y-110071000D01*
X121146184Y-110071000D01*
X120981772Y-110038297D01*
X120826900Y-109974147D01*
X120687519Y-109881015D01*
X120568985Y-109762481D01*
X120475853Y-109623100D01*
X120411703Y-109468228D01*
X120379000Y-109303816D01*
X120379000Y-109136184D01*
X120411703Y-108971772D01*
X120475853Y-108816900D01*
X120568985Y-108677519D01*
X120687519Y-108558985D01*
X120826900Y-108465853D01*
X120981772Y-108401703D01*
X121146184Y-108369000D01*
X121313816Y-108369000D01*
X121478228Y-108401703D01*
X121478228Y-108401703D01*
G37*
G36*
X162348228Y-87446703D02*
G01*
X162503100Y-87510853D01*
X162642481Y-87603985D01*
X162761015Y-87722519D01*
X162854147Y-87861900D01*
X162918297Y-88016772D01*
X162951000Y-88181184D01*
X162951000Y-88348816D01*
X162918297Y-88513228D01*
X162854147Y-88668100D01*
X162761015Y-88807481D01*
X162642481Y-88926015D01*
X162503100Y-89019147D01*
X162348228Y-89083297D01*
X162183816Y-89116000D01*
X162016184Y-89116000D01*
X161851772Y-89083297D01*
X161696900Y-89019147D01*
X161557519Y-88926015D01*
X161438985Y-88807481D01*
X161345853Y-88668100D01*
X161281703Y-88513228D01*
X161249000Y-88348816D01*
X161249000Y-88181184D01*
X161281703Y-88016772D01*
X161345853Y-87861900D01*
X161438985Y-87722519D01*
X161557519Y-87603985D01*
X161696900Y-87510853D01*
X161851772Y-87446703D01*
X162016184Y-87414000D01*
X162183816Y-87414000D01*
X162348228Y-87446703D01*
X162348228Y-87446703D01*
G37*
G36*
X203218228Y-87446703D02*
G01*
X203373100Y-87510853D01*
X203512481Y-87603985D01*
X203631015Y-87722519D01*
X203724147Y-87861900D01*
X203788297Y-88016772D01*
X203821000Y-88181184D01*
X203821000Y-88348816D01*
X203788297Y-88513228D01*
X203724147Y-88668100D01*
X203631015Y-88807481D01*
X203512481Y-88926015D01*
X203373100Y-89019147D01*
X203218228Y-89083297D01*
X203053816Y-89116000D01*
X202886184Y-89116000D01*
X202721772Y-89083297D01*
X202566900Y-89019147D01*
X202427519Y-88926015D01*
X202308985Y-88807481D01*
X202215853Y-88668100D01*
X202151703Y-88513228D01*
X202119000Y-88348816D01*
X202119000Y-88181184D01*
X202151703Y-88016772D01*
X202215853Y-87861900D01*
X202308985Y-87722519D01*
X202427519Y-87603985D01*
X202566900Y-87510853D01*
X202721772Y-87446703D01*
X202886184Y-87414000D01*
X203053816Y-87414000D01*
X203218228Y-87446703D01*
X203218228Y-87446703D01*
G37*
G36*
X206591000Y-89116000D02*
G01*
X204889000Y-89116000D01*
X204889000Y-87414000D01*
X206591000Y-87414000D01*
X206591000Y-89116000D01*
X206591000Y-89116000D01*
G37*
G36*
X130391000Y-89116000D02*
G01*
X128689000Y-89116000D01*
X128689000Y-87414000D01*
X130391000Y-87414000D01*
X130391000Y-89116000D01*
X130391000Y-89116000D01*
G37*
G36*
X156808228Y-87446703D02*
G01*
X156963100Y-87510853D01*
X157102481Y-87603985D01*
X157221015Y-87722519D01*
X157314147Y-87861900D01*
X157378297Y-88016772D01*
X157411000Y-88181184D01*
X157411000Y-88348816D01*
X157378297Y-88513228D01*
X157314147Y-88668100D01*
X157221015Y-88807481D01*
X157102481Y-88926015D01*
X156963100Y-89019147D01*
X156808228Y-89083297D01*
X156643816Y-89116000D01*
X156476184Y-89116000D01*
X156311772Y-89083297D01*
X156156900Y-89019147D01*
X156017519Y-88926015D01*
X155898985Y-88807481D01*
X155805853Y-88668100D01*
X155741703Y-88513228D01*
X155709000Y-88348816D01*
X155709000Y-88181184D01*
X155741703Y-88016772D01*
X155805853Y-87861900D01*
X155898985Y-87722519D01*
X156017519Y-87603985D01*
X156156900Y-87510853D01*
X156311772Y-87446703D01*
X156476184Y-87414000D01*
X156643816Y-87414000D01*
X156808228Y-87446703D01*
X156808228Y-87446703D01*
G37*
G36*
X118708228Y-87446703D02*
G01*
X118863100Y-87510853D01*
X119002481Y-87603985D01*
X119121015Y-87722519D01*
X119214147Y-87861900D01*
X119278297Y-88016772D01*
X119311000Y-88181184D01*
X119311000Y-88348816D01*
X119278297Y-88513228D01*
X119214147Y-88668100D01*
X119121015Y-88807481D01*
X119002481Y-88926015D01*
X118863100Y-89019147D01*
X118708228Y-89083297D01*
X118543816Y-89116000D01*
X118376184Y-89116000D01*
X118211772Y-89083297D01*
X118056900Y-89019147D01*
X117917519Y-88926015D01*
X117798985Y-88807481D01*
X117705853Y-88668100D01*
X117641703Y-88513228D01*
X117609000Y-88348816D01*
X117609000Y-88181184D01*
X117641703Y-88016772D01*
X117705853Y-87861900D01*
X117798985Y-87722519D01*
X117917519Y-87603985D01*
X118056900Y-87510853D01*
X118211772Y-87446703D01*
X118376184Y-87414000D01*
X118543816Y-87414000D01*
X118708228Y-87446703D01*
X118708228Y-87446703D01*
G37*
G36*
X121478228Y-87446703D02*
G01*
X121633100Y-87510853D01*
X121772481Y-87603985D01*
X121891015Y-87722519D01*
X121984147Y-87861900D01*
X122048297Y-88016772D01*
X122081000Y-88181184D01*
X122081000Y-88348816D01*
X122048297Y-88513228D01*
X121984147Y-88668100D01*
X121891015Y-88807481D01*
X121772481Y-88926015D01*
X121633100Y-89019147D01*
X121478228Y-89083297D01*
X121313816Y-89116000D01*
X121146184Y-89116000D01*
X120981772Y-89083297D01*
X120826900Y-89019147D01*
X120687519Y-88926015D01*
X120568985Y-88807481D01*
X120475853Y-88668100D01*
X120411703Y-88513228D01*
X120379000Y-88348816D01*
X120379000Y-88181184D01*
X120411703Y-88016772D01*
X120475853Y-87861900D01*
X120568985Y-87722519D01*
X120687519Y-87603985D01*
X120826900Y-87510853D01*
X120981772Y-87446703D01*
X121146184Y-87414000D01*
X121313816Y-87414000D01*
X121478228Y-87446703D01*
X121478228Y-87446703D01*
G37*
G36*
X124248228Y-87446703D02*
G01*
X124403100Y-87510853D01*
X124542481Y-87603985D01*
X124661015Y-87722519D01*
X124754147Y-87861900D01*
X124818297Y-88016772D01*
X124851000Y-88181184D01*
X124851000Y-88348816D01*
X124818297Y-88513228D01*
X124754147Y-88668100D01*
X124661015Y-88807481D01*
X124542481Y-88926015D01*
X124403100Y-89019147D01*
X124248228Y-89083297D01*
X124083816Y-89116000D01*
X123916184Y-89116000D01*
X123751772Y-89083297D01*
X123596900Y-89019147D01*
X123457519Y-88926015D01*
X123338985Y-88807481D01*
X123245853Y-88668100D01*
X123181703Y-88513228D01*
X123149000Y-88348816D01*
X123149000Y-88181184D01*
X123181703Y-88016772D01*
X123245853Y-87861900D01*
X123338985Y-87722519D01*
X123457519Y-87603985D01*
X123596900Y-87510853D01*
X123751772Y-87446703D01*
X123916184Y-87414000D01*
X124083816Y-87414000D01*
X124248228Y-87446703D01*
X124248228Y-87446703D01*
G37*
G36*
X127018228Y-87446703D02*
G01*
X127173100Y-87510853D01*
X127312481Y-87603985D01*
X127431015Y-87722519D01*
X127524147Y-87861900D01*
X127588297Y-88016772D01*
X127621000Y-88181184D01*
X127621000Y-88348816D01*
X127588297Y-88513228D01*
X127524147Y-88668100D01*
X127431015Y-88807481D01*
X127312481Y-88926015D01*
X127173100Y-89019147D01*
X127018228Y-89083297D01*
X126853816Y-89116000D01*
X126686184Y-89116000D01*
X126521772Y-89083297D01*
X126366900Y-89019147D01*
X126227519Y-88926015D01*
X126108985Y-88807481D01*
X126015853Y-88668100D01*
X125951703Y-88513228D01*
X125919000Y-88348816D01*
X125919000Y-88181184D01*
X125951703Y-88016772D01*
X126015853Y-87861900D01*
X126108985Y-87722519D01*
X126227519Y-87603985D01*
X126366900Y-87510853D01*
X126521772Y-87446703D01*
X126686184Y-87414000D01*
X126853816Y-87414000D01*
X127018228Y-87446703D01*
X127018228Y-87446703D01*
G37*
G36*
X197678228Y-87446703D02*
G01*
X197833100Y-87510853D01*
X197972481Y-87603985D01*
X198091015Y-87722519D01*
X198184147Y-87861900D01*
X198248297Y-88016772D01*
X198281000Y-88181184D01*
X198281000Y-88348816D01*
X198248297Y-88513228D01*
X198184147Y-88668100D01*
X198091015Y-88807481D01*
X197972481Y-88926015D01*
X197833100Y-89019147D01*
X197678228Y-89083297D01*
X197513816Y-89116000D01*
X197346184Y-89116000D01*
X197181772Y-89083297D01*
X197026900Y-89019147D01*
X196887519Y-88926015D01*
X196768985Y-88807481D01*
X196675853Y-88668100D01*
X196611703Y-88513228D01*
X196579000Y-88348816D01*
X196579000Y-88181184D01*
X196611703Y-88016772D01*
X196675853Y-87861900D01*
X196768985Y-87722519D01*
X196887519Y-87603985D01*
X197026900Y-87510853D01*
X197181772Y-87446703D01*
X197346184Y-87414000D01*
X197513816Y-87414000D01*
X197678228Y-87446703D01*
X197678228Y-87446703D01*
G37*
G36*
X88918228Y-87446703D02*
G01*
X89073100Y-87510853D01*
X89212481Y-87603985D01*
X89331015Y-87722519D01*
X89424147Y-87861900D01*
X89488297Y-88016772D01*
X89521000Y-88181184D01*
X89521000Y-88348816D01*
X89488297Y-88513228D01*
X89424147Y-88668100D01*
X89331015Y-88807481D01*
X89212481Y-88926015D01*
X89073100Y-89019147D01*
X88918228Y-89083297D01*
X88753816Y-89116000D01*
X88586184Y-89116000D01*
X88421772Y-89083297D01*
X88266900Y-89019147D01*
X88127519Y-88926015D01*
X88008985Y-88807481D01*
X87915853Y-88668100D01*
X87851703Y-88513228D01*
X87819000Y-88348816D01*
X87819000Y-88181184D01*
X87851703Y-88016772D01*
X87915853Y-87861900D01*
X88008985Y-87722519D01*
X88127519Y-87603985D01*
X88266900Y-87510853D01*
X88421772Y-87446703D01*
X88586184Y-87414000D01*
X88753816Y-87414000D01*
X88918228Y-87446703D01*
X88918228Y-87446703D01*
G37*
G36*
X86148228Y-87446703D02*
G01*
X86303100Y-87510853D01*
X86442481Y-87603985D01*
X86561015Y-87722519D01*
X86654147Y-87861900D01*
X86718297Y-88016772D01*
X86751000Y-88181184D01*
X86751000Y-88348816D01*
X86718297Y-88513228D01*
X86654147Y-88668100D01*
X86561015Y-88807481D01*
X86442481Y-88926015D01*
X86303100Y-89019147D01*
X86148228Y-89083297D01*
X85983816Y-89116000D01*
X85816184Y-89116000D01*
X85651772Y-89083297D01*
X85496900Y-89019147D01*
X85357519Y-88926015D01*
X85238985Y-88807481D01*
X85145853Y-88668100D01*
X85081703Y-88513228D01*
X85049000Y-88348816D01*
X85049000Y-88181184D01*
X85081703Y-88016772D01*
X85145853Y-87861900D01*
X85238985Y-87722519D01*
X85357519Y-87603985D01*
X85496900Y-87510853D01*
X85651772Y-87446703D01*
X85816184Y-87414000D01*
X85983816Y-87414000D01*
X86148228Y-87446703D01*
X86148228Y-87446703D01*
G37*
G36*
X83378228Y-87446703D02*
G01*
X83533100Y-87510853D01*
X83672481Y-87603985D01*
X83791015Y-87722519D01*
X83884147Y-87861900D01*
X83948297Y-88016772D01*
X83981000Y-88181184D01*
X83981000Y-88348816D01*
X83948297Y-88513228D01*
X83884147Y-88668100D01*
X83791015Y-88807481D01*
X83672481Y-88926015D01*
X83533100Y-89019147D01*
X83378228Y-89083297D01*
X83213816Y-89116000D01*
X83046184Y-89116000D01*
X82881772Y-89083297D01*
X82726900Y-89019147D01*
X82587519Y-88926015D01*
X82468985Y-88807481D01*
X82375853Y-88668100D01*
X82311703Y-88513228D01*
X82279000Y-88348816D01*
X82279000Y-88181184D01*
X82311703Y-88016772D01*
X82375853Y-87861900D01*
X82468985Y-87722519D01*
X82587519Y-87603985D01*
X82726900Y-87510853D01*
X82881772Y-87446703D01*
X83046184Y-87414000D01*
X83213816Y-87414000D01*
X83378228Y-87446703D01*
X83378228Y-87446703D01*
G37*
G36*
X80608228Y-87446703D02*
G01*
X80763100Y-87510853D01*
X80902481Y-87603985D01*
X81021015Y-87722519D01*
X81114147Y-87861900D01*
X81178297Y-88016772D01*
X81211000Y-88181184D01*
X81211000Y-88348816D01*
X81178297Y-88513228D01*
X81114147Y-88668100D01*
X81021015Y-88807481D01*
X80902481Y-88926015D01*
X80763100Y-89019147D01*
X80608228Y-89083297D01*
X80443816Y-89116000D01*
X80276184Y-89116000D01*
X80111772Y-89083297D01*
X79956900Y-89019147D01*
X79817519Y-88926015D01*
X79698985Y-88807481D01*
X79605853Y-88668100D01*
X79541703Y-88513228D01*
X79509000Y-88348816D01*
X79509000Y-88181184D01*
X79541703Y-88016772D01*
X79605853Y-87861900D01*
X79698985Y-87722519D01*
X79817519Y-87603985D01*
X79956900Y-87510853D01*
X80111772Y-87446703D01*
X80276184Y-87414000D01*
X80443816Y-87414000D01*
X80608228Y-87446703D01*
X80608228Y-87446703D01*
G37*
G36*
X165118228Y-87446703D02*
G01*
X165273100Y-87510853D01*
X165412481Y-87603985D01*
X165531015Y-87722519D01*
X165624147Y-87861900D01*
X165688297Y-88016772D01*
X165721000Y-88181184D01*
X165721000Y-88348816D01*
X165688297Y-88513228D01*
X165624147Y-88668100D01*
X165531015Y-88807481D01*
X165412481Y-88926015D01*
X165273100Y-89019147D01*
X165118228Y-89083297D01*
X164953816Y-89116000D01*
X164786184Y-89116000D01*
X164621772Y-89083297D01*
X164466900Y-89019147D01*
X164327519Y-88926015D01*
X164208985Y-88807481D01*
X164115853Y-88668100D01*
X164051703Y-88513228D01*
X164019000Y-88348816D01*
X164019000Y-88181184D01*
X164051703Y-88016772D01*
X164115853Y-87861900D01*
X164208985Y-87722519D01*
X164327519Y-87603985D01*
X164466900Y-87510853D01*
X164621772Y-87446703D01*
X164786184Y-87414000D01*
X164953816Y-87414000D01*
X165118228Y-87446703D01*
X165118228Y-87446703D01*
G37*
G36*
X168491000Y-89116000D02*
G01*
X166789000Y-89116000D01*
X166789000Y-87414000D01*
X168491000Y-87414000D01*
X168491000Y-89116000D01*
X168491000Y-89116000D01*
G37*
G36*
X200448228Y-87446703D02*
G01*
X200603100Y-87510853D01*
X200742481Y-87603985D01*
X200861015Y-87722519D01*
X200954147Y-87861900D01*
X201018297Y-88016772D01*
X201051000Y-88181184D01*
X201051000Y-88348816D01*
X201018297Y-88513228D01*
X200954147Y-88668100D01*
X200861015Y-88807481D01*
X200742481Y-88926015D01*
X200603100Y-89019147D01*
X200448228Y-89083297D01*
X200283816Y-89116000D01*
X200116184Y-89116000D01*
X199951772Y-89083297D01*
X199796900Y-89019147D01*
X199657519Y-88926015D01*
X199538985Y-88807481D01*
X199445853Y-88668100D01*
X199381703Y-88513228D01*
X199349000Y-88348816D01*
X199349000Y-88181184D01*
X199381703Y-88016772D01*
X199445853Y-87861900D01*
X199538985Y-87722519D01*
X199657519Y-87603985D01*
X199796900Y-87510853D01*
X199951772Y-87446703D01*
X200116184Y-87414000D01*
X200283816Y-87414000D01*
X200448228Y-87446703D01*
X200448228Y-87446703D01*
G37*
G36*
X194908228Y-87446703D02*
G01*
X195063100Y-87510853D01*
X195202481Y-87603985D01*
X195321015Y-87722519D01*
X195414147Y-87861900D01*
X195478297Y-88016772D01*
X195511000Y-88181184D01*
X195511000Y-88348816D01*
X195478297Y-88513228D01*
X195414147Y-88668100D01*
X195321015Y-88807481D01*
X195202481Y-88926015D01*
X195063100Y-89019147D01*
X194908228Y-89083297D01*
X194743816Y-89116000D01*
X194576184Y-89116000D01*
X194411772Y-89083297D01*
X194256900Y-89019147D01*
X194117519Y-88926015D01*
X193998985Y-88807481D01*
X193905853Y-88668100D01*
X193841703Y-88513228D01*
X193809000Y-88348816D01*
X193809000Y-88181184D01*
X193841703Y-88016772D01*
X193905853Y-87861900D01*
X193998985Y-87722519D01*
X194117519Y-87603985D01*
X194256900Y-87510853D01*
X194411772Y-87446703D01*
X194576184Y-87414000D01*
X194743816Y-87414000D01*
X194908228Y-87446703D01*
X194908228Y-87446703D01*
G37*
G36*
X159578228Y-87446703D02*
G01*
X159733100Y-87510853D01*
X159872481Y-87603985D01*
X159991015Y-87722519D01*
X160084147Y-87861900D01*
X160148297Y-88016772D01*
X160181000Y-88181184D01*
X160181000Y-88348816D01*
X160148297Y-88513228D01*
X160084147Y-88668100D01*
X159991015Y-88807481D01*
X159872481Y-88926015D01*
X159733100Y-89019147D01*
X159578228Y-89083297D01*
X159413816Y-89116000D01*
X159246184Y-89116000D01*
X159081772Y-89083297D01*
X158926900Y-89019147D01*
X158787519Y-88926015D01*
X158668985Y-88807481D01*
X158575853Y-88668100D01*
X158511703Y-88513228D01*
X158479000Y-88348816D01*
X158479000Y-88181184D01*
X158511703Y-88016772D01*
X158575853Y-87861900D01*
X158668985Y-87722519D01*
X158787519Y-87603985D01*
X158926900Y-87510853D01*
X159081772Y-87446703D01*
X159246184Y-87414000D01*
X159413816Y-87414000D01*
X159578228Y-87446703D01*
X159578228Y-87446703D01*
G37*
G36*
X92291000Y-89116000D02*
G01*
X90589000Y-89116000D01*
X90589000Y-87414000D01*
X92291000Y-87414000D01*
X92291000Y-89116000D01*
X92291000Y-89116000D01*
G37*
G36*
X175198254Y-84872818D02*
G01*
X175558170Y-85021900D01*
X175571513Y-85027427D01*
X175907436Y-85251884D01*
X176193116Y-85537564D01*
X176283765Y-85673229D01*
X176417574Y-85873489D01*
X176572182Y-86246746D01*
X176651000Y-86642993D01*
X176651000Y-87047007D01*
X176572182Y-87443254D01*
X176456506Y-87722520D01*
X176417573Y-87816513D01*
X176193116Y-88152436D01*
X175907436Y-88438116D01*
X175571513Y-88662573D01*
X175571512Y-88662574D01*
X175571511Y-88662574D01*
X175198254Y-88817182D01*
X174802007Y-88896000D01*
X174397993Y-88896000D01*
X174001746Y-88817182D01*
X173628489Y-88662574D01*
X173628488Y-88662574D01*
X173628487Y-88662573D01*
X173292564Y-88438116D01*
X173006884Y-88152436D01*
X172782427Y-87816513D01*
X172743494Y-87722520D01*
X172627818Y-87443254D01*
X172549000Y-87047007D01*
X172549000Y-86642993D01*
X172627818Y-86246746D01*
X172782426Y-85873489D01*
X172916236Y-85673229D01*
X173006884Y-85537564D01*
X173292564Y-85251884D01*
X173628487Y-85027427D01*
X173641830Y-85021900D01*
X174001746Y-84872818D01*
X174397993Y-84794000D01*
X174802007Y-84794000D01*
X175198254Y-84872818D01*
X175198254Y-84872818D01*
G37*
G36*
X73998254Y-84872818D02*
G01*
X74358170Y-85021900D01*
X74371513Y-85027427D01*
X74707436Y-85251884D01*
X74993116Y-85537564D01*
X75083765Y-85673229D01*
X75217574Y-85873489D01*
X75372182Y-86246746D01*
X75451000Y-86642993D01*
X75451000Y-87047007D01*
X75372182Y-87443254D01*
X75256506Y-87722520D01*
X75217573Y-87816513D01*
X74993116Y-88152436D01*
X74707436Y-88438116D01*
X74371513Y-88662573D01*
X74371512Y-88662574D01*
X74371511Y-88662574D01*
X73998254Y-88817182D01*
X73602007Y-88896000D01*
X73197993Y-88896000D01*
X72801746Y-88817182D01*
X72428489Y-88662574D01*
X72428488Y-88662574D01*
X72428487Y-88662573D01*
X72092564Y-88438116D01*
X71806884Y-88152436D01*
X71582427Y-87816513D01*
X71543494Y-87722520D01*
X71427818Y-87443254D01*
X71349000Y-87047007D01*
X71349000Y-86642993D01*
X71427818Y-86246746D01*
X71582426Y-85873489D01*
X71716236Y-85673229D01*
X71806884Y-85537564D01*
X72092564Y-85251884D01*
X72428487Y-85027427D01*
X72441830Y-85021900D01*
X72801746Y-84872818D01*
X73197993Y-84794000D01*
X73602007Y-84794000D01*
X73998254Y-84872818D01*
X73998254Y-84872818D01*
G37*
G36*
X188298254Y-84872818D02*
G01*
X188658170Y-85021900D01*
X188671513Y-85027427D01*
X189007436Y-85251884D01*
X189293116Y-85537564D01*
X189383765Y-85673229D01*
X189517574Y-85873489D01*
X189672182Y-86246746D01*
X189751000Y-86642993D01*
X189751000Y-87047007D01*
X189672182Y-87443254D01*
X189556506Y-87722520D01*
X189517573Y-87816513D01*
X189293116Y-88152436D01*
X189007436Y-88438116D01*
X188671513Y-88662573D01*
X188671512Y-88662574D01*
X188671511Y-88662574D01*
X188298254Y-88817182D01*
X187902007Y-88896000D01*
X187497993Y-88896000D01*
X187101746Y-88817182D01*
X186728489Y-88662574D01*
X186728488Y-88662574D01*
X186728487Y-88662573D01*
X186392564Y-88438116D01*
X186106884Y-88152436D01*
X185882427Y-87816513D01*
X185843494Y-87722520D01*
X185727818Y-87443254D01*
X185649000Y-87047007D01*
X185649000Y-86642993D01*
X185727818Y-86246746D01*
X185882426Y-85873489D01*
X186016236Y-85673229D01*
X186106884Y-85537564D01*
X186392564Y-85251884D01*
X186728487Y-85027427D01*
X186741830Y-85021900D01*
X187101746Y-84872818D01*
X187497993Y-84794000D01*
X187902007Y-84794000D01*
X188298254Y-84872818D01*
X188298254Y-84872818D01*
G37*
G36*
X213298254Y-84872818D02*
G01*
X213658170Y-85021900D01*
X213671513Y-85027427D01*
X214007436Y-85251884D01*
X214293116Y-85537564D01*
X214383765Y-85673229D01*
X214517574Y-85873489D01*
X214672182Y-86246746D01*
X214751000Y-86642993D01*
X214751000Y-87047007D01*
X214672182Y-87443254D01*
X214556506Y-87722520D01*
X214517573Y-87816513D01*
X214293116Y-88152436D01*
X214007436Y-88438116D01*
X213671513Y-88662573D01*
X213671512Y-88662574D01*
X213671511Y-88662574D01*
X213298254Y-88817182D01*
X212902007Y-88896000D01*
X212497993Y-88896000D01*
X212101746Y-88817182D01*
X211728489Y-88662574D01*
X211728488Y-88662574D01*
X211728487Y-88662573D01*
X211392564Y-88438116D01*
X211106884Y-88152436D01*
X210882427Y-87816513D01*
X210843494Y-87722520D01*
X210727818Y-87443254D01*
X210649000Y-87047007D01*
X210649000Y-86642993D01*
X210727818Y-86246746D01*
X210882426Y-85873489D01*
X211016236Y-85673229D01*
X211106884Y-85537564D01*
X211392564Y-85251884D01*
X211728487Y-85027427D01*
X211741830Y-85021900D01*
X212101746Y-84872818D01*
X212497993Y-84794000D01*
X212902007Y-84794000D01*
X213298254Y-84872818D01*
X213298254Y-84872818D01*
G37*
G36*
X150198254Y-84872818D02*
G01*
X150558170Y-85021900D01*
X150571513Y-85027427D01*
X150907436Y-85251884D01*
X151193116Y-85537564D01*
X151283765Y-85673229D01*
X151417574Y-85873489D01*
X151572182Y-86246746D01*
X151651000Y-86642993D01*
X151651000Y-87047007D01*
X151572182Y-87443254D01*
X151456506Y-87722520D01*
X151417573Y-87816513D01*
X151193116Y-88152436D01*
X150907436Y-88438116D01*
X150571513Y-88662573D01*
X150571512Y-88662574D01*
X150571511Y-88662574D01*
X150198254Y-88817182D01*
X149802007Y-88896000D01*
X149397993Y-88896000D01*
X149001746Y-88817182D01*
X148628489Y-88662574D01*
X148628488Y-88662574D01*
X148628487Y-88662573D01*
X148292564Y-88438116D01*
X148006884Y-88152436D01*
X147782427Y-87816513D01*
X147743494Y-87722520D01*
X147627818Y-87443254D01*
X147549000Y-87047007D01*
X147549000Y-86642993D01*
X147627818Y-86246746D01*
X147782426Y-85873489D01*
X147916236Y-85673229D01*
X148006884Y-85537564D01*
X148292564Y-85251884D01*
X148628487Y-85027427D01*
X148641830Y-85021900D01*
X149001746Y-84872818D01*
X149397993Y-84794000D01*
X149802007Y-84794000D01*
X150198254Y-84872818D01*
X150198254Y-84872818D01*
G37*
G36*
X137098254Y-84872818D02*
G01*
X137458170Y-85021900D01*
X137471513Y-85027427D01*
X137807436Y-85251884D01*
X138093116Y-85537564D01*
X138183765Y-85673229D01*
X138317574Y-85873489D01*
X138472182Y-86246746D01*
X138551000Y-86642993D01*
X138551000Y-87047007D01*
X138472182Y-87443254D01*
X138356506Y-87722520D01*
X138317573Y-87816513D01*
X138093116Y-88152436D01*
X137807436Y-88438116D01*
X137471513Y-88662573D01*
X137471512Y-88662574D01*
X137471511Y-88662574D01*
X137098254Y-88817182D01*
X136702007Y-88896000D01*
X136297993Y-88896000D01*
X135901746Y-88817182D01*
X135528489Y-88662574D01*
X135528488Y-88662574D01*
X135528487Y-88662573D01*
X135192564Y-88438116D01*
X134906884Y-88152436D01*
X134682427Y-87816513D01*
X134643494Y-87722520D01*
X134527818Y-87443254D01*
X134449000Y-87047007D01*
X134449000Y-86642993D01*
X134527818Y-86246746D01*
X134682426Y-85873489D01*
X134816236Y-85673229D01*
X134906884Y-85537564D01*
X135192564Y-85251884D01*
X135528487Y-85027427D01*
X135541830Y-85021900D01*
X135901746Y-84872818D01*
X136297993Y-84794000D01*
X136702007Y-84794000D01*
X137098254Y-84872818D01*
X137098254Y-84872818D01*
G37*
G36*
X112098254Y-84872818D02*
G01*
X112458170Y-85021900D01*
X112471513Y-85027427D01*
X112807436Y-85251884D01*
X113093116Y-85537564D01*
X113183765Y-85673229D01*
X113317574Y-85873489D01*
X113472182Y-86246746D01*
X113551000Y-86642993D01*
X113551000Y-87047007D01*
X113472182Y-87443254D01*
X113356506Y-87722520D01*
X113317573Y-87816513D01*
X113093116Y-88152436D01*
X112807436Y-88438116D01*
X112471513Y-88662573D01*
X112471512Y-88662574D01*
X112471511Y-88662574D01*
X112098254Y-88817182D01*
X111702007Y-88896000D01*
X111297993Y-88896000D01*
X110901746Y-88817182D01*
X110528489Y-88662574D01*
X110528488Y-88662574D01*
X110528487Y-88662573D01*
X110192564Y-88438116D01*
X109906884Y-88152436D01*
X109682427Y-87816513D01*
X109643494Y-87722520D01*
X109527818Y-87443254D01*
X109449000Y-87047007D01*
X109449000Y-86642993D01*
X109527818Y-86246746D01*
X109682426Y-85873489D01*
X109816236Y-85673229D01*
X109906884Y-85537564D01*
X110192564Y-85251884D01*
X110528487Y-85027427D01*
X110541830Y-85021900D01*
X110901746Y-84872818D01*
X111297993Y-84794000D01*
X111702007Y-84794000D01*
X112098254Y-84872818D01*
X112098254Y-84872818D01*
G37*
G36*
X98998254Y-84872818D02*
G01*
X99358170Y-85021900D01*
X99371513Y-85027427D01*
X99707436Y-85251884D01*
X99993116Y-85537564D01*
X100083765Y-85673229D01*
X100217574Y-85873489D01*
X100372182Y-86246746D01*
X100451000Y-86642993D01*
X100451000Y-87047007D01*
X100372182Y-87443254D01*
X100256506Y-87722520D01*
X100217573Y-87816513D01*
X99993116Y-88152436D01*
X99707436Y-88438116D01*
X99371513Y-88662573D01*
X99371512Y-88662574D01*
X99371511Y-88662574D01*
X98998254Y-88817182D01*
X98602007Y-88896000D01*
X98197993Y-88896000D01*
X97801746Y-88817182D01*
X97428489Y-88662574D01*
X97428488Y-88662574D01*
X97428487Y-88662573D01*
X97092564Y-88438116D01*
X96806884Y-88152436D01*
X96582427Y-87816513D01*
X96543494Y-87722520D01*
X96427818Y-87443254D01*
X96349000Y-87047007D01*
X96349000Y-86642993D01*
X96427818Y-86246746D01*
X96582426Y-85873489D01*
X96716236Y-85673229D01*
X96806884Y-85537564D01*
X97092564Y-85251884D01*
X97428487Y-85027427D01*
X97441830Y-85021900D01*
X97801746Y-84872818D01*
X98197993Y-84794000D01*
X98602007Y-84794000D01*
X98998254Y-84872818D01*
X98998254Y-84872818D01*
G37*
G36*
X158193228Y-84606703D02*
G01*
X158348100Y-84670853D01*
X158487481Y-84763985D01*
X158606015Y-84882519D01*
X158699147Y-85021900D01*
X158763297Y-85176772D01*
X158796000Y-85341184D01*
X158796000Y-85508816D01*
X158763297Y-85673228D01*
X158699147Y-85828100D01*
X158606015Y-85967481D01*
X158487481Y-86086015D01*
X158348100Y-86179147D01*
X158193228Y-86243297D01*
X158028816Y-86276000D01*
X157861184Y-86276000D01*
X157696772Y-86243297D01*
X157541900Y-86179147D01*
X157402519Y-86086015D01*
X157283985Y-85967481D01*
X157190853Y-85828100D01*
X157126703Y-85673228D01*
X157094000Y-85508816D01*
X157094000Y-85341184D01*
X157126703Y-85176772D01*
X157190853Y-85021900D01*
X157283985Y-84882519D01*
X157402519Y-84763985D01*
X157541900Y-84670853D01*
X157696772Y-84606703D01*
X157861184Y-84574000D01*
X158028816Y-84574000D01*
X158193228Y-84606703D01*
X158193228Y-84606703D01*
G37*
G36*
X204603228Y-84606703D02*
G01*
X204758100Y-84670853D01*
X204897481Y-84763985D01*
X205016015Y-84882519D01*
X205109147Y-85021900D01*
X205173297Y-85176772D01*
X205206000Y-85341184D01*
X205206000Y-85508816D01*
X205173297Y-85673228D01*
X205109147Y-85828100D01*
X205016015Y-85967481D01*
X204897481Y-86086015D01*
X204758100Y-86179147D01*
X204603228Y-86243297D01*
X204438816Y-86276000D01*
X204271184Y-86276000D01*
X204106772Y-86243297D01*
X203951900Y-86179147D01*
X203812519Y-86086015D01*
X203693985Y-85967481D01*
X203600853Y-85828100D01*
X203536703Y-85673228D01*
X203504000Y-85508816D01*
X203504000Y-85341184D01*
X203536703Y-85176772D01*
X203600853Y-85021900D01*
X203693985Y-84882519D01*
X203812519Y-84763985D01*
X203951900Y-84670853D01*
X204106772Y-84606703D01*
X204271184Y-84574000D01*
X204438816Y-84574000D01*
X204603228Y-84606703D01*
X204603228Y-84606703D01*
G37*
G36*
X201833228Y-84606703D02*
G01*
X201988100Y-84670853D01*
X202127481Y-84763985D01*
X202246015Y-84882519D01*
X202339147Y-85021900D01*
X202403297Y-85176772D01*
X202436000Y-85341184D01*
X202436000Y-85508816D01*
X202403297Y-85673228D01*
X202339147Y-85828100D01*
X202246015Y-85967481D01*
X202127481Y-86086015D01*
X201988100Y-86179147D01*
X201833228Y-86243297D01*
X201668816Y-86276000D01*
X201501184Y-86276000D01*
X201336772Y-86243297D01*
X201181900Y-86179147D01*
X201042519Y-86086015D01*
X200923985Y-85967481D01*
X200830853Y-85828100D01*
X200766703Y-85673228D01*
X200734000Y-85508816D01*
X200734000Y-85341184D01*
X200766703Y-85176772D01*
X200830853Y-85021900D01*
X200923985Y-84882519D01*
X201042519Y-84763985D01*
X201181900Y-84670853D01*
X201336772Y-84606703D01*
X201501184Y-84574000D01*
X201668816Y-84574000D01*
X201833228Y-84606703D01*
X201833228Y-84606703D01*
G37*
G36*
X199063228Y-84606703D02*
G01*
X199218100Y-84670853D01*
X199357481Y-84763985D01*
X199476015Y-84882519D01*
X199569147Y-85021900D01*
X199633297Y-85176772D01*
X199666000Y-85341184D01*
X199666000Y-85508816D01*
X199633297Y-85673228D01*
X199569147Y-85828100D01*
X199476015Y-85967481D01*
X199357481Y-86086015D01*
X199218100Y-86179147D01*
X199063228Y-86243297D01*
X198898816Y-86276000D01*
X198731184Y-86276000D01*
X198566772Y-86243297D01*
X198411900Y-86179147D01*
X198272519Y-86086015D01*
X198153985Y-85967481D01*
X198060853Y-85828100D01*
X197996703Y-85673228D01*
X197964000Y-85508816D01*
X197964000Y-85341184D01*
X197996703Y-85176772D01*
X198060853Y-85021900D01*
X198153985Y-84882519D01*
X198272519Y-84763985D01*
X198411900Y-84670853D01*
X198566772Y-84606703D01*
X198731184Y-84574000D01*
X198898816Y-84574000D01*
X199063228Y-84606703D01*
X199063228Y-84606703D01*
G37*
G36*
X196293228Y-84606703D02*
G01*
X196448100Y-84670853D01*
X196587481Y-84763985D01*
X196706015Y-84882519D01*
X196799147Y-85021900D01*
X196863297Y-85176772D01*
X196896000Y-85341184D01*
X196896000Y-85508816D01*
X196863297Y-85673228D01*
X196799147Y-85828100D01*
X196706015Y-85967481D01*
X196587481Y-86086015D01*
X196448100Y-86179147D01*
X196293228Y-86243297D01*
X196128816Y-86276000D01*
X195961184Y-86276000D01*
X195796772Y-86243297D01*
X195641900Y-86179147D01*
X195502519Y-86086015D01*
X195383985Y-85967481D01*
X195290853Y-85828100D01*
X195226703Y-85673228D01*
X195194000Y-85508816D01*
X195194000Y-85341184D01*
X195226703Y-85176772D01*
X195290853Y-85021900D01*
X195383985Y-84882519D01*
X195502519Y-84763985D01*
X195641900Y-84670853D01*
X195796772Y-84606703D01*
X195961184Y-84574000D01*
X196128816Y-84574000D01*
X196293228Y-84606703D01*
X196293228Y-84606703D01*
G37*
G36*
X90303228Y-84606703D02*
G01*
X90458100Y-84670853D01*
X90597481Y-84763985D01*
X90716015Y-84882519D01*
X90809147Y-85021900D01*
X90873297Y-85176772D01*
X90906000Y-85341184D01*
X90906000Y-85508816D01*
X90873297Y-85673228D01*
X90809147Y-85828100D01*
X90716015Y-85967481D01*
X90597481Y-86086015D01*
X90458100Y-86179147D01*
X90303228Y-86243297D01*
X90138816Y-86276000D01*
X89971184Y-86276000D01*
X89806772Y-86243297D01*
X89651900Y-86179147D01*
X89512519Y-86086015D01*
X89393985Y-85967481D01*
X89300853Y-85828100D01*
X89236703Y-85673228D01*
X89204000Y-85508816D01*
X89204000Y-85341184D01*
X89236703Y-85176772D01*
X89300853Y-85021900D01*
X89393985Y-84882519D01*
X89512519Y-84763985D01*
X89651900Y-84670853D01*
X89806772Y-84606703D01*
X89971184Y-84574000D01*
X90138816Y-84574000D01*
X90303228Y-84606703D01*
X90303228Y-84606703D01*
G37*
G36*
X84763228Y-84606703D02*
G01*
X84918100Y-84670853D01*
X85057481Y-84763985D01*
X85176015Y-84882519D01*
X85269147Y-85021900D01*
X85333297Y-85176772D01*
X85366000Y-85341184D01*
X85366000Y-85508816D01*
X85333297Y-85673228D01*
X85269147Y-85828100D01*
X85176015Y-85967481D01*
X85057481Y-86086015D01*
X84918100Y-86179147D01*
X84763228Y-86243297D01*
X84598816Y-86276000D01*
X84431184Y-86276000D01*
X84266772Y-86243297D01*
X84111900Y-86179147D01*
X83972519Y-86086015D01*
X83853985Y-85967481D01*
X83760853Y-85828100D01*
X83696703Y-85673228D01*
X83664000Y-85508816D01*
X83664000Y-85341184D01*
X83696703Y-85176772D01*
X83760853Y-85021900D01*
X83853985Y-84882519D01*
X83972519Y-84763985D01*
X84111900Y-84670853D01*
X84266772Y-84606703D01*
X84431184Y-84574000D01*
X84598816Y-84574000D01*
X84763228Y-84606703D01*
X84763228Y-84606703D01*
G37*
G36*
X81993228Y-84606703D02*
G01*
X82148100Y-84670853D01*
X82287481Y-84763985D01*
X82406015Y-84882519D01*
X82499147Y-85021900D01*
X82563297Y-85176772D01*
X82596000Y-85341184D01*
X82596000Y-85508816D01*
X82563297Y-85673228D01*
X82499147Y-85828100D01*
X82406015Y-85967481D01*
X82287481Y-86086015D01*
X82148100Y-86179147D01*
X81993228Y-86243297D01*
X81828816Y-86276000D01*
X81661184Y-86276000D01*
X81496772Y-86243297D01*
X81341900Y-86179147D01*
X81202519Y-86086015D01*
X81083985Y-85967481D01*
X80990853Y-85828100D01*
X80926703Y-85673228D01*
X80894000Y-85508816D01*
X80894000Y-85341184D01*
X80926703Y-85176772D01*
X80990853Y-85021900D01*
X81083985Y-84882519D01*
X81202519Y-84763985D01*
X81341900Y-84670853D01*
X81496772Y-84606703D01*
X81661184Y-84574000D01*
X81828816Y-84574000D01*
X81993228Y-84606703D01*
X81993228Y-84606703D01*
G37*
G36*
X120093228Y-84606703D02*
G01*
X120248100Y-84670853D01*
X120387481Y-84763985D01*
X120506015Y-84882519D01*
X120599147Y-85021900D01*
X120663297Y-85176772D01*
X120696000Y-85341184D01*
X120696000Y-85508816D01*
X120663297Y-85673228D01*
X120599147Y-85828100D01*
X120506015Y-85967481D01*
X120387481Y-86086015D01*
X120248100Y-86179147D01*
X120093228Y-86243297D01*
X119928816Y-86276000D01*
X119761184Y-86276000D01*
X119596772Y-86243297D01*
X119441900Y-86179147D01*
X119302519Y-86086015D01*
X119183985Y-85967481D01*
X119090853Y-85828100D01*
X119026703Y-85673228D01*
X118994000Y-85508816D01*
X118994000Y-85341184D01*
X119026703Y-85176772D01*
X119090853Y-85021900D01*
X119183985Y-84882519D01*
X119302519Y-84763985D01*
X119441900Y-84670853D01*
X119596772Y-84606703D01*
X119761184Y-84574000D01*
X119928816Y-84574000D01*
X120093228Y-84606703D01*
X120093228Y-84606703D01*
G37*
G36*
X122863228Y-84606703D02*
G01*
X123018100Y-84670853D01*
X123157481Y-84763985D01*
X123276015Y-84882519D01*
X123369147Y-85021900D01*
X123433297Y-85176772D01*
X123466000Y-85341184D01*
X123466000Y-85508816D01*
X123433297Y-85673228D01*
X123369147Y-85828100D01*
X123276015Y-85967481D01*
X123157481Y-86086015D01*
X123018100Y-86179147D01*
X122863228Y-86243297D01*
X122698816Y-86276000D01*
X122531184Y-86276000D01*
X122366772Y-86243297D01*
X122211900Y-86179147D01*
X122072519Y-86086015D01*
X121953985Y-85967481D01*
X121860853Y-85828100D01*
X121796703Y-85673228D01*
X121764000Y-85508816D01*
X121764000Y-85341184D01*
X121796703Y-85176772D01*
X121860853Y-85021900D01*
X121953985Y-84882519D01*
X122072519Y-84763985D01*
X122211900Y-84670853D01*
X122366772Y-84606703D01*
X122531184Y-84574000D01*
X122698816Y-84574000D01*
X122863228Y-84606703D01*
X122863228Y-84606703D01*
G37*
G36*
X125633228Y-84606703D02*
G01*
X125788100Y-84670853D01*
X125927481Y-84763985D01*
X126046015Y-84882519D01*
X126139147Y-85021900D01*
X126203297Y-85176772D01*
X126236000Y-85341184D01*
X126236000Y-85508816D01*
X126203297Y-85673228D01*
X126139147Y-85828100D01*
X126046015Y-85967481D01*
X125927481Y-86086015D01*
X125788100Y-86179147D01*
X125633228Y-86243297D01*
X125468816Y-86276000D01*
X125301184Y-86276000D01*
X125136772Y-86243297D01*
X124981900Y-86179147D01*
X124842519Y-86086015D01*
X124723985Y-85967481D01*
X124630853Y-85828100D01*
X124566703Y-85673228D01*
X124534000Y-85508816D01*
X124534000Y-85341184D01*
X124566703Y-85176772D01*
X124630853Y-85021900D01*
X124723985Y-84882519D01*
X124842519Y-84763985D01*
X124981900Y-84670853D01*
X125136772Y-84606703D01*
X125301184Y-84574000D01*
X125468816Y-84574000D01*
X125633228Y-84606703D01*
X125633228Y-84606703D01*
G37*
G36*
X128403228Y-84606703D02*
G01*
X128558100Y-84670853D01*
X128697481Y-84763985D01*
X128816015Y-84882519D01*
X128909147Y-85021900D01*
X128973297Y-85176772D01*
X129006000Y-85341184D01*
X129006000Y-85508816D01*
X128973297Y-85673228D01*
X128909147Y-85828100D01*
X128816015Y-85967481D01*
X128697481Y-86086015D01*
X128558100Y-86179147D01*
X128403228Y-86243297D01*
X128238816Y-86276000D01*
X128071184Y-86276000D01*
X127906772Y-86243297D01*
X127751900Y-86179147D01*
X127612519Y-86086015D01*
X127493985Y-85967481D01*
X127400853Y-85828100D01*
X127336703Y-85673228D01*
X127304000Y-85508816D01*
X127304000Y-85341184D01*
X127336703Y-85176772D01*
X127400853Y-85021900D01*
X127493985Y-84882519D01*
X127612519Y-84763985D01*
X127751900Y-84670853D01*
X127906772Y-84606703D01*
X128071184Y-84574000D01*
X128238816Y-84574000D01*
X128403228Y-84606703D01*
X128403228Y-84606703D01*
G37*
G36*
X166503228Y-84606703D02*
G01*
X166658100Y-84670853D01*
X166797481Y-84763985D01*
X166916015Y-84882519D01*
X167009147Y-85021900D01*
X167073297Y-85176772D01*
X167106000Y-85341184D01*
X167106000Y-85508816D01*
X167073297Y-85673228D01*
X167009147Y-85828100D01*
X166916015Y-85967481D01*
X166797481Y-86086015D01*
X166658100Y-86179147D01*
X166503228Y-86243297D01*
X166338816Y-86276000D01*
X166171184Y-86276000D01*
X166006772Y-86243297D01*
X165851900Y-86179147D01*
X165712519Y-86086015D01*
X165593985Y-85967481D01*
X165500853Y-85828100D01*
X165436703Y-85673228D01*
X165404000Y-85508816D01*
X165404000Y-85341184D01*
X165436703Y-85176772D01*
X165500853Y-85021900D01*
X165593985Y-84882519D01*
X165712519Y-84763985D01*
X165851900Y-84670853D01*
X166006772Y-84606703D01*
X166171184Y-84574000D01*
X166338816Y-84574000D01*
X166503228Y-84606703D01*
X166503228Y-84606703D01*
G37*
G36*
X163733228Y-84606703D02*
G01*
X163888100Y-84670853D01*
X164027481Y-84763985D01*
X164146015Y-84882519D01*
X164239147Y-85021900D01*
X164303297Y-85176772D01*
X164336000Y-85341184D01*
X164336000Y-85508816D01*
X164303297Y-85673228D01*
X164239147Y-85828100D01*
X164146015Y-85967481D01*
X164027481Y-86086015D01*
X163888100Y-86179147D01*
X163733228Y-86243297D01*
X163568816Y-86276000D01*
X163401184Y-86276000D01*
X163236772Y-86243297D01*
X163081900Y-86179147D01*
X162942519Y-86086015D01*
X162823985Y-85967481D01*
X162730853Y-85828100D01*
X162666703Y-85673228D01*
X162634000Y-85508816D01*
X162634000Y-85341184D01*
X162666703Y-85176772D01*
X162730853Y-85021900D01*
X162823985Y-84882519D01*
X162942519Y-84763985D01*
X163081900Y-84670853D01*
X163236772Y-84606703D01*
X163401184Y-84574000D01*
X163568816Y-84574000D01*
X163733228Y-84606703D01*
X163733228Y-84606703D01*
G37*
G36*
X160963228Y-84606703D02*
G01*
X161118100Y-84670853D01*
X161257481Y-84763985D01*
X161376015Y-84882519D01*
X161469147Y-85021900D01*
X161533297Y-85176772D01*
X161566000Y-85341184D01*
X161566000Y-85508816D01*
X161533297Y-85673228D01*
X161469147Y-85828100D01*
X161376015Y-85967481D01*
X161257481Y-86086015D01*
X161118100Y-86179147D01*
X160963228Y-86243297D01*
X160798816Y-86276000D01*
X160631184Y-86276000D01*
X160466772Y-86243297D01*
X160311900Y-86179147D01*
X160172519Y-86086015D01*
X160053985Y-85967481D01*
X159960853Y-85828100D01*
X159896703Y-85673228D01*
X159864000Y-85508816D01*
X159864000Y-85341184D01*
X159896703Y-85176772D01*
X159960853Y-85021900D01*
X160053985Y-84882519D01*
X160172519Y-84763985D01*
X160311900Y-84670853D01*
X160466772Y-84606703D01*
X160631184Y-84574000D01*
X160798816Y-84574000D01*
X160963228Y-84606703D01*
X160963228Y-84606703D01*
G37*
G36*
X87533228Y-84606703D02*
G01*
X87688100Y-84670853D01*
X87827481Y-84763985D01*
X87946015Y-84882519D01*
X88039147Y-85021900D01*
X88103297Y-85176772D01*
X88136000Y-85341184D01*
X88136000Y-85508816D01*
X88103297Y-85673228D01*
X88039147Y-85828100D01*
X87946015Y-85967481D01*
X87827481Y-86086015D01*
X87688100Y-86179147D01*
X87533228Y-86243297D01*
X87368816Y-86276000D01*
X87201184Y-86276000D01*
X87036772Y-86243297D01*
X86881900Y-86179147D01*
X86742519Y-86086015D01*
X86623985Y-85967481D01*
X86530853Y-85828100D01*
X86466703Y-85673228D01*
X86434000Y-85508816D01*
X86434000Y-85341184D01*
X86466703Y-85176772D01*
X86530853Y-85021900D01*
X86623985Y-84882519D01*
X86742519Y-84763985D01*
X86881900Y-84670853D01*
X87036772Y-84606703D01*
X87201184Y-84574000D01*
X87368816Y-84574000D01*
X87533228Y-84606703D01*
X87533228Y-84606703D01*
G37*
G36*
X166503228Y-54726703D02*
G01*
X166658100Y-54790853D01*
X166797481Y-54883985D01*
X166916015Y-55002519D01*
X167009147Y-55141900D01*
X167073297Y-55296772D01*
X167106000Y-55461184D01*
X167106000Y-55628816D01*
X167073297Y-55793228D01*
X167009147Y-55948100D01*
X166916015Y-56087481D01*
X166797481Y-56206015D01*
X166658100Y-56299147D01*
X166503228Y-56363297D01*
X166338816Y-56396000D01*
X166171184Y-56396000D01*
X166006772Y-56363297D01*
X165851900Y-56299147D01*
X165712519Y-56206015D01*
X165593985Y-56087481D01*
X165500853Y-55948100D01*
X165436703Y-55793228D01*
X165404000Y-55628816D01*
X165404000Y-55461184D01*
X165436703Y-55296772D01*
X165500853Y-55141900D01*
X165593985Y-55002519D01*
X165712519Y-54883985D01*
X165851900Y-54790853D01*
X166006772Y-54726703D01*
X166171184Y-54694000D01*
X166338816Y-54694000D01*
X166503228Y-54726703D01*
X166503228Y-54726703D01*
G37*
G36*
X163733228Y-54726703D02*
G01*
X163888100Y-54790853D01*
X164027481Y-54883985D01*
X164146015Y-55002519D01*
X164239147Y-55141900D01*
X164303297Y-55296772D01*
X164336000Y-55461184D01*
X164336000Y-55628816D01*
X164303297Y-55793228D01*
X164239147Y-55948100D01*
X164146015Y-56087481D01*
X164027481Y-56206015D01*
X163888100Y-56299147D01*
X163733228Y-56363297D01*
X163568816Y-56396000D01*
X163401184Y-56396000D01*
X163236772Y-56363297D01*
X163081900Y-56299147D01*
X162942519Y-56206015D01*
X162823985Y-56087481D01*
X162730853Y-55948100D01*
X162666703Y-55793228D01*
X162634000Y-55628816D01*
X162634000Y-55461184D01*
X162666703Y-55296772D01*
X162730853Y-55141900D01*
X162823985Y-55002519D01*
X162942519Y-54883985D01*
X163081900Y-54790853D01*
X163236772Y-54726703D01*
X163401184Y-54694000D01*
X163568816Y-54694000D01*
X163733228Y-54726703D01*
X163733228Y-54726703D01*
G37*
G36*
X160963228Y-54726703D02*
G01*
X161118100Y-54790853D01*
X161257481Y-54883985D01*
X161376015Y-55002519D01*
X161469147Y-55141900D01*
X161533297Y-55296772D01*
X161566000Y-55461184D01*
X161566000Y-55628816D01*
X161533297Y-55793228D01*
X161469147Y-55948100D01*
X161376015Y-56087481D01*
X161257481Y-56206015D01*
X161118100Y-56299147D01*
X160963228Y-56363297D01*
X160798816Y-56396000D01*
X160631184Y-56396000D01*
X160466772Y-56363297D01*
X160311900Y-56299147D01*
X160172519Y-56206015D01*
X160053985Y-56087481D01*
X159960853Y-55948100D01*
X159896703Y-55793228D01*
X159864000Y-55628816D01*
X159864000Y-55461184D01*
X159896703Y-55296772D01*
X159960853Y-55141900D01*
X160053985Y-55002519D01*
X160172519Y-54883985D01*
X160311900Y-54790853D01*
X160466772Y-54726703D01*
X160631184Y-54694000D01*
X160798816Y-54694000D01*
X160963228Y-54726703D01*
X160963228Y-54726703D01*
G37*
G36*
X158193228Y-54726703D02*
G01*
X158348100Y-54790853D01*
X158487481Y-54883985D01*
X158606015Y-55002519D01*
X158699147Y-55141900D01*
X158763297Y-55296772D01*
X158796000Y-55461184D01*
X158796000Y-55628816D01*
X158763297Y-55793228D01*
X158699147Y-55948100D01*
X158606015Y-56087481D01*
X158487481Y-56206015D01*
X158348100Y-56299147D01*
X158193228Y-56363297D01*
X158028816Y-56396000D01*
X157861184Y-56396000D01*
X157696772Y-56363297D01*
X157541900Y-56299147D01*
X157402519Y-56206015D01*
X157283985Y-56087481D01*
X157190853Y-55948100D01*
X157126703Y-55793228D01*
X157094000Y-55628816D01*
X157094000Y-55461184D01*
X157126703Y-55296772D01*
X157190853Y-55141900D01*
X157283985Y-55002519D01*
X157402519Y-54883985D01*
X157541900Y-54790853D01*
X157696772Y-54726703D01*
X157861184Y-54694000D01*
X158028816Y-54694000D01*
X158193228Y-54726703D01*
X158193228Y-54726703D01*
G37*
G36*
X125633228Y-54726703D02*
G01*
X125788100Y-54790853D01*
X125927481Y-54883985D01*
X126046015Y-55002519D01*
X126139147Y-55141900D01*
X126203297Y-55296772D01*
X126236000Y-55461184D01*
X126236000Y-55628816D01*
X126203297Y-55793228D01*
X126139147Y-55948100D01*
X126046015Y-56087481D01*
X125927481Y-56206015D01*
X125788100Y-56299147D01*
X125633228Y-56363297D01*
X125468816Y-56396000D01*
X125301184Y-56396000D01*
X125136772Y-56363297D01*
X124981900Y-56299147D01*
X124842519Y-56206015D01*
X124723985Y-56087481D01*
X124630853Y-55948100D01*
X124566703Y-55793228D01*
X124534000Y-55628816D01*
X124534000Y-55461184D01*
X124566703Y-55296772D01*
X124630853Y-55141900D01*
X124723985Y-55002519D01*
X124842519Y-54883985D01*
X124981900Y-54790853D01*
X125136772Y-54726703D01*
X125301184Y-54694000D01*
X125468816Y-54694000D01*
X125633228Y-54726703D01*
X125633228Y-54726703D01*
G37*
G36*
X128403228Y-54726703D02*
G01*
X128558100Y-54790853D01*
X128697481Y-54883985D01*
X128816015Y-55002519D01*
X128909147Y-55141900D01*
X128973297Y-55296772D01*
X129006000Y-55461184D01*
X129006000Y-55628816D01*
X128973297Y-55793228D01*
X128909147Y-55948100D01*
X128816015Y-56087481D01*
X128697481Y-56206015D01*
X128558100Y-56299147D01*
X128403228Y-56363297D01*
X128238816Y-56396000D01*
X128071184Y-56396000D01*
X127906772Y-56363297D01*
X127751900Y-56299147D01*
X127612519Y-56206015D01*
X127493985Y-56087481D01*
X127400853Y-55948100D01*
X127336703Y-55793228D01*
X127304000Y-55628816D01*
X127304000Y-55461184D01*
X127336703Y-55296772D01*
X127400853Y-55141900D01*
X127493985Y-55002519D01*
X127612519Y-54883985D01*
X127751900Y-54790853D01*
X127906772Y-54726703D01*
X128071184Y-54694000D01*
X128238816Y-54694000D01*
X128403228Y-54726703D01*
X128403228Y-54726703D01*
G37*
G36*
X120093228Y-54726703D02*
G01*
X120248100Y-54790853D01*
X120387481Y-54883985D01*
X120506015Y-55002519D01*
X120599147Y-55141900D01*
X120663297Y-55296772D01*
X120696000Y-55461184D01*
X120696000Y-55628816D01*
X120663297Y-55793228D01*
X120599147Y-55948100D01*
X120506015Y-56087481D01*
X120387481Y-56206015D01*
X120248100Y-56299147D01*
X120093228Y-56363297D01*
X119928816Y-56396000D01*
X119761184Y-56396000D01*
X119596772Y-56363297D01*
X119441900Y-56299147D01*
X119302519Y-56206015D01*
X119183985Y-56087481D01*
X119090853Y-55948100D01*
X119026703Y-55793228D01*
X118994000Y-55628816D01*
X118994000Y-55461184D01*
X119026703Y-55296772D01*
X119090853Y-55141900D01*
X119183985Y-55002519D01*
X119302519Y-54883985D01*
X119441900Y-54790853D01*
X119596772Y-54726703D01*
X119761184Y-54694000D01*
X119928816Y-54694000D01*
X120093228Y-54726703D01*
X120093228Y-54726703D01*
G37*
G36*
X122863228Y-54726703D02*
G01*
X123018100Y-54790853D01*
X123157481Y-54883985D01*
X123276015Y-55002519D01*
X123369147Y-55141900D01*
X123433297Y-55296772D01*
X123466000Y-55461184D01*
X123466000Y-55628816D01*
X123433297Y-55793228D01*
X123369147Y-55948100D01*
X123276015Y-56087481D01*
X123157481Y-56206015D01*
X123018100Y-56299147D01*
X122863228Y-56363297D01*
X122698816Y-56396000D01*
X122531184Y-56396000D01*
X122366772Y-56363297D01*
X122211900Y-56299147D01*
X122072519Y-56206015D01*
X121953985Y-56087481D01*
X121860853Y-55948100D01*
X121796703Y-55793228D01*
X121764000Y-55628816D01*
X121764000Y-55461184D01*
X121796703Y-55296772D01*
X121860853Y-55141900D01*
X121953985Y-55002519D01*
X122072519Y-54883985D01*
X122211900Y-54790853D01*
X122366772Y-54726703D01*
X122531184Y-54694000D01*
X122698816Y-54694000D01*
X122863228Y-54726703D01*
X122863228Y-54726703D01*
G37*
G36*
X112098254Y-52152818D02*
G01*
X112458170Y-52301900D01*
X112471513Y-52307427D01*
X112807436Y-52531884D01*
X113093116Y-52817564D01*
X113183765Y-52953229D01*
X113317574Y-53153489D01*
X113472182Y-53526746D01*
X113551000Y-53922993D01*
X113551000Y-54327007D01*
X113472182Y-54723254D01*
X113356506Y-55002520D01*
X113317573Y-55096513D01*
X113093116Y-55432436D01*
X112807436Y-55718116D01*
X112471513Y-55942573D01*
X112471512Y-55942574D01*
X112471511Y-55942574D01*
X112098254Y-56097182D01*
X111702007Y-56176000D01*
X111297993Y-56176000D01*
X110901746Y-56097182D01*
X110528489Y-55942574D01*
X110528488Y-55942574D01*
X110528487Y-55942573D01*
X110192564Y-55718116D01*
X109906884Y-55432436D01*
X109682427Y-55096513D01*
X109643494Y-55002520D01*
X109527818Y-54723254D01*
X109449000Y-54327007D01*
X109449000Y-53922993D01*
X109527818Y-53526746D01*
X109682426Y-53153489D01*
X109816236Y-52953229D01*
X109906884Y-52817564D01*
X110192564Y-52531884D01*
X110528487Y-52307427D01*
X110541830Y-52301900D01*
X110901746Y-52152818D01*
X111297993Y-52074000D01*
X111702007Y-52074000D01*
X112098254Y-52152818D01*
X112098254Y-52152818D01*
G37*
G36*
X175198254Y-52152818D02*
G01*
X175558170Y-52301900D01*
X175571513Y-52307427D01*
X175907436Y-52531884D01*
X176193116Y-52817564D01*
X176283765Y-52953229D01*
X176417574Y-53153489D01*
X176572182Y-53526746D01*
X176651000Y-53922993D01*
X176651000Y-54327007D01*
X176572182Y-54723254D01*
X176456506Y-55002520D01*
X176417573Y-55096513D01*
X176193116Y-55432436D01*
X175907436Y-55718116D01*
X175571513Y-55942573D01*
X175571512Y-55942574D01*
X175571511Y-55942574D01*
X175198254Y-56097182D01*
X174802007Y-56176000D01*
X174397993Y-56176000D01*
X174001746Y-56097182D01*
X173628489Y-55942574D01*
X173628488Y-55942574D01*
X173628487Y-55942573D01*
X173292564Y-55718116D01*
X173006884Y-55432436D01*
X172782427Y-55096513D01*
X172743494Y-55002520D01*
X172627818Y-54723254D01*
X172549000Y-54327007D01*
X172549000Y-53922993D01*
X172627818Y-53526746D01*
X172782426Y-53153489D01*
X172916236Y-52953229D01*
X173006884Y-52817564D01*
X173292564Y-52531884D01*
X173628487Y-52307427D01*
X173641830Y-52301900D01*
X174001746Y-52152818D01*
X174397993Y-52074000D01*
X174802007Y-52074000D01*
X175198254Y-52152818D01*
X175198254Y-52152818D01*
G37*
G36*
X150198254Y-52152818D02*
G01*
X150558170Y-52301900D01*
X150571513Y-52307427D01*
X150907436Y-52531884D01*
X151193116Y-52817564D01*
X151283765Y-52953229D01*
X151417574Y-53153489D01*
X151572182Y-53526746D01*
X151651000Y-53922993D01*
X151651000Y-54327007D01*
X151572182Y-54723254D01*
X151456506Y-55002520D01*
X151417573Y-55096513D01*
X151193116Y-55432436D01*
X150907436Y-55718116D01*
X150571513Y-55942573D01*
X150571512Y-55942574D01*
X150571511Y-55942574D01*
X150198254Y-56097182D01*
X149802007Y-56176000D01*
X149397993Y-56176000D01*
X149001746Y-56097182D01*
X148628489Y-55942574D01*
X148628488Y-55942574D01*
X148628487Y-55942573D01*
X148292564Y-55718116D01*
X148006884Y-55432436D01*
X147782427Y-55096513D01*
X147743494Y-55002520D01*
X147627818Y-54723254D01*
X147549000Y-54327007D01*
X147549000Y-53922993D01*
X147627818Y-53526746D01*
X147782426Y-53153489D01*
X147916236Y-52953229D01*
X148006884Y-52817564D01*
X148292564Y-52531884D01*
X148628487Y-52307427D01*
X148641830Y-52301900D01*
X149001746Y-52152818D01*
X149397993Y-52074000D01*
X149802007Y-52074000D01*
X150198254Y-52152818D01*
X150198254Y-52152818D01*
G37*
G36*
X137098254Y-52152818D02*
G01*
X137458170Y-52301900D01*
X137471513Y-52307427D01*
X137807436Y-52531884D01*
X138093116Y-52817564D01*
X138183765Y-52953229D01*
X138317574Y-53153489D01*
X138472182Y-53526746D01*
X138551000Y-53922993D01*
X138551000Y-54327007D01*
X138472182Y-54723254D01*
X138356506Y-55002520D01*
X138317573Y-55096513D01*
X138093116Y-55432436D01*
X137807436Y-55718116D01*
X137471513Y-55942573D01*
X137471512Y-55942574D01*
X137471511Y-55942574D01*
X137098254Y-56097182D01*
X136702007Y-56176000D01*
X136297993Y-56176000D01*
X135901746Y-56097182D01*
X135528489Y-55942574D01*
X135528488Y-55942574D01*
X135528487Y-55942573D01*
X135192564Y-55718116D01*
X134906884Y-55432436D01*
X134682427Y-55096513D01*
X134643494Y-55002520D01*
X134527818Y-54723254D01*
X134449000Y-54327007D01*
X134449000Y-53922993D01*
X134527818Y-53526746D01*
X134682426Y-53153489D01*
X134816236Y-52953229D01*
X134906884Y-52817564D01*
X135192564Y-52531884D01*
X135528487Y-52307427D01*
X135541830Y-52301900D01*
X135901746Y-52152818D01*
X136297993Y-52074000D01*
X136702007Y-52074000D01*
X137098254Y-52152818D01*
X137098254Y-52152818D01*
G37*
G36*
X159578228Y-51886703D02*
G01*
X159733100Y-51950853D01*
X159872481Y-52043985D01*
X159991015Y-52162519D01*
X160084147Y-52301900D01*
X160148297Y-52456772D01*
X160181000Y-52621184D01*
X160181000Y-52788816D01*
X160148297Y-52953228D01*
X160084147Y-53108100D01*
X159991015Y-53247481D01*
X159872481Y-53366015D01*
X159733100Y-53459147D01*
X159578228Y-53523297D01*
X159413816Y-53556000D01*
X159246184Y-53556000D01*
X159081772Y-53523297D01*
X158926900Y-53459147D01*
X158787519Y-53366015D01*
X158668985Y-53247481D01*
X158575853Y-53108100D01*
X158511703Y-52953228D01*
X158479000Y-52788816D01*
X158479000Y-52621184D01*
X158511703Y-52456772D01*
X158575853Y-52301900D01*
X158668985Y-52162519D01*
X158787519Y-52043985D01*
X158926900Y-51950853D01*
X159081772Y-51886703D01*
X159246184Y-51854000D01*
X159413816Y-51854000D01*
X159578228Y-51886703D01*
X159578228Y-51886703D01*
G37*
G36*
X127018228Y-51886703D02*
G01*
X127173100Y-51950853D01*
X127312481Y-52043985D01*
X127431015Y-52162519D01*
X127524147Y-52301900D01*
X127588297Y-52456772D01*
X127621000Y-52621184D01*
X127621000Y-52788816D01*
X127588297Y-52953228D01*
X127524147Y-53108100D01*
X127431015Y-53247481D01*
X127312481Y-53366015D01*
X127173100Y-53459147D01*
X127018228Y-53523297D01*
X126853816Y-53556000D01*
X126686184Y-53556000D01*
X126521772Y-53523297D01*
X126366900Y-53459147D01*
X126227519Y-53366015D01*
X126108985Y-53247481D01*
X126015853Y-53108100D01*
X125951703Y-52953228D01*
X125919000Y-52788816D01*
X125919000Y-52621184D01*
X125951703Y-52456772D01*
X126015853Y-52301900D01*
X126108985Y-52162519D01*
X126227519Y-52043985D01*
X126366900Y-51950853D01*
X126521772Y-51886703D01*
X126686184Y-51854000D01*
X126853816Y-51854000D01*
X127018228Y-51886703D01*
X127018228Y-51886703D01*
G37*
G36*
X124248228Y-51886703D02*
G01*
X124403100Y-51950853D01*
X124542481Y-52043985D01*
X124661015Y-52162519D01*
X124754147Y-52301900D01*
X124818297Y-52456772D01*
X124851000Y-52621184D01*
X124851000Y-52788816D01*
X124818297Y-52953228D01*
X124754147Y-53108100D01*
X124661015Y-53247481D01*
X124542481Y-53366015D01*
X124403100Y-53459147D01*
X124248228Y-53523297D01*
X124083816Y-53556000D01*
X123916184Y-53556000D01*
X123751772Y-53523297D01*
X123596900Y-53459147D01*
X123457519Y-53366015D01*
X123338985Y-53247481D01*
X123245853Y-53108100D01*
X123181703Y-52953228D01*
X123149000Y-52788816D01*
X123149000Y-52621184D01*
X123181703Y-52456772D01*
X123245853Y-52301900D01*
X123338985Y-52162519D01*
X123457519Y-52043985D01*
X123596900Y-51950853D01*
X123751772Y-51886703D01*
X123916184Y-51854000D01*
X124083816Y-51854000D01*
X124248228Y-51886703D01*
X124248228Y-51886703D01*
G37*
G36*
X121478228Y-51886703D02*
G01*
X121633100Y-51950853D01*
X121772481Y-52043985D01*
X121891015Y-52162519D01*
X121984147Y-52301900D01*
X122048297Y-52456772D01*
X122081000Y-52621184D01*
X122081000Y-52788816D01*
X122048297Y-52953228D01*
X121984147Y-53108100D01*
X121891015Y-53247481D01*
X121772481Y-53366015D01*
X121633100Y-53459147D01*
X121478228Y-53523297D01*
X121313816Y-53556000D01*
X121146184Y-53556000D01*
X120981772Y-53523297D01*
X120826900Y-53459147D01*
X120687519Y-53366015D01*
X120568985Y-53247481D01*
X120475853Y-53108100D01*
X120411703Y-52953228D01*
X120379000Y-52788816D01*
X120379000Y-52621184D01*
X120411703Y-52456772D01*
X120475853Y-52301900D01*
X120568985Y-52162519D01*
X120687519Y-52043985D01*
X120826900Y-51950853D01*
X120981772Y-51886703D01*
X121146184Y-51854000D01*
X121313816Y-51854000D01*
X121478228Y-51886703D01*
X121478228Y-51886703D01*
G37*
G36*
X118708228Y-51886703D02*
G01*
X118863100Y-51950853D01*
X119002481Y-52043985D01*
X119121015Y-52162519D01*
X119214147Y-52301900D01*
X119278297Y-52456772D01*
X119311000Y-52621184D01*
X119311000Y-52788816D01*
X119278297Y-52953228D01*
X119214147Y-53108100D01*
X119121015Y-53247481D01*
X119002481Y-53366015D01*
X118863100Y-53459147D01*
X118708228Y-53523297D01*
X118543816Y-53556000D01*
X118376184Y-53556000D01*
X118211772Y-53523297D01*
X118056900Y-53459147D01*
X117917519Y-53366015D01*
X117798985Y-53247481D01*
X117705853Y-53108100D01*
X117641703Y-52953228D01*
X117609000Y-52788816D01*
X117609000Y-52621184D01*
X117641703Y-52456772D01*
X117705853Y-52301900D01*
X117798985Y-52162519D01*
X117917519Y-52043985D01*
X118056900Y-51950853D01*
X118211772Y-51886703D01*
X118376184Y-51854000D01*
X118543816Y-51854000D01*
X118708228Y-51886703D01*
X118708228Y-51886703D01*
G37*
G36*
X156808228Y-51886703D02*
G01*
X156963100Y-51950853D01*
X157102481Y-52043985D01*
X157221015Y-52162519D01*
X157314147Y-52301900D01*
X157378297Y-52456772D01*
X157411000Y-52621184D01*
X157411000Y-52788816D01*
X157378297Y-52953228D01*
X157314147Y-53108100D01*
X157221015Y-53247481D01*
X157102481Y-53366015D01*
X156963100Y-53459147D01*
X156808228Y-53523297D01*
X156643816Y-53556000D01*
X156476184Y-53556000D01*
X156311772Y-53523297D01*
X156156900Y-53459147D01*
X156017519Y-53366015D01*
X155898985Y-53247481D01*
X155805853Y-53108100D01*
X155741703Y-52953228D01*
X155709000Y-52788816D01*
X155709000Y-52621184D01*
X155741703Y-52456772D01*
X155805853Y-52301900D01*
X155898985Y-52162519D01*
X156017519Y-52043985D01*
X156156900Y-51950853D01*
X156311772Y-51886703D01*
X156476184Y-51854000D01*
X156643816Y-51854000D01*
X156808228Y-51886703D01*
X156808228Y-51886703D01*
G37*
G36*
X162348228Y-51886703D02*
G01*
X162503100Y-51950853D01*
X162642481Y-52043985D01*
X162761015Y-52162519D01*
X162854147Y-52301900D01*
X162918297Y-52456772D01*
X162951000Y-52621184D01*
X162951000Y-52788816D01*
X162918297Y-52953228D01*
X162854147Y-53108100D01*
X162761015Y-53247481D01*
X162642481Y-53366015D01*
X162503100Y-53459147D01*
X162348228Y-53523297D01*
X162183816Y-53556000D01*
X162016184Y-53556000D01*
X161851772Y-53523297D01*
X161696900Y-53459147D01*
X161557519Y-53366015D01*
X161438985Y-53247481D01*
X161345853Y-53108100D01*
X161281703Y-52953228D01*
X161249000Y-52788816D01*
X161249000Y-52621184D01*
X161281703Y-52456772D01*
X161345853Y-52301900D01*
X161438985Y-52162519D01*
X161557519Y-52043985D01*
X161696900Y-51950853D01*
X161851772Y-51886703D01*
X162016184Y-51854000D01*
X162183816Y-51854000D01*
X162348228Y-51886703D01*
X162348228Y-51886703D01*
G37*
G36*
X165118228Y-51886703D02*
G01*
X165273100Y-51950853D01*
X165412481Y-52043985D01*
X165531015Y-52162519D01*
X165624147Y-52301900D01*
X165688297Y-52456772D01*
X165721000Y-52621184D01*
X165721000Y-52788816D01*
X165688297Y-52953228D01*
X165624147Y-53108100D01*
X165531015Y-53247481D01*
X165412481Y-53366015D01*
X165273100Y-53459147D01*
X165118228Y-53523297D01*
X164953816Y-53556000D01*
X164786184Y-53556000D01*
X164621772Y-53523297D01*
X164466900Y-53459147D01*
X164327519Y-53366015D01*
X164208985Y-53247481D01*
X164115853Y-53108100D01*
X164051703Y-52953228D01*
X164019000Y-52788816D01*
X164019000Y-52621184D01*
X164051703Y-52456772D01*
X164115853Y-52301900D01*
X164208985Y-52162519D01*
X164327519Y-52043985D01*
X164466900Y-51950853D01*
X164621772Y-51886703D01*
X164786184Y-51854000D01*
X164953816Y-51854000D01*
X165118228Y-51886703D01*
X165118228Y-51886703D01*
G37*
G36*
X168491000Y-53556000D02*
G01*
X166789000Y-53556000D01*
X166789000Y-51854000D01*
X168491000Y-51854000D01*
X168491000Y-53556000D01*
X168491000Y-53556000D01*
G37*
G36*
X130391000Y-53556000D02*
G01*
X128689000Y-53556000D01*
X128689000Y-51854000D01*
X130391000Y-51854000D01*
X130391000Y-53556000D01*
X130391000Y-53556000D01*
G37*
G36*
X166503228Y-38851703D02*
G01*
X166658100Y-38915853D01*
X166797481Y-39008985D01*
X166916015Y-39127519D01*
X167009147Y-39266900D01*
X167073297Y-39421772D01*
X167106000Y-39586184D01*
X167106000Y-39753816D01*
X167073297Y-39918228D01*
X167009147Y-40073100D01*
X166916015Y-40212481D01*
X166797481Y-40331015D01*
X166658100Y-40424147D01*
X166503228Y-40488297D01*
X166338816Y-40521000D01*
X166171184Y-40521000D01*
X166006772Y-40488297D01*
X165851900Y-40424147D01*
X165712519Y-40331015D01*
X165593985Y-40212481D01*
X165500853Y-40073100D01*
X165436703Y-39918228D01*
X165404000Y-39753816D01*
X165404000Y-39586184D01*
X165436703Y-39421772D01*
X165500853Y-39266900D01*
X165593985Y-39127519D01*
X165712519Y-39008985D01*
X165851900Y-38915853D01*
X166006772Y-38851703D01*
X166171184Y-38819000D01*
X166338816Y-38819000D01*
X166503228Y-38851703D01*
X166503228Y-38851703D01*
G37*
G36*
X158193228Y-38851703D02*
G01*
X158348100Y-38915853D01*
X158487481Y-39008985D01*
X158606015Y-39127519D01*
X158699147Y-39266900D01*
X158763297Y-39421772D01*
X158796000Y-39586184D01*
X158796000Y-39753816D01*
X158763297Y-39918228D01*
X158699147Y-40073100D01*
X158606015Y-40212481D01*
X158487481Y-40331015D01*
X158348100Y-40424147D01*
X158193228Y-40488297D01*
X158028816Y-40521000D01*
X157861184Y-40521000D01*
X157696772Y-40488297D01*
X157541900Y-40424147D01*
X157402519Y-40331015D01*
X157283985Y-40212481D01*
X157190853Y-40073100D01*
X157126703Y-39918228D01*
X157094000Y-39753816D01*
X157094000Y-39586184D01*
X157126703Y-39421772D01*
X157190853Y-39266900D01*
X157283985Y-39127519D01*
X157402519Y-39008985D01*
X157541900Y-38915853D01*
X157696772Y-38851703D01*
X157861184Y-38819000D01*
X158028816Y-38819000D01*
X158193228Y-38851703D01*
X158193228Y-38851703D01*
G37*
G36*
X160963228Y-38851703D02*
G01*
X161118100Y-38915853D01*
X161257481Y-39008985D01*
X161376015Y-39127519D01*
X161469147Y-39266900D01*
X161533297Y-39421772D01*
X161566000Y-39586184D01*
X161566000Y-39753816D01*
X161533297Y-39918228D01*
X161469147Y-40073100D01*
X161376015Y-40212481D01*
X161257481Y-40331015D01*
X161118100Y-40424147D01*
X160963228Y-40488297D01*
X160798816Y-40521000D01*
X160631184Y-40521000D01*
X160466772Y-40488297D01*
X160311900Y-40424147D01*
X160172519Y-40331015D01*
X160053985Y-40212481D01*
X159960853Y-40073100D01*
X159896703Y-39918228D01*
X159864000Y-39753816D01*
X159864000Y-39586184D01*
X159896703Y-39421772D01*
X159960853Y-39266900D01*
X160053985Y-39127519D01*
X160172519Y-39008985D01*
X160311900Y-38915853D01*
X160466772Y-38851703D01*
X160631184Y-38819000D01*
X160798816Y-38819000D01*
X160963228Y-38851703D01*
X160963228Y-38851703D01*
G37*
G36*
X122863228Y-38851703D02*
G01*
X123018100Y-38915853D01*
X123157481Y-39008985D01*
X123276015Y-39127519D01*
X123369147Y-39266900D01*
X123433297Y-39421772D01*
X123466000Y-39586184D01*
X123466000Y-39753816D01*
X123433297Y-39918228D01*
X123369147Y-40073100D01*
X123276015Y-40212481D01*
X123157481Y-40331015D01*
X123018100Y-40424147D01*
X122863228Y-40488297D01*
X122698816Y-40521000D01*
X122531184Y-40521000D01*
X122366772Y-40488297D01*
X122211900Y-40424147D01*
X122072519Y-40331015D01*
X121953985Y-40212481D01*
X121860853Y-40073100D01*
X121796703Y-39918228D01*
X121764000Y-39753816D01*
X121764000Y-39586184D01*
X121796703Y-39421772D01*
X121860853Y-39266900D01*
X121953985Y-39127519D01*
X122072519Y-39008985D01*
X122211900Y-38915853D01*
X122366772Y-38851703D01*
X122531184Y-38819000D01*
X122698816Y-38819000D01*
X122863228Y-38851703D01*
X122863228Y-38851703D01*
G37*
G36*
X120093228Y-38851703D02*
G01*
X120248100Y-38915853D01*
X120387481Y-39008985D01*
X120506015Y-39127519D01*
X120599147Y-39266900D01*
X120663297Y-39421772D01*
X120696000Y-39586184D01*
X120696000Y-39753816D01*
X120663297Y-39918228D01*
X120599147Y-40073100D01*
X120506015Y-40212481D01*
X120387481Y-40331015D01*
X120248100Y-40424147D01*
X120093228Y-40488297D01*
X119928816Y-40521000D01*
X119761184Y-40521000D01*
X119596772Y-40488297D01*
X119441900Y-40424147D01*
X119302519Y-40331015D01*
X119183985Y-40212481D01*
X119090853Y-40073100D01*
X119026703Y-39918228D01*
X118994000Y-39753816D01*
X118994000Y-39586184D01*
X119026703Y-39421772D01*
X119090853Y-39266900D01*
X119183985Y-39127519D01*
X119302519Y-39008985D01*
X119441900Y-38915853D01*
X119596772Y-38851703D01*
X119761184Y-38819000D01*
X119928816Y-38819000D01*
X120093228Y-38851703D01*
X120093228Y-38851703D01*
G37*
G36*
X163733228Y-38851703D02*
G01*
X163888100Y-38915853D01*
X164027481Y-39008985D01*
X164146015Y-39127519D01*
X164239147Y-39266900D01*
X164303297Y-39421772D01*
X164336000Y-39586184D01*
X164336000Y-39753816D01*
X164303297Y-39918228D01*
X164239147Y-40073100D01*
X164146015Y-40212481D01*
X164027481Y-40331015D01*
X163888100Y-40424147D01*
X163733228Y-40488297D01*
X163568816Y-40521000D01*
X163401184Y-40521000D01*
X163236772Y-40488297D01*
X163081900Y-40424147D01*
X162942519Y-40331015D01*
X162823985Y-40212481D01*
X162730853Y-40073100D01*
X162666703Y-39918228D01*
X162634000Y-39753816D01*
X162634000Y-39586184D01*
X162666703Y-39421772D01*
X162730853Y-39266900D01*
X162823985Y-39127519D01*
X162942519Y-39008985D01*
X163081900Y-38915853D01*
X163236772Y-38851703D01*
X163401184Y-38819000D01*
X163568816Y-38819000D01*
X163733228Y-38851703D01*
X163733228Y-38851703D01*
G37*
G36*
X128403228Y-38851703D02*
G01*
X128558100Y-38915853D01*
X128697481Y-39008985D01*
X128816015Y-39127519D01*
X128909147Y-39266900D01*
X128973297Y-39421772D01*
X129006000Y-39586184D01*
X129006000Y-39753816D01*
X128973297Y-39918228D01*
X128909147Y-40073100D01*
X128816015Y-40212481D01*
X128697481Y-40331015D01*
X128558100Y-40424147D01*
X128403228Y-40488297D01*
X128238816Y-40521000D01*
X128071184Y-40521000D01*
X127906772Y-40488297D01*
X127751900Y-40424147D01*
X127612519Y-40331015D01*
X127493985Y-40212481D01*
X127400853Y-40073100D01*
X127336703Y-39918228D01*
X127304000Y-39753816D01*
X127304000Y-39586184D01*
X127336703Y-39421772D01*
X127400853Y-39266900D01*
X127493985Y-39127519D01*
X127612519Y-39008985D01*
X127751900Y-38915853D01*
X127906772Y-38851703D01*
X128071184Y-38819000D01*
X128238816Y-38819000D01*
X128403228Y-38851703D01*
X128403228Y-38851703D01*
G37*
G36*
X125633228Y-38851703D02*
G01*
X125788100Y-38915853D01*
X125927481Y-39008985D01*
X126046015Y-39127519D01*
X126139147Y-39266900D01*
X126203297Y-39421772D01*
X126236000Y-39586184D01*
X126236000Y-39753816D01*
X126203297Y-39918228D01*
X126139147Y-40073100D01*
X126046015Y-40212481D01*
X125927481Y-40331015D01*
X125788100Y-40424147D01*
X125633228Y-40488297D01*
X125468816Y-40521000D01*
X125301184Y-40521000D01*
X125136772Y-40488297D01*
X124981900Y-40424147D01*
X124842519Y-40331015D01*
X124723985Y-40212481D01*
X124630853Y-40073100D01*
X124566703Y-39918228D01*
X124534000Y-39753816D01*
X124534000Y-39586184D01*
X124566703Y-39421772D01*
X124630853Y-39266900D01*
X124723985Y-39127519D01*
X124842519Y-39008985D01*
X124981900Y-38915853D01*
X125136772Y-38851703D01*
X125301184Y-38819000D01*
X125468816Y-38819000D01*
X125633228Y-38851703D01*
X125633228Y-38851703D01*
G37*
G36*
X175198254Y-36277818D02*
G01*
X175558170Y-36426900D01*
X175571513Y-36432427D01*
X175907436Y-36656884D01*
X176193116Y-36942564D01*
X176283765Y-37078229D01*
X176417574Y-37278489D01*
X176572182Y-37651746D01*
X176651000Y-38047993D01*
X176651000Y-38452007D01*
X176572182Y-38848254D01*
X176456506Y-39127520D01*
X176417573Y-39221513D01*
X176193116Y-39557436D01*
X175907436Y-39843116D01*
X175571513Y-40067573D01*
X175571512Y-40067574D01*
X175571511Y-40067574D01*
X175198254Y-40222182D01*
X174802007Y-40301000D01*
X174397993Y-40301000D01*
X174001746Y-40222182D01*
X173628489Y-40067574D01*
X173628488Y-40067574D01*
X173628487Y-40067573D01*
X173292564Y-39843116D01*
X173006884Y-39557436D01*
X172782427Y-39221513D01*
X172743494Y-39127520D01*
X172627818Y-38848254D01*
X172549000Y-38452007D01*
X172549000Y-38047993D01*
X172627818Y-37651746D01*
X172782426Y-37278489D01*
X172916236Y-37078229D01*
X173006884Y-36942564D01*
X173292564Y-36656884D01*
X173628487Y-36432427D01*
X173641830Y-36426900D01*
X174001746Y-36277818D01*
X174397993Y-36199000D01*
X174802007Y-36199000D01*
X175198254Y-36277818D01*
X175198254Y-36277818D01*
G37*
G36*
X150198254Y-36277818D02*
G01*
X150558170Y-36426900D01*
X150571513Y-36432427D01*
X150907436Y-36656884D01*
X151193116Y-36942564D01*
X151283765Y-37078229D01*
X151417574Y-37278489D01*
X151572182Y-37651746D01*
X151651000Y-38047993D01*
X151651000Y-38452007D01*
X151572182Y-38848254D01*
X151456506Y-39127520D01*
X151417573Y-39221513D01*
X151193116Y-39557436D01*
X150907436Y-39843116D01*
X150571513Y-40067573D01*
X150571512Y-40067574D01*
X150571511Y-40067574D01*
X150198254Y-40222182D01*
X149802007Y-40301000D01*
X149397993Y-40301000D01*
X149001746Y-40222182D01*
X148628489Y-40067574D01*
X148628488Y-40067574D01*
X148628487Y-40067573D01*
X148292564Y-39843116D01*
X148006884Y-39557436D01*
X147782427Y-39221513D01*
X147743494Y-39127520D01*
X147627818Y-38848254D01*
X147549000Y-38452007D01*
X147549000Y-38047993D01*
X147627818Y-37651746D01*
X147782426Y-37278489D01*
X147916236Y-37078229D01*
X148006884Y-36942564D01*
X148292564Y-36656884D01*
X148628487Y-36432427D01*
X148641830Y-36426900D01*
X149001746Y-36277818D01*
X149397993Y-36199000D01*
X149802007Y-36199000D01*
X150198254Y-36277818D01*
X150198254Y-36277818D01*
G37*
G36*
X112098254Y-36277818D02*
G01*
X112458170Y-36426900D01*
X112471513Y-36432427D01*
X112807436Y-36656884D01*
X113093116Y-36942564D01*
X113183765Y-37078229D01*
X113317574Y-37278489D01*
X113472182Y-37651746D01*
X113551000Y-38047993D01*
X113551000Y-38452007D01*
X113472182Y-38848254D01*
X113356506Y-39127520D01*
X113317573Y-39221513D01*
X113093116Y-39557436D01*
X112807436Y-39843116D01*
X112471513Y-40067573D01*
X112471512Y-40067574D01*
X112471511Y-40067574D01*
X112098254Y-40222182D01*
X111702007Y-40301000D01*
X111297993Y-40301000D01*
X110901746Y-40222182D01*
X110528489Y-40067574D01*
X110528488Y-40067574D01*
X110528487Y-40067573D01*
X110192564Y-39843116D01*
X109906884Y-39557436D01*
X109682427Y-39221513D01*
X109643494Y-39127520D01*
X109527818Y-38848254D01*
X109449000Y-38452007D01*
X109449000Y-38047993D01*
X109527818Y-37651746D01*
X109682426Y-37278489D01*
X109816236Y-37078229D01*
X109906884Y-36942564D01*
X110192564Y-36656884D01*
X110528487Y-36432427D01*
X110541830Y-36426900D01*
X110901746Y-36277818D01*
X111297993Y-36199000D01*
X111702007Y-36199000D01*
X112098254Y-36277818D01*
X112098254Y-36277818D01*
G37*
G36*
X137098254Y-36277818D02*
G01*
X137458170Y-36426900D01*
X137471513Y-36432427D01*
X137807436Y-36656884D01*
X138093116Y-36942564D01*
X138183765Y-37078229D01*
X138317574Y-37278489D01*
X138472182Y-37651746D01*
X138551000Y-38047993D01*
X138551000Y-38452007D01*
X138472182Y-38848254D01*
X138356506Y-39127520D01*
X138317573Y-39221513D01*
X138093116Y-39557436D01*
X137807436Y-39843116D01*
X137471513Y-40067573D01*
X137471512Y-40067574D01*
X137471511Y-40067574D01*
X137098254Y-40222182D01*
X136702007Y-40301000D01*
X136297993Y-40301000D01*
X135901746Y-40222182D01*
X135528489Y-40067574D01*
X135528488Y-40067574D01*
X135528487Y-40067573D01*
X135192564Y-39843116D01*
X134906884Y-39557436D01*
X134682427Y-39221513D01*
X134643494Y-39127520D01*
X134527818Y-38848254D01*
X134449000Y-38452007D01*
X134449000Y-38047993D01*
X134527818Y-37651746D01*
X134682426Y-37278489D01*
X134816236Y-37078229D01*
X134906884Y-36942564D01*
X135192564Y-36656884D01*
X135528487Y-36432427D01*
X135541830Y-36426900D01*
X135901746Y-36277818D01*
X136297993Y-36199000D01*
X136702007Y-36199000D01*
X137098254Y-36277818D01*
X137098254Y-36277818D01*
G37*
G36*
X130391000Y-37681000D02*
G01*
X128689000Y-37681000D01*
X128689000Y-35979000D01*
X130391000Y-35979000D01*
X130391000Y-37681000D01*
X130391000Y-37681000D01*
G37*
G36*
X165118228Y-36011703D02*
G01*
X165273100Y-36075853D01*
X165412481Y-36168985D01*
X165531015Y-36287519D01*
X165624147Y-36426900D01*
X165688297Y-36581772D01*
X165721000Y-36746184D01*
X165721000Y-36913816D01*
X165688297Y-37078228D01*
X165624147Y-37233100D01*
X165531015Y-37372481D01*
X165412481Y-37491015D01*
X165273100Y-37584147D01*
X165118228Y-37648297D01*
X164953816Y-37681000D01*
X164786184Y-37681000D01*
X164621772Y-37648297D01*
X164466900Y-37584147D01*
X164327519Y-37491015D01*
X164208985Y-37372481D01*
X164115853Y-37233100D01*
X164051703Y-37078228D01*
X164019000Y-36913816D01*
X164019000Y-36746184D01*
X164051703Y-36581772D01*
X164115853Y-36426900D01*
X164208985Y-36287519D01*
X164327519Y-36168985D01*
X164466900Y-36075853D01*
X164621772Y-36011703D01*
X164786184Y-35979000D01*
X164953816Y-35979000D01*
X165118228Y-36011703D01*
X165118228Y-36011703D01*
G37*
G36*
X168491000Y-37681000D02*
G01*
X166789000Y-37681000D01*
X166789000Y-35979000D01*
X168491000Y-35979000D01*
X168491000Y-37681000D01*
X168491000Y-37681000D01*
G37*
G36*
X162348228Y-36011703D02*
G01*
X162503100Y-36075853D01*
X162642481Y-36168985D01*
X162761015Y-36287519D01*
X162854147Y-36426900D01*
X162918297Y-36581772D01*
X162951000Y-36746184D01*
X162951000Y-36913816D01*
X162918297Y-37078228D01*
X162854147Y-37233100D01*
X162761015Y-37372481D01*
X162642481Y-37491015D01*
X162503100Y-37584147D01*
X162348228Y-37648297D01*
X162183816Y-37681000D01*
X162016184Y-37681000D01*
X161851772Y-37648297D01*
X161696900Y-37584147D01*
X161557519Y-37491015D01*
X161438985Y-37372481D01*
X161345853Y-37233100D01*
X161281703Y-37078228D01*
X161249000Y-36913816D01*
X161249000Y-36746184D01*
X161281703Y-36581772D01*
X161345853Y-36426900D01*
X161438985Y-36287519D01*
X161557519Y-36168985D01*
X161696900Y-36075853D01*
X161851772Y-36011703D01*
X162016184Y-35979000D01*
X162183816Y-35979000D01*
X162348228Y-36011703D01*
X162348228Y-36011703D01*
G37*
G36*
X118708228Y-36011703D02*
G01*
X118863100Y-36075853D01*
X119002481Y-36168985D01*
X119121015Y-36287519D01*
X119214147Y-36426900D01*
X119278297Y-36581772D01*
X119311000Y-36746184D01*
X119311000Y-36913816D01*
X119278297Y-37078228D01*
X119214147Y-37233100D01*
X119121015Y-37372481D01*
X119002481Y-37491015D01*
X118863100Y-37584147D01*
X118708228Y-37648297D01*
X118543816Y-37681000D01*
X118376184Y-37681000D01*
X118211772Y-37648297D01*
X118056900Y-37584147D01*
X117917519Y-37491015D01*
X117798985Y-37372481D01*
X117705853Y-37233100D01*
X117641703Y-37078228D01*
X117609000Y-36913816D01*
X117609000Y-36746184D01*
X117641703Y-36581772D01*
X117705853Y-36426900D01*
X117798985Y-36287519D01*
X117917519Y-36168985D01*
X118056900Y-36075853D01*
X118211772Y-36011703D01*
X118376184Y-35979000D01*
X118543816Y-35979000D01*
X118708228Y-36011703D01*
X118708228Y-36011703D01*
G37*
G36*
X121478228Y-36011703D02*
G01*
X121633100Y-36075853D01*
X121772481Y-36168985D01*
X121891015Y-36287519D01*
X121984147Y-36426900D01*
X122048297Y-36581772D01*
X122081000Y-36746184D01*
X122081000Y-36913816D01*
X122048297Y-37078228D01*
X121984147Y-37233100D01*
X121891015Y-37372481D01*
X121772481Y-37491015D01*
X121633100Y-37584147D01*
X121478228Y-37648297D01*
X121313816Y-37681000D01*
X121146184Y-37681000D01*
X120981772Y-37648297D01*
X120826900Y-37584147D01*
X120687519Y-37491015D01*
X120568985Y-37372481D01*
X120475853Y-37233100D01*
X120411703Y-37078228D01*
X120379000Y-36913816D01*
X120379000Y-36746184D01*
X120411703Y-36581772D01*
X120475853Y-36426900D01*
X120568985Y-36287519D01*
X120687519Y-36168985D01*
X120826900Y-36075853D01*
X120981772Y-36011703D01*
X121146184Y-35979000D01*
X121313816Y-35979000D01*
X121478228Y-36011703D01*
X121478228Y-36011703D01*
G37*
G36*
X124248228Y-36011703D02*
G01*
X124403100Y-36075853D01*
X124542481Y-36168985D01*
X124661015Y-36287519D01*
X124754147Y-36426900D01*
X124818297Y-36581772D01*
X124851000Y-36746184D01*
X124851000Y-36913816D01*
X124818297Y-37078228D01*
X124754147Y-37233100D01*
X124661015Y-37372481D01*
X124542481Y-37491015D01*
X124403100Y-37584147D01*
X124248228Y-37648297D01*
X124083816Y-37681000D01*
X123916184Y-37681000D01*
X123751772Y-37648297D01*
X123596900Y-37584147D01*
X123457519Y-37491015D01*
X123338985Y-37372481D01*
X123245853Y-37233100D01*
X123181703Y-37078228D01*
X123149000Y-36913816D01*
X123149000Y-36746184D01*
X123181703Y-36581772D01*
X123245853Y-36426900D01*
X123338985Y-36287519D01*
X123457519Y-36168985D01*
X123596900Y-36075853D01*
X123751772Y-36011703D01*
X123916184Y-35979000D01*
X124083816Y-35979000D01*
X124248228Y-36011703D01*
X124248228Y-36011703D01*
G37*
G36*
X127018228Y-36011703D02*
G01*
X127173100Y-36075853D01*
X127312481Y-36168985D01*
X127431015Y-36287519D01*
X127524147Y-36426900D01*
X127588297Y-36581772D01*
X127621000Y-36746184D01*
X127621000Y-36913816D01*
X127588297Y-37078228D01*
X127524147Y-37233100D01*
X127431015Y-37372481D01*
X127312481Y-37491015D01*
X127173100Y-37584147D01*
X127018228Y-37648297D01*
X126853816Y-37681000D01*
X126686184Y-37681000D01*
X126521772Y-37648297D01*
X126366900Y-37584147D01*
X126227519Y-37491015D01*
X126108985Y-37372481D01*
X126015853Y-37233100D01*
X125951703Y-37078228D01*
X125919000Y-36913816D01*
X125919000Y-36746184D01*
X125951703Y-36581772D01*
X126015853Y-36426900D01*
X126108985Y-36287519D01*
X126227519Y-36168985D01*
X126366900Y-36075853D01*
X126521772Y-36011703D01*
X126686184Y-35979000D01*
X126853816Y-35979000D01*
X127018228Y-36011703D01*
X127018228Y-36011703D01*
G37*
G36*
X159578228Y-36011703D02*
G01*
X159733100Y-36075853D01*
X159872481Y-36168985D01*
X159991015Y-36287519D01*
X160084147Y-36426900D01*
X160148297Y-36581772D01*
X160181000Y-36746184D01*
X160181000Y-36913816D01*
X160148297Y-37078228D01*
X160084147Y-37233100D01*
X159991015Y-37372481D01*
X159872481Y-37491015D01*
X159733100Y-37584147D01*
X159578228Y-37648297D01*
X159413816Y-37681000D01*
X159246184Y-37681000D01*
X159081772Y-37648297D01*
X158926900Y-37584147D01*
X158787519Y-37491015D01*
X158668985Y-37372481D01*
X158575853Y-37233100D01*
X158511703Y-37078228D01*
X158479000Y-36913816D01*
X158479000Y-36746184D01*
X158511703Y-36581772D01*
X158575853Y-36426900D01*
X158668985Y-36287519D01*
X158787519Y-36168985D01*
X158926900Y-36075853D01*
X159081772Y-36011703D01*
X159246184Y-35979000D01*
X159413816Y-35979000D01*
X159578228Y-36011703D01*
X159578228Y-36011703D01*
G37*
G36*
X156808228Y-36011703D02*
G01*
X156963100Y-36075853D01*
X157102481Y-36168985D01*
X157221015Y-36287519D01*
X157314147Y-36426900D01*
X157378297Y-36581772D01*
X157411000Y-36746184D01*
X157411000Y-36913816D01*
X157378297Y-37078228D01*
X157314147Y-37233100D01*
X157221015Y-37372481D01*
X157102481Y-37491015D01*
X156963100Y-37584147D01*
X156808228Y-37648297D01*
X156643816Y-37681000D01*
X156476184Y-37681000D01*
X156311772Y-37648297D01*
X156156900Y-37584147D01*
X156017519Y-37491015D01*
X155898985Y-37372481D01*
X155805853Y-37233100D01*
X155741703Y-37078228D01*
X155709000Y-36913816D01*
X155709000Y-36746184D01*
X155741703Y-36581772D01*
X155805853Y-36426900D01*
X155898985Y-36287519D01*
X156017519Y-36168985D01*
X156156900Y-36075853D01*
X156311772Y-36011703D01*
X156476184Y-35979000D01*
X156643816Y-35979000D01*
X156808228Y-36011703D01*
X156808228Y-36011703D01*
G37*
G36*
X71995293Y-26727661D02*
G01*
X72243295Y-26776992D01*
X72944132Y-27067288D01*
X73574869Y-27488733D01*
X74111267Y-28025131D01*
X74532712Y-28655868D01*
X74823008Y-29356705D01*
X74971000Y-30100710D01*
X74971000Y-30859290D01*
X74823008Y-31603295D01*
X74532712Y-32304132D01*
X74111267Y-32934869D01*
X73574869Y-33471267D01*
X72944132Y-33892712D01*
X72243295Y-34183008D01*
X71995293Y-34232339D01*
X71499292Y-34331000D01*
X70740708Y-34331000D01*
X70244707Y-34232339D01*
X69996705Y-34183008D01*
X69295868Y-33892712D01*
X68665131Y-33471267D01*
X68128733Y-32934869D01*
X67707288Y-32304132D01*
X67416992Y-31603295D01*
X67269000Y-30859290D01*
X67269000Y-30100710D01*
X67416992Y-29356705D01*
X67707288Y-28655868D01*
X68128733Y-28025131D01*
X68665131Y-27488733D01*
X69295868Y-27067288D01*
X69996705Y-26776992D01*
X70244707Y-26727661D01*
X70740708Y-26629000D01*
X71499292Y-26629000D01*
X71995293Y-26727661D01*
X71995293Y-26727661D01*
G37*
G36*
X216775293Y-26727661D02*
G01*
X217023295Y-26776992D01*
X217724132Y-27067288D01*
X218354869Y-27488733D01*
X218891267Y-28025131D01*
X219312712Y-28655868D01*
X219603008Y-29356705D01*
X219751000Y-30100710D01*
X219751000Y-30859290D01*
X219603008Y-31603295D01*
X219312712Y-32304132D01*
X218891267Y-32934869D01*
X218354869Y-33471267D01*
X217724132Y-33892712D01*
X217023295Y-34183008D01*
X216775293Y-34232339D01*
X216279292Y-34331000D01*
X215520708Y-34331000D01*
X215024707Y-34232339D01*
X214776705Y-34183008D01*
X214075868Y-33892712D01*
X213445131Y-33471267D01*
X212908733Y-32934869D01*
X212487288Y-32304132D01*
X212196992Y-31603295D01*
X212049000Y-30859290D01*
X212049000Y-30100710D01*
X212196992Y-29356705D01*
X212487288Y-28655868D01*
X212908733Y-28025131D01*
X213445131Y-27488733D01*
X214075868Y-27067288D01*
X214776705Y-26776992D01*
X215024707Y-26727661D01*
X215520708Y-26629000D01*
X216279292Y-26629000D01*
X216775293Y-26727661D01*
X216775293Y-26727661D01*
G37*
M02*
