G04 #@! TF.GenerationSoftware,KiCad,Pcbnew,(5.1.4)-1*
G04 #@! TF.CreationDate,2020-06-05T14:27:08+02:00*
G04 #@! TF.ProjectId,Breakout,42726561-6b6f-4757-942e-6b696361645f,rev?*
G04 #@! TF.SameCoordinates,Original*
G04 #@! TF.FileFunction,Legend,Top*
G04 #@! TF.FilePolarity,Positive*
%FSLAX46Y46*%
G04 Gerber Fmt 4.6, Leading zero omitted, Abs format (unit mm)*
G04 Created by KiCad (PCBNEW (5.1.4)-1) date 2020-06-05 14:27:08*
%MOMM*%
%LPD*%
G04 APERTURE LIST*
%ADD10C,0.120000*%
%ADD11C,0.150000*%
G04 APERTURE END LIST*
D10*
X71475000Y-129095000D02*
G75*
G03X70415000Y-130155000I0J-1060000D01*
G01*
X101385000Y-130155000D02*
G75*
G03X100325000Y-129095000I-1060000J0D01*
G01*
X71475000Y-141715000D02*
G75*
G02X70415000Y-140655000I0J1060000D01*
G01*
X100325000Y-141715000D02*
G75*
G03X101385000Y-140655000I0J1060000D01*
G01*
X78033530Y-133343256D02*
G75*
G02X79668311Y-131395000I1634781J288256D01*
G01*
X93766470Y-133343256D02*
G75*
G03X92131689Y-131395000I-1634781J288256D01*
G01*
X78862267Y-138043256D02*
G75*
G03X80497048Y-139415000I1634781J288256D01*
G01*
X92937733Y-138043256D02*
G75*
G02X91302952Y-139415000I-1634781J288256D01*
G01*
X71475000Y-129095000D02*
X100325000Y-129095000D01*
X101385000Y-130155000D02*
X101385000Y-140655000D01*
X100325000Y-141715000D02*
X71475000Y-141715000D01*
X70415000Y-140655000D02*
X70415000Y-130155000D01*
X91190000Y-128200662D02*
X91690000Y-128200662D01*
X91690000Y-128200662D02*
X91440000Y-128633675D01*
X91440000Y-128633675D02*
X91190000Y-128200662D01*
X79668311Y-131395000D02*
X92131689Y-131395000D01*
X80497048Y-139415000D02*
X91302952Y-139415000D01*
X93766470Y-133343256D02*
X92937733Y-138043256D01*
X78033530Y-133343256D02*
X78862267Y-138043256D01*
X154233530Y-36188256D02*
X155062267Y-40888256D01*
X169966470Y-36188256D02*
X169137733Y-40888256D01*
X156697048Y-42260000D02*
X167502952Y-42260000D01*
X155868311Y-34240000D02*
X168331689Y-34240000D01*
X167640000Y-31478675D02*
X167390000Y-31045662D01*
X167890000Y-31045662D02*
X167640000Y-31478675D01*
X167390000Y-31045662D02*
X167890000Y-31045662D01*
X146615000Y-43500000D02*
X146615000Y-33000000D01*
X176525000Y-44560000D02*
X147675000Y-44560000D01*
X177585000Y-33000000D02*
X177585000Y-43500000D01*
X147675000Y-31940000D02*
X176525000Y-31940000D01*
X169137733Y-40888256D02*
G75*
G02X167502952Y-42260000I-1634781J288256D01*
G01*
X155062267Y-40888256D02*
G75*
G03X156697048Y-42260000I1634781J288256D01*
G01*
X169966470Y-36188256D02*
G75*
G03X168331689Y-34240000I-1634781J288256D01*
G01*
X154233530Y-36188256D02*
G75*
G02X155868311Y-34240000I1634781J288256D01*
G01*
X176525000Y-44560000D02*
G75*
G03X177585000Y-43500000I0J1060000D01*
G01*
X147675000Y-44560000D02*
G75*
G02X146615000Y-43500000I0J1060000D01*
G01*
X177585000Y-33000000D02*
G75*
G03X176525000Y-31940000I-1060000J0D01*
G01*
X147675000Y-31940000D02*
G75*
G03X146615000Y-33000000I0J-1060000D01*
G01*
X109575000Y-47815000D02*
G75*
G03X108515000Y-48875000I0J-1060000D01*
G01*
X139485000Y-48875000D02*
G75*
G03X138425000Y-47815000I-1060000J0D01*
G01*
X109575000Y-60435000D02*
G75*
G02X108515000Y-59375000I0J1060000D01*
G01*
X138425000Y-60435000D02*
G75*
G03X139485000Y-59375000I0J1060000D01*
G01*
X116133530Y-52063256D02*
G75*
G02X117768311Y-50115000I1634781J288256D01*
G01*
X131866470Y-52063256D02*
G75*
G03X130231689Y-50115000I-1634781J288256D01*
G01*
X116962267Y-56763256D02*
G75*
G03X118597048Y-58135000I1634781J288256D01*
G01*
X131037733Y-56763256D02*
G75*
G02X129402952Y-58135000I-1634781J288256D01*
G01*
X109575000Y-47815000D02*
X138425000Y-47815000D01*
X139485000Y-48875000D02*
X139485000Y-59375000D01*
X138425000Y-60435000D02*
X109575000Y-60435000D01*
X108515000Y-59375000D02*
X108515000Y-48875000D01*
X129290000Y-46920662D02*
X129790000Y-46920662D01*
X129790000Y-46920662D02*
X129540000Y-47353675D01*
X129540000Y-47353675D02*
X129290000Y-46920662D01*
X117768311Y-50115000D02*
X130231689Y-50115000D01*
X118597048Y-58135000D02*
X129402952Y-58135000D01*
X131866470Y-52063256D02*
X131037733Y-56763256D01*
X116133530Y-52063256D02*
X116962267Y-56763256D01*
X214625000Y-93155000D02*
G75*
G03X215685000Y-92095000I0J1060000D01*
G01*
X184715000Y-92095000D02*
G75*
G03X185775000Y-93155000I1060000J0D01*
G01*
X214625000Y-80535000D02*
G75*
G02X215685000Y-81595000I0J-1060000D01*
G01*
X185775000Y-80535000D02*
G75*
G03X184715000Y-81595000I0J-1060000D01*
G01*
X208066470Y-89106744D02*
G75*
G02X206431689Y-91055000I-1634781J-288256D01*
G01*
X192333530Y-89106744D02*
G75*
G03X193968311Y-91055000I1634781J-288256D01*
G01*
X207167202Y-84006744D02*
G75*
G03X205532421Y-82635000I-1634781J-288256D01*
G01*
X193232798Y-84006744D02*
G75*
G02X194867579Y-82635000I1634781J-288256D01*
G01*
X214625000Y-93155000D02*
X185775000Y-93155000D01*
X184715000Y-92095000D02*
X184715000Y-81595000D01*
X185775000Y-80535000D02*
X214625000Y-80535000D01*
X215685000Y-81595000D02*
X215685000Y-92095000D01*
X205990000Y-94049338D02*
X205490000Y-94049338D01*
X205490000Y-94049338D02*
X205740000Y-93616325D01*
X205740000Y-93616325D02*
X205990000Y-94049338D01*
X206431689Y-91055000D02*
X193968311Y-91055000D01*
X205532421Y-82635000D02*
X194867579Y-82635000D01*
X192333530Y-89106744D02*
X193232798Y-84006744D01*
X208066470Y-89106744D02*
X207167202Y-84006744D01*
X93766470Y-89106744D02*
X92867202Y-84006744D01*
X78033530Y-89106744D02*
X78932798Y-84006744D01*
X91232421Y-82635000D02*
X80567579Y-82635000D01*
X92131689Y-91055000D02*
X79668311Y-91055000D01*
X91440000Y-93616325D02*
X91690000Y-94049338D01*
X91190000Y-94049338D02*
X91440000Y-93616325D01*
X91690000Y-94049338D02*
X91190000Y-94049338D01*
X101385000Y-81595000D02*
X101385000Y-92095000D01*
X71475000Y-80535000D02*
X100325000Y-80535000D01*
X70415000Y-92095000D02*
X70415000Y-81595000D01*
X100325000Y-93155000D02*
X71475000Y-93155000D01*
X78932798Y-84006744D02*
G75*
G02X80567579Y-82635000I1634781J-288256D01*
G01*
X92867202Y-84006744D02*
G75*
G03X91232421Y-82635000I-1634781J-288256D01*
G01*
X78033530Y-89106744D02*
G75*
G03X79668311Y-91055000I1634781J-288256D01*
G01*
X93766470Y-89106744D02*
G75*
G02X92131689Y-91055000I-1634781J-288256D01*
G01*
X71475000Y-80535000D02*
G75*
G03X70415000Y-81595000I0J-1060000D01*
G01*
X100325000Y-80535000D02*
G75*
G02X101385000Y-81595000I0J-1060000D01*
G01*
X70415000Y-92095000D02*
G75*
G03X71475000Y-93155000I1060000J0D01*
G01*
X100325000Y-93155000D02*
G75*
G03X101385000Y-92095000I0J1060000D01*
G01*
X109575000Y-31940000D02*
G75*
G03X108515000Y-33000000I0J-1060000D01*
G01*
X139485000Y-33000000D02*
G75*
G03X138425000Y-31940000I-1060000J0D01*
G01*
X109575000Y-44560000D02*
G75*
G02X108515000Y-43500000I0J1060000D01*
G01*
X138425000Y-44560000D02*
G75*
G03X139485000Y-43500000I0J1060000D01*
G01*
X116133530Y-36188256D02*
G75*
G02X117768311Y-34240000I1634781J288256D01*
G01*
X131866470Y-36188256D02*
G75*
G03X130231689Y-34240000I-1634781J288256D01*
G01*
X116962267Y-40888256D02*
G75*
G03X118597048Y-42260000I1634781J288256D01*
G01*
X131037733Y-40888256D02*
G75*
G02X129402952Y-42260000I-1634781J288256D01*
G01*
X109575000Y-31940000D02*
X138425000Y-31940000D01*
X139485000Y-33000000D02*
X139485000Y-43500000D01*
X138425000Y-44560000D02*
X109575000Y-44560000D01*
X108515000Y-43500000D02*
X108515000Y-33000000D01*
X129290000Y-31045662D02*
X129790000Y-31045662D01*
X129790000Y-31045662D02*
X129540000Y-31478675D01*
X129540000Y-31478675D02*
X129290000Y-31045662D01*
X117768311Y-34240000D02*
X130231689Y-34240000D01*
X118597048Y-42260000D02*
X129402952Y-42260000D01*
X131866470Y-36188256D02*
X131037733Y-40888256D01*
X116133530Y-36188256D02*
X116962267Y-40888256D01*
X192333530Y-108578256D02*
X193162267Y-113278256D01*
X208066470Y-108578256D02*
X207237733Y-113278256D01*
X194797048Y-114650000D02*
X205602952Y-114650000D01*
X193968311Y-106630000D02*
X206431689Y-106630000D01*
X205740000Y-103868675D02*
X205490000Y-103435662D01*
X205990000Y-103435662D02*
X205740000Y-103868675D01*
X205490000Y-103435662D02*
X205990000Y-103435662D01*
X184715000Y-115890000D02*
X184715000Y-105390000D01*
X214625000Y-116950000D02*
X185775000Y-116950000D01*
X215685000Y-105390000D02*
X215685000Y-115890000D01*
X185775000Y-104330000D02*
X214625000Y-104330000D01*
X207237733Y-113278256D02*
G75*
G02X205602952Y-114650000I-1634781J288256D01*
G01*
X193162267Y-113278256D02*
G75*
G03X194797048Y-114650000I1634781J288256D01*
G01*
X208066470Y-108578256D02*
G75*
G03X206431689Y-106630000I-1634781J288256D01*
G01*
X192333530Y-108578256D02*
G75*
G02X193968311Y-106630000I1634781J288256D01*
G01*
X214625000Y-116950000D02*
G75*
G03X215685000Y-115890000I0J1060000D01*
G01*
X185775000Y-116950000D02*
G75*
G02X184715000Y-115890000I0J1060000D01*
G01*
X215685000Y-105390000D02*
G75*
G03X214625000Y-104330000I-1060000J0D01*
G01*
X185775000Y-104330000D02*
G75*
G03X184715000Y-105390000I0J-1060000D01*
G01*
X185775000Y-129095000D02*
G75*
G03X184715000Y-130155000I0J-1060000D01*
G01*
X215685000Y-130155000D02*
G75*
G03X214625000Y-129095000I-1060000J0D01*
G01*
X185775000Y-141715000D02*
G75*
G02X184715000Y-140655000I0J1060000D01*
G01*
X214625000Y-141715000D02*
G75*
G03X215685000Y-140655000I0J1060000D01*
G01*
X192333530Y-133343256D02*
G75*
G02X193968311Y-131395000I1634781J288256D01*
G01*
X208066470Y-133343256D02*
G75*
G03X206431689Y-131395000I-1634781J288256D01*
G01*
X193162267Y-138043256D02*
G75*
G03X194797048Y-139415000I1634781J288256D01*
G01*
X207237733Y-138043256D02*
G75*
G02X205602952Y-139415000I-1634781J288256D01*
G01*
X185775000Y-129095000D02*
X214625000Y-129095000D01*
X215685000Y-130155000D02*
X215685000Y-140655000D01*
X214625000Y-141715000D02*
X185775000Y-141715000D01*
X184715000Y-140655000D02*
X184715000Y-130155000D01*
X205490000Y-128200662D02*
X205990000Y-128200662D01*
X205990000Y-128200662D02*
X205740000Y-128633675D01*
X205740000Y-128633675D02*
X205490000Y-128200662D01*
X193968311Y-131395000D02*
X206431689Y-131395000D01*
X194797048Y-139415000D02*
X205602952Y-139415000D01*
X208066470Y-133343256D02*
X207237733Y-138043256D01*
X192333530Y-133343256D02*
X193162267Y-138043256D01*
X154233530Y-52063256D02*
X155062267Y-56763256D01*
X169966470Y-52063256D02*
X169137733Y-56763256D01*
X156697048Y-58135000D02*
X167502952Y-58135000D01*
X155868311Y-50115000D02*
X168331689Y-50115000D01*
X167640000Y-47353675D02*
X167390000Y-46920662D01*
X167890000Y-46920662D02*
X167640000Y-47353675D01*
X167390000Y-46920662D02*
X167890000Y-46920662D01*
X146615000Y-59375000D02*
X146615000Y-48875000D01*
X176525000Y-60435000D02*
X147675000Y-60435000D01*
X177585000Y-48875000D02*
X177585000Y-59375000D01*
X147675000Y-47815000D02*
X176525000Y-47815000D01*
X169137733Y-56763256D02*
G75*
G02X167502952Y-58135000I-1634781J288256D01*
G01*
X155062267Y-56763256D02*
G75*
G03X156697048Y-58135000I1634781J288256D01*
G01*
X169966470Y-52063256D02*
G75*
G03X168331689Y-50115000I-1634781J288256D01*
G01*
X154233530Y-52063256D02*
G75*
G02X155868311Y-50115000I1634781J288256D01*
G01*
X176525000Y-60435000D02*
G75*
G03X177585000Y-59375000I0J1060000D01*
G01*
X147675000Y-60435000D02*
G75*
G02X146615000Y-59375000I0J1060000D01*
G01*
X177585000Y-48875000D02*
G75*
G03X176525000Y-47815000I-1060000J0D01*
G01*
X147675000Y-47815000D02*
G75*
G03X146615000Y-48875000I0J-1060000D01*
G01*
X78033530Y-108578256D02*
X78862267Y-113278256D01*
X93766470Y-108578256D02*
X92937733Y-113278256D01*
X80497048Y-114650000D02*
X91302952Y-114650000D01*
X79668311Y-106630000D02*
X92131689Y-106630000D01*
X91440000Y-103868675D02*
X91190000Y-103435662D01*
X91690000Y-103435662D02*
X91440000Y-103868675D01*
X91190000Y-103435662D02*
X91690000Y-103435662D01*
X70415000Y-115890000D02*
X70415000Y-105390000D01*
X100325000Y-116950000D02*
X71475000Y-116950000D01*
X101385000Y-105390000D02*
X101385000Y-115890000D01*
X71475000Y-104330000D02*
X100325000Y-104330000D01*
X92937733Y-113278256D02*
G75*
G02X91302952Y-114650000I-1634781J288256D01*
G01*
X78862267Y-113278256D02*
G75*
G03X80497048Y-114650000I1634781J288256D01*
G01*
X93766470Y-108578256D02*
G75*
G03X92131689Y-106630000I-1634781J288256D01*
G01*
X78033530Y-108578256D02*
G75*
G02X79668311Y-106630000I1634781J288256D01*
G01*
X100325000Y-116950000D02*
G75*
G03X101385000Y-115890000I0J1060000D01*
G01*
X71475000Y-116950000D02*
G75*
G02X70415000Y-115890000I0J1060000D01*
G01*
X101385000Y-105390000D02*
G75*
G03X100325000Y-104330000I-1060000J0D01*
G01*
X71475000Y-104330000D02*
G75*
G03X70415000Y-105390000I0J-1060000D01*
G01*
X169966470Y-89106744D02*
X169067202Y-84006744D01*
X154233530Y-89106744D02*
X155132798Y-84006744D01*
X167432421Y-82635000D02*
X156767579Y-82635000D01*
X168331689Y-91055000D02*
X155868311Y-91055000D01*
X167640000Y-93616325D02*
X167890000Y-94049338D01*
X167390000Y-94049338D02*
X167640000Y-93616325D01*
X167890000Y-94049338D02*
X167390000Y-94049338D01*
X177585000Y-81595000D02*
X177585000Y-92095000D01*
X147675000Y-80535000D02*
X176525000Y-80535000D01*
X146615000Y-92095000D02*
X146615000Y-81595000D01*
X176525000Y-93155000D02*
X147675000Y-93155000D01*
X155132798Y-84006744D02*
G75*
G02X156767579Y-82635000I1634781J-288256D01*
G01*
X169067202Y-84006744D02*
G75*
G03X167432421Y-82635000I-1634781J-288256D01*
G01*
X154233530Y-89106744D02*
G75*
G03X155868311Y-91055000I1634781J-288256D01*
G01*
X169966470Y-89106744D02*
G75*
G02X168331689Y-91055000I-1634781J-288256D01*
G01*
X147675000Y-80535000D02*
G75*
G03X146615000Y-81595000I0J-1060000D01*
G01*
X176525000Y-80535000D02*
G75*
G02X177585000Y-81595000I0J-1060000D01*
G01*
X146615000Y-92095000D02*
G75*
G03X147675000Y-93155000I1060000J0D01*
G01*
X176525000Y-93155000D02*
G75*
G03X177585000Y-92095000I0J1060000D01*
G01*
X147675000Y-129095000D02*
G75*
G03X146615000Y-130155000I0J-1060000D01*
G01*
X177585000Y-130155000D02*
G75*
G03X176525000Y-129095000I-1060000J0D01*
G01*
X147675000Y-141715000D02*
G75*
G02X146615000Y-140655000I0J1060000D01*
G01*
X176525000Y-141715000D02*
G75*
G03X177585000Y-140655000I0J1060000D01*
G01*
X154233530Y-133343256D02*
G75*
G02X155868311Y-131395000I1634781J288256D01*
G01*
X169966470Y-133343256D02*
G75*
G03X168331689Y-131395000I-1634781J288256D01*
G01*
X155062267Y-138043256D02*
G75*
G03X156697048Y-139415000I1634781J288256D01*
G01*
X169137733Y-138043256D02*
G75*
G02X167502952Y-139415000I-1634781J288256D01*
G01*
X147675000Y-129095000D02*
X176525000Y-129095000D01*
X177585000Y-130155000D02*
X177585000Y-140655000D01*
X176525000Y-141715000D02*
X147675000Y-141715000D01*
X146615000Y-140655000D02*
X146615000Y-130155000D01*
X167390000Y-128200662D02*
X167890000Y-128200662D01*
X167890000Y-128200662D02*
X167640000Y-128633675D01*
X167640000Y-128633675D02*
X167390000Y-128200662D01*
X155868311Y-131395000D02*
X168331689Y-131395000D01*
X156697048Y-139415000D02*
X167502952Y-139415000D01*
X169966470Y-133343256D02*
X169137733Y-138043256D01*
X154233530Y-133343256D02*
X155062267Y-138043256D01*
X154233530Y-108578256D02*
X155062267Y-113278256D01*
X169966470Y-108578256D02*
X169137733Y-113278256D01*
X156697048Y-114650000D02*
X167502952Y-114650000D01*
X155868311Y-106630000D02*
X168331689Y-106630000D01*
X167640000Y-103868675D02*
X167390000Y-103435662D01*
X167890000Y-103435662D02*
X167640000Y-103868675D01*
X167390000Y-103435662D02*
X167890000Y-103435662D01*
X146615000Y-115890000D02*
X146615000Y-105390000D01*
X176525000Y-116950000D02*
X147675000Y-116950000D01*
X177585000Y-105390000D02*
X177585000Y-115890000D01*
X147675000Y-104330000D02*
X176525000Y-104330000D01*
X169137733Y-113278256D02*
G75*
G02X167502952Y-114650000I-1634781J288256D01*
G01*
X155062267Y-113278256D02*
G75*
G03X156697048Y-114650000I1634781J288256D01*
G01*
X169966470Y-108578256D02*
G75*
G03X168331689Y-106630000I-1634781J288256D01*
G01*
X154233530Y-108578256D02*
G75*
G02X155868311Y-106630000I1634781J288256D01*
G01*
X176525000Y-116950000D02*
G75*
G03X177585000Y-115890000I0J1060000D01*
G01*
X147675000Y-116950000D02*
G75*
G02X146615000Y-115890000I0J1060000D01*
G01*
X177585000Y-105390000D02*
G75*
G03X176525000Y-104330000I-1060000J0D01*
G01*
X147675000Y-104330000D02*
G75*
G03X146615000Y-105390000I0J-1060000D01*
G01*
X138425000Y-93155000D02*
G75*
G03X139485000Y-92095000I0J1060000D01*
G01*
X108515000Y-92095000D02*
G75*
G03X109575000Y-93155000I1060000J0D01*
G01*
X138425000Y-80535000D02*
G75*
G02X139485000Y-81595000I0J-1060000D01*
G01*
X109575000Y-80535000D02*
G75*
G03X108515000Y-81595000I0J-1060000D01*
G01*
X131866470Y-89106744D02*
G75*
G02X130231689Y-91055000I-1634781J-288256D01*
G01*
X116133530Y-89106744D02*
G75*
G03X117768311Y-91055000I1634781J-288256D01*
G01*
X130967202Y-84006744D02*
G75*
G03X129332421Y-82635000I-1634781J-288256D01*
G01*
X117032798Y-84006744D02*
G75*
G02X118667579Y-82635000I1634781J-288256D01*
G01*
X138425000Y-93155000D02*
X109575000Y-93155000D01*
X108515000Y-92095000D02*
X108515000Y-81595000D01*
X109575000Y-80535000D02*
X138425000Y-80535000D01*
X139485000Y-81595000D02*
X139485000Y-92095000D01*
X129790000Y-94049338D02*
X129290000Y-94049338D01*
X129290000Y-94049338D02*
X129540000Y-93616325D01*
X129540000Y-93616325D02*
X129790000Y-94049338D01*
X130231689Y-91055000D02*
X117768311Y-91055000D01*
X129332421Y-82635000D02*
X118667579Y-82635000D01*
X116133530Y-89106744D02*
X117032798Y-84006744D01*
X131866470Y-89106744D02*
X130967202Y-84006744D01*
X115958530Y-133343256D02*
X116787267Y-138043256D01*
X131691470Y-133343256D02*
X130862733Y-138043256D01*
X118422048Y-139415000D02*
X129227952Y-139415000D01*
X117593311Y-131395000D02*
X130056689Y-131395000D01*
X129365000Y-128633675D02*
X129115000Y-128200662D01*
X129615000Y-128200662D02*
X129365000Y-128633675D01*
X129115000Y-128200662D02*
X129615000Y-128200662D01*
X108340000Y-140655000D02*
X108340000Y-130155000D01*
X138250000Y-141715000D02*
X109400000Y-141715000D01*
X139310000Y-130155000D02*
X139310000Y-140655000D01*
X109400000Y-129095000D02*
X138250000Y-129095000D01*
X130862733Y-138043256D02*
G75*
G02X129227952Y-139415000I-1634781J288256D01*
G01*
X116787267Y-138043256D02*
G75*
G03X118422048Y-139415000I1634781J288256D01*
G01*
X131691470Y-133343256D02*
G75*
G03X130056689Y-131395000I-1634781J288256D01*
G01*
X115958530Y-133343256D02*
G75*
G02X117593311Y-131395000I1634781J288256D01*
G01*
X138250000Y-141715000D02*
G75*
G03X139310000Y-140655000I0J1060000D01*
G01*
X109400000Y-141715000D02*
G75*
G02X108340000Y-140655000I0J1060000D01*
G01*
X139310000Y-130155000D02*
G75*
G03X138250000Y-129095000I-1060000J0D01*
G01*
X109400000Y-129095000D02*
G75*
G03X108340000Y-130155000I0J-1060000D01*
G01*
X109575000Y-104330000D02*
G75*
G03X108515000Y-105390000I0J-1060000D01*
G01*
X139485000Y-105390000D02*
G75*
G03X138425000Y-104330000I-1060000J0D01*
G01*
X109575000Y-116950000D02*
G75*
G02X108515000Y-115890000I0J1060000D01*
G01*
X138425000Y-116950000D02*
G75*
G03X139485000Y-115890000I0J1060000D01*
G01*
X116133530Y-108578256D02*
G75*
G02X117768311Y-106630000I1634781J288256D01*
G01*
X131866470Y-108578256D02*
G75*
G03X130231689Y-106630000I-1634781J288256D01*
G01*
X116962267Y-113278256D02*
G75*
G03X118597048Y-114650000I1634781J288256D01*
G01*
X131037733Y-113278256D02*
G75*
G02X129402952Y-114650000I-1634781J288256D01*
G01*
X109575000Y-104330000D02*
X138425000Y-104330000D01*
X139485000Y-105390000D02*
X139485000Y-115890000D01*
X138425000Y-116950000D02*
X109575000Y-116950000D01*
X108515000Y-115890000D02*
X108515000Y-105390000D01*
X129290000Y-103435662D02*
X129790000Y-103435662D01*
X129790000Y-103435662D02*
X129540000Y-103868675D01*
X129540000Y-103868675D02*
X129290000Y-103435662D01*
X117768311Y-106630000D02*
X130231689Y-106630000D01*
X118597048Y-114650000D02*
X129402952Y-114650000D01*
X131866470Y-108578256D02*
X131037733Y-113278256D01*
X116133530Y-108578256D02*
X116962267Y-113278256D01*
D11*
X85566666Y-127547380D02*
X85566666Y-128261666D01*
X85519047Y-128404523D01*
X85423809Y-128499761D01*
X85280952Y-128547380D01*
X85185714Y-128547380D01*
X85947619Y-127547380D02*
X86614285Y-127547380D01*
X86185714Y-128547380D01*
X215138095Y-147544380D02*
X215138095Y-146544380D01*
X215138095Y-147020571D02*
X215709523Y-147020571D01*
X215709523Y-147544380D02*
X215709523Y-146544380D01*
X216614285Y-146877714D02*
X216614285Y-147544380D01*
X216376190Y-146496761D02*
X216138095Y-147211047D01*
X216757142Y-147211047D01*
X161290476Y-30392380D02*
X161290476Y-31106666D01*
X161242857Y-31249523D01*
X161147619Y-31344761D01*
X161004761Y-31392380D01*
X160909523Y-31392380D01*
X162290476Y-31392380D02*
X161719047Y-31392380D01*
X162004761Y-31392380D02*
X162004761Y-30392380D01*
X161909523Y-30535238D01*
X161814285Y-30630476D01*
X161719047Y-30678095D01*
X162909523Y-30392380D02*
X163004761Y-30392380D01*
X163100000Y-30440000D01*
X163147619Y-30487619D01*
X163195238Y-30582857D01*
X163242857Y-30773333D01*
X163242857Y-31011428D01*
X163195238Y-31201904D01*
X163147619Y-31297142D01*
X163100000Y-31344761D01*
X163004761Y-31392380D01*
X162909523Y-31392380D01*
X162814285Y-31344761D01*
X162766666Y-31297142D01*
X162719047Y-31201904D01*
X162671428Y-31011428D01*
X162671428Y-30773333D01*
X162719047Y-30582857D01*
X162766666Y-30487619D01*
X162814285Y-30440000D01*
X162909523Y-30392380D01*
X123190476Y-46267380D02*
X123190476Y-46981666D01*
X123142857Y-47124523D01*
X123047619Y-47219761D01*
X122904761Y-47267380D01*
X122809523Y-47267380D01*
X124190476Y-47267380D02*
X123619047Y-47267380D01*
X123904761Y-47267380D02*
X123904761Y-46267380D01*
X123809523Y-46410238D01*
X123714285Y-46505476D01*
X123619047Y-46553095D01*
X125047619Y-46600714D02*
X125047619Y-47267380D01*
X124809523Y-46219761D02*
X124571428Y-46934047D01*
X125190476Y-46934047D01*
X199866666Y-93607380D02*
X199866666Y-94321666D01*
X199819047Y-94464523D01*
X199723809Y-94559761D01*
X199580952Y-94607380D01*
X199485714Y-94607380D01*
X200866666Y-94607380D02*
X200295238Y-94607380D01*
X200580952Y-94607380D02*
X200580952Y-93607380D01*
X200485714Y-93750238D01*
X200390476Y-93845476D01*
X200295238Y-93893095D01*
X85566666Y-93607380D02*
X85566666Y-94321666D01*
X85519047Y-94464523D01*
X85423809Y-94559761D01*
X85280952Y-94607380D01*
X85185714Y-94607380D01*
X85995238Y-93702619D02*
X86042857Y-93655000D01*
X86138095Y-93607380D01*
X86376190Y-93607380D01*
X86471428Y-93655000D01*
X86519047Y-93702619D01*
X86566666Y-93797857D01*
X86566666Y-93893095D01*
X86519047Y-94035952D01*
X85947619Y-94607380D01*
X86566666Y-94607380D01*
X123666666Y-30392380D02*
X123666666Y-31106666D01*
X123619047Y-31249523D01*
X123523809Y-31344761D01*
X123380952Y-31392380D01*
X123285714Y-31392380D01*
X124047619Y-30392380D02*
X124666666Y-30392380D01*
X124333333Y-30773333D01*
X124476190Y-30773333D01*
X124571428Y-30820952D01*
X124619047Y-30868571D01*
X124666666Y-30963809D01*
X124666666Y-31201904D01*
X124619047Y-31297142D01*
X124571428Y-31344761D01*
X124476190Y-31392380D01*
X124190476Y-31392380D01*
X124095238Y-31344761D01*
X124047619Y-31297142D01*
X199866666Y-102782380D02*
X199866666Y-103496666D01*
X199819047Y-103639523D01*
X199723809Y-103734761D01*
X199580952Y-103782380D01*
X199485714Y-103782380D01*
X200771428Y-103115714D02*
X200771428Y-103782380D01*
X200533333Y-102734761D02*
X200295238Y-103449047D01*
X200914285Y-103449047D01*
X199866666Y-127547380D02*
X199866666Y-128261666D01*
X199819047Y-128404523D01*
X199723809Y-128499761D01*
X199580952Y-128547380D01*
X199485714Y-128547380D01*
X200819047Y-127547380D02*
X200342857Y-127547380D01*
X200295238Y-128023571D01*
X200342857Y-127975952D01*
X200438095Y-127928333D01*
X200676190Y-127928333D01*
X200771428Y-127975952D01*
X200819047Y-128023571D01*
X200866666Y-128118809D01*
X200866666Y-128356904D01*
X200819047Y-128452142D01*
X200771428Y-128499761D01*
X200676190Y-128547380D01*
X200438095Y-128547380D01*
X200342857Y-128499761D01*
X200295238Y-128452142D01*
X161766666Y-46267380D02*
X161766666Y-46981666D01*
X161719047Y-47124523D01*
X161623809Y-47219761D01*
X161480952Y-47267380D01*
X161385714Y-47267380D01*
X162671428Y-46267380D02*
X162480952Y-46267380D01*
X162385714Y-46315000D01*
X162338095Y-46362619D01*
X162242857Y-46505476D01*
X162195238Y-46695952D01*
X162195238Y-47076904D01*
X162242857Y-47172142D01*
X162290476Y-47219761D01*
X162385714Y-47267380D01*
X162576190Y-47267380D01*
X162671428Y-47219761D01*
X162719047Y-47172142D01*
X162766666Y-47076904D01*
X162766666Y-46838809D01*
X162719047Y-46743571D01*
X162671428Y-46695952D01*
X162576190Y-46648333D01*
X162385714Y-46648333D01*
X162290476Y-46695952D01*
X162242857Y-46743571D01*
X162195238Y-46838809D01*
X85566666Y-102782380D02*
X85566666Y-103496666D01*
X85519047Y-103639523D01*
X85423809Y-103734761D01*
X85280952Y-103782380D01*
X85185714Y-103782380D01*
X86185714Y-103210952D02*
X86090476Y-103163333D01*
X86042857Y-103115714D01*
X85995238Y-103020476D01*
X85995238Y-102972857D01*
X86042857Y-102877619D01*
X86090476Y-102830000D01*
X86185714Y-102782380D01*
X86376190Y-102782380D01*
X86471428Y-102830000D01*
X86519047Y-102877619D01*
X86566666Y-102972857D01*
X86566666Y-103020476D01*
X86519047Y-103115714D01*
X86471428Y-103163333D01*
X86376190Y-103210952D01*
X86185714Y-103210952D01*
X86090476Y-103258571D01*
X86042857Y-103306190D01*
X85995238Y-103401428D01*
X85995238Y-103591904D01*
X86042857Y-103687142D01*
X86090476Y-103734761D01*
X86185714Y-103782380D01*
X86376190Y-103782380D01*
X86471428Y-103734761D01*
X86519047Y-103687142D01*
X86566666Y-103591904D01*
X86566666Y-103401428D01*
X86519047Y-103306190D01*
X86471428Y-103258571D01*
X86376190Y-103210952D01*
X161766666Y-93607380D02*
X161766666Y-94321666D01*
X161719047Y-94464523D01*
X161623809Y-94559761D01*
X161480952Y-94607380D01*
X161385714Y-94607380D01*
X162290476Y-94607380D02*
X162480952Y-94607380D01*
X162576190Y-94559761D01*
X162623809Y-94512142D01*
X162719047Y-94369285D01*
X162766666Y-94178809D01*
X162766666Y-93797857D01*
X162719047Y-93702619D01*
X162671428Y-93655000D01*
X162576190Y-93607380D01*
X162385714Y-93607380D01*
X162290476Y-93655000D01*
X162242857Y-93702619D01*
X162195238Y-93797857D01*
X162195238Y-94035952D01*
X162242857Y-94131190D01*
X162290476Y-94178809D01*
X162385714Y-94226428D01*
X162576190Y-94226428D01*
X162671428Y-94178809D01*
X162719047Y-94131190D01*
X162766666Y-94035952D01*
X161290476Y-127547380D02*
X161290476Y-128261666D01*
X161242857Y-128404523D01*
X161147619Y-128499761D01*
X161004761Y-128547380D01*
X160909523Y-128547380D01*
X162290476Y-128547380D02*
X161719047Y-128547380D01*
X162004761Y-128547380D02*
X162004761Y-127547380D01*
X161909523Y-127690238D01*
X161814285Y-127785476D01*
X161719047Y-127833095D01*
X163242857Y-128547380D02*
X162671428Y-128547380D01*
X162957142Y-128547380D02*
X162957142Y-127547380D01*
X162861904Y-127690238D01*
X162766666Y-127785476D01*
X162671428Y-127833095D01*
X161290476Y-102782380D02*
X161290476Y-103496666D01*
X161242857Y-103639523D01*
X161147619Y-103734761D01*
X161004761Y-103782380D01*
X160909523Y-103782380D01*
X162290476Y-103782380D02*
X161719047Y-103782380D01*
X162004761Y-103782380D02*
X162004761Y-102782380D01*
X161909523Y-102925238D01*
X161814285Y-103020476D01*
X161719047Y-103068095D01*
X162671428Y-102877619D02*
X162719047Y-102830000D01*
X162814285Y-102782380D01*
X163052380Y-102782380D01*
X163147619Y-102830000D01*
X163195238Y-102877619D01*
X163242857Y-102972857D01*
X163242857Y-103068095D01*
X163195238Y-103210952D01*
X162623809Y-103782380D01*
X163242857Y-103782380D01*
X123190476Y-93607380D02*
X123190476Y-94321666D01*
X123142857Y-94464523D01*
X123047619Y-94559761D01*
X122904761Y-94607380D01*
X122809523Y-94607380D01*
X124190476Y-94607380D02*
X123619047Y-94607380D01*
X123904761Y-94607380D02*
X123904761Y-93607380D01*
X123809523Y-93750238D01*
X123714285Y-93845476D01*
X123619047Y-93893095D01*
X124523809Y-93607380D02*
X125142857Y-93607380D01*
X124809523Y-93988333D01*
X124952380Y-93988333D01*
X125047619Y-94035952D01*
X125095238Y-94083571D01*
X125142857Y-94178809D01*
X125142857Y-94416904D01*
X125095238Y-94512142D01*
X125047619Y-94559761D01*
X124952380Y-94607380D01*
X124666666Y-94607380D01*
X124571428Y-94559761D01*
X124523809Y-94512142D01*
X123015476Y-127547380D02*
X123015476Y-128261666D01*
X122967857Y-128404523D01*
X122872619Y-128499761D01*
X122729761Y-128547380D01*
X122634523Y-128547380D01*
X124015476Y-128547380D02*
X123444047Y-128547380D01*
X123729761Y-128547380D02*
X123729761Y-127547380D01*
X123634523Y-127690238D01*
X123539285Y-127785476D01*
X123444047Y-127833095D01*
X124920238Y-127547380D02*
X124444047Y-127547380D01*
X124396428Y-128023571D01*
X124444047Y-127975952D01*
X124539285Y-127928333D01*
X124777380Y-127928333D01*
X124872619Y-127975952D01*
X124920238Y-128023571D01*
X124967857Y-128118809D01*
X124967857Y-128356904D01*
X124920238Y-128452142D01*
X124872619Y-128499761D01*
X124777380Y-128547380D01*
X124539285Y-128547380D01*
X124444047Y-128499761D01*
X124396428Y-128452142D01*
X123190476Y-102782380D02*
X123190476Y-103496666D01*
X123142857Y-103639523D01*
X123047619Y-103734761D01*
X122904761Y-103782380D01*
X122809523Y-103782380D01*
X124190476Y-103782380D02*
X123619047Y-103782380D01*
X123904761Y-103782380D02*
X123904761Y-102782380D01*
X123809523Y-102925238D01*
X123714285Y-103020476D01*
X123619047Y-103068095D01*
X125047619Y-102782380D02*
X124857142Y-102782380D01*
X124761904Y-102830000D01*
X124714285Y-102877619D01*
X124619047Y-103020476D01*
X124571428Y-103210952D01*
X124571428Y-103591904D01*
X124619047Y-103687142D01*
X124666666Y-103734761D01*
X124761904Y-103782380D01*
X124952380Y-103782380D01*
X125047619Y-103734761D01*
X125095238Y-103687142D01*
X125142857Y-103591904D01*
X125142857Y-103353809D01*
X125095238Y-103258571D01*
X125047619Y-103210952D01*
X124952380Y-103163333D01*
X124761904Y-103163333D01*
X124666666Y-103210952D01*
X124619047Y-103258571D01*
X124571428Y-103353809D01*
X70358095Y-26132380D02*
X70358095Y-25132380D01*
X70358095Y-25608571D02*
X70929523Y-25608571D01*
X70929523Y-26132380D02*
X70929523Y-25132380D01*
X71929523Y-26132380D02*
X71358095Y-26132380D01*
X71643809Y-26132380D02*
X71643809Y-25132380D01*
X71548571Y-25275238D01*
X71453333Y-25370476D01*
X71358095Y-25418095D01*
X215138095Y-26132380D02*
X215138095Y-25132380D01*
X215138095Y-25608571D02*
X215709523Y-25608571D01*
X215709523Y-26132380D02*
X215709523Y-25132380D01*
X216138095Y-25227619D02*
X216185714Y-25180000D01*
X216280952Y-25132380D01*
X216519047Y-25132380D01*
X216614285Y-25180000D01*
X216661904Y-25227619D01*
X216709523Y-25322857D01*
X216709523Y-25418095D01*
X216661904Y-25560952D01*
X216090476Y-26132380D01*
X216709523Y-26132380D01*
X70358095Y-148052380D02*
X70358095Y-147052380D01*
X70358095Y-147528571D02*
X70929523Y-147528571D01*
X70929523Y-148052380D02*
X70929523Y-147052380D01*
X71310476Y-147052380D02*
X71929523Y-147052380D01*
X71596190Y-147433333D01*
X71739047Y-147433333D01*
X71834285Y-147480952D01*
X71881904Y-147528571D01*
X71929523Y-147623809D01*
X71929523Y-147861904D01*
X71881904Y-147957142D01*
X71834285Y-148004761D01*
X71739047Y-148052380D01*
X71453333Y-148052380D01*
X71358095Y-148004761D01*
X71310476Y-147957142D01*
M02*
